<?xml version="1.0" standalone="no"?><svg xmlns="http://www.w3.org/2000/svg" width="400.000" height="400.000" viewBox="0.0 0.0 400.000 400.000" version="1.1">
  <title>Produce by Acme CAD Converter</title>
  <desc>Produce by Acme CAD Converter</desc>
<g id="0" display="visible">
<g><path d="M279.71 267.05L281.68 258.41M281.68 258.41L287.21 251.47M287.21 251.47L295.2 247.63M295.2 247.63L304.07 247.63M304.07 247.63L312.06 251.47M312.06 251.47L317.59 258.41M317.59 258.41L319.56 267.05M319.56 267.05L317.59 275.7M317.59 275.7L312.06 282.63M312.06 282.63L304.07 286.48M304.07 286.48L295.2 286.48M295.2 286.48L287.21 282.63M287.21 282.63L281.68 275.7M281.68 275.7L279.71 267.05"
fill="none" stroke="black" stroke-width="12"/>
</g>
<g><path d="M319.56 296.94L319.56 237.16"
fill="none" stroke="black" stroke-width="12"/>
</g>
<g><path d="M399.27 267.05L319.56 267.05"
fill="none" stroke="black" stroke-width="12"/>
</g>
<g><path d="M284.89 103.06L324.74 172"
fill="none" stroke="black" stroke-width="12"/>
</g>
<g><path d="M324.74 172L152.18 271.64"
fill="none" stroke="black" stroke-width="12"/>
</g>
<g><path d="M152.18 271.64L112.32 202.69"
fill="none" stroke="black" stroke-width="12"/>
</g>
<g><path d="M112.32 202.69L284.89 103.06"
fill="none" stroke="black" stroke-width="12"/>
</g>
<g><path d="M356.62 107.64L80.44 267.05"
fill="none" stroke="black" stroke-width="12"/>
</g>
<g><path d="M80.44 267.05L0.73 267.05"
fill="none" stroke="black" stroke-width="12"/>
</g>
</g>
</svg>
