<?xml version="1.0" standalone="no"?><svg xmlns="http://www.w3.org/2000/svg" width="400.000" height="400.000" viewBox="0.0 0.0 400.000 400.000" version="1.1">
  <title>Produce by Acme CAD Converter</title>
  <desc>Produce by Acme CAD Converter</desc>
<g id="0" display="visible">
<g><path d="M182.2 96.05L182.2 78.46 181.93 78.68 182.2 96.05Z"
fill-rule="evenodd" fill="black"/>
<path d="M182.2 96.05L195.39 106.14 182.2 78.46 182.2 96.05Z"
fill-rule="evenodd" fill="black"/>
<path d="M195.39 106.14L195.39 67.7 182.2 78.46 195.39 106.14Z"
fill-rule="evenodd" fill="black"/>
<path d="M195.39 106.14L196 106.6 195.39 67.7 195.39 106.14Z"
fill-rule="evenodd" fill="black"/>
<path d="M196 106.6L196 67.83 195.39 67.7 196 106.6Z"
fill-rule="evenodd" fill="black"/>
<path d="M196 106.6L212.35 102.45 196 67.83 196 106.6Z"
fill-rule="evenodd" fill="black"/>
<path d="M212.35 102.45L212.35 71.45 196 67.83 212.35 102.45Z"
fill-rule="evenodd" fill="black"/>
<path d="M212.35 102.45L212.84 102.32 212.35 71.45 212.35 102.45Z"
fill-rule="evenodd" fill="black"/>
<path d="M212.84 102.32L212.84 72.44 212.35 71.45 212.84 102.32Z"
fill-rule="evenodd" fill="black"/>
<path d="M212.84 102.32L219.93 87.08 212.84 72.44 212.84 102.32Z"
fill-rule="evenodd" fill="black"/>
</g>
<g><path d="M200 219.93L200 366.06"
fill="none" stroke="black" stroke-width="12"/>
</g>
<g><path d="M180.07 87.08L182.05 78.44M182.05 78.44L187.58 71.5M187.58 71.5L195.57 67.66M195.57 67.66L204.43 67.66M204.43 67.66L212.42 71.5M212.42 71.5L217.95 78.44M217.95 78.44L219.93 87.08M219.93 87.08L217.95 95.73M217.95 95.73L212.42 102.66M212.42 102.66L204.43 106.51M204.43 106.51L195.57 106.51M195.57 106.51L187.58 102.66M187.58 102.66L182.05 95.73M182.05 95.73L180.07 87.08"
fill="none" stroke="black" stroke-width="12"/>
</g>
<g><path d="M399.27 166.79L253.14 166.79"
fill="none" stroke="black" stroke-width="12"/>
</g>
<g><path d="M299.1 140.22L253.14 166.79"
fill="none" stroke="black" stroke-width="12"/>
</g>
<g><path d="M253.14 166.79L299.1 193.36"
fill="none" stroke="black" stroke-width="12"/>
</g>
<g><path d="M67.16 166.79L69.07 144.34M69.07 144.34L74.74 122.53M74.74 122.53L84.02 102M84.02 102L96.64 83.33M96.64 83.33L112.23 67.07M112.23 67.07L130.35 53.67M130.35 53.67L150.47 43.52M150.47 43.52L172.01 36.93M172.01 36.93L194.36 34.06M194.36 34.06L216.87 35.02M216.87 35.02L238.9 39.77M238.9 39.77L259.81 48.17M259.81 48.17L278.99 59.98M278.99 59.98L295.91 74.87M295.91 74.87L310.06 92.4M310.06 92.4L321.05 112.07M321.05 112.07L328.56 133.31M328.56 133.31L332.37 155.52M332.37 155.52L332.37 178.05M332.37 178.05L328.56 200.26M328.56 200.26L321.05 221.51M321.05 221.51L310.06 241.18M310.06 241.18L295.91 258.71M295.91 258.71L278.99 273.6M278.99 273.6L259.81 285.41M259.81 285.41L238.9 293.81M238.9 293.81L216.87 298.56M216.87 298.56L194.36 299.51M194.36 299.51L172.01 296.65M172.01 296.65L150.47 290.05M150.47 290.05L130.35 279.91M130.35 279.91L112.23 266.51M112.23 266.51L96.64 250.24M96.64 250.24L84.02 231.58M84.02 231.58L74.74 211.04M74.74 211.04L69.07 189.24M69.07 189.24L67.16 166.79"
fill="none" stroke="black" stroke-width="12"/>
</g>
<g><path d="M100.9 193.36L146.86 166.79"
fill="none" stroke="black" stroke-width="12"/>
</g>
<g><path d="M146.86 166.79L100.9 140.22"
fill="none" stroke="black" stroke-width="12"/>
</g>
<g><path d="M146.86 166.79L0.73 166.79"
fill="none" stroke="black" stroke-width="12"/>
</g>
<g><path d="M0.73 166.79L0.73 166.79"
fill="none" stroke="black" stroke-width=".5"/>
</g>
<g><path d="M399.27 166.79L399.27 166.79"
fill="none" stroke="black" stroke-width=".5"/>
</g>
<g><path d="M200 366.06L200 366.06"
fill="none" stroke="black" stroke-width=".5"/>
</g>
</g>
</svg>
