<?xml version="1.0" standalone="no"?><svg xmlns="http://www.w3.org/2000/svg" width="400.000" height="400.000" viewBox="0.0 0.0 400.000 400.000" version="1.1">
  <title>Produce by Acme CAD Converter</title>
  <desc>Produce by Acme CAD Converter</desc>
<g id="0" display="visible">
<g><path d="M235.34 275.39L235.34 257.8 235.07 258.02 235.34 275.39Z"
fill-rule="evenodd" fill="black"/>
<path d="M235.34 275.39L248.53 285.48 235.34 257.8 235.34 275.39Z"
fill-rule="evenodd" fill="black"/>
<path d="M248.53 285.48L248.53 247.04 235.34 257.8 248.53 285.48Z"
fill-rule="evenodd" fill="black"/>
<path d="M248.53 285.48L249.14 285.94 248.53 247.04 248.53 285.48Z"
fill-rule="evenodd" fill="black"/>
<path d="M249.14 285.94L249.14 247.17 248.53 247.04 249.14 285.94Z"
fill-rule="evenodd" fill="black"/>
<path d="M249.14 285.94L265.49 281.79 249.14 247.17 249.14 285.94Z"
fill-rule="evenodd" fill="black"/>
<path d="M265.49 281.79L265.49 250.79 249.14 247.17 265.49 281.79Z"
fill-rule="evenodd" fill="black"/>
<path d="M265.49 281.79L265.97 281.66 265.49 250.79 265.49 281.79Z"
fill-rule="evenodd" fill="black"/>
<path d="M265.97 281.66L265.97 251.78 265.49 250.79 265.97 281.66Z"
fill-rule="evenodd" fill="black"/>
<path d="M265.97 281.66L273.06 266.42 265.97 251.78 265.97 281.66Z"
fill-rule="evenodd" fill="black"/>
</g>
<g><path d="M233.21 266.42L235.18 257.78M235.18 257.78L240.71 250.84M240.71 250.84L248.7 247M248.7 247L257.57 247M257.57 247L265.56 250.84M265.56 250.84L271.09 257.78M271.09 257.78L273.06 266.42M273.06 266.42L271.09 275.07M271.09 275.07L265.56 282M265.56 282L257.57 285.85M257.57 285.85L248.7 285.85M248.7 285.85L240.71 282M240.71 282L235.18 275.07M235.18 275.07L233.21 266.42"
fill="none" stroke="black" stroke-width="12"/>
</g>
<g><path d="M399.27 200L253.14 200"
fill="none" stroke="black" stroke-width="12"/>
</g>
<g><path d="M299.1 173.43L253.14 200"
fill="none" stroke="black" stroke-width="12"/>
</g>
<g><path d="M253.14 200L299.1 226.57"
fill="none" stroke="black" stroke-width="12"/>
</g>
<g><path d="M67.16 200L69.07 177.55M69.07 177.55L74.74 155.74M74.74 155.74L84.02 135.21M84.02 135.21L96.64 116.54M96.64 116.54L112.23 100.28M112.23 100.28L130.35 86.88M130.35 86.88L150.47 76.74M150.47 76.74L172.01 70.14M172.01 70.14L194.36 67.28M194.36 67.28L216.87 68.23M216.87 68.23L238.9 72.98M238.9 72.98L259.81 81.38M259.81 81.38L278.99 93.19M278.99 93.19L295.91 108.08M295.91 108.08L310.06 125.61M310.06 125.61L321.05 145.28M321.05 145.28L328.56 166.53M328.56 166.53L332.37 188.73M332.37 188.73L332.37 211.27M332.37 211.27L328.56 233.47M328.56 233.47L321.05 254.72M321.05 254.72L310.06 274.39M310.06 274.39L295.91 291.92M295.91 291.92L278.99 306.81M278.99 306.81L259.81 318.62M259.81 318.62L238.9 327.02M238.9 327.02L216.87 331.77M216.87 331.77L194.36 332.72M194.36 332.72L172.01 329.86M172.01 329.86L150.47 323.26M150.47 323.26L130.35 313.12M130.35 313.12L112.23 299.72M112.23 299.72L96.64 283.46M96.64 283.46L84.02 264.79M84.02 264.79L74.74 244.26M74.74 244.26L69.07 222.45M69.07 222.45L67.16 200"
fill="none" stroke="black" stroke-width="12"/>
</g>
<g><path d="M100.9 226.57L146.86 200"
fill="none" stroke="black" stroke-width="12"/>
</g>
<g><path d="M146.86 200L100.9 173.43"
fill="none" stroke="black" stroke-width="12"/>
</g>
<g><path d="M146.86 200L0.73 200"
fill="none" stroke="black" stroke-width="12"/>
</g>
<g><path d="M0.73 200L0.73 200"
fill="none" stroke="black" stroke-width=".5"/>
</g>
<g><path d="M399.27 200L399.27 200"
fill="none" stroke="black" stroke-width=".5"/>
</g>
</g>
</svg>
