<?xml version="1.0" standalone="no"?><svg xmlns="http://www.w3.org/2000/svg" width="400.000" height="400.000" viewBox="0.0 0.0 400.000 400.000" version="1.1">
  <title>Produce by Acme CAD Converter</title>
  <desc>Produce by Acme CAD Converter</desc>
<g id="0" display="visible">
<g><path d="M246.43 216.69L246.43 203.49 246.23 203.66 246.43 216.69Z"
fill-rule="evenodd" fill="black"/>
<path d="M246.43 216.69L256.32 224.26 246.43 203.49 246.43 216.69Z"
fill-rule="evenodd" fill="black"/>
<path d="M256.32 224.26L256.32 195.42 246.43 203.49 256.32 224.26Z"
fill-rule="evenodd" fill="black"/>
<path d="M256.32 224.26L256.78 224.6 256.32 195.42 256.32 224.26Z"
fill-rule="evenodd" fill="black"/>
<path d="M256.78 224.6L256.78 195.52 256.32 195.42 256.78 224.6Z"
fill-rule="evenodd" fill="black"/>
<path d="M256.78 224.6L269.05 221.49 256.78 195.52 256.78 224.6Z"
fill-rule="evenodd" fill="black"/>
<path d="M269.05 221.49L269.05 198.24 256.78 195.52 269.05 221.49Z"
fill-rule="evenodd" fill="black"/>
<path d="M269.05 221.49L269.41 221.39 269.05 198.24 269.05 221.49Z"
fill-rule="evenodd" fill="black"/>
<path d="M269.41 221.39L269.41 198.98 269.05 198.24 269.41 221.39Z"
fill-rule="evenodd" fill="black"/>
<path d="M269.41 221.39L274.73 209.96 269.41 198.98 269.41 221.39Z"
fill-rule="evenodd" fill="black"/>
</g>
<g><path d="M80.44 160.15L82.36 138.8M82.36 138.8L88.06 118.14M88.06 118.14L97.36 98.82M97.36 98.82L109.96 81.48M109.96 81.48L125.46 66.67M125.46 66.67L143.34 54.86M143.34 54.86L163.05 46.44M163.05 46.44L183.95 41.67M183.95 41.67L205.36 40.71M205.36 40.71L226.6 43.58M226.6 43.58L246.99 50.21M246.99 50.21L265.87 60.37M265.87 60.37L282.62 73.73M282.62 73.73L296.73 89.87M296.73 89.87L307.72 108.27M307.72 108.27L315.25 128.34M315.25 128.34L319.08 149.43M319.08 149.43L319.08 170.86M319.08 170.86L315.25 191.95M315.25 191.95L307.72 212.02M307.72 212.02L296.73 230.42M296.73 230.42L282.62 246.56M282.62 246.56L265.87 259.93M265.87 259.93L246.99 270.09M246.99 270.09L226.6 276.71M226.6 276.71L205.36 279.59M205.36 279.59L183.95 278.62M183.95 278.62L163.05 273.85M163.05 273.85L143.34 265.43M143.34 265.43L125.46 253.62M125.46 253.62L109.96 238.81M109.96 238.81L97.36 221.47M97.36 221.47L88.06 202.16M88.06 202.16L82.36 181.49M82.36 181.49L80.44 160.15"
fill="none" stroke="black" stroke-width="12"/>
</g>
<g><path d="M0.73 160.15L140.22 160.15"
fill="none" stroke="black" stroke-width="12"/>
</g>
<g><path d="M140.22 160.15L100.37 190.04"
fill="none" stroke="black" stroke-width="12"/>
</g>
<g><path d="M140.22 160.15L100.37 130.26"
fill="none" stroke="black" stroke-width="12"/>
</g>
<g><path d="M259.78 160.15L399.27 160.15"
fill="none" stroke="black" stroke-width="12"/>
</g>
<g><path d="M259.78 160.15L299.63 190.04"
fill="none" stroke="black" stroke-width="12"/>
</g>
<g><path d="M259.78 160.15L299.63 130.26"
fill="none" stroke="black" stroke-width="12"/>
</g>
<g><path d="M180.07 160.15L120.29 219.93"
fill="none" stroke="black" stroke-width="12"/>
</g>
<g><path d="M120.29 219.93L120.29 359.41"
fill="none" stroke="black" stroke-width="12"/>
</g>
<g><path d="M244.84 209.96L246.55 203.02M246.55 203.02L251.29 197.66M251.29 197.66L257.98 195.13M257.98 195.13L265.08 195.99M265.08 195.99L270.97 200.05M270.97 200.05L274.29 206.39M274.29 206.39L274.29 213.54M274.29 213.54L270.97 219.87M270.97 219.87L265.08 223.94M265.08 223.94L257.98 224.8M257.98 224.8L251.29 222.26M251.29 222.26L246.55 216.91M246.55 216.91L244.84 209.96"
fill="none" stroke="black" stroke-width="12"/>
</g>
<g><path d="M0.73 160.15L0.73 160.15"
fill="none" stroke="black" stroke-width=".5"/>
</g>
<g><path d="M399.27 160.15L399.27 160.15"
fill="none" stroke="black" stroke-width=".5"/>
</g>
<g><path d="M120.29 359.41L120.29 359.41"
fill="none" stroke="black" stroke-width=".5"/>
</g>
</g>
</svg>
