<?xml version="1.0" standalone="no"?><svg xmlns="http://www.w3.org/2000/svg" width="400.000" height="400.000" viewBox="0.0 0.0 400.000 400.000" version="1.1">
  <title>Produce by Acme CAD Converter</title>
  <desc>Produce by Acme CAD Converter</desc>
<g id="0" display="visible">
<g><path d="M399.27 200L339.49 200"
fill="none" stroke="black" stroke-width="12"/>
</g>
<g><path d="M259.78 200L261.73 187.68M261.73 187.68L267.39 176.57M267.39 176.57L276.21 167.76M276.21 167.76L287.32 162.1M287.32 162.1L299.63 160.15M299.63 160.15L311.95 162.1M311.95 162.1L323.06 167.76M323.06 167.76L331.88 176.57M331.88 176.57L337.54 187.68M337.54 187.68L339.49 200M339.49 200L337.54 212.32M337.54 212.32L331.88 223.43M331.88 223.43L323.06 232.24M323.06 232.24L311.95 237.9M311.95 237.9L299.63 239.85M299.63 239.85L287.32 237.9M287.32 237.9L276.21 232.24M276.21 232.24L267.39 223.43M267.39 223.43L261.73 212.32M261.73 212.32L259.78 200"
fill="none" stroke="black" stroke-width="12"/>
</g>
<g><path d="M60.51 200L62.46 187.68M62.46 187.68L68.12 176.57M68.12 176.57L76.94 167.76M76.94 167.76L88.05 162.1M88.05 162.1L100.37 160.15M100.37 160.15L112.68 162.1M112.68 162.1L123.79 167.76M123.79 167.76L132.61 176.57M132.61 176.57L138.27 187.68M138.27 187.68L140.22 200M140.22 200L138.27 212.32M138.27 212.32L132.61 223.43M132.61 223.43L123.79 232.24M123.79 232.24L112.68 237.9M112.68 237.9L100.37 239.85M100.37 239.85L88.05 237.9M88.05 237.9L76.94 232.24M76.94 232.24L68.12 223.43M68.12 223.43L62.46 212.32M62.46 212.32L60.51 200"
fill="none" stroke="black" stroke-width="12"/>
</g>
<g><path d="M60.51 200L0.73 200"
fill="none" stroke="black" stroke-width="12"/>
</g>
<g><path d="M0.73 200L0.73 200"
fill="none" stroke="black" stroke-width=".5"/>
</g>
<g><path d="M399.27 200L399.27 200"
fill="none" stroke="black" stroke-width=".5"/>
</g>
</g>
</svg>
