<?xml version="1.0" standalone="no"?><svg xmlns="http://www.w3.org/2000/svg" width="400.000" height="400.000" viewBox="0.0 0.0 400.000 400.000" version="1.1">
  <title>Produce by Acme CAD Converter</title>
  <desc>Produce by Acme CAD Converter</desc>
<g id="0" display="visible">
<g><path d="M399.27 319.56L332.84 319.56"
fill="none" stroke="black" stroke-width="12"/>
</g>
<g><path d="M279.71 319.56L281.5 309.96M281.5 309.96L286.64 301.66M286.64 301.66L294.43 295.78M294.43 295.78L303.82 293.1M303.82 293.1L313.55 294.01M313.55 294.01L322.29 298.36M322.29 298.36L328.86 305.57M328.86 305.57L332.39 314.68M332.39 314.68L332.39 324.44M332.39 324.44L328.86 333.55M328.86 333.55L322.29 340.76M322.29 340.76L313.55 345.11M313.55 345.11L303.82 346.02M303.82 346.02L294.43 343.34M294.43 343.34L286.64 337.46M286.64 337.46L281.5 329.16M281.5 329.16L279.71 319.56"
fill="none" stroke="black" stroke-width="12"/>
</g>
<g><path d="M200 53.87L200 213.28"
fill="none" stroke="black" stroke-width="12"/>
</g>
<g><path d="M200 213.28L143.65 269.64"
fill="none" stroke="black" stroke-width="12"/>
</g>
<g><path d="M67.16 319.56L68.95 309.96M68.95 309.96L74.09 301.66M74.09 301.66L81.88 295.78M81.88 295.78L91.27 293.1M91.27 293.1L101 294.01M101 294.01L109.74 298.36M109.74 298.36L116.31 305.57M116.31 305.57L119.84 314.68M119.84 314.68L119.84 324.44M119.84 324.44L116.31 333.55M116.31 333.55L109.74 340.76M109.74 340.76L101 345.11M101 345.11L91.27 346.02M91.27 346.02L81.88 343.34M81.88 343.34L74.09 337.46M74.09 337.46L68.95 329.16M68.95 329.16L67.16 319.56"
fill="none" stroke="black" stroke-width="12"/>
</g>
<g><path d="M67.16 319.56L0.73 319.56"
fill="none" stroke="black" stroke-width="12"/>
</g>
<g><path d="M0.73 319.56L0.73 319.56"
fill="none" stroke="black" stroke-width=".5"/>
</g>
<g><path d="M399.27 319.56L399.27 319.56"
fill="none" stroke="black" stroke-width=".5"/>
</g>
<g><path d="M200 53.87L200 53.87"
fill="none" stroke="black" stroke-width=".5"/>
</g>
</g>
</svg>
