<?xml version="1.0" standalone="no"?><svg xmlns="http://www.w3.org/2000/svg" width="400.000" height="400.000" viewBox="0.0 0.0 400.000 400.000" version="1.1">
  <title>Produce by Acme CAD Converter</title>
  <desc>Produce by Acme CAD Converter</desc>
<g id="0" display="visible">
<g><path d="M36.96 210.33L38.96 194.56M38.96 194.56L44.81 179.78M44.81 179.78L54.15 166.92M54.15 166.92L66.39 156.79M66.39 156.79L80.77 150.03M80.77 150.03L96.39 147.05M96.39 147.05L112.25 148.05M112.25 148.05L127.36 152.96M127.36 152.96L140.78 161.47M140.78 161.47L151.66 173.06M151.66 173.06L159.32 186.99M159.32 186.99L163.27 202.38M163.27 202.38L163.27 218.27M163.27 218.27L159.32 233.67M159.32 233.67L151.66 247.59M151.66 247.59L140.78 259.18M140.78 259.18L127.36 267.69M127.36 267.69L112.25 272.61M112.25 272.61L96.39 273.6M96.39 273.6L80.77 270.63M80.77 270.63L66.39 263.86M66.39 263.86L54.15 253.73M54.15 253.73L44.81 240.87M44.81 240.87L38.96 226.09M38.96 226.09L36.96 210.33"
fill="none" stroke="black" stroke-width="3"/>
</g>
<g><path d="M272.46 210.33L274.3 197.57M274.3 197.57L279.65 185.84M279.65 185.84L288.09 176.1M288.09 176.1L298.94 169.13M298.94 169.13L311.3 165.5M311.3 165.5L324.19 165.5M324.19 165.5L336.56 169.13M336.56 169.13L347.41 176.1M347.41 176.1L355.85 185.84M355.85 185.84L361.2 197.57M361.2 197.57L363.04 210.33M363.04 210.33L361.2 223.08M361.2 223.08L355.85 234.81M355.85 234.81L347.41 244.55M347.41 244.55L336.56 251.52M336.56 251.52L324.19 255.15M324.19 255.15L311.3 255.15M311.3 255.15L298.94 251.52M298.94 251.52L288.09 244.55M288.09 244.55L279.65 234.81M279.65 234.81L274.3 223.08M274.3 223.08L272.46 210.33"
fill="none" stroke="black" stroke-width="3"/>
</g>
<g><path d="M105.62 147.1L321.55 165.22"
fill="none" stroke="black" stroke-width="3"/>
</g>
<g><path d="M105.62 273.55L321.55 255.43"
fill="none" stroke="black" stroke-width="3"/>
</g>
<g><path d="M0.73 210.33L399.27 210.33"
fill="none" stroke="black" stroke-width="3"/>
</g>
<g><path d="M100.37 110.69L100.37 309.96"
fill="none" stroke="black" stroke-width="3"/>
</g>
<g><path d="M317.75 128.81L317.75 291.84"
fill="none" stroke="black" stroke-width="3"/>
</g>
<g><path d="M180.25 124.64L270.47 132.07"
fill="none" stroke="black" stroke-width="9"/>
</g>
<g><path d="M181.7 106.53L271.92 114.13"
fill="none" stroke="black" stroke-width="9"/>
</g>
<g><path d="M196.74 144.21L201.27 90.04"
fill="none" stroke="black" stroke-width="9"/>
</g>
<g><path d="M250.9 148.73L255.43 94.57"
fill="none" stroke="black" stroke-width="9"/>
</g>
</g>
</svg>
