<?xml version="1.0" standalone="no"?><svg xmlns="http://www.w3.org/2000/svg" width="400.000" height="400.000" viewBox="0.0 0.0 400.000 400.000" version="1.1">
  <title>Produce by Acme CAD Converter</title>
  <desc>Produce by Acme CAD Converter</desc>
<g id="0" display="visible">
<g><path d="M21.71 166.18L179.44 166.18"
fill="none" stroke="black" stroke-width="9"/>
</g>
<g><path d="M214.05 166.18L336.34 166.18"
fill="none" stroke="black" stroke-width="9"/>
</g>
<g><path d="M21.71 197.64L144 197.64"
fill="none" stroke="black" stroke-width="9"/>
</g>
<g><path d="M178.61 197.64L336.34 197.64"
fill="none" stroke="black" stroke-width="9"/>
</g>
<g><path d="M21.71 166.18L21.71 197.64"
fill="none" stroke="black" stroke-width="9"/>
</g>
<g><path d="M336.34 166.18L336.34 197.64"
fill="none" stroke="black" stroke-width="9"/>
</g>
<g><path d="M104.88 219.04L141.9 256.06"
fill="none" stroke="black" stroke-width="9"/>
</g>
<g><path d="M216.15 107.76L253.17 144.78"
fill="none" stroke="black" stroke-width="9"/>
</g>
<g><path d="M279.18 81.75L234.61 126.32"
fill="none" stroke="black" stroke-width="9"/>
</g>
<g><path d="M123.44 237.49L49.29 311.64"
fill="none" stroke="black" stroke-width="9"/>
</g>
<g><path d="M0.73 181.91L357.32 181.91"
fill="none" stroke="black" stroke-width="3"/>
</g>
<g><path d="M171.16 181.91L186.89 181.91"
fill="none" stroke="black" stroke-width="3"/>
</g>
<g><path d="M179.02 174.04L179.02 189.77"
fill="none" stroke="black" stroke-width="3"/>
</g>
<g><path d="M104.87 218.92L128.99 207.07M128.99 207.07L151.35 192.16M151.35 192.16L171.56 174.45M171.56 174.45L189.28 154.24M189.28 154.24L204.19 131.88M204.19 131.88L216.04 107.76"
fill="none" stroke="black" stroke-width="9"/>
</g>
<g><path d="M253.18 144.9L229.06 156.75M229.06 156.75L206.7 171.66M206.7 171.66L186.49 189.37M186.49 189.37L168.77 209.58M168.77 209.58L153.86 231.94M153.86 231.94L142.01 256.06"
fill="none" stroke="black" stroke-width="9"/>
</g>
<g><path d="M69.84 255.62L59.48 258.95M59.48 258.95L50.87 265.62M50.87 265.62L45.05 274.82M45.05 274.82L42.71 285.46M42.71 285.46L44.14 296.25M44.14 296.25L49.17 305.91M49.17 305.91L57.18 313.28M57.18 313.28L67.23 317.48M67.23 317.48L78.11 318M78.11 318L88.51 314.78M88.51 314.78L97.19 308.21M97.19 308.21L103.11 299.07M103.11 299.07L105.57 288.46"
fill="none" stroke="black" stroke-width="3"/>
</g>
<g><path d="M69.85 255.64L55.79 271.16"
fill="none" stroke="black" stroke-width="3"/>
</g>
<g><path d="M69.85 255.64L49.29 259.94"
fill="none" stroke="black" stroke-width="3"/>
</g>
<g><path d="M399.27 192.4L325.12 118.25"
fill="none" stroke="black" stroke-width="3"/>
</g>
<g><path d="M399.27 192.4L380.6 182.85"
fill="none" stroke="black" stroke-width="3"/>
</g>
<g><path d="M399.27 192.4L389.72 173.73"
fill="none" stroke="black" stroke-width="3"/>
</g>
</g>
</svg>
