<?xml version="1.0" standalone="no"?><svg xmlns="http://www.w3.org/2000/svg" width="400.000" height="400.000" viewBox="0.0 0.0 400.000 400.000" version="1.1">
  <title>Produce by Acme CAD Converter</title>
  <desc>Produce by Acme CAD Converter</desc>
<g id="0" display="visible">
<g><path d="M0.73 232.14L0.73 334.99"
fill="none" stroke="black" stroke-width="9"/>
</g>
<g><path d="M26.45 296.42L26.45 167.86"
fill="none" stroke="black" stroke-width="9"/>
</g>
<g><path d="M0.73 232.14L386.41 232.14"
fill="none" stroke="black" stroke-width="9"/>
</g>
<g><path d="M52.16 167.86L180.72 167.86"
fill="none" stroke="black" stroke-width="9"/>
</g>
<g><path d="M52.16 296.42L180.72 296.42"
fill="none" stroke="black" stroke-width="9"/>
</g>
<g><path d="M116.44 167.86L219.28 65.01"
fill="none" stroke="black" stroke-width="9"/>
</g>
<g><path d="M142.15 167.86L140.19 158.02M140.19 158.02L134.62 149.68"
fill="none" stroke="black" stroke-width="9"/>
</g>
<g><path d="M206.43 167.86L206.43 296.42"
fill="none" stroke="black" stroke-width="9"/>
</g>
<g><path d="M232.14 167.86L360.7 167.86"
fill="none" stroke="black" stroke-width="9"/>
</g>
<g><path d="M232.14 296.42L360.7 296.42"
fill="none" stroke="black" stroke-width="9"/>
</g>
<g><path d="M386.41 296.42L386.41 167.86"
fill="none" stroke="black" stroke-width="9"/>
</g>
<g><path d="M296.42 167.86L399.27 65.01"
fill="none" stroke="black" stroke-width="9"/>
</g>
<g><path d="M322.13 167.86L320.17 158.02M320.17 158.02L314.6 149.68"
fill="none" stroke="black" stroke-width="9"/>
</g>
<g><path d="M137.05 167.86L141.72 163.19"
fill="none" stroke="black" stroke-width="3"/>
</g>
<g><path d="M127.96 167.86L139.44 156.38"
fill="none" stroke="black" stroke-width="3"/>
</g>
<g><path d="M118.87 167.86L135.79 150.94"
fill="none" stroke="black" stroke-width="3"/>
</g>
<g><path d="M318.86 167.86L321.95 164.78"
fill="none" stroke="black" stroke-width="3"/>
</g>
<g><path d="M309.77 167.86L320.01 157.63"
fill="none" stroke="black" stroke-width="3"/>
</g>
<g><path d="M300.68 167.86L316.61 151.94"
fill="none" stroke="black" stroke-width="3"/>
</g>
</g>
</svg>
