<?xml version="1.0" standalone="no"?><svg xmlns="http://www.w3.org/2000/svg" width="400.000" height="400.000" viewBox="0.0 0.0 400.000 400.000" version="1.1">
  <title>Produce by Acme CAD Converter</title>
  <desc>Produce by Acme CAD Converter</desc>
<g id="0" display="visible">
<g><path d="M43.43 200L128.83 200"
fill="none" stroke="black" stroke-width="9"/>
</g>
<g><path d="M128.83 114.6L128.83 285.4"
fill="none" stroke="black" stroke-width="9"/>
</g>
<g><path d="M128.83 57.67L128.83 0.73"
fill="none" stroke="black" stroke-width="9"/>
</g>
<g><path d="M128.83 342.33L128.83 399.27"
fill="none" stroke="black" stroke-width="9"/>
</g>
<g><path d="M128.83 114.6L138.57 112.88M138.57 112.88L147.13 107.94M147.13 107.94L153.49 100.37M153.49 100.37L156.87 91.08M156.87 91.08L156.87 81.19M156.87 81.19L153.49 71.9M153.49 71.9L147.13 64.33M147.13 64.33L138.57 59.38M138.57 59.38L128.83 57.67"
fill="none" stroke="black" stroke-width="9"/>
</g>
<g><path d="M128.83 342.33L138.57 340.62M138.57 340.62L147.13 335.67M147.13 335.67L153.49 328.1M153.49 328.1L156.87 318.81M156.87 318.81L156.87 308.92M156.87 308.92L153.49 299.63M153.49 299.63L147.13 292.06M147.13 292.06L138.57 287.12M138.57 287.12L128.83 285.4"
fill="none" stroke="black" stroke-width="9"/>
</g>
<g><path d="M128.83 0.73L271.17 0.73"
fill="none" stroke="black" stroke-width="9"/>
</g>
<g><path d="M128.83 399.27L271.17 399.27"
fill="none" stroke="black" stroke-width="9"/>
</g>
<g><path d="M271.17 57.67L200 57.67"
fill="none" stroke="black" stroke-width="9"/>
</g>
<g><path d="M271.17 342.33L200 342.33"
fill="none" stroke="black" stroke-width="9"/>
</g>
<g><path d="M271.17 0.73L271.17 313.87"
fill="none" stroke="black" stroke-width="9"/>
</g>
<g><path d="M271.17 313.87L200 313.87"
fill="none" stroke="black" stroke-width="9"/>
</g>
<g><path d="M271.17 399.27L271.17 342.33"
fill="none" stroke="black" stroke-width="9"/>
</g>
<g><path d="M271.17 200L356.57 200"
fill="none" stroke="black" stroke-width="9"/>
</g>
</g>
</svg>
