<?xml version="1.0" standalone="no"?><svg xmlns="http://www.w3.org/2000/svg" width="400.000" height="400.000" viewBox="0.0 0.0 400.000 400.000" version="1.1">
  <title>Produce by Acme CAD Converter</title>
  <desc>Produce by Acme CAD Converter</desc>
<g id="0" display="visible">
<g><path d="M80.44 200L140.22 200"
fill="none" stroke="black" stroke-width="9"/>
</g>
<g><path d="M140.22 140.22L140.22 259.78"
fill="none" stroke="black" stroke-width="9"/>
</g>
<g><path d="M140.22 100.37L140.22 60.51"
fill="none" stroke="black" stroke-width="9"/>
</g>
<g><path d="M140.22 299.63L140.22 339.49"
fill="none" stroke="black" stroke-width="9"/>
</g>
<g><path d="M140.22 140.22L148.87 138.25M148.87 138.25L155.8 132.72M155.8 132.72L159.65 124.73M159.65 124.73L159.65 115.86M159.65 115.86L155.8 107.87M155.8 107.87L148.87 102.34M148.87 102.34L140.22 100.37"
fill="none" stroke="black" stroke-width="9"/>
</g>
<g><path d="M140.22 299.63L148.87 297.66M148.87 297.66L155.8 292.13M155.8 292.13L159.65 284.14M159.65 284.14L159.65 275.27M159.65 275.27L155.8 267.28M155.8 267.28L148.87 261.75M148.87 261.75L140.22 259.78"
fill="none" stroke="black" stroke-width="9"/>
</g>
<g><path d="M140.22 60.51L219.93 60.51"
fill="none" stroke="black" stroke-width="9"/>
</g>
<g><path d="M140.22 339.49L219.93 339.49"
fill="none" stroke="black" stroke-width="9"/>
</g>
<g><path d="M219.93 60.51L219.93 30.62"
fill="none" stroke="black" stroke-width="9"/>
</g>
<g><path d="M219.93 339.49L219.93 369.38"
fill="none" stroke="black" stroke-width="9"/>
</g>
<g><path d="M219.93 30.62L180.07 30.62"
fill="none" stroke="black" stroke-width="9"/>
</g>
<g><path d="M219.93 369.38L180.07 369.38"
fill="none" stroke="black" stroke-width="9"/>
</g>
<g><path d="M180.07 30.62L180.07 0.73"
fill="none" stroke="black" stroke-width="9"/>
</g>
<g><path d="M160.15 0.73L259.78 0.73"
fill="none" stroke="black" stroke-width="9"/>
</g>
<g><path d="M160.15 399.27L259.78 399.27"
fill="none" stroke="black" stroke-width="9"/>
</g>
<g><path d="M259.78 0.73L259.78 399.27"
fill="none" stroke="black" stroke-width="9"/>
</g>
<g><path d="M259.78 200L319.56 200"
fill="none" stroke="black" stroke-width="9"/>
</g>
</g>
</svg>
