<?xml version="1.0" standalone="no"?><svg xmlns="http://www.w3.org/2000/svg" width="400.000" height="400.000" viewBox="0.0 0.0 400.000 400.000" version="1.1">
  <title>Produce by Acme CAD Converter</title>
  <desc>Produce by Acme CAD Converter</desc>
<g id="0" display="visible">
<g><path d="M169.54 368.81L169.54 31.19"
fill="none" stroke="black" stroke-width="3"/>
</g>
<g><path d="M0.73 200L338.35 200"
fill="none" stroke="black" stroke-width="3"/>
</g>
<g><path d="M61.02 200L62.98 179.46M62.98 179.46L68.79 159.67M68.79 159.67L78.25 141.33M78.25 141.33L91 125.11M91 125.11L106.59 111.6M106.59 111.6L124.46 101.29M124.46 101.29L143.96 94.54M143.96 94.54L164.38 91.6M164.38 91.6L184.98 92.59M184.98 92.59L205.03 97.45M205.03 97.45L223.8 106.02M223.8 106.02L240.6 117.99M240.6 117.99L254.84 132.92M254.84 132.92L265.99 150.27M265.99 150.27L273.66 169.43M273.66 169.43L277.57 189.68M277.57 189.68L277.57 210.32M277.57 210.32L273.66 230.57M273.66 230.57L265.99 249.73M265.99 249.73L254.84 267.08M254.84 267.08L240.6 282.01M240.6 282.01L223.8 293.98M223.8 293.98L205.03 302.55M205.03 302.55L184.98 307.41M184.98 307.41L164.38 308.4M164.38 308.4L143.96 305.46M143.96 305.46L124.46 298.71M124.46 298.71L106.59 288.4M106.59 288.4L91 274.89M91 274.89L78.25 258.67M78.25 258.67L68.79 240.33M68.79 240.33L62.98 220.54M62.98 220.54L61.02 200"
fill="none" stroke="black" stroke-width="9"/>
</g>
<g><path d="M24.85 200L26.82 176.18M26.82 176.18L32.69 153.02M32.69 153.02L42.29 131.13M42.29 131.13L55.36 111.13M55.36 111.13L71.54 93.55M71.54 93.55L90.4 78.87M90.4 78.87L111.42 67.5M111.42 67.5L134.02 59.74M134.02 59.74L157.59 55.8M157.59 55.8L181.49 55.8M181.49 55.8L205.06 59.74M205.06 59.74L227.66 67.5M227.66 67.5L248.68 78.87M248.68 78.87L267.54 93.55M267.54 93.55L283.72 111.13M283.72 111.13L296.79 131.13M296.79 131.13L306.39 153.02M306.39 153.02L312.26 176.18M312.26 176.18L314.23 200M314.23 200L312.26 223.82M312.26 223.82L306.39 246.98M306.39 246.98L296.79 268.87M296.79 268.87L283.72 288.87M283.72 288.87L267.54 306.45M267.54 306.45L248.68 321.13M248.68 321.13L227.66 332.5M227.66 332.5L205.06 340.26M205.06 340.26L181.49 344.2M181.49 344.2L157.59 344.2M157.59 344.2L134.02 340.26M134.02 340.26L111.42 332.5M111.42 332.5L90.4 321.13M90.4 321.13L71.54 306.45M71.54 306.45L55.36 288.87M55.36 288.87L42.29 268.87M42.29 268.87L32.69 246.98M32.69 246.98L26.82 223.82M26.82 223.82L24.85 200"
fill="none" stroke="black" stroke-width="9"/>
</g>
<g><path d="M294.85 127.65L399.27 67.37"
fill="none" stroke="black" stroke-width="9"/>
</g>
<g><path d="M305.12 149.47L311.65 144.95M311.65 144.95L316.36 138.55M316.36 138.55L318.73 130.97M318.73 130.97L318.51 123.04M318.51 123.04L315.73 115.6"
fill="none" stroke="black" stroke-width="9"/>
</g>
<g><path d="M103.22 200L105.01 192.15M105.01 192.15L110.03 185.86M110.03 185.86L117.28 182.37M117.28 182.37L125.33 182.37M125.33 182.37L132.59 185.86M132.59 185.86L137.6 192.15M137.6 192.15L139.4 200M139.4 200L137.6 207.85M137.6 207.85L132.59 214.14M132.59 214.14L125.33 217.63M125.33 217.63L117.28 217.63M117.28 217.63L110.03 214.14M110.03 214.14L105.01 207.85M105.01 207.85L103.22 200"
fill="none" stroke="black" stroke-width="9"/>
</g>
<g><path d="M181.6 248.23L73.08 248.23"
fill="none" stroke="black" stroke-width="9"/>
</g>
<g><path d="M132.16 214.47L157.48 248.23"
fill="none" stroke="black" stroke-width="9"/>
</g>
<g><path d="M110.46 214.47L85.14 248.23"
fill="none" stroke="black" stroke-width="9"/>
</g>
<g><path d="M308.5 147.53L314.72 141.31"
fill="none" stroke="black" stroke-width="3"/>
</g>
<g><path d="M302.61 143.19L318.95 126.85"
fill="none" stroke="black" stroke-width="3"/>
</g>
<g><path d="M299.39 136.18L317.13 118.44"
fill="none" stroke="black" stroke-width="3"/>
</g>
<g><path d="M295.87 129.46L301.56 123.78"
fill="none" stroke="black" stroke-width="3"/>
</g>
<g><path d="M142.76 272.35L166.88 248.23"
fill="none" stroke="black" stroke-width="3"/>
</g>
<g><path d="M85.14 261.76L98.67 248.23"
fill="none" stroke="black" stroke-width="3"/>
</g>
</g>
</svg>
