<?xml version="1.0" standalone="no"?><svg xmlns="http://www.w3.org/2000/svg" width="400.000" height="400.000" viewBox="0.0 0.0 400.000 400.000" version="1.1">
  <title>Produce by Acme CAD Converter</title>
  <desc>Produce by Acme CAD Converter</desc>
<g id="0" display="visible">
<g><path d="M36.96 200.54L38.96 184.78M38.96 184.78L44.81 170M44.81 170L54.15 157.14M54.15 157.14L66.39 147.01M66.39 147.01L80.77 140.24M80.77 140.24L96.39 137.27M96.39 137.27L112.25 138.26M112.25 138.26L127.36 143.17M127.36 143.17L140.78 151.69M140.78 151.69L151.66 163.28M151.66 163.28L159.32 177.2M159.32 177.2L163.27 192.6M163.27 192.6L163.27 208.49M163.27 208.49L159.32 223.88M159.32 223.88L151.66 237.81M151.66 237.81L140.78 249.4M140.78 249.4L127.36 257.91M127.36 257.91L112.25 262.82M112.25 262.82L96.39 263.82M96.39 263.82L80.77 260.84M80.77 260.84L66.39 254.08M66.39 254.08L54.15 243.95M54.15 243.95L44.81 231.09M44.81 231.09L38.96 216.31M38.96 216.31L36.96 200.54"
fill="none" stroke="black" stroke-width="9"/>
</g>
<g><path d="M272.46 200.54L274.3 187.78M274.3 187.78L279.65 176.06M279.65 176.06L288.09 166.32M288.09 166.32L298.94 159.35M298.94 159.35L311.3 155.72M311.3 155.72L324.19 155.72M324.19 155.72L336.56 159.35M336.56 159.35L347.41 166.32M347.41 166.32L355.85 176.06M355.85 176.06L361.2 187.78M361.2 187.78L363.04 200.54M363.04 200.54L361.2 213.3M361.2 213.3L355.85 225.03M355.85 225.03L347.41 234.77M347.41 234.77L336.56 241.74M336.56 241.74L324.19 245.37M324.19 245.37L311.3 245.37M311.3 245.37L298.94 241.74M298.94 241.74L288.09 234.77M288.09 234.77L279.65 225.03M279.65 225.03L274.3 213.3M274.3 213.3L272.46 200.54"
fill="none" stroke="black" stroke-width="9"/>
</g>
<g><path d="M105.62 137.32L321.55 155.44"
fill="none" stroke="black" stroke-width="9"/>
</g>
<g><path d="M105.62 263.77L321.55 245.65"
fill="none" stroke="black" stroke-width="9"/>
</g>
<g><path d="M0.73 200.54L399.27 200.54"
fill="none" stroke="black" stroke-width="3"/>
</g>
<g><path d="M100.37 100.91L100.37 300.18"
fill="none" stroke="black" stroke-width="3"/>
</g>
<g><path d="M317.75 119.03L317.75 282.06"
fill="none" stroke="black" stroke-width="3"/>
</g>
<g><path d="M145.11 99.82L163.23 101.27"
fill="none" stroke="black" stroke-width="9"/>
</g>
<g><path d="M163.23 101.27L165.76 128.81"
fill="none" stroke="black" stroke-width="9"/>
</g>
<g><path d="M165.76 128.81L183.7 130.26"
fill="none" stroke="black" stroke-width="9"/>
</g>
<g><path d="M183.7 130.26L190.76 103.63"
fill="none" stroke="black" stroke-width="9"/>
</g>
<g><path d="M190.76 103.63L208.88 105.08"
fill="none" stroke="black" stroke-width="9"/>
</g>
<g><path d="M208.88 105.08L211.41 132.61"
fill="none" stroke="black" stroke-width="9"/>
</g>
<g><path d="M211.41 132.61L229.35 134.06"
fill="none" stroke="black" stroke-width="9"/>
</g>
<g><path d="M229.35 134.06L236.41 107.43"
fill="none" stroke="black" stroke-width="9"/>
</g>
<g><path d="M236.41 107.43L254.53 108.88"
fill="none" stroke="black" stroke-width="9"/>
</g>
</g>
</svg>
