<?xml version="1.0" standalone="no"?><svg xmlns="http://www.w3.org/2000/svg" width="400.000" height="400.000" viewBox="0.0 0.0 400.000 400.000" version="1.1">
  <title>Produce by Acme CAD Converter</title>
  <desc>Produce by Acme CAD Converter</desc>
<g id="0" display="visible">
<g><path d="M150.18 83.76L152.03 70.32M152.03 70.32L157.44 57.88M157.44 57.88L166 47.35M166 47.35L177.08 39.53M177.08 39.53L189.86 34.99M189.86 34.99L203.4 34.06M203.4 34.06L216.68 36.82M216.68 36.82L228.73 43.06M228.73 43.06L238.64 52.32M238.64 52.32L245.69 63.91M245.69 63.91L249.35 76.98M249.35 76.98L249.35 90.54M249.35 90.54L245.69 103.61M245.69 103.61L238.64 115.2M238.64 115.2L228.73 124.46M228.73 124.46L216.68 130.7M216.68 130.7L203.4 133.46M203.4 133.46L189.86 132.54M189.86 132.54L177.08 127.99M177.08 127.99L166 120.17M166 120.17L157.44 109.65M157.44 109.65L152.03 97.2M152.03 97.2L150.18 83.76"
fill="none" stroke="black" stroke-width="9"/>
</g>
<g><path d="M133.58 200L135.51 184.1M135.51 184.1L141.19 169.13M141.19 169.13L150.28 155.95M150.28 155.95L162.27 145.34M162.27 145.34L176.45 137.89M176.45 137.89L191.99 134.06M191.99 134.06L208.01 134.06M208.01 134.06L223.55 137.89M223.55 137.89L237.73 145.34M237.73 145.34L249.72 155.95M249.72 155.95L258.81 169.13M258.81 169.13L264.49 184.1M264.49 184.1L266.42 200M266.42 200L264.49 215.9M264.49 215.9L258.81 230.87M258.81 230.87L249.72 244.05M249.72 244.05L237.73 254.66M237.73 254.66L223.55 262.11M223.55 262.11L208.01 265.94M208.01 265.94L191.99 265.94M191.99 265.94L176.45 262.11M176.45 262.11L162.27 254.66M162.27 254.66L150.28 244.05M150.28 244.05L141.19 230.87M141.19 230.87L135.51 215.9M135.51 215.9L133.58 200"
fill="none" stroke="black" stroke-width="9"/>
</g>
<g><path d="M150.18 316.24L152.03 302.8M152.03 302.8L157.44 290.35M157.44 290.35L166 279.83M166 279.83L177.08 272.01M177.08 272.01L189.86 267.46M189.86 267.46L203.4 266.54M203.4 266.54L216.68 269.3M216.68 269.3L228.73 275.54M228.73 275.54L238.64 284.8M238.64 284.8L245.69 296.39M245.69 296.39L249.35 309.46M249.35 309.46L249.35 323.02M249.35 323.02L245.69 336.09M245.69 336.09L238.64 347.68M238.64 347.68L228.73 356.94M228.73 356.94L216.68 363.18M216.68 363.18L203.4 365.94M203.4 365.94L189.86 365.01M189.86 365.01L177.08 360.47M177.08 360.47L166 352.65M166 352.65L157.44 342.12M157.44 342.12L152.03 329.68M152.03 329.68L150.18 316.24"
fill="none" stroke="black" stroke-width="9"/>
</g>
<g><path d="M33.94 200L35.89 174.65M35.89 174.65L41.68 149.9M41.68 149.9L51.19 126.32M51.19 126.32L64.18 104.47M64.18 104.47L80.35 84.85M80.35 84.85L99.33 67.94M99.33 67.94L120.67 54.12M120.67 54.12L143.87 43.72M143.87 43.72L168.38 36.98M168.38 36.98L193.64 34.07M193.64 34.07L219.04 35.04M219.04 35.04L244 39.88M244 39.88L267.93 48.47M267.93 48.47L290.26 60.62M290.26 60.62L310.48 76.03M310.48 76.03L328.11 94.35M328.11 94.35L342.74 115.14M342.74 115.14L354.02 137.93M354.02 137.93L361.69 162.16M361.69 162.16L365.57 187.29M365.57 187.29L365.57 212.71M365.57 212.71L361.69 237.84M361.69 237.84L354.02 262.07M354.02 262.07L342.74 284.86M342.74 284.86L328.11 305.65M328.11 305.65L310.48 323.97M310.48 323.97L290.26 339.38M290.26 339.38L267.93 351.53M267.93 351.53L244 360.12M244 360.12L219.04 364.96M219.04 364.96L193.64 365.93M193.64 365.93L168.38 363.02M168.38 363.02L143.87 356.28M143.87 356.28L120.67 345.88M120.67 345.88L99.33 332.06M99.33 332.06L80.35 315.15M80.35 315.15L64.18 295.53M64.18 295.53L51.19 273.68M51.19 273.68L41.68 250.1M41.68 250.1L35.89 225.35M35.89 225.35L33.94 200"
fill="none" stroke="black" stroke-width="9"/>
</g>
<g><path d="M100.37 83.76L299.63 83.76"
fill="none" stroke="black" stroke-width="3"/>
</g>
<g><path d="M100.37 316.24L299.63 316.24"
fill="none" stroke="black" stroke-width="3"/>
</g>
<g><path d="M0.73 200L399.27 200"
fill="none" stroke="black" stroke-width="3"/>
</g>
<g><path d="M200 0.73L200 399.27"
fill="none" stroke="black" stroke-width="3"/>
</g>
<g><path d="M187.55 105.34L196.76 108.46M196.76 108.46L206.45 107.82M206.45 107.82L215.17 103.52M215.17 103.52L221.58 96.21M221.58 96.21L224.7 87M224.7 87L224.06 77.31M224.06 77.31L219.76 68.59M219.76 68.59L212.45 62.19"
fill="none" stroke="black" stroke-width="3"/>
</g>
<g><path d="M187.55 105.32L194.63 106.17M194.63 106.17L201.65 104.98"
fill="none" stroke="black" stroke-width="3"/>
</g>
<g><path d="M187.53 105.36L193.65 109.84M193.65 109.84L200.84 112.28"
fill="none" stroke="black" stroke-width="3"/>
</g>
</g>
</svg>
