<?xml version="1.0" standalone="no"?><svg xmlns="http://www.w3.org/2000/svg" width="400.000" height="400.000" viewBox="0.0 0.0 400.000 400.000" version="1.1">
  <title>Produce by Acme CAD Converter</title>
  <desc>Produce by Acme CAD Converter</desc>
<g id="0" display="visible">
<g><path d="M24.18 141.39L375.82 141.39"
fill="none" stroke="black" stroke-width="9"/>
</g>
<g><path d="M24.18 258.61L375.82 258.61"
fill="none" stroke="black" stroke-width="9"/>
</g>
<g><path d="M24.17 258.56L38.01 253.62M38.01 253.62L50.23 245.46M50.23 245.46L60.11 234.57M60.11 234.57L67.04 221.61M67.04 221.61L70.61 207.35M70.61 207.35L70.61 192.65M70.61 192.65L67.04 178.39M67.04 178.39L60.11 165.43M60.11 165.43L50.23 154.54M50.23 154.54L38.01 146.38M38.01 146.38L24.17 141.44"
fill="none" stroke="black" stroke-width="9"/>
</g>
<g><path d="M375.83 141.44L361.99 146.38M361.99 146.38L349.77 154.54M349.77 154.54L339.89 165.43M339.89 165.43L332.96 178.39M332.96 178.39L329.39 192.65M329.39 192.65L329.39 207.35M329.39 207.35L332.96 221.61M332.96 221.61L339.89 234.57M339.89 234.57L349.77 245.46M349.77 245.46L361.99 253.62M361.99 253.62L375.83 258.56"
fill="none" stroke="black" stroke-width="9"/>
</g>
<g><path d="M200 82.78L200 141.39"
fill="none" stroke="black" stroke-width="9"/>
</g>
<g><path d="M200 317.22L200 258.61"
fill="none" stroke="black" stroke-width="9"/>
</g>
<g><path d="M117.95 246.89L117.95 153.11"
fill="none" stroke="black" stroke-width="9"/>
</g>
<g><path d="M282.05 246.89L282.05 153.11"
fill="none" stroke="black" stroke-width="9"/>
</g>
<g><path d="M282.08 246.83L259.78 236.97M259.78 236.97L236.34 230.29M236.34 230.29L212.19 226.91M212.19 226.91L187.81 226.91M187.81 226.91L163.66 230.29M163.66 230.29L140.22 236.97M140.22 236.97L117.92 246.83"
fill="none" stroke="black" stroke-width="9"/>
</g>
<g><path d="M117.92 153.17L140.22 163.03M140.22 163.03L163.66 169.71M163.66 169.71L187.81 173.09M187.81 173.09L212.19 173.09M212.19 173.09L236.34 169.71M236.34 169.71L259.78 163.03M259.78 163.03L282.08 153.17"
fill="none" stroke="black" stroke-width="9"/>
</g>
<g><path d="M0.73 200L117.95 200"
fill="none" stroke="black" stroke-width="9"/>
</g>
<g><path d="M399.27 200L282.05 200"
fill="none" stroke="black" stroke-width="9"/>
</g>
<g><path d="M185.93 214.07L200 200"
fill="none" stroke="black" stroke-width="3"/>
</g>
<g><path d="M200 200L214.07 185.93"
fill="none" stroke="black" stroke-width="3"/>
</g>
<g><path d="M185.93 185.93L214.07 214.07"
fill="none" stroke="black" stroke-width="3"/>
</g>
</g>
</svg>
