<?xml version="1.0" standalone="no"?><svg xmlns="http://www.w3.org/2000/svg" width="400.000" height="400.000" viewBox="0.0 0.0 400.000 400.000" version="1.1">
  <title>Produce by Acme CAD Converter</title>
  <desc>Produce by Acme CAD Converter</desc>
<g id="0" display="visible">
<g><path d="M112.82 200L114.72 190.47M114.72 190.47L120.12 182.39M120.12 182.39L128.2 176.99M128.2 176.99L137.73 175.09M137.73 175.09L147.26 176.99M147.26 176.99L155.34 182.39M155.34 182.39L160.74 190.47M160.74 190.47L162.64 200M162.64 200L160.74 209.53M160.74 209.53L155.34 217.61M155.34 217.61L147.26 223.01M147.26 223.01L137.73 224.91M137.73 224.91L128.2 223.01M128.2 223.01L120.12 217.61M120.12 217.61L114.72 209.53M114.72 209.53L112.82 200"
fill="none" stroke="black" stroke-width="9"/>
</g>
<g><path d="M237.36 0.73L148.87 177.72"
fill="none" stroke="black" stroke-width="9"/>
</g>
<g><path d="M87.91 200L89.76 186.56M89.76 186.56L95.16 174.12M95.16 174.12L103.73 163.59M103.73 163.59L114.81 155.77M114.81 155.77L127.59 151.23M127.59 151.23L141.13 150.3M141.13 150.3L154.41 153.06M154.41 153.06L166.46 159.3M166.46 159.3L176.37 168.56M176.37 168.56L183.42 180.15M183.42 180.15L187.08 193.22M187.08 193.22L187.08 206.78M187.08 206.78L183.42 219.85M183.42 219.85L176.37 231.44M176.37 231.44L166.46 240.7M166.46 240.7L154.41 246.94M154.41 246.94L141.13 249.7M141.13 249.7L127.59 248.77M127.59 248.77L114.81 244.23M114.81 244.23L103.73 236.41M103.73 236.41L95.16 225.88M95.16 225.88L89.76 213.44M89.76 213.44L87.91 200"
fill="none" stroke="black" stroke-width="9"/>
</g>
<g><path d="M337 100.37L182.29 177.72"
fill="none" stroke="black" stroke-width="9"/>
</g>
<g><path d="M63 399.27L120.24 246.64"
fill="none" stroke="black" stroke-width="9"/>
</g>
</g>
</svg>
