<?xml version="1.0" standalone="no"?><svg xmlns="http://www.w3.org/2000/svg" width="400.000" height="400.000" viewBox="0.0 0.0 400.000 400.000" version="1.1">
  <title>Produce by Acme CAD Converter</title>
  <desc>Produce by Acme CAD Converter</desc>
<g id="0" display="visible">
<g><path d="M51.55 211.24L53.48 187.42M53.48 187.42L59.19 164.23M59.19 164.23L68.56 142.25M68.56 142.25L81.33 122.06M81.33 122.06L97.17 104.18M97.17 104.18L115.67 89.07M115.67 89.07L136.36 77.12M136.36 77.12L158.7 68.65M158.7 68.65L182.11 63.87M182.11 63.87L205.98 62.91M205.98 62.91L229.69 65.79M229.69 65.79L252.64 72.44M252.64 72.44L274.22 82.68M274.22 82.68L293.88 96.25M293.88 96.25L311.11 112.8M311.11 112.8L325.47 131.9M325.47 131.9L336.57 153.05M336.57 153.05L344.13 175.71M344.13 175.71L347.96 199.29M347.96 199.29L347.96 223.18M347.96 223.18L344.13 246.76M344.13 246.76L336.57 269.42M336.57 269.42L325.47 290.57M325.47 290.57L311.11 309.67M311.11 309.67L293.88 326.22M293.88 326.22L274.22 339.79M274.22 339.79L252.64 350.03M252.64 350.03L229.69 356.68M229.69 356.68L205.98 359.56M205.98 359.56L182.11 358.6M182.11 358.6L158.7 353.82M158.7 353.82L136.36 345.35M136.36 345.35L115.67 333.4M115.67 333.4L97.17 318.29M97.17 318.29L81.33 300.41M81.33 300.41L68.56 280.22M68.56 280.22L59.19 258.24M59.19 258.24L53.48 235.05M53.48 235.05L51.55 211.24"
fill="none" stroke="black" stroke-width="9"/>
</g>
<g><path d="M130.73 80.01L130.73 0.84"
fill="none" stroke="black" stroke-width="9"/>
</g>
<g><path d="M269.27 80.01L269.27 0.84"
fill="none" stroke="black" stroke-width="9"/>
</g>
<g><path d="M130.78 0.73L152.83 10.16M152.83 10.16L176.1 15.92M176.1 15.92L200 17.86M200 17.86L223.9 15.92M223.9 15.92L247.17 10.16M247.17 10.16L269.22 0.73"
fill="none" stroke="black" stroke-width="9"/>
</g>
<g><path d="M31.76 40.42L130.73 40.42"
fill="none" stroke="black" stroke-width="9"/>
</g>
<g><path d="M368.24 40.42L269.27 40.42"
fill="none" stroke="black" stroke-width="9"/>
</g>
<g><path d="M188.12 52.3L200 40.42"
fill="none" stroke="black" stroke-width="3"/>
</g>
<g><path d="M200 40.42L211.88 28.55"
fill="none" stroke="black" stroke-width="3"/>
</g>
<g><path d="M188.12 28.55L211.88 52.3"
fill="none" stroke="black" stroke-width="3"/>
</g>
<g><path d="M11.97 211.24L388.03 211.24"
fill="none" stroke="black" stroke-width="3"/>
</g>
<g><path d="M200 399.27L200 62.79"
fill="none" stroke="black" stroke-width="3"/>
</g>
</g>
</svg>
