<?xml version="1.0" standalone="no"?><svg xmlns="http://www.w3.org/2000/svg" width="400.000" height="400.000" viewBox="0.0 0.0 400.000 400.000" version="1.1">
  <title>Produce by Acme CAD Converter</title>
  <desc>Produce by Acme CAD Converter</desc>
<g id="0" display="visible">
<g><path d="M0.73 200L80.44 200"
fill="none" stroke="black" stroke-width="9"/>
</g>
<g><path d="M80.44 266.42L80.44 133.58"
fill="none" stroke="black" stroke-width="9"/>
</g>
<g><path d="M80.44 133.58L213.28 133.58"
fill="none" stroke="black" stroke-width="9"/>
</g>
<g><path d="M213.28 133.58L213.28 266.42"
fill="none" stroke="black" stroke-width="9"/>
</g>
<g><path d="M213.28 266.42L80.44 266.42"
fill="none" stroke="black" stroke-width="9"/>
</g>
<g><path d="M213.28 200L292.99 200"
fill="none" stroke="black" stroke-width="9"/>
</g>
<g><path d="M292.99 332.84L292.99 67.16"
fill="none" stroke="black" stroke-width="9"/>
</g>
<g><path d="M399.27 332.84L399.27 67.16"
fill="none" stroke="black" stroke-width="9"/>
</g>
<g><path d="M292.99 332.84L294.8 346.6M294.8 346.6L300.11 359.41M300.11 359.41L308.55 370.42M308.55 370.42L319.56 378.86M319.56 378.86L332.38 384.17M332.38 384.17L346.13 385.98M346.13 385.98L359.88 384.17M359.88 384.17L372.7 378.86M372.7 378.86L383.7 370.42M383.7 370.42L392.15 359.41M392.15 359.41L397.46 346.6M397.46 346.6L399.27 332.84"
fill="none" stroke="black" stroke-width="9"/>
</g>
<g><path d="M399.27 67.16L397.46 53.4M397.46 53.4L392.15 40.59M392.15 40.59L383.7 29.58M383.7 29.58L372.7 21.14M372.7 21.14L359.88 15.83M359.88 15.83L346.13 14.02M346.13 14.02L332.38 15.83M332.38 15.83L319.56 21.14M319.56 21.14L308.55 29.58M308.55 29.58L300.11 40.59M300.11 40.59L294.8 53.4M294.8 53.4L292.99 67.16"
fill="none" stroke="black" stroke-width="9"/>
</g>
<g><path d="M399.27 133.58L292.99 133.58"
fill="none" stroke="black" stroke-width="9"/>
</g>
<g><path d="M399.27 67.16L292.99 67.16"
fill="none" stroke="black" stroke-width="9"/>
</g>
<g><path d="M139.51 319.56L192.64 266.42"
fill="none" stroke="black" stroke-width="3"/>
</g>
<g><path d="M80.44 303.48L117.49 266.42"
fill="none" stroke="black" stroke-width="3"/>
</g>
</g>
</svg>
