<?xml version="1.0" standalone="no"?><svg xmlns="http://www.w3.org/2000/svg" width="400.000" height="400.000" viewBox="0.0 0.0 400.000 400.000" version="1.1">
  <title>Produce by Acme CAD Converter</title>
  <desc>Produce by Acme CAD Converter</desc>
<g id="0" display="visible">
<g><path d="M21.17 307.3L102.92 307.3"
fill="none" stroke="black" stroke-width="9"/>
</g>
<g><path d="M102.92 358.39L102.92 256.2"
fill="none" stroke="black" stroke-width="9"/>
</g>
<g><path d="M102.92 256.2L205.11 256.2"
fill="none" stroke="black" stroke-width="9"/>
</g>
<g><path d="M205.11 256.2L205.11 358.39"
fill="none" stroke="black" stroke-width="9"/>
</g>
<g><path d="M205.11 358.39L102.92 358.39"
fill="none" stroke="black" stroke-width="9"/>
</g>
<g><path d="M205.11 307.3L327.74 307.3"
fill="none" stroke="black" stroke-width="9"/>
</g>
<g><path d="M327.74 307.3L327.74 184.67"
fill="none" stroke="black" stroke-width="9"/>
</g>
<g><path d="M276.64 184.67L276.64 82.48"
fill="none" stroke="black" stroke-width="9"/>
</g>
<g><path d="M276.64 82.48L378.83 82.48"
fill="none" stroke="black" stroke-width="9"/>
</g>
<g><path d="M378.83 82.48L378.83 184.67"
fill="none" stroke="black" stroke-width="9"/>
</g>
<g><path d="M378.83 184.67L276.64 184.67"
fill="none" stroke="black" stroke-width="9"/>
</g>
<g><path d="M327.74 82.48L327.74 0.73"
fill="none" stroke="black" stroke-width="9"/>
</g>
<g><path d="M327.74 286.86L319.91 288.42M319.91 288.42L313.28 292.85M313.28 292.85L308.85 299.48M308.85 299.48L307.3 307.3"
fill="none" stroke="black" stroke-width="9"/>
</g>
<g><path d="M187.16 399.27L205.11 381.32"
fill="none" stroke="black" stroke-width="3"/>
</g>
<g><path d="M129.35 399.27L170.23 358.39"
fill="none" stroke="black" stroke-width="3"/>
</g>
<g><path d="M102.92 367.89L112.42 358.39"
fill="none" stroke="black" stroke-width="3"/>
</g>
<g><path d="M325.37 307.3L327.74 304.94"
fill="none" stroke="black" stroke-width="3"/>
</g>
<g><path d="M316.7 307.3L327.74 296.27"
fill="none" stroke="black" stroke-width="3"/>
</g>
<g><path d="M308.03 307.3L327.74 287.59"
fill="none" stroke="black" stroke-width="3"/>
</g>
<g><path d="M310.79 295.86L316.3 290.36"
fill="none" stroke="black" stroke-width="3"/>
</g>
</g>
</svg>
