<?xml version="1.0" standalone="no"?><svg xmlns="http://www.w3.org/2000/svg" width="400.000" height="400.000" viewBox="0.0 0.0 400.000 400.000" version="1.1">
  <title>Produce by Acme CAD Converter</title>
  <desc>Produce by Acme CAD Converter</desc>
<g id="0" display="visible">
<g><path d="M200 23.85L200 173.3"
fill="none" stroke="black" stroke-width="9"/>
</g>
<g><path d="M175.09 248.03L176.99 238.5M176.99 238.5L182.39 230.42M182.39 230.42L190.47 225.02M190.47 225.02L200 223.12M200 223.12L209.53 225.02M209.53 225.02L217.61 230.42M217.61 230.42L223.01 238.5M223.01 238.5L224.91 248.03M224.91 248.03L223.01 257.56M223.01 257.56L217.61 265.64M217.61 265.64L209.53 271.04M209.53 271.04L200 272.94M200 272.94L190.47 271.04M190.47 271.04L182.39 265.64M182.39 265.64L176.99 257.56M176.99 257.56L175.09 248.03"
fill="none" stroke="black" stroke-width="9"/>
</g>
<g><path d="M125.27 248.03L127.15 231.4M127.15 231.4L132.68 215.61M132.68 215.61L141.58 201.44M141.58 201.44L153.41 189.61M153.41 189.61L167.58 180.7M167.58 180.7L183.37 175.18M183.37 175.18L200 173.3M200 173.3L216.63 175.18M216.63 175.18L232.42 180.7M232.42 180.7L246.59 189.61M246.59 189.61L258.42 201.44M258.42 201.44L267.32 215.61M267.32 215.61L272.85 231.4M272.85 231.4L274.73 248.03M274.73 248.03L272.85 264.66M272.85 264.66L267.32 280.45M267.32 280.45L258.42 294.62M258.42 294.62L246.59 306.45M246.59 306.45L232.42 315.35M232.42 315.35L216.63 320.88M216.63 320.88L200 322.75M200 322.75L183.37 320.88M183.37 320.88L167.58 315.35M167.58 315.35L153.41 306.45M153.41 306.45L141.58 294.62M141.58 294.62L132.68 280.45M132.68 280.45L127.15 264.66M127.15 264.66L125.27 248.03"
fill="none" stroke="black" stroke-width="9"/>
</g>
<g><path d="M399.27 376.15L365.56 358.77M365.56 358.77L330.35 344.67M330.35 344.67L293.96 333.99M293.96 333.99L256.72 326.81M256.72 326.81L218.96 323.2M218.96 323.2L181.04 323.2M181.04 323.2L143.28 326.81M143.28 326.81L106.04 333.99M106.04 333.99L69.65 344.67M69.65 344.67L34.44 358.77M34.44 358.77L0.73 376.15"
fill="none" stroke="black" stroke-width="9"/>
</g>
</g>
</svg>
