<?xml version="1.0" standalone="no"?><svg xmlns="http://www.w3.org/2000/svg" width="400.000" height="400.000" viewBox="0.0 0.0 400.000 400.000" version="1.1">
  <title>Produce by Acme CAD Converter</title>
  <desc>Produce by Acme CAD Converter</desc>
<g id="0" display="visible">
<g><path d="M200 23.85L200 248.03"
fill="none" stroke="black" stroke-width="9"/>
</g>
<g><path d="M274.73 329.82L274.73 248.03"
fill="none" stroke="black" stroke-width="9"/>
</g>
<g><path d="M125.27 329.82L125.27 248.03"
fill="none" stroke="black" stroke-width="9"/>
</g>
<g><path d="M125.27 248.03L274.73 248.03"
fill="none" stroke="black" stroke-width="9"/>
</g>
<g><path d="M399.27 376.15L365.56 358.77M365.56 358.77L330.35 344.67M330.35 344.67L293.96 333.99M293.96 333.99L256.72 326.81M256.72 326.81L218.96 323.2M218.96 323.2L181.04 323.2M181.04 323.2L143.28 326.81M143.28 326.81L106.04 333.99M106.04 333.99L69.65 344.67M69.65 344.67L34.44 358.77M34.44 358.77L0.73 376.15"
fill="none" stroke="black" stroke-width="9"/>
</g>
</g>
</svg>
