<?xml version="1.0" standalone="no"?><svg xmlns="http://www.w3.org/2000/svg" width="400.000" height="400.000" viewBox="0.0 0.0 400.000 400.000" version="1.1">
  <title>Produce by Acme CAD Converter</title>
  <desc>Produce by Acme CAD Converter</desc>
<g id="0" display="visible">
<g><path d="M223.44 211.72L223.44 94.51"
fill="none" stroke="black" stroke-width="3"/>
</g>
<g><path d="M293.77 141.39L293.77 188.28"
fill="none" stroke="black" stroke-width="9"/>
</g>
<g><path d="M293.77 164.84L364.1 164.84"
fill="none" stroke="black" stroke-width="9"/>
</g>
<g><path d="M328.94 164.84L328.94 0.73"
fill="none" stroke="black" stroke-width="3"/>
</g>
<g><path d="M328.94 164.84L307.14 98.02"
fill="none" stroke="black" stroke-width="3"/>
</g>
<g><path d="M328.94 164.84L350.74 98.02"
fill="none" stroke="black" stroke-width="3"/>
</g>
<g><path d="M246.89 188.28L246.89 71.06"
fill="none" stroke="black" stroke-width="9"/>
</g>
<g><path d="M364.1 164.84L317.22 211.72"
fill="none" stroke="black" stroke-width="9"/>
</g>
<g><path d="M200 141.39L200 188.28"
fill="none" stroke="black" stroke-width="9"/>
</g>
<g><path d="M200 164.84L129.67 164.84"
fill="none" stroke="black" stroke-width="9"/>
</g>
<g><path d="M164.84 164.84L164.84 0.73"
fill="none" stroke="black" stroke-width="3"/>
</g>
<g><path d="M164.84 164.84L143.03 98.02"
fill="none" stroke="black" stroke-width="3"/>
</g>
<g><path d="M164.84 164.84L186.64 98.02"
fill="none" stroke="black" stroke-width="3"/>
</g>
<g><path d="M129.67 164.84L176.56 211.72"
fill="none" stroke="black" stroke-width="9"/>
</g>
<g><path d="M129.67 164.84L129.67 399.27"
fill="none" stroke="black" stroke-width="9"/>
</g>
<g><path d="M129.67 399.27L176.56 352.38"
fill="none" stroke="black" stroke-width="9"/>
</g>
<g><path d="M129.67 282.05L35.9 282.05"
fill="none" stroke="black" stroke-width="9"/>
</g>
</g>
</svg>
