<?xml version="1.0" standalone="no"?><svg xmlns="http://www.w3.org/2000/svg" width="400.000" height="400.000" viewBox="0.0 0.0 400.000 400.000" version="1.1">
  <title>Produce by Acme CAD Converter</title>
  <desc>Produce by Acme CAD Converter</desc>
<g id="0" display="visible">
<g><path d="M337.95 183.57L339.8 173.09M339.8 173.09L345.13 163.87M345.13 163.87L353.28 157.02M353.28 157.02L363.29 153.38M363.29 153.38L373.93 153.38M373.93 153.38L383.94 157.02M383.94 157.02L392.09 163.87M392.09 163.87L397.42 173.09M397.42 173.09L399.27 183.57M399.27 183.57L397.42 194.06M397.42 194.06L392.09 203.28M392.09 203.28L383.94 210.12M383.94 210.12L373.93 213.76M373.93 213.76L363.29 213.76M363.29 213.76L353.28 210.12M353.28 210.12L345.13 203.28M345.13 203.28L339.8 194.06M339.8 194.06L337.95 183.57"
fill="none" stroke="black" stroke-width="9"/>
</g>
<g><path d="M337.95 183.57L169.34 183.57"
fill="none" stroke="black" stroke-width="9"/>
</g>
<g><path d="M108.03 183.57L109.79 176.45M109.79 176.45L114.65 170.96M114.65 170.96L121.51 168.35M121.51 168.35L128.79 169.24M128.79 169.24L134.83 173.41M134.83 173.41L138.24 179.9M138.24 179.9L138.24 187.24M138.24 187.24L134.83 193.74M134.83 193.74L128.79 197.9M128.79 197.9L121.51 198.79M121.51 198.79L114.65 196.19M114.65 196.19L109.79 190.69M109.79 190.69L108.03 183.57"
fill="none" stroke="black" stroke-width="9"/>
</g>
<g><path d="M77.37 183.57L79.24 170.62M79.24 170.62L84.67 158.71M84.67 158.71L93.25 148.82M93.25 148.82L104.26 141.74M104.26 141.74L116.81 138.05M116.81 138.05L129.9 138.05M129.9 138.05L142.46 141.74M142.46 141.74L153.47 148.82M153.47 148.82L162.04 158.71M162.04 158.71L167.48 170.62M167.48 170.62L169.34 183.57M169.34 183.57L167.48 196.53M167.48 196.53L162.04 208.43M162.04 208.43L153.47 218.32M153.47 218.32L142.46 225.4M142.46 225.4L129.9 229.09M129.9 229.09L116.81 229.09M116.81 229.09L104.26 225.4M104.26 225.4L93.25 218.32M93.25 218.32L84.67 208.43M84.67 208.43L79.24 196.53M79.24 196.53L77.37 183.57"
fill="none" stroke="black" stroke-width="9"/>
</g>
<g><path d="M245.98 262.41L220.5 249.61M220.5 249.61L193.7 239.86M193.7 239.86L165.95 233.28M165.95 233.28L137.62 229.97M137.62 229.97L109.1 229.97M109.1 229.97L80.77 233.28M80.77 233.28L53.02 239.86M53.02 239.86L26.22 249.61M26.22 249.61L0.73 262.41"
fill="none" stroke="black" stroke-width="9"/>
</g>
</g>
</svg>
