<?xml version="1.0" standalone="no"?><svg xmlns="http://www.w3.org/2000/svg" width="400.000" height="400.000" viewBox="0.0 0.0 400.000 400.000" version="1.1">
  <title>Produce by Acme CAD Converter</title>
  <desc>Produce by Acme CAD Converter</desc>
<g id="0" display="visible">
<g><path d="M337.95 168.24L339.8 157.76M339.8 157.76L345.13 148.54M345.13 148.54L353.28 141.69M353.28 141.69L363.29 138.05M363.29 138.05L373.93 138.05M373.93 138.05L383.94 141.69M383.94 141.69L392.09 148.54M392.09 148.54L397.42 157.76M397.42 157.76L399.27 168.24M399.27 168.24L397.42 178.73M397.42 178.73L392.09 187.95M392.09 187.95L383.94 194.79M383.94 194.79L373.93 198.43M373.93 198.43L363.29 198.43M363.29 198.43L353.28 194.79M353.28 194.79L345.13 187.95M345.13 187.95L339.8 178.73M339.8 178.73L337.95 168.24"
fill="none" stroke="black" stroke-width="9"/>
</g>
<g><path d="M337.95 168.24L184.67 168.24"
fill="none" stroke="black" stroke-width="9"/>
</g>
<g><path d="M62.05 168.24L184.67 168.24"
fill="none" stroke="black" stroke-width="9"/>
</g>
<g><path d="M62.05 168.24L63.83 182.92M63.83 182.92L69.07 196.74M69.07 196.74L77.47 208.9M77.47 208.9L88.53 218.7M88.53 218.7L101.62 225.57M101.62 225.57L115.97 229.11M115.97 229.11L130.75 229.11M130.75 229.11L145.1 225.57M145.1 225.57L158.19 218.7M158.19 218.7L169.25 208.9M169.25 208.9L177.65 196.74M177.65 196.74L182.89 182.92M182.89 182.92L184.67 168.24"
fill="none" stroke="black" stroke-width="9"/>
</g>
<g><path d="M245.98 262.41L220.5 249.61M220.5 249.61L193.7 239.86M193.7 239.86L165.95 233.28M165.95 233.28L137.62 229.97M137.62 229.97L109.1 229.97M109.1 229.97L80.77 233.28M80.77 233.28L53.02 239.86M53.02 239.86L26.22 249.61M26.22 249.61L0.73 262.41"
fill="none" stroke="black" stroke-width="9"/>
</g>
</g>
</svg>
