<?xml version="1.0" standalone="no"?><svg xmlns="http://www.w3.org/2000/svg" width="400.000" height="400.000" viewBox="0.0 0.0 400.000 400.000" version="1.1">
  <title>Produce by Acme CAD Converter</title>
  <desc>Produce by Acme CAD Converter</desc>
<g id="0" display="visible">
<g><path d="M64.5 192.21L60.15 183.45M60.15 183.45L53.03 176.74M53.03 176.74L44.03 172.9M44.03 172.9L34.26 172.42M34.26 172.42L24.93 175.36M24.93 175.36L17.19 181.34M17.19 181.34L12 189.64M12 189.64L10.01 199.22M10.01 199.22L11.46 208.89M11.46 208.89L16.17 217.47M16.17 217.47L23.56 223.88M23.56 223.88L32.72 227.33M32.72 227.33L42.5 227.41M42.5 227.41L51.7 224.08"
fill="none" stroke="black" stroke-width="9"/>
</g>
<g><path d="M64.5 192.21L74.88 227.8"
fill="none" stroke="black" stroke-width="9"/>
</g>
<g><path d="M74.88 227.8L88.78 172.2"
fill="none" stroke="black" stroke-width="9"/>
</g>
<g><path d="M88.78 172.2L102.68 227.8"
fill="none" stroke="black" stroke-width="9"/>
</g>
<g><path d="M102.68 227.8L116.59 172.2"
fill="none" stroke="black" stroke-width="9"/>
</g>
<g><path d="M116.59 172.2L130.49 227.8"
fill="none" stroke="black" stroke-width="9"/>
</g>
<g><path d="M130.49 227.8L144.39 172.2"
fill="none" stroke="black" stroke-width="9"/>
</g>
<g><path d="M144.39 172.2L158.29 227.8"
fill="none" stroke="black" stroke-width="9"/>
</g>
<g><path d="M158.29 227.8L172.2 172.2"
fill="none" stroke="black" stroke-width="9"/>
</g>
<g><path d="M172.2 172.2L186.1 227.8"
fill="none" stroke="black" stroke-width="9"/>
</g>
<g><path d="M186.1 227.8L200 172.2"
fill="none" stroke="black" stroke-width="9"/>
</g>
<g><path d="M200 172.2L213.9 227.8"
fill="none" stroke="black" stroke-width="9"/>
</g>
<g><path d="M213.9 227.8L227.8 172.2"
fill="none" stroke="black" stroke-width="9"/>
</g>
<g><path d="M227.8 172.2L241.71 227.8"
fill="none" stroke="black" stroke-width="9"/>
</g>
<g><path d="M241.71 227.8L255.61 172.2"
fill="none" stroke="black" stroke-width="9"/>
</g>
<g><path d="M255.61 172.2L269.51 227.8"
fill="none" stroke="black" stroke-width="9"/>
</g>
<g><path d="M269.51 227.8L283.41 172.2"
fill="none" stroke="black" stroke-width="9"/>
</g>
<g><path d="M283.41 172.2L297.32 227.8"
fill="none" stroke="black" stroke-width="9"/>
</g>
<g><path d="M297.32 227.8L311.22 172.2"
fill="none" stroke="black" stroke-width="9"/>
</g>
<g><path d="M311.22 172.2L325.12 227.8"
fill="none" stroke="black" stroke-width="9"/>
</g>
<g><path d="M325.12 227.8L335.5 192.21"
fill="none" stroke="black" stroke-width="9"/>
</g>
<g><path d="M348.3 224.08L357.5 227.41M357.5 227.41L367.28 227.33M367.28 227.33L376.44 223.88M376.44 223.88L383.83 217.47M383.83 217.47L388.54 208.89M388.54 208.89L389.99 199.22M389.99 199.22L388 189.64M388 189.64L382.81 181.34M382.81 181.34L375.07 175.36M375.07 175.36L365.74 172.42M365.74 172.42L355.97 172.9M355.97 172.9L346.97 176.74M346.97 176.74L339.85 183.45M339.85 183.45L335.5 192.21"
fill="none" stroke="black" stroke-width="9"/>
</g>
<g><path d="M0.73 200L399.27 200"
fill="none" stroke="black" stroke-width="3"/>
</g>
<g><path d="M37.81 237.07L37.81 162.93"
fill="none" stroke="black" stroke-width="3"/>
</g>
<g><path d="M362.19 237.07L362.19 162.93"
fill="none" stroke="black" stroke-width="3"/>
</g>
</g>
</svg>
