<?xml version="1.0" standalone="no"?><svg xmlns="http://www.w3.org/2000/svg" width="400.000" height="400.000" viewBox="0.0 0.0 400.000 400.000" version="1.1">
  <title>Produce by Acme CAD Converter</title>
  <desc>Produce by Acme CAD Converter</desc>
<g id="0" display="visible">
<g><path d="M36.96 204.53L38.96 188.76M38.96 188.76L44.81 173.98M44.81 173.98L54.15 161.13M54.15 161.13L66.39 151M66.39 151L80.77 144.23M80.77 144.23L96.39 141.25M96.39 141.25L112.25 142.25M112.25 142.25L127.36 147.16M127.36 147.16L140.78 155.68M140.78 155.68L151.66 167.26M151.66 167.26L159.32 181.19M159.32 181.19L163.27 196.58M163.27 196.58L163.27 212.48M163.27 212.48L159.32 227.87M159.32 227.87L151.66 241.8M151.66 241.8L140.78 253.38M140.78 253.38L127.36 261.9M127.36 261.9L112.25 266.81M112.25 266.81L96.39 267.81M96.39 267.81L80.77 264.83M80.77 264.83L66.39 258.06M66.39 258.06L54.15 247.93M54.15 247.93L44.81 235.07M44.81 235.07L38.96 220.3M38.96 220.3L36.96 204.53"
fill="none" stroke="black" stroke-width="9"/>
</g>
<g><path d="M272.46 204.53L274.3 191.77M274.3 191.77L279.65 180.04M279.65 180.04L288.09 170.3M288.09 170.3L298.94 163.33M298.94 163.33L311.3 159.7M311.3 159.7L324.19 159.7M324.19 159.7L336.56 163.33M336.56 163.33L347.41 170.3M347.41 170.3L355.85 180.04M355.85 180.04L361.2 191.77M361.2 191.77L363.04 204.53M363.04 204.53L361.2 217.29M361.2 217.29L355.85 229.01M355.85 229.01L347.41 238.76M347.41 238.76L336.56 245.72M336.56 245.72L324.19 249.36M324.19 249.36L311.3 249.36M311.3 249.36L298.94 245.72M298.94 245.72L288.09 238.76M288.09 238.76L279.65 229.01M279.65 229.01L274.3 217.29M274.3 217.29L272.46 204.53"
fill="none" stroke="black" stroke-width="9"/>
</g>
<g><path d="M105.62 141.31L321.55 159.42"
fill="none" stroke="black" stroke-width="9"/>
</g>
<g><path d="M105.62 267.75L321.55 249.64"
fill="none" stroke="black" stroke-width="9"/>
</g>
<g><path d="M0.73 204.53L399.27 204.53"
fill="none" stroke="black" stroke-width="3"/>
</g>
<g><path d="M100.37 104.9L100.37 304.16"
fill="none" stroke="black" stroke-width="3"/>
</g>
<g><path d="M317.75 123.01L317.75 286.05"
fill="none" stroke="black" stroke-width="3"/>
</g>
<g><path d="M190.94 113.95L192.74 106.09M192.74 106.09L197.76 99.79M197.76 99.79L205.03 96.29M205.03 96.29L213.09 96.29M213.09 96.29L220.35 99.79M220.35 99.79L225.38 106.09M225.38 106.09L227.17 113.95M227.17 113.95L225.38 121.81M225.38 121.81L220.35 128.12M220.35 128.12L213.09 131.61M213.09 131.61L205.03 131.61M205.03 131.61L197.76 128.12M197.76 128.12L192.74 121.81M192.74 121.81L190.94 113.95"
fill="none" stroke="black" stroke-width="9"/>
</g>
</g>
</svg>
