<?xml version="1.0" standalone="no"?><svg xmlns="http://www.w3.org/2000/svg" width="400.000" height="400.000" viewBox="0.0 0.0 400.000 400.000" version="1.1">
  <title>Produce by Acme CAD Converter</title>
  <desc>Produce by Acme CAD Converter</desc>
<g id="0" display="visible">
<g><path d="M141.39 399.27L141.39 164.84"
fill="none" stroke="black" stroke-width="9"/>
</g>
<g><path d="M141.39 399.27L188.28 352.38"
fill="none" stroke="black" stroke-width="9"/>
</g>
<g><path d="M188.28 211.72L188.28 352.38"
fill="none" stroke="black" stroke-width="9"/>
</g>
<g><path d="M141.39 282.05L24.18 282.05"
fill="none" stroke="black" stroke-width="9"/>
</g>
<g><path d="M153.11 270.33L164.84 282.05"
fill="none" stroke="black" stroke-width="3"/>
</g>
<g><path d="M164.84 282.05L176.56 293.77"
fill="none" stroke="black" stroke-width="3"/>
</g>
<g><path d="M176.56 270.33L153.11 293.77"
fill="none" stroke="black" stroke-width="3"/>
</g>
<g><path d="M141.39 164.84L375.82 164.84"
fill="none" stroke="black" stroke-width="9"/>
</g>
<g><path d="M375.82 164.84L328.94 211.72"
fill="none" stroke="black" stroke-width="9"/>
</g>
<g><path d="M328.94 211.72L188.28 211.72"
fill="none" stroke="black" stroke-width="9"/>
</g>
<g><path d="M258.61 164.84L258.61 47.62"
fill="none" stroke="black" stroke-width="9"/>
</g>
<g><path d="M141.39 164.84L188.28 211.72"
fill="none" stroke="black" stroke-width="9"/>
</g>
<g><path d="M235.16 94.51L235.16 258.61"
fill="none" stroke="black" stroke-width="3"/>
</g>
<g><path d="M340.66 164.84L340.66 0.73"
fill="none" stroke="black" stroke-width="3"/>
</g>
<g><path d="M340.66 164.84L318.86 98.02"
fill="none" stroke="black" stroke-width="3"/>
</g>
<g><path d="M340.66 164.84L362.46 98.02"
fill="none" stroke="black" stroke-width="3"/>
</g>
<g><path d="M176.56 164.84L176.56 0.73"
fill="none" stroke="black" stroke-width="3"/>
</g>
<g><path d="M176.56 164.84L154.75 98.02"
fill="none" stroke="black" stroke-width="3"/>
</g>
<g><path d="M176.56 164.84L198.36 98.02"
fill="none" stroke="black" stroke-width="3"/>
</g>
</g>
</svg>
