<?xml version="1.0" standalone="no"?><svg xmlns="http://www.w3.org/2000/svg" width="400.000" height="400.000" viewBox="0.0 0.0 400.000 400.000" version="1.1">
  <title>Produce by Acme CAD Converter</title>
  <desc>Produce by Acme CAD Converter</desc>
<g id="0" display="visible">
<g><path d="M78.55 234.39L0.73 312.21"
fill="none" stroke="black" stroke-width="9"/>
</g>
<g><path d="M78.55 234.39L78.55 156.57"
fill="none" stroke="black" stroke-width="9"/>
</g>
<g><path d="M78.55 156.57L234.19 156.57"
fill="none" stroke="black" stroke-width="9"/>
</g>
<g><path d="M234.19 156.57L234.19 234.39"
fill="none" stroke="black" stroke-width="9"/>
</g>
<g><path d="M234.19 234.39L78.55 234.39"
fill="none" stroke="black" stroke-width="9"/>
</g>
<g><path d="M78.55 214.94L71.11 216.42M71.11 216.42L64.8 220.63M64.8 220.63L60.58 226.95M60.58 226.95L59.1 234.39M59.1 234.39L60.58 241.84M60.58 241.84L64.8 248.15"
fill="none" stroke="black" stroke-width="9"/>
</g>
<g><path d="M289.21 211.6L399.27 211.6"
fill="none" stroke="black" stroke-width="9"/>
</g>
<g><path d="M275.46 225.36L281.77 229.57M281.77 229.57L289.21 231.05M289.21 231.05L296.66 229.57M296.66 229.57L302.97 225.36M302.97 225.36L307.19 219.04M307.19 219.04L308.67 211.6"
fill="none" stroke="black" stroke-width="9"/>
</g>
<g><path d="M289.21 211.6L165.41 87.79"
fill="none" stroke="black" stroke-width="9"/>
</g>
<g><path d="M165.41 87.79L110.38 142.82"
fill="none" stroke="black" stroke-width="9"/>
</g>
<g><path d="M289.21 211.6L234.19 266.62"
fill="none" stroke="black" stroke-width="9"/>
</g>
<g><path d="M110.38 142.82L124.14 156.57"
fill="none" stroke="black" stroke-width="9"/>
</g>
<g><path d="M234.19 266.62L201.96 234.39"
fill="none" stroke="black" stroke-width="9"/>
</g>
<g><path d="M64.61 247.96L78.55 234.03"
fill="none" stroke="black" stroke-width="3"/>
</g>
<g><path d="M62.18 244.9L78.55 228.52"
fill="none" stroke="black" stroke-width="3"/>
</g>
<g><path d="M60.34 241.23L78.55 223.02"
fill="none" stroke="black" stroke-width="3"/>
</g>
<g><path d="M59.25 236.82L78.55 217.52"
fill="none" stroke="black" stroke-width="3"/>
</g>
<g><path d="M59.36 231.21L75.37 215.2"
fill="none" stroke="black" stroke-width="3"/>
</g>
<g><path d="M78.55 216.27L77.26 214.98"
fill="none" stroke="black" stroke-width="3"/>
</g>
<g><path d="M78.55 221.77L72.64 215.86"
fill="none" stroke="black" stroke-width="3"/>
</g>
<g><path d="M78.55 227.27L68.82 217.54"
fill="none" stroke="black" stroke-width="3"/>
</g>
<g><path d="M78.55 232.77L65.63 219.85"
fill="none" stroke="black" stroke-width="3"/>
</g>
<g><path d="M76.61 236.33L62.99 222.72"
fill="none" stroke="black" stroke-width="3"/>
</g>
<g><path d="M73.86 239.09L60.93 226.15"
fill="none" stroke="black" stroke-width="3"/>
</g>
<g><path d="M71.11 241.84L59.54 230.27"
fill="none" stroke="black" stroke-width="3"/>
</g>
<g><path d="M68.36 244.59L59.12 235.35"
fill="none" stroke="black" stroke-width="3"/>
</g>
<g><path d="M65.6 247.34L60.96 242.69"
fill="none" stroke="black" stroke-width="3"/>
</g>
<g><path d="M298.47 228.71L306.33 220.85"
fill="none" stroke="black" stroke-width="3"/>
</g>
<g><path d="M290.68 231L308.61 213.06"
fill="none" stroke="black" stroke-width="3"/>
</g>
<g><path d="M285.48 230.69L304.58 211.6"
fill="none" stroke="black" stroke-width="3"/>
</g>
<g><path d="M281.3 229.37L299.07 211.6"
fill="none" stroke="black" stroke-width="3"/>
</g>
<g><path d="M277.81 227.36L293.57 211.6"
fill="none" stroke="black" stroke-width="3"/>
</g>
<g><path d="M308.37 214.98L304.99 211.6"
fill="none" stroke="black" stroke-width="3"/>
</g>
<g><path d="M307.11 219.22L299.49 211.6"
fill="none" stroke="black" stroke-width="3"/>
</g>
<g><path d="M305.15 222.76L293.99 211.6"
fill="none" stroke="black" stroke-width="3"/>
</g>
<g><path d="M302.6 225.72L288.85 211.96"
fill="none" stroke="black" stroke-width="3"/>
</g>
<g><path d="M299.5 228.11L286.1 214.71"
fill="none" stroke="black" stroke-width="3"/>
</g>
<g><path d="M295.79 229.91L283.35 217.47"
fill="none" stroke="black" stroke-width="3"/>
</g>
<g><path d="M291.32 230.94L280.6 220.22"
fill="none" stroke="black" stroke-width="3"/>
</g>
<g><path d="M285.59 230.71L277.84 222.97"
fill="none" stroke="black" stroke-width="3"/>
</g>
</g>
</svg>
