<?xml version="1.0" standalone="no"?><svg xmlns="http://www.w3.org/2000/svg" width="400.000" height="400.000" viewBox="0.0 0.0 400.000 400.000" version="1.1">
  <title>Produce by Acme CAD Converter</title>
  <desc>Produce by Acme CAD Converter</desc>
<g id="0" display="visible">
<g><path d="M0.73 212.45L162.64 212.45"
fill="none" stroke="black" stroke-width="9"/>
</g>
<g><path d="M190.33 176.36L179.93 180.94M179.93 180.94L171.38 188.44M171.38 188.44L165.48 198.16M165.48 198.16L162.78 209.2M162.78 209.2L163.52 220.54M163.52 220.54L167.64 231.14M167.64 231.14L174.76 240M174.76 240L184.21 246.32M184.21 246.32L195.12 249.5M195.12 249.5L206.49 249.25M206.49 249.25L217.25 245.6M217.25 245.6L226.42 238.87"
fill="none" stroke="black" stroke-width="9"/>
</g>
<g><path d="M170.94 188.97L161.58 187.57M161.58 187.57L152.38 189.76M152.38 189.76L144.66 195.22M144.66 195.22L139.53 203.17M139.53 203.17L137.73 212.45"
fill="none" stroke="black" stroke-width="9"/>
</g>
<g><path d="M399.27 112.82L266.84 179.04"
fill="none" stroke="black" stroke-width="9"/>
</g>
<g><path d="M158.83 274.81L173.74 282.41M173.74 282.41L189.96 286.5M189.96 286.5L206.69 286.88M206.69 286.88L223.08 283.52M223.08 283.52L238.32 276.61M238.32 276.61L251.63 266.47M251.63 266.47L262.36 253.63M262.36 253.63L269.96 238.72M269.96 238.72L274.05 222.49M274.05 222.49L274.42 205.76M274.42 205.76L271.07 189.37M271.07 189.37L264.15 174.13M264.15 174.13L254.02 160.82M254.02 160.82L241.17 150.1M241.17 150.1L226.26 142.5M226.26 142.5L210.04 138.41M210.04 138.41L193.31 138.03M193.31 138.03L176.92 141.38M176.92 141.38L161.68 148.3M161.68 148.3L148.37 158.44M148.37 158.44L137.64 171.28"
fill="none" stroke="black" stroke-width="9"/>
</g>
<g><path d="M289.11 167.9L283.99 160.97M283.99 160.97L276.81 156.21M276.81 156.21L268.43 154.18M268.43 154.18L259.87 155.12M259.87 155.12L252.14 158.93"
fill="none" stroke="black" stroke-width="9"/>
</g>
<g><path d="M157.28 212.45L163.09 206.64"
fill="none" stroke="black" stroke-width="3"/>
</g>
<g><path d="M150.24 212.45L166.24 196.46"
fill="none" stroke="black" stroke-width="3"/>
</g>
<g><path d="M143.19 212.45L167.6 188.05"
fill="none" stroke="black" stroke-width="3"/>
</g>
<g><path d="M137.78 210.82L161 187.6"
fill="none" stroke="black" stroke-width="3"/>
</g>
<g><path d="M140.48 201.08L151.26 190.3"
fill="none" stroke="black" stroke-width="3"/>
</g>
<g><path d="M170.36 189.71L169.02 188.38"
fill="none" stroke="black" stroke-width="3"/>
</g>
<g><path d="M167.54 193.95L161.19 187.59"
fill="none" stroke="black" stroke-width="3"/>
</g>
<g><path d="M165.26 198.71L155.23 188.67"
fill="none" stroke="black" stroke-width="3"/>
</g>
<g><path d="M163.59 204.08L150.31 190.81"
fill="none" stroke="black" stroke-width="3"/>
</g>
<g><path d="M162.7 210.24L146.2 193.74"
fill="none" stroke="black" stroke-width="3"/>
</g>
<g><path d="M157.87 212.45L142.8 197.39"
fill="none" stroke="black" stroke-width="3"/>
</g>
<g><path d="M150.83 212.45L140.14 201.77"
fill="none" stroke="black" stroke-width="3"/>
</g>
<g><path d="M143.78 212.45L138.33 207.01"
fill="none" stroke="black" stroke-width="3"/>
</g>
<g><path d="M283.65 170.63L288.14 166.14"
fill="none" stroke="black" stroke-width="3"/>
</g>
<g><path d="M269.56 177.68L285.12 162.12"
fill="none" stroke="black" stroke-width="3"/>
</g>
<g><path d="M264.85 175.33L281.38 158.81"
fill="none" stroke="black" stroke-width="3"/>
</g>
<g><path d="M262.16 170.98L276.89 156.25"
fill="none" stroke="black" stroke-width="3"/>
</g>
<g><path d="M259.22 166.88L271.52 154.57"
fill="none" stroke="black" stroke-width="3"/>
</g>
<g><path d="M256.03 163.02L264.85 154.21"
fill="none" stroke="black" stroke-width="3"/>
</g>
<g><path d="M252.61 159.39L254.75 157.26"
fill="none" stroke="black" stroke-width="3"/>
</g>
<g><path d="M288.76 167.22L278.66 157.11"
fill="none" stroke="black" stroke-width="3"/>
</g>
<g><path d="M284.64 170.14L268.7 154.2"
fill="none" stroke="black" stroke-width="3"/>
</g>
<g><path d="M279.94 172.48L262.05 154.59"
fill="none" stroke="black" stroke-width="3"/>
</g>
<g><path d="M275.24 174.83L256.7 156.29"
fill="none" stroke="black" stroke-width="3"/>
</g>
<g><path d="M270.55 177.18L252.23 158.86"
fill="none" stroke="black" stroke-width="3"/>
</g>
</g>
</svg>
