<?xml version="1.0" standalone="no"?><svg xmlns="http://www.w3.org/2000/svg" width="400.000" height="400.000" viewBox="0.0 0.0 400.000 400.000" version="1.1">
  <title>Produce by Acme CAD Converter</title>
  <desc>Produce by Acme CAD Converter</desc>
<g id="0" display="visible">
<g><path d="M0.73 133.44L80.44 133.44"
fill="none" stroke="black" stroke-width="9"/>
</g>
<g><path d="M80.44 73.66L80.44 193.22"
fill="none" stroke="black" stroke-width="9"/>
</g>
<g><path d="M319.56 103.55L319.56 163.33"
fill="none" stroke="black" stroke-width="9"/>
</g>
<g><path d="M319.56 133.44L399.27 133.44"
fill="none" stroke="black" stroke-width="9"/>
</g>
<g><path d="M0.73 272.93L80.44 272.93"
fill="none" stroke="black" stroke-width="9"/>
</g>
<g><path d="M80.44 243.04L80.44 302.82"
fill="none" stroke="black" stroke-width="9"/>
</g>
<g><path d="M319.56 213.15L319.56 332.71"
fill="none" stroke="black" stroke-width="9"/>
</g>
<g><path d="M319.56 272.93L399.27 272.93"
fill="none" stroke="black" stroke-width="9"/>
</g>
<g><path d="M117.9 327.53L197.61 337.49"
fill="none" stroke="black" stroke-width="9"/>
</g>
<g><path d="M150.98 62.51L230.69 72.47"
fill="none" stroke="black" stroke-width="9"/>
</g>
<g><path d="M197.61 337.49L230.69 72.47"
fill="none" stroke="black" stroke-width="9"/>
</g>
<g><path d="M150.98 62.51L117.9 327.53"
fill="none" stroke="black" stroke-width="9"/>
</g>
<g><path d="M80.44 73.66L148.39 82.23"
fill="none" stroke="black" stroke-width="9"/>
</g>
<g><path d="M80.44 193.22L135.44 186.25"
fill="none" stroke="black" stroke-width="9"/>
</g>
<g><path d="M80.44 243.04L129.06 236.86"
fill="none" stroke="black" stroke-width="9"/>
</g>
<g><path d="M80.44 302.82L120.29 307.8"
fill="none" stroke="black" stroke-width="9"/>
</g>
<g><path d="M228.1 92.2L319.56 103.55"
fill="none" stroke="black" stroke-width="9"/>
</g>
<g><path d="M217.73 176.09L319.56 163.33"
fill="none" stroke="black" stroke-width="9"/>
</g>
<g><path d="M211.36 226.7L319.56 213.15"
fill="none" stroke="black" stroke-width="9"/>
</g>
<g><path d="M200 317.77L319.56 332.71"
fill="none" stroke="black" stroke-width="9"/>
</g>
<g><path d="M90.4 216.94L117.5 204.18"
fill="none" stroke="black" stroke-width="3"/>
</g>
<g><path d="M90.4 216.94L119.7 222.52"
fill="none" stroke="black" stroke-width="3"/>
</g>
<g><path d="M269.74 194.42L90.4 216.94"
fill="none" stroke="black" stroke-width="3"/>
</g>
<g><path d="M269.74 194.42L242.64 207.17"
fill="none" stroke="black" stroke-width="3"/>
</g>
<g><path d="M269.74 194.42L240.45 188.84"
fill="none" stroke="black" stroke-width="3"/>
</g>
<g><path d="M269.74 123.48L279.71 133.44"
fill="none" stroke="black" stroke-width="3"/>
</g>
<g><path d="M279.71 133.44L289.67 143.41"
fill="none" stroke="black" stroke-width="3"/>
</g>
<g><path d="M289.67 123.48L269.74 143.41"
fill="none" stroke="black" stroke-width="3"/>
</g>
<g><path d="M269.74 262.97L279.71 272.93"
fill="none" stroke="black" stroke-width="3"/>
</g>
<g><path d="M279.71 272.93L289.67 282.89"
fill="none" stroke="black" stroke-width="3"/>
</g>
<g><path d="M289.67 262.97L269.74 282.89"
fill="none" stroke="black" stroke-width="3"/>
</g>
</g>
</svg>
