<?xml version="1.0" standalone="no"?><svg xmlns="http://www.w3.org/2000/svg" width="400.000" height="400.000" viewBox="0.0 0.0 400.000 400.000" version="1.1">
  <title>Produce by Acme CAD Converter</title>
  <desc>Produce by Acme CAD Converter</desc>
<g id="0" display="visible">
<g><path d="M172.51 69.45L172.51 206.87"
fill="none" stroke="black" stroke-width="9"/>
</g>
<g><path d="M145.03 124.42L145.03 206.87"
fill="none" stroke="black" stroke-width="9"/>
</g>
<g><path d="M145.03 165.64L7.6 165.64"
fill="none" stroke="black" stroke-width="9"/>
</g>
<g><path d="M7.6 165.64L7.6 110.67"
fill="none" stroke="black" stroke-width="9"/>
</g>
<g><path d="M200 261.84L200 124.42"
fill="none" stroke="black" stroke-width="3"/>
</g>
<g><path d="M227.49 206.87L227.49 124.42"
fill="none" stroke="black" stroke-width="9"/>
</g>
<g><path d="M227.49 165.64L364.91 165.64"
fill="none" stroke="black" stroke-width="9"/>
</g>
<g><path d="M364.91 165.64L364.91 110.67"
fill="none" stroke="black" stroke-width="9"/>
</g>
<g><path d="M296.2 165.64L296.2 261.84"
fill="none" stroke="black" stroke-width="9"/>
</g>
<g><path d="M254.97 261.84L337.43 261.84"
fill="none" stroke="black" stroke-width="9"/>
</g>
<g><path d="M296.2 206.87L351.17 206.87"
fill="none" stroke="black" stroke-width="9"/>
</g>
<g><path d="M200 289.33L337.43 289.33"
fill="none" stroke="black" stroke-width="3"/>
</g>
<g><path d="M254.97 316.81L392.4 316.81"
fill="none" stroke="black" stroke-width="9"/>
</g>
<g><path d="M254.97 344.3L337.43 344.3"
fill="none" stroke="black" stroke-width="9"/>
</g>
<g><path d="M296.2 344.3L296.2 399.27"
fill="none" stroke="black" stroke-width="9"/>
</g>
<g><path d="M351.17 399.27L296.2 399.27"
fill="none" stroke="black" stroke-width="9"/>
</g>
<g><path d="M103.8 165.64L103.8 0.73"
fill="none" stroke="black" stroke-width="3"/>
</g>
<g><path d="M103.8 165.64L86.76 113.42"
fill="none" stroke="black" stroke-width="3"/>
</g>
<g><path d="M103.8 165.64L120.84 113.42"
fill="none" stroke="black" stroke-width="3"/>
</g>
<g><path d="M268.71 165.64L268.71 0.73"
fill="none" stroke="black" stroke-width="3"/>
</g>
<g><path d="M268.71 165.64L251.67 113.42"
fill="none" stroke="black" stroke-width="3"/>
</g>
<g><path d="M268.71 165.64L285.75 113.42"
fill="none" stroke="black" stroke-width="3"/>
</g>
<g><path d="M227.49 234.36L253.6 225.84"
fill="none" stroke="black" stroke-width="3"/>
</g>
<g><path d="M227.49 234.36L253.6 242.88"
fill="none" stroke="black" stroke-width="3"/>
</g>
<g><path d="M364.91 234.36L227.49 234.36"
fill="none" stroke="black" stroke-width="3"/>
</g>
<g><path d="M364.91 234.36L338.8 242.88"
fill="none" stroke="black" stroke-width="3"/>
</g>
<g><path d="M364.91 234.36L338.8 225.84"
fill="none" stroke="black" stroke-width="3"/>
</g>
</g>
</svg>
