<?xml version="1.0" standalone="no"?><svg xmlns="http://www.w3.org/2000/svg" width="400.000" height="400.000" viewBox="0.0 0.0 400.000 400.000" version="1.1">
  <title>Produce by Acme CAD Converter</title>
  <desc>Produce by Acme CAD Converter</desc>
<g id="0" display="visible">
<g><path d="M34.65 284.79L34.65 149.12"
fill="none" stroke="black" stroke-width="9"/>
</g>
<g><path d="M34.65 149.12L60.09 250.88"
fill="none" stroke="black" stroke-width="9"/>
</g>
<g><path d="M60.09 250.88L85.53 149.12"
fill="none" stroke="black" stroke-width="9"/>
</g>
<g><path d="M85.53 149.12L110.97 250.88"
fill="none" stroke="black" stroke-width="9"/>
</g>
<g><path d="M110.97 250.88L136.4 149.12"
fill="none" stroke="black" stroke-width="9"/>
</g>
<g><path d="M136.4 149.12L161.84 250.88"
fill="none" stroke="black" stroke-width="9"/>
</g>
<g><path d="M161.84 250.88L187.28 149.12"
fill="none" stroke="black" stroke-width="9"/>
</g>
<g><path d="M187.28 149.12L212.72 250.88"
fill="none" stroke="black" stroke-width="9"/>
</g>
<g><path d="M212.72 250.88L238.16 149.12"
fill="none" stroke="black" stroke-width="9"/>
</g>
<g><path d="M238.16 149.12L263.6 250.88"
fill="none" stroke="black" stroke-width="9"/>
</g>
<g><path d="M263.6 250.88L289.03 149.12"
fill="none" stroke="black" stroke-width="9"/>
</g>
<g><path d="M289.03 149.12L314.47 250.88"
fill="none" stroke="black" stroke-width="9"/>
</g>
<g><path d="M314.47 250.88L339.91 149.12"
fill="none" stroke="black" stroke-width="9"/>
</g>
<g><path d="M339.91 149.12L365.35 250.88"
fill="none" stroke="black" stroke-width="9"/>
</g>
<g><path d="M365.35 250.88L365.35 115.21"
fill="none" stroke="black" stroke-width="9"/>
</g>
<g><path d="M0.73 200L399.27 200"
fill="none" stroke="black" stroke-width="3"/>
</g>
</g>
</svg>
