<?xml version="1.0" standalone="no"?><svg xmlns="http://www.w3.org/2000/svg" width="400.000" height="400.000" viewBox="0.0 0.0 400.000 400.000" version="1.1">
  <title>Produce by Acme CAD Converter</title>
  <desc>Produce by Acme CAD Converter</desc>
<g id="0" display="visible">
<g><path d="M36.96 212.5L38.96 196.73M38.96 196.73L44.81 181.95M44.81 181.95L54.15 169.1M54.15 169.1L66.39 158.97M66.39 158.97L80.77 152.2M80.77 152.2L96.39 149.22M96.39 149.22L112.25 150.22M112.25 150.22L127.36 155.13M127.36 155.13L140.78 163.65M140.78 163.65L151.66 175.23M151.66 175.23L159.32 189.16M159.32 189.16L163.27 204.55M163.27 204.55L163.27 220.45M163.27 220.45L159.32 235.84M159.32 235.84L151.66 249.77M151.66 249.77L140.78 261.35M140.78 261.35L127.36 269.87M127.36 269.87L112.25 274.78M112.25 274.78L96.39 275.78M96.39 275.78L80.77 272.8M80.77 272.8L66.39 266.03M66.39 266.03L54.15 255.9M54.15 255.9L44.81 243.04M44.81 243.04L38.96 228.27M38.96 228.27L36.96 212.5"
fill="none" stroke="black" stroke-width="3"/>
</g>
<g><path d="M272.46 212.5L274.3 199.74M274.3 199.74L279.65 188.01M279.65 188.01L288.09 178.27M288.09 178.27L298.94 171.3M298.94 171.3L311.3 167.67M311.3 167.67L324.19 167.67M324.19 167.67L336.56 171.3M336.56 171.3L347.41 178.27M347.41 178.27L355.85 188.01M355.85 188.01L361.2 199.74M361.2 199.74L363.04 212.5M363.04 212.5L361.2 225.26M361.2 225.26L355.85 236.98M355.85 236.98L347.41 246.73M347.41 246.73L336.56 253.69M336.56 253.69L324.19 257.33M324.19 257.33L311.3 257.33M311.3 257.33L298.94 253.69M298.94 253.69L288.09 246.73M288.09 246.73L279.65 236.98M279.65 236.98L274.3 225.26M274.3 225.26L272.46 212.5"
fill="none" stroke="black" stroke-width="3"/>
</g>
<g><path d="M105.62 149.28L321.55 167.39"
fill="none" stroke="black" stroke-width="3"/>
</g>
<g><path d="M105.62 275.72L321.55 257.61"
fill="none" stroke="black" stroke-width="3"/>
</g>
<g><path d="M0.73 212.5L399.27 212.5"
fill="none" stroke="black" stroke-width="3"/>
</g>
<g><path d="M100.37 112.87L100.37 312.13"
fill="none" stroke="black" stroke-width="3"/>
</g>
<g><path d="M317.75 130.98L317.75 294.02"
fill="none" stroke="black" stroke-width="3"/>
</g>
<g><path d="M162.5 122.29L186.23 87.87"
fill="none" stroke="black" stroke-width="9"/>
</g>
<g><path d="M186.23 87.87L204.17 125.73"
fill="none" stroke="black" stroke-width="9"/>
</g>
<g><path d="M204.17 125.73L227.9 91.31"
fill="none" stroke="black" stroke-width="9"/>
</g>
<g><path d="M227.9 91.31L245.83 129.17"
fill="none" stroke="black" stroke-width="9"/>
</g>
<g><path d="M245.83 129.17L269.74 94.75"
fill="none" stroke="black" stroke-width="9"/>
</g>
</g>
</svg>
