<?xml version="1.0" standalone="no"?><svg xmlns="http://www.w3.org/2000/svg" width="400.000" height="400.000" viewBox="0.0 0.0 400.000 400.000" version="1.1">
  <title>Produce by Acme CAD Converter</title>
  <desc>Produce by Acme CAD Converter</desc>
<g id="0" display="visible">
<g><path d="M241.95 63.66L158.05 63.66"
fill="none" stroke="black" stroke-width="9"/>
</g>
<g><path d="M74.15 147.56L158.05 147.56"
fill="none" stroke="black" stroke-width="9"/>
</g>
<g><path d="M158.05 63.66L158.05 399.27"
fill="none" stroke="black" stroke-width="9"/>
</g>
<g><path d="M158.05 231.46L241.95 231.46"
fill="none" stroke="black" stroke-width="9"/>
</g>
<g><path d="M74.15 315.36L158.05 315.36"
fill="none" stroke="black" stroke-width="9"/>
</g>
<g><path d="M158.05 399.27L241.95 399.27"
fill="none" stroke="black" stroke-width="9"/>
</g>
<g><path d="M116.1 147.56L116.1 0.73"
fill="none" stroke="black" stroke-width="3"/>
</g>
<g><path d="M116.1 147.56L96.59 87.78"
fill="none" stroke="black" stroke-width="3"/>
</g>
<g><path d="M116.1 147.56L135.61 87.78"
fill="none" stroke="black" stroke-width="3"/>
</g>
<g><path d="M283.9 147.56L283.9 0.73"
fill="none" stroke="black" stroke-width="3"/>
</g>
<g><path d="M283.9 147.56L264.39 87.78"
fill="none" stroke="black" stroke-width="3"/>
</g>
<g><path d="M283.9 147.56L303.41 87.78"
fill="none" stroke="black" stroke-width="3"/>
</g>
<g><path d="M179.02 126.59L200 147.56"
fill="none" stroke="black" stroke-width="3"/>
</g>
<g><path d="M200 147.56L220.98 168.54"
fill="none" stroke="black" stroke-width="3"/>
</g>
<g><path d="M220.98 126.59L179.02 168.54"
fill="none" stroke="black" stroke-width="3"/>
</g>
<g><path d="M179.02 294.39L200 315.36"
fill="none" stroke="black" stroke-width="3"/>
</g>
<g><path d="M200 315.36L220.98 336.34"
fill="none" stroke="black" stroke-width="3"/>
</g>
<g><path d="M220.98 294.39L179.02 336.34"
fill="none" stroke="black" stroke-width="3"/>
</g>
<g><path d="M241.95 63.66L241.95 399.27"
fill="none" stroke="black" stroke-width="9"/>
</g>
<g><path d="M241.95 147.56L325.85 147.56"
fill="none" stroke="black" stroke-width="9"/>
</g>
<g><path d="M241.95 315.36L325.85 315.36"
fill="none" stroke="black" stroke-width="9"/>
</g>
</g>
</svg>
