<?xml version="1.0" standalone="no"?><svg xmlns="http://www.w3.org/2000/svg" width="400.000" height="400.000" viewBox="0.0 0.0 400.000 400.000" version="1.1">
  <title>Produce by Acme CAD Converter</title>
  <desc>Produce by Acme CAD Converter</desc>
<g id="0" display="visible">
<g><path d="M36.96 200L100.37 163.77"
fill="none" stroke="black" stroke-width="9"/>
</g>
<g><path d="M100.37 163.77L163.77 200"
fill="none" stroke="black" stroke-width="9"/>
</g>
<g><path d="M272.46 200L317.75 177.36"
fill="none" stroke="black" stroke-width="9"/>
</g>
<g><path d="M317.75 177.36L363.04 200"
fill="none" stroke="black" stroke-width="9"/>
</g>
<g><path d="M0.73 200L399.27 200"
fill="none" stroke="black" stroke-width="3"/>
</g>
<g><path d="M100.37 236.23L100.37 163.77"
fill="none" stroke="black" stroke-width="3"/>
</g>
<g><path d="M317.75 222.64L317.75 177.36"
fill="none" stroke="black" stroke-width="3"/>
</g>
<g><path d="M100.37 163.77L100.37 136.6"
fill="none" stroke="black" stroke-width="9"/>
</g>
<g><path d="M317.75 177.36L317.75 150.18"
fill="none" stroke="black" stroke-width="9"/>
</g>
<g><path d="M36.96 200L100.37 236.23"
fill="none" stroke="black" stroke-width="9"/>
</g>
<g><path d="M100.37 236.23L163.77 200"
fill="none" stroke="black" stroke-width="9"/>
</g>
<g><path d="M272.46 200L317.75 222.64"
fill="none" stroke="black" stroke-width="9"/>
</g>
<g><path d="M317.75 222.64L363.04 200"
fill="none" stroke="black" stroke-width="9"/>
</g>
<g><path d="M100.37 236.23L100.37 263.4"
fill="none" stroke="black" stroke-width="9"/>
</g>
<g><path d="M317.75 222.64L317.75 249.82"
fill="none" stroke="black" stroke-width="9"/>
</g>
</g>
</svg>
