<?xml version="1.0" standalone="no"?><svg xmlns="http://www.w3.org/2000/svg" width="400.000" height="400.000" viewBox="0.0 0.0 400.000 400.000" version="1.1">
  <title>Produce by Acme CAD Converter</title>
  <desc>Produce by Acme CAD Converter</desc>
<g id="0" display="visible">
<g><path d="M0.73 100.37L80.44 100.37"
fill="none" stroke="black" stroke-width="9"/>
</g>
<g><path d="M80.44 40.59L80.44 160.15"
fill="none" stroke="black" stroke-width="9"/>
</g>
<g><path d="M319.56 70.48L319.56 130.26"
fill="none" stroke="black" stroke-width="9"/>
</g>
<g><path d="M319.56 100.37L399.27 100.37"
fill="none" stroke="black" stroke-width="9"/>
</g>
<g><path d="M0.73 239.85L80.44 239.85"
fill="none" stroke="black" stroke-width="9"/>
</g>
<g><path d="M80.44 209.96L80.44 269.74"
fill="none" stroke="black" stroke-width="9"/>
</g>
<g><path d="M319.56 180.07L319.56 299.63"
fill="none" stroke="black" stroke-width="9"/>
</g>
<g><path d="M319.56 239.85L399.27 239.85"
fill="none" stroke="black" stroke-width="9"/>
</g>
<g><path d="M80.44 40.59L319.56 70.48"
fill="none" stroke="black" stroke-width="9"/>
</g>
<g><path d="M80.44 160.15L319.56 130.26"
fill="none" stroke="black" stroke-width="9"/>
</g>
<g><path d="M80.44 209.96L319.56 180.07"
fill="none" stroke="black" stroke-width="9"/>
</g>
<g><path d="M80.44 269.74L319.56 299.63"
fill="none" stroke="black" stroke-width="9"/>
</g>
<g><path d="M160.15 150.18L160.15 200"
fill="none" stroke="black" stroke-width="9"/>
</g>
<g><path d="M239.85 140.22L239.85 190.04"
fill="none" stroke="black" stroke-width="9"/>
</g>
<g><path d="M160.15 279.71L160.15 359.41"
fill="none" stroke="black" stroke-width="9"/>
</g>
<g><path d="M239.85 289.67L239.85 359.41"
fill="none" stroke="black" stroke-width="9"/>
</g>
<g><path d="M160.15 359.41L239.85 359.41"
fill="none" stroke="black" stroke-width="9"/>
</g>
<g><path d="M160.15 319.56L239.85 319.56"
fill="none" stroke="black" stroke-width="9"/>
</g>
<g><path d="M75.46 185.65L102.56 172.9"
fill="none" stroke="black" stroke-width="3"/>
</g>
<g><path d="M75.46 185.65L104.75 191.23"
fill="none" stroke="black" stroke-width="3"/>
</g>
<g><path d="M324.54 154.57L75.46 185.65"
fill="none" stroke="black" stroke-width="3"/>
</g>
<g><path d="M324.54 154.57L297.44 167.32"
fill="none" stroke="black" stroke-width="3"/>
</g>
<g><path d="M324.54 154.57L295.25 148.99"
fill="none" stroke="black" stroke-width="3"/>
</g>
<g><path d="M190.04 90.4L200 100.37"
fill="none" stroke="black" stroke-width="3"/>
</g>
<g><path d="M200 100.37L209.96 110.33"
fill="none" stroke="black" stroke-width="3"/>
</g>
<g><path d="M209.96 90.4L190.04 110.33"
fill="none" stroke="black" stroke-width="3"/>
</g>
<g><path d="M190.04 229.89L200 239.85"
fill="none" stroke="black" stroke-width="3"/>
</g>
<g><path d="M200 239.85L209.96 249.82"
fill="none" stroke="black" stroke-width="3"/>
</g>
<g><path d="M209.96 229.89L190.04 249.82"
fill="none" stroke="black" stroke-width="3"/>
</g>
<g><path d="M203.55 359.41L239.85 323.11"
fill="none" stroke="black" stroke-width="3"/>
</g>
<g><path d="M161.28 359.41L201.13 319.56"
fill="none" stroke="black" stroke-width="3"/>
</g>
<g><path d="M198.7 195.18L239.85 154.03"
fill="none" stroke="black" stroke-width="3"/>
</g>
<g><path d="M160.15 191.46L207.32 144.29"
fill="none" stroke="black" stroke-width="3"/>
</g>
<g><path d="M239.85 150.77L230.47 141.39"
fill="none" stroke="black" stroke-width="3"/>
</g>
<g><path d="M237.18 190.37L192.9 146.09"
fill="none" stroke="black" stroke-width="3"/>
</g>
<g><path d="M199.61 195.07L160.15 155.61"
fill="none" stroke="black" stroke-width="3"/>
</g>
<g><path d="M162.03 199.76L160.15 197.88"
fill="none" stroke="black" stroke-width="3"/>
</g>
<g><path d="M239.85 319.86L239.56 319.56"
fill="none" stroke="black" stroke-width="3"/>
</g>
<g><path d="M237.14 359.41L197.29 319.56"
fill="none" stroke="black" stroke-width="3"/>
</g>
<g><path d="M194.87 359.41L160.15 324.69"
fill="none" stroke="black" stroke-width="3"/>
</g>
</g>
</svg>
