<?xml version="1.0" standalone="no"?><svg xmlns="http://www.w3.org/2000/svg" width="400.000" height="400.000" viewBox="0.0 0.0 400.000 400.000" version="1.1">
  <title>Produce by Acme CAD Converter</title>
  <desc>Produce by Acme CAD Converter</desc>
<g id="0" display="visible">
<g><path d="M127.54 127.54L129.49 110.83M129.49 110.83L135.25 95.02M135.25 95.02L144.49 80.96M144.49 80.96L156.73 69.42M156.73 69.42L171.3 61M171.3 61L187.42 56.18M187.42 56.18L204.21 55.2M204.21 55.2L220.78 58.12M220.78 58.12L236.23 64.79M236.23 64.79L249.73 74.83M249.73 74.83L260.54 87.72M260.54 87.72L268.09 102.76M268.09 102.76L271.97 119.13M271.97 119.13L271.97 135.95M271.97 135.95L268.09 152.32M268.09 152.32L260.54 167.36M260.54 167.36L249.73 180.25M249.73 180.25L236.23 190.29M236.23 190.29L220.78 196.96M220.78 196.96L204.21 199.88M204.21 199.88L187.42 198.9M187.42 198.9L171.3 194.07M171.3 194.07L156.73 185.66M156.73 185.66L144.49 174.12M144.49 174.12L135.25 160.06M135.25 160.06L129.49 144.25M129.49 144.25L127.54 127.54"
fill="none" stroke="black" stroke-width="3"/>
</g>
<g><path d="M127.54 272.46L129.49 255.75M129.49 255.75L135.25 239.94M135.25 239.94L144.49 225.88M144.49 225.88L156.73 214.34M156.73 214.34L171.3 205.93M171.3 205.93L187.42 201.1M187.42 201.1L204.21 200.12M204.21 200.12L220.78 203.04M220.78 203.04L236.23 209.71M236.23 209.71L249.73 219.75M249.73 219.75L260.54 232.64M260.54 232.64L268.09 247.68M268.09 247.68L271.97 264.05M271.97 264.05L271.97 280.87M271.97 280.87L268.09 297.24M268.09 297.24L260.54 312.28M260.54 312.28L249.73 325.17M249.73 325.17L236.23 335.21M236.23 335.21L220.78 341.88M220.78 341.88L204.21 344.8M204.21 344.8L187.42 343.82M187.42 343.82L171.3 339M171.3 339L156.73 330.58M156.73 330.58L144.49 319.04M144.49 319.04L135.25 304.98M135.25 304.98L129.49 289.17M129.49 289.17L127.54 272.46"
fill="none" stroke="black" stroke-width="9"/>
</g>
<g><path d="M200 127.54L200 0.73"
fill="none" stroke="black" stroke-width="3"/>
</g>
<g><path d="M200 127.54L183.15 75.91"
fill="none" stroke="black" stroke-width="3"/>
</g>
<g><path d="M200 127.54L216.85 75.91"
fill="none" stroke="black" stroke-width="3"/>
</g>
<g><path d="M73.19 127.54L326.81 127.54"
fill="none" stroke="black" stroke-width="3"/>
</g>
<g><path d="M73.19 272.46L326.81 272.46"
fill="none" stroke="black" stroke-width="3"/>
</g>
<g><path d="M200 127.54L200 399.27"
fill="none" stroke="black" stroke-width="3"/>
</g>
</g>
</svg>
