<?xml version="1.0" standalone="no"?><svg xmlns="http://www.w3.org/2000/svg" width="400.000" height="400.000" viewBox="0.0 0.0 400.000 400.000" version="1.1">
  <title>Produce by Acme CAD Converter</title>
  <desc>Produce by Acme CAD Converter</desc>
<g id="0" display="visible">
<g><path d="M235.16 47.62L235.16 399.27"
fill="none" stroke="black" stroke-width="9"/>
</g>
<g><path d="M164.84 47.62L164.84 399.27"
fill="none" stroke="black" stroke-width="9"/>
</g>
<g><path d="M235.16 399.27L233.44 388.4M233.44 388.4L228.45 378.6M228.45 378.6L220.67 370.82M220.67 370.82L210.87 365.82M210.87 365.82L200 364.1M200 364.1L189.13 365.82M189.13 365.82L179.33 370.82M179.33 370.82L171.55 378.6M171.55 378.6L166.56 388.4M166.56 388.4L164.84 399.27"
fill="none" stroke="black" stroke-width="9"/>
</g>
<g><path d="M352.38 223.44L235.16 223.44"
fill="none" stroke="black" stroke-width="9"/>
</g>
<g><path d="M47.62 223.44L164.84 223.44"
fill="none" stroke="black" stroke-width="9"/>
</g>
<g><path d="M164.84 47.62L166.74 36.2M166.74 36.2L172.25 26.02M172.25 26.02L180.77 18.18M180.77 18.18L191.37 13.53M191.37 13.53L202.9 12.57M202.9 12.57L214.13 15.42M214.13 15.42L223.82 21.75M223.82 21.75L230.93 30.88M230.93 30.88L234.69 41.83M234.69 41.83L234.69 53.41M234.69 53.41L230.93 64.36M230.93 64.36L223.82 73.49M223.82 73.49L214.13 79.82M214.13 79.82L202.9 82.66M202.9 82.66L191.37 81.71M191.37 81.71L180.77 77.06M180.77 77.06L172.25 69.22M172.25 69.22L166.74 59.04M166.74 59.04L164.84 47.62"
fill="none" stroke="black" stroke-width="9"/>
</g>
<g><path d="M200 0.73L200 94.51"
fill="none" stroke="black" stroke-width="3"/>
</g>
<g><path d="M246.89 47.62L153.11 47.62"
fill="none" stroke="black" stroke-width="3"/>
</g>
<g><path d="M223.44 200L200 223.44"
fill="none" stroke="black" stroke-width="3"/>
</g>
<g><path d="M200 223.44L176.56 246.89"
fill="none" stroke="black" stroke-width="3"/>
</g>
<g><path d="M223.44 246.89L176.56 200"
fill="none" stroke="black" stroke-width="3"/>
</g>
</g>
</svg>
