<?xml version="1.0" standalone="no"?><svg xmlns="http://www.w3.org/2000/svg" width="400.000" height="400.000" viewBox="0.0 0.0 400.000 400.000" version="1.1">
  <title>Produce by Acme CAD Converter</title>
  <desc>Produce by Acme CAD Converter</desc>
<g id="0" display="visible">
<g><path d="M186.72 0.73L186.72 160.15"
fill="none" stroke="black" stroke-width="9"/>
</g>
<g><path d="M0.73 160.15L372.7 160.15"
fill="none" stroke="black" stroke-width="9"/>
</g>
<g><path d="M0.73 239.85L372.7 239.85"
fill="none" stroke="black" stroke-width="9"/>
</g>
<g><path d="M0.73 160.15L0.73 239.85"
fill="none" stroke="black" stroke-width="9"/>
</g>
<g><path d="M372.7 160.15L372.7 239.85"
fill="none" stroke="black" stroke-width="9"/>
</g>
<g><path d="M200 160.15L200 253.14"
fill="none" stroke="black" stroke-width="3"/>
</g>
<g><path d="M239.85 239.85L239.85 399.27"
fill="none" stroke="black" stroke-width="9"/>
</g>
<g><path d="M319.56 239.85L319.56 399.27"
fill="none" stroke="black" stroke-width="9"/>
</g>
<g><path d="M239.85 399.27L319.56 399.27"
fill="none" stroke="black" stroke-width="9"/>
</g>
<g><path d="M160.15 319.56L239.85 319.56"
fill="none" stroke="black" stroke-width="9"/>
</g>
<g><path d="M319.56 319.56L399.27 319.56"
fill="none" stroke="black" stroke-width="9"/>
</g>
<g><path d="M173.43 300.96L399.27 300.96"
fill="none" stroke="black" stroke-width="3"/>
</g>
<g><path d="M93.72 160.15L93.72 0.73"
fill="none" stroke="black" stroke-width="3"/>
</g>
<g><path d="M93.72 160.15L77.25 109.67"
fill="none" stroke="black" stroke-width="3"/>
</g>
<g><path d="M93.72 160.15L110.2 109.67"
fill="none" stroke="black" stroke-width="3"/>
</g>
<g><path d="M279.71 160.15L279.71 0.73"
fill="none" stroke="black" stroke-width="3"/>
</g>
<g><path d="M279.71 160.15L263.23 109.67"
fill="none" stroke="black" stroke-width="3"/>
</g>
<g><path d="M279.71 160.15L296.18 109.67"
fill="none" stroke="black" stroke-width="3"/>
</g>
<g><path d="M186.72 274.39L224.71 262.17"
fill="none" stroke="black" stroke-width="3"/>
</g>
<g><path d="M186.72 274.39L224.71 286.61"
fill="none" stroke="black" stroke-width="3"/>
</g>
<g><path d="M372.7 274.39L186.72 274.39"
fill="none" stroke="black" stroke-width="3"/>
</g>
<g><path d="M372.7 274.39L334.7 286.61"
fill="none" stroke="black" stroke-width="3"/>
</g>
<g><path d="M372.7 274.39L334.7 262.17"
fill="none" stroke="black" stroke-width="3"/>
</g>
</g>
</svg>
