<?xml version="1.0" standalone="no"?><svg xmlns="http://www.w3.org/2000/svg" width="400.000" height="400.000" viewBox="0.0 0.0 400.000 400.000" version="1.1">
  <title>Produce by Acme CAD Converter</title>
  <desc>Produce by Acme CAD Converter</desc>
<g id="0" display="visible">
<g><path d="M155.72 45.01L157.69 31.96M157.69 31.96L163.41 20.07M163.41 20.07L172.39 10.39M172.39 10.39L183.82 3.79M183.82 3.79L196.69 0.86M196.69 0.86L209.85 1.84M209.85 1.84L222.14 6.67M222.14 6.67L232.46 14.9M232.46 14.9L239.9 25.8M239.9 25.8L243.79 38.41M243.79 38.41L243.79 51.61M243.79 51.61L239.9 64.23M239.9 64.23L232.46 75.13M232.46 75.13L222.14 83.36M222.14 83.36L209.85 88.19M209.85 88.19L196.69 89.17M196.69 89.17L183.82 86.24M183.82 86.24L172.39 79.64M172.39 79.64L163.41 69.96M163.41 69.96L157.69 58.07M157.69 58.07L155.72 45.01"
fill="none" stroke="black" stroke-width="9"/>
</g>
<g><path d="M22.87 399.27L180.2 84.62"
fill="none" stroke="black" stroke-width="9"/>
</g>
<g><path d="M377.13 399.27L219.8 84.62"
fill="none" stroke="black" stroke-width="9"/>
</g>
</g>
</svg>
