<?xml version="1.0" standalone="no"?><svg xmlns="http://www.w3.org/2000/svg" width="400.000" height="400.000" viewBox="0.0 0.0 400.000 400.000" version="1.1">
  <title>Produce by Acme CAD Converter</title>
  <desc>Produce by Acme CAD Converter</desc>
<g id="0" display="visible">
<g><path d="M200 338.38L200 72.69"
fill="none" stroke="black" stroke-width="3"/>
</g>
<g><path d="M3.52 61.62L0.81 89.18M0.81 89.18L1.95 116.84M1.95 116.84L6.91 144.08M6.91 144.08L15.6 170.37M15.6 170.37L27.86 195.2M27.86 195.2L43.43 218.09M43.43 218.09L62.03 238.6M62.03 238.6L83.29 256.34M83.29 256.34L106.8 270.96M106.8 270.96L132.11 282.18M132.11 282.18L158.74 289.78M158.74 289.78L186.16 293.62M186.16 293.62L213.84 293.62M213.84 293.62L241.26 289.78M241.26 289.78L267.89 282.18M267.89 282.18L293.2 270.96M293.2 270.96L316.71 256.34M316.71 256.34L337.97 238.6M337.97 238.6L356.57 218.09M356.57 218.09L372.14 195.2M372.14 195.2L384.4 170.37M384.4 170.37L393.09 144.08M393.09 144.08L398.05 116.84M398.05 116.84L399.19 89.18M399.19 89.18L396.48 61.62"
fill="none" stroke="black" stroke-width="9"/>
</g>
<g><path d="M3.52 61.62L10.1 88.78M10.1 88.78L20.41 114.75M20.41 114.75L34.25 139.02M34.25 139.02L51.35 161.11M51.35 161.11L71.37 180.6M71.37 180.6L93.93 197.1M93.93 197.1L118.56 210.28M118.56 210.28L144.8 219.88M144.8 219.88L172.13 225.72M172.13 225.72L200 227.68M200 227.68L227.87 225.72M227.87 225.72L255.2 219.88M255.2 219.88L281.44 210.28M281.44 210.28L306.07 197.1M306.07 197.1L328.63 180.6M328.63 180.6L348.65 161.11M348.65 161.11L365.75 139.02M365.75 139.02L379.59 114.75M379.59 114.75L389.9 88.78M389.9 88.78L396.48 61.62"
fill="none" stroke="black" stroke-width="9"/>
</g>
</g>
</svg>
