<?xml version="1.0" standalone="no"?><svg xmlns="http://www.w3.org/2000/svg" width="400.000" height="400.000" viewBox="0.0 0.0 400.000 400.000" version="1.1">
  <title>Produce by Acme CAD Converter</title>
  <desc>Produce by Acme CAD Converter</desc>
<g id="0" display="visible">
<g><path d="M91.31 18.85L308.69 18.85"
fill="none" stroke="black" stroke-width="9"/>
</g>
<g><path d="M91.31 73.19L163.77 73.19"
fill="none" stroke="black" stroke-width="9"/>
</g>
<g><path d="M163.77 18.85L163.77 272.46"
fill="none" stroke="black" stroke-width="9"/>
</g>
<g><path d="M163.77 127.54L236.23 127.54"
fill="none" stroke="black" stroke-width="9"/>
</g>
<g><path d="M91.31 200L163.77 200"
fill="none" stroke="black" stroke-width="9"/>
</g>
<g><path d="M163.77 272.46L236.23 272.46"
fill="none" stroke="black" stroke-width="9"/>
</g>
<g><path d="M181.88 55.08L200 73.19"
fill="none" stroke="black" stroke-width="3"/>
</g>
<g><path d="M200 73.19L218.12 91.31"
fill="none" stroke="black" stroke-width="3"/>
</g>
<g><path d="M218.12 55.08L181.88 91.31"
fill="none" stroke="black" stroke-width="3"/>
</g>
<g><path d="M181.88 181.88L200 200"
fill="none" stroke="black" stroke-width="3"/>
</g>
<g><path d="M200 200L218.12 218.12"
fill="none" stroke="black" stroke-width="3"/>
</g>
<g><path d="M218.12 181.88L181.88 218.12"
fill="none" stroke="black" stroke-width="3"/>
</g>
<g><path d="M236.23 18.85L236.23 272.46"
fill="none" stroke="black" stroke-width="9"/>
</g>
<g><path d="M236.23 73.19L308.69 73.19"
fill="none" stroke="black" stroke-width="9"/>
</g>
<g><path d="M236.23 200L308.69 200"
fill="none" stroke="black" stroke-width="9"/>
</g>
<g><path d="M91.31 381.15L308.69 381.15"
fill="none" stroke="black" stroke-width="9"/>
</g>
<g><path d="M163.77 272.46L163.77 381.15"
fill="none" stroke="black" stroke-width="9"/>
</g>
<g><path d="M236.23 272.46L236.23 381.15"
fill="none" stroke="black" stroke-width="9"/>
</g>
<g><path d="M91.31 326.81L163.77 326.81"
fill="none" stroke="black" stroke-width="9"/>
</g>
<g><path d="M236.23 326.81L308.69 326.81"
fill="none" stroke="black" stroke-width="9"/>
</g>
<g><path d="M181.88 308.69L200 326.81"
fill="none" stroke="black" stroke-width="3"/>
</g>
<g><path d="M200 326.81L218.12 344.92"
fill="none" stroke="black" stroke-width="3"/>
</g>
<g><path d="M218.12 308.69L181.88 344.92"
fill="none" stroke="black" stroke-width="3"/>
</g>
<g><path d="M279.2 18.85L297.32 0.73"
fill="none" stroke="black" stroke-width="3"/>
</g>
<g><path d="M227.97 18.85L246.08 0.73"
fill="none" stroke="black" stroke-width="3"/>
</g>
<g><path d="M176.73 18.85L194.84 0.73"
fill="none" stroke="black" stroke-width="3"/>
</g>
<g><path d="M125.49 18.85L143.61 0.73"
fill="none" stroke="black" stroke-width="3"/>
</g>
<g><path d="M91.31 1.79L92.37 0.73"
fill="none" stroke="black" stroke-width="3"/>
</g>
<g><path d="M308.69 399.27L308.69 399.26"
fill="none" stroke="black" stroke-width="3"/>
</g>
<g><path d="M257.45 399.27L275.56 381.15"
fill="none" stroke="black" stroke-width="3"/>
</g>
<g><path d="M206.21 399.27L224.33 381.15"
fill="none" stroke="black" stroke-width="3"/>
</g>
<g><path d="M154.97 399.27L173.09 381.15"
fill="none" stroke="black" stroke-width="3"/>
</g>
<g><path d="M103.74 399.27L121.85 381.15"
fill="none" stroke="black" stroke-width="3"/>
</g>
</g>
</svg>
