<?xml version="1.0" standalone="no"?><svg xmlns="http://www.w3.org/2000/svg" width="400.000" height="400.000" viewBox="0.0 0.0 400.000 400.000" version="1.1">
  <title>Produce by Acme CAD Converter</title>
  <desc>Produce by Acme CAD Converter</desc>
<g id="0" display="visible">
<g><path d="M15.6 223.79L30.47 164.31"
fill="none" stroke="black" stroke-width="9"/>
</g>
<g><path d="M30.47 164.31L48.32 235.69"
fill="none" stroke="black" stroke-width="9"/>
</g>
<g><path d="M48.32 235.69L66.16 164.31"
fill="none" stroke="black" stroke-width="9"/>
</g>
<g><path d="M66.16 164.31L84.01 235.69"
fill="none" stroke="black" stroke-width="9"/>
</g>
<g><path d="M84.01 235.69L101.85 164.31"
fill="none" stroke="black" stroke-width="9"/>
</g>
<g><path d="M101.85 164.31L119.7 235.69"
fill="none" stroke="black" stroke-width="9"/>
</g>
<g><path d="M119.7 235.69L137.54 164.31"
fill="none" stroke="black" stroke-width="9"/>
</g>
<g><path d="M137.54 164.31L155.39 235.69"
fill="none" stroke="black" stroke-width="9"/>
</g>
<g><path d="M155.39 235.69L173.23 164.31"
fill="none" stroke="black" stroke-width="9"/>
</g>
<g><path d="M173.23 164.31L191.08 235.69"
fill="none" stroke="black" stroke-width="9"/>
</g>
<g><path d="M191.08 235.69L208.92 164.31"
fill="none" stroke="black" stroke-width="9"/>
</g>
<g><path d="M208.92 164.31L226.77 235.69"
fill="none" stroke="black" stroke-width="9"/>
</g>
<g><path d="M226.77 235.69L244.61 164.31"
fill="none" stroke="black" stroke-width="9"/>
</g>
<g><path d="M244.61 164.31L262.46 235.69"
fill="none" stroke="black" stroke-width="9"/>
</g>
<g><path d="M262.46 235.69L280.3 164.31"
fill="none" stroke="black" stroke-width="9"/>
</g>
<g><path d="M280.3 164.31L298.15 235.69"
fill="none" stroke="black" stroke-width="9"/>
</g>
<g><path d="M298.15 235.69L315.99 164.31"
fill="none" stroke="black" stroke-width="9"/>
</g>
<g><path d="M315.99 164.31L333.84 235.69"
fill="none" stroke="black" stroke-width="9"/>
</g>
<g><path d="M333.84 235.69L351.68 164.31"
fill="none" stroke="black" stroke-width="9"/>
</g>
<g><path d="M351.68 164.31L369.53 235.69"
fill="none" stroke="black" stroke-width="9"/>
</g>
<g><path d="M369.53 235.69L384.4 176.21"
fill="none" stroke="black" stroke-width="9"/>
</g>
<g><path d="M0.73 200L399.27 200"
fill="none" stroke="black" stroke-width="3"/>
</g>
</g>
</svg>
