<?xml version="1.0" standalone="no"?><svg xmlns="http://www.w3.org/2000/svg" width="400.000" height="400.000" viewBox="0.0 0.0 400.000 400.000" version="1.1">
  <title>Produce by Acme CAD Converter</title>
  <desc>Produce by Acme CAD Converter</desc>
<g id="0" display="visible">
<g><path d="M36.96 210.87L38.96 195.1M38.96 195.1L44.81 180.32M44.81 180.32L54.15 167.47M54.15 167.47L66.39 157.34M66.39 157.34L80.77 150.57M80.77 150.57L96.39 147.59M96.39 147.59L112.25 148.59M112.25 148.59L127.36 153.5M127.36 153.5L140.78 162.02M140.78 162.02L151.66 173.6M151.66 173.6L159.32 187.53M159.32 187.53L163.27 202.92M163.27 202.92L163.27 218.82M163.27 218.82L159.32 234.21M159.32 234.21L151.66 248.14M151.66 248.14L140.78 259.72M140.78 259.72L127.36 268.24M127.36 268.24L112.25 273.15M112.25 273.15L96.39 274.15M96.39 274.15L80.77 271.17M80.77 271.17L66.39 264.4M66.39 264.4L54.15 254.27M54.15 254.27L44.81 241.41M44.81 241.41L38.96 226.64M38.96 226.64L36.96 210.87"
fill="none" stroke="black" stroke-width="3"/>
</g>
<g><path d="M272.46 210.87L274.3 198.11M274.3 198.11L279.65 186.38M279.65 186.38L288.09 176.64M288.09 176.64L298.94 169.67M298.94 169.67L311.3 166.04M311.3 166.04L324.19 166.04M324.19 166.04L336.56 169.67M336.56 169.67L347.41 176.64M347.41 176.64L355.85 186.38M355.85 186.38L361.2 198.11M361.2 198.11L363.04 210.87M363.04 210.87L361.2 223.63M361.2 223.63L355.85 235.35M355.85 235.35L347.41 245.1M347.41 245.1L336.56 252.06M336.56 252.06L324.19 255.7M324.19 255.7L311.3 255.7M311.3 255.7L298.94 252.06M298.94 252.06L288.09 245.1M288.09 245.1L279.65 235.35M279.65 235.35L274.3 223.63M274.3 223.63L272.46 210.87"
fill="none" stroke="black" stroke-width="3"/>
</g>
<g><path d="M105.62 147.65L321.55 165.76"
fill="none" stroke="black" stroke-width="3"/>
</g>
<g><path d="M105.62 274.09L321.55 255.98"
fill="none" stroke="black" stroke-width="3"/>
</g>
<g><path d="M0.73 210.87L399.27 210.87"
fill="none" stroke="black" stroke-width="3"/>
</g>
<g><path d="M100.37 111.24L100.37 310.5"
fill="none" stroke="black" stroke-width="3"/>
</g>
<g><path d="M317.75 129.35L317.75 292.39"
fill="none" stroke="black" stroke-width="3"/>
</g>
<g><path d="M163.41 107.98L278.98 117.58"
fill="none" stroke="black" stroke-width="3"/>
</g>
<g><path d="M205.08 89.57L196.65 90.53M196.65 90.53L189.23 94.63M189.23 94.63L183.94 101.27M183.94 101.27L181.6 109.42M181.6 109.42L182.55 117.85M182.55 117.85L186.66 125.27M186.66 125.27L193.3 130.56M193.3 130.56L201.46 132.9"
fill="none" stroke="black" stroke-width="9"/>
</g>
<g><path d="M237.49 135.98L245.92 135.02M245.92 135.02L253.34 130.92M253.34 130.92L258.63 124.28M258.63 124.28L260.97 116.13M260.97 116.13L260.02 107.7M260.02 107.7L255.91 100.28M255.91 100.28L249.27 94.99M249.27 94.99L241.12 92.65"
fill="none" stroke="black" stroke-width="9"/>
</g>
<g><path d="M205.07 89.68L241.12 92.58"
fill="none" stroke="black" stroke-width="9"/>
</g>
<g><path d="M201.45 132.97L237.5 135.87"
fill="none" stroke="black" stroke-width="9"/>
</g>
</g>
</svg>
