<?xml version="1.0" standalone="no"?><svg xmlns="http://www.w3.org/2000/svg" width="400.000" height="400.000" viewBox="0.0 0.0 400.000 400.000" version="1.1">
  <title>Produce by Acme CAD Converter</title>
  <desc>Produce by Acme CAD Converter</desc>
<g id="0" display="visible">
<g><path d="M200 23.85L200 223.12"
fill="none" stroke="black" stroke-width="9"/>
</g>
<g><path d="M100.37 223.12L299.63 223.12"
fill="none" stroke="black" stroke-width="9"/>
</g>
<g><path d="M100.37 223.12L102.28 242.56M102.28 242.56L107.95 261.25M107.95 261.25L117.16 278.47M117.16 278.47L129.55 293.57M129.55 293.57L144.65 305.96M144.65 305.96L161.87 315.17M161.87 315.17L180.56 320.84M180.56 320.84L200 322.75M200 322.75L219.44 320.84M219.44 320.84L238.13 315.17M238.13 315.17L255.35 305.96M255.35 305.96L270.45 293.57M270.45 293.57L282.84 278.47M282.84 278.47L292.05 261.25M292.05 261.25L297.72 242.56M297.72 242.56L299.63 223.12"
fill="none" stroke="black" stroke-width="9"/>
</g>
<g><path d="M399.27 376.15L365.56 358.77M365.56 358.77L330.35 344.67M330.35 344.67L293.96 333.99M293.96 333.99L256.72 326.81M256.72 326.81L218.96 323.2M218.96 323.2L181.04 323.2M181.04 323.2L143.28 326.81M143.28 326.81L106.04 333.99M106.04 333.99L69.65 344.67M69.65 344.67L34.44 358.77M34.44 358.77L0.73 376.15"
fill="none" stroke="black" stroke-width="9"/>
</g>
</g>
</svg>
