<?xml version="1.0" standalone="no"?><svg xmlns="http://www.w3.org/2000/svg" width="400.000" height="400.000" viewBox="0.0 0.0 400.000 400.000" version="1.1">
  <title>Produce by Acme CAD Converter</title>
  <desc>Produce by Acme CAD Converter</desc>
<g id="0" display="visible">
<g><path d="M209.96 202.99L269.74 202.99"
fill="none" stroke="black" stroke-width="9"/>
</g>
<g><path d="M239.85 202.99L239.85 123.28"
fill="none" stroke="black" stroke-width="9"/>
</g>
<g><path d="M239.85 123.28L140.22 123.28"
fill="none" stroke="black" stroke-width="9"/>
</g>
<g><path d="M140.22 123.28L200 183.06"
fill="none" stroke="black" stroke-width="9"/>
</g>
<g><path d="M190.04 222.92L319.56 222.92"
fill="none" stroke="black" stroke-width="3"/>
</g>
<g><path d="M239.85 252.81L399.27 252.81"
fill="none" stroke="black" stroke-width="9"/>
</g>
<g><path d="M239.85 153.17L359.41 153.17"
fill="none" stroke="black" stroke-width="3"/>
</g>
<g><path d="M239.85 153.17L296.64 134.64"
fill="none" stroke="black" stroke-width="3"/>
</g>
<g><path d="M239.85 153.17L296.64 171.7"
fill="none" stroke="black" stroke-width="3"/>
</g>
<g><path d="M209.96 302.62L269.74 302.62"
fill="none" stroke="black" stroke-width="9"/>
</g>
<g><path d="M239.85 302.62L239.85 382.33"
fill="none" stroke="black" stroke-width="9"/>
</g>
<g><path d="M239.85 382.33L140.22 382.33"
fill="none" stroke="black" stroke-width="9"/>
</g>
<g><path d="M140.22 382.33L200 322.55"
fill="none" stroke="black" stroke-width="9"/>
</g>
<g><path d="M239.85 352.44L359.41 352.44"
fill="none" stroke="black" stroke-width="3"/>
</g>
<g><path d="M239.85 352.44L296.64 333.91"
fill="none" stroke="black" stroke-width="3"/>
</g>
<g><path d="M239.85 352.44L296.64 370.97"
fill="none" stroke="black" stroke-width="3"/>
</g>
<g><path d="M120.29 222.92L120.29 143.21"
fill="none" stroke="black" stroke-width="9"/>
</g>
<g><path d="M120.29 222.92L0.73 222.92"
fill="none" stroke="black" stroke-width="9"/>
</g>
<g><path d="M120.29 143.21L160.15 183.06"
fill="none" stroke="black" stroke-width="9"/>
</g>
<g><path d="M120.29 222.92L120.29 302.62"
fill="none" stroke="black" stroke-width="9"/>
</g>
<g><path d="M120.29 302.62L160.15 262.77"
fill="none" stroke="black" stroke-width="9"/>
</g>
<g><path d="M120.29 123.28L67.09 96.18"
fill="none" stroke="black" stroke-width="3"/>
</g>
<g><path d="M120.29 123.28L93.19 70.08"
fill="none" stroke="black" stroke-width="3"/>
</g>
<g><path d="M14.68 17.67L120.29 123.28"
fill="none" stroke="black" stroke-width="3"/>
</g>
<g><path d="M14.68 17.67L67.89 44.77"
fill="none" stroke="black" stroke-width="3"/>
</g>
<g><path d="M14.68 17.67L41.78 70.88"
fill="none" stroke="black" stroke-width="3"/>
</g>
</g>
</svg>
