<?xml version="1.0" standalone="no"?><svg xmlns="http://www.w3.org/2000/svg" width="400.000" height="400.000" viewBox="0.0 0.0 400.000 400.000" version="1.1">
  <title>Produce by Acme CAD Converter</title>
  <desc>Produce by Acme CAD Converter</desc>
<g id="0" display="visible">
<g><path d="M57.67 86.13L128.83 86.13"
fill="none" stroke="black" stroke-width="9"/>
</g>
<g><path d="M128.83 57.67L128.83 114.6"
fill="none" stroke="black" stroke-width="9"/>
</g>
<g><path d="M128.83 57.67L157.3 57.67"
fill="none" stroke="black" stroke-width="9"/>
</g>
<g><path d="M128.83 114.6L157.3 114.6"
fill="none" stroke="black" stroke-width="9"/>
</g>
<g><path d="M157.3 0.73L157.3 171.53"
fill="none" stroke="black" stroke-width="9"/>
</g>
<g><path d="M157.3 0.73L185.77 29.2"
fill="none" stroke="black" stroke-width="9"/>
</g>
<g><path d="M157.3 171.53L185.77 143.07"
fill="none" stroke="black" stroke-width="9"/>
</g>
<g><path d="M185.77 29.2L185.77 143.07"
fill="none" stroke="black" stroke-width="9"/>
</g>
<g><path d="M100.37 100.37L171.53 100.37"
fill="none" stroke="black" stroke-width="3"/>
</g>
<g><path d="M342.33 86.13L271.17 86.13"
fill="none" stroke="black" stroke-width="9"/>
</g>
<g><path d="M271.17 114.6L271.17 57.67"
fill="none" stroke="black" stroke-width="9"/>
</g>
<g><path d="M271.17 114.6L242.7 114.6"
fill="none" stroke="black" stroke-width="9"/>
</g>
<g><path d="M271.17 57.67L242.7 57.67"
fill="none" stroke="black" stroke-width="9"/>
</g>
<g><path d="M242.7 171.53L242.7 0.73"
fill="none" stroke="black" stroke-width="9"/>
</g>
<g><path d="M242.7 171.53L214.23 143.07"
fill="none" stroke="black" stroke-width="9"/>
</g>
<g><path d="M242.7 0.73L214.23 29.2"
fill="none" stroke="black" stroke-width="9"/>
</g>
<g><path d="M214.23 143.07L214.23 29.2"
fill="none" stroke="black" stroke-width="9"/>
</g>
<g><path d="M299.63 100.37L228.47 100.37"
fill="none" stroke="black" stroke-width="3"/>
</g>
<g><path d="M57.67 313.87L128.83 313.87"
fill="none" stroke="black" stroke-width="9"/>
</g>
<g><path d="M128.83 285.4L128.83 342.33"
fill="none" stroke="black" stroke-width="9"/>
</g>
<g><path d="M128.83 285.4L157.3 285.4"
fill="none" stroke="black" stroke-width="9"/>
</g>
<g><path d="M128.83 342.33L157.3 342.33"
fill="none" stroke="black" stroke-width="9"/>
</g>
<g><path d="M157.3 228.47L157.3 399.27"
fill="none" stroke="black" stroke-width="9"/>
</g>
<g><path d="M157.3 228.47L185.77 256.93"
fill="none" stroke="black" stroke-width="9"/>
</g>
<g><path d="M157.3 399.27L185.77 370.8"
fill="none" stroke="black" stroke-width="9"/>
</g>
<g><path d="M185.77 256.93L185.77 370.8"
fill="none" stroke="black" stroke-width="9"/>
</g>
<g><path d="M100.37 328.1L171.53 328.1"
fill="none" stroke="black" stroke-width="3"/>
</g>
<g><path d="M342.33 313.87L271.17 313.87"
fill="none" stroke="black" stroke-width="9"/>
</g>
<g><path d="M271.17 342.33L271.17 285.4"
fill="none" stroke="black" stroke-width="9"/>
</g>
<g><path d="M271.17 342.33L242.7 342.33"
fill="none" stroke="black" stroke-width="9"/>
</g>
<g><path d="M271.17 285.4L242.7 285.4"
fill="none" stroke="black" stroke-width="9"/>
</g>
<g><path d="M242.7 399.27L242.7 228.47"
fill="none" stroke="black" stroke-width="9"/>
</g>
<g><path d="M242.7 399.27L214.23 370.8"
fill="none" stroke="black" stroke-width="9"/>
</g>
<g><path d="M242.7 228.47L214.23 256.93"
fill="none" stroke="black" stroke-width="9"/>
</g>
<g><path d="M214.23 370.8L214.23 256.93"
fill="none" stroke="black" stroke-width="9"/>
</g>
<g><path d="M299.63 328.1L228.47 328.1"
fill="none" stroke="black" stroke-width="3"/>
</g>
<g><path d="M171.53 14.97L228.47 14.97"
fill="none" stroke="black" stroke-width="9"/>
</g>
<g><path d="M171.53 157.3L171.53 242.7"
fill="none" stroke="black" stroke-width="9"/>
</g>
<g><path d="M228.47 157.3L228.47 242.7"
fill="none" stroke="black" stroke-width="9"/>
</g>
<g><path d="M171.53 385.03L228.47 385.03"
fill="none" stroke="black" stroke-width="9"/>
</g>
<g><path d="M86.13 29.2L157.3 29.2"
fill="none" stroke="black" stroke-width="3"/>
</g>
<g><path d="M86.13 29.2L113.18 20.38"
fill="none" stroke="black" stroke-width="3"/>
</g>
<g><path d="M86.13 29.2L113.18 38.02"
fill="none" stroke="black" stroke-width="3"/>
</g>
<g><path d="M313.87 29.2L242.7 29.2"
fill="none" stroke="black" stroke-width="3"/>
</g>
<g><path d="M313.87 29.2L286.82 38.02"
fill="none" stroke="black" stroke-width="3"/>
</g>
<g><path d="M313.87 29.2L286.82 20.38"
fill="none" stroke="black" stroke-width="3"/>
</g>
<g><path d="M157.3 370.8L86.13 370.8"
fill="none" stroke="black" stroke-width="3"/>
</g>
<g><path d="M157.3 370.8L130.26 379.62"
fill="none" stroke="black" stroke-width="3"/>
</g>
<g><path d="M157.3 370.8L130.26 361.98"
fill="none" stroke="black" stroke-width="3"/>
</g>
<g><path d="M242.7 370.8L313.87 370.8"
fill="none" stroke="black" stroke-width="3"/>
</g>
<g><path d="M242.7 370.8L269.74 361.98"
fill="none" stroke="black" stroke-width="3"/>
</g>
<g><path d="M242.7 370.8L269.74 379.62"
fill="none" stroke="black" stroke-width="3"/>
</g>
</g>
</svg>
