<?xml version="1.0" standalone="no"?><svg xmlns="http://www.w3.org/2000/svg" width="400.000" height="400.000" viewBox="0.0 0.0 400.000 400.000" version="1.1">
  <title>Produce by Acme CAD Converter</title>
  <desc>Produce by Acme CAD Converter</desc>
<g id="0" display="visible">
<g><path d="M0.73 239.85L100.37 239.85"
fill="none" stroke="black" stroke-width="9"/>
</g>
<g><path d="M299.63 239.85L399.27 239.85"
fill="none" stroke="black" stroke-width="9"/>
</g>
<g><path d="M100.37 289.67L100.37 190.04"
fill="none" stroke="black" stroke-width="9"/>
</g>
<g><path d="M100.37 190.04L299.63 190.04"
fill="none" stroke="black" stroke-width="9"/>
</g>
<g><path d="M299.63 190.04L299.63 289.67"
fill="none" stroke="black" stroke-width="9"/>
</g>
<g><path d="M299.63 289.67L100.37 289.67"
fill="none" stroke="black" stroke-width="9"/>
</g>
<g><path d="M200 190.04L279.71 110.33"
fill="none" stroke="black" stroke-width="9"/>
</g>
<g><path d="M219.93 190.04L218.41 182.41M218.41 182.41L214.09 175.95"
fill="none" stroke="black" stroke-width="9"/>
</g>
<g><path d="M150.18 239.85L148.29 230.32M148.29 230.32L142.89 222.24M142.89 222.24L134.81 216.84M134.81 216.84L125.27 214.95M125.27 214.95L115.74 216.84M115.74 216.84L107.66 222.24M107.66 222.24L102.26 230.32M102.26 230.32L100.37 239.85"
fill="none" stroke="black" stroke-width="9"/>
</g>
<g><path d="M150.18 239.85L152.08 249.39M152.08 249.39L157.48 257.47M157.48 257.47L165.56 262.87M165.56 262.87L175.09 264.76M175.09 264.76L184.62 262.87M184.62 262.87L192.7 257.47M192.7 257.47L198.1 249.39M198.1 249.39L200 239.85"
fill="none" stroke="black" stroke-width="9"/>
</g>
<g><path d="M249.82 239.85L247.92 230.32M247.92 230.32L242.52 222.24M242.52 222.24L234.44 216.84M234.44 216.84L224.91 214.95M224.91 214.95L215.38 216.84M215.38 216.84L207.3 222.24M207.3 222.24L201.9 230.32M201.9 230.32L200 239.85"
fill="none" stroke="black" stroke-width="9"/>
</g>
<g><path d="M249.82 239.85L251.71 249.39M251.71 249.39L257.11 257.47M257.11 257.47L265.19 262.87M265.19 262.87L274.73 264.76M274.73 264.76L284.26 262.87M284.26 262.87L292.34 257.47M292.34 257.47L297.74 249.39M297.74 249.39L299.63 239.85"
fill="none" stroke="black" stroke-width="9"/>
</g>
<g><path d="M213.28 190.04L219.07 184.25"
fill="none" stroke="black" stroke-width="3"/>
</g>
<g><path d="M206.24 190.04L216.86 179.42"
fill="none" stroke="black" stroke-width="3"/>
</g>
</g>
</svg>
