<?xml version="1.0" standalone="no"?><svg xmlns="http://www.w3.org/2000/svg" width="400.000" height="400.000" viewBox="0.0 0.0 400.000 400.000" version="1.1">
  <title>Produce by Acme CAD Converter</title>
  <desc>Produce by Acme CAD Converter</desc>
<g id="0" display="visible">
<g><path d="M29.2 200L114.6 200"
fill="none" stroke="black" stroke-width="9"/>
</g>
<g><path d="M114.6 114.6L114.6 285.4"
fill="none" stroke="black" stroke-width="9"/>
</g>
<g><path d="M114.6 57.67L114.6 0.73"
fill="none" stroke="black" stroke-width="9"/>
</g>
<g><path d="M114.6 342.33L114.6 399.27"
fill="none" stroke="black" stroke-width="9"/>
</g>
<g><path d="M114.6 114.6L124.34 112.88M124.34 112.88L132.9 107.94M132.9 107.94L139.25 100.37M139.25 100.37L142.63 91.08M142.63 91.08L142.63 81.19M142.63 81.19L139.25 71.9M139.25 71.9L132.9 64.33M132.9 64.33L124.34 59.38M124.34 59.38L114.6 57.67"
fill="none" stroke="black" stroke-width="9"/>
</g>
<g><path d="M114.6 342.33L124.34 340.62M124.34 340.62L132.9 335.67M132.9 335.67L139.25 328.1M139.25 328.1L142.63 318.81M142.63 318.81L142.63 308.92M142.63 308.92L139.25 299.63M139.25 299.63L132.9 292.06M132.9 292.06L124.34 287.12M124.34 287.12L114.6 285.4"
fill="none" stroke="black" stroke-width="9"/>
</g>
<g><path d="M114.6 0.73L285.4 0.73"
fill="none" stroke="black" stroke-width="9"/>
</g>
<g><path d="M200 0.73L200 86.13"
fill="none" stroke="black" stroke-width="9"/>
</g>
<g><path d="M285.4 200L370.8 200"
fill="none" stroke="black" stroke-width="9"/>
</g>
<g><path d="M285.4 0.73L285.4 399.27"
fill="none" stroke="black" stroke-width="9"/>
</g>
<g><path d="M200 399.27L285.4 399.27"
fill="none" stroke="black" stroke-width="9"/>
</g>
<g><path d="M200 399.27L200 313.87"
fill="none" stroke="black" stroke-width="9"/>
</g>
<g><path d="M171.53 399.27L171.53 313.87"
fill="none" stroke="black" stroke-width="9"/>
</g>
<g><path d="M171.53 399.27L114.6 399.27"
fill="none" stroke="black" stroke-width="9"/>
</g>
</g>
</svg>
