<?xml version="1.0" standalone="no"?><svg xmlns="http://www.w3.org/2000/svg" width="400.000" height="400.000" viewBox="0.0 0.0 400.000 400.000" version="1.1">
  <title>Produce by Acme CAD Converter</title>
  <desc>Produce by Acme CAD Converter</desc>
<g id="0" display="visible">
<g><path d="M177.01 131.02L178.88 119.18M178.88 119.18L184.33 108.5M184.33 108.5L192.8 100.02M192.8 100.02L203.49 94.58M203.49 94.58L215.33 92.7M215.33 92.7L227.17 94.58M227.17 94.58L237.85 100.02M237.85 100.02L246.33 108.5M246.33 108.5L251.77 119.18M251.77 119.18L253.65 131.02M253.65 131.02L251.77 142.86M251.77 142.86L246.33 153.55M246.33 153.55L237.85 162.03M237.85 162.03L227.17 167.47M227.17 167.47L215.33 169.34M215.33 169.34L203.49 167.47M203.49 167.47L192.8 162.03M192.8 162.03L184.33 153.55M184.33 153.55L178.88 142.86M178.88 142.86L177.01 131.02"
fill="none" stroke="black" stroke-width="9"/>
</g>
<g><path d="M177.01 268.98L178.88 257.14M178.88 257.14L184.33 246.45M184.33 246.45L192.8 237.97M192.8 237.97L203.49 232.53M203.49 232.53L215.33 230.66M215.33 230.66L227.17 232.53M227.17 232.53L237.85 237.97M237.85 237.97L246.33 246.45M246.33 246.45L251.77 257.14M251.77 257.14L253.65 268.98M253.65 268.98L251.77 280.82M251.77 280.82L246.33 291.5M246.33 291.5L237.85 299.98M237.85 299.98L227.17 305.42M227.17 305.42L215.33 307.3M215.33 307.3L203.49 305.42M203.49 305.42L192.8 299.98M192.8 299.98L184.33 291.5M184.33 291.5L178.88 280.82M178.88 280.82L177.01 268.98"
fill="none" stroke="black" stroke-width="9"/>
</g>
<g><path d="M31.39 169.34L399.27 169.34"
fill="none" stroke="black" stroke-width="9"/>
</g>
<g><path d="M0.73 230.66L368.61 230.66"
fill="none" stroke="black" stroke-width="9"/>
</g>
<g><path d="M161.68 131.02L268.98 131.02"
fill="none" stroke="black" stroke-width="3"/>
</g>
<g><path d="M161.68 268.98L268.98 268.98"
fill="none" stroke="black" stroke-width="3"/>
</g>
<g><path d="M31.39 169.34L31.4 169.95M31.4 169.95L31.41 170.55M31.41 170.55L31.4 171.15M31.4 171.15L31.39 171.74M31.39 171.74L31.37 172.33M31.37 172.33L31.34 172.91M31.34 172.91L31.31 173.49M31.31 173.49L31.26 174.07M31.26 174.07L31.21 174.64M31.21 174.64L31.15 175.21M31.15 175.21L31.08 175.78M31.08 175.78L31.01 176.34M31.01 176.34L30.92 176.89M30.92 176.89L30.83 177.45M30.83 177.45L30.73 178M30.73 178L30.62 178.54M30.62 178.54L30.51 179.08M30.51 179.08L30.38 179.62M30.38 179.62L30.25 180.15M30.25 180.15L30.11 180.68M30.11 180.68L29.96 181.2M29.96 181.2L29.81 181.73M29.81 181.73L29.65 182.24M29.65 182.24L29.47 182.76M29.47 182.76L29.29 183.26M29.29 183.26L29.11 183.77M29.11 183.77L28.91 184.27M28.91 184.27L28.71 184.77M28.71 184.77L28.5 185.26M28.5 185.26L28.28 185.75M28.28 185.75L28.05 186.23M28.05 186.23L27.81 186.72M27.81 186.72L27.57 187.19M27.57 187.19L27.32 187.67M27.32 187.67L27.06 188.13M27.06 188.13L26.79 188.6M26.79 188.6L26.52 189.06M26.52 189.06L26.23 189.52M26.23 189.52L25.94 189.97M25.94 189.97L25.64 190.42M25.64 190.42L25.33 190.86M25.33 190.86L25.02 191.31M25.02 191.31L24.7 191.74M24.7 191.74L24.36 192.18M24.36 192.18L24.02 192.61M24.02 192.61L23.68 193.03M23.68 193.03L23.32 193.45M23.32 193.45L22.96 193.87M22.96 193.87L22.59 194.28M22.59 194.28L22.21 194.69M22.21 194.69L21.82 195.1M21.82 195.1L21.43 195.5M21.43 195.5L21.02 195.89M21.02 195.89L20.61 196.29M20.61 196.29L20.19 196.68M20.19 196.68L19.77 197.06M19.77 197.06L19.33 197.44M19.33 197.44L18.89 197.82M18.89 197.82L18.44 198.19M18.44 198.19L17.98 198.56M17.98 198.56L17.51 198.93M17.51 198.93L17.04 199.29M17.04 199.29L16.55 199.65M16.55 199.65L16.06 200M16.06 200L15.57 200.35M15.57 200.35L15.09 200.71M15.09 200.71L14.61 201.07M14.61 201.07L14.15 201.44M14.15 201.44L13.69 201.81M13.69 201.81L13.24 202.18M13.24 202.18L12.79 202.56M12.79 202.56L12.36 202.94M12.36 202.94L11.93 203.32M11.93 203.32L11.51 203.71M11.51 203.71L11.1 204.11M11.1 204.11L10.7 204.5M10.7 204.5L10.3 204.9M10.3 204.9L9.91 205.31M9.91 205.31L9.54 205.72M9.54 205.72L9.16 206.13M9.16 206.13L8.8 206.55M8.8 206.55L8.45 206.97M8.45 206.97L8.1 207.39M8.1 207.39L7.76 207.82M7.76 207.82L7.43 208.26M7.43 208.26L7.1 208.69M7.1 208.69L6.79 209.14M6.79 209.14L6.48 209.58M6.48 209.58L6.18 210.03M6.18 210.03L5.89 210.48M5.89 210.48L5.61 210.94M5.61 210.94L5.33 211.4M5.33 211.4L5.06 211.87M5.06 211.87L4.8 212.33M4.8 212.33L4.55 212.81M4.55 212.81L4.31 213.28M4.31 213.28L4.07 213.77M4.07 213.77L3.85 214.25M3.85 214.25L3.63 214.74M3.63 214.74L3.42 215.23M3.42 215.23L3.21 215.73M3.21 215.73L3.02 216.23M3.02 216.23L2.83 216.74M2.83 216.74L2.65 217.24M2.65 217.24L2.48 217.76M2.48 217.76L2.31 218.27M2.31 218.27L2.16 218.8M2.16 218.8L2.01 219.32M2.01 219.32L1.87 219.85M1.87 219.85L1.74 220.38M1.74 220.38L1.62 220.92M1.62 220.92L1.5 221.46M1.5 221.46L1.39 222M1.39 222L1.29 222.55M1.29 222.55L1.2 223.11M1.2 223.11L1.12 223.66M1.12 223.66L1.04 224.22M1.04 224.22L0.97 224.79M0.97 224.79L0.91 225.36M0.91 225.36L0.86 225.93M0.86 225.93L0.82 226.51M0.82 226.51L0.78 227.09M0.78 227.09L0.75 227.67M0.75 227.67L0.73 228.26M0.73 228.26L0.72 228.85M0.72 228.85L0.72 229.45M0.72 229.45L0.72 230.05M0.72 230.05L0.73 230.66"
fill="none" stroke="black" stroke-width="3"/>
</g>
<g><path d="M399.27 169.34L399.28 169.95M399.28 169.95L399.28 170.55M399.28 170.55L399.28 171.15M399.28 171.15L399.27 171.74M399.27 171.74L399.25 172.33M399.25 172.33L399.22 172.91M399.22 172.91L399.18 173.49M399.18 173.49L399.14 174.07M399.14 174.07L399.09 174.64M399.09 174.64L399.03 175.21M399.03 175.21L398.96 175.78M398.96 175.78L398.88 176.34M398.88 176.34L398.8 176.89M398.8 176.89L398.71 177.45M398.71 177.45L398.61 178M398.61 178L398.5 178.54M398.5 178.54L398.38 179.08M398.38 179.08L398.26 179.62M398.26 179.62L398.13 180.15M398.13 180.15L397.99 180.68M397.99 180.68L397.84 181.2M397.84 181.2L397.69 181.73M397.69 181.73L397.52 182.24M397.52 182.24L397.35 182.76M397.35 182.76L397.17 183.26M397.17 183.26L396.98 183.77M396.98 183.77L396.79 184.27M396.79 184.27L396.58 184.77M396.58 184.77L396.37 185.26M396.37 185.26L396.15 185.75M396.15 185.75L395.93 186.23M395.93 186.23L395.69 186.72M395.69 186.72L395.45 187.19M395.45 187.19L395.2 187.67M395.2 187.67L394.94 188.13M394.94 188.13L394.67 188.6M394.67 188.6L394.39 189.06M394.39 189.06L394.11 189.52M394.11 189.52L393.82 189.97M393.82 189.97L393.52 190.42M393.52 190.42L393.21 190.86M393.21 190.86L392.9 191.31M392.9 191.31L392.57 191.74M392.57 191.74L392.24 192.18M392.24 192.18L391.9 192.61M391.9 192.61L391.55 193.03M391.55 193.03L391.2 193.45M391.2 193.45L390.84 193.87M390.84 193.87L390.46 194.28M390.46 194.28L390.09 194.69M390.09 194.69L389.7 195.1M389.7 195.1L389.3 195.5M389.3 195.5L388.9 195.89M388.9 195.89L388.49 196.29M388.49 196.29L388.07 196.68M388.07 196.68L387.64 197.06M387.64 197.06L387.21 197.44M387.21 197.44L386.76 197.82M386.76 197.82L386.31 198.19M386.31 198.19L385.85 198.56M385.85 198.56L385.39 198.93M385.39 198.93L384.91 199.29M384.91 199.29L384.43 199.65M384.43 199.65L383.94 200M383.94 200L383.45 200.35M383.45 200.35L382.96 200.71M382.96 200.71L382.49 201.07M382.49 201.07L382.02 201.44M382.02 201.44L381.56 201.81M381.56 201.81L381.11 202.18M381.11 202.18L380.67 202.56M380.67 202.56L380.23 202.94M380.23 202.94L379.81 203.32M379.81 203.32L379.39 203.71M379.39 203.71L378.98 204.11M378.98 204.11L378.57 204.5M378.57 204.5L378.18 204.9M378.18 204.9L377.79 205.31M377.79 205.31L377.41 205.72M377.41 205.72L377.04 206.13M377.04 206.13L376.68 206.55M376.68 206.55L376.32 206.97M376.32 206.97L375.98 207.39M375.98 207.39L375.64 207.82M375.64 207.82L375.3 208.26M375.3 208.26L374.98 208.69M374.98 208.69L374.67 209.14M374.67 209.14L374.36 209.58M374.36 209.58L374.06 210.03M374.06 210.03L373.77 210.48M373.77 210.48L373.48 210.94M373.48 210.94L373.21 211.4M373.21 211.4L372.94 211.87M372.94 211.87L372.68 212.33M372.68 212.33L372.43 212.81M372.43 212.81L372.19 213.28M372.19 213.28L371.95 213.77M371.95 213.77L371.72 214.25M371.72 214.25L371.5 214.74M371.5 214.74L371.29 215.23M371.29 215.23L371.09 215.73M371.09 215.73L370.89 216.23M370.89 216.23L370.71 216.74M370.71 216.74L370.53 217.24M370.53 217.24L370.35 217.76M370.35 217.76L370.19 218.27M370.19 218.27L370.04 218.8M370.04 218.8L369.89 219.32M369.89 219.32L369.75 219.85M369.75 219.85L369.62 220.38M369.62 220.38L369.49 220.92M369.49 220.92L369.38 221.46M369.38 221.46L369.27 222M369.27 222L369.17 222.55M369.17 222.55L369.08 223.11M369.08 223.11L368.99 223.66M368.99 223.66L368.92 224.22M368.92 224.22L368.85 224.79M368.85 224.79L368.79 225.36M368.79 225.36L368.74 225.93M368.74 225.93L368.69 226.51M368.69 226.51L368.66 227.09M368.66 227.09L368.63 227.67M368.63 227.67L368.61 228.26M368.61 228.26L368.6 228.85M368.6 228.85L368.59 229.45M368.59 229.45L368.6 230.05M368.6 230.05L368.61 230.66"
fill="none" stroke="black" stroke-width="3"/>
</g>
<g><path d="M215.33 77.37L215.33 169.34"
fill="none" stroke="black" stroke-width="3"/>
</g>
<g><path d="M215.33 230.66L215.33 322.63"
fill="none" stroke="black" stroke-width="3"/>
</g>
<g><path d="M256.46 151.59L260.47 139.76M260.47 139.76L261.16 127.29M261.16 127.29L258.47 115.09M258.47 115.09L252.59 104.07M252.59 104.07L243.96 95.04"
fill="none" stroke="black" stroke-width="3"/>
</g>
<g><path d="M243.96 304.96L252.59 295.93M252.59 295.93L258.47 284.91M258.47 284.91L261.16 272.71M261.16 272.71L260.47 260.24M260.47 260.24L256.46 248.41"
fill="none" stroke="black" stroke-width="3"/>
</g>
<g><path d="M46.72 154.02L138.69 154.02"
fill="none" stroke="black" stroke-width="3"/>
</g>
<g><path d="M46.72 154.02L75.84 144.51"
fill="none" stroke="black" stroke-width="3"/>
</g>
<g><path d="M46.72 154.02L75.84 163.52"
fill="none" stroke="black" stroke-width="3"/>
</g>
<g><path d="M276.64 161.68L275.11 131.02"
fill="none" stroke="black" stroke-width="3"/>
</g>
<g><path d="M276.64 161.68L293.35 135.93"
fill="none" stroke="black" stroke-width="3"/>
</g>
<g><path d="M276.64 238.32L293.35 264.07"
fill="none" stroke="black" stroke-width="3"/>
</g>
<g><path d="M276.64 238.32L275.11 268.98"
fill="none" stroke="black" stroke-width="3"/>
</g>
</g>
</svg>
