<?xml version="1.0" standalone="no"?><svg xmlns="http://www.w3.org/2000/svg" width="400.000" height="400.000" viewBox="0.0 0.0 400.000 400.000" version="1.1">
  <title>Produce by Acme CAD Converter</title>
  <desc>Produce by Acme CAD Converter</desc>
<g id="0" display="visible">
<g><path d="M140.31 188.32L155.41 205.94M155.41 205.94L173.27 220.76M173.27 220.76L193.36 232.37M193.36 232.37L215.12 240.43M215.12 240.43L237.93 244.72"
fill="none" stroke="black" stroke-width="3"/>
</g>
<g><path d="M88.91 142.74L96.06 167.03M96.06 167.03L106.81 189.95M106.81 189.95L120.9 210.98M120.9 210.98L138.02 229.63M138.02 229.63L157.77 245.47M157.77 245.47L179.69 258.13M179.69 258.13L203.28 267.33M203.28 267.33L227.98 272.84M227.98 272.84L253.24 274.55M253.24 274.55L278.47 272.41M278.47 272.41L303.08 266.47"
fill="none" stroke="black" stroke-width="9"/>
</g>
<g><path d="M140.22 188.39L163.99 202.13"
fill="none" stroke="black" stroke-width="3"/>
</g>
<g><path d="M140.22 188.39L151.35 213.54"
fill="none" stroke="black" stroke-width="3"/>
</g>
<g><path d="M237.93 244.73L210.58 247.62"
fill="none" stroke="black" stroke-width="3"/>
</g>
<g><path d="M237.93 244.73L214.15 230.99"
fill="none" stroke="black" stroke-width="3"/>
</g>
<g><path d="M88.82 142.76L303.07 266.45"
fill="none" stroke="black" stroke-width="9"/>
</g>
<g><path d="M88.82 142.76L303.07 266.45"
fill="none" stroke="black" stroke-width="9"/>
</g>
<g><path d="M196.01 204.6L264.73 85.59"
fill="none" stroke="black" stroke-width="9"/>
</g>
<g><path d="M155.2 165.3L190.93 185.91"
fill="none" stroke="black" stroke-width="9"/>
</g>
<g><path d="M190.93 185.91L225.29 126.41"
fill="none" stroke="black" stroke-width="9"/>
</g>
<g><path d="M250.44 220.27L214.7 199.66"
fill="none" stroke="black" stroke-width="9"/>
</g>
<g><path d="M214.7 199.66L249.06 140.15"
fill="none" stroke="black" stroke-width="9"/>
</g>
<g><path d="M258.96 233.05L307.05 149.77"
fill="none" stroke="black" stroke-width="9"/>
</g>
<g><path d="M270.77 239.92L265.83 221.09"
fill="none" stroke="black" stroke-width="3"/>
</g>
<g><path d="M289.6 234.84L279.57 197.32"
fill="none" stroke="black" stroke-width="3"/>
</g>
<g><path d="M303.34 211.06L293.31 173.55"
fill="none" stroke="black" stroke-width="3"/>
</g>
<g><path d="M317.09 187.29L307.05 149.77"
fill="none" stroke="black" stroke-width="3"/>
</g>
<g><path d="M265.83 221.09L248.24 178.49"
fill="none" stroke="black" stroke-width="9"/>
</g>
<g><path d="M300.18 161.59L254.42 167.64"
fill="none" stroke="black" stroke-width="9"/>
</g>
<g><path d="M233.94 169.01L235.58 163.44M235.58 163.44L239.97 159.64M239.97 159.64L245.72 158.81M245.72 158.81L251 161.22M251 161.22L254.14 166.11M254.14 166.11L254.14 171.91M254.14 171.91L251 176.8M251 176.8L245.72 179.21M245.72 179.21L239.97 178.39M239.97 178.39L235.58 174.58M235.58 174.58L233.94 169.01"
fill="none" stroke="black" stroke-width="9"/>
</g>
<g><path d="M112.6 156.5L146.95 97"
fill="none" stroke="black" stroke-width="3"/>
</g>
<g><path d="M112.6 156.5L118.37 129.57"
fill="none" stroke="black" stroke-width="3"/>
</g>
<g><path d="M112.6 156.5L133.07 138.09"
fill="none" stroke="black" stroke-width="3"/>
</g>
<g><path d="M279.29 252.7L313.65 193.2"
fill="none" stroke="black" stroke-width="3"/>
</g>
<g><path d="M279.29 252.7L284.93 225.77"
fill="none" stroke="black" stroke-width="3"/>
</g>
<g><path d="M279.29 252.7L299.63 234.29"
fill="none" stroke="black" stroke-width="3"/>
</g>
<g><path d="M0.73 293.79L96.93 293.79"
fill="none" stroke="black" stroke-width="9"/>
</g>
<g><path d="M303.07 293.79L399.27 293.79"
fill="none" stroke="black" stroke-width="9"/>
</g>
<g><path d="M96.93 273.18L96.93 314.41"
fill="none" stroke="black" stroke-width="9"/>
</g>
<g><path d="M303.07 273.18L303.07 314.41"
fill="none" stroke="black" stroke-width="9"/>
</g>
<g><path d="M96.93 273.18L303.07 273.18"
fill="none" stroke="black" stroke-width="9"/>
</g>
<g><path d="M96.93 314.41L303.07 314.41"
fill="none" stroke="black" stroke-width="9"/>
</g>
<g><path d="M189.69 283.49L200 293.79"
fill="none" stroke="black" stroke-width="3"/>
</g>
<g><path d="M200 293.79L210.31 304.1"
fill="none" stroke="black" stroke-width="3"/>
</g>
<g><path d="M210.31 283.49L189.69 304.1"
fill="none" stroke="black" stroke-width="3"/>
</g>
</g>
</svg>
