<?xml version="1.0" standalone="no"?><svg xmlns="http://www.w3.org/2000/svg" width="400.000" height="400.000" viewBox="0.0 0.0 400.000 400.000" version="1.1">
  <title>Produce by Acme CAD Converter</title>
  <desc>Produce by Acme CAD Converter</desc>
<g id="0" display="visible">
<g><path d="M20.27 188.76L12.54 190.13M12.54 190.13L5.75 194.08M5.75 194.08L0.73 200.12"
fill="none" stroke="black" stroke-width="9"/>
</g>
<g><path d="M31.38 191.7L26.01 189.51M26.01 189.51L20.27 188.76"
fill="none" stroke="black" stroke-width="9"/>
</g>
<g><path d="M60.51 208.3L65.87 210.49M65.87 210.49L71.62 211.24"
fill="none" stroke="black" stroke-width="9"/>
</g>
<g><path d="M31.39 191.68L60.49 208.32"
fill="none" stroke="black" stroke-width="9"/>
</g>
<g><path d="M71.62 211.24L77.37 210.49M77.37 210.49L82.73 208.3"
fill="none" stroke="black" stroke-width="9"/>
</g>
<g><path d="M122.97 188.76L117.22 189.51M117.22 189.51L111.86 191.7"
fill="none" stroke="black" stroke-width="9"/>
</g>
<g><path d="M82.74 208.32L111.85 191.68"
fill="none" stroke="black" stroke-width="9"/>
</g>
<g><path d="M134.09 191.7L128.72 189.51M128.72 189.51L122.97 188.76"
fill="none" stroke="black" stroke-width="9"/>
</g>
<g><path d="M163.21 208.3L168.58 210.49M168.58 210.49L174.32 211.24"
fill="none" stroke="black" stroke-width="9"/>
</g>
<g><path d="M134.1 191.68L163.2 208.32"
fill="none" stroke="black" stroke-width="9"/>
</g>
<g><path d="M174.32 211.24L180.07 210.49M180.07 210.49L185.44 208.3"
fill="none" stroke="black" stroke-width="9"/>
</g>
<g><path d="M225.68 188.76L219.93 189.51M219.93 189.51L214.56 191.7"
fill="none" stroke="black" stroke-width="9"/>
</g>
<g><path d="M185.45 208.32L214.55 191.68"
fill="none" stroke="black" stroke-width="9"/>
</g>
<g><path d="M236.79 191.7L231.42 189.51M231.42 189.51L225.68 188.76"
fill="none" stroke="black" stroke-width="9"/>
</g>
<g><path d="M265.91 208.3L271.28 210.49M271.28 210.49L277.03 211.24"
fill="none" stroke="black" stroke-width="9"/>
</g>
<g><path d="M236.8 191.68L265.9 208.32"
fill="none" stroke="black" stroke-width="9"/>
</g>
<g><path d="M277.03 211.24L282.78 210.49M282.78 210.49L288.14 208.3"
fill="none" stroke="black" stroke-width="9"/>
</g>
<g><path d="M328.38 188.76L322.63 189.51M322.63 189.51L317.27 191.7"
fill="none" stroke="black" stroke-width="9"/>
</g>
<g><path d="M288.15 208.32L317.26 191.68"
fill="none" stroke="black" stroke-width="9"/>
</g>
<g><path d="M339.49 191.7L334.13 189.51M334.13 189.51L328.38 188.76"
fill="none" stroke="black" stroke-width="9"/>
</g>
<g><path d="M368.62 208.3L373.99 210.49M373.99 210.49L379.73 211.24"
fill="none" stroke="black" stroke-width="9"/>
</g>
<g><path d="M339.51 191.68L368.61 208.32"
fill="none" stroke="black" stroke-width="9"/>
</g>
<g><path d="M379.73 211.24L387.46 209.87M387.46 209.87L394.25 205.92M394.25 205.92L399.27 199.88"
fill="none" stroke="black" stroke-width="9"/>
</g>
</g>
</svg>
