<?xml version="1.0" standalone="no"?><svg xmlns="http://www.w3.org/2000/svg" width="400.000" height="400.000" viewBox="0.0 0.0 400.000 400.000" version="1.1">
  <title>Produce by Acme CAD Converter</title>
  <desc>Produce by Acme CAD Converter</desc>
<g id="0" display="visible">
<g><path d="M337.95 175.91L339.8 165.42M339.8 165.42L345.13 156.2M345.13 156.2L353.28 149.36M353.28 149.36L363.29 145.72M363.29 145.72L373.93 145.72M373.93 145.72L383.94 149.36M383.94 149.36L392.09 156.2M392.09 156.2L397.42 165.42M397.42 165.42L399.27 175.91M399.27 175.91L397.42 186.39M397.42 186.39L392.09 195.61M392.09 195.61L383.94 202.46M383.94 202.46L373.93 206.1M373.93 206.1L363.29 206.1M363.29 206.1L353.28 202.46M353.28 202.46L345.13 195.61M345.13 195.61L339.8 186.39M339.8 186.39L337.95 175.91"
fill="none" stroke="black" stroke-width="9"/>
</g>
<g><path d="M337.95 175.91L169.34 175.91"
fill="none" stroke="black" stroke-width="9"/>
</g>
<g><path d="M169.34 226.24L169.34 175.91"
fill="none" stroke="black" stroke-width="9"/>
</g>
<g><path d="M77.37 226.24L77.37 175.91"
fill="none" stroke="black" stroke-width="9"/>
</g>
<g><path d="M77.37 175.91L169.34 175.91"
fill="none" stroke="black" stroke-width="9"/>
</g>
<g><path d="M245.98 254.75L220.5 241.95M220.5 241.95L193.7 232.19M193.7 232.19L165.95 225.62M165.95 225.62L137.62 222.31M137.62 222.31L109.1 222.31M109.1 222.31L80.77 225.62M80.77 225.62L53.02 232.19M53.02 232.19L26.22 241.95M26.22 241.95L0.73 254.75"
fill="none" stroke="black" stroke-width="9"/>
</g>
</g>
</svg>
