<?xml version="1.0" standalone="no"?><svg xmlns="http://www.w3.org/2000/svg" width="400.000" height="400.000" viewBox="0.0 0.0 400.000 400.000" version="1.1">
  <title>Produce by Acme CAD Converter</title>
  <desc>Produce by Acme CAD Converter</desc>
<g id="0" display="visible">
<g><path d="M133.81 55.66L190.99 88.58"
fill="none" stroke="black" stroke-width="9"/>
</g>
<g><path d="M233.44 113.19L290.62 146.11"
fill="none" stroke="black" stroke-width="9"/>
</g>
<g><path d="M107.3 108.51L258.05 195.49"
fill="none" stroke="black" stroke-width="9"/>
</g>
<g><path d="M209.88 107.82L286.64 0.73"
fill="none" stroke="black" stroke-width="9"/>
</g>
<g><path d="M182.67 122.03L184.39 114.51M184.39 114.51L189.2 108.48M189.2 108.48L196.14 105.13M196.14 105.13L203.86 105.13M203.86 105.13L210.8 108.48M210.8 108.48L215.61 114.51M215.61 114.51L217.33 122.03M217.33 122.03L215.61 129.54M215.61 129.54L210.8 135.57M210.8 135.57L203.86 138.92M203.86 138.92L196.14 138.92M196.14 138.92L189.2 135.57M189.2 135.57L184.39 129.54M184.39 129.54L182.67 122.03"
fill="none" stroke="black" stroke-width="9"/>
</g>
<g><path d="M150.22 42.59L135.48 54.02M135.48 54.02L123.29 68.15M123.29 68.15L114.14 84.41M114.14 84.41L108.39 102.16M108.39 102.16L106.27 120.7M106.27 120.7L107.86 139.29M107.86 139.29L113.11 157.2M113.11 157.2L121.8 173.71M121.8 173.71L133.58 188.18M133.58 188.18L148 200.02"
fill="none" stroke="black" stroke-width="9"/>
</g>
<g><path d="M252 200.02L265.69 188.9M265.69 188.9L277.06 175.41M277.06 175.41L285.69 160.03M285.69 160.03L291.3 143.3M291.3 143.3L293.67 125.82M293.67 125.82L292.72 108.21M292.72 108.21L288.49 91.08M288.49 91.08L281.12 75.05"
fill="none" stroke="black" stroke-width="9"/>
</g>
<g><path d="M233.51 113.17L229.11 103.22M229.11 103.22L221.85 95.13M221.85 95.13L212.44 89.68M212.44 89.68L201.8 87.42M201.8 87.42L190.98 88.56"
fill="none" stroke="black" stroke-width="9"/>
</g>
<g><path d="M133.81 344.34L190.99 311.42"
fill="none" stroke="black" stroke-width="9"/>
</g>
<g><path d="M233.44 286.81L290.62 253.89"
fill="none" stroke="black" stroke-width="9"/>
</g>
<g><path d="M107.3 291.49L258.05 204.51"
fill="none" stroke="black" stroke-width="9"/>
</g>
<g><path d="M209.88 292.18L286.64 399.27"
fill="none" stroke="black" stroke-width="9"/>
</g>
<g><path d="M182.67 277.97L184.39 270.46M184.39 270.46L189.2 264.43M189.2 264.43L196.14 261.08M196.14 261.08L203.86 261.08M203.86 261.08L210.8 264.43M210.8 264.43L215.61 270.46M215.61 270.46L217.33 277.97M217.33 277.97L215.61 285.49M215.61 285.49L210.8 291.52M210.8 291.52L203.86 294.87M203.86 294.87L196.14 294.87M196.14 294.87L189.2 291.52M189.2 291.52L184.39 285.49M184.39 285.49L182.67 277.97"
fill="none" stroke="black" stroke-width="9"/>
</g>
<g><path d="M148 199.98L133.58 211.82M133.58 211.82L121.8 226.29M121.8 226.29L113.11 242.8M113.11 242.8L107.86 260.71M107.86 260.71L106.27 279.3M106.27 279.3L108.39 297.84M108.39 297.84L114.14 315.59M114.14 315.59L123.29 331.85M123.29 331.85L135.48 345.98M135.48 345.98L150.22 357.41"
fill="none" stroke="black" stroke-width="9"/>
</g>
<g><path d="M281.12 324.95L288.49 308.92M288.49 308.92L292.72 291.79M292.72 291.79L293.67 274.18M293.67 274.18L291.3 256.7M291.3 256.7L285.69 239.97M285.69 239.97L277.06 224.59M277.06 224.59L265.69 211.1M265.69 211.1L252 199.98"
fill="none" stroke="black" stroke-width="9"/>
</g>
<g><path d="M190.98 311.44L201.8 312.58M201.8 312.58L212.44 310.32M212.44 310.32L221.85 304.87M221.85 304.87L229.11 296.78M229.11 296.78L233.51 286.83"
fill="none" stroke="black" stroke-width="9"/>
</g>
<g><path d="M9.4 200L148.02 200"
fill="none" stroke="black" stroke-width="9"/>
</g>
<g><path d="M251.98 200L390.6 200"
fill="none" stroke="black" stroke-width="9"/>
</g>
</g>
</svg>
