<?xml version="1.0" standalone="no"?><svg xmlns="http://www.w3.org/2000/svg" width="400.000" height="400.000" viewBox="0.0 0.0 400.000 400.000" version="1.1">
  <title>Produce by Acme CAD Converter</title>
  <desc>Produce by Acme CAD Converter</desc>
<g id="0" display="visible">
<g><path d="M133.58 200L0.73 332.84"
fill="none" stroke="black" stroke-width="9"/>
</g>
<g><path d="M133.58 200L133.58 67.16"
fill="none" stroke="black" stroke-width="9"/>
</g>
<g><path d="M133.58 67.16L399.27 67.16"
fill="none" stroke="black" stroke-width="9"/>
</g>
<g><path d="M399.27 67.16L399.27 200"
fill="none" stroke="black" stroke-width="9"/>
</g>
<g><path d="M399.27 200L133.58 200"
fill="none" stroke="black" stroke-width="9"/>
</g>
<g><path d="M133.58 166.79L122.61 168.65M122.61 168.65L112.87 174.03M112.87 174.03L105.46 182.33M105.46 182.33L101.2 192.61M101.2 192.61L100.58 203.72M100.58 203.72L103.66 214.41M103.66 214.41L110.09 223.48"
fill="none" stroke="black" stroke-width="9"/>
</g>
<g><path d="M183.39 133.58L185.24 120.14M185.24 120.14L190.65 107.69M190.65 107.69L199.21 97.17M199.21 97.17L210.29 89.35M210.29 89.35L223.08 84.8M223.08 84.8L236.61 83.88M236.61 83.88L249.89 86.64M249.89 86.64L261.94 92.88M261.94 92.88L271.85 102.14M271.85 102.14L278.9 113.73M278.9 113.73L282.56 126.79M282.56 126.79L282.56 140.36M282.56 140.36L278.9 153.42M278.9 153.42L271.85 165.02M271.85 165.02L261.94 174.28M261.94 174.28L249.89 180.52M249.89 180.52L236.61 183.28M236.61 183.28L223.08 182.35M223.08 182.35L210.29 177.81M210.29 177.81L199.21 169.99M199.21 169.99L190.65 159.46M190.65 159.46L185.24 147.02M185.24 147.02L183.39 133.58"
fill="none" stroke="black" stroke-width="9"/>
</g>
<g><path d="M399.27 332.84L265.1 171.85"
fill="none" stroke="black" stroke-width="9"/>
</g>
<g><path d="M286.36 197.36L293.28 189.42M293.28 189.42L297.37 179.72M297.37 179.72L298.21 169.22M298.21 169.22L295.72 158.99M295.72 158.99L290.16 150.05M290.16 150.05L282.07 143.3"
fill="none" stroke="black" stroke-width="9"/>
</g>
<g><path d="M106.41 219.11L133.58 191.95"
fill="none" stroke="black" stroke-width="3"/>
</g>
<g><path d="M103.05 213.08L133.58 182.55"
fill="none" stroke="black" stroke-width="3"/>
</g>
<g><path d="M100.89 205.85L133.58 173.16"
fill="none" stroke="black" stroke-width="3"/>
</g>
<g><path d="M100.52 196.82L130.4 166.94"
fill="none" stroke="black" stroke-width="3"/>
</g>
<g><path d="M105.19 182.75L116.33 171.62"
fill="none" stroke="black" stroke-width="3"/>
</g>
<g><path d="M133.58 172L128.73 167.15"
fill="none" stroke="black" stroke-width="3"/>
</g>
<g><path d="M133.58 181.39L121.32 169.13"
fill="none" stroke="black" stroke-width="3"/>
</g>
<g><path d="M133.58 190.78L115.16 172.36"
fill="none" stroke="black" stroke-width="3"/>
</g>
<g><path d="M133.49 200.09L110.01 176.6"
fill="none" stroke="black" stroke-width="3"/>
</g>
<g><path d="M128.79 204.78L105.8 181.79"
fill="none" stroke="black" stroke-width="3"/>
</g>
<g><path d="M124.1 209.48L102.61 188"
fill="none" stroke="black" stroke-width="3"/>
</g>
<g><path d="M119.4 214.18L100.68 195.46"
fill="none" stroke="black" stroke-width="3"/>
</g>
<g><path d="M114.7 218.88L100.73 204.9"
fill="none" stroke="black" stroke-width="3"/>
</g>
<g><path d="M282.77 193.05L297.72 178.1"
fill="none" stroke="black" stroke-width="3"/>
</g>
<g><path d="M278.5 187.93L298.12 168.3"
fill="none" stroke="black" stroke-width="3"/>
</g>
<g><path d="M274.23 182.8L296.37 160.66"
fill="none" stroke="black" stroke-width="3"/>
</g>
<g><path d="M269.96 177.68L293.31 154.32"
fill="none" stroke="black" stroke-width="3"/>
</g>
<g><path d="M265.69 172.55L289.23 149.02"
fill="none" stroke="black" stroke-width="3"/>
</g>
<g><path d="M280.91 147.94L284.19 144.67"
fill="none" stroke="black" stroke-width="3"/>
</g>
<g><path d="M290.46 150.4L286.55 146.49"
fill="none" stroke="black" stroke-width="3"/>
</g>
<g><path d="M298.01 167.34L280.35 149.69"
fill="none" stroke="black" stroke-width="3"/>
</g>
<g><path d="M297.96 176.69L277.55 156.28"
fill="none" stroke="black" stroke-width="3"/>
</g>
<g><path d="M295.97 184.09L274.02 162.14"
fill="none" stroke="black" stroke-width="3"/>
</g>
<g><path d="M292.74 190.26L269.83 167.35"
fill="none" stroke="black" stroke-width="3"/>
</g>
<g><path d="M288.5 195.41L265.92 172.83"
fill="none" stroke="black" stroke-width="3"/>
</g>
</g>
</svg>
