<?xml version="1.0" standalone="no"?><svg xmlns="http://www.w3.org/2000/svg" width="400.000" height="400.000" viewBox="0.0 0.0 400.000 400.000" version="1.1">
  <title>Produce by Acme CAD Converter</title>
  <desc>Produce by Acme CAD Converter</desc>
<g id="0" display="visible">
<g><path d="M0.73 133.58L146.76 188.34"
fill="none" stroke="black" stroke-width="9"/>
</g>
<g><path d="M144.65 200L146.45 189.22M146.45 189.22L151.65 179.6M151.65 179.6L159.69 172.2M159.69 172.2L169.71 167.81M169.71 167.81L180.6 166.9M180.6 166.9L191.2 169.59M191.2 169.59L200.35 175.57M200.35 175.57L207.07 184.19M207.07 184.19L210.62 194.53M210.62 194.53L210.62 205.47M210.62 205.47L207.07 215.81M207.07 215.81L200.35 224.43M200.35 224.43L191.2 230.41M191.2 230.41L180.6 233.1M180.6 233.1L169.71 232.19M169.71 232.19L159.69 227.8M159.69 227.8L151.65 220.4M151.65 220.4L146.45 210.78M146.45 210.78L144.65 200"
fill="none" stroke="black" stroke-width="9"/>
</g>
<g><path d="M161 171.38L153.65 167.3M153.65 167.3L145.31 166.25M145.31 166.25L137.18 168.38M137.18 168.38L130.43 173.39M130.43 173.39L126.03 180.56"
fill="none" stroke="black" stroke-width="9"/>
</g>
<g><path d="M399.27 200L244.28 200"
fill="none" stroke="black" stroke-width="9"/>
</g>
<g><path d="M120.34 233.21L129.55 245.58M129.55 245.58L141.36 255.49M141.36 255.49L155.14 262.42M155.14 262.42L170.15 265.97M170.15 265.97L185.57 265.97M185.57 265.97L200.58 262.42M200.58 262.42L214.36 255.49M214.36 255.49L226.17 245.58M226.17 245.58L235.38 233.21M235.38 233.21L241.49 219.05M241.49 219.05L244.17 203.86M244.17 203.86L243.27 188.47M243.27 188.47L238.85 173.69M238.85 173.69L231.14 160.34M231.14 160.34L220.55 149.12M220.55 149.12L207.67 140.64M207.67 140.64L193.18 135.37M193.18 135.37L177.86 133.58"
fill="none" stroke="black" stroke-width="9"/>
</g>
<g><path d="M266.42 200L265.1 192.46M265.1 192.46L261.28 185.82M261.28 185.82L255.43 180.87M255.43 180.87L248.25 178.22M248.25 178.22L240.59 178.17"
fill="none" stroke="black" stroke-width="9"/>
</g>
<g><path d="M146.41 188.2L147.08 187.53"
fill="none" stroke="black" stroke-width="3"/>
</g>
<g><path d="M141.85 186.5L158.67 169.67"
fill="none" stroke="black" stroke-width="3"/>
</g>
<g><path d="M137.3 184.79L154.49 167.59"
fill="none" stroke="black" stroke-width="3"/>
</g>
<g><path d="M132.74 183.08L149.46 166.36"
fill="none" stroke="black" stroke-width="3"/>
</g>
<g><path d="M128.19 181.37L143.05 166.51"
fill="none" stroke="black" stroke-width="3"/>
</g>
<g><path d="M160.49 171.69L158.13 169.34"
fill="none" stroke="black" stroke-width="3"/>
</g>
<g><path d="M156.83 174.3L148.82 166.29"
fill="none" stroke="black" stroke-width="3"/>
</g>
<g><path d="M153.59 177.33L142.82 166.55"
fill="none" stroke="black" stroke-width="3"/>
</g>
<g><path d="M150.78 180.77L138.01 168"
fill="none" stroke="black" stroke-width="3"/>
</g>
<g><path d="M148.4 184.66L133.99 170.25"
fill="none" stroke="black" stroke-width="3"/>
</g>
<g><path d="M145.25 187.77L130.64 173.16"
fill="none" stroke="black" stroke-width="3"/>
</g>
<g><path d="M135.23 184.02L127.92 176.71"
fill="none" stroke="black" stroke-width="3"/>
</g>
<g><path d="M266.12 200L266.42 199.7"
fill="none" stroke="black" stroke-width="3"/>
</g>
<g><path d="M259.86 200L265.65 194.21"
fill="none" stroke="black" stroke-width="3"/>
</g>
<g><path d="M253.59 200L263.89 189.71"
fill="none" stroke="black" stroke-width="3"/>
</g>
<g><path d="M247.33 200L261.39 185.94"
fill="none" stroke="black" stroke-width="3"/>
</g>
<g><path d="M244.21 196.86L258.25 182.82"
fill="none" stroke="black" stroke-width="3"/>
</g>
<g><path d="M243.69 191.12L254.47 180.34"
fill="none" stroke="black" stroke-width="3"/>
</g>
<g><path d="M242.75 185.8L249.95 178.6"
fill="none" stroke="black" stroke-width="3"/>
</g>
<g><path d="M241.45 180.83L244.42 177.86"
fill="none" stroke="black" stroke-width="3"/>
</g>
<g><path d="M266.02 195.82L248.46 178.26"
fill="none" stroke="black" stroke-width="3"/>
</g>
<g><path d="M263.94 200L241.92 177.99"
fill="none" stroke="black" stroke-width="3"/>
</g>
<g><path d="M257.68 200L242.53 184.85"
fill="none" stroke="black" stroke-width="3"/>
</g>
<g><path d="M251.42 200L243.85 192.43"
fill="none" stroke="black" stroke-width="3"/>
</g>
<g><path d="M245.15 200L244.28 199.12"
fill="none" stroke="black" stroke-width="3"/>
</g>
</g>
</svg>
