<?xml version="1.0" standalone="no"?><svg xmlns="http://www.w3.org/2000/svg" width="400.000" height="400.000" viewBox="0.0 0.0 400.000 400.000" version="1.1">
  <title>Produce by Acme CAD Converter</title>
  <desc>Produce by Acme CAD Converter</desc>
<g id="0" display="visible">
<g><path d="M0.73 318.12L124 246.96"
fill="none" stroke="black" stroke-width="9"/>
</g>
<g><path d="M139.63 188.63L130.07 196.14M130.07 196.14L123.02 206.04M123.02 206.04L119.05 217.53M119.05 217.53L118.47 229.67M118.47 229.67L121.34 241.48M121.34 241.48L127.41 252M127.41 252L136.21 260.39M136.21 260.39L147.01 265.96M147.01 265.96L158.95 268.26M158.95 268.26L171.04 267.1M171.04 267.1L182.33 262.59"
fill="none" stroke="black" stroke-width="9"/>
</g>
<g><path d="M118.8 218.97L110.3 222M110.3 222L103.17 227.55M103.17 227.55L98.14 235.04M98.14 235.04L95.71 243.74M95.71 243.74L96.13 252.76M96.13 252.76L99.34 261.19"
fill="none" stroke="black" stroke-width="9"/>
</g>
<g><path d="M139.63 188.63L324.52 81.88"
fill="none" stroke="black" stroke-width="9"/>
</g>
<g><path d="M182.33 262.59L367.22 155.84"
fill="none" stroke="black" stroke-width="9"/>
</g>
<g><path d="M179.91 190.02L181.81 177.44M181.81 177.44L187.33 165.97M187.33 165.97L195.99 156.64M195.99 156.64L207.01 150.27M207.01 150.27L219.42 147.44M219.42 147.44L232.11 148.39M232.11 148.39L243.96 153.04M243.96 153.04L253.91 160.98M253.91 160.98L261.08 171.5M261.08 171.5L264.83 183.66M264.83 183.66L264.83 196.39M264.83 196.39L261.08 208.55M261.08 208.55L253.91 219.07M253.91 219.07L243.96 227M243.96 227L232.11 231.65M232.11 231.65L219.42 232.6M219.42 232.6L207.01 229.77M207.01 229.77L195.99 223.41M195.99 223.41L187.33 214.08M187.33 214.08L181.81 202.61M181.81 202.61L179.91 190.02"
fill="none" stroke="black" stroke-width="9"/>
</g>
<g><path d="M399.27 318.12L257.18 215.09"
fill="none" stroke="black" stroke-width="9"/>
</g>
<g><path d="M280.22 231.8L284.3 223.75M284.3 223.75L285.64 214.82M285.64 214.82L284.13 205.92M284.13 205.92L279.9 197.94M279.9 197.94L273.39 191.69M273.39 191.69L265.25 187.79"
fill="none" stroke="black" stroke-width="9"/>
</g>
<g><path d="M107.21 256.65L121.64 242.22"
fill="none" stroke="black" stroke-width="3"/>
</g>
<g><path d="M97.77 258.03L119.61 236.2"
fill="none" stroke="black" stroke-width="3"/>
</g>
<g><path d="M95.95 251.81L118.44 229.32"
fill="none" stroke="black" stroke-width="3"/>
</g>
<g><path d="M95.68 244.02L118.5 221.2"
fill="none" stroke="black" stroke-width="3"/>
</g>
<g><path d="M99.99 231.67L108.71 222.94"
fill="none" stroke="black" stroke-width="3"/>
</g>
<g><path d="M118.28 225.15L113.59 220.46"
fill="none" stroke="black" stroke-width="3"/>
</g>
<g><path d="M119.12 234.04L108.29 223.21"
fill="none" stroke="black" stroke-width="3"/>
</g>
<g><path d="M123.99 246.96L103.86 226.84"
fill="none" stroke="black" stroke-width="3"/>
</g>
<g><path d="M118.88 249.91L100.24 231.27"
fill="none" stroke="black" stroke-width="3"/>
</g>
<g><path d="M113.78 252.86L97.49 236.57"
fill="none" stroke="black" stroke-width="3"/>
</g>
<g><path d="M108.67 255.8L95.82 242.94"
fill="none" stroke="black" stroke-width="3"/>
</g>
<g><path d="M103.57 258.75L95.82 251"
fill="none" stroke="black" stroke-width="3"/>
</g>
<g><path d="M278.35 230.44L283.91 224.88"
fill="none" stroke="black" stroke-width="3"/>
</g>
<g><path d="M273.68 227.06L285.64 215.09"
fill="none" stroke="black" stroke-width="3"/>
</g>
<g><path d="M269.01 223.67L284.73 207.95"
fill="none" stroke="black" stroke-width="3"/>
</g>
<g><path d="M264.34 220.29L282.52 202.12"
fill="none" stroke="black" stroke-width="3"/>
</g>
<g><path d="M259.68 216.9L279.35 197.23"
fill="none" stroke="black" stroke-width="3"/>
</g>
<g><path d="M261.98 206.55L275.35 193.18"
fill="none" stroke="black" stroke-width="3"/>
</g>
<g><path d="M264.95 195.52L270.53 189.95"
fill="none" stroke="black" stroke-width="3"/>
</g>
<g><path d="M284.07 205.75L266.51 188.2"
fill="none" stroke="black" stroke-width="3"/>
</g>
<g><path d="M285.64 215.38L265.04 194.78"
fill="none" stroke="black" stroke-width="3"/>
</g>
<g><path d="M284.67 222.46L263.73 201.52"
fill="none" stroke="black" stroke-width="3"/>
</g>
<g><path d="M282.42 228.26L261.6 207.44"
fill="none" stroke="black" stroke-width="3"/>
</g>
<g><path d="M271.81 225.7L258.8 212.69"
fill="none" stroke="black" stroke-width="3"/>
</g>
</g>
</svg>
