<?xml version="1.0" standalone="no"?><svg xmlns="http://www.w3.org/2000/svg" width="400.000" height="400.000" viewBox="0.0 0.0 400.000 400.000" version="1.1">
  <title>Produce by Acme CAD Converter</title>
  <desc>Produce by Acme CAD Converter</desc>
<g id="0" display="visible">
<g><path d="M0.73 200L133.58 200"
fill="none" stroke="black" stroke-width="9"/>
</g>
<g><path d="M200 133.58L184.1 135.51M184.1 135.51L169.13 141.19M169.13 141.19L155.95 150.28M155.95 150.28L145.34 162.27M145.34 162.27L137.89 176.45M137.89 176.45L134.06 191.99M134.06 191.99L134.06 208.01M134.06 208.01L137.89 223.55M137.89 223.55L145.34 237.73M145.34 237.73L155.95 249.72M155.95 249.72L169.13 258.81M169.13 258.81L184.1 264.49M184.1 264.49L200 266.42"
fill="none" stroke="black" stroke-width="9"/>
</g>
<g><path d="M200 133.58L399.27 133.58"
fill="none" stroke="black" stroke-width="9"/>
</g>
<g><path d="M200 266.42L399.27 266.42"
fill="none" stroke="black" stroke-width="9"/>
</g>
<g><path d="M226.57 133.58L226.57 266.42"
fill="none" stroke="black" stroke-width="9"/>
</g>
<g><path d="M346.13 133.58L346.13 266.42"
fill="none" stroke="black" stroke-width="9"/>
</g>
</g>
</svg>
