<?xml version="1.0" standalone="no"?><svg xmlns="http://www.w3.org/2000/svg" width="400.000" height="400.000" viewBox="0.0 0.0 400.000 400.000" version="1.1">
  <title>Produce by Acme CAD Converter</title>
  <desc>Produce by Acme CAD Converter</desc>
<g id="0" display="visible">
<g><path d="M55.08 145.65L344.92 145.65"
fill="none" stroke="black" stroke-width="9"/>
</g>
<g><path d="M200 145.65L344.92 0.73"
fill="none" stroke="black" stroke-width="9"/>
</g>
<g><path d="M236.23 145.65L235 136.28M235 136.28L231.38 127.54M231.38 127.54L225.62 120.04"
fill="none" stroke="black" stroke-width="9"/>
</g>
<g><path d="M55.08 254.35L344.92 254.35"
fill="none" stroke="black" stroke-width="9"/>
</g>
<g><path d="M55.08 399.27L200 254.35"
fill="none" stroke="black" stroke-width="9"/>
</g>
<g><path d="M174.38 279.96L182.92 286.3M182.92 286.3L192.93 289.88M192.93 289.88L203.55 290.4M203.55 290.4L213.86 287.82M213.86 287.82L222.98 282.35M222.98 282.35L230.12 274.47M230.12 274.47L234.67 264.86M234.67 264.86L236.23 254.35"
fill="none" stroke="black" stroke-width="9"/>
</g>
<g><path d="M233.24 145.65L236.12 142.78"
fill="none" stroke="black" stroke-width="3"/>
</g>
<g><path d="M222.99 145.65L234.39 134.26"
fill="none" stroke="black" stroke-width="3"/>
</g>
<g><path d="M212.75 145.65L231.19 127.21"
fill="none" stroke="black" stroke-width="3"/>
</g>
<g><path d="M202.5 145.65L226.84 121.32"
fill="none" stroke="black" stroke-width="3"/>
</g>
<g><path d="M234.01 133.16L223.25 122.4"
fill="none" stroke="black" stroke-width="3"/>
</g>
<g><path d="M236.23 145.63L218.13 127.53"
fill="none" stroke="black" stroke-width="3"/>
</g>
<g><path d="M226.01 145.65L213 132.65"
fill="none" stroke="black" stroke-width="3"/>
</g>
<g><path d="M215.76 145.65L207.88 137.78"
fill="none" stroke="black" stroke-width="3"/>
</g>
<g><path d="M205.51 145.65L202.76 142.9"
fill="none" stroke="black" stroke-width="3"/>
</g>
<g><path d="M214.18 287.69L233.34 268.52"
fill="none" stroke="black" stroke-width="3"/>
</g>
<g><path d="M201.06 290.56L236.21 255.4"
fill="none" stroke="black" stroke-width="3"/>
</g>
<g><path d="M191.75 289.62L227.02 254.35"
fill="none" stroke="black" stroke-width="3"/>
</g>
<g><path d="M184.18 286.94L216.78 254.35"
fill="none" stroke="black" stroke-width="3"/>
</g>
<g><path d="M177.85 283.02L206.53 254.35"
fill="none" stroke="black" stroke-width="3"/>
</g>
<g><path d="M236.03 258.15L232.22 254.35"
fill="none" stroke="black" stroke-width="3"/>
</g>
<g><path d="M234.13 266.5L221.97 254.35"
fill="none" stroke="black" stroke-width="3"/>
</g>
<g><path d="M230.8 273.42L211.73 254.35"
fill="none" stroke="black" stroke-width="3"/>
</g>
<g><path d="M226.35 279.21L201.48 254.35"
fill="none" stroke="black" stroke-width="3"/>
</g>
<g><path d="M220.86 283.97L195.62 258.73"
fill="none" stroke="black" stroke-width="3"/>
</g>
<g><path d="M214.28 287.64L190.49 263.85"
fill="none" stroke="black" stroke-width="3"/>
</g>
<g><path d="M206.4 290.01L185.37 268.98"
fill="none" stroke="black" stroke-width="3"/>
</g>
<g><path d="M196.56 290.41L180.25 274.1"
fill="none" stroke="black" stroke-width="3"/>
</g>
<g><path d="M181.23 285.34L175.12 279.22"
fill="none" stroke="black" stroke-width="3"/>
</g>
</g>
</svg>
