<?xml version="1.0" standalone="no"?><svg xmlns="http://www.w3.org/2000/svg" width="400.000" height="400.000" viewBox="0.0 0.0 400.000 400.000" version="1.1">
  <title>Produce by Acme CAD Converter</title>
  <desc>Produce by Acme CAD Converter</desc>
<g id="0" display="visible">
<g><path d="M20.27 192.08L12.54 193.45M12.54 193.45L5.75 197.4M5.75 197.4L0.73 203.44"
fill="none" stroke="black" stroke-width="9"/>
</g>
<g><path d="M31.38 195.02L26.01 192.83M26.01 192.83L20.27 192.08"
fill="none" stroke="black" stroke-width="9"/>
</g>
<g><path d="M60.51 211.61L65.87 213.8M65.87 213.8L71.62 214.55"
fill="none" stroke="black" stroke-width="9"/>
</g>
<g><path d="M31.39 195L60.49 211.63"
fill="none" stroke="black" stroke-width="9"/>
</g>
<g><path d="M71.62 214.55L77.37 213.8M77.37 213.8L82.73 211.61"
fill="none" stroke="black" stroke-width="9"/>
</g>
<g><path d="M122.97 192.08L117.22 192.83M117.22 192.83L111.86 195.02"
fill="none" stroke="black" stroke-width="9"/>
</g>
<g><path d="M82.74 211.63L111.85 195"
fill="none" stroke="black" stroke-width="9"/>
</g>
<g><path d="M134.09 195.02L128.72 192.83M128.72 192.83L122.97 192.08"
fill="none" stroke="black" stroke-width="9"/>
</g>
<g><path d="M163.21 211.61L168.58 213.8M168.58 213.8L174.32 214.55"
fill="none" stroke="black" stroke-width="9"/>
</g>
<g><path d="M134.1 195L163.2 211.63"
fill="none" stroke="black" stroke-width="9"/>
</g>
<g><path d="M174.32 214.55L180.07 213.8M180.07 213.8L185.44 211.61"
fill="none" stroke="black" stroke-width="9"/>
</g>
<g><path d="M225.68 192.08L219.93 192.83M219.93 192.83L214.56 195.02"
fill="none" stroke="black" stroke-width="9"/>
</g>
<g><path d="M185.45 211.63L214.55 195"
fill="none" stroke="black" stroke-width="9"/>
</g>
<g><path d="M236.79 195.02L231.42 192.83M231.42 192.83L225.68 192.08"
fill="none" stroke="black" stroke-width="9"/>
</g>
<g><path d="M265.91 211.61L271.28 213.8M271.28 213.8L277.03 214.55"
fill="none" stroke="black" stroke-width="9"/>
</g>
<g><path d="M236.8 195L265.9 211.63"
fill="none" stroke="black" stroke-width="9"/>
</g>
<g><path d="M277.03 214.55L282.78 213.8M282.78 213.8L288.14 211.61"
fill="none" stroke="black" stroke-width="9"/>
</g>
<g><path d="M328.38 192.08L322.63 192.83M322.63 192.83L317.27 195.02"
fill="none" stroke="black" stroke-width="9"/>
</g>
<g><path d="M288.15 211.63L317.26 195"
fill="none" stroke="black" stroke-width="9"/>
</g>
<g><path d="M339.49 195.02L334.13 192.83M334.13 192.83L328.38 192.08"
fill="none" stroke="black" stroke-width="9"/>
</g>
<g><path d="M368.62 211.61L373.99 213.8M373.99 213.8L379.73 214.55"
fill="none" stroke="black" stroke-width="9"/>
</g>
<g><path d="M339.51 195L368.61 211.63"
fill="none" stroke="black" stroke-width="9"/>
</g>
<g><path d="M379.73 214.55L387.46 213.18M387.46 213.18L394.25 209.23M394.25 209.23L399.27 203.19"
fill="none" stroke="black" stroke-width="9"/>
</g>
<g><path d="M259.4 191.06L249.89 182.52M249.89 182.52L238.32 177.09M238.32 177.09L225.68 175.22M225.68 175.22L213.03 177.09M213.03 177.09L201.46 182.52M201.46 182.52L191.95 191.06"
fill="none" stroke="black" stroke-width="9"/>
</g>
<g><path d="M236.79 211.87L229.53 209.27M229.53 209.27L221.82 209.27M221.82 209.27L214.56 211.87"
fill="none" stroke="black" stroke-width="9"/>
</g>
<g><path d="M191.97 224.78L214.55 211.85"
fill="none" stroke="black" stroke-width="9"/>
</g>
<g><path d="M236.8 211.85L259.39 224.78"
fill="none" stroke="black" stroke-width="9"/>
</g>
</g>
</svg>
