<?xml version="1.0" standalone="no"?><svg xmlns="http://www.w3.org/2000/svg" width="400.000" height="400.000" viewBox="0.0 0.0 400.000 400.000" version="1.1">
  <title>Produce by Acme CAD Converter</title>
  <desc>Produce by Acme CAD Converter</desc>
<g id="0" display="visible">
<g><path d="M162.64 262.84L164.47 251.29M164.47 251.29L169.77 240.88M169.77 240.88L178.04 232.61M178.04 232.61L188.45 227.3M188.45 227.3L200 225.48M200 225.48L211.55 227.3M211.55 227.3L221.96 232.61M221.96 232.61L230.23 240.88M230.23 240.88L235.53 251.29M235.53 251.29L237.36 262.84M237.36 262.84L235.53 274.38M235.53 274.38L230.23 284.8M230.23 284.8L221.96 293.07M221.96 293.07L211.55 298.37M211.55 298.37L200 300.2M200 300.2L188.45 298.37M188.45 298.37L178.04 293.07M178.04 293.07L169.77 284.8M169.77 284.8L164.47 274.38M164.47 274.38L162.64 262.84"
fill="none" stroke="black" stroke-width="9"/>
</g>
<g><path d="M0.73 262.84L125.27 262.84"
fill="none" stroke="black" stroke-width="9"/>
</g>
<g><path d="M257.24 214.81L245.03 203.21M245.03 203.21L230.53 194.64M230.53 194.64L214.48 189.53M214.48 189.53L197.7 188.15M197.7 188.15L181.03 190.56M181.03 190.56L165.33 196.65M165.33 196.65L151.38 206.09M151.38 206.09L139.91 218.42M139.91 218.42L131.49 233.01M131.49 233.01L126.55 249.11M126.55 249.11L125.34 265.91M125.34 265.91L127.92 282.55M127.92 282.55L134.17 298.19M134.17 298.19L143.76 312.04M143.76 312.04L156.2 323.38M156.2 323.38L170.87 331.65M170.87 331.65L187.02 336.43"
fill="none" stroke="black" stroke-width="9"/>
</g>
<g><path d="M129.43 238.28L120.81 238.33M120.81 238.33L112.73 241.32M112.73 241.32L106.15 246.88M106.15 246.88L101.86 254.35M101.86 254.35L100.37 262.84"
fill="none" stroke="black" stroke-width="9"/>
</g>
<g><path d="M200 63.57L200 225.48"
fill="none" stroke="black" stroke-width="9"/>
</g>
<g><path d="M399.27 262.84L237.36 262.84"
fill="none" stroke="black" stroke-width="9"/>
</g>
<g><path d="M262.27 262.84L260.47 253.55M260.47 253.55L255.34 245.6M255.34 245.6L247.62 240.14M247.62 240.14L238.42 237.95M238.42 237.95L229.06 239.35"
fill="none" stroke="black" stroke-width="9"/>
</g>
<g><path d="M123.29 262.84L125.3 260.83"
fill="none" stroke="black" stroke-width="3"/>
</g>
<g><path d="M116.24 262.84L125.9 253.18"
fill="none" stroke="black" stroke-width="3"/>
</g>
<g><path d="M109.2 262.84L127.57 244.47"
fill="none" stroke="black" stroke-width="3"/>
</g>
<g><path d="M102.15 262.84L127 237.99"
fill="none" stroke="black" stroke-width="3"/>
</g>
<g><path d="M101.1 256.85L119.29 238.66"
fill="none" stroke="black" stroke-width="3"/>
</g>
<g><path d="M129.39 238.38L129.26 238.25"
fill="none" stroke="black" stroke-width="3"/>
</g>
<g><path d="M127.75 243.78L122.1 238.13"
fill="none" stroke="black" stroke-width="3"/>
</g>
<g><path d="M126.47 249.55L116.46 239.54"
fill="none" stroke="black" stroke-width="3"/>
</g>
<g><path d="M125.61 255.74L111.78 241.9"
fill="none" stroke="black" stroke-width="3"/>
</g>
<g><path d="M125.28 262.45L107.86 245.03"
fill="none" stroke="black" stroke-width="3"/>
</g>
<g><path d="M118.62 262.84L104.65 248.87"
fill="none" stroke="black" stroke-width="3"/>
</g>
<g><path d="M111.58 262.84L102.2 253.46"
fill="none" stroke="black" stroke-width="3"/>
</g>
<g><path d="M104.53 262.84L100.67 258.98"
fill="none" stroke="black" stroke-width="3"/>
</g>
<g><path d="M257.15 262.84L261.83 258.16"
fill="none" stroke="black" stroke-width="3"/>
</g>
<g><path d="M250.1 262.84L260.15 252.79"
fill="none" stroke="black" stroke-width="3"/>
</g>
<g><path d="M243.06 262.84L257.59 248.3"
fill="none" stroke="black" stroke-width="3"/>
</g>
<g><path d="M237.34 261.51L254.29 244.56"
fill="none" stroke="black" stroke-width="3"/>
</g>
<g><path d="M236.58 255.23L250.27 241.54"
fill="none" stroke="black" stroke-width="3"/>
</g>
<g><path d="M235 249.76L245.47 239.29"
fill="none" stroke="black" stroke-width="3"/>
</g>
<g><path d="M232.79 244.93L239.68 238.04"
fill="none" stroke="black" stroke-width="3"/>
</g>
<g><path d="M230.04 240.63L232.2 238.47"
fill="none" stroke="black" stroke-width="3"/>
</g>
<g><path d="M261.81 258.08L242.12 238.39"
fill="none" stroke="black" stroke-width="3"/>
</g>
<g><path d="M259.52 262.84L234.75 238.07"
fill="none" stroke="black" stroke-width="3"/>
</g>
<g><path d="M252.48 262.84L229.32 239.68"
fill="none" stroke="black" stroke-width="3"/>
</g>
<g><path d="M245.43 262.84L236.21 253.61"
fill="none" stroke="black" stroke-width="3"/>
</g>
<g><path d="M238.39 262.84L237.35 261.8"
fill="none" stroke="black" stroke-width="3"/>
</g>
</g>
</svg>
