<?xml version="1.0" standalone="no"?><svg xmlns="http://www.w3.org/2000/svg" width="400.000" height="400.000" viewBox="0.0 0.0 400.000 400.000" version="1.1">
  <title>Produce by Acme CAD Converter</title>
  <desc>Produce by Acme CAD Converter</desc>
<g id="0" display="visible">
<g><path d="M0.73 283.03L332.84 283.03"
fill="none" stroke="black" stroke-width="9"/>
</g>
<g><path d="M116.97 233.21L118.82 219.77M118.82 219.77L124.22 207.33M124.22 207.33L132.79 196.8M132.79 196.8L143.87 188.98M143.87 188.98L156.65 184.44M156.65 184.44L170.19 183.51M170.19 183.51L183.47 186.27M183.47 186.27L195.52 192.51M195.52 192.51L205.43 201.77M205.43 201.77L212.48 213.36M212.48 213.36L216.14 226.43M216.14 226.43L216.14 239.99M216.14 239.99L212.48 253.06M212.48 253.06L205.43 264.65M205.43 264.65L195.52 273.91M195.52 273.91L183.47 280.15M183.47 280.15L170.19 282.91M170.19 282.91L156.65 281.99M156.65 281.99L143.87 277.44M143.87 277.44L132.79 269.62M132.79 269.62L124.22 259.1M124.22 259.1L118.82 246.65M118.82 246.65L116.97 233.21"
fill="none" stroke="black" stroke-width="9"/>
</g>
<g><path d="M399.27 116.97L211.35 210.93"
fill="none" stroke="black" stroke-width="9"/>
</g>
<g><path d="M241.05 196.08L234.91 187.53M234.91 187.53L226.4 181.33M226.4 181.33L216.37 178.1M216.37 178.1L205.84 178.18M205.84 178.18L195.86 181.55M195.86 181.55L187.44 187.88"
fill="none" stroke="black" stroke-width="9"/>
</g>
<g><path d="M231.26 200.98L239.27 192.96"
fill="none" stroke="black" stroke-width="3"/>
</g>
<g><path d="M212.47 210.37L235.11 187.73"
fill="none" stroke="black" stroke-width="3"/>
</g>
<g><path d="M208.09 205.36L230 183.45"
fill="none" stroke="black" stroke-width="3"/>
</g>
<g><path d="M203.98 200.07L223.88 180.18"
fill="none" stroke="black" stroke-width="3"/>
</g>
<g><path d="M199.24 195.42L216.53 178.13"
fill="none" stroke="black" stroke-width="3"/>
</g>
<g><path d="M193.87 191.4L207.3 177.97"
fill="none" stroke="black" stroke-width="3"/>
</g>
<g><path d="M187.82 188.05L191.77 184.1"
fill="none" stroke="black" stroke-width="3"/>
</g>
<g><path d="M240.06 194.25L228.03 182.22"
fill="none" stroke="black" stroke-width="3"/>
</g>
<g><path d="M235.35 198.93L214.27 177.85"
fill="none" stroke="black" stroke-width="3"/>
</g>
<g><path d="M229.09 202.06L205.3 178.28"
fill="none" stroke="black" stroke-width="3"/>
</g>
<g><path d="M222.83 205.19L198.11 180.47"
fill="none" stroke="black" stroke-width="3"/>
</g>
<g><path d="M216.56 208.32L192.1 183.86"
fill="none" stroke="black" stroke-width="3"/>
</g>
</g>
</svg>
