<?xml version="1.0" standalone="no"?><svg xmlns="http://www.w3.org/2000/svg" width="400.000" height="400.000" viewBox="0.0 0.0 400.000 400.000" version="1.1">
  <title>Produce by Acme CAD Converter</title>
  <desc>Produce by Acme CAD Converter</desc>
<g id="0" display="visible">
<g><path d="M0.73 291.97L399.27 291.97"
fill="none" stroke="black" stroke-width="9"/>
</g>
<g><path d="M0.73 291.97L0.73 200"
fill="none" stroke="black" stroke-width="9"/>
</g>
<g><path d="M399.27 291.97L399.27 108.03"
fill="none" stroke="black" stroke-width="9"/>
</g>
<g><path d="M0.73 200L154.02 200"
fill="none" stroke="black" stroke-width="9"/>
</g>
<g><path d="M307.3 108.03L399.27 108.03"
fill="none" stroke="black" stroke-width="9"/>
</g>
<g><path d="M154.02 200L168.72 198.68M168.72 198.68L182.96 194.77M182.96 194.77L196.28 188.4M196.28 188.4L208.25 179.75M208.25 179.75L218.5 169.12"
fill="none" stroke="black" stroke-width="9"/>
</g>
<g><path d="M307.3 108.03L292.59 109.35M292.59 109.35L278.35 113.26M278.35 113.26L265.03 119.64M265.03 119.64L253.06 128.28M253.06 128.28L242.81 138.91"
fill="none" stroke="black" stroke-width="9"/>
</g>
<g><path d="M242.81 138.91L218.5 169.12"
fill="none" stroke="black" stroke-width="9"/>
</g>
</g>
</svg>
