<?xml version="1.0" standalone="no"?><svg xmlns="http://www.w3.org/2000/svg" width="400.000" height="400.000" viewBox="0.0 0.0 400.000 400.000" version="1.1">
  <title>Produce by Acme CAD Converter</title>
  <desc>Produce by Acme CAD Converter</desc>
<g id="0" display="visible">
<g><path d="M0.73 200L105.61 200"
fill="none" stroke="black" stroke-width="9"/>
</g>
<g><path d="M105.61 105.6L105.61 294.4"
fill="none" stroke="black" stroke-width="9"/>
</g>
<g><path d="M105.61 105.6L124.93 118.09M124.93 118.09L145.59 128.21M145.59 128.21L167.3 135.84"
fill="none" stroke="black" stroke-width="9"/>
</g>
<g><path d="M167.3 135.84L309.17 277.71"
fill="none" stroke="black" stroke-width="9"/>
</g>
<g><path d="M309.17 277.71L284.45 267.25M284.45 267.25L258.52 260.28M258.52 260.28L231.88 256.94M231.88 256.94L205.03 257.29M205.03 257.29L178.49 261.32M178.49 261.32L152.75 268.95M152.75 268.95L128.3 280.05M128.3 280.05L105.61 294.4"
fill="none" stroke="black" stroke-width="9"/>
</g>
<g><path d="M231.46 200L399.27 200"
fill="none" stroke="black" stroke-width="9"/>
</g>
</g>
</svg>
