<?xml version="1.0" standalone="no"?><svg xmlns="http://www.w3.org/2000/svg" width="400.000" height="400.000" viewBox="0.0 0.0 400.000 400.000" version="1.1">
  <title>Produce by Acme CAD Converter</title>
  <desc>Produce by Acme CAD Converter</desc>
<g id="0" display="visible">
<g><path d="M0.73 307.3L307.3 307.3"
fill="none" stroke="black" stroke-width="9"/>
</g>
<g><path d="M62.05 215.33L63.81 233.27M63.81 233.27L69.05 250.52M69.05 250.52L77.55 266.42M77.55 266.42L88.98 280.36M88.98 280.36L102.92 291.8M102.92 291.8L118.82 300.3M118.82 300.3L136.07 305.53M136.07 305.53L154.02 307.3M154.02 307.3L171.96 305.53M171.96 305.53L189.21 300.3M189.21 300.3L205.11 291.8M205.11 291.8L219.05 280.36M219.05 280.36L230.49 266.42M230.49 266.42L238.98 250.52M238.98 250.52L244.22 233.27M244.22 233.27L245.98 215.33"
fill="none" stroke="black" stroke-width="9"/>
</g>
<g><path d="M108.03 215.33L109.89 202.37M109.89 202.37L115.33 190.47M115.33 190.47L123.9 180.58M123.9 180.58L134.91 173.5M134.91 173.5L147.47 169.81M147.47 169.81L160.56 169.81M160.56 169.81L173.12 173.5M173.12 173.5L184.13 180.58M184.13 180.58L192.7 190.47M192.7 190.47L198.14 202.37M198.14 202.37L200 215.33M200 215.33L198.14 228.28M198.14 228.28L192.7 240.19M192.7 240.19L184.13 250.08M184.13 250.08L173.12 257.16M173.12 257.16L160.56 260.84M160.56 260.84L147.47 260.84M147.47 260.84L134.91 257.16M134.91 257.16L123.9 250.08M123.9 250.08L115.33 240.19M115.33 240.19L109.89 228.28M109.89 228.28L108.03 215.33"
fill="none" stroke="black" stroke-width="9"/>
</g>
<g><path d="M399.27 92.7L195.15 194.76"
fill="none" stroke="black" stroke-width="9"/>
</g>
<g><path d="M222.57 181.05L216.89 173.16M216.89 173.16L209.04 167.43M209.04 167.43L199.78 164.46M199.78 164.46L190.06 164.53M190.06 164.53L180.85 167.64M180.85 167.64L173.08 173.48"
fill="none" stroke="black" stroke-width="9"/>
</g>
<g><path d="M213.65 185.51L220.95 178.21"
fill="none" stroke="black" stroke-width="3"/>
</g>
<g><path d="M196.31 194.18L217.11 173.38"
fill="none" stroke="black" stroke-width="3"/>
</g>
<g><path d="M192.17 189.65L212.4 169.42"
fill="none" stroke="black" stroke-width="3"/>
</g>
<g><path d="M188.38 184.77L206.76 166.39"
fill="none" stroke="black" stroke-width="3"/>
</g>
<g><path d="M184.01 180.47L199.99 164.49"
fill="none" stroke="black" stroke-width="3"/>
</g>
<g><path d="M179.05 176.76L191.48 164.33"
fill="none" stroke="black" stroke-width="3"/>
</g>
<g><path d="M173.47 173.66L177.3 169.83"
fill="none" stroke="black" stroke-width="3"/>
</g>
<g><path d="M219.35 182.66L201.44 164.76"
fill="none" stroke="black" stroke-width="3"/>
</g>
<g><path d="M213.56 185.55L192.25 164.24"
fill="none" stroke="black" stroke-width="3"/>
</g>
<g><path d="M207.78 188.44L185.13 165.79"
fill="none" stroke="black" stroke-width="3"/>
</g>
<g><path d="M202 191.33L179.23 168.56"
fill="none" stroke="black" stroke-width="3"/>
</g>
<g><path d="M178.24 176.24L174.29 172.29"
fill="none" stroke="black" stroke-width="3"/>
</g>
<g><path d="M196.22 194.22L193.1 191.1"
fill="none" stroke="black" stroke-width="3"/>
</g>
</g>
</svg>
