<?xml version="1.0" standalone="no"?><svg xmlns="http://www.w3.org/2000/svg" width="400.000" height="400.000" viewBox="0.0 0.0 400.000 400.000" version="1.1">
  <title>Produce by Acme CAD Converter</title>
  <desc>Produce by Acme CAD Converter</desc>
<g id="0" display="visible">
<g><path d="M0.73 200L95.62 200"
fill="none" stroke="black" stroke-width="9"/>
</g>
<g><path d="M95.62 114.59L95.62 285.41"
fill="none" stroke="black" stroke-width="9"/>
</g>
<g><path d="M95.62 114.59L107.6 122.64M107.6 122.64L120.2 129.69"
fill="none" stroke="black" stroke-width="9"/>
</g>
<g><path d="M248.56 258.05L226.12 253.18M226.12 253.18L203.23 251.27M203.23 251.27L180.29 252.34M180.29 252.34L157.68 256.39M157.68 256.39L135.79 263.33M135.79 263.33L114.99 273.06M114.99 273.06L95.62 285.41"
fill="none" stroke="black" stroke-width="9"/>
</g>
<g><path d="M120.2 129.69L248.56 258.05"
fill="none" stroke="black" stroke-width="9"/>
</g>
<g><path d="M399.27 200L304.38 200"
fill="none" stroke="black" stroke-width="9"/>
</g>
<g><path d="M304.38 285.41L304.38 114.59"
fill="none" stroke="black" stroke-width="9"/>
</g>
<g><path d="M304.38 285.41L292.4 277.36M292.4 277.36L279.8 270.31"
fill="none" stroke="black" stroke-width="9"/>
</g>
<g><path d="M151.44 141.95L173.88 146.82M173.88 146.82L196.77 148.73M196.77 148.73L219.71 147.66M219.71 147.66L242.32 143.61M242.32 143.61L264.21 136.67M264.21 136.67L285.01 126.94M285.01 126.94L304.38 114.59"
fill="none" stroke="black" stroke-width="9"/>
</g>
<g><path d="M279.8 270.31L151.44 141.95"
fill="none" stroke="black" stroke-width="9"/>
</g>
<g><path d="M162.04 171.53L181.02 171.53"
fill="none" stroke="black" stroke-width="9"/>
</g>
<g><path d="M218.98 228.47L237.96 228.47"
fill="none" stroke="black" stroke-width="9"/>
</g>
</g>
</svg>
