<?xml version="1.0" standalone="no"?><svg xmlns="http://www.w3.org/2000/svg" width="400.000" height="400.000" viewBox="0.0 0.0 400.000 400.000" version="1.1">
  <title>Produce by Acme CAD Converter</title>
  <desc>Produce by Acme CAD Converter</desc>
<g id="0" display="visible">
<g><path d="M0.73 299.63L399.27 299.63"
fill="none" stroke="black" stroke-width="9"/>
</g>
<g><path d="M399.27 100.37L0.73 100.37"
fill="none" stroke="black" stroke-width="9"/>
</g>
<g><path d="M0.73 100.37L0.73 183.39"
fill="none" stroke="black" stroke-width="9"/>
</g>
<g><path d="M0.73 183.39L1.18 182.76M1.18 182.76L1.63 182.14M1.63 182.14L2.07 181.52M2.07 181.52L2.51 180.91M2.51 180.91L2.94 180.31M2.94 180.31L3.37 179.72M3.37 179.72L3.8 179.13M3.8 179.13L4.22 178.55M4.22 178.55L4.64 177.98M4.64 177.98L5.05 177.42M5.05 177.42L5.46 176.87M5.46 176.87L5.87 176.32M5.87 176.32L6.28 175.78M6.28 175.78L6.68 175.25M6.68 175.25L7.47 174.2M7.47 174.2L8.25 173.19M8.25 173.19L9.01 172.2M9.01 172.2L9.76 171.24M9.76 171.24L10.5 170.31M10.5 170.31L11.23 169.4M11.23 169.4L11.94 168.52M11.94 168.52L12.65 167.66M12.65 167.66L13.34 166.83M13.34 166.83L14.02 166.02M14.02 166.02L14.69 165.23M14.69 165.23L15.35 164.47M15.35 164.47L16 163.72M16 163.72L16.63 163M16.63 163L17.26 162.3M17.26 162.3L17.88 161.62M17.88 161.62L18.49 160.96M18.49 160.96L19.09 160.32M19.09 160.32L19.68 159.7M19.68 159.7L20.27 159.09M20.27 159.09L20.84 158.5M20.84 158.5L21.41 157.93M21.41 157.93L21.97 157.37M21.97 157.37L22.52 156.83M22.52 156.83L23.07 156.31M23.07 156.31L23.61 155.79M23.61 155.79L24.14 155.29M24.14 155.29L24.66 154.81M24.66 154.81L25.18 154.34M25.18 154.34L25.7 153.87M25.7 153.87L26.21 153.42M26.21 153.42L26.71 152.98M26.71 152.98L27.21 152.55M27.21 152.55L27.71 152.13M27.71 152.13L28.2 151.72M28.2 151.72L28.68 151.32M28.68 151.32L29.17 150.92M29.17 150.92L30.12 150.15M30.12 150.15L31.07 149.41M31.07 149.41L32.01 148.68M32.01 148.68L32.93 147.97M32.93 147.97L33.85 147.29M33.85 147.29L34.75 146.62M34.75 146.62L35.64 145.98M35.64 145.98L36.53 145.35M36.53 145.35L37.4 144.74M37.4 144.74L38.27 144.14M38.27 144.14L39.13 143.56M39.13 143.56L39.97 142.99M39.97 142.99L40.81 142.44M40.81 142.44L41.64 141.9M41.64 141.9L42.46 141.38M42.46 141.38L43.27 140.86M43.27 140.86L44.07 140.36M44.07 140.36L44.86 139.87M44.86 139.87L45.65 139.39M45.65 139.39L46.42 138.91M46.42 138.91L47.19 138.45M47.19 138.45L47.95 137.99M47.95 137.99L48.7 137.54M48.7 137.54L49.45 137.09M49.45 137.09L50.18 136.65M50.18 136.65L50.91 136.21M50.91 136.21L52.35 135.35M52.35 135.35L53.76 134.5M53.76 134.5L55.16 133.67M55.16 133.67L56.54 132.84M56.54 132.84L59.28 131.21M59.28 131.21L62.02 129.58M62.02 129.58L63.41 128.76M63.41 128.76L64.8 127.94M64.8 127.94L66.22 127.11M66.22 127.11L67.66 126.27M67.66 126.27L69.12 125.42M69.12 125.42L70.6 124.58M70.6 124.58L72.09 123.76M72.09 123.76L73.6 122.95M73.6 122.95L74.35 122.56M74.35 122.56L75.11 122.18M75.11 122.18L75.86 121.8M75.86 121.8L76.62 121.43M76.62 121.43L77.38 121.08M77.38 121.08L78.14 120.74M78.14 120.74L78.9 120.4M78.9 120.4L79.66 120.09M79.66 120.09L80.42 119.78M80.42 119.78L81.17 119.5M81.17 119.5L81.93 119.22M81.93 119.22L82.68 118.97M82.68 118.97L83.43 118.73M83.43 118.73L84.17 118.52M84.17 118.52L84.92 118.32M84.92 118.32L85.66 118.14M85.66 118.14L86.4 117.98M86.4 117.98L87.13 117.83M87.13 117.83L87.87 117.7M87.87 117.7L88.6 117.58M88.6 117.58L89.33 117.47M89.33 117.47L90.06 117.38M90.06 117.38L90.78 117.3M90.78 117.3L91.51 117.23M91.51 117.23L92.23 117.17M92.23 117.17L92.95 117.13M92.95 117.13L94.39 117.05M94.39 117.05L95.82 117.01M95.82 117.01L97.25 116.98M97.25 116.98L100.11 116.97M100.11 116.97L102.96 116.98M102.96 116.98L104.39 117M104.39 117L105.82 117.03M105.82 117.03L107.26 117.1M107.26 117.1L107.98 117.14M107.98 117.14L108.7 117.19M108.7 117.19L109.43 117.25M109.43 117.25L110.15 117.32M110.15 117.32L110.88 117.41M110.88 117.41L111.6 117.5M111.6 117.5L112.33 117.61M112.33 117.61L113.07 117.73M113.07 117.73L113.8 117.87M113.8 117.87L114.54 118.02M114.54 118.02L115.28 118.19M115.28 118.19L116.02 118.37M116.02 118.37L116.76 118.57M116.76 118.57L117.51 118.8M117.51 118.8L118.26 119.04M118.26 119.04L119.01 119.3M119.01 119.3L119.77 119.57M119.77 119.57L120.52 119.86M120.52 119.86L121.28 120.17M121.28 120.17L122.04 120.49M122.04 120.49L122.8 120.83M122.8 120.83L123.56 121.17M123.56 121.17L124.32 121.53M124.32 121.53L125.08 121.9M125.08 121.9L125.83 122.28M125.83 122.28L126.59 122.67M126.59 122.67L128.09 123.46M128.09 123.46L129.59 124.28M129.59 124.28L131.07 125.12M131.07 125.12L132.54 125.96M132.54 125.96L133.99 126.8M133.99 126.8L135.42 127.64M135.42 127.64L136.82 128.46M136.82 128.46L138.21 129.28M138.21 129.28L140.96 130.91M140.96 130.91L143.7 132.54M143.7 132.54L145.07 133.37M145.07 133.37L146.46 134.2M146.46 134.2L147.87 135.04M147.87 135.04L149.3 135.9M149.3 135.9L150.02 136.33M150.02 136.33L150.75 136.77M150.75 136.77L151.49 137.21M151.49 137.21L152.23 137.66M152.23 137.66L152.98 138.11M152.98 138.11L153.74 138.57M153.74 138.57L154.5 139.04M154.5 139.04L155.27 139.51M155.27 139.51L156.04 139.99M156.04 139.99L156.81 140.47M156.81 140.47L157.59 140.97M157.59 140.97L158.36 141.47M158.36 141.47L159.14 141.99M159.14 141.99L159.91 142.51M159.91 142.51L160.69 143.04M160.69 143.04L161.46 143.59M161.46 143.59L162.23 144.14M162.23 144.14L163 144.71M163 144.71L163.76 145.29M163.76 145.29L164.52 145.88M164.52 145.88L165.27 146.48M165.27 146.48L166.01 147.09M166.01 147.09L166.75 147.72M166.75 147.72L167.48 148.37M167.48 148.37L168.21 149.03M168.21 149.03L168.92 149.7M168.92 149.7L169.62 150.39M169.62 150.39L170.32 151.09M170.32 151.09L171 151.8M171 151.8L171.68 152.53M171.68 152.53L172.36 153.27M172.36 153.27L173.02 154.01M173.02 154.01L173.68 154.77M173.68 154.77L174.34 155.53M174.34 155.53L175.64 157.08M175.64 157.08L176.93 158.65M176.93 158.65L178.21 160.22M178.21 160.22L180.77 163.38M180.77 163.38L182.05 164.95M182.05 164.95L183.35 166.49M183.35 166.49L184.01 167.26M184.01 167.26L184.67 168.01M184.67 168.01L185.34 168.76M185.34 168.76L186.01 169.5M186.01 169.5L187.36 170.97M187.36 170.97L188.73 172.41M188.73 172.41L190.11 173.83M190.11 173.83L191.5 175.23M191.5 175.23L192.9 176.61M192.9 176.61L194.31 177.98M194.31 177.98L195.73 179.35M195.73 179.35L197.15 180.7M197.15 180.7L200 183.39M200 183.39L202.85 186.09M202.85 186.09L204.27 187.44M204.27 187.44L205.69 188.8M205.69 188.8L207.1 190.18M207.1 190.18L208.5 191.56M208.5 191.56L209.89 192.96M209.89 192.96L211.27 194.38M211.27 194.38L212.64 195.82M212.64 195.82L213.99 197.29M213.99 197.29L214.66 198.03M214.66 198.03L215.33 198.78M215.33 198.78L215.99 199.53M215.99 199.53L216.65 200.29M216.65 200.29L217.95 201.84M217.95 201.84L219.23 203.41M219.23 203.41L221.79 206.56M221.79 206.56L223.07 208.14M223.07 208.14L224.36 209.71M224.36 209.71L225.66 211.26M225.66 211.26L226.32 212.02M226.32 212.02L226.98 212.77M226.98 212.77L227.64 213.52M227.64 213.52L228.32 214.26M228.32 214.26L229 214.99M229 214.99L229.68 215.7M229.68 215.7L230.38 216.4M230.38 216.4L231.08 217.09M231.08 217.09L231.79 217.76M231.79 217.76L232.52 218.42M232.52 218.42L233.25 219.07M233.25 219.07L233.99 219.69M233.99 219.69L234.73 220.31M234.73 220.31L235.48 220.91M235.48 220.91L236.24 221.5M236.24 221.5L237 222.08M237 222.08L237.77 222.65M237.77 222.65L238.54 223.2M238.54 223.2L239.31 223.75M239.31 223.75L240.09 224.28M240.09 224.28L240.86 224.8M240.86 224.8L241.64 225.31M241.64 225.31L242.41 225.82M242.41 225.82L243.19 226.31M243.19 226.31L243.96 226.8M243.96 226.8L244.73 227.28M244.73 227.28L245.5 227.75M245.5 227.75L246.26 228.22M246.26 228.22L247.02 228.68M247.02 228.68L247.77 229.13M247.77 229.13L248.51 229.58M248.51 229.58L249.25 230.02M249.25 230.02L249.98 230.46M249.98 230.46L250.7 230.89M250.7 230.89L252.13 231.75M252.13 231.75L253.54 232.59M253.54 232.59L254.93 233.42M254.93 233.42L256.3 234.25M256.3 234.25L259.04 235.88M259.04 235.88L261.79 237.51M261.79 237.51L263.18 238.33M263.18 238.33L264.58 239.15M264.58 239.15L266.01 239.99M266.01 239.99L267.46 240.83M267.46 240.83L268.93 241.67M268.93 241.67L270.41 242.51M270.41 242.51L271.91 243.33M271.91 243.33L273.41 244.12M273.41 244.12L274.17 244.51M274.17 244.51L274.92 244.89M274.92 244.89L275.68 245.26M275.68 245.26L276.44 245.61M276.44 245.61L277.2 245.96M277.2 245.96L277.96 246.3M277.96 246.3L278.72 246.62M278.72 246.62L279.48 246.92M279.48 246.92L280.23 247.22M280.23 247.22L280.99 247.49M280.99 247.49L281.74 247.75M281.74 247.75L282.49 247.99M282.49 247.99L283.24 248.21M283.24 248.21L283.98 248.42M283.98 248.42L284.72 248.6M284.72 248.6L285.46 248.77M285.46 248.77L286.2 248.92M286.2 248.92L286.93 249.06M286.93 249.06L287.67 249.18M287.67 249.18L288.4 249.29M288.4 249.29L289.12 249.38M289.12 249.38L289.85 249.47M289.85 249.47L290.57 249.54M290.57 249.54L291.3 249.6M291.3 249.6L292.02 249.65M292.02 249.65L292.74 249.69M292.74 249.69L294.18 249.76M294.18 249.76L295.61 249.79M295.61 249.79L297.04 249.81M297.04 249.81L299.89 249.82M299.89 249.82L302.75 249.81M302.75 249.81L304.18 249.78M304.18 249.78L305.61 249.74M305.61 249.74L307.05 249.66M307.05 249.66L307.77 249.61M307.77 249.61L308.49 249.56M308.49 249.56L309.22 249.49M309.22 249.49L309.94 249.41M309.94 249.41L310.67 249.32M310.67 249.32L311.4 249.21M311.4 249.21L312.13 249.09M312.13 249.09L312.87 248.96M312.87 248.96L313.6 248.81M313.6 248.81L314.34 248.65M314.34 248.65L315.08 248.47M315.08 248.47L315.83 248.27M315.83 248.27L316.57 248.05M316.57 248.05L317.32 247.82M317.32 247.82L318.07 247.56M318.07 247.56L318.83 247.29M318.83 247.29L319.58 247.01M319.58 247.01L320.34 246.7M320.34 246.7L321.1 246.38M321.1 246.38L321.86 246.05M321.86 246.05L322.62 245.71M322.62 245.71L323.38 245.35M323.38 245.35L324.14 244.99M324.14 244.99L324.89 244.61M324.89 244.61L325.65 244.23M325.65 244.23L326.4 243.84M326.4 243.84L327.91 243.03M327.91 243.03L329.4 242.2M329.4 242.2L330.88 241.37M330.88 241.37L332.34 240.52M332.34 240.52L333.78 239.68M333.78 239.68L335.2 238.85M335.2 238.85L336.59 238.03M336.59 238.03L337.98 237.21M337.98 237.21L340.72 235.58M340.72 235.58L343.46 233.95M343.46 233.95L344.84 233.12M344.84 233.12L346.24 232.29M346.24 232.29L347.65 231.44M347.65 231.44L349.09 230.58M349.09 230.58L349.82 230.14M349.82 230.14L350.55 229.7M350.55 229.7L351.3 229.25M351.3 229.25L352.05 228.8M352.05 228.8L352.81 228.34M352.81 228.34L353.58 227.88M353.58 227.88L354.35 227.4M354.35 227.4L355.14 226.92M355.14 226.92L355.93 226.43M355.93 226.43L356.73 225.92M356.73 225.92L357.54 225.41M357.54 225.41L358.36 224.88M358.36 224.88L359.19 224.35M359.19 224.35L360.03 223.79M360.03 223.79L360.87 223.23M360.87 223.23L361.73 222.65M361.73 222.65L362.6 222.05M362.6 222.05L363.47 221.44M363.47 221.44L364.36 220.81M364.36 220.81L365.25 220.16M365.25 220.16L366.15 219.5M366.15 219.5L367.07 218.81M367.07 218.81L367.99 218.11M367.99 218.11L368.93 217.38M368.93 217.38L369.88 216.64M369.88 216.64L370.83 215.87M370.83 215.87L371.32 215.47M371.32 215.47L371.8 215.07M371.8 215.07L372.29 214.65M372.29 214.65L372.79 214.23M372.79 214.23L373.29 213.8M373.29 213.8L373.79 213.37M373.79 213.37L374.3 212.91M374.3 212.91L374.82 212.45M374.82 212.45L375.34 211.98M375.34 211.98L375.86 211.49M375.86 211.49L376.39 211M376.39 211L376.93 210.48M376.93 210.48L377.48 209.96M377.48 209.96L378.03 209.42M378.03 209.42L378.59 208.86M378.59 208.86L379.16 208.29M379.16 208.29L379.73 207.7M379.73 207.7L380.32 207.09M380.32 207.09L380.91 206.47M380.91 206.47L381.51 205.83M381.51 205.83L382.12 205.17M382.12 205.17L382.74 204.49M382.74 204.49L383.37 203.79M383.37 203.79L384 203.07M384 203.07L384.65 202.32M384.65 202.32L385.31 201.56M385.31 201.56L385.98 200.77M385.98 200.77L386.66 199.96M386.66 199.96L387.35 199.13M387.35 199.13L388.06 198.27M388.06 198.27L388.77 197.39M388.77 197.39L389.5 196.48M389.5 196.48L390.24 195.55M390.24 195.55L390.99 194.59M390.99 194.59L391.75 193.6M391.75 193.6L392.53 192.59M392.53 192.59L393.32 191.54M393.32 191.54L393.72 191.01M393.72 191.01L394.13 190.47M394.13 190.47L394.54 189.92M394.54 189.92L394.95 189.37M394.95 189.37L395.36 188.81M395.36 188.81L395.78 188.24M395.78 188.24L396.2 187.66M396.2 187.66L396.63 187.07M396.63 187.07L397.06 186.48M397.06 186.48L397.49 185.88M397.49 185.88L397.93 185.27M397.93 185.27L398.37 184.65M398.37 184.65L398.82 184.03M398.82 184.03L399.27 183.39"
fill="none" stroke="black" stroke-width="9"/>
</g>
<g><path d="M0.73 183.39L0.73 216.61"
fill="none" stroke="black" stroke-width="9"/>
</g>
<g><path d="M0.73 216.61L1.18 215.97M1.18 215.97L1.63 215.35M1.63 215.35L2.07 214.73M2.07 214.73L2.51 214.12M2.51 214.12L2.94 213.52M2.94 213.52L3.37 212.93M3.37 212.93L3.8 212.34M3.8 212.34L4.22 211.76M4.22 211.76L4.64 211.19M4.64 211.19L5.05 210.63M5.05 210.63L5.46 210.08M5.46 210.08L5.87 209.53M5.87 209.53L6.28 208.99M6.28 208.99L6.68 208.46M6.68 208.46L7.47 207.41M7.47 207.41L8.25 206.4M8.25 206.4L9.01 205.41M9.01 205.41L9.76 204.45M9.76 204.45L10.5 203.52M10.5 203.52L11.23 202.61M11.23 202.61L11.94 201.73M11.94 201.73L12.65 200.87M12.65 200.87L13.34 200.04M13.34 200.04L14.02 199.23M14.02 199.23L14.69 198.44M14.69 198.44L15.35 197.68M15.35 197.68L16 196.93M16 196.93L16.63 196.21M16.63 196.21L17.26 195.51M17.26 195.51L17.88 194.83M17.88 194.83L18.49 194.17M18.49 194.17L19.09 193.53M19.09 193.53L19.68 192.91M19.68 192.91L20.27 192.3M20.27 192.3L20.84 191.71M20.84 191.71L21.41 191.14M21.41 191.14L21.97 190.58M21.97 190.58L22.52 190.04M22.52 190.04L23.07 189.52M23.07 189.52L23.61 189M23.61 189L24.14 188.51M24.14 188.51L24.66 188.02M24.66 188.02L25.18 187.55M25.18 187.55L25.7 187.09M25.7 187.09L26.21 186.63M26.21 186.63L26.71 186.2M26.71 186.2L27.21 185.77M27.21 185.77L27.71 185.35M27.71 185.35L28.2 184.93M28.2 184.93L28.68 184.53M28.68 184.53L29.17 184.13M29.17 184.13L30.12 183.36M30.12 183.36L31.07 182.62M31.07 182.62L32.01 181.89M32.01 181.89L32.93 181.19M32.93 181.19L33.85 180.5M33.85 180.5L34.75 179.84M34.75 179.84L35.64 179.19M35.64 179.19L36.53 178.56M36.53 178.56L37.4 177.95M37.4 177.95L38.27 177.35M38.27 177.35L39.13 176.77M39.13 176.77L39.97 176.21M39.97 176.21L40.81 175.65M40.81 175.65L41.64 175.12M41.64 175.12L42.46 174.59M42.46 174.59L43.27 174.08M43.27 174.08L44.07 173.57M44.07 173.57L44.86 173.08M44.86 173.08L45.65 172.6M45.65 172.6L46.42 172.12M46.42 172.12L47.19 171.66M47.19 171.66L47.95 171.2M47.95 171.2L48.7 170.75M48.7 170.75L49.45 170.3M49.45 170.3L50.18 169.86M50.18 169.86L50.91 169.42M50.91 169.42L52.35 168.56M52.35 168.56L53.76 167.71M53.76 167.71L55.16 166.88M55.16 166.88L56.54 166.05M56.54 166.05L59.28 164.42M59.28 164.42L62.02 162.79M62.02 162.79L63.41 161.97M63.41 161.97L64.8 161.15M64.8 161.15L66.22 160.32M66.22 160.32L67.66 159.48M67.66 159.48L69.12 158.63M69.12 158.63L70.6 157.8M70.6 157.8L72.09 156.97M72.09 156.97L73.6 156.16M73.6 156.16L74.35 155.77M74.35 155.77L75.11 155.39M75.11 155.39L75.86 155.01M75.86 155.01L76.62 154.65M76.62 154.65L77.38 154.29M77.38 154.29L78.14 153.95M78.14 153.95L78.9 153.62M78.9 153.62L79.66 153.3M79.66 153.3L80.42 152.99M80.42 152.99L81.17 152.71M81.17 152.71L81.93 152.44M81.93 152.44L82.68 152.18M82.68 152.18L83.43 151.95M83.43 151.95L84.17 151.73M84.17 151.73L84.92 151.53M84.92 151.53L85.66 151.35M85.66 151.35L86.4 151.19M86.4 151.19L87.13 151.04M87.13 151.04L87.87 150.91M87.87 150.91L88.6 150.79M88.6 150.79L89.33 150.68M89.33 150.68L90.06 150.59M90.06 150.59L90.78 150.51M90.78 150.51L91.51 150.44M91.51 150.44L92.23 150.39M92.23 150.39L92.95 150.34M92.95 150.34L94.39 150.26M94.39 150.26L95.82 150.22M95.82 150.22L97.25 150.19M97.25 150.19L100.11 150.18M100.11 150.18L102.96 150.19M102.96 150.19L104.39 150.21M104.39 150.21L105.82 150.24M105.82 150.24L107.26 150.31M107.26 150.31L107.98 150.35M107.98 150.35L108.7 150.4M108.7 150.4L109.43 150.46M109.43 150.46L110.15 150.53M110.15 150.53L110.88 150.62M110.88 150.62L111.6 150.71M111.6 150.71L112.33 150.82M112.33 150.82L113.07 150.94M113.07 150.94L113.8 151.08M113.8 151.08L114.54 151.23M114.54 151.23L115.28 151.4M115.28 151.4L116.02 151.58M116.02 151.58L116.76 151.79M116.76 151.79L117.51 152.01M117.51 152.01L118.26 152.25M118.26 152.25L119.01 152.51M119.01 152.51L119.77 152.78M119.77 152.78L120.52 153.08M120.52 153.08L121.28 153.38M121.28 153.38L122.04 153.7M122.04 153.7L122.8 154.04M122.8 154.04L123.56 154.39M123.56 154.39L124.32 154.74M124.32 154.74L125.08 155.11M125.08 155.11L125.83 155.49M125.83 155.49L126.59 155.88M126.59 155.88L128.09 156.67M128.09 156.67L129.59 157.49M129.59 157.49L131.07 158.33M131.07 158.33L132.54 159.17M132.54 159.17L133.99 160.01M133.99 160.01L135.42 160.85M135.42 160.85L136.82 161.67M136.82 161.67L138.21 162.49M138.21 162.49L140.96 164.12M140.96 164.12L143.7 165.75M143.7 165.75L145.07 166.58M145.07 166.58L146.46 167.41M146.46 167.41L147.87 168.25M147.87 168.25L149.3 169.11M149.3 169.11L150.02 169.54M150.02 169.54L150.75 169.98M150.75 169.98L151.49 170.42M151.49 170.42L152.23 170.87M152.23 170.87L152.98 171.32M152.98 171.32L153.74 171.78M153.74 171.78L154.5 172.25M154.5 172.25L155.27 172.72M155.27 172.72L156.04 173.2M156.04 173.2L156.81 173.69M156.81 173.69L157.59 174.18M157.59 174.18L158.36 174.69M158.36 174.69L159.14 175.2M159.14 175.2L159.91 175.72M159.91 175.72L160.69 176.25M160.69 176.25L161.46 176.8M161.46 176.8L162.23 177.35M162.23 177.35L163 177.92M163 177.92L163.76 178.5M163.76 178.5L164.52 179.09M164.52 179.09L165.27 179.69M165.27 179.69L166.01 180.31M166.01 180.31L166.75 180.93M166.75 180.93L167.48 181.58M167.48 181.58L168.21 182.24M168.21 182.24L168.92 182.91M168.92 182.91L169.62 183.6M169.62 183.6L170.32 184.3M170.32 184.3L171 185.01M171 185.01L171.68 185.74M171.68 185.74L172.36 186.48M172.36 186.48L173.02 187.23M173.02 187.23L173.68 187.98M173.68 187.98L174.34 188.74M174.34 188.74L175.64 190.29M175.64 190.29L176.93 191.86M176.93 191.86L178.21 193.44M178.21 193.44L180.77 196.59M180.77 196.59L182.05 198.16M182.05 198.16L183.35 199.71M183.35 199.71L184.01 200.47M184.01 200.47L184.67 201.22M184.67 201.22L185.34 201.97M185.34 201.97L186.01 202.71M186.01 202.71L187.36 204.18M187.36 204.18L188.73 205.62M188.73 205.62L190.11 207.04M190.11 207.04L191.5 208.44M191.5 208.44L192.9 209.82M192.9 209.82L194.31 211.2M194.31 211.2L195.73 212.56M195.73 212.56L197.15 213.91M197.15 213.91L200 216.61M200 216.61L202.85 219.3M202.85 219.3L204.27 220.65M204.27 220.65L205.69 222.02M205.69 222.02L207.1 223.39M207.1 223.39L208.5 224.77M208.5 224.77L209.89 226.17M209.89 226.17L211.27 227.59M211.27 227.59L212.64 229.03M212.64 229.03L213.99 230.5M213.99 230.5L214.66 231.24M214.66 231.24L215.33 231.99M215.33 231.99L215.99 232.74M215.99 232.74L216.65 233.51M216.65 233.51L217.95 235.05M217.95 235.05L219.23 236.62M219.23 236.62L221.79 239.78M221.79 239.78L223.07 241.35M223.07 241.35L224.36 242.92M224.36 242.92L225.66 244.47M225.66 244.47L226.32 245.23M226.32 245.23L226.98 245.99M226.98 245.99L227.64 246.73M227.64 246.73L228.32 247.47M228.32 247.47L229 248.2M229 248.2L229.68 248.91M229.68 248.91L230.38 249.61M230.38 249.61L231.08 250.3M231.08 250.3L231.79 250.97M231.79 250.97L232.52 251.63M232.52 251.63L233.25 252.28M233.25 252.28L233.99 252.91M233.99 252.91L234.73 253.52M234.73 253.52L235.48 254.12M235.48 254.12L236.24 254.71M236.24 254.71L237 255.29M237 255.29L237.77 255.86M237.77 255.86L238.54 256.41M238.54 256.41L239.31 256.96M239.31 256.96L240.09 257.49M240.09 257.49L240.86 258.01M240.86 258.01L241.64 258.53M241.64 258.53L242.41 259.03M242.41 259.03L243.19 259.53M243.19 259.53L243.96 260.01M243.96 260.01L244.73 260.49M244.73 260.49L245.5 260.96M245.5 260.96L246.26 261.43M246.26 261.43L247.02 261.89M247.02 261.89L247.77 262.34M247.77 262.34L248.51 262.79M248.51 262.79L249.25 263.23M249.25 263.23L249.98 263.67M249.98 263.67L250.7 264.1M250.7 264.1L252.13 264.96M252.13 264.96L253.54 265.8M253.54 265.8L254.93 266.63M254.93 266.63L256.3 267.46M256.3 267.46L259.04 269.09M259.04 269.09L261.79 270.72M261.79 270.72L263.18 271.54M263.18 271.54L264.58 272.36M264.58 272.36L266.01 273.2M266.01 273.2L267.46 274.04M267.46 274.04L268.93 274.88M268.93 274.88L270.41 275.72M270.41 275.72L271.91 276.54M271.91 276.54L273.41 277.33M273.41 277.33L274.17 277.72M274.17 277.72L274.92 278.1M274.92 278.1L275.68 278.47M275.68 278.47L276.44 278.83M276.44 278.83L277.2 279.17M277.2 279.17L277.96 279.51M277.96 279.51L278.72 279.83M278.72 279.83L279.48 280.14M279.48 280.14L280.23 280.43M280.23 280.43L280.99 280.7M280.99 280.7L281.74 280.96M281.74 280.96L282.49 281.2M282.49 281.2L283.24 281.43M283.24 281.43L283.98 281.63M283.98 281.63L284.72 281.81M284.72 281.81L285.46 281.98M285.46 281.98L286.2 282.13M286.2 282.13L286.93 282.27M286.93 282.27L287.67 282.39M287.67 282.39L288.4 282.5M288.4 282.5L289.12 282.59M289.12 282.59L289.85 282.68M289.85 282.68L290.57 282.75M290.57 282.75L291.3 282.81M291.3 282.81L292.02 282.86M292.02 282.86L292.74 282.9M292.74 282.9L294.18 282.97M294.18 282.97L295.61 283M295.61 283L297.04 283.02M297.04 283.02L299.89 283.03M299.89 283.03L302.75 283.02M302.75 283.02L304.18 282.99M304.18 282.99L305.61 282.95M305.61 282.95L307.05 282.87M307.05 282.87L307.77 282.83M307.77 282.83L308.49 282.77M308.49 282.77L309.22 282.7M309.22 282.7L309.94 282.62M309.94 282.62L310.67 282.53M310.67 282.53L311.4 282.42M311.4 282.42L312.13 282.3M312.13 282.3L312.87 282.17M312.87 282.17L313.6 282.02M313.6 282.02L314.34 281.86M314.34 281.86L315.08 281.68M315.08 281.68L315.83 281.48M315.83 281.48L316.57 281.27M316.57 281.27L317.32 281.03M317.32 281.03L318.07 280.78M318.07 280.78L318.83 280.5M318.83 280.5L319.58 280.22M319.58 280.22L320.34 279.91M320.34 279.91L321.1 279.6M321.1 279.6L321.86 279.26M321.86 279.26L322.62 278.92M322.62 278.92L323.38 278.57M323.38 278.57L324.14 278.2M324.14 278.2L324.89 277.82M324.89 277.82L325.65 277.44M325.65 277.44L326.4 277.05M326.4 277.05L327.91 276.24M327.91 276.24L329.4 275.42M329.4 275.42L330.88 274.58M330.88 274.58L332.34 273.73M332.34 273.73L333.78 272.89M333.78 272.89L335.2 272.06M335.2 272.06L336.59 271.24M336.59 271.24L337.98 270.42M337.98 270.42L340.72 268.79M340.72 268.79L343.46 267.16M343.46 267.16L344.84 266.33M344.84 266.33L346.24 265.5M346.24 265.5L347.65 264.65M347.65 264.65L349.09 263.79M349.09 263.79L349.82 263.35M349.82 263.35L350.55 262.91M350.55 262.91L351.3 262.46M351.3 262.46L352.05 262.01M352.05 262.01L352.81 261.55M352.81 261.55L353.58 261.09M353.58 261.09L354.35 260.61M354.35 260.61L355.14 260.13M355.14 260.13L355.93 259.64M355.93 259.64L356.73 259.14M356.73 259.14L357.54 258.62M357.54 258.62L358.36 258.1M358.36 258.1L359.19 257.56M359.19 257.56L360.03 257.01M360.03 257.01L360.87 256.44M360.87 256.44L361.73 255.86M361.73 255.86L362.6 255.26M362.6 255.26L363.47 254.65M363.47 254.65L364.36 254.02M364.36 254.02L365.25 253.38M365.25 253.38L366.15 252.71M366.15 252.71L367.07 252.03M367.07 252.03L367.99 251.32M367.99 251.32L368.93 250.59M368.93 250.59L369.88 249.85M369.88 249.85L370.83 249.08M370.83 249.08L371.32 248.68M371.32 248.68L371.8 248.28M371.8 248.28L372.29 247.87M372.29 247.87L372.79 247.45M372.79 247.45L373.29 247.02M373.29 247.02L373.79 246.58M373.79 246.58L374.3 246.13M374.3 246.13L374.82 245.66M374.82 245.66L375.34 245.19M375.34 245.19L375.86 244.71M375.86 244.71L376.39 244.21M376.39 244.21L376.93 243.69M376.93 243.69L377.48 243.17M377.48 243.17L378.03 242.63M378.03 242.63L378.59 242.07M378.59 242.07L379.16 241.5M379.16 241.5L379.73 240.91M379.73 240.91L380.32 240.3M380.32 240.3L380.91 239.68M380.91 239.68L381.51 239.04M381.51 239.04L382.12 238.38M382.12 238.38L382.74 237.7M382.74 237.7L383.37 237M383.37 237L384 236.28M384 236.28L384.65 235.53M384.65 235.53L385.31 234.77M385.31 234.77L385.98 233.98M385.98 233.98L386.66 233.17M386.66 233.17L387.35 232.34M387.35 232.34L388.06 231.48M388.06 231.48L388.77 230.6M388.77 230.6L389.5 229.69M389.5 229.69L390.24 228.76M390.24 228.76L390.99 227.8M390.99 227.8L391.75 226.81M391.75 226.81L392.53 225.8M392.53 225.8L393.32 224.75M393.32 224.75L393.72 224.22M393.72 224.22L394.13 223.68M394.13 223.68L394.54 223.13M394.54 223.13L394.95 222.58M394.95 222.58L395.36 222.02M395.36 222.02L395.78 221.45M395.78 221.45L396.2 220.87M396.2 220.87L396.63 220.28M396.63 220.28L397.06 219.69M397.06 219.69L397.49 219.09M397.49 219.09L397.93 218.48M397.93 218.48L398.37 217.86M398.37 217.86L398.82 217.24M398.82 217.24L399.27 216.61"
fill="none" stroke="black" stroke-width="9"/>
</g>
<g><path d="M0.73 216.61L0.73 299.63"
fill="none" stroke="black" stroke-width="9"/>
</g>
<g><path d="M399.27 299.63L399.27 100.37"
fill="none" stroke="black" stroke-width="9"/>
</g>
</g>
</svg>
