<?xml version="1.0" standalone="no"?><svg xmlns="http://www.w3.org/2000/svg" width="400.000" height="400.000" viewBox="0.0 0.0 400.000 400.000" version="1.1">
  <title>Produce by Acme CAD Converter</title>
  <desc>Produce by Acme CAD Converter</desc>
<g id="0" display="visible">
<g><path d="M20.27 188.76L12.54 190.13M12.54 190.13L5.75 194.08M5.75 194.08L0.73 200.12"
fill="none" stroke="black" stroke-width="9"/>
</g>
<g><path d="M31.38 191.7L26.01 189.51M26.01 189.51L20.27 188.76"
fill="none" stroke="black" stroke-width="9"/>
</g>
<g><path d="M60.51 208.3L65.87 210.49M65.87 210.49L71.62 211.24"
fill="none" stroke="black" stroke-width="9"/>
</g>
<g><path d="M31.39 191.68L60.49 208.32"
fill="none" stroke="black" stroke-width="9"/>
</g>
<g><path d="M71.62 211.24L77.37 210.49M77.37 210.49L82.73 208.3"
fill="none" stroke="black" stroke-width="9"/>
</g>
<g><path d="M122.97 188.76L117.22 189.51M117.22 189.51L111.86 191.7"
fill="none" stroke="black" stroke-width="9"/>
</g>
<g><path d="M82.74 208.32L111.85 191.68"
fill="none" stroke="black" stroke-width="9"/>
</g>
<g><path d="M134.09 191.7L128.72 189.51M128.72 189.51L122.97 188.76"
fill="none" stroke="black" stroke-width="9"/>
</g>
<g><path d="M163.21 208.3L168.58 210.49M168.58 210.49L174.32 211.24"
fill="none" stroke="black" stroke-width="9"/>
</g>
<g><path d="M134.1 191.68L163.2 208.32"
fill="none" stroke="black" stroke-width="9"/>
</g>
<g><path d="M174.32 211.24L180.07 210.49M180.07 210.49L185.44 208.3"
fill="none" stroke="black" stroke-width="9"/>
</g>
<g><path d="M225.68 188.76L219.93 189.51M219.93 189.51L214.56 191.7"
fill="none" stroke="black" stroke-width="9"/>
</g>
<g><path d="M185.45 208.32L214.55 191.68"
fill="none" stroke="black" stroke-width="9"/>
</g>
<g><path d="M236.79 191.7L231.42 189.51M231.42 189.51L225.68 188.76"
fill="none" stroke="black" stroke-width="9"/>
</g>
<g><path d="M265.91 208.3L271.28 210.49M271.28 210.49L277.03 211.24"
fill="none" stroke="black" stroke-width="9"/>
</g>
<g><path d="M236.8 191.68L265.9 208.32"
fill="none" stroke="black" stroke-width="9"/>
</g>
<g><path d="M277.03 211.24L282.78 210.49M282.78 210.49L288.14 208.3"
fill="none" stroke="black" stroke-width="9"/>
</g>
<g><path d="M328.38 188.76L322.63 189.51M322.63 189.51L317.27 191.7"
fill="none" stroke="black" stroke-width="9"/>
</g>
<g><path d="M288.15 208.32L317.26 191.68"
fill="none" stroke="black" stroke-width="9"/>
</g>
<g><path d="M339.49 191.7L334.13 189.51M334.13 189.51L328.38 188.76"
fill="none" stroke="black" stroke-width="9"/>
</g>
<g><path d="M368.62 208.3L373.99 210.49M373.99 210.49L379.73 211.24"
fill="none" stroke="black" stroke-width="9"/>
</g>
<g><path d="M339.51 191.68L368.61 208.32"
fill="none" stroke="black" stroke-width="9"/>
</g>
<g><path d="M174.32 228.09L180.07 227.34M180.07 227.34L185.44 225.15"
fill="none" stroke="black" stroke-width="9"/>
</g>
<g><path d="M225.68 205.62L219.93 206.37M219.93 206.37L214.56 208.56"
fill="none" stroke="black" stroke-width="9"/>
</g>
<g><path d="M185.45 225.17L214.55 208.54"
fill="none" stroke="black" stroke-width="9"/>
</g>
<g><path d="M236.79 174.85L231.42 172.66M231.42 172.66L225.68 171.91"
fill="none" stroke="black" stroke-width="9"/>
</g>
<g><path d="M265.91 191.44L271.28 193.63M271.28 193.63L277.03 194.38"
fill="none" stroke="black" stroke-width="9"/>
</g>
<g><path d="M236.8 174.83L265.9 191.46"
fill="none" stroke="black" stroke-width="9"/>
</g>
<g><path d="M236.79 208.56L231.42 206.37M231.42 206.37L225.68 205.62"
fill="none" stroke="black" stroke-width="9"/>
</g>
<g><path d="M265.91 225.15L271.28 227.34M271.28 227.34L277.03 228.09"
fill="none" stroke="black" stroke-width="9"/>
</g>
<g><path d="M236.8 208.54L265.9 225.17"
fill="none" stroke="black" stroke-width="9"/>
</g>
<g><path d="M174.32 194.38L180.07 193.63M180.07 193.63L185.44 191.44"
fill="none" stroke="black" stroke-width="9"/>
</g>
<g><path d="M225.68 171.91L219.93 172.66M219.93 172.66L214.56 174.85"
fill="none" stroke="black" stroke-width="9"/>
</g>
<g><path d="M185.45 191.46L214.55 174.83"
fill="none" stroke="black" stroke-width="9"/>
</g>
<g><path d="M165.9 202.81L167.51 197.86M167.51 197.86L171.72 194.79M171.72 194.79L176.93 194.79M176.93 194.79L181.14 197.86M181.14 197.86L182.75 202.81M182.75 202.81L181.14 207.76M181.14 207.76L176.93 210.82M176.93 210.82L171.72 210.82M171.72 210.82L167.51 207.76M167.51 207.76L165.9 202.81"
fill="none" stroke="black" stroke-width="9"/>
</g>
<g><path d="M217.25 197.19L218.86 192.24M218.86 192.24L223.07 189.18M223.07 189.18L228.28 189.18M228.28 189.18L232.49 192.24M232.49 192.24L234.1 197.19M234.1 197.19L232.49 202.14M232.49 202.14L228.28 205.21M228.28 205.21L223.07 205.21M223.07 205.21L218.86 202.14M218.86 202.14L217.25 197.19"
fill="none" stroke="black" stroke-width="9"/>
</g>
<g><path d="M268.6 202.81L270.21 197.86M270.21 197.86L274.42 194.79M274.42 194.79L279.63 194.79M279.63 194.79L283.85 197.86M283.85 197.86L285.46 202.81M285.46 202.81L283.85 207.76M283.85 207.76L279.63 210.82M279.63 210.82L274.42 210.82M274.42 210.82L270.21 207.76M270.21 207.76L268.6 202.81"
fill="none" stroke="black" stroke-width="9"/>
</g>
<g><path d="M379.73 211.24L387.46 209.87M387.46 209.87L394.25 205.92M394.25 205.92L399.27 199.88"
fill="none" stroke="black" stroke-width="9"/>
</g>
<g><path d="M163.21 191.44L168.58 193.63M168.58 193.63L174.32 194.38"
fill="none" stroke="black" stroke-width="9"/>
</g>
<g><path d="M163.21 225.15L168.58 227.34M168.58 227.34L174.32 228.09"
fill="none" stroke="black" stroke-width="9"/>
</g>
<g><path d="M277.03 194.38L282.78 193.63M282.78 193.63L288.14 191.44"
fill="none" stroke="black" stroke-width="9"/>
</g>
<g><path d="M277.03 228.09L282.78 227.34M282.78 227.34L288.14 225.15"
fill="none" stroke="black" stroke-width="9"/>
</g>
</g>
</svg>
