<?xml version="1.0" standalone="no"?><svg xmlns="http://www.w3.org/2000/svg" width="400.000" height="400.000" viewBox="0.0 0.0 400.000 400.000" version="1.1">
  <title>Produce by Acme CAD Converter</title>
  <desc>Produce by Acme CAD Converter</desc>
<g id="0" display="visible">
<g><path d="M35.53 211.76L37.51 186.62M37.51 186.62L43.4 162.1M43.4 162.1L53.05 138.8M53.05 138.8L66.23 117.3M66.23 117.3L82.61 98.12M82.61 98.12L101.78 81.74M101.78 81.74L123.29 68.56M123.29 68.56L146.59 58.91M146.59 58.91L171.11 53.03M171.11 53.03L196.25 51.05M196.25 51.05L221.39 53.03M221.39 53.03L245.91 58.91M245.91 58.91L269.21 68.56M269.21 68.56L290.72 81.74M290.72 81.74L309.89 98.12M309.89 98.12L326.27 117.3M326.27 117.3L339.45 138.8M339.45 138.8L349.1 162.1M349.1 162.1L354.99 186.62M354.99 186.62L356.97 211.76M356.97 211.76L354.99 236.91M354.99 236.91L349.1 261.43M349.1 261.43L339.45 284.73M339.45 284.73L326.27 306.23M326.27 306.23L309.89 325.41M309.89 325.41L290.72 341.79M290.72 341.79L269.21 354.96M269.21 354.96L245.91 364.61M245.91 364.61L221.39 370.5M221.39 370.5L196.25 372.48M196.25 372.48L171.11 370.5M171.11 370.5L146.59 364.61M146.59 364.61L123.29 354.96M123.29 354.96L101.78 341.79M101.78 341.79L82.61 325.41M82.61 325.41L66.23 306.23M66.23 306.23L53.05 284.73M53.05 284.73L43.4 261.43M43.4 261.43L37.51 236.91M37.51 236.91L35.53 211.76"
fill="none" stroke="black" stroke-width="3"/>
</g>
<g><path d="M169.46 211.76L171.27 202.09M171.27 202.09L176.45 193.72M176.45 193.72L184.31 187.79M184.31 187.79L193.78 185.09M193.78 185.09L203.58 186M203.58 186L212.39 190.39M212.39 190.39L219.02 197.66M219.02 197.66L222.58 206.84M222.58 206.84L222.58 216.69M222.58 216.69L219.02 225.87M219.02 225.87L212.39 233.14M212.39 233.14L203.58 237.53M203.58 237.53L193.78 238.44M193.78 238.44L184.31 235.74M184.31 235.74L176.45 229.81M176.45 229.81L171.27 221.44M171.27 221.44L169.46 211.76"
fill="none" stroke="black" stroke-width="9"/>
</g>
<g><path d="M339.82 41.4L341.63 31.73M341.63 31.73L346.81 23.36M346.81 23.36L354.67 17.43M354.67 17.43L364.14 14.73M364.14 14.73L373.94 15.64M373.94 15.64L382.75 20.03M382.75 20.03L389.38 27.3M389.38 27.3L392.94 36.48M392.94 36.48L392.94 46.33M392.94 46.33L389.38 55.51M389.38 55.51L382.75 62.78M382.75 62.78L373.94 67.17M373.94 67.17L364.14 68.08M364.14 68.08L354.67 65.38M354.67 65.38L346.81 59.45M346.81 59.45L341.63 51.08M341.63 51.08L339.82 41.4"
fill="none" stroke="black" stroke-width="9"/>
</g>
<g><path d="M196.25 24.26L196.25 399.27"
fill="none" stroke="black" stroke-width="3"/>
</g>
<g><path d="M383.75 211.76L8.75 211.76"
fill="none" stroke="black" stroke-width="3"/>
</g>
<g><path d="M215.27 192.75L347.86 60.15"
fill="none" stroke="black" stroke-width="9"/>
</g>
<g><path d="M340.09 42.74L196.25 51.05"
fill="none" stroke="black" stroke-width="9"/>
</g>
<g><path d="M75.69 68.16L57.98 85.12M57.98 85.12L42.64 104.24M42.64 104.24L29.92 125.2M29.92 125.2L20.05 147.65M20.05 147.65L13.19 171.18M13.19 171.18L9.46 195.42"
fill="none" stroke="black" stroke-width="3"/>
</g>
<g><path d="M159.02 0.73L131.82 7.39M131.82 7.39L105.72 17.54M105.72 17.54L81.16 31.01M81.16 31.01L58.57 47.56"
fill="none" stroke="black" stroke-width="3"/>
</g>
<g><path d="M75.71 68.19L58.57 47.57"
fill="none" stroke="black" stroke-width="3"/>
</g>
<g><path d="M31.91 151.94L19.2 172.9M19.2 172.9L9.33 195.34"
fill="none" stroke="black" stroke-width="3"/>
</g>
<g><path d="M7.63 143.19L6.72 169.38M6.72 169.38L9.48 195.44"
fill="none" stroke="black" stroke-width="3"/>
</g>
<g><path d="M202.14 278.47L217.08 275.41M217.08 275.41L230.93 269.05M230.93 269.05L242.98 259.73M242.98 259.73L252.62 247.92M252.62 247.92L259.33 234.23M259.33 234.23L262.78 219.38M262.78 219.38L262.78 204.14M262.78 204.14L259.33 189.3M259.33 189.3L252.62 175.61M252.62 175.61L242.98 163.8M242.98 163.8L230.93 154.48M230.93 154.48L217.08 148.12M217.08 148.12L202.14 145.06"
fill="none" stroke="black" stroke-width="3"/>
</g>
<g><path d="M232.9 168.14L224.2 158.51M224.2 158.51L213.81 150.74M213.81 150.74L202.12 145.13"
fill="none" stroke="black" stroke-width="3"/>
</g>
<g><path d="M246.05 152.35L232.09 146.58M232.09 146.58L217.2 144.09M217.2 144.09L202.13 145"
fill="none" stroke="black" stroke-width="3"/>
</g>
<g><path d="M202.12 278.4L213.81 272.78M213.81 272.78L224.2 265.02M224.2 265.02L232.9 255.39"
fill="none" stroke="black" stroke-width="3"/>
</g>
<g><path d="M202.13 278.53L217.2 279.44M217.2 279.44L232.09 276.95M232.09 276.95L246.05 271.18"
fill="none" stroke="black" stroke-width="3"/>
</g>
</g>
</svg>
