<?xml version="1.0" standalone="no"?><svg xmlns="http://www.w3.org/2000/svg" width="400.000" height="400.000" viewBox="0.0 0.0 400.000 400.000" version="1.1">
  <title>Produce by Acme CAD Converter</title>
  <desc>Produce by Acme CAD Converter</desc>
<g id="0" display="visible">
<g><path d="M323.67 248.52L379.25 106.84"
fill="none" stroke="black" stroke-width="9"/>
</g>
<g><path d="M151.48 76.33L293.16 20.75"
fill="none" stroke="black" stroke-width="9"/>
</g>
<g><path d="M151.48 76.33L130.99 86.49M130.99 86.49L112.54 100.01M112.54 100.01L96.69 116.49M96.69 116.49L83.89 135.45M83.89 135.45L74.54 156.32M74.54 156.32L68.91 178.49M68.91 178.49L67.16 201.29M67.16 201.29L69.35 224.06M69.35 224.06L75.41 246.11M75.41 246.11L85.17 266.79M85.17 266.79L98.33 285.5M98.33 285.5L114.5 301.67M114.5 301.67L133.21 314.83M133.21 314.83L153.89 324.59M153.89 324.59L175.94 330.65M175.94 330.65L198.71 332.84M198.71 332.84L221.51 331.09M221.51 331.09L243.68 325.46M243.68 325.46L264.55 316.11M264.55 316.11L283.51 303.31M283.51 303.31L299.99 287.46M299.99 287.46L313.51 269.01M313.51 269.01L323.67 248.52"
fill="none" stroke="black" stroke-width="9"/>
</g>
<g><path d="M379.25 106.84L383.17 91.98M383.17 91.98L383.57 76.62M383.57 76.62L380.43 61.58M380.43 61.58L373.92 47.66M373.92 47.66L364.39 35.61M364.39 35.61L352.34 26.08M352.34 26.08L338.42 19.57M338.42 19.57L323.38 16.43M323.38 16.43L308.02 16.83M308.02 16.83L293.16 20.75"
fill="none" stroke="black" stroke-width="9"/>
</g>
<g><path d="M0.73 200L399.27 200"
fill="none" stroke="black" stroke-width="3"/>
</g>
<g><path d="M200 399.27L200 0.73"
fill="none" stroke="black" stroke-width="3"/>
</g>
</g>
</svg>
