<?xml version="1.0" standalone="no"?><svg xmlns="http://www.w3.org/2000/svg" width="400.000" height="400.000" viewBox="0.0 0.0 400.000 400.000" version="1.1">
  <title>Produce by Acme CAD Converter</title>
  <desc>Produce by Acme CAD Converter</desc>
<g id="0" display="visible">
<g><path d="M42.68 200L44.65 181.96M44.65 181.96L50.44 164.77M50.44 164.77L59.79 149.22M59.79 149.22L72.27 136.05M72.27 136.05L87.29 125.87M87.29 125.87L104.14 119.16M104.14 119.16L122.04 116.22M122.04 116.22L140.16 117.2M140.16 117.2L157.64 122.06M157.64 122.06L173.67 130.56M173.67 130.56L187.5 142.3M187.5 142.3L198.48 156.74M198.48 156.74L206.1 173.21M206.1 173.21L210 190.93M210 190.93L210 209.07M210 209.07L206.1 226.79M206.1 226.79L198.48 243.26M198.48 243.26L187.5 257.7M187.5 257.7L173.67 269.44M173.67 269.44L157.64 277.94M157.64 277.94L140.16 282.8M140.16 282.8L122.04 283.78M122.04 283.78L104.14 280.84M104.14 280.84L87.29 274.13M87.29 274.13L72.27 263.95M72.27 263.95L59.79 250.78M59.79 250.78L50.44 235.23M50.44 235.23L44.65 218.04M44.65 218.04L42.68 200"
fill="none" stroke="black" stroke-width="9"/>
</g>
<g><path d="M189.51 200L191.47 181.96M191.47 181.96L197.27 164.77M197.27 164.77L206.62 149.22M206.62 149.22L219.1 136.05M219.1 136.05L234.11 125.87M234.11 125.87L250.97 119.16M250.97 119.16L268.87 116.22M268.87 116.22L286.99 117.2M286.99 117.2L304.47 122.06M304.47 122.06L320.5 130.56M320.5 130.56L334.33 142.3M334.33 142.3L345.31 156.74M345.31 156.74L352.92 173.21M352.92 173.21L356.82 190.93M356.82 190.93L356.82 209.07M356.82 209.07L352.92 226.79M352.92 226.79L345.31 243.26M345.31 243.26L334.33 257.7M334.33 257.7L320.5 269.44M320.5 269.44L304.47 277.94M304.47 277.94L286.99 282.8M286.99 282.8L268.87 283.78M268.87 283.78L250.97 280.84M250.97 280.84L234.11 274.13M234.11 274.13L219.1 263.95M219.1 263.95L206.62 250.78M206.62 250.78L197.27 235.23M197.27 235.23L191.47 218.04M191.47 218.04L189.51 200"
fill="none" stroke="black" stroke-width="9"/>
</g>
<g><path d="M0.73 200L399.27 200"
fill="none" stroke="black" stroke-width="3"/>
</g>
<g><path d="M126.59 74.15L126.59 325.85"
fill="none" stroke="black" stroke-width="3"/>
</g>
<g><path d="M273.41 74.15L273.41 325.85"
fill="none" stroke="black" stroke-width="3"/>
</g>
</g>
</svg>
