<?xml version="1.0" standalone="no"?><svg xmlns="http://www.w3.org/2000/svg" width="400.000" height="400.000" viewBox="0.0 0.0 400.000 400.000" version="1.1">
  <title>Produce by Acme CAD Converter</title>
  <desc>Produce by Acme CAD Converter</desc>
<g id="0" display="visible">
<g><path d="M109.42 200L399.27 200"
fill="none" stroke="black" stroke-width="3"/>
</g>
<g><path d="M254.35 55.08L254.35 344.92"
fill="none" stroke="black" stroke-width="3"/>
</g>
<g><path d="M0.73 91.31L254.35 344.92"
fill="none" stroke="black" stroke-width="9"/>
</g>
<g><path d="M0.73 308.69L254.35 55.08"
fill="none" stroke="black" stroke-width="9"/>
</g>
<g><path d="M151.81 200L153.78 180M153.78 180L159.62 160.76M159.62 160.76L169.09 143.04M169.09 143.04L181.84 127.5M181.84 127.5L197.38 114.75M197.38 114.75L215.11 105.27M215.11 105.27L234.34 99.44M234.34 99.44L254.35 97.47M254.35 97.47L274.35 99.44M274.35 99.44L293.58 105.27M293.58 105.27L311.31 114.75M311.31 114.75L326.85 127.5M326.85 127.5L339.6 143.04M339.6 143.04L349.07 160.76M349.07 160.76L354.91 180M354.91 180L356.88 200M356.88 200L354.91 220M354.91 220L349.07 239.24M349.07 239.24L339.6 256.96M339.6 256.96L326.85 272.5M326.85 272.5L311.31 285.25M311.31 285.25L293.58 294.73M293.58 294.73L274.35 300.56M274.35 300.56L254.35 302.53M254.35 302.53L234.34 300.56M234.34 300.56L215.11 294.73M215.11 294.73L197.38 285.25M197.38 285.25L181.84 272.5M181.84 272.5L169.09 256.96M169.09 256.96L159.62 239.24M159.62 239.24L153.78 220M153.78 220L151.81 200"
fill="none" stroke="black" stroke-width="9"/>
</g>
</g>
</svg>
