<?xml version="1.0" standalone="no"?><svg xmlns="http://www.w3.org/2000/svg" width="400.000" height="400.000" viewBox="0.0 0.0 400.000 400.000" version="1.1">
  <title>Produce by Acme CAD Converter</title>
  <desc>Produce by Acme CAD Converter</desc>
<g id="0" display="visible">
<g><path d="M0.73 200L399.27 200"
fill="none" stroke="black" stroke-width="3"/>
</g>
<g><path d="M122.03 78.71L122.03 321.29"
fill="none" stroke="black" stroke-width="3"/>
</g>
<g><path d="M260.65 61.38L260.65 338.62"
fill="none" stroke="black" stroke-width="3"/>
</g>
<g><path d="M35.39 113.36L174.01 251.98"
fill="none" stroke="black" stroke-width="3"/>
</g>
<g><path d="M35.39 286.64L174.01 148.02"
fill="none" stroke="black" stroke-width="3"/>
</g>
<g><path d="M161.01 200L162.93 180.56M162.93 180.56L168.6 161.87M168.6 161.87L177.8 144.65M177.8 144.65L190.19 129.55M190.19 129.55L205.29 117.16M205.29 117.16L222.52 107.95M222.52 107.95L241.21 102.28M241.21 102.28L260.65 100.37M260.65 100.37L280.08 102.28M280.08 102.28L298.77 107.95M298.77 107.95L316 117.16M316 117.16L331.1 129.55M331.1 129.55L343.49 144.65M343.49 144.65L352.7 161.87M352.7 161.87L358.37 180.56M358.37 180.56L360.28 200M360.28 200L358.37 219.44M358.37 219.44L352.7 238.13M352.7 238.13L343.49 255.35M343.49 255.35L331.1 270.45M331.1 270.45L316 282.84M316 282.84L298.77 292.05M298.77 292.05L280.08 297.72M280.08 297.72L260.65 299.63M260.65 299.63L241.21 297.72M241.21 297.72L222.52 292.05M222.52 292.05L205.29 282.84M205.29 282.84L190.19 270.45M190.19 270.45L177.8 255.35M177.8 255.35L168.6 238.13M168.6 238.13L162.93 219.44M162.93 219.44L161.01 200"
fill="none" stroke="black" stroke-width="9"/>
</g>
<g><path d="M171.04 289.61L160.53 280.99M160.53 280.99L148.55 274.59M148.55 274.59L135.55 270.64M135.55 270.64L122.03 269.31"
fill="none" stroke="black" stroke-width="9"/>
</g>
<g><path d="M211.68 248.97L203.49 243.24M203.49 243.24L193.84 240.66M193.84 240.66L183.89 241.53M183.89 241.53L174.84 245.75M174.84 245.75L167.77 252.81M167.77 252.81L163.55 261.87M163.55 261.87L162.68 271.82M162.68 271.82L165.27 281.47M165.27 281.47L171 289.65"
fill="none" stroke="black" stroke-width="9"/>
</g>
<g><path d="M191.34 200L192.67 213.52M192.67 213.52L196.61 226.52M196.61 226.52L203.02 238.51M203.02 238.51L211.64 249.01"
fill="none" stroke="black" stroke-width="9"/>
</g>
<g><path d="M122.03 130.69L135.55 129.36M135.55 129.36L148.55 125.41M148.55 125.41L160.53 119.01M160.53 119.01L171.04 110.39"
fill="none" stroke="black" stroke-width="9"/>
</g>
<g><path d="M171 110.35L165.27 118.53M165.27 118.53L162.68 128.18M162.68 128.18L163.55 138.13M163.55 138.13L167.77 147.19M167.77 147.19L174.84 154.25M174.84 154.25L183.89 158.47M183.89 158.47L193.84 159.34M193.84 159.34L203.49 156.76M203.49 156.76L211.68 151.03"
fill="none" stroke="black" stroke-width="9"/>
</g>
<g><path d="M211.64 150.99L203.02 161.49M203.02 161.49L196.61 173.48M196.61 173.48L192.67 186.48M192.67 186.48L191.34 200"
fill="none" stroke="black" stroke-width="9"/>
</g>
<g><path d="M122.03 269.31L108.5 270.64M108.5 270.64L95.5 274.59M95.5 274.59L83.52 280.99M83.52 280.99L73.02 289.61"
fill="none" stroke="black" stroke-width="9"/>
</g>
<g><path d="M73.05 289.65L78.78 281.47M78.78 281.47L81.37 271.82M81.37 271.82L80.5 261.87M80.5 261.87L76.28 252.81M76.28 252.81L69.21 245.75M69.21 245.75L60.16 241.53M60.16 241.53L50.21 240.66M50.21 240.66L40.56 243.24M40.56 243.24L32.38 248.97"
fill="none" stroke="black" stroke-width="9"/>
</g>
<g><path d="M32.42 249.01L41.04 238.51M41.04 238.51L47.44 226.52M47.44 226.52L51.38 213.52M51.38 213.52L52.72 200"
fill="none" stroke="black" stroke-width="9"/>
</g>
<g><path d="M73.02 110.39L83.52 119.01M83.52 119.01L95.5 125.41M95.5 125.41L108.5 129.36M108.5 129.36L122.03 130.69"
fill="none" stroke="black" stroke-width="9"/>
</g>
<g><path d="M32.38 151.03L40.56 156.76M40.56 156.76L50.21 159.34M50.21 159.34L60.16 158.47M60.16 158.47L69.21 154.25M69.21 154.25L76.28 147.19M76.28 147.19L80.5 138.13M80.5 138.13L81.37 128.18M81.37 128.18L78.78 118.53M78.78 118.53L73.05 110.35"
fill="none" stroke="black" stroke-width="9"/>
</g>
<g><path d="M52.72 200L51.38 186.48M51.38 186.48L47.44 173.48M47.44 173.48L41.04 161.49M41.04 161.49L32.42 150.99"
fill="none" stroke="black" stroke-width="9"/>
</g>
</g>
</svg>
