<?xml version="1.0" standalone="no"?><svg xmlns="http://www.w3.org/2000/svg" width="400.000" height="400.000" viewBox="0.0 0.0 400.000 400.000" version="1.1">
  <title>Produce by Acme CAD Converter</title>
  <desc>Produce by Acme CAD Converter</desc>
<g id="0" display="visible">
<g><path d="M385.98 200L14.02 200"
fill="none" stroke="black" stroke-width="3"/>
</g>
<g><path d="M200 14.02L200 385.98"
fill="none" stroke="black" stroke-width="3"/>
</g>
<g><path d="M67.16 67.16L332.84 332.84"
fill="none" stroke="black" stroke-width="3"/>
</g>
<g><path d="M332.84 67.16L67.16 332.84"
fill="none" stroke="black" stroke-width="3"/>
</g>
<g><path d="M253.14 200L255.11 185.66M255.11 185.66L260.87 172.39M260.87 172.39L270.01 161.16M270.01 161.16L281.83 152.82M281.83 152.82L295.46 147.97M295.46 147.97L309.9 146.99M309.9 146.99L324.07 149.93M324.07 149.93L336.92 156.59M336.92 156.59L347.5 166.47M347.5 166.47L355.01 178.83M355.01 178.83L358.92 192.76M358.92 192.76L358.92 207.24M358.92 207.24L355.01 221.17M355.01 221.17L347.5 233.53M347.5 233.53L336.92 243.41M336.92 243.41L324.07 250.07M324.07 250.07L309.9 253.01M309.9 253.01L295.46 252.03M295.46 252.03L281.83 247.18M281.83 247.18L270.01 238.84M270.01 238.84L260.87 227.61M260.87 227.61L255.11 214.34M255.11 214.34L253.14 200"
fill="none" stroke="black" stroke-width="9"/>
</g>
<g><path d="M40.59 200L42.55 175.06M42.55 175.06L48.39 150.74M48.39 150.74L57.96 127.63M57.96 127.63L71.03 106.3M71.03 106.3L87.28 87.28M87.28 87.28L106.3 71.03M106.3 71.03L127.63 57.96M127.63 57.96L150.74 48.39M150.74 48.39L175.06 42.55M175.06 42.55L200 40.59M200 40.59L224.94 42.55M224.94 42.55L249.26 48.39M249.26 48.39L272.37 57.96M272.37 57.96L293.7 71.03M293.7 71.03L312.72 87.28M312.72 87.28L328.97 106.3M328.97 106.3L342.04 127.63M342.04 127.63L351.61 150.74M351.61 150.74L357.45 175.06M357.45 175.06L359.41 200M359.41 200L357.45 224.94M357.45 224.94L351.61 249.26M351.61 249.26L342.04 272.37M342.04 272.37L328.97 293.7M328.97 293.7L312.72 312.72M312.72 312.72L293.7 328.97M293.7 328.97L272.37 342.04M272.37 342.04L249.26 351.61M249.26 351.61L224.94 357.45M224.94 357.45L200 359.41M200 359.41L175.06 357.45M175.06 357.45L150.74 351.61M150.74 351.61L127.63 342.04M127.63 342.04L106.3 328.97M106.3 328.97L87.28 312.72M87.28 312.72L71.03 293.7M71.03 293.7L57.96 272.37M57.96 272.37L48.39 249.26M48.39 249.26L42.55 224.94M42.55 224.94L40.59 200"
fill="none" stroke="black" stroke-width="9"/>
</g>
<g><path d="M200 133.58L215.9 131.65M215.9 131.65L230.87 125.97M230.87 125.97L244.05 116.87M244.05 116.87L254.66 104.89M254.66 104.89L262.11 90.71M262.11 90.71L265.94 75.16M265.94 75.16L265.94 59.15M265.94 59.15L262.11 43.6M262.11 43.6L254.66 29.42M254.66 29.42L244.05 17.44M244.05 17.44L230.87 8.34M230.87 8.34L215.9 2.66M215.9 2.66L200 0.73M200 0.73L184.1 2.66M184.1 2.66L169.13 8.34M169.13 8.34L155.95 17.44M155.95 17.44L145.34 29.42M145.34 29.42L137.89 43.6M137.89 43.6L134.06 59.15M134.06 59.15L134.06 75.16M134.06 75.16L137.89 90.71M137.89 90.71L145.34 104.89M145.34 104.89L155.95 116.87M155.95 116.87L169.13 125.97M169.13 125.97L184.1 131.65M184.1 131.65L200 133.58"
fill="none" stroke="black" stroke-width="9"/>
</g>
<g><path d="M266.42 200L268.35 215.9M268.35 215.9L274.03 230.87M274.03 230.87L283.13 244.05M283.13 244.05L295.11 254.66M295.11 254.66L309.29 262.11M309.29 262.11L324.84 265.94M324.84 265.94L340.85 265.94M340.85 265.94L356.4 262.11M356.4 262.11L370.58 254.66M370.58 254.66L382.56 244.05M382.56 244.05L391.66 230.87M391.66 230.87L397.34 215.9M397.34 215.9L399.27 200M399.27 200L397.34 184.1M397.34 184.1L391.66 169.13M391.66 169.13L382.56 155.95M382.56 155.95L370.58 145.34M370.58 145.34L356.4 137.89M356.4 137.89L340.85 134.06M340.85 134.06L324.84 134.06M324.84 134.06L309.29 137.89M309.29 137.89L295.11 145.34M295.11 145.34L283.13 155.95M283.13 155.95L274.03 169.13M274.03 169.13L268.35 184.1M268.35 184.1L266.42 200"
fill="none" stroke="black" stroke-width="9"/>
</g>
<g><path d="M246.88 153.12L255.26 158.86M255.26 158.86L265.15 161.18M265.15 161.18L275.2 159.78M275.2 159.78L284.07 154.84M284.07 154.84L290.56 147.02M290.56 147.02L293.79 137.4M293.79 137.4L293.32 127.25M293.32 127.25L289.22 117.96M289.22 117.96L282.04 110.78M282.04 110.78L272.75 106.68M272.75 106.68L262.6 106.21M262.6 106.21L252.98 109.44M252.98 109.44L245.16 115.93M245.16 115.93L240.22 124.8M240.22 124.8L238.82 134.85M238.82 134.85L241.14 144.74M241.14 144.74L246.88 153.12"
fill="none" stroke="black" stroke-width="9"/>
</g>
<g><path d="M266.42 200L268.35 215.9M268.35 215.9L274.03 230.87M274.03 230.87L283.13 244.05M283.13 244.05L295.11 254.66M295.11 254.66L309.29 262.11M309.29 262.11L324.84 265.94M324.84 265.94L340.85 265.94M340.85 265.94L356.4 262.11M356.4 262.11L370.58 254.66M370.58 254.66L382.56 244.05M382.56 244.05L391.66 230.87M391.66 230.87L397.34 215.9M397.34 215.9L399.27 200M399.27 200L397.34 184.1M397.34 184.1L391.66 169.13M391.66 169.13L382.56 155.95M382.56 155.95L370.58 145.34M370.58 145.34L356.4 137.89M356.4 137.89L340.85 134.06M340.85 134.06L324.84 134.06M324.84 134.06L309.29 137.89M309.29 137.89L295.11 145.34M295.11 145.34L283.13 155.95M283.13 155.95L274.03 169.13M274.03 169.13L268.35 184.1M268.35 184.1L266.42 200"
fill="none" stroke="black" stroke-width="9"/>
</g>
<g><path d="M200 266.42L184.1 268.35M184.1 268.35L169.13 274.03M169.13 274.03L155.95 283.13M155.95 283.13L145.34 295.11M145.34 295.11L137.89 309.29M137.89 309.29L134.06 324.84M134.06 324.84L134.06 340.85M134.06 340.85L137.89 356.4M137.89 356.4L145.34 370.58M145.34 370.58L155.95 382.56M155.95 382.56L169.13 391.66M169.13 391.66L184.1 397.34M184.1 397.34L200 399.27M200 399.27L215.9 397.34M215.9 397.34L230.87 391.66M230.87 391.66L244.05 382.56M244.05 382.56L254.66 370.58M254.66 370.58L262.11 356.4M262.11 356.4L265.94 340.85M265.94 340.85L265.94 324.84M265.94 324.84L262.11 309.29M262.11 309.29L254.66 295.11M254.66 295.11L244.05 283.13M244.05 283.13L230.87 274.03M230.87 274.03L215.9 268.35M215.9 268.35L200 266.42"
fill="none" stroke="black" stroke-width="9"/>
</g>
<g><path d="M246.88 246.88L241.14 255.26M241.14 255.26L238.82 265.15M238.82 265.15L240.22 275.2M240.22 275.2L245.16 284.07M245.16 284.07L252.98 290.56M252.98 290.56L262.6 293.79M262.6 293.79L272.75 293.32M272.75 293.32L282.04 289.22M282.04 289.22L289.22 282.04M289.22 282.04L293.32 272.75M293.32 272.75L293.79 262.6M293.79 262.6L290.56 252.98M290.56 252.98L284.07 245.16M284.07 245.16L275.2 240.22M275.2 240.22L265.15 238.82M265.15 238.82L255.26 241.14M255.26 241.14L246.88 246.88"
fill="none" stroke="black" stroke-width="9"/>
</g>
<g><path d="M200 266.42L184.1 268.35M184.1 268.35L169.13 274.03M169.13 274.03L155.95 283.13M155.95 283.13L145.34 295.11M145.34 295.11L137.89 309.29M137.89 309.29L134.06 324.84M134.06 324.84L134.06 340.85M134.06 340.85L137.89 356.4M137.89 356.4L145.34 370.58M145.34 370.58L155.95 382.56M155.95 382.56L169.13 391.66M169.13 391.66L184.1 397.34M184.1 397.34L200 399.27M200 399.27L215.9 397.34M215.9 397.34L230.87 391.66M230.87 391.66L244.05 382.56M244.05 382.56L254.66 370.58M254.66 370.58L262.11 356.4M262.11 356.4L265.94 340.85M265.94 340.85L265.94 324.84M265.94 324.84L262.11 309.29M262.11 309.29L254.66 295.11M254.66 295.11L244.05 283.13M244.05 283.13L230.87 274.03M230.87 274.03L215.9 268.35M215.9 268.35L200 266.42"
fill="none" stroke="black" stroke-width="9"/>
</g>
<g><path d="M133.58 200L131.65 184.1M131.65 184.1L125.97 169.13M125.97 169.13L116.87 155.95M116.87 155.95L104.89 145.34M104.89 145.34L90.71 137.89M90.71 137.89L75.16 134.06M75.16 134.06L59.15 134.06M59.15 134.06L43.6 137.89M43.6 137.89L29.42 145.34M29.42 145.34L17.44 155.95M17.44 155.95L8.34 169.13M8.34 169.13L2.66 184.1M2.66 184.1L0.73 200M0.73 200L2.66 215.9M2.66 215.9L8.34 230.87M8.34 230.87L17.44 244.05M17.44 244.05L29.42 254.66M29.42 254.66L43.6 262.11M43.6 262.11L59.15 265.94M59.15 265.94L75.16 265.94M75.16 265.94L90.71 262.11M90.71 262.11L104.89 254.66M104.89 254.66L116.87 244.05M116.87 244.05L125.97 230.87M125.97 230.87L131.65 215.9M131.65 215.9L133.58 200"
fill="none" stroke="black" stroke-width="9"/>
</g>
<g><path d="M153.12 246.88L144.74 241.14M144.74 241.14L134.85 238.82M134.85 238.82L124.8 240.22M124.8 240.22L115.93 245.16M115.93 245.16L109.44 252.98M109.44 252.98L106.21 262.6M106.21 262.6L106.68 272.75M106.68 272.75L110.78 282.04M110.78 282.04L117.96 289.22M117.96 289.22L127.25 293.32M127.25 293.32L137.4 293.79M137.4 293.79L147.02 290.56M147.02 290.56L154.84 284.07M154.84 284.07L159.78 275.2M159.78 275.2L161.18 265.15M161.18 265.15L158.86 255.26M158.86 255.26L153.12 246.88"
fill="none" stroke="black" stroke-width="9"/>
</g>
<g><path d="M133.58 200L131.65 184.1M131.65 184.1L125.97 169.13M125.97 169.13L116.87 155.95M116.87 155.95L104.89 145.34M104.89 145.34L90.71 137.89M90.71 137.89L75.16 134.06M75.16 134.06L59.15 134.06M59.15 134.06L43.6 137.89M43.6 137.89L29.42 145.34M29.42 145.34L17.44 155.95M17.44 155.95L8.34 169.13M8.34 169.13L2.66 184.1M2.66 184.1L0.73 200M0.73 200L2.66 215.9M2.66 215.9L8.34 230.87M8.34 230.87L17.44 244.05M17.44 244.05L29.42 254.66M29.42 254.66L43.6 262.11M43.6 262.11L59.15 265.94M59.15 265.94L75.16 265.94M75.16 265.94L90.71 262.11M90.71 262.11L104.89 254.66M104.89 254.66L116.87 244.05M116.87 244.05L125.97 230.87M125.97 230.87L131.65 215.9M131.65 215.9L133.58 200"
fill="none" stroke="black" stroke-width="9"/>
</g>
<g><path d="M200 133.58L215.9 131.65M215.9 131.65L230.87 125.97M230.87 125.97L244.05 116.87M244.05 116.87L254.66 104.89M254.66 104.89L262.11 90.71M262.11 90.71L265.94 75.16M265.94 75.16L265.94 59.15M265.94 59.15L262.11 43.6M262.11 43.6L254.66 29.42M254.66 29.42L244.05 17.44M244.05 17.44L230.87 8.34M230.87 8.34L215.9 2.66M215.9 2.66L200 0.73M200 0.73L184.1 2.66M184.1 2.66L169.13 8.34M169.13 8.34L155.95 17.44M155.95 17.44L145.34 29.42M145.34 29.42L137.89 43.6M137.89 43.6L134.06 59.15M134.06 59.15L134.06 75.16M134.06 75.16L137.89 90.71M137.89 90.71L145.34 104.89M145.34 104.89L155.95 116.87M155.95 116.87L169.13 125.97M169.13 125.97L184.1 131.65M184.1 131.65L200 133.58"
fill="none" stroke="black" stroke-width="9"/>
</g>
<g><path d="M153.12 153.12L158.86 144.74M158.86 144.74L161.18 134.85M161.18 134.85L159.78 124.8M159.78 124.8L154.84 115.93M154.84 115.93L147.02 109.44M147.02 109.44L137.4 106.21M137.4 106.21L127.25 106.68M127.25 106.68L117.96 110.78M117.96 110.78L110.78 117.96M110.78 117.96L106.68 127.25M106.68 127.25L106.21 137.4M106.21 137.4L109.44 147.02M109.44 147.02L115.93 154.84M115.93 154.84L124.8 159.78M124.8 159.78L134.85 161.18M134.85 161.18L144.74 158.86M144.74 158.86L153.12 153.12"
fill="none" stroke="black" stroke-width="9"/>
</g>
</g>
</svg>
