<?xml version="1.0" standalone="no"?><svg xmlns="http://www.w3.org/2000/svg" width="400.000" height="400.000" viewBox="0.0 0.0 400.000 400.000" version="1.1">
  <title>Produce by Acme CAD Converter</title>
  <desc>Produce by Acme CAD Converter</desc>
<g id="0" display="visible">
<g><path d="M0.73 212.76L6.49 219.69M6.49 219.69L14.28 224.22M14.28 224.22L23.16 225.8"
fill="none" stroke="black" stroke-width="9"/>
</g>
<g><path d="M23.16 225.8L29.75 224.94M29.75 224.94L35.91 222.42"
fill="none" stroke="black" stroke-width="9"/>
</g>
<g><path d="M82.1 200L75.51 200.86M75.51 200.86L69.35 203.38"
fill="none" stroke="black" stroke-width="9"/>
</g>
<g><path d="M35.93 222.44L69.33 203.35"
fill="none" stroke="black" stroke-width="9"/>
</g>
<g><path d="M94.86 203.38L88.7 200.86M88.7 200.86L82.1 200"
fill="none" stroke="black" stroke-width="9"/>
</g>
<g><path d="M128.29 222.42L134.45 224.94M134.45 224.94L141.05 225.8"
fill="none" stroke="black" stroke-width="9"/>
</g>
<g><path d="M94.87 203.35L128.28 222.44"
fill="none" stroke="black" stroke-width="9"/>
</g>
<g><path d="M141.05 225.8L147.65 224.94M147.65 224.94L153.81 222.42"
fill="none" stroke="black" stroke-width="9"/>
</g>
<g><path d="M200 200L193.4 200.86M193.4 200.86L187.24 203.38"
fill="none" stroke="black" stroke-width="9"/>
</g>
<g><path d="M153.82 222.44L187.23 203.35"
fill="none" stroke="black" stroke-width="9"/>
</g>
<g><path d="M212.76 203.38L206.6 200.86M206.6 200.86L200 200"
fill="none" stroke="black" stroke-width="9"/>
</g>
<g><path d="M246.19 222.42L252.35 224.94M252.35 224.94L258.95 225.8"
fill="none" stroke="black" stroke-width="9"/>
</g>
<g><path d="M212.77 203.35L246.18 222.44"
fill="none" stroke="black" stroke-width="9"/>
</g>
<g><path d="M258.95 225.8L265.55 224.94M265.55 224.94L271.71 222.42"
fill="none" stroke="black" stroke-width="9"/>
</g>
<g><path d="M317.9 200L311.3 200.86M311.3 200.86L305.14 203.38"
fill="none" stroke="black" stroke-width="9"/>
</g>
<g><path d="M271.72 222.44L305.13 203.35"
fill="none" stroke="black" stroke-width="9"/>
</g>
<g><path d="M330.65 203.38L324.49 200.86M324.49 200.86L317.9 200"
fill="none" stroke="black" stroke-width="9"/>
</g>
<g><path d="M364.09 222.42L370.25 224.94M370.25 224.94L376.84 225.8"
fill="none" stroke="black" stroke-width="9"/>
</g>
<g><path d="M330.67 203.35L364.07 222.44"
fill="none" stroke="black" stroke-width="9"/>
</g>
<g><path d="M376.84 225.8L385.72 224.22M385.72 224.22L393.51 219.69M393.51 219.69L399.27 212.76"
fill="none" stroke="black" stroke-width="9"/>
</g>
<g><path d="M232.26 193.54L222.72 186.54M222.72 186.54L211.74 182.15M211.74 182.15L200 180.65M200 180.65L188.26 182.15M188.26 182.15L177.28 186.54M177.28 186.54L167.74 193.54"
fill="none" stroke="black" stroke-width="9"/>
</g>
<g><path d="M212.76 222.72L204.43 219.73M204.43 219.73L195.57 219.73M195.57 219.73L187.24 222.72"
fill="none" stroke="black" stroke-width="9"/>
</g>
<g><path d="M167.75 233.8L187.23 222.7"
fill="none" stroke="black" stroke-width="9"/>
</g>
<g><path d="M212.77 222.7L232.25 233.8"
fill="none" stroke="black" stroke-width="9"/>
</g>
<g><path d="M200 90.36L200 180.65"
fill="none" stroke="black" stroke-width="3"/>
</g>
<g><path d="M200 90.36L208 114.87"
fill="none" stroke="black" stroke-width="3"/>
</g>
<g><path d="M200 90.36L192 114.87"
fill="none" stroke="black" stroke-width="3"/>
</g>
<g><path d="M200 309.64L200 219.35"
fill="none" stroke="black" stroke-width="3"/>
</g>
<g><path d="M200 309.64L192 285.13"
fill="none" stroke="black" stroke-width="3"/>
</g>
<g><path d="M200 309.64L208 285.13"
fill="none" stroke="black" stroke-width="3"/>
</g>
</g>
</svg>
