<?xml version="1.0" standalone="no"?><svg xmlns="http://www.w3.org/2000/svg" width="400.000" height="400.000" viewBox="0.0 0.0 400.000 400.000" version="1.1">
  <title>Produce by Acme CAD Converter</title>
  <desc>Produce by Acme CAD Converter</desc>
<g id="0" display="visible">
<g><path d="M267.45 226.46L297.77 149.19"
fill="none" stroke="black" stroke-width="9"/>
</g>
<g><path d="M173.54 132.55L250.81 102.23"
fill="none" stroke="black" stroke-width="9"/>
</g>
<g><path d="M173.54 132.55L158.66 140.49M158.66 140.49L146.03 151.65M146.03 151.65L136.32 165.43M136.32 165.43L130.05 181.09M130.05 181.09L127.57 197.77M127.57 197.77L129.02 214.56M129.02 214.56L134.31 230.57M134.31 230.57L143.15 244.93M143.15 244.93L155.07 256.85M155.07 256.85L169.43 265.69M169.43 265.69L185.44 270.98M185.44 270.98L202.23 272.43M202.23 272.43L218.91 269.95M218.91 269.95L234.57 263.68M234.57 263.68L248.35 253.97M248.35 253.97L259.51 241.34M259.51 241.34L267.45 226.46"
fill="none" stroke="black" stroke-width="9"/>
</g>
<g><path d="M297.77 149.19L300.24 137.5M300.24 137.5L298.78 125.64M298.78 125.64L293.54 114.91M293.54 114.91L285.09 106.46M285.09 106.46L274.36 101.22M274.36 101.22L262.5 99.76M262.5 99.76L250.81 102.23"
fill="none" stroke="black" stroke-width="9"/>
</g>
<g><path d="M284.32 233.08L314.64 155.8"
fill="none" stroke="black" stroke-width="9"/>
</g>
<g><path d="M166.92 115.68L244.2 85.36"
fill="none" stroke="black" stroke-width="9"/>
</g>
<g><path d="M166.92 115.68L150.17 124.36M150.17 124.36L135.58 136.33M135.58 136.33L123.79 151.05M123.79 151.05L115.3 167.9M115.3 167.9L110.49 186.14M110.49 186.14L109.56 204.99M109.56 204.99L112.56 223.61M112.56 223.61L119.34 241.21M119.34 241.21L129.63 257.03M129.63 257.03L142.97 270.37M142.97 270.37L158.79 280.66M158.79 280.66L176.39 287.44M176.39 287.44L195.01 290.44M195.01 290.44L213.86 289.51M213.86 289.51L232.1 284.7M232.1 284.7L248.95 276.21M248.95 276.21L263.67 264.42M263.67 264.42L275.64 249.83M275.64 249.83L284.32 233.08"
fill="none" stroke="black" stroke-width="9"/>
</g>
<g><path d="M314.64 155.8L318.03 142.26M318.03 142.26L317.85 128.3M317.85 128.3L314.12 114.84M314.12 114.84L307.09 102.78M307.09 102.78L297.22 92.91M297.22 92.91L285.16 85.88M285.16 85.88L271.7 82.15M271.7 82.15L257.74 81.97M257.74 81.97L244.2 85.36"
fill="none" stroke="black" stroke-width="9"/>
</g>
<g><path d="M27.91 200L29.83 174.35M29.83 174.35L35.55 149.27M35.55 149.27L44.95 125.33M44.95 125.33L57.81 103.06M57.81 103.06L73.85 82.95M73.85 82.95L92.7 65.45M92.7 65.45L113.95 50.96M113.95 50.96L137.13 39.8M137.13 39.8L161.71 32.22M161.71 32.22L187.14 28.39M187.14 28.39L212.86 28.39M212.86 28.39L238.29 32.22M238.29 32.22L262.87 39.8M262.87 39.8L286.05 50.96M286.05 50.96L307.3 65.45M307.3 65.45L326.15 82.95M326.15 82.95L342.19 103.06M342.19 103.06L355.05 125.33M355.05 125.33L364.45 149.27M364.45 149.27L370.17 174.35M370.17 174.35L372.09 200M372.09 200L370.17 225.65M370.17 225.65L364.45 250.73M364.45 250.73L355.05 274.67M355.05 274.67L342.19 296.94M342.19 296.94L326.15 317.05M326.15 317.05L307.3 334.55M307.3 334.55L286.05 349.04M286.05 349.04L262.87 360.2M262.87 360.2L238.29 367.78M238.29 367.78L212.86 371.61M212.86 371.61L187.14 371.61M187.14 371.61L161.71 367.78M161.71 367.78L137.13 360.2M137.13 360.2L113.95 349.04M113.95 349.04L92.7 334.55M92.7 334.55L73.85 317.05M73.85 317.05L57.81 296.94M57.81 296.94L44.95 274.67M44.95 274.67L35.55 250.73M35.55 250.73L29.83 225.65M29.83 225.65L27.91 200"
fill="none" stroke="black" stroke-width="9"/>
</g>
<g><path d="M0.73 200L399.27 200"
fill="none" stroke="black" stroke-width="3"/>
</g>
<g><path d="M200 399.27L200 0.73"
fill="none" stroke="black" stroke-width="3"/>
</g>
</g>
</svg>
