<?xml version="1.0" standalone="no"?><svg xmlns="http://www.w3.org/2000/svg" width="400.000" height="400.000" viewBox="0.0 0.0 400.000 400.000" version="1.1">
  <title>Produce by Acme CAD Converter</title>
  <desc>Produce by Acme CAD Converter</desc>
<g id="0" display="visible">
<g><path d="M20.66 200L399.27 200"
fill="none" stroke="black" stroke-width="3"/>
</g>
<g><path d="M259.78 75.46L259.78 324.54"
fill="none" stroke="black" stroke-width="3"/>
</g>
<g><path d="M0.73 100.37L200 299.63"
fill="none" stroke="black" stroke-width="3"/>
</g>
<g><path d="M0.73 299.63L200 100.37"
fill="none" stroke="black" stroke-width="3"/>
</g>
<g><path d="M100.37 120.29L100.37 279.71"
fill="none" stroke="black" stroke-width="3"/>
</g>
<g><path d="M178.76 118.98L165.92 134.28M165.92 134.28L155.94 151.58M155.94 151.58L149.11 170.34M149.11 170.34L145.64 190.01M145.64 190.01L145.64 209.99M145.64 209.99L149.11 229.66M149.11 229.66L155.94 248.42M155.94 248.42L165.92 265.72M165.92 265.72L178.76 281.02"
fill="none" stroke="black" stroke-width="9"/>
</g>
<g><path d="M178.76 281.02L194.69 294.3M194.69 294.3L212.76 304.48M212.76 304.48L232.36 311.25M232.36 311.25L252.86 314.37M252.86 314.37L273.59 313.74M273.59 313.74L293.87 309.39M293.87 309.39L313.03 301.45M313.03 301.45L330.44 290.19M330.44 290.19L345.54 275.98M345.54 275.98L357.83 259.28M357.83 259.28L366.91 240.63M366.91 240.63L372.48 220.65M372.48 220.65L374.36 200M374.36 200L372.48 179.35M372.48 179.35L366.91 159.37M366.91 159.37L357.83 140.72M357.83 140.72L345.54 124.02M345.54 124.02L330.44 109.81M330.44 109.81L313.03 98.55M313.03 98.55L293.87 90.61M293.87 90.61L273.59 86.26M273.59 86.26L252.86 85.63M252.86 85.63L232.36 88.75M232.36 88.75L212.76 95.52M212.76 95.52L194.69 105.7M194.69 105.7L178.76 118.98"
fill="none" stroke="black" stroke-width="3"/>
</g>
<g><path d="M21.97 281.02L34.81 265.72M34.81 265.72L44.8 248.42M44.8 248.42L51.63 229.66M51.63 229.66L55.1 209.99M55.1 209.99L55.1 190.01M55.1 190.01L51.63 170.34M51.63 170.34L44.8 151.58M44.8 151.58L34.81 134.28M34.81 134.28L21.97 118.98"
fill="none" stroke="black" stroke-width="9"/>
</g>
<g><path d="M19.35 121.61L34.65 134.44M34.65 134.44L51.94 144.43M51.94 144.43L70.71 151.26M70.71 151.26L90.38 154.73M90.38 154.73L110.35 154.73M110.35 154.73L130.02 151.26M130.02 151.26L148.79 144.43M148.79 144.43L166.09 134.44M166.09 134.44L181.39 121.61"
fill="none" stroke="black" stroke-width="9"/>
</g>
<g><path d="M181.39 278.39L166.09 265.56M166.09 265.56L148.79 255.57M148.79 255.57L130.02 248.74M130.02 248.74L110.35 245.27M110.35 245.27L90.38 245.27M90.38 245.27L70.71 248.74M70.71 248.74L51.94 255.57M51.94 255.57L34.65 265.56M34.65 265.56L19.35 278.39"
fill="none" stroke="black" stroke-width="9"/>
</g>
</g>
</svg>
