<?xml version="1.0" standalone="no"?><svg xmlns="http://www.w3.org/2000/svg" width="400.000" height="400.000" viewBox="0.0 0.0 400.000 400.000" version="1.1">
  <title>Produce by Acme CAD Converter</title>
  <desc>Produce by Acme CAD Converter</desc>
<g id="0" display="visible">
<g><path d="M25.64 200L324.54 200"
fill="none" stroke="black" stroke-width="9"/>
</g>
<g><path d="M324.54 299.63L324.54 100.37"
fill="none" stroke="black" stroke-width="9"/>
</g>
<g><path d="M274.73 349.45L276.57 336.01M276.57 336.01L281.98 323.57M281.98 323.57L290.54 313.04M290.54 313.04L301.62 305.22M301.62 305.22L314.41 300.68M314.41 300.68L327.94 299.75M327.94 299.75L341.22 302.51M341.22 302.51L353.27 308.75M353.27 308.75L363.19 318.01M363.19 318.01L370.23 329.6M370.23 329.6L373.89 342.67M373.89 342.67L373.89 356.23M373.89 356.23L370.23 369.3M370.23 369.3L363.19 380.89M363.19 380.89L353.27 390.15M353.27 390.15L341.22 396.39M341.22 396.39L327.94 399.15M327.94 399.15L314.41 398.22M314.41 398.22L301.62 393.68M301.62 393.68L290.54 385.86M290.54 385.86L281.98 375.33M281.98 375.33L276.57 362.89M276.57 362.89L274.73 349.45"
fill="none" stroke="black" stroke-width="9"/>
</g>
<g><path d="M274.73 50.55L276.57 37.11M276.57 37.11L281.98 24.67M281.98 24.67L290.54 14.14M290.54 14.14L301.62 6.32M301.62 6.32L314.41 1.78M314.41 1.78L327.94 0.85M327.94 0.85L341.22 3.61M341.22 3.61L353.27 9.85M353.27 9.85L363.19 19.11M363.19 19.11L370.23 30.7M370.23 30.7L373.89 43.77M373.89 43.77L373.89 57.33M373.89 57.33L370.23 70.4M370.23 70.4L363.19 81.99M363.19 81.99L353.27 91.25M353.27 91.25L341.22 97.49M341.22 97.49L327.94 100.25M327.94 100.25L314.41 99.32M314.41 99.32L301.62 94.78M301.62 94.78L290.54 86.96M290.54 86.96L281.98 76.43M281.98 76.43L276.57 63.99M276.57 63.99L274.73 50.55"
fill="none" stroke="black" stroke-width="9"/>
</g>
</g>
</svg>
