<?xml version="1.0" standalone="no"?><svg xmlns="http://www.w3.org/2000/svg" width="400.000" height="400.000" viewBox="0.0 0.0 400.000 400.000" version="1.1">
  <title>Produce by Acme CAD Converter</title>
  <desc>Produce by Acme CAD Converter</desc>
<g id="0" display="visible">
<g><path d="M0.73 200L164.84 200"
fill="none" stroke="black" stroke-width="9"/>
</g>
<g><path d="M164.84 246.89L164.84 153.11"
fill="none" stroke="black" stroke-width="9"/>
</g>
<g><path d="M399.27 200L235.16 200"
fill="none" stroke="black" stroke-width="9"/>
</g>
<g><path d="M235.16 153.11L235.16 246.89"
fill="none" stroke="black" stroke-width="9"/>
</g>
<g><path d="M106.23 129.67L106.23 270.33"
fill="none" stroke="black" stroke-width="9"/>
</g>
<g><path d="M106.23 129.67L176.56 129.67"
fill="none" stroke="black" stroke-width="9"/>
</g>
<g><path d="M106.23 270.33L176.56 270.33"
fill="none" stroke="black" stroke-width="9"/>
</g>
<g><path d="M176.56 129.67L176.56 82.78"
fill="none" stroke="black" stroke-width="9"/>
</g>
<g><path d="M176.56 270.33L176.56 317.22"
fill="none" stroke="black" stroke-width="9"/>
</g>
<g><path d="M223.44 129.67L223.44 82.78"
fill="none" stroke="black" stroke-width="9"/>
</g>
<g><path d="M223.44 270.33L223.44 317.22"
fill="none" stroke="black" stroke-width="9"/>
</g>
<g><path d="M223.44 129.67L293.77 129.67"
fill="none" stroke="black" stroke-width="9"/>
</g>
<g><path d="M223.44 270.33L293.77 270.33"
fill="none" stroke="black" stroke-width="9"/>
</g>
<g><path d="M293.77 129.67L293.77 270.33"
fill="none" stroke="black" stroke-width="9"/>
</g>
<g><path d="M200 141.39L200 200"
fill="none" stroke="black" stroke-width="9"/>
</g>
<g><path d="M200 141.39L208.53 164.84"
fill="none" stroke="black" stroke-width="9"/>
</g>
<g><path d="M200 141.39L191.47 164.84"
fill="none" stroke="black" stroke-width="9"/>
</g>
<g><path d="M208.53 164.84L200 163.81M200 163.81L191.47 164.84"
fill="none" stroke="black" stroke-width="9"/>
</g>
<g><path d="M200 258.61L200 200"
fill="none" stroke="black" stroke-width="9"/>
</g>
<g><path d="M200 258.61L191.47 235.16"
fill="none" stroke="black" stroke-width="9"/>
</g>
<g><path d="M200 258.61L208.53 235.16"
fill="none" stroke="black" stroke-width="9"/>
</g>
<g><path d="M191.47 235.16L200 236.19M200 236.19L208.53 235.16"
fill="none" stroke="black" stroke-width="9"/>
</g>
</g>
</svg>
