<?xml version="1.0" standalone="no"?><svg xmlns="http://www.w3.org/2000/svg" width="400.000" height="400.000" viewBox="0.0 0.0 400.000 400.000" version="1.1">
  <title>Produce by Acme CAD Converter</title>
  <desc>Produce by Acme CAD Converter</desc>
<g id="0" display="visible">
<g><path d="M0.73 200L164.84 200"
fill="none" stroke="black" stroke-width="9"/>
</g>
<g><path d="M164.84 246.89L164.84 153.11"
fill="none" stroke="black" stroke-width="9"/>
</g>
<g><path d="M399.27 200L235.16 200"
fill="none" stroke="black" stroke-width="9"/>
</g>
<g><path d="M235.16 153.11L235.16 246.89"
fill="none" stroke="black" stroke-width="9"/>
</g>
<g><path d="M106.23 129.67L106.23 270.33"
fill="none" stroke="black" stroke-width="9"/>
</g>
<g><path d="M106.23 129.67L176.56 129.67"
fill="none" stroke="black" stroke-width="9"/>
</g>
<g><path d="M106.23 270.33L176.56 270.33"
fill="none" stroke="black" stroke-width="9"/>
</g>
<g><path d="M176.56 129.67L176.56 82.78"
fill="none" stroke="black" stroke-width="9"/>
</g>
<g><path d="M176.56 270.33L176.56 317.22"
fill="none" stroke="black" stroke-width="9"/>
</g>
<g><path d="M223.44 129.67L223.44 82.78"
fill="none" stroke="black" stroke-width="9"/>
</g>
<g><path d="M223.44 270.33L223.44 317.22"
fill="none" stroke="black" stroke-width="9"/>
</g>
<g><path d="M223.44 129.67L293.77 129.67"
fill="none" stroke="black" stroke-width="9"/>
</g>
<g><path d="M223.44 270.33L293.77 270.33"
fill="none" stroke="black" stroke-width="9"/>
</g>
<g><path d="M293.77 129.67L293.77 270.33"
fill="none" stroke="black" stroke-width="9"/>
</g>
<g><path d="M183.59 239.85L185.47 232.23M185.47 232.23L190.68 226.35M190.68 226.35L198.02 223.56M198.02 223.56L205.82 224.51M205.82 224.51L212.28 228.97M212.28 228.97L215.93 235.93M215.93 235.93L215.93 243.78M215.93 243.78L212.28 250.74M212.28 250.74L205.82 255.2M205.82 255.2L198.02 256.14M198.02 256.14L190.68 253.36M190.68 253.36L185.47 247.48M185.47 247.48L183.59 239.85"
fill="none" stroke="black" stroke-width="9"/>
</g>
</g>
</svg>
