<?xml version="1.0" standalone="no"?><svg xmlns="http://www.w3.org/2000/svg" width="400.000" height="400.000" viewBox="0.0 0.0 400.000 400.000" version="1.1">
  <title>Produce by Acme CAD Converter</title>
  <desc>Produce by Acme CAD Converter</desc>
<g id="0" display="visible">
<g><path d="M51.05 201.07L53.03 175.93M53.03 175.93L58.91 151.41M58.91 151.41L68.56 128.11M68.56 128.11L81.74 106.6M81.74 106.6L98.12 87.43M98.12 87.43L117.3 71.05M117.3 71.05L138.8 57.87M138.8 57.87L162.1 48.22M162.1 48.22L186.62 42.33M186.62 42.33L211.76 40.35M211.76 40.35L236.91 42.33M236.91 42.33L261.43 48.22M261.43 48.22L284.73 57.87M284.73 57.87L306.23 71.05M306.23 71.05L325.41 87.43M325.41 87.43L341.79 106.6M341.79 106.6L354.96 128.11M354.96 128.11L364.61 151.41M364.61 151.41L370.5 175.93M370.5 175.93L372.48 201.07M372.48 201.07L370.5 226.21M370.5 226.21L364.61 250.74M364.61 250.74L354.96 274.04M354.96 274.04L341.79 295.54M341.79 295.54L325.41 314.72M325.41 314.72L306.23 331.09M306.23 331.09L284.73 344.27M284.73 344.27L261.43 353.92M261.43 353.92L236.91 359.81M236.91 359.81L211.76 361.79M211.76 361.79L186.62 359.81M186.62 359.81L162.1 353.92M162.1 353.92L138.8 344.27M138.8 344.27L117.3 331.09M117.3 331.09L98.12 314.72M98.12 314.72L81.74 295.54M81.74 295.54L68.56 274.04M68.56 274.04L58.91 250.74M58.91 250.74L53.03 226.21M53.03 226.21L51.05 201.07"
fill="none" stroke="black" stroke-width="3"/>
</g>
<g><path d="M184.98 201.07L186.79 191.4M186.79 191.4L191.97 183.03M191.97 183.03L199.82 177.09M199.82 177.09L209.29 174.4M209.29 174.4L219.09 175.31M219.09 175.31L227.91 179.7M227.91 179.7L234.54 186.97M234.54 186.97L238.09 196.15M238.09 196.15L238.09 205.99M238.09 205.99L234.54 215.17M234.54 215.17L227.91 222.45M227.91 222.45L219.09 226.83M219.09 226.83L209.29 227.74M209.29 227.74L199.82 225.05M199.82 225.05L191.97 219.12M191.97 219.12L186.79 210.75M186.79 210.75L184.98 201.07"
fill="none" stroke="black" stroke-width="9"/>
</g>
<g><path d="M109.17 125.27L110.98 115.59M110.98 115.59L116.16 107.22M116.16 107.22L124.02 101.29M124.02 101.29L133.49 98.59M133.49 98.59L143.29 99.5M143.29 99.5L152.1 103.89M152.1 103.89L158.73 111.17M158.73 111.17L162.29 120.34M162.29 120.34L162.29 130.19M162.29 130.19L158.73 139.37M158.73 139.37L152.1 146.64M152.1 146.64L143.29 151.03M143.29 151.03L133.49 151.94M133.49 151.94L124.02 149.24M124.02 149.24L116.16 143.31M116.16 143.31L110.98 134.94M110.98 134.94L109.17 125.27"
fill="none" stroke="black" stroke-width="9"/>
</g>
<g><path d="M211.76 13.57L211.76 388.57"
fill="none" stroke="black" stroke-width="3"/>
</g>
<g><path d="M399.27 201.07L24.26 201.07"
fill="none" stroke="black" stroke-width="3"/>
</g>
<g><path d="M192.75 182.05L154.98 144.28"
fill="none" stroke="black" stroke-width="9"/>
</g>
<g><path d="M153.91 105.45L211.76 40.35"
fill="none" stroke="black" stroke-width="9"/>
</g>
<g><path d="M195.42 14.28L171.18 18.01M171.18 18.01L147.65 24.87M147.65 24.87L125.2 34.74M125.2 34.74L104.24 47.46M104.24 47.46L85.12 62.8M85.12 62.8L68.16 80.51"
fill="none" stroke="black" stroke-width="3"/>
</g>
<g><path d="M47.56 63.39L31.01 85.98M31.01 85.98L17.54 110.54M17.54 110.54L7.39 136.64M7.39 136.64L0.73 163.85"
fill="none" stroke="black" stroke-width="3"/>
</g>
<g><path d="M68.19 80.53L47.57 63.39"
fill="none" stroke="black" stroke-width="3"/>
</g>
<g><path d="M195.34 14.15L172.9 24.02M172.9 24.02L151.94 36.74"
fill="none" stroke="black" stroke-width="3"/>
</g>
<g><path d="M195.44 14.3L169.38 11.54M169.38 11.54L143.19 12.45"
fill="none" stroke="black" stroke-width="3"/>
</g>
<g><path d="M254.79 149.76L242.07 141.36M242.07 141.36L227.78 136.05M227.78 136.05L212.65 134.11M212.65 134.11L197.48 135.65M197.48 135.65L183.05 140.57M183.05 140.57L170.11 148.64M170.11 148.64L159.33 159.42M159.33 159.42L151.27 172.36M151.27 172.36L146.34 186.79M146.34 186.79L144.8 201.96M144.8 201.96L146.74 217.08M146.74 217.08L152.05 231.38M152.05 231.38L160.45 244.1"
fill="none" stroke="black" stroke-width="3"/>
</g>
<g><path d="M154.87 206.15L154.25 219.09M154.25 219.09L156.14 231.92M156.14 231.92L160.46 244.14"
fill="none" stroke="black" stroke-width="3"/>
</g>
<g><path d="M134.55 207.79L140.34 221.75M140.34 221.75L149.11 234.06M149.11 234.06L160.42 244.08"
fill="none" stroke="black" stroke-width="3"/>
</g>
<g><path d="M254.83 149.77L242.61 145.45M242.61 145.45L229.79 143.56M229.79 143.56L216.84 144.18"
fill="none" stroke="black" stroke-width="3"/>
</g>
<g><path d="M254.78 149.72L244.75 138.41M244.75 138.41L232.44 129.64M232.44 129.64L218.48 123.86"
fill="none" stroke="black" stroke-width="3"/>
</g>
</g>
</svg>
