<?xml version="1.0" standalone="no"?><svg xmlns="http://www.w3.org/2000/svg" width="400.000" height="400.000" viewBox="0.0 0.0 400.000 400.000" version="1.1">
  <title>Produce by Acme CAD Converter</title>
  <desc>Produce by Acme CAD Converter</desc>
<g id="0" display="visible">
<g><path d="M0.73 252.75L2.52 243.78M2.52 243.78L7.6 236.17M7.6 236.17L15.21 231.09M15.21 231.09L24.18 229.3M24.18 229.3L33.15 231.09M33.15 231.09L40.75 236.17M40.75 236.17L45.84 243.78M45.84 243.78L47.62 252.75M47.62 252.75L45.84 261.72M45.84 261.72L40.75 269.32M40.75 269.32L33.15 274.41M33.15 274.41L24.18 276.19M24.18 276.19L15.21 274.41M15.21 274.41L7.6 269.32M7.6 269.32L2.52 261.72M2.52 261.72L0.73 252.75"
fill="none" stroke="black" stroke-width="9"/>
</g>
<g><path d="M352.38 252.75L354.16 243.78M354.16 243.78L359.25 236.17M359.25 236.17L366.85 231.09M366.85 231.09L375.82 229.3M375.82 229.3L384.79 231.09M384.79 231.09L392.4 236.17M392.4 236.17L397.48 243.78M397.48 243.78L399.27 252.75M399.27 252.75L397.48 261.72M397.48 261.72L392.4 269.32M392.4 269.32L384.79 274.41M384.79 274.41L375.82 276.19M375.82 276.19L366.85 274.41M366.85 274.41L359.25 269.32M359.25 269.32L354.16 261.72M354.16 261.72L352.38 252.75"
fill="none" stroke="black" stroke-width="9"/>
</g>
<g><path d="M176.56 147.25L178.34 138.28M178.34 138.28L183.42 130.68M183.42 130.68L191.03 125.59M191.03 125.59L200 123.81M200 123.81L208.97 125.59M208.97 125.59L216.58 130.68M216.58 130.68L221.66 138.28M221.66 138.28L223.44 147.25M223.44 147.25L221.66 156.22M221.66 156.22L216.58 163.83M216.58 163.83L208.97 168.91M208.97 168.91L200 170.7M200 170.7L191.03 168.91M191.03 168.91L183.42 163.83M183.42 163.83L178.34 156.22M178.34 156.22L176.56 147.25"
fill="none" stroke="black" stroke-width="9"/>
</g>
<g><path d="M47.62 252.75L352.38 252.75"
fill="none" stroke="black" stroke-width="9"/>
</g>
<g><path d="M355.72 240.69L220.1 159.31"
fill="none" stroke="black" stroke-width="9"/>
</g>
<g><path d="M179.9 159.31L44.28 240.69"
fill="none" stroke="black" stroke-width="9"/>
</g>
<g><path d="M323.71 252.75L343.26 233.21"
fill="none" stroke="black" stroke-width="3"/>
</g>
<g><path d="M257.41 252.75L301.81 208.34"
fill="none" stroke="black" stroke-width="3"/>
</g>
<g><path d="M191.1 252.75L260.37 183.48"
fill="none" stroke="black" stroke-width="3"/>
</g>
<g><path d="M124.79 252.75L208.4 169.14"
fill="none" stroke="black" stroke-width="3"/>
</g>
<g><path d="M58.49 252.75L109.95 201.28"
fill="none" stroke="black" stroke-width="3"/>
</g>
</g>
</svg>
