<?xml version="1.0" standalone="no"?><svg xmlns="http://www.w3.org/2000/svg" width="400.000" height="400.000" viewBox="0.0 0.0 400.000 400.000" version="1.1">
  <title>Produce by Acme CAD Converter</title>
  <desc>Produce by Acme CAD Converter</desc>
<g id="0" display="visible">
<g><path d="M78.66 246.5L80.65 223.76M80.65 223.76L86.55 201.71M86.55 201.71L96.2 181.02M96.2 181.02L109.29 162.33M109.29 162.33L125.43 146.19M125.43 146.19L144.13 133.09M144.13 133.09L164.82 123.45M164.82 123.45L186.86 117.54M186.86 117.54L209.6 115.55M209.6 115.55L232.34 117.54M232.34 117.54L254.39 123.45M254.39 123.45L275.08 133.09M275.08 133.09L293.77 146.19M293.77 146.19L309.91 162.33M309.91 162.33L323.01 181.02M323.01 181.02L332.65 201.71M332.65 201.71L338.56 223.76M338.56 223.76L340.55 246.5M340.55 246.5L338.56 269.23M338.56 269.23L332.65 291.28M332.65 291.28L323.01 311.97M323.01 311.97L309.91 330.67M309.91 330.67L293.77 346.81M293.77 346.81L275.08 359.9M275.08 359.9L254.39 369.55M254.39 369.55L232.34 375.45M232.34 375.45L209.6 377.44M209.6 377.44L186.86 375.45M186.86 375.45L164.82 369.55M164.82 369.55L144.13 359.9M144.13 359.9L125.43 346.81M125.43 346.81L109.29 330.67M109.29 330.67L96.2 311.97M96.2 311.97L86.55 291.28M86.55 291.28L80.65 269.23M80.65 269.23L78.66 246.5"
fill="none" stroke="black" stroke-width="3"/>
</g>
<g><path d="M187.78 246.5L189.67 237.62M189.67 237.62L195 230.28M195 230.28L202.86 225.74M202.86 225.74L211.88 224.79M211.88 224.79L220.51 227.6M220.51 227.6L227.26 233.67M227.26 233.67L230.95 241.96M230.95 241.96L230.95 251.03M230.95 251.03L227.26 259.32M227.26 259.32L220.51 265.4M220.51 265.4L211.88 268.2M211.88 268.2L202.86 267.25M202.86 267.25L195 262.71M195 262.71L189.67 255.37M189.67 255.37L187.78 246.5"
fill="none" stroke="black" stroke-width="9"/>
</g>
<g><path d="M187.78 50.08L189.67 41.2M189.67 41.2L195 33.86M195 33.86L202.86 29.32M202.86 29.32L211.88 28.37M211.88 28.37L220.51 31.18M220.51 31.18L227.26 37.25M227.26 37.25L230.95 45.54M230.95 45.54L230.95 54.61M230.95 54.61L227.26 62.9M227.26 62.9L220.51 68.98M220.51 68.98L211.88 71.78M211.88 71.78L202.86 70.83M202.86 70.83L195 66.3M195 66.3L189.67 58.95M189.67 58.95L187.78 50.08"
fill="none" stroke="black" stroke-width="9"/>
</g>
<g><path d="M209.6 93.73L209.6 399.27"
fill="none" stroke="black" stroke-width="3"/>
</g>
<g><path d="M362.37 246.5L56.83 246.5"
fill="none" stroke="black" stroke-width="3"/>
</g>
<g><path d="M209.6 224.67L209.6 71.9"
fill="none" stroke="black" stroke-width="9"/>
</g>
<g><path d="M194.98 66.44L117.07 153.96"
fill="none" stroke="black" stroke-width="9"/>
</g>
<g><path d="M84.54 158.76L72.33 179.44M72.33 179.44L63.52 201.79M63.52 201.79L58.32 225.24M58.32 225.24L56.86 249.22M56.86 249.22L59.17 273.13"
fill="none" stroke="black" stroke-width="3"/>
</g>
<g><path d="M37.66 276.83L43.09 298.99M43.09 298.99L51.36 320.26M51.36 320.26L62.33 340.27M62.33 340.27L75.82 358.68"
fill="none" stroke="black" stroke-width="3"/>
</g>
<g><path d="M59.23 273.12L37.63 276.83"
fill="none" stroke="black" stroke-width="3"/>
</g>
<g><path d="M84.44 158.72L78.81 177.99M78.81 177.99L75.75 197.82"
fill="none" stroke="black" stroke-width="3"/>
</g>
<g><path d="M84.64 158.87L69.21 173.76M69.21 173.76L56.02 190.66"
fill="none" stroke="black" stroke-width="3"/>
</g>
<g><path d="M63.04 314.79L67.84 337.19M67.84 337.19L75.94 358.62"
fill="none" stroke="black" stroke-width="3"/>
</g>
<g><path d="M41.15 325.04L57.15 343.24M57.15 343.24L75.81 358.68"
fill="none" stroke="black" stroke-width="3"/>
</g>
<g><path d="M263.95 241.69L260.71 227.39M260.71 227.39L253.78 214.47M253.78 214.47L243.65 203.86M243.65 203.86L231.07 196.34M231.07 196.34L216.93 192.43M216.93 192.43L202.27 192.43M202.27 192.43L188.14 196.34M188.14 196.34L175.55 203.86M175.55 203.86L165.43 214.47M165.43 214.47L158.5 227.39M158.5 227.39L155.25 241.69"
fill="none" stroke="black" stroke-width="3"/>
</g>
<g><path d="M174.06 216.63L166.21 223.72M166.21 223.72L159.89 232.19M159.89 232.19L155.31 241.71"
fill="none" stroke="black" stroke-width="3"/>
</g>
<g><path d="M161.19 205.92L156.49 217.29M156.49 217.29L154.46 229.43M154.46 229.43L155.2 241.7"
fill="none" stroke="black" stroke-width="3"/>
</g>
<g><path d="M263.9 241.71L259.32 232.19M259.32 232.19L252.99 223.72M252.99 223.72L245.15 216.63"
fill="none" stroke="black" stroke-width="3"/>
</g>
<g><path d="M264 241.7L264.74 229.43M264.74 229.43L262.71 217.29M262.71 217.29L258.01 205.92"
fill="none" stroke="black" stroke-width="3"/>
</g>
<g><path d="M291.64 20.88L264.92 12.89M264.92 12.89L237.45 8.05M237.45 8.05L209.6 6.43M209.6 6.43L181.76 8.05M181.76 8.05L154.29 12.89M154.29 12.89L127.56 20.88"
fill="none" stroke="black" stroke-width="3"/>
</g>
<g><path d="M165.96 20.59L146.75 19.97M146.75 19.97L127.55 20.87"
fill="none" stroke="black" stroke-width="3"/>
</g>
<g><path d="M162.02 0.73L144.36 10.06M144.36 10.06L127.54 20.83"
fill="none" stroke="black" stroke-width="3"/>
</g>
<g><path d="M291.66 20.87L272.46 19.97M272.46 19.97L253.25 20.59"
fill="none" stroke="black" stroke-width="3"/>
</g>
<g><path d="M291.66 20.83L274.85 10.06M274.85 10.06L257.19 0.73"
fill="none" stroke="black" stroke-width="3"/>
</g>
</g>
</svg>
