<?xml version="1.0" standalone="no"?><svg xmlns="http://www.w3.org/2000/svg" width="400.000" height="400.000" viewBox="0.0 0.0 400.000 400.000" version="1.1">
  <title>Produce by Acme CAD Converter</title>
  <desc>Produce by Acme CAD Converter</desc>
<g id="0" display="visible">
<g><path d="M0.73 200L155.72 200"
fill="none" stroke="black" stroke-width="9"/>
</g>
<g><path d="M155.72 244.28L155.72 155.72"
fill="none" stroke="black" stroke-width="9"/>
</g>
<g><path d="M399.27 200L244.28 200"
fill="none" stroke="black" stroke-width="9"/>
</g>
<g><path d="M244.28 155.72L244.28 244.28"
fill="none" stroke="black" stroke-width="9"/>
</g>
<g><path d="M111.44 133.58L111.44 266.42"
fill="none" stroke="black" stroke-width="9"/>
</g>
<g><path d="M111.44 133.58L177.86 133.58"
fill="none" stroke="black" stroke-width="9"/>
</g>
<g><path d="M111.44 266.42L177.86 266.42"
fill="none" stroke="black" stroke-width="9"/>
</g>
<g><path d="M177.86 133.58L177.86 89.3"
fill="none" stroke="black" stroke-width="9"/>
</g>
<g><path d="M177.86 266.42L177.86 310.7"
fill="none" stroke="black" stroke-width="9"/>
</g>
<g><path d="M222.14 133.58L222.14 89.3"
fill="none" stroke="black" stroke-width="9"/>
</g>
<g><path d="M222.14 266.42L222.14 310.7"
fill="none" stroke="black" stroke-width="9"/>
</g>
<g><path d="M222.14 133.58L288.56 133.58"
fill="none" stroke="black" stroke-width="9"/>
</g>
<g><path d="M222.14 266.42L288.56 266.42"
fill="none" stroke="black" stroke-width="9"/>
</g>
<g><path d="M288.56 133.58L288.56 266.42"
fill="none" stroke="black" stroke-width="9"/>
</g>
<g><path d="M133.58 166.79L266.42 166.79"
fill="none" stroke="black" stroke-width="9"/>
</g>
</g>
</svg>
