<?xml version="1.0" standalone="no"?><svg xmlns="http://www.w3.org/2000/svg" width="400.000" height="400.000" viewBox="0.0 0.0 400.000 400.000" version="1.1">
  <title>Produce by Acme CAD Converter</title>
  <desc>Produce by Acme CAD Converter</desc>
<g id="0" display="visible">
<g><path d="M0.73 200L399.27 200"
fill="none" stroke="black" stroke-width="9"/>
</g>
<g><path d="M189.51 151.76L189.51 248.24"
fill="none" stroke="black" stroke-width="9"/>
</g>
<g><path d="M53.17 179.02L168.54 179.02"
fill="none" stroke="black" stroke-width="9"/>
</g>
<g><path d="M168.54 179.02L168.54 158.05"
fill="none" stroke="black" stroke-width="9"/>
</g>
<g><path d="M53.17 220.98L168.54 220.98"
fill="none" stroke="black" stroke-width="9"/>
</g>
<g><path d="M168.54 220.98L168.54 241.95"
fill="none" stroke="black" stroke-width="9"/>
</g>
<g><path d="M105.61 158.05L105.61 116.1"
fill="none" stroke="black" stroke-width="9"/>
</g>
<g><path d="M105.61 116.1L179.02 116.1"
fill="none" stroke="black" stroke-width="9"/>
</g>
<g><path d="M105.61 241.95L105.61 283.9"
fill="none" stroke="black" stroke-width="9"/>
</g>
<g><path d="M105.61 283.9L179.02 283.9"
fill="none" stroke="black" stroke-width="9"/>
</g>
<g><path d="M210.49 158.05L210.49 179.02"
fill="none" stroke="black" stroke-width="9"/>
</g>
<g><path d="M210.49 179.02L357.32 179.02"
fill="none" stroke="black" stroke-width="9"/>
</g>
<g><path d="M189.51 137.07L252.44 137.07"
fill="none" stroke="black" stroke-width="9"/>
</g>
<g><path d="M252.44 137.07L252.44 179.02"
fill="none" stroke="black" stroke-width="9"/>
</g>
<g><path d="M210.49 241.95L210.49 220.98"
fill="none" stroke="black" stroke-width="9"/>
</g>
<g><path d="M210.49 220.98L357.32 220.98"
fill="none" stroke="black" stroke-width="9"/>
</g>
<g><path d="M189.51 262.93L252.44 262.93"
fill="none" stroke="black" stroke-width="9"/>
</g>
<g><path d="M252.44 262.93L252.44 220.98"
fill="none" stroke="black" stroke-width="9"/>
</g>
</g>
</svg>
