<?xml version="1.0" standalone="no"?><svg xmlns="http://www.w3.org/2000/svg" width="400.000" height="400.000" viewBox="0.0 0.0 400.000 400.000" version="1.1">
  <title>Produce by Acme CAD Converter</title>
  <desc>Produce by Acme CAD Converter</desc>
<g id="0" display="visible">
<g><path d="M0.73 200L175.09 200"
fill="none" stroke="black" stroke-width="9"/>
</g>
<g><path d="M175.09 249.82L175.09 150.18"
fill="none" stroke="black" stroke-width="9"/>
</g>
<g><path d="M399.27 200L224.91 200"
fill="none" stroke="black" stroke-width="9"/>
</g>
<g><path d="M224.91 150.18L224.91 249.82"
fill="none" stroke="black" stroke-width="9"/>
</g>
<g><path d="M100.37 312.09L100.37 87.91"
fill="none" stroke="black" stroke-width="9"/>
</g>
<g><path d="M100.37 87.91L200 87.91"
fill="none" stroke="black" stroke-width="9"/>
</g>
<g><path d="M100.37 312.09L200 312.09"
fill="none" stroke="black" stroke-width="9"/>
</g>
<g><path d="M324.54 287.18L324.54 112.82"
fill="none" stroke="black" stroke-width="9"/>
</g>
<g><path d="M324.54 112.82L200 112.82"
fill="none" stroke="black" stroke-width="9"/>
</g>
<g><path d="M324.54 287.18L200 287.18"
fill="none" stroke="black" stroke-width="9"/>
</g>
<g><path d="M175.09 160.15L168.61 161.63M168.61 161.63L163.41 165.77M163.41 165.77L160.52 171.77M160.52 171.77L160.52 178.42M160.52 178.42L163.41 184.41M163.41 184.41L168.61 188.56M168.61 188.56L175.09 190.04"
fill="none" stroke="black" stroke-width="9"/>
</g>
<g><path d="M175.09 209.96L168.61 211.44M168.61 211.44L163.41 215.59M163.41 215.59L160.52 221.58M160.52 221.58L160.52 228.23M160.52 228.23L163.41 234.23M163.41 234.23L168.61 238.37M168.61 238.37L175.09 239.85"
fill="none" stroke="black" stroke-width="9"/>
</g>
<g><path d="M224.91 190.04L231.39 188.56M231.39 188.56L236.59 184.41M236.59 184.41L239.48 178.42M239.48 178.42L239.48 171.77M239.48 171.77L236.59 165.77M236.59 165.77L231.39 161.63M231.39 161.63L224.91 160.15"
fill="none" stroke="black" stroke-width="9"/>
</g>
<g><path d="M224.91 239.85L231.39 238.37M231.39 238.37L236.59 234.23M236.59 234.23L239.48 228.23M239.48 228.23L239.48 221.58M239.48 221.58L236.59 215.59M236.59 215.59L231.39 211.44M231.39 211.44L224.91 209.96"
fill="none" stroke="black" stroke-width="9"/>
</g>
</g>
</svg>
