<?xml version="1.0" standalone="no"?><svg xmlns="http://www.w3.org/2000/svg" width="400.000" height="400.000" viewBox="0.0 0.0 400.000 400.000" version="1.1">
  <title>Produce by Acme CAD Converter</title>
  <desc>Produce by Acme CAD Converter</desc>
<g id="0" display="visible">
<g><path d="M0.73 200L133.58 200"
fill="none" stroke="black" stroke-width="9"/>
</g>
<g><path d="M133.58 237.96L133.58 162.04"
fill="none" stroke="black" stroke-width="9"/>
</g>
<g><path d="M399.27 200L266.42 200"
fill="none" stroke="black" stroke-width="9"/>
</g>
<g><path d="M266.42 162.04L266.42 237.96"
fill="none" stroke="black" stroke-width="9"/>
</g>
<g><path d="M105.11 279.71L105.11 120.29"
fill="none" stroke="black" stroke-width="9"/>
</g>
<g><path d="M105.11 120.29L200 120.29"
fill="none" stroke="black" stroke-width="9"/>
</g>
<g><path d="M105.11 279.71L200 279.71"
fill="none" stroke="black" stroke-width="9"/>
</g>
<g><path d="M304.38 266.42L304.38 133.58"
fill="none" stroke="black" stroke-width="9"/>
</g>
<g><path d="M304.38 133.58L209.49 133.58"
fill="none" stroke="black" stroke-width="9"/>
</g>
<g><path d="M304.38 266.42L209.49 266.42"
fill="none" stroke="black" stroke-width="9"/>
</g>
<g><path d="M162.04 177.23L247.44 177.23"
fill="none" stroke="black" stroke-width="9"/>
</g>
<g><path d="M204.74 237.96L202.94 228.88M202.94 228.88L197.8 221.18M197.8 221.18L190.1 216.04M190.1 216.04L181.02 214.23M181.02 214.23L171.94 216.04M171.94 216.04L164.25 221.18M164.25 221.18L159.11 228.88M159.11 228.88L157.3 237.96"
fill="none" stroke="black" stroke-width="9"/>
</g>
<g><path d="M252.19 237.96L250.38 228.88M250.38 228.88L245.24 221.18M245.24 221.18L237.54 216.04M237.54 216.04L228.47 214.23M228.47 214.23L219.39 216.04M219.39 216.04L211.69 221.18M211.69 221.18L206.55 228.88M206.55 228.88L204.74 237.96"
fill="none" stroke="black" stroke-width="9"/>
</g>
</g>
</svg>
