<?xml version="1.0" standalone="no"?><svg xmlns="http://www.w3.org/2000/svg" width="400.000" height="400.000" viewBox="0.0 0.0 400.000 400.000" version="1.1">
  <title>Produce by Acme CAD Converter</title>
  <desc>Produce by Acme CAD Converter</desc>
<g id="0" display="visible">
<g><path d="M0.73 200L160.15 200"
fill="none" stroke="black" stroke-width="9"/>
</g>
<g><path d="M160.15 245.55L160.15 154.45"
fill="none" stroke="black" stroke-width="9"/>
</g>
<g><path d="M399.27 200L239.85 200"
fill="none" stroke="black" stroke-width="9"/>
</g>
<g><path d="M239.85 154.45L239.85 245.55"
fill="none" stroke="black" stroke-width="9"/>
</g>
<g><path d="M108.91 131.68L108.91 268.32"
fill="none" stroke="black" stroke-width="9"/>
</g>
<g><path d="M108.91 131.68L177.23 131.68"
fill="none" stroke="black" stroke-width="9"/>
</g>
<g><path d="M108.91 268.32L177.23 268.32"
fill="none" stroke="black" stroke-width="9"/>
</g>
<g><path d="M177.23 131.68L177.23 86.13"
fill="none" stroke="black" stroke-width="9"/>
</g>
<g><path d="M177.23 268.32L177.23 313.87"
fill="none" stroke="black" stroke-width="9"/>
</g>
<g><path d="M222.77 131.68L222.77 86.13"
fill="none" stroke="black" stroke-width="9"/>
</g>
<g><path d="M222.77 268.32L222.77 313.87"
fill="none" stroke="black" stroke-width="9"/>
</g>
<g><path d="M222.77 131.68L291.09 131.68"
fill="none" stroke="black" stroke-width="9"/>
</g>
<g><path d="M222.77 268.32L291.09 268.32"
fill="none" stroke="black" stroke-width="9"/>
</g>
<g><path d="M291.09 131.68L291.09 268.32"
fill="none" stroke="black" stroke-width="9"/>
</g>
<g><path d="M239.85 165.84L353.72 165.84"
fill="none" stroke="black" stroke-width="3"/>
</g>
<g><path d="M239.85 165.84L274.01 159.82"
fill="none" stroke="black" stroke-width="3"/>
</g>
<g><path d="M239.85 165.84L274.01 171.86"
fill="none" stroke="black" stroke-width="3"/>
</g>
<g><path d="M274.01 159.82L274.01 171.86"
fill="none" stroke="black" stroke-width="3"/>
</g>
</g>
</svg>
