<?xml version="1.0" standalone="no"?><svg xmlns="http://www.w3.org/2000/svg" width="400.000" height="400.000" viewBox="0.0 0.0 400.000 400.000" version="1.1">
  <title>Produce by Acme CAD Converter</title>
  <desc>Produce by Acme CAD Converter</desc>
<g id="0" display="visible">
<g><path d="M71.06 164.84L73.02 142.45M73.02 142.45L78.84 120.74M78.84 120.74L88.34 100.37M88.34 100.37L101.23 81.96M101.23 81.96L117.12 66.06M117.12 66.06L135.53 53.17M135.53 53.17L155.9 43.67M155.9 43.67L177.61 37.86M177.61 37.86L200 35.9M200 35.9L222.39 37.86M222.39 37.86L244.1 43.67M244.1 43.67L264.47 53.17M264.47 53.17L282.88 66.06M282.88 66.06L298.77 81.96M298.77 81.96L311.66 100.37M311.66 100.37L321.16 120.74M321.16 120.74L326.98 142.45M326.98 142.45L328.94 164.84M328.94 164.84L326.98 187.23M326.98 187.23L321.16 208.93M321.16 208.93L311.66 229.3M311.66 229.3L298.77 247.71M298.77 247.71L282.88 263.61M282.88 263.61L264.47 276.5M264.47 276.5L244.1 286M244.1 286L222.39 291.81M222.39 291.81L200 293.77M200 293.77L177.61 291.81M177.61 291.81L155.9 286M155.9 286L135.53 276.5M135.53 276.5L117.12 263.61M117.12 263.61L101.23 247.71M101.23 247.71L88.34 229.3M88.34 229.3L78.84 208.93M78.84 208.93L73.02 187.23M73.02 187.23L71.06 164.84"
fill="none" stroke="black" stroke-width="9"/>
</g>
<g><path d="M364.1 164.84L35.9 164.84"
fill="none" stroke="black" stroke-width="3"/>
</g>
<g><path d="M200 0.73L200 328.94"
fill="none" stroke="black" stroke-width="3"/>
</g>
<g><path d="M176.56 258.61L176.56 399.27"
fill="none" stroke="black" stroke-width="9"/>
</g>
<g><path d="M264.94 235.16L311.82 282.05"
fill="none" stroke="black" stroke-width="9"/>
</g>
<g><path d="M135.06 235.16L88.18 282.05"
fill="none" stroke="black" stroke-width="9"/>
</g>
<g><path d="M288.38 258.61L111.62 258.61"
fill="none" stroke="black" stroke-width="9"/>
</g>
</g>
</svg>
