<?xml version="1.0" standalone="no"?><svg xmlns="http://www.w3.org/2000/svg" width="400.000" height="400.000" viewBox="0.0 0.0 400.000 400.000" version="1.1">
  <title>Produce by Acme CAD Converter</title>
  <desc>Produce by Acme CAD Converter</desc>
<g id="0" display="visible">
<g><path d="M49.04 191.95L51 167.73M51 167.73L56.81 144.14M56.81 144.14L66.33 121.79M66.33 121.79L79.32 101.26M79.32 101.26L95.43 83.08M95.43 83.08L114.25 67.71M114.25 67.71L135.28 55.56M135.28 55.56L158 46.95M158 46.95L181.8 42.09M181.8 42.09L206.08 41.11M206.08 41.11L230.2 44.04M230.2 44.04L253.53 50.8M253.53 50.8L275.48 61.21M275.48 61.21L295.47 75.01M295.47 75.01L312.99 91.84M312.99 91.84L327.59 111.27M327.59 111.27L338.88 132.78M338.88 132.78L346.57 155.82M346.57 155.82L350.47 179.8M350.47 179.8L350.47 204.1M350.47 204.1L346.57 228.08M346.57 228.08L338.88 251.12M338.88 251.12L327.59 272.63M327.59 272.63L312.99 292.05M312.99 292.05L295.47 308.88M295.47 308.88L275.48 322.68M275.48 322.68L253.53 333.1M253.53 333.1L230.2 339.86M230.2 339.86L206.08 342.79M206.08 342.79L181.8 341.81M181.8 341.81L158 336.95M158 336.95L135.28 328.33M135.28 328.33L114.25 316.19M114.25 316.19L95.43 300.82M95.43 300.82L79.32 282.64M79.32 282.64L66.33 262.1M66.33 262.1L56.81 239.75M56.81 239.75L51 216.16M51 216.16L49.04 191.95"
fill="none" stroke="black" stroke-width="3"/>
</g>
<g><path d="M8.78 191.95L391.22 191.95"
fill="none" stroke="black" stroke-width="3"/>
</g>
<g><path d="M200 383.16L200 0.73"
fill="none" stroke="black" stroke-width="3"/>
</g>
<g><path d="M93.32 298.63L306.68 298.63"
fill="none" stroke="black" stroke-width="9"/>
</g>
<g><path d="M200 298.63L200 399.27"
fill="none" stroke="black" stroke-width="9"/>
</g>
<g><path d="M326.81 318.75L286.55 278.5"
fill="none" stroke="black" stroke-width="9"/>
</g>
<g><path d="M73.19 318.75L113.45 278.5"
fill="none" stroke="black" stroke-width="9"/>
</g>
</g>
</svg>
