<?xml version="1.0" standalone="no"?><svg xmlns="http://www.w3.org/2000/svg" width="400.000" height="400.000" viewBox="0.0 0.0 400.000 400.000" version="1.1">
  <title>Produce by Acme CAD Converter</title>
  <desc>Produce by Acme CAD Converter</desc>
<g id="0" display="visible">
<g><path d="M100.37 299.63L100.37 0.73"
fill="none" stroke="black" stroke-width="9"/>
</g>
<g><path d="M100.37 299.63L160.15 239.85"
fill="none" stroke="black" stroke-width="9"/>
</g>
<g><path d="M160.15 60.51L160.15 239.85"
fill="none" stroke="black" stroke-width="9"/>
</g>
<g><path d="M100.37 150.18L0.73 150.18"
fill="none" stroke="black" stroke-width="9"/>
</g>
<g><path d="M100.37 0.73L160.15 60.51"
fill="none" stroke="black" stroke-width="9"/>
</g>
<g><path d="M160.15 239.85L263.77 136.23"
fill="none" stroke="black" stroke-width="3"/>
</g>
<g><path d="M160.15 60.51L269.74 170.11"
fill="none" stroke="black" stroke-width="3"/>
</g>
<g><path d="M160.15 150.18L269.74 150.18"
fill="none" stroke="black" stroke-width="3"/>
</g>
<g><path d="M110.33 130.26L130.26 150.18"
fill="none" stroke="black" stroke-width="3"/>
</g>
<g><path d="M130.26 150.18L150.18 170.11"
fill="none" stroke="black" stroke-width="3"/>
</g>
<g><path d="M150.18 130.26L110.33 170.11"
fill="none" stroke="black" stroke-width="3"/>
</g>
<g><path d="M399.27 299.63L100.37 299.63"
fill="none" stroke="black" stroke-width="9"/>
</g>
<g><path d="M399.27 299.63L339.49 239.85"
fill="none" stroke="black" stroke-width="9"/>
</g>
<g><path d="M160.15 239.85L339.49 239.85"
fill="none" stroke="black" stroke-width="9"/>
</g>
<g><path d="M249.82 299.63L249.82 399.27"
fill="none" stroke="black" stroke-width="9"/>
</g>
<g><path d="M339.49 239.85L249.82 150.18"
fill="none" stroke="black" stroke-width="3"/>
</g>
<g><path d="M249.82 239.85L249.82 130.26"
fill="none" stroke="black" stroke-width="3"/>
</g>
<g><path d="M229.89 249.82L249.82 269.74"
fill="none" stroke="black" stroke-width="3"/>
</g>
<g><path d="M249.82 269.74L269.74 289.67"
fill="none" stroke="black" stroke-width="3"/>
</g>
<g><path d="M269.74 249.82L229.89 289.67"
fill="none" stroke="black" stroke-width="3"/>
</g>
<g><path d="M100.37 180.07L160.15 200"
fill="none" stroke="black" stroke-width="3"/>
</g>
<g><path d="M100.37 200L160.15 219.93"
fill="none" stroke="black" stroke-width="3"/>
</g>
<g><path d="M100.37 219.93L160.15 239.85"
fill="none" stroke="black" stroke-width="3"/>
</g>
</g>
</svg>
