<?xml version="1.0" standalone="no"?><svg xmlns="http://www.w3.org/2000/svg" width="400.000" height="400.000" viewBox="0.0 0.0 400.000 400.000" version="1.1">
  <title>Produce by Acme CAD Converter</title>
  <desc>Produce by Acme CAD Converter</desc>
<g id="0" display="visible">
<g><path d="M64.14 172.83L66.09 149.87M66.09 149.87L71.9 127.57M71.9 127.57L81.39 106.57M81.39 106.57L94.29 87.48M94.29 87.48L110.24 70.84M110.24 70.84L128.77 57.14M128.77 57.14L149.34 46.76M149.34 46.76L171.38 40.01M171.38 40.01L194.23 37.09M194.23 37.09L217.26 38.06M217.26 38.06L239.78 42.92M239.78 42.92L261.17 51.51M261.17 51.51L280.79 63.59M280.79 63.59L298.09 78.82M298.09 78.82L312.56 96.75M312.56 96.75L323.8 116.86M323.8 116.86L331.48 138.59M331.48 138.59L335.37 161.31M335.37 161.31L335.37 184.35M335.37 184.35L331.48 207.06M331.48 207.06L323.8 228.79M323.8 228.79L312.56 248.91M312.56 248.91L298.09 266.84M298.09 266.84L280.79 282.06M280.79 282.06L261.17 294.14M261.17 294.14L239.78 302.74M239.78 302.74L217.26 307.59M217.26 307.59L194.23 308.57M194.23 308.57L171.38 305.64M171.38 305.64L149.34 298.89M149.34 298.89L128.77 288.52M128.77 288.52L110.24 274.82M110.24 274.82L94.29 258.18M94.29 258.18L81.39 239.09M81.39 239.09L71.9 218.09M71.9 218.09L66.09 195.79M66.09 195.79L64.14 172.83"
fill="none" stroke="black" stroke-width="3"/>
</g>
<g><path d="M27.91 172.83L372.09 172.83"
fill="none" stroke="black" stroke-width="3"/>
</g>
<g><path d="M200 344.92L200 0.73"
fill="none" stroke="black" stroke-width="3"/>
</g>
<g><path d="M335.86 308.69L64.14 308.69"
fill="none" stroke="black" stroke-width="9"/>
</g>
<g><path d="M335.86 308.69L281.52 254.35"
fill="none" stroke="black" stroke-width="9"/>
</g>
<g><path d="M118.48 254.35L281.52 254.35"
fill="none" stroke="black" stroke-width="9"/>
</g>
<g><path d="M200 308.69L200 399.27"
fill="none" stroke="black" stroke-width="9"/>
</g>
<g><path d="M64.14 308.69L118.48 254.35"
fill="none" stroke="black" stroke-width="9"/>
</g>
<g><path d="M181.88 263.4L200 281.52"
fill="none" stroke="black" stroke-width="3"/>
</g>
<g><path d="M200 281.52L218.12 299.63"
fill="none" stroke="black" stroke-width="3"/>
</g>
<g><path d="M218.12 263.4L181.88 299.63"
fill="none" stroke="black" stroke-width="3"/>
</g>
</g>
</svg>
