<?xml version="1.0" standalone="no"?><svg xmlns="http://www.w3.org/2000/svg" width="400.000" height="400.000" viewBox="0.0 0.0 400.000 400.000" version="1.1">
  <title>Produce by Acme CAD Converter</title>
  <desc>Produce by Acme CAD Converter</desc>
<g id="0" display="visible">
<g><path d="M29.2 143.07L171.53 143.07"
fill="none" stroke="black" stroke-width="9"/>
</g>
<g><path d="M171.53 0.73L171.53 285.4"
fill="none" stroke="black" stroke-width="9"/>
</g>
<g><path d="M171.53 0.73L228.47 57.67"
fill="none" stroke="black" stroke-width="9"/>
</g>
<g><path d="M171.53 285.4L228.47 228.47"
fill="none" stroke="black" stroke-width="9"/>
</g>
<g><path d="M228.47 57.67L228.47 228.47"
fill="none" stroke="black" stroke-width="9"/>
</g>
<g><path d="M228.47 57.67L342.33 171.53"
fill="none" stroke="black" stroke-width="3"/>
</g>
<g><path d="M228.47 228.47L342.33 114.6"
fill="none" stroke="black" stroke-width="3"/>
</g>
<g><path d="M228.47 143.07L356.57 143.07"
fill="none" stroke="black" stroke-width="3"/>
</g>
<g><path d="M228.47 228.47L313.87 228.47"
fill="none" stroke="black" stroke-width="9"/>
</g>
<g><path d="M171.53 285.4L370.8 285.4"
fill="none" stroke="black" stroke-width="9"/>
</g>
<g><path d="M313.87 228.47L370.8 285.4"
fill="none" stroke="black" stroke-width="9"/>
</g>
<g><path d="M271.17 285.4L271.17 399.27"
fill="none" stroke="black" stroke-width="9"/>
</g>
<g><path d="M271.17 185.77L313.87 228.47"
fill="none" stroke="black" stroke-width="3"/>
</g>
<g><path d="M191.46 134.53L200 143.07"
fill="none" stroke="black" stroke-width="3"/>
</g>
<g><path d="M200 143.07L208.54 151.61"
fill="none" stroke="black" stroke-width="3"/>
</g>
<g><path d="M208.54 134.53L191.46 151.61"
fill="none" stroke="black" stroke-width="3"/>
</g>
<g><path d="M262.63 248.39L271.17 256.93"
fill="none" stroke="black" stroke-width="3"/>
</g>
<g><path d="M271.17 256.93L279.71 265.47"
fill="none" stroke="black" stroke-width="3"/>
</g>
<g><path d="M279.71 248.39L262.63 265.47"
fill="none" stroke="black" stroke-width="3"/>
</g>
</g>
</svg>
