<?xml version="1.0" standalone="no"?><svg xmlns="http://www.w3.org/2000/svg" width="400.000" height="400.000" viewBox="0.0 0.0 400.000 400.000" version="1.1">
  <title>Produce by Acme CAD Converter</title>
  <desc>Produce by Acme CAD Converter</desc>
<g id="0" display="visible">
<g><path d="M44.2 360.8L198.08 360.8"
fill="none" stroke="black" stroke-width="9"/>
</g>
<g><path d="M101.91 283.86L103.81 275.52M103.81 275.52L109.15 268.82M109.15 268.82L116.86 265.11M116.86 265.11L125.42 265.11M125.42 265.11L133.13 268.82M133.13 268.82L138.47 275.52M138.47 275.52L140.37 283.86M140.37 283.86L138.47 292.21M138.47 292.21L133.13 298.9M133.13 298.9L125.42 302.61M125.42 302.61L116.86 302.61M116.86 302.61L109.15 298.9M109.15 298.9L103.81 292.21M103.81 292.21L101.91 283.86"
fill="none" stroke="black" stroke-width="9"/>
</g>
<g><path d="M73.05 360.8L105.75 295.4"
fill="none" stroke="black" stroke-width="9"/>
</g>
<g><path d="M169.23 360.8L136.53 295.4"
fill="none" stroke="black" stroke-width="9"/>
</g>
<g><path d="M130.76 267.13L207.69 134.03"
fill="none" stroke="black" stroke-width="9"/>
</g>
<g><path d="M174.42 114.79L212.89 48.05"
fill="none" stroke="black" stroke-width="9"/>
</g>
<g><path d="M212.89 48.05L279.44 86.52"
fill="none" stroke="black" stroke-width="9"/>
</g>
<g><path d="M279.44 86.52L240.97 153.26"
fill="none" stroke="black" stroke-width="9"/>
</g>
<g><path d="M240.97 153.26L174.42 114.79"
fill="none" stroke="black" stroke-width="9"/>
</g>
<g><path d="M246.16 67.28L284.63 0.73"
fill="none" stroke="black" stroke-width="9"/>
</g>
<g><path d="M207.69 100.56L209.6 92.21M209.6 92.21L214.94 85.52M214.94 85.52L222.65 81.81M222.65 81.81L231.21 81.81M231.21 81.81L238.92 85.52M238.92 85.52L244.26 92.21M244.26 92.21L246.16 100.56M246.16 100.56L244.26 108.9M244.26 108.9L238.92 115.6M238.92 115.6L231.21 119.31M231.21 119.31L222.65 119.31M222.65 119.31L214.94 115.6M214.94 115.6L209.6 108.9M209.6 108.9L207.69 100.56"
fill="none" stroke="black" stroke-width="9"/>
</g>
<g><path d="M246.16 101.71L355.8 108.45"
fill="none" stroke="black" stroke-width="9"/>
</g>
<g><path d="M195.22 399.27L198.08 396.41"
fill="none" stroke="black" stroke-width="3"/>
</g>
<g><path d="M140.82 399.27L179.29 360.8"
fill="none" stroke="black" stroke-width="3"/>
</g>
<g><path d="M86.42 399.27L124.88 360.8"
fill="none" stroke="black" stroke-width="3"/>
</g>
<g><path d="M44.2 387.08L70.48 360.8"
fill="none" stroke="black" stroke-width="3"/>
</g>
</g>
</svg>
