<?xml version="1.0" standalone="no"?><svg xmlns="http://www.w3.org/2000/svg" width="400.000" height="400.000" viewBox="0.0 0.0 400.000 400.000" version="1.1">
  <title>Produce by Acme CAD Converter</title>
  <desc>Produce by Acme CAD Converter</desc>
<g id="0" display="visible">
<g><path d="M348.17 353.28L41.61 353.28"
fill="none" stroke="black" stroke-width="9"/>
</g>
<g><path d="M41.61 353.28L41.61 312.41"
fill="none" stroke="black" stroke-width="3"/>
</g>
<g><path d="M41.61 312.41L48.76 291.97"
fill="none" stroke="black" stroke-width="3"/>
</g>
<g><path d="M48.76 291.97L69.2 291.97"
fill="none" stroke="black" stroke-width="3"/>
</g>
<g><path d="M69.2 291.97L83.51 332.84"
fill="none" stroke="black" stroke-width="3"/>
</g>
<g><path d="M83.51 332.84L103.94 332.84"
fill="none" stroke="black" stroke-width="3"/>
</g>
<g><path d="M103.94 332.84L118.25 291.97"
fill="none" stroke="black" stroke-width="3"/>
</g>
<g><path d="M118.25 291.97L138.69 291.97"
fill="none" stroke="black" stroke-width="3"/>
</g>
<g><path d="M138.69 291.97L145.84 312.41"
fill="none" stroke="black" stroke-width="3"/>
</g>
<g><path d="M92.7 200L399.27 200"
fill="none" stroke="black" stroke-width="3"/>
</g>
<g><path d="M245.98 46.72L245.98 353.28"
fill="none" stroke="black" stroke-width="3"/>
</g>
<g><path d="M0.73 312.41L245.98 312.41"
fill="none" stroke="black" stroke-width="3"/>
</g>
<g><path d="M133.58 200L135.49 179.35M135.49 179.35L141.17 159.39M141.17 159.39L150.41 140.83M150.41 140.83L162.91 124.27M162.91 124.27L178.24 110.3M178.24 110.3L195.88 99.38M195.88 99.38L215.22 91.88M215.22 91.88L235.61 88.07M235.61 88.07L256.36 88.07M256.36 88.07L276.75 91.88M276.75 91.88L296.09 99.38M296.09 99.38L313.72 110.3M313.72 110.3L329.05 124.27M329.05 124.27L341.55 140.83M341.55 140.83L350.8 159.39M350.8 159.39L356.48 179.35M356.48 179.35L358.39 200M358.39 200L356.48 220.65M356.48 220.65L350.8 240.61M350.8 240.61L341.55 259.17M341.55 259.17L329.05 275.73M329.05 275.73L313.72 289.7M313.72 289.7L296.09 300.62M296.09 300.62L276.75 308.12M276.75 308.12L256.36 311.93M256.36 311.93L235.61 311.93M235.61 311.93L215.22 308.12M215.22 308.12L195.88 300.62M195.88 300.62L178.24 289.7M178.24 289.7L162.91 275.73M162.91 275.73L150.41 259.17M150.41 259.17L141.17 240.61M141.17 240.61L135.49 220.65M135.49 220.65L133.58 200"
fill="none" stroke="black" stroke-width="3"/>
</g>
</g>
</svg>
