<?xml version="1.0" standalone="no"?><svg xmlns="http://www.w3.org/2000/svg" width="400.000" height="400.000" viewBox="0.0 0.0 400.000 400.000" version="1.1">
  <title>Produce by Acme CAD Converter</title>
  <desc>Produce by Acme CAD Converter</desc>
<g id="0" display="visible">
<g><path d="M200 0.73L200 399.27"
fill="none" stroke="black" stroke-width="3"/>
</g>
<g><path d="M130.26 120.29L269.74 120.29"
fill="none" stroke="black" stroke-width="3"/>
</g>
<g><path d="M130.26 279.71L269.74 279.71"
fill="none" stroke="black" stroke-width="3"/>
</g>
<g><path d="M175.4 344.21L181.5 352.26M181.5 352.26L190.08 357.56M190.08 357.56L200 359.41M200 359.41L209.92 357.56M209.92 357.56L218.5 352.26M218.5 352.26L224.6 344.21"
fill="none" stroke="black" stroke-width="9"/>
</g>
<g><path d="M175.38 215.19L166.98 235.82M166.98 235.82L161.87 257.5M161.87 257.5L160.15 279.71M160.15 279.71L161.87 301.91M161.87 301.91L166.98 323.59M166.98 323.59L175.38 344.23"
fill="none" stroke="black" stroke-width="9"/>
</g>
<g><path d="M224.6 215.2L218.5 207.16M218.5 207.16L209.92 201.85M209.92 201.85L200 200M200 200L190.08 201.85M190.08 201.85L181.5 207.16M181.5 207.16L175.4 215.2"
fill="none" stroke="black" stroke-width="9"/>
</g>
<g><path d="M224.62 344.23L233.02 323.59M233.02 323.59L238.13 301.91M238.13 301.91L239.85 279.71M239.85 279.71L238.13 257.5M238.13 257.5L233.02 235.82M233.02 235.82L224.62 215.19"
fill="none" stroke="black" stroke-width="9"/>
</g>
<g><path d="M175.4 184.8L181.5 192.84M181.5 192.84L190.08 198.15M190.08 198.15L200 200M200 200L209.92 198.15M209.92 198.15L218.5 192.84M218.5 192.84L224.6 184.8"
fill="none" stroke="black" stroke-width="9"/>
</g>
<g><path d="M175.38 55.77L166.98 76.41M166.98 76.41L161.87 98.09M161.87 98.09L160.15 120.29M160.15 120.29L161.87 142.5M161.87 142.5L166.98 164.18M166.98 164.18L175.38 184.81"
fill="none" stroke="black" stroke-width="9"/>
</g>
<g><path d="M224.6 55.79L218.5 47.74M218.5 47.74L209.92 42.44M209.92 42.44L200 40.59M200 40.59L190.08 42.44M190.08 42.44L181.5 47.74M181.5 47.74L175.4 55.79"
fill="none" stroke="black" stroke-width="9"/>
</g>
<g><path d="M224.62 184.81L233.02 164.18M233.02 164.18L238.13 142.5M238.13 142.5L239.85 120.29M239.85 120.29L238.13 98.09M238.13 98.09L233.02 76.41M233.02 76.41L224.62 55.77"
fill="none" stroke="black" stroke-width="9"/>
</g>
</g>
</svg>
