<?xml version="1.0" standalone="no"?><svg xmlns="http://www.w3.org/2000/svg" width="400.000" height="400.000" viewBox="0.0 0.0 400.000 400.000" version="1.1">
  <title>Produce by Acme CAD Converter</title>
  <desc>Produce by Acme CAD Converter</desc>
<g id="0" display="visible">
<g><path d="M173.43 0.73L173.43 399.27"
fill="none" stroke="black" stroke-width="9"/>
</g>
<g><path d="M279.71 0.73L279.71 399.27"
fill="none" stroke="black" stroke-width="9"/>
</g>
<g><path d="M279.71 0.73L173.43 0.73"
fill="none" stroke="black" stroke-width="9"/>
</g>
<g><path d="M279.71 399.27L173.43 399.27"
fill="none" stroke="black" stroke-width="9"/>
</g>
<g><path d="M279.71 200L120.29 200"
fill="none" stroke="black" stroke-width="3"/>
</g>
<g><path d="M279.71 200L359.41 200"
fill="none" stroke="black" stroke-width="9"/>
</g>
<g><path d="M120.29 266.42L173.43 266.42"
fill="none" stroke="black" stroke-width="9"/>
</g>
<g><path d="M120.29 399.27L173.43 399.27"
fill="none" stroke="black" stroke-width="9"/>
</g>
<g><path d="M120.29 266.42L120.29 399.27"
fill="none" stroke="black" stroke-width="9"/>
</g>
<g><path d="M40.59 332.84L120.29 332.84"
fill="none" stroke="black" stroke-width="9"/>
</g>
<g><path d="M173.43 266.42L253.14 266.42"
fill="none" stroke="black" stroke-width="3"/>
</g>
<g><path d="M253.14 266.42L253.14 399.27"
fill="none" stroke="black" stroke-width="3"/>
</g>
<g><path d="M186.72 306.28L213.28 332.84"
fill="none" stroke="black" stroke-width="3"/>
</g>
<g><path d="M213.28 332.84L239.85 359.41"
fill="none" stroke="black" stroke-width="3"/>
</g>
<g><path d="M239.85 306.28L186.72 359.41"
fill="none" stroke="black" stroke-width="3"/>
</g>
</g>
</svg>
