<?xml version="1.0" standalone="no"?><svg xmlns="http://www.w3.org/2000/svg" width="400.000" height="400.000" viewBox="0.0 0.0 400.000 400.000" version="1.1">
  <title>Produce by Acme CAD Converter</title>
  <desc>Produce by Acme CAD Converter</desc>
<g id="0" display="visible">
<g><path d="M46.21 361.29L198.1 361.29"
fill="none" stroke="black" stroke-width="9"/>
</g>
<g><path d="M103.17 285.35L105.05 277.11M105.05 277.11L110.32 270.5M110.32 270.5L117.93 266.83M117.93 266.83L126.38 266.83M126.38 266.83L133.99 270.5M133.99 270.5L139.26 277.11M139.26 277.11L141.14 285.35M141.14 285.35L139.26 293.58M139.26 293.58L133.99 300.19M133.99 300.19L126.38 303.86M126.38 303.86L117.93 303.86M117.93 303.86L110.32 300.19M110.32 300.19L105.05 293.58M105.05 293.58L103.17 285.35"
fill="none" stroke="black" stroke-width="9"/>
</g>
<g><path d="M74.69 361.29L106.96 296.74"
fill="none" stroke="black" stroke-width="9"/>
</g>
<g><path d="M169.62 361.29L137.34 296.74"
fill="none" stroke="black" stroke-width="9"/>
</g>
<g><path d="M131.65 268.83L150.63 235.98"
fill="none" stroke="black" stroke-width="9"/>
</g>
<g><path d="M136.74 184.13L132.48 195.22M132.48 195.22L131.85 207.08M131.85 207.08L134.92 218.56M134.92 218.56L141.39 228.53M141.39 228.53L150.62 236.01M150.62 236.01L161.71 240.27M161.71 240.27L173.57 240.9M173.57 240.9L185.05 237.83M185.05 237.83L195.02 231.37M195.02 231.37L202.5 222.14"
fill="none" stroke="black" stroke-width="9"/>
</g>
<g><path d="M202.47 222.12L297.4 57.69"
fill="none" stroke="black" stroke-width="9"/>
</g>
<g><path d="M136.77 184.15L231.71 19.72"
fill="none" stroke="black" stroke-width="9"/>
</g>
<g><path d="M297.43 57.71L301.69 46.62M301.69 46.62L302.32 34.76M302.32 34.76L299.25 23.28M299.25 23.28L292.79 13.31M292.79 13.31L283.56 5.83M283.56 5.83L272.47 1.57M272.47 1.57L260.61 0.94M260.61 0.94L249.13 4.01M249.13 4.01L239.16 10.47M239.16 10.47L231.68 19.7"
fill="none" stroke="black" stroke-width="9"/>
</g>
<g><path d="M207.59 104.4L209.48 96.16M209.48 96.16L214.74 89.56M214.74 89.56L222.36 85.89M222.36 85.89L230.81 85.89M230.81 85.89L238.42 89.56M238.42 89.56L243.69 96.16M243.69 96.16L245.57 104.4M245.57 104.4L243.69 112.64M243.69 112.64L238.42 119.25M238.42 119.25L230.81 122.91M230.81 122.91L222.36 122.91M222.36 122.91L214.74 119.25M214.74 119.25L209.48 112.64M209.48 112.64L207.59 104.4"
fill="none" stroke="black" stroke-width="9"/>
</g>
<g><path d="M245.57 105.54L353.79 112.19"
fill="none" stroke="black" stroke-width="9"/>
</g>
<g><path d="M174.75 118.45L240.44 156.43"
fill="none" stroke="black" stroke-width="9"/>
</g>
<g><path d="M212.72 52.57L278.42 90.54"
fill="none" stroke="black" stroke-width="9"/>
</g>
<g><path d="M181.85 399.27L198.1 383.01"
fill="none" stroke="black" stroke-width="3"/>
</g>
<g><path d="M128.14 399.27L166.12 361.29"
fill="none" stroke="black" stroke-width="3"/>
</g>
<g><path d="M74.44 399.27L112.41 361.29"
fill="none" stroke="black" stroke-width="3"/>
</g>
<g><path d="M46.21 373.8L58.71 361.29"
fill="none" stroke="black" stroke-width="3"/>
</g>
</g>
</svg>
