<?xml version="1.0" standalone="no"?><svg xmlns="http://www.w3.org/2000/svg" width="400.000" height="400.000" viewBox="0.0 0.0 400.000 400.000" version="1.1">
  <title>Produce by Acme CAD Converter</title>
  <desc>Produce by Acme CAD Converter</desc>
<g id="0" display="visible">
<g><path d="M42.68 200L44.62 175.39M44.62 175.39L50.38 151.39M50.38 151.39L59.83 128.58M59.83 128.58L72.73 107.53M72.73 107.53L88.76 88.76M88.76 88.76L107.53 72.73M107.53 72.73L128.58 59.83M128.58 59.83L151.39 50.38M151.39 50.38L175.39 44.62M175.39 44.62L200 42.68M200 42.68L224.61 44.62M224.61 44.62L248.61 50.38M248.61 50.38L271.42 59.83M271.42 59.83L292.47 72.73M292.47 72.73L311.24 88.76M311.24 88.76L327.27 107.53M327.27 107.53L340.17 128.58M340.17 128.58L349.62 151.39M349.62 151.39L355.38 175.39M355.38 175.39L357.32 200M357.32 200L355.38 224.61M355.38 224.61L349.62 248.61M349.62 248.61L340.17 271.42M340.17 271.42L327.27 292.47M327.27 292.47L311.24 311.24M311.24 311.24L292.47 327.27M292.47 327.27L271.42 340.17M271.42 340.17L248.61 349.62M248.61 349.62L224.61 355.38M224.61 355.38L200 357.32M200 357.32L175.39 355.38M175.39 355.38L151.39 349.62M151.39 349.62L128.58 340.17M128.58 340.17L107.53 327.27M107.53 327.27L88.76 311.24M88.76 311.24L72.73 292.47M72.73 292.47L59.83 271.42M59.83 271.42L50.38 248.61M50.38 248.61L44.62 224.61M44.62 224.61L42.68 200"
fill="none" stroke="black" stroke-width="3"/>
</g>
<g><path d="M147.56 304.88L149.51 290.73M149.51 290.73L155.2 277.63M155.2 277.63L164.21 266.55M164.21 266.55L175.87 258.32M175.87 258.32L189.33 253.54M189.33 253.54L203.58 252.56M203.58 252.56L217.56 255.47M217.56 255.47L230.24 262.04M230.24 262.04L240.68 271.78M240.68 271.78L248.1 283.99M248.1 283.99L251.95 297.74M251.95 297.74L251.95 312.02M251.95 312.02L248.1 325.77M248.1 325.77L240.68 337.97M240.68 337.97L230.24 347.72M230.24 347.72L217.56 354.29M217.56 354.29L203.58 357.19M203.58 357.19L189.33 356.22M189.33 356.22L175.87 351.44M175.87 351.44L164.21 343.2M164.21 343.2L155.2 332.12M155.2 332.12L149.51 319.02M149.51 319.02L147.56 304.88"
fill="none" stroke="black" stroke-width="3"/>
</g>
<g><path d="M200 0.73L200 399.27"
fill="none" stroke="black" stroke-width="3"/>
</g>
<g><path d="M0.73 200L399.27 200"
fill="none" stroke="black" stroke-width="3"/>
</g>
<g><path d="M105.61 304.88L294.39 304.88"
fill="none" stroke="black" stroke-width="3"/>
</g>
</g>
</svg>
