<?xml version="1.0" standalone="no"?><svg xmlns="http://www.w3.org/2000/svg" width="400.000" height="400.000" viewBox="0.0 0.0 400.000 400.000" version="1.1">
  <title>Produce by Acme CAD Converter</title>
  <desc>Produce by Acme CAD Converter</desc>
<g id="0" display="visible">
<g><path d="M266.42 0.73L266.42 399.27"
fill="none" stroke="black" stroke-width="9"/>
</g>
<g><path d="M266.42 0.73L133.58 0.73"
fill="none" stroke="black" stroke-width="9"/>
</g>
<g><path d="M266.42 399.27L133.58 399.27"
fill="none" stroke="black" stroke-width="9"/>
</g>
<g><path d="M133.58 0.73L133.58 27.3"
fill="none" stroke="black" stroke-width="9"/>
</g>
<g><path d="M133.58 399.27L133.58 372.7"
fill="none" stroke="black" stroke-width="9"/>
</g>
<g><path d="M107.01 27.3L160.15 27.3"
fill="none" stroke="black" stroke-width="9"/>
</g>
<g><path d="M107.01 372.7L160.15 372.7"
fill="none" stroke="black" stroke-width="9"/>
</g>
<g><path d="M266.42 200L346.13 200"
fill="none" stroke="black" stroke-width="9"/>
</g>
<g><path d="M133.58 239.85L133.58 372.7"
fill="none" stroke="black" stroke-width="9"/>
</g>
<g><path d="M107.01 239.85L160.15 239.85"
fill="none" stroke="black" stroke-width="9"/>
</g>
<g><path d="M53.87 306.28L133.58 306.28"
fill="none" stroke="black" stroke-width="9"/>
</g>
<g><path d="M107.01 279.71L133.58 306.28"
fill="none" stroke="black" stroke-width="3"/>
</g>
<g><path d="M133.58 306.28L160.15 332.84"
fill="none" stroke="black" stroke-width="3"/>
</g>
<g><path d="M160.15 279.71L107.01 332.84"
fill="none" stroke="black" stroke-width="3"/>
</g>
<g><path d="M226.57 160.15L266.42 200"
fill="none" stroke="black" stroke-width="3"/>
</g>
<g><path d="M266.42 200L306.28 239.85"
fill="none" stroke="black" stroke-width="3"/>
</g>
<g><path d="M306.28 160.15L226.57 239.85"
fill="none" stroke="black" stroke-width="3"/>
</g>
</g>
</svg>
