<?xml version="1.0" standalone="no"?><svg xmlns="http://www.w3.org/2000/svg" width="400.000" height="400.000" viewBox="0.0 0.0 400.000 400.000" version="1.1">
  <title>Produce by Acme CAD Converter</title>
  <desc>Produce by Acme CAD Converter</desc>
<g id="0" display="visible">
<g><path d="M96.03 139.35L97.91 119.68M97.91 119.68L103.48 100.71M103.48 100.71L112.54 83.15M112.54 83.15L124.76 67.61M124.76 67.61L139.69 54.67M139.69 54.67L156.81 44.78M156.81 44.78L175.49 38.32M175.49 38.32L195.05 35.51M195.05 35.51L214.8 36.45M214.8 36.45L234 41.11M234 41.11L251.98 49.32M251.98 49.32L268.08 60.78M268.08 60.78L281.72 75.09M281.72 75.09L292.41 91.71M292.41 91.71L299.75 110.06M299.75 110.06L303.49 129.47M303.49 129.47L303.49 149.24M303.49 149.24L299.75 168.64M299.75 168.64L292.41 186.99M292.41 186.99L281.72 203.62M281.72 203.62L268.08 217.93M268.08 217.93L251.98 229.39M251.98 229.39L234 237.6M234 237.6L214.8 242.26M214.8 242.26L195.05 243.2M195.05 243.2L175.49 240.39M175.49 240.39L156.81 233.92M156.81 233.92L139.69 224.04M139.69 224.04L124.76 211.1M124.76 211.1L112.54 195.56M112.54 195.56L103.48 177.99M103.48 177.99L97.91 159.03M97.91 159.03L96.03 139.35"
fill="none" stroke="black" stroke-width="3"/>
</g>
<g><path d="M139.35 303.97L141.26 288.88M141.26 288.88L146.86 274.75M146.86 274.75L155.79 262.45M155.79 262.45L167.5 252.76M167.5 252.76L181.26 246.29M181.26 246.29L196.19 243.44M196.19 243.44L211.36 244.39M211.36 244.39L225.82 249.09M225.82 249.09L238.66 257.24M238.66 257.24L249.06 268.32M249.06 268.32L256.39 281.64M256.39 281.64L260.17 296.36M260.17 296.36L260.17 311.57M260.17 311.57L256.39 326.29M256.39 326.29L249.06 339.61M249.06 339.61L238.66 350.69M238.66 350.69L225.82 358.84M225.82 358.84L211.36 363.54M211.36 363.54L196.19 364.49M196.19 364.49L181.26 361.64M181.26 361.64L167.5 355.17M167.5 355.17L155.79 345.48M155.79 345.48L146.86 333.18M146.86 333.18L141.26 319.05M141.26 319.05L139.35 303.97"
fill="none" stroke="black" stroke-width="3"/>
</g>
<g><path d="M200 0.73L200 399.27"
fill="none" stroke="black" stroke-width="3"/>
</g>
<g><path d="M61.38 139.35L338.62 139.35"
fill="none" stroke="black" stroke-width="3"/>
</g>
<g><path d="M104.7 303.97L295.3 303.97"
fill="none" stroke="black" stroke-width="3"/>
</g>
</g>
</svg>
