<?xml version="1.0" standalone="no"?><svg xmlns="http://www.w3.org/2000/svg" width="400.000" height="400.000" viewBox="0.0 0.0 400.000 400.000" version="1.1">
  <title>Produce by Acme CAD Converter</title>
  <desc>Produce by Acme CAD Converter</desc>
<g id="0" display="visible">
<g><path d="M200 0.73L200 399.27"
fill="none" stroke="black" stroke-width="9"/>
</g>
<g><path d="M241.95 0.73L158.05 0.73"
fill="none" stroke="black" stroke-width="9"/>
</g>
<g><path d="M241.95 252.44L158.05 252.44"
fill="none" stroke="black" stroke-width="9"/>
</g>
<g><path d="M241.95 399.27L158.05 399.27"
fill="none" stroke="black" stroke-width="9"/>
</g>
<g><path d="M283.9 126.59L200 126.59"
fill="none" stroke="black" stroke-width="9"/>
</g>
<g><path d="M283.9 325.85L200 325.85"
fill="none" stroke="black" stroke-width="9"/>
</g>
<g><path d="M116.1 325.85L200 325.85"
fill="none" stroke="black" stroke-width="9"/>
</g>
<g><path d="M116.1 126.59L200 126.59"
fill="none" stroke="black" stroke-width="9"/>
</g>
<g><path d="M179.02 105.61L200 126.59"
fill="none" stroke="black" stroke-width="3"/>
</g>
<g><path d="M200 126.59L220.98 147.56"
fill="none" stroke="black" stroke-width="3"/>
</g>
<g><path d="M220.98 105.61L179.02 147.56"
fill="none" stroke="black" stroke-width="3"/>
</g>
<g><path d="M185.32 311.17L200 325.85"
fill="none" stroke="black" stroke-width="3"/>
</g>
<g><path d="M200 325.85L214.68 340.54"
fill="none" stroke="black" stroke-width="3"/>
</g>
<g><path d="M214.68 311.17L185.32 340.54"
fill="none" stroke="black" stroke-width="3"/>
</g>
<g><path d="M179.02 252.44L158.05 273.41"
fill="none" stroke="black" stroke-width="3"/>
</g>
<g><path d="M200 252.44L158.05 294.39"
fill="none" stroke="black" stroke-width="3"/>
</g>
<g><path d="M200 273.41L158.05 315.36"
fill="none" stroke="black" stroke-width="3"/>
</g>
<g><path d="M220.98 252.44L241.95 273.41"
fill="none" stroke="black" stroke-width="3"/>
</g>
<g><path d="M200 252.44L241.95 294.39"
fill="none" stroke="black" stroke-width="3"/>
</g>
<g><path d="M200 273.41L241.95 315.36"
fill="none" stroke="black" stroke-width="3"/>
</g>
</g>
</svg>
