<?xml version="1.0" standalone="no"?><svg xmlns="http://www.w3.org/2000/svg" width="400.000" height="400.000" viewBox="0.0 0.0 400.000 400.000" version="1.1">
  <title>Produce by Acme CAD Converter</title>
  <desc>Produce by Acme CAD Converter</desc>
<g id="0" display="visible">
<g><path d="M50.55 160.15L349.45 160.15"
fill="none" stroke="black" stroke-width="9"/>
</g>
<g><path d="M50.55 239.85L349.45 239.85"
fill="none" stroke="black" stroke-width="9"/>
</g>
<g><path d="M50.55 239.85L62.87 237.9M62.87 237.9L73.98 232.24M73.98 232.24L82.79 223.43M82.79 223.43L88.45 212.32M88.45 212.32L90.4 200M90.4 200L88.45 187.68M88.45 187.68L82.79 176.57M82.79 176.57L73.98 167.76M73.98 167.76L62.87 162.1M62.87 162.1L50.55 160.15"
fill="none" stroke="black" stroke-width="9"/>
</g>
<g><path d="M349.45 160.15L337.13 162.1M337.13 162.1L326.02 167.76M326.02 167.76L317.21 176.57M317.21 176.57L311.55 187.68M311.55 187.68L309.6 200M309.6 200L311.55 212.32M311.55 212.32L317.21 223.43M317.21 223.43L326.02 232.24M326.02 232.24L337.13 237.9M337.13 237.9L349.45 239.85"
fill="none" stroke="black" stroke-width="9"/>
</g>
<g><path d="M200 100.37L200 160.15"
fill="none" stroke="black" stroke-width="9"/>
</g>
<g><path d="M200 299.63L200 239.85"
fill="none" stroke="black" stroke-width="9"/>
</g>
<g><path d="M120.29 170.11L279.71 170.11"
fill="none" stroke="black" stroke-width="9"/>
</g>
<g><path d="M120.29 229.89L279.71 229.89"
fill="none" stroke="black" stroke-width="9"/>
</g>
<g><path d="M120.29 229.89L120.29 170.11"
fill="none" stroke="black" stroke-width="9"/>
</g>
<g><path d="M279.71 229.89L279.71 170.11"
fill="none" stroke="black" stroke-width="9"/>
</g>
<g><path d="M180.07 180.07L200 200"
fill="none" stroke="black" stroke-width="3"/>
</g>
<g><path d="M200 200L219.93 219.93"
fill="none" stroke="black" stroke-width="3"/>
</g>
<g><path d="M219.93 180.07L180.07 219.93"
fill="none" stroke="black" stroke-width="3"/>
</g>
<g><path d="M0.73 200L120.29 200"
fill="none" stroke="black" stroke-width="9"/>
</g>
<g><path d="M399.27 200L279.71 200"
fill="none" stroke="black" stroke-width="9"/>
</g>
</g>
</svg>
