<?xml version="1.0" standalone="no"?><svg xmlns="http://www.w3.org/2000/svg" width="400.000" height="400.000" viewBox="0.0 0.0 400.000 400.000" version="1.1">
  <title>Produce by Acme CAD Converter</title>
  <desc>Produce by Acme CAD Converter</desc>
<g id="0" display="visible">
<g><path d="M36.96 200L38.96 184.23M38.96 184.23L44.81 169.46M44.81 169.46L54.15 156.6M54.15 156.6L66.39 146.47M66.39 146.47L80.77 139.7M80.77 139.7L96.39 136.72M96.39 136.72L112.25 137.72M112.25 137.72L127.36 142.63M127.36 142.63L140.78 151.15M140.78 151.15L151.66 162.73M151.66 162.73L159.32 176.66M159.32 176.66L163.27 192.05M163.27 192.05L163.27 207.95M163.27 207.95L159.32 223.34M159.32 223.34L151.66 237.27M151.66 237.27L140.78 248.85M140.78 248.85L127.36 257.37M127.36 257.37L112.25 262.28M112.25 262.28L96.39 263.28M96.39 263.28L80.77 260.3M80.77 260.3L66.39 253.53M66.39 253.53L54.15 243.4M54.15 243.4L44.81 230.54M44.81 230.54L38.96 215.77M38.96 215.77L36.96 200"
fill="none" stroke="black" stroke-width="9"/>
</g>
<g><path d="M272.46 200L274.3 187.24M274.3 187.24L279.65 175.52M279.65 175.52L288.09 165.77M288.09 165.77L298.94 158.8M298.94 158.8L311.3 155.17M311.3 155.17L324.19 155.17M324.19 155.17L336.56 158.8M336.56 158.8L347.41 165.77M347.41 165.77L355.85 175.52M355.85 175.52L361.2 187.24M361.2 187.24L363.04 200M363.04 200L361.2 212.76M361.2 212.76L355.85 224.48M355.85 224.48L347.41 234.23M347.41 234.23L336.56 241.2M336.56 241.2L324.19 244.83M324.19 244.83L311.3 244.83M311.3 244.83L298.94 241.2M298.94 241.2L288.09 234.23M288.09 234.23L279.65 224.48M279.65 224.48L274.3 212.76M274.3 212.76L272.46 200"
fill="none" stroke="black" stroke-width="9"/>
</g>
<g><path d="M105.62 136.78L321.55 154.89"
fill="none" stroke="black" stroke-width="9"/>
</g>
<g><path d="M105.62 263.22L321.55 245.11"
fill="none" stroke="black" stroke-width="9"/>
</g>
<g><path d="M0.73 200L399.27 200"
fill="none" stroke="black" stroke-width="3"/>
</g>
<g><path d="M100.37 100.37L100.37 299.63"
fill="none" stroke="black" stroke-width="3"/>
</g>
<g><path d="M317.75 118.48L317.75 281.52"
fill="none" stroke="black" stroke-width="3"/>
</g>
<g><path d="M228.8 147.28L209.06 100.37"
fill="none" stroke="black" stroke-width="9"/>
</g>
<g><path d="M209.06 100.37L256.16 104.17"
fill="none" stroke="black" stroke-width="9"/>
</g>
<g><path d="M256.16 104.17L228.8 147.28"
fill="none" stroke="black" stroke-width="9"/>
</g>
</g>
</svg>
