<?xml version="1.0" standalone="no"?><svg xmlns="http://www.w3.org/2000/svg" width="400.000" height="400.000" viewBox="0.0 0.0 400.000 400.000" version="1.1">
  <title>Produce by Acme CAD Converter</title>
  <desc>Produce by Acme CAD Converter</desc>
<g id="0" display="visible">
<g><path d="M78.23 122.51L78.23 56.09"
fill="none" stroke="black" stroke-width="9"/>
</g>
<g><path d="M155.72 155.72L155.72 122.51"
fill="none" stroke="black" stroke-width="9"/>
</g>
<g><path d="M155.72 122.51L0.73 122.51"
fill="none" stroke="black" stroke-width="9"/>
</g>
<g><path d="M0.73 122.51L0.73 277.49"
fill="none" stroke="black" stroke-width="9"/>
</g>
<g><path d="M56.09 177.86L78.23 200"
fill="none" stroke="black" stroke-width="3"/>
</g>
<g><path d="M78.23 200L100.37 222.14"
fill="none" stroke="black" stroke-width="3"/>
</g>
<g><path d="M100.37 177.86L56.09 222.14"
fill="none" stroke="black" stroke-width="3"/>
</g>
<g><path d="M343.91 122.51L343.91 56.09"
fill="none" stroke="black" stroke-width="9"/>
</g>
<g><path d="M0.73 155.72L399.27 155.72"
fill="none" stroke="black" stroke-width="9"/>
</g>
<g><path d="M288.56 155.72L288.56 122.51"
fill="none" stroke="black" stroke-width="9"/>
</g>
<g><path d="M288.56 122.51L399.27 122.51"
fill="none" stroke="black" stroke-width="9"/>
</g>
<g><path d="M399.27 122.51L399.27 277.49"
fill="none" stroke="black" stroke-width="9"/>
</g>
<g><path d="M321.77 177.86L343.91 200"
fill="none" stroke="black" stroke-width="3"/>
</g>
<g><path d="M343.91 200L366.06 222.14"
fill="none" stroke="black" stroke-width="3"/>
</g>
<g><path d="M366.06 177.86L321.77 222.14"
fill="none" stroke="black" stroke-width="3"/>
</g>
<g><path d="M78.23 277.49L78.23 343.91"
fill="none" stroke="black" stroke-width="9"/>
</g>
<g><path d="M155.72 244.28L155.72 277.49"
fill="none" stroke="black" stroke-width="9"/>
</g>
<g><path d="M155.72 277.49L0.73 277.49"
fill="none" stroke="black" stroke-width="9"/>
</g>
<g><path d="M343.91 277.49L343.91 343.91"
fill="none" stroke="black" stroke-width="9"/>
</g>
<g><path d="M0.73 244.28L399.27 244.28"
fill="none" stroke="black" stroke-width="9"/>
</g>
<g><path d="M288.56 244.28L288.56 277.49"
fill="none" stroke="black" stroke-width="9"/>
</g>
<g><path d="M288.56 277.49L399.27 277.49"
fill="none" stroke="black" stroke-width="9"/>
</g>
</g>
</svg>
