<?xml version="1.0" standalone="no"?><svg xmlns="http://www.w3.org/2000/svg" width="400.000" height="400.000" viewBox="0.0 0.0 400.000 400.000" version="1.1">
  <title>Produce by Acme CAD Converter</title>
  <desc>Produce by Acme CAD Converter</desc>
<g id="0" display="visible">
<g><path d="M0.73 224.91L157.3 224.91"
fill="none" stroke="black" stroke-width="9"/>
</g>
<g><path d="M157.3 260.49L157.3 189.32"
fill="none" stroke="black" stroke-width="9"/>
</g>
<g><path d="M157.3 189.32L242.7 189.32"
fill="none" stroke="black" stroke-width="9"/>
</g>
<g><path d="M242.7 189.32L242.7 260.49"
fill="none" stroke="black" stroke-width="9"/>
</g>
<g><path d="M242.7 260.49L157.3 260.49"
fill="none" stroke="black" stroke-width="9"/>
</g>
<g><path d="M242.7 224.91L399.27 224.91"
fill="none" stroke="black" stroke-width="9"/>
</g>
<g><path d="M185.77 224.91L187.67 217.79M187.67 217.79L192.88 212.58M192.88 212.58L200 210.68M200 210.68L207.12 212.58M207.12 212.58L212.33 217.79M212.33 217.79L214.23 224.91M214.23 224.91L212.33 232.03M212.33 232.03L207.12 237.23M207.12 237.23L200 239.14M200 239.14L192.88 237.23M192.88 237.23L187.67 232.03M187.67 232.03L185.77 224.91"
fill="none" stroke="black" stroke-width="9"/>
</g>
<g><path d="M207.9 213.07L256.93 139.51"
fill="none" stroke="black" stroke-width="9"/>
</g>
<g><path d="M42.2 253.38L70.67 224.91"
fill="none" stroke="black" stroke-width="3"/>
</g>
<g><path d="M1.94 253.38L30.41 224.91"
fill="none" stroke="black" stroke-width="3"/>
</g>
</g>
</svg>
