<?xml version="1.0" standalone="no"?><svg xmlns="http://www.w3.org/2000/svg" width="400.000" height="400.000" viewBox="0.0 0.0 400.000 400.000" version="1.1">
  <title>Produce by Acme CAD Converter</title>
  <desc>Produce by Acme CAD Converter</desc>
<g id="0" display="visible">
<g><path d="M97.52 228.47L165.84 228.47"
fill="none" stroke="black" stroke-width="9"/>
</g>
<g><path d="M234.16 228.47L302.48 228.47"
fill="none" stroke="black" stroke-width="9"/>
</g>
<g><path d="M165.84 182.92L165.84 274.01"
fill="none" stroke="black" stroke-width="9"/>
</g>
<g><path d="M234.16 182.92L234.16 274.01"
fill="none" stroke="black" stroke-width="9"/>
</g>
<g><path d="M165.84 182.92L234.16 182.92"
fill="none" stroke="black" stroke-width="9"/>
</g>
<g><path d="M165.84 274.01L234.16 274.01"
fill="none" stroke="black" stroke-width="9"/>
</g>
<g><path d="M200 91.83L200 365.11"
fill="none" stroke="black" stroke-width="9"/>
</g>
<g><path d="M165.84 57.67L167.69 46.57M167.69 46.57L173.04 36.69M173.04 36.69L181.32 29.07M181.32 29.07L191.61 24.55M191.61 24.55L202.82 23.62M202.82 23.62L213.72 26.38M213.72 26.38L223.14 32.53M223.14 32.53L230.04 41.41M230.04 41.41L233.69 52.04M233.69 52.04L233.69 63.29M233.69 63.29L230.04 73.93M230.04 73.93L223.14 82.8M223.14 82.8L213.72 88.95M213.72 88.95L202.82 91.71M202.82 91.71L191.61 90.78M191.61 90.78L181.32 86.26M181.32 86.26L173.04 78.65M173.04 78.65L167.69 68.76M167.69 68.76L165.84 57.67"
fill="none" stroke="black" stroke-width="9"/>
</g>
<g><path d="M234.16 399.27L232.49 388.71M232.49 388.71L227.64 379.19M227.64 379.19L220.08 371.63M220.08 371.63L210.56 366.78M210.56 366.78L200 365.11M200 365.11L189.44 366.78M189.44 366.78L179.92 371.63M179.92 371.63L172.36 379.19M172.36 379.19L167.51 388.71M167.51 388.71L165.84 399.27"
fill="none" stroke="black" stroke-width="9"/>
</g>
<g><path d="M143.07 57.67L256.93 57.67"
fill="none" stroke="black" stroke-width="3"/>
</g>
<g><path d="M200 0.73L200 91.83"
fill="none" stroke="black" stroke-width="3"/>
</g>
</g>
</svg>
