<?xml version="1.0" standalone="no"?><svg xmlns="http://www.w3.org/2000/svg" width="400.000" height="400.000" viewBox="0.0 0.0 400.000 400.000" version="1.1">
  <title>Produce by Acme CAD Converter</title>
  <desc>Produce by Acme CAD Converter</desc>
<g id="0" display="visible">
<g><path d="M50.55 209.96L52.49 185.99M52.49 185.99L58.24 162.64M58.24 162.64L67.67 140.51M67.67 140.51L80.52 120.18M80.52 120.18L96.47 102.18M96.47 102.18L115.1 86.97M115.1 86.97L135.93 74.94M135.93 74.94L158.42 66.41M158.42 66.41L181.99 61.6M181.99 61.6L206.02 60.63M206.02 60.63L229.89 63.53M229.89 63.53L253 70.23M253 70.23L274.73 80.54M274.73 80.54L294.52 94.2M294.52 94.2L311.86 110.86M311.86 110.86L326.31 130.09M326.31 130.09L337.49 151.38M337.49 151.38L345.11 174.2M345.11 174.2L348.97 197.94M348.97 197.94L348.97 221.99M348.97 221.99L345.11 245.73M345.11 245.73L337.49 268.54M337.49 268.54L326.31 289.84M326.31 289.84L311.86 309.07M311.86 309.07L294.52 325.73M294.52 325.73L274.73 339.39M274.73 339.39L253 349.7M253 349.7L229.89 356.39M229.89 356.39L206.02 359.29M206.02 359.29L181.99 358.32M181.99 358.32L158.42 353.51M158.42 353.51L135.93 344.98M135.93 344.98L115.1 332.96M115.1 332.96L96.47 317.75M96.47 317.75L80.52 299.74M80.52 299.74L67.67 279.42M67.67 279.42L58.24 257.29M58.24 257.29L52.49 233.94M52.49 233.94L50.55 209.96"
fill="none" stroke="black" stroke-width="9"/>
</g>
<g><path d="M120.29 0.73L279.71 0.73"
fill="none" stroke="black" stroke-width="9"/>
</g>
<g><path d="M120.29 60.51L279.71 60.51"
fill="none" stroke="black" stroke-width="9"/>
</g>
<g><path d="M120.29 60.51L120.29 0.73"
fill="none" stroke="black" stroke-width="9"/>
</g>
<g><path d="M279.71 60.51L279.71 0.73"
fill="none" stroke="black" stroke-width="9"/>
</g>
<g><path d="M180.07 10.7L200 30.62"
fill="none" stroke="black" stroke-width="3"/>
</g>
<g><path d="M200 30.62L219.93 50.55"
fill="none" stroke="black" stroke-width="3"/>
</g>
<g><path d="M219.93 10.7L180.07 50.55"
fill="none" stroke="black" stroke-width="3"/>
</g>
<g><path d="M40.59 30.62L120.29 30.62"
fill="none" stroke="black" stroke-width="9"/>
</g>
<g><path d="M359.41 30.62L279.71 30.62"
fill="none" stroke="black" stroke-width="9"/>
</g>
<g><path d="M10.7 209.96L389.3 209.96"
fill="none" stroke="black" stroke-width="3"/>
</g>
<g><path d="M200 399.27L200 60.51"
fill="none" stroke="black" stroke-width="3"/>
</g>
</g>
</svg>
