<?xml version="1.0" standalone="no"?><svg xmlns="http://www.w3.org/2000/svg" width="400.000" height="400.000" viewBox="0.0 0.0 400.000 400.000" version="1.1">
  <title>Produce by Acme CAD Converter</title>
  <desc>Produce by Acme CAD Converter</desc>
<g id="0" display="visible">
<g><path d="M67.16 399.27L67.16 266.42"
fill="none" stroke="black" stroke-width="12"/>
</g>
<g><path d="M67.16 266.42L146.86 186.72"
fill="none" stroke="black" stroke-width="12"/>
</g>
<g><path d="M153.98 86.6L239.85 0.73"
fill="none" stroke="black" stroke-width="12"/>
</g>
<g><path d="M246.97 179.6L332.84 93.72"
fill="none" stroke="black" stroke-width="12"/>
</g>
<g><path d="M153.98 86.6L142.3 97.84M142.3 97.84L133.68 111.57M133.68 111.57L128.65 126.98M128.65 126.98L127.5 143.15M127.5 143.15L130.3 159.12M130.3 159.12L136.89 173.93M136.89 173.93L146.87 186.71M146.87 186.71L159.64 196.69M159.64 196.69L174.46 203.27M174.46 203.27L190.42 206.08M190.42 206.08L206.59 204.93M206.59 204.93L222 199.9M222 199.9L235.74 191.28M235.74 191.28L246.97 179.6"
fill="none" stroke="black" stroke-width="12"/>
</g>
<g><path d="M67.16 399.27L67.16 399.27"
fill="none" stroke="black" stroke-width=".5"/>
</g>
</g>
</svg>
