<?xml version="1.0" standalone="no"?><svg xmlns="http://www.w3.org/2000/svg" width="400.000" height="400.000" viewBox="0.0 0.0 400.000 400.000" version="1.1">
  <title>Produce by Acme CAD Converter</title>
  <desc>Produce by Acme CAD Converter</desc>
<g id="0" display="visible">
<g><path d="M146.86 0.73L200 80.44"
fill="none" stroke="black" stroke-width="12"/>
</g>
<g><path d="M200 80.44L253.14 0.73"
fill="none" stroke="black" stroke-width="12"/>
</g>
<g><path d="M200 0.73L200 186.72"
fill="none" stroke="black" stroke-width="12"/>
</g>
<g><path d="M40.59 226.57L359.41 226.57"
fill="none" stroke="black" stroke-width="12"/>
</g>
<g><path d="M146.86 319.56L145.05 305.81M145.05 305.81L139.74 292.99M139.74 292.99L131.3 281.99M131.3 281.99L120.29 273.54M120.29 273.54L107.48 268.23M107.48 268.23L93.72 266.42M93.72 266.42L79.97 268.23M79.97 268.23L67.16 273.54M67.16 273.54L56.15 281.99M56.15 281.99L47.71 292.99M47.71 292.99L42.4 305.81M42.4 305.81L40.59 319.56"
fill="none" stroke="black" stroke-width="12"/>
</g>
<g><path d="M253.14 319.56L251.33 305.81M251.33 305.81L246.02 292.99M246.02 292.99L237.57 281.99M237.57 281.99L226.57 273.54M226.57 273.54L213.75 268.23M213.75 268.23L200 266.42M200 266.42L186.25 268.23M186.25 268.23L173.43 273.54M173.43 273.54L162.43 281.99M162.43 281.99L153.98 292.99M153.98 292.99L148.67 305.81M148.67 305.81L146.86 319.56"
fill="none" stroke="black" stroke-width="12"/>
</g>
<g><path d="M359.41 319.56L357.6 305.81M357.6 305.81L352.29 292.99M352.29 292.99L343.85 281.99M343.85 281.99L332.84 273.54M332.84 273.54L320.03 268.23M320.03 268.23L306.28 266.42M306.28 266.42L292.52 268.23M292.52 268.23L279.71 273.54M279.71 273.54L268.7 281.99M268.7 281.99L260.26 292.99M260.26 292.99L254.95 305.81M254.95 305.81L253.14 319.56"
fill="none" stroke="black" stroke-width="12"/>
</g>
<g><path d="M359.41 319.56L359.41 399.27"
fill="none" stroke="black" stroke-width="12"/>
</g>
<g><path d="M40.59 319.56L40.59 399.27"
fill="none" stroke="black" stroke-width="12"/>
</g>
<g><path d="M40.59 399.27L40.59 399.27"
fill="none" stroke="black" stroke-width=".5"/>
</g>
<g><path d="M359.41 399.27L359.41 399.27"
fill="none" stroke="black" stroke-width=".5"/>
</g>
</g>
</svg>
