<?xml version="1.0" standalone="no"?><svg xmlns="http://www.w3.org/2000/svg" width="400.000" height="400.000" viewBox="0.0 0.0 400.000 400.000" version="1.1">
  <title>Produce by Acme CAD Converter</title>
  <desc>Produce by Acme CAD Converter</desc>
<g id="0" display="visible">
<g><path d="M0.73 200L2.67 172.27M2.67 172.27L8.45 145.07M8.45 145.07L17.96 118.95M17.96 118.95L31.01 94.4M31.01 94.4L47.35 71.91M47.35 71.91L66.66 51.92M66.66 51.92L88.57 34.8M88.57 34.8L112.65 20.9M112.65 20.9L138.42 10.49M138.42 10.49L165.4 3.76M165.4 3.76L193.05 0.85M193.05 0.85L220.83 1.82M220.83 1.82L248.21 6.65M248.21 6.65L274.65 15.24M274.65 15.24L299.63 27.43M299.63 27.43L322.68 42.98M322.68 42.98L343.34 61.58M343.34 61.58L361.21 82.87M361.21 82.87L375.94 106.45M375.94 106.45L387.25 131.85M387.25 131.85L394.91 158.57M394.91 158.57L398.78 186.1M398.78 186.1L398.78 213.9M398.78 213.9L394.91 241.43M394.91 241.43L387.25 268.15M387.25 268.15L375.94 293.55M375.94 293.55L361.21 317.13M361.21 317.13L343.34 338.42M343.34 338.42L322.68 357.02M322.68 357.02L299.63 372.57M299.63 372.57L274.65 384.76M274.65 384.76L248.21 393.35M248.21 393.35L220.83 398.18M220.83 398.18L193.05 399.15M193.05 399.15L165.4 396.24M165.4 396.24L138.42 389.51M138.42 389.51L112.65 379.1M112.65 379.1L88.57 365.2M88.57 365.2L66.66 348.08M66.66 348.08L47.35 328.09M47.35 328.09L31.01 305.6M31.01 305.6L17.96 281.05M17.96 281.05L8.45 254.93M8.45 254.93L2.67 227.73M2.67 227.73L0.73 200"
fill="none" stroke="black" stroke-width="3"/>
</g>
<g><path d="M80.44 200L82.36 178.65M82.36 178.65L88.06 157.99M88.06 157.99L97.36 138.68M97.36 138.68L109.96 121.34M109.96 121.34L125.46 106.52M125.46 106.52L143.34 94.72M143.34 94.72L163.05 86.29M163.05 86.29L183.95 81.52M183.95 81.52L205.36 80.56M205.36 80.56L226.6 83.44M226.6 83.44L246.99 90.06M246.99 90.06L265.87 100.22M265.87 100.22L282.62 113.58M282.62 113.58L296.73 129.72M296.73 129.72L307.72 148.12M307.72 148.12L315.25 168.19M315.25 168.19L319.08 189.28M319.08 189.28L319.08 210.72M319.08 210.72L315.25 231.81M315.25 231.81L307.72 251.88M307.72 251.88L296.73 270.28M296.73 270.28L282.62 286.42M282.62 286.42L265.87 299.78M265.87 299.78L246.99 309.94M246.99 309.94L226.6 316.56M226.6 316.56L205.36 319.44M205.36 319.44L183.95 318.48M183.95 318.48L163.05 313.71M163.05 313.71L143.34 305.28M143.34 305.28L125.46 293.48M125.46 293.48L109.96 278.66M109.96 278.66L97.36 261.32M97.36 261.32L88.06 242.01M88.06 242.01L82.36 221.35M82.36 221.35L80.44 200"
fill="none" stroke="black" stroke-width="3"/>
</g>
<g><path d="M200 80.44L200 0.73"
fill="none" stroke="black" stroke-width="3"/>
</g>
<g><path d="M80.44 200L0.73 200"
fill="none" stroke="black" stroke-width="3"/>
</g>
<g><path d="M200 319.56L200 399.27"
fill="none" stroke="black" stroke-width="3"/>
</g>
<g><path d="M319.56 200L399.27 200"
fill="none" stroke="black" stroke-width="3"/>
</g>
</g>
</svg>
