<?xml version="1.0" standalone="no"?><svg xmlns="http://www.w3.org/2000/svg" width="400.000" height="400.000" viewBox="0.0 0.0 400.000 400.000" version="1.1">
  <title>Produce by Acme CAD Converter</title>
  <desc>Produce by Acme CAD Converter</desc>
<g id="0" display="visible">
<g><path d="M0.73 299.63L0.73 100.37"
fill="none" stroke="black" stroke-width="3"/>
</g>
<g><path d="M0.73 100.37L399.27 100.37"
fill="none" stroke="black" stroke-width="3"/>
</g>
<g><path d="M399.27 100.37L399.27 299.63"
fill="none" stroke="black" stroke-width="3"/>
</g>
<g><path d="M399.27 299.63L0.73 299.63"
fill="none" stroke="black" stroke-width="3"/>
</g>
<g><path d="M51.93 200L53.88 187.68M53.88 187.68L59.54 176.57M59.54 176.57L68.35 167.76M68.35 167.76L79.46 162.1M79.46 162.1L91.78 160.15M91.78 160.15L104.09 162.1M104.09 162.1L115.2 167.76M115.2 167.76L124.02 176.57M124.02 176.57L129.68 187.68M129.68 187.68L131.63 200M131.63 200L129.68 212.32M129.68 212.32L124.02 223.43M124.02 223.43L115.2 232.24M115.2 232.24L104.09 237.9M104.09 237.9L91.78 239.85M91.78 239.85L79.46 237.9M79.46 237.9L68.35 232.24M68.35 232.24L59.54 223.43M59.54 223.43L53.88 212.32M53.88 212.32L51.93 200"
fill="none" stroke="black" stroke-width="3"/>
</g>
<g><path d="M268.37 200L270.32 187.68M270.32 187.68L275.98 176.57M275.98 176.57L284.8 167.76M284.8 167.76L295.91 162.1M295.91 162.1L308.22 160.15M308.22 160.15L320.54 162.1M320.54 162.1L331.65 167.76M331.65 167.76L340.46 176.57M340.46 176.57L346.12 187.68M346.12 187.68L348.07 200M348.07 200L346.12 212.32M346.12 212.32L340.46 223.43M340.46 223.43L331.65 232.24M331.65 232.24L320.54 237.9M320.54 237.9L308.22 239.85M308.22 239.85L295.91 237.9M295.91 237.9L284.8 232.24M284.8 232.24L275.98 223.43M275.98 223.43L270.32 212.32M270.32 212.32L268.37 200"
fill="none" stroke="black" stroke-width="3"/>
</g>
</g>
</svg>
