<?xml version="1.0" standalone="no"?><svg xmlns="http://www.w3.org/2000/svg" width="400.000" height="400.000" viewBox="0.0 0.0 400.000 400.000" version="1.1">
  <title>Produce by Acme CAD Converter</title>
  <desc>Produce by Acme CAD Converter</desc>
<g id="0" display="visible">
<g><path d="M0.73 359.41L0.73 40.59"
fill="none" stroke="black" stroke-width="3"/>
</g>
<g><path d="M0.73 40.59L399.27 40.59"
fill="none" stroke="black" stroke-width="3"/>
</g>
<g><path d="M399.27 40.59L399.27 359.41"
fill="none" stroke="black" stroke-width="3"/>
</g>
<g><path d="M399.27 359.41L0.73 359.41"
fill="none" stroke="black" stroke-width="3"/>
</g>
<g><path d="M51.93 259.78L53.88 247.46M53.88 247.46L59.54 236.35M59.54 236.35L68.35 227.54M68.35 227.54L79.46 221.88M79.46 221.88L91.78 219.93M91.78 219.93L104.09 221.88M104.09 221.88L115.2 227.54M115.2 227.54L124.02 236.35M124.02 236.35L129.68 247.46M129.68 247.46L131.63 259.78M131.63 259.78L129.68 272.1M129.68 272.1L124.02 283.21M124.02 283.21L115.2 292.02M115.2 292.02L104.09 297.68M104.09 297.68L91.78 299.63M91.78 299.63L79.46 297.68M79.46 297.68L68.35 292.02M68.35 292.02L59.54 283.21M59.54 283.21L53.88 272.1M53.88 272.1L51.93 259.78"
fill="none" stroke="black" stroke-width="3"/>
</g>
<g><path d="M268.37 259.78L270.32 247.46M270.32 247.46L275.98 236.35M275.98 236.35L284.8 227.54M284.8 227.54L295.91 221.88M295.91 221.88L308.22 219.93M308.22 219.93L320.54 221.88M320.54 221.88L331.65 227.54M331.65 227.54L340.46 236.35M340.46 236.35L346.12 247.46M346.12 247.46L348.07 259.78M348.07 259.78L346.12 272.1M346.12 272.1L340.46 283.21M340.46 283.21L331.65 292.02M331.65 292.02L320.54 297.68M320.54 297.68L308.22 299.63M308.22 299.63L295.91 297.68M295.91 297.68L284.8 292.02M284.8 292.02L275.98 283.21M275.98 283.21L270.32 272.1M270.32 272.1L268.37 259.78"
fill="none" stroke="black" stroke-width="3"/>
</g>
<g><path d="M51.93 140.22L53.88 127.9M53.88 127.9L59.54 116.79M59.54 116.79L68.35 107.98M68.35 107.98L79.46 102.32M79.46 102.32L91.78 100.37M91.78 100.37L104.09 102.32M104.09 102.32L115.2 107.98M115.2 107.98L124.02 116.79M124.02 116.79L129.68 127.9M129.68 127.9L131.63 140.22M131.63 140.22L129.68 152.54M129.68 152.54L124.02 163.65M124.02 163.65L115.2 172.46M115.2 172.46L104.09 178.12M104.09 178.12L91.78 180.07M91.78 180.07L79.46 178.12M79.46 178.12L68.35 172.46M68.35 172.46L59.54 163.65M59.54 163.65L53.88 152.54M53.88 152.54L51.93 140.22"
fill="none" stroke="black" stroke-width="3"/>
</g>
<g><path d="M268.37 140.22L270.32 127.9M270.32 127.9L275.98 116.79M275.98 116.79L284.8 107.98M284.8 107.98L295.91 102.32M295.91 102.32L308.22 100.37M308.22 100.37L320.54 102.32M320.54 102.32L331.65 107.98M331.65 107.98L340.46 116.79M340.46 116.79L346.12 127.9M346.12 127.9L348.07 140.22M348.07 140.22L346.12 152.54M346.12 152.54L340.46 163.65M340.46 163.65L331.65 172.46M331.65 172.46L320.54 178.12M320.54 178.12L308.22 180.07M308.22 180.07L295.91 178.12M295.91 178.12L284.8 172.46M284.8 172.46L275.98 163.65M275.98 163.65L270.32 152.54M270.32 152.54L268.37 140.22"
fill="none" stroke="black" stroke-width="3"/>
</g>
</g>
</svg>
