<?xml version="1.0" standalone="no"?><svg xmlns="http://www.w3.org/2000/svg" width="400.000" height="400.000" viewBox="0.0 0.0 400.000 400.000" version="1.1">
  <title>Produce by Acme CAD Converter</title>
  <desc>Produce by Acme CAD Converter</desc>
<g id="0" display="visible">
<g><path d="M0.73 399.27L0.73 0.73"
fill="none" stroke="black" stroke-width="3"/>
</g>
<g><path d="M0.73 0.73L399.27 0.73"
fill="none" stroke="black" stroke-width="3"/>
</g>
<g><path d="M399.27 0.73L399.27 399.27"
fill="none" stroke="black" stroke-width="3"/>
</g>
<g><path d="M399.27 399.27L0.73 399.27"
fill="none" stroke="black" stroke-width="3"/>
</g>
<g><path d="M120.29 200L122.16 182.87M122.16 182.87L127.66 166.53M127.66 166.53L136.55 151.76M136.55 151.76L148.4 139.25M148.4 139.25L162.66 129.58M162.66 129.58L178.68 123.2M178.68 123.2L195.68 120.41M195.68 120.41L212.9 121.34M212.9 121.34L229.5 125.95M229.5 125.95L244.73 134.03M244.73 134.03L257.87 145.19M257.87 145.19L268.3 158.91M268.3 158.91L275.53 174.55M275.53 174.55L279.24 191.38M279.24 191.38L279.24 208.62M279.24 208.62L275.53 225.45M275.53 225.45L268.3 241.09M268.3 241.09L257.87 254.81M257.87 254.81L244.73 265.97M244.73 265.97L229.5 274.05M229.5 274.05L212.9 278.66M212.9 278.66L195.68 279.59M195.68 279.59L178.68 276.8M178.68 276.8L162.66 270.42M162.66 270.42L148.4 260.75M148.4 260.75L136.55 248.24M136.55 248.24L127.66 233.47M127.66 233.47L122.16 217.13M122.16 217.13L120.29 200"
fill="none" stroke="black" stroke-width="3"/>
</g>
<g><path d="M200 279.71L200 120.29"
fill="none" stroke="black" stroke-width="3"/>
</g>
<g><path d="M202.88 279.65L202.88 120.35"
fill="none" stroke="black" stroke-width="3"/>
</g>
<g><path d="M206.87 279.41L206.87 120.59"
fill="none" stroke="black" stroke-width="3"/>
</g>
<g><path d="M210.85 278.96L210.85 121.04"
fill="none" stroke="black" stroke-width="3"/>
</g>
<g><path d="M214.84 278.31L214.84 121.69"
fill="none" stroke="black" stroke-width="3"/>
</g>
<g><path d="M218.82 277.45L218.82 122.55"
fill="none" stroke="black" stroke-width="3"/>
</g>
<g><path d="M222.81 276.37L222.81 123.63"
fill="none" stroke="black" stroke-width="3"/>
</g>
<g><path d="M226.79 275.07L226.79 124.93"
fill="none" stroke="black" stroke-width="3"/>
</g>
<g><path d="M230.78 273.52L230.78 126.48"
fill="none" stroke="black" stroke-width="3"/>
</g>
<g><path d="M234.76 271.73L234.76 128.27"
fill="none" stroke="black" stroke-width="3"/>
</g>
<g><path d="M238.75 269.65L238.75 130.35"
fill="none" stroke="black" stroke-width="3"/>
</g>
<g><path d="M242.73 267.28L242.73 132.72"
fill="none" stroke="black" stroke-width="3"/>
</g>
<g><path d="M246.72 264.58L246.72 135.42"
fill="none" stroke="black" stroke-width="3"/>
</g>
<g><path d="M250.71 261.5L250.71 138.5"
fill="none" stroke="black" stroke-width="3"/>
</g>
<g><path d="M254.69 257.98L254.69 142.02"
fill="none" stroke="black" stroke-width="3"/>
</g>
<g><path d="M258.68 253.95L258.68 146.05"
fill="none" stroke="black" stroke-width="3"/>
</g>
<g><path d="M262.66 249.26L262.66 150.74"
fill="none" stroke="black" stroke-width="3"/>
</g>
<g><path d="M266.65 243.72L266.65 156.28"
fill="none" stroke="black" stroke-width="3"/>
</g>
<g><path d="M270.63 236.94L270.63 163.06"
fill="none" stroke="black" stroke-width="3"/>
</g>
<g><path d="M274.62 228.02L274.62 171.98"
fill="none" stroke="black" stroke-width="3"/>
</g>
<g><path d="M278.6 213.22L278.6 186.78"
fill="none" stroke="black" stroke-width="3"/>
</g>
</g>
</svg>
