<?xml version="1.0" standalone="no"?><svg xmlns="http://www.w3.org/2000/svg" width="400.000" height="400.000" viewBox="0.0 0.0 400.000 400.000" version="1.1">
  <title>Produce by Acme CAD Converter</title>
  <desc>Produce by Acme CAD Converter</desc>
<g id="0" display="visible">
<g><path d="M0.73 100.37L399.27 100.37"
fill="none" stroke="black" stroke-width="3"/>
</g>
<g><path d="M399.27 299.63L0.73 299.63"
fill="none" stroke="black" stroke-width="3"/>
</g>
<g><path d="M0.73 299.63L0.73 100.37"
fill="none" stroke="black" stroke-width="3"/>
</g>
<g><path d="M51.93 160.15L53.88 147.83M53.88 147.83L59.54 136.72M59.54 136.72L68.35 127.9M68.35 127.9L79.46 122.24M79.46 122.24L91.78 120.29M91.78 120.29L104.09 122.24M104.09 122.24L115.2 127.9M115.2 127.9L124.02 136.72M124.02 136.72L129.68 147.83M129.68 147.83L131.63 160.15M131.63 160.15L129.68 172.46M129.68 172.46L124.02 183.57M124.02 183.57L115.2 192.39M115.2 192.39L104.09 198.05M104.09 198.05L91.78 200M91.78 200L79.46 198.05M79.46 198.05L68.35 192.39M68.35 192.39L59.54 183.57M59.54 183.57L53.88 172.46M53.88 172.46L51.93 160.15"
fill="none" stroke="black" stroke-width="3"/>
</g>
<g><path d="M268.37 239.85L270.32 227.54M270.32 227.54L275.98 216.43M275.98 216.43L284.8 207.61M284.8 207.61L295.91 201.95M295.91 201.95L308.22 200M308.22 200L320.54 201.95M320.54 201.95L331.65 207.61M331.65 207.61L340.46 216.43M340.46 216.43L346.12 227.54M346.12 227.54L348.07 239.85M348.07 239.85L346.12 252.17M346.12 252.17L340.46 263.28M340.46 263.28L331.65 272.1M331.65 272.1L320.54 277.76M320.54 277.76L308.22 279.71M308.22 279.71L295.91 277.76M295.91 277.76L284.8 272.1M284.8 272.1L275.98 263.28M275.98 263.28L270.32 252.17M270.32 252.17L268.37 239.85"
fill="none" stroke="black" stroke-width="3"/>
</g>
<g><path d="M399.27 100.37L399.27 299.63"
fill="none" stroke="black" stroke-width="3"/>
</g>
<g><path d="M0.73 299.63L399.27 100.37"
fill="none" stroke="black" stroke-width="3"/>
</g>
</g>
</svg>
