<?xml version="1.0" standalone="no"?><svg xmlns="http://www.w3.org/2000/svg" width="400.000" height="400.000" viewBox="0.0 0.0 400.000 400.000" version="1.1">
  <title>Produce by Acme CAD Converter</title>
  <desc>Produce by Acme CAD Converter</desc>
<g id="0" display="visible">
<g><path d="M399.27 299.63L0.73 299.63"
fill="none" stroke="black" stroke-width="3"/>
</g>
<g><path d="M0.73 100.37L399.27 100.37"
fill="none" stroke="black" stroke-width="3"/>
</g>
<g><path d="M0.73 299.63L0.73 100.37"
fill="none" stroke="black" stroke-width="3"/>
</g>
<g><path d="M399.27 100.37L399.27 299.63"
fill="none" stroke="black" stroke-width="3"/>
</g>
<g><path d="M159.44 185.92L157.99 174.1M157.99 174.1L153.01 163.28M153.01 163.28L144.96 154.51M144.96 154.51L134.62 148.6M134.62 148.6L122.98 146.12M122.98 146.12L111.13 147.32M111.13 147.32L100.21 152.08M100.21 152.08L91.26 159.93M91.26 159.93L85.14 170.14M85.14 170.14L82.42 181.74"
fill="none" stroke="black" stroke-width="3"/>
</g>
<g><path d="M313.49 185.92L312.04 174.1M312.04 174.1L307.05 163.28M307.05 163.28L299.01 154.51M299.01 154.51L288.67 148.6M288.67 148.6L277.02 146.12M277.02 146.12L265.18 147.32M265.18 147.32L254.26 152.08M254.26 152.08L245.31 159.93M245.31 159.93L239.18 170.14M239.18 170.14L236.46 181.74"
fill="none" stroke="black" stroke-width="3"/>
</g>
<g><path d="M159.44 185.92L162.16 197.51M162.16 197.51L168.29 207.72M168.29 207.72L177.24 215.58M177.24 215.58L188.15 220.33M188.15 220.33L200 221.53M200 221.53L211.65 219.06M211.65 219.06L221.99 213.15M221.99 213.15L230.03 204.37M230.03 204.37L235.02 193.55M235.02 193.55L236.46 181.74"
fill="none" stroke="black" stroke-width="3"/>
</g>
</g>
</svg>
