<?xml version="1.0" standalone="no"?><svg xmlns="http://www.w3.org/2000/svg" width="400.000" height="400.000" viewBox="0.0 0.0 400.000 400.000" version="1.1">
  <title>Produce by Acme CAD Converter</title>
  <desc>Produce by Acme CAD Converter</desc>
<g id="0" display="visible">
<g><path d="M86.64 223.16L313.36 223.16"
fill="none" stroke="black" stroke-width="12"/>
</g>
<g><path d="M86.64 326.29L313.36 326.29"
fill="none" stroke="black" stroke-width="12"/>
</g>
<g><path d="M200 150.18L200 75.46"
fill="none" stroke="black" stroke-width="12"/>
</g>
<g><path d="M137.73 75.46L262.27 75.46"
fill="none" stroke="black" stroke-width="12"/>
</g>
<g><path d="M262.27 75.46L262.27 0.73"
fill="none" stroke="black" stroke-width="12"/>
</g>
<g><path d="M262.27 0.73L137.73 0.73"
fill="none" stroke="black" stroke-width="12"/>
</g>
<g><path d="M137.73 0.73L137.73 75.46"
fill="none" stroke="black" stroke-width="12"/>
</g>
<g><path d="M75.46 274.73L77.35 296.35M77.35 296.35L82.97 317.32M82.97 317.32L92.14 337M92.14 337L104.6 354.78M104.6 354.78L119.95 370.13M119.95 370.13L137.73 382.58M137.73 382.58L157.4 391.76M157.4 391.76L178.37 397.37M178.37 397.37L200 399.27M200 399.27L221.63 397.37M221.63 397.37L242.6 391.76M242.6 391.76L262.27 382.58M262.27 382.58L280.05 370.13M280.05 370.13L295.4 354.78M295.4 354.78L307.86 337M307.86 337L317.03 317.32M317.03 317.32L322.65 296.35M322.65 296.35L324.54 274.73"
fill="none" stroke="black" stroke-width="12"/>
</g>
<g><path d="M324.54 274.73L322.65 253.1M322.65 253.1L317.03 232.13M317.03 232.13L307.86 212.45M307.86 212.45L295.4 194.67M295.4 194.67L280.05 179.32M280.05 179.32L262.27 166.87M262.27 166.87L242.6 157.69M242.6 157.69L221.63 152.08M221.63 152.08L200 150.18M200 150.18L178.37 152.08M178.37 152.08L157.4 157.69M157.4 157.69L137.73 166.87M137.73 166.87L119.95 179.32M119.95 179.32L104.6 194.67M104.6 194.67L92.14 212.45M92.14 212.45L82.97 232.13M82.97 232.13L77.35 253.1M77.35 253.1L75.46 274.73"
fill="none" stroke="black" stroke-width="12"/>
</g>
</g>
</svg>
