<?xml version="1.0" standalone="no"?><svg xmlns="http://www.w3.org/2000/svg" width="400.000" height="400.000" viewBox="0.0 0.0 400.000 400.000" version="1.1">
  <title>Produce by Acme CAD Converter</title>
  <desc>Produce by Acme CAD Converter</desc>
<g id="0" display="visible">
<g><path d="M200 266.42L200 399.27"
fill="none" stroke="black" stroke-width="12"/>
</g>
<g><path d="M67.16 133.58L68.97 155.44M68.97 155.44L74.35 176.71M74.35 176.71L83.17 196.8M83.17 196.8L95.17 215.17M95.17 215.17L110.03 231.31M110.03 231.31L127.34 244.79M127.34 244.79L146.64 255.23M146.64 255.23L167.39 262.36M167.39 262.36L189.03 265.97M189.03 265.97L210.97 265.97M210.97 265.97L232.61 262.36M232.61 262.36L253.36 255.23M253.36 255.23L272.66 244.79M272.66 244.79L289.97 231.31M289.97 231.31L304.83 215.17M304.83 215.17L316.83 196.8M316.83 196.8L325.65 176.71M325.65 176.71L331.03 155.44M331.03 155.44L332.84 133.58"
fill="none" stroke="black" stroke-width="12"/>
</g>
<g><path d="M332.84 133.58L331.03 111.71M331.03 111.71L325.65 90.44M325.65 90.44L316.83 70.35M316.83 70.35L304.83 51.98M304.83 51.98L289.97 35.84M289.97 35.84L272.66 22.36M272.66 22.36L253.36 11.92M253.36 11.92L232.61 4.8M232.61 4.8L210.97 1.19M210.97 1.19L189.03 1.19M189.03 1.19L167.39 4.8M167.39 4.8L146.64 11.92M146.64 11.92L127.34 22.36M127.34 22.36L110.03 35.84M110.03 35.84L95.17 51.98M95.17 51.98L83.17 70.35M83.17 70.35L74.35 90.44M74.35 90.44L68.97 111.71M68.97 111.71L67.16 133.58"
fill="none" stroke="black" stroke-width="12"/>
</g>
<g><path d="M174.67 170.98L162.84 170.98M162.84 170.98L161.87 168.52M161.87 168.52L174.98 104.51M174.98 104.51L176.96 102.04M176.96 102.04L177.94 104.51M177.94 104.51L165.33 166.06M165.33 166.06L175.68 166.06M175.68 166.06L176.65 168.52M176.65 168.52L174.67 170.98"
fill="none" stroke="black" stroke-width="12"/>
</g>
<g><path d="M190.72 136.53L184.68 166.06M184.68 166.06L197.98 166.06M197.98 166.06L198.96 168.52M198.96 168.52L196.98 170.98M196.98 170.98L182.19 170.98M182.19 170.98L181.21 168.52M181.21 168.52L194.31 104.55M194.31 104.55L196.3 102.09M196.3 102.09L211.09 102.09M211.09 102.09L212.06 104.55M212.06 104.55L210.08 107.01M210.08 107.01L196.77 107.01M196.77 107.01L191.73 131.61M191.73 131.61L199.14 131.61M199.14 131.61L200.12 134.07M200.12 134.07L198.13 136.53M198.13 136.53L190.72 136.53"
fill="none" stroke="black" stroke-width="12"/>
</g>
</g>
</svg>
