<?xml version="1.0" standalone="no"?><svg xmlns="http://www.w3.org/2000/svg" width="400.000" height="400.000" viewBox="0.0 0.0 400.000 400.000" version="1.1">
  <title>Produce by Acme CAD Converter</title>
  <desc>Produce by Acme CAD Converter</desc>
<g id="0" display="visible">
<g><path d="M200 266.42L200 399.27"
fill="none" stroke="black" stroke-width="12"/>
</g>
<g><path d="M67.16 133.58L68.97 155.44M68.97 155.44L74.35 176.71M74.35 176.71L83.17 196.8M83.17 196.8L95.17 215.17M95.17 215.17L110.03 231.31M110.03 231.31L127.34 244.79M127.34 244.79L146.64 255.23M146.64 255.23L167.39 262.36M167.39 262.36L189.03 265.97M189.03 265.97L210.97 265.97M210.97 265.97L232.61 262.36M232.61 262.36L253.36 255.23M253.36 255.23L272.66 244.79M272.66 244.79L289.97 231.31M289.97 231.31L304.83 215.17M304.83 215.17L316.83 196.8M316.83 196.8L325.65 176.71M325.65 176.71L331.03 155.44M331.03 155.44L332.84 133.58"
fill="none" stroke="black" stroke-width="12"/>
</g>
<g><path d="M332.84 133.58L331.03 111.71M331.03 111.71L325.65 90.44M325.65 90.44L316.83 70.35M316.83 70.35L304.83 51.98M304.83 51.98L289.97 35.84M289.97 35.84L272.66 22.36M272.66 22.36L253.36 11.92M253.36 11.92L232.61 4.8M232.61 4.8L210.97 1.19M210.97 1.19L189.03 1.19M189.03 1.19L167.39 4.8M167.39 4.8L146.64 11.92M146.64 11.92L127.34 22.36M127.34 22.36L110.03 35.84M110.03 35.84L95.17 51.98M95.17 51.98L83.17 70.35M83.17 70.35L74.35 90.44M74.35 90.44L68.97 111.71M68.97 111.71L67.16 133.58"
fill="none" stroke="black" stroke-width="12"/>
</g>
<g><path d="M172.39 131.61L185.69 131.61M185.69 131.61L186.66 134.07M186.66 134.07L184.68 136.53M184.68 136.53L171.38 136.53M171.38 136.53L164.82 168.56M164.82 168.56L164.02 170.43M164.02 170.43L162.84 171.02M162.84 171.02L161.92 170.43M161.92 170.43L161.86 168.56M161.86 168.56L174.97 104.55M174.97 104.55L176.95 102.09M176.95 102.09L191.74 102.09M191.74 102.09L192.71 104.55M192.71 104.55L190.73 107.01M190.73 107.01L177.43 107.01M177.43 107.01L172.39 131.61"
fill="none" stroke="black" stroke-width="12"/>
</g>
<g><path d="M185.92 168.56L185.13 170.43M185.13 170.43L183.94 171.02M183.94 171.02L183.02 170.43M183.02 170.43L182.96 168.56M182.96 168.56L196.08 104.51M196.08 104.51L198.06 102.04M198.06 102.04L199.04 104.51M199.04 104.51L185.92 168.56"
fill="none" stroke="black" stroke-width="12"/>
</g>
</g>
</svg>
