<?xml version="1.0" standalone="no"?><svg xmlns="http://www.w3.org/2000/svg" width="400.000" height="400.000" viewBox="0.0 0.0 400.000 400.000" version="1.1">
  <title>Produce by Acme CAD Converter</title>
  <desc>Produce by Acme CAD Converter</desc>
<g id="0" display="visible">
<g><path d="M200 319.56L200 399.27"
fill="none" stroke="black" stroke-width="12"/>
</g>
<g><path d="M200 279.71L160.15 255.79"
fill="none" stroke="black" stroke-width="12"/>
</g>
<g><path d="M160.15 303.62L200 279.71"
fill="none" stroke="black" stroke-width="12"/>
</g>
<g><path d="M160.15 255.79L160.15 303.62"
fill="none" stroke="black" stroke-width="12"/>
</g>
<g><path d="M200 160.15L200 239.85"
fill="none" stroke="black" stroke-width="12"/>
</g>
<g><path d="M223.91 239.85L176.09 319.56"
fill="none" stroke="black" stroke-width="12"/>
</g>
<g><path d="M223.91 319.56L176.09 239.85"
fill="none" stroke="black" stroke-width="12"/>
</g>
<g><path d="M176.09 319.56L223.91 319.56"
fill="none" stroke="black" stroke-width="12"/>
</g>
<g><path d="M176.09 239.85L223.91 239.85"
fill="none" stroke="black" stroke-width="12"/>
</g>
<g><path d="M120.29 80.44L122.04 97.01M122.04 97.01L127.18 112.86M127.18 112.86L135.52 127.29M135.52 127.29L146.67 139.67M146.67 139.67L160.15 149.47M160.15 149.47L175.37 156.25M175.37 156.25L191.67 159.71M191.67 159.71L208.33 159.71M208.33 159.71L224.63 156.25M224.63 156.25L239.85 149.47M239.85 149.47L253.33 139.67M253.33 139.67L264.48 127.29M264.48 127.29L272.82 112.86M272.82 112.86L277.96 97.01M277.96 97.01L279.71 80.44"
fill="none" stroke="black" stroke-width="12"/>
</g>
<g><path d="M279.71 80.44L277.96 63.87M277.96 63.87L272.82 48.02M272.82 48.02L264.48 33.59M264.48 33.59L253.33 21.21M253.33 21.21L239.85 11.41M239.85 11.41L224.63 4.63M224.63 4.63L208.33 1.17M208.33 1.17L191.67 1.17M191.67 1.17L175.37 4.63M175.37 4.63L160.15 11.41M160.15 11.41L146.67 21.21M146.67 21.21L135.52 33.59M135.52 33.59L127.18 48.02M127.18 48.02L122.04 63.87M122.04 63.87L120.29 80.44"
fill="none" stroke="black" stroke-width="12"/>
</g>
<g><path d="M182.83 82.21L188.15 82.21M188.15 82.21L192.92 76.35M192.92 76.35L194.14 70.39M194.14 70.39L191.78 64.5M191.78 64.5L186.46 64.5M186.46 64.5L182.83 82.21"
fill="none" stroke="black" stroke-width="12"/>
</g>
<g><path d="M182.22 85.17L178.89 101.43M178.89 101.43L178.41 102.55M178.41 102.55L177.7 102.91M177.7 102.91L177.15 102.55M177.15 102.55L177.11 101.43M177.11 101.43L184.98 63.03M184.98 63.03L186.17 61.55M186.17 61.55L192.4 61.55M192.4 61.55L195.67 64.12M195.67 64.12L196.26 66.96M196.26 66.96L196.21 68.53M196.21 68.53L196.1 69.48M196.1 69.48L195.91 70.4M195.91 70.4L194.7 76.34M194.7 76.34L187.55 85.17M187.55 85.17L182.22 85.17"
fill="none" stroke="black" stroke-width="12"/>
</g>
<g><path d="M193.66 101.43L193.18 102.55M193.18 102.55L192.47 102.91M192.47 102.91L191.92 102.55M191.92 102.55L191.89 101.43M191.89 101.43L199.76 63M199.76 63L200.95 61.52M200.95 61.52L201.53 63M201.53 63L193.66 101.43"
fill="none" stroke="black" stroke-width="12"/>
</g>
</g>
</svg>
