<?xml version="1.0" standalone="no"?><svg xmlns="http://www.w3.org/2000/svg" width="400.000" height="400.000" viewBox="0.0 0.0 400.000 400.000" version="1.1">
  <title>Produce by Acme CAD Converter</title>
  <desc>Produce by Acme CAD Converter</desc>
<g id="0" display="visible">
<g><path d="M91.31 200L0.73 200"
fill="none" stroke="black" stroke-width="12"/>
</g>
<g><path d="M399.27 200L308.69 200"
fill="none" stroke="black" stroke-width="12"/>
</g>
<g><path d="M91.31 200L93.16 219.97M93.16 219.97L98.65 239.26M98.65 239.26L107.59 257.22M107.59 257.22L119.68 273.22M119.68 273.22L134.5 286.74M134.5 286.74L151.55 297.3M151.55 297.3L170.26 304.54M170.26 304.54L189.97 308.23M189.97 308.23L210.03 308.23M210.03 308.23L229.74 304.54M229.74 304.54L248.45 297.3M248.45 297.3L265.5 286.74M265.5 286.74L280.32 273.22M280.32 273.22L292.41 257.22M292.41 257.22L301.35 239.26M301.35 239.26L306.84 219.97M306.84 219.97L308.69 200"
fill="none" stroke="black" stroke-width="12"/>
</g>
<g><path d="M308.69 200L306.84 180.03M306.84 180.03L301.35 160.74M301.35 160.74L292.41 142.78M292.41 142.78L280.32 126.78M280.32 126.78L265.5 113.26M265.5 113.26L248.45 102.7M248.45 102.7L229.74 95.46M229.74 95.46L210.03 91.77M210.03 91.77L189.97 91.77M189.97 91.77L170.26 95.46M170.26 95.46L151.55 102.7M151.55 102.7L134.5 113.26M134.5 113.26L119.68 126.78M119.68 126.78L107.59 142.78M107.59 142.78L98.65 160.74M98.65 160.74L93.16 180.03M93.16 180.03L91.31 200"
fill="none" stroke="black" stroke-width="12"/>
</g>
</g>
</svg>
