<?xml version="1.0" standalone="no"?><svg xmlns="http://www.w3.org/2000/svg" width="400.000" height="400.000" viewBox="0.0 0.0 400.000 400.000" version="1.1">
  <title>Produce by Acme CAD Converter</title>
  <desc>Produce by Acme CAD Converter</desc>
<g id="0" display="visible">
<g><path d="M256.92 262.67L6.48 262.67"
fill="none" stroke="black" stroke-width="12"/>
</g>
<g><path d="M393.03 251.17L393.03 0.73"
fill="none" stroke="black" stroke-width="12"/>
</g>
<g><path d="M120.32 262.67L122.18 285.15M122.18 285.15L127.72 307.02M127.72 307.02L136.78 327.68M136.78 327.68L149.12 346.57M149.12 346.57L164.4 363.17M164.4 363.17L182.2 377.02M182.2 377.02L202.05 387.76M202.05 387.76L223.38 395.09M223.38 395.09L245.64 398.8M245.64 398.8L268.2 398.8M268.2 398.8L290.45 395.09M290.45 395.09L311.79 387.76M311.79 387.76L331.63 377.02M331.63 377.02L349.43 363.17M349.43 363.17L364.71 346.57M364.71 346.57L377.05 327.68M377.05 327.68L386.11 307.02M386.11 307.02L391.65 285.15M391.65 285.15L393.52 262.67"
fill="none" stroke="black" stroke-width="12"/>
</g>
<g><path d="M393.52 262.67L391.65 240.18M391.65 240.18L386.11 218.31M386.11 218.31L377.05 197.65M377.05 197.65L364.71 178.77M364.71 178.77L349.43 162.17M349.43 162.17L331.63 148.31M331.63 148.31L311.79 137.57M311.79 137.57L290.45 130.25M290.45 130.25L268.2 126.53M268.2 126.53L245.64 126.53M245.64 126.53L223.38 130.25M223.38 130.25L202.05 137.57M202.05 137.57L182.2 148.31M182.2 148.31L164.4 162.17M164.4 162.17L149.12 178.77M149.12 178.77L136.78 197.65M136.78 197.65L127.72 218.31M127.72 218.31L122.18 240.18M122.18 240.18L120.32 262.67"
fill="none" stroke="black" stroke-width="12"/>
</g>
</g>
</svg>
