<?xml version="1.0" standalone="no"?><svg xmlns="http://www.w3.org/2000/svg" width="400.000" height="400.000" viewBox="0.0 0.0 400.000 400.000" version="1.1">
  <title>Produce by Acme CAD Converter</title>
  <desc>Produce by Acme CAD Converter</desc>
<g id="0" display="visible">
<g><path d="M0.73 200L2.59 227.13M2.59 227.13L8.12 253.76M8.12 253.76L17.23 279.39M17.23 279.39L29.74 303.54M29.74 303.54L45.43 325.75M45.43 325.75L63.99 345.63M63.99 345.63L85.09 362.79M85.09 362.79L108.32 376.93M108.32 376.93L133.27 387.76M133.27 387.76L159.46 395.1M159.46 395.1L186.4 398.8M186.4 398.8L213.6 398.8M213.6 398.8L240.54 395.1M240.54 395.1L266.73 387.76M266.73 387.76L291.68 376.93M291.68 376.93L314.91 362.79M314.91 362.79L336.01 345.63M336.01 345.63L354.57 325.75M354.57 325.75L370.26 303.54M370.26 303.54L382.77 279.39M382.77 279.39L391.88 253.76M391.88 253.76L397.41 227.13M397.41 227.13L399.27 200"
fill="none" stroke="black" stroke-width="12"/>
</g>
<g><path d="M399.27 200L397.41 172.87M397.41 172.87L391.88 146.24M391.88 146.24L382.77 120.61M382.77 120.61L370.26 96.46M370.26 96.46L354.57 74.25M354.57 74.25L336.01 54.37M336.01 54.37L314.91 37.21M314.91 37.21L291.68 23.07M291.68 23.07L266.73 12.24M266.73 12.24L240.54 4.9M240.54 4.9L213.6 1.2M213.6 1.2L186.4 1.2M186.4 1.2L159.46 4.9M159.46 4.9L133.27 12.24M133.27 12.24L108.32 23.07M108.32 23.07L85.09 37.21M85.09 37.21L63.99 54.37M63.99 54.37L45.43 74.25M45.43 74.25L29.74 96.46M29.74 96.46L17.23 120.61M17.23 120.61L8.12 146.24M8.12 146.24L2.59 172.87M2.59 172.87L0.73 200"
fill="none" stroke="black" stroke-width="12"/>
</g>
<g><path d="M239.21 306.58L239.12 307.08M239.12 307.08L239.02 307.57M239.02 307.57L238.91 308.04M238.91 308.04L238.8 308.5M238.8 308.5L238.68 308.94M238.68 308.94L238.55 309.38M238.55 309.38L238.41 309.8M238.41 309.8L238.27 310.2M238.27 310.2L238.12 310.6M238.12 310.6L237.96 310.98M237.96 310.98L237.8 311.34M237.8 311.34L237.62 311.7M237.62 311.7L237.44 312.04M237.44 312.04L237.26 312.37M237.26 312.37L237.06 312.68M237.06 312.68L236.86 312.98"
fill="none" stroke="black" stroke-width="12"/>
</g>
<g><path d="M236.86 312.98L236.66 313.23M236.66 313.23L236.45 313.45M236.45 313.45L236.25 313.67M236.25 313.67L236.04 313.87M236.04 313.87L235.82 314.05M235.82 314.05L235.61 314.21M235.61 314.21L235.39 314.36M235.39 314.36L235.17 314.5M235.17 314.5L234.95 314.62M234.95 314.62L234.72 314.72M234.72 314.72L234.49 314.8M234.49 314.8L234.26 314.88M234.26 314.88L234.03 314.93M234.03 314.93L233.79 314.97M233.79 314.97L233.55 314.99M233.55 314.99L233.31 315"
fill="none" stroke="black" stroke-width="12"/>
</g>
<g><path d="M233.31 315L233.2 314.99M233.2 314.99L233.09 314.97M233.09 314.97L232.97 314.93M232.97 314.93L232.84 314.87M232.84 314.87L232.7 314.8M232.7 314.8L232.55 314.72M232.55 314.72L232.39 314.61M232.39 314.61L232.22 314.49M232.22 314.49L232.05 314.36M232.05 314.36L231.86 314.21M231.86 314.21L231.67 314.04M231.67 314.04L231.47 313.86M231.47 313.86L231.25 313.66M231.25 313.66L231.03 313.45M231.03 313.45L230.8 313.22M230.8 313.22L230.56 312.97"
fill="none" stroke="black" stroke-width="12"/>
</g>
<g><path d="M230.56 312.97L230.45 312.71M230.45 312.71L230.35 312.43M230.35 312.43L230.26 312.13M230.26 312.13L230.18 311.81M230.18 311.81L230.12 311.47M230.12 311.47L230.08 311.12M230.08 311.12L230.04 310.74M230.04 310.74L230.02 310.35M230.02 310.35L230.02 309.94M230.02 309.94L230.02 309.51M230.02 309.51L230.05 309.06M230.05 309.06L230.08 308.59M230.08 308.59L230.13 308.11M230.13 308.11L230.19 307.61M230.19 307.61L230.27 307.08M230.27 307.08L230.36 306.54"
fill="none" stroke="black" stroke-width="12"/>
</g>
<g><path d="M230.36 306.54L263.35 117.69"
fill="none" stroke="black" stroke-width="12"/>
</g>
<g><path d="M263.35 117.69L222.46 201.25"
fill="none" stroke="black" stroke-width="12"/>
</g>
<g><path d="M222.46 201.25L222.3 201.57M222.3 201.57L222.14 201.88M222.14 201.88L221.99 202.18M221.99 202.18L221.83 202.47M221.83 202.47L221.68 202.75M221.68 202.75L221.52 203.02M221.52 203.02L221.37 203.28M221.37 203.28L221.22 203.53M221.22 203.53L221.06 203.77M221.06 203.77L220.91 204M220.91 204L220.76 204.22M220.76 204.22L220.61 204.42M220.61 204.42L220.46 204.62M220.46 204.62L220.32 204.81M220.32 204.81L220.17 204.99M220.17 204.99L220.02 205.16M220.02 205.16L219.88 205.31M219.88 205.31L219.73 205.46M219.73 205.46L219.59 205.6M219.59 205.6L219.44 205.73M219.44 205.73L219.3 205.84M219.3 205.84L219.16 205.95M219.16 205.95L219.02 206.05M219.02 206.05L218.88 206.13M218.88 206.13L218.74 206.21M218.74 206.21L218.6 206.28M218.6 206.28L218.46 206.33M218.46 206.33L218.33 206.38M218.33 206.38L218.19 206.41M218.19 206.41L218.05 206.44M218.05 206.44L217.92 206.45M217.92 206.45L217.78 206.46"
fill="none" stroke="black" stroke-width="12"/>
</g>
<g><path d="M217.78 206.46L217.66 206.45M217.66 206.45L217.53 206.44M217.53 206.44L217.41 206.41M217.41 206.41L217.29 206.38M217.29 206.38L217.18 206.33M217.18 206.33L217.06 206.28M217.06 206.28L216.95 206.21M216.95 206.21L216.85 206.13M216.85 206.13L216.74 206.05M216.74 206.05L216.64 205.95M216.64 205.95L216.54 205.84M216.54 205.84L216.44 205.73M216.44 205.73L216.35 205.6M216.35 205.6L216.26 205.46M216.26 205.46L216.17 205.31M216.17 205.31L216.09 205.16M216.09 205.16L216 204.99M216 204.99L215.93 204.81M215.93 204.81L215.85 204.62M215.85 204.62L215.77 204.42M215.77 204.42L215.7 204.22M215.7 204.22L215.63 204M215.63 204L215.57 203.77M215.57 203.77L215.51 203.53M215.51 203.53L215.44 203.28M215.44 203.28L215.39 203.02M215.39 203.02L215.33 202.75M215.33 202.75L215.28 202.47M215.28 202.47L215.23 202.18M215.23 202.18L215.18 201.88M215.18 201.88L215.14 201.57M215.14 201.57L215.1 201.25"
fill="none" stroke="black" stroke-width="12"/>
</g>
<g><path d="M215.1 201.25L203.47 117.86"
fill="none" stroke="black" stroke-width="12"/>
</g>
<g><path d="M203.47 117.86L170.51 306.54"
fill="none" stroke="black" stroke-width="12"/>
</g>
<g><path d="M170.51 306.54L170.42 307.04M170.42 307.04L170.32 307.53M170.32 307.53L170.21 308.01M170.21 308.01L170.1 308.47M170.1 308.47L169.97 308.92M169.97 308.92L169.84 309.35M169.84 309.35L169.71 309.77M169.71 309.77L169.56 310.18M169.56 310.18L169.41 310.58M169.41 310.58L169.25 310.96M169.25 310.96L169.09 311.33M169.09 311.33L168.91 311.68M168.91 311.68L168.73 312.02M168.73 312.02L168.54 312.35M168.54 312.35L168.35 312.67M168.35 312.67L168.15 312.97"
fill="none" stroke="black" stroke-width="12"/>
</g>
<g><path d="M168.15 312.97L167.94 313.22M167.94 313.22L167.74 313.45M167.74 313.45L167.53 313.66M167.53 313.66L167.32 313.86M167.32 313.86L167.11 314.04M167.11 314.04L166.9 314.21M166.9 314.21L166.68 314.36M166.68 314.36L166.46 314.49M166.46 314.49L166.23 314.61M166.23 314.61L166.01 314.72M166.01 314.72L165.78 314.8M165.78 314.8L165.55 314.87M165.55 314.87L165.31 314.93M165.31 314.93L165.08 314.97M165.08 314.97L164.84 314.99M164.84 314.99L164.6 315"
fill="none" stroke="black" stroke-width="12"/>
</g>
<g><path d="M164.6 315L164.49 314.99M164.49 314.99L164.38 314.97M164.38 314.97L164.26 314.93M164.26 314.93L164.13 314.88M164.13 314.88L163.99 314.8M163.99 314.8L163.84 314.72M163.84 314.72L163.68 314.62M163.68 314.62L163.51 314.5M163.51 314.5L163.33 314.36M163.33 314.36L163.15 314.21M163.15 314.21L162.96 314.05M162.96 314.05L162.75 313.87M162.75 313.87L162.54 313.67M162.54 313.67L162.32 313.45M162.32 313.45L162.09 313.23M162.09 313.23L161.85 312.98"
fill="none" stroke="black" stroke-width="12"/>
</g>
<g><path d="M161.85 312.98L161.73 312.72M161.73 312.72L161.63 312.44M161.63 312.44L161.54 312.14M161.54 312.14L161.47 311.82M161.47 311.82L161.41 311.49M161.41 311.49L161.36 311.13M161.36 311.13L161.32 310.76M161.32 310.76L161.3 310.37M161.3 310.37L161.3 309.96M161.3 309.96L161.3 309.53M161.3 309.53L161.32 309.09M161.32 309.09L161.36 308.62M161.36 308.62L161.41 308.14M161.41 308.14L161.47 307.64M161.47 307.64L161.54 307.12M161.54 307.12L161.63 306.58"
fill="none" stroke="black" stroke-width="12"/>
</g>
<g><path d="M161.63 306.58L199.83 87.98"
fill="none" stroke="black" stroke-width="12"/>
</g>
<g><path d="M199.83 87.98L199.93 87.41M199.93 87.41L200.04 86.87M200.04 86.87L200.15 86.34M200.15 86.34L200.27 85.82M200.27 85.82L200.4 85.32M200.4 85.32L200.53 84.84M200.53 84.84L200.66 84.37M200.66 84.37L200.81 83.92M200.81 83.92L200.96 83.48M200.96 83.48L201.11 83.05M201.11 83.05L201.27 82.64M201.27 82.64L201.44 82.25M201.44 82.25L201.61 81.87M201.61 81.87L201.78 81.5M201.78 81.5L201.97 81.15M201.97 81.15L202.16 80.82M202.16 80.82L202.35 80.5M202.35 80.5L202.54 80.21M202.54 80.21L202.74 79.93M202.74 79.93L202.93 79.68M202.93 79.68L203.13 79.44M203.13 79.44L203.33 79.23M203.33 79.23L203.53 79.03M203.53 79.03L203.74 78.86M203.74 78.86L203.94 78.71M203.94 78.71L204.15 78.58M204.15 78.58L204.35 78.46M204.35 78.46L204.56 78.37M204.56 78.37L204.77 78.3M204.77 78.3L204.98 78.25M204.98 78.25L205.2 78.22M205.2 78.22L205.41 78.21"
fill="none" stroke="black" stroke-width="12"/>
</g>
<g><path d="M205.41 78.21L205.56 78.21M205.56 78.21L205.71 78.23M205.71 78.23L205.85 78.25M205.85 78.25L205.99 78.28M205.99 78.28L206.12 78.32M206.12 78.32L206.26 78.37M206.26 78.37L206.38 78.43M206.38 78.43L206.51 78.5M206.51 78.5L206.63 78.58M206.63 78.58L206.75 78.67M206.75 78.67L206.86 78.76M206.86 78.76L206.97 78.87M206.97 78.87L207.08 78.98M207.08 78.98L207.18 79.11M207.18 79.11L207.28 79.24M207.28 79.24L207.38 79.38"
fill="none" stroke="black" stroke-width="12"/>
</g>
<g><path d="M207.38 79.38L207.4 79.4M207.4 79.4L207.42 79.42M207.42 79.42L207.44 79.45M207.44 79.45L207.46 79.49M207.46 79.49L207.49 79.53M207.49 79.53L207.52 79.58M207.52 79.58L207.54 79.64M207.54 79.64L207.57 79.71M207.57 79.71L207.6 79.79M207.6 79.79L207.63 79.87M207.63 79.87L207.66 79.96M207.66 79.96L207.7 80.06M207.7 80.06L207.73 80.16M207.73 80.16L207.77 80.27M207.77 80.27L207.81 80.39M207.81 80.39L207.84 80.52M207.84 80.52L207.88 80.66M207.88 80.66L207.92 80.8M207.92 80.8L207.97 80.95M207.97 80.95L208.01 81.11M208.01 81.11L208.05 81.28M208.05 81.28L208.1 81.45M208.1 81.45L208.15 81.63M208.15 81.63L208.2 81.82M208.2 81.82L208.24 82.01M208.24 82.01L208.29 82.22M208.29 82.22L208.35 82.43M208.35 82.43L208.4 82.65M208.4 82.65L208.45 82.87M208.45 82.87L208.51 83.11M208.51 83.11L208.57 83.35M208.57 83.35L208.62 83.6"
fill="none" stroke="black" stroke-width="12"/>
</g>
<g><path d="M208.62 83.6L222.29 181.21"
fill="none" stroke="black" stroke-width="12"/>
</g>
<g><path d="M222.29 181.21L270.15 83.6"
fill="none" stroke="black" stroke-width="12"/>
</g>
<g><path d="M270.15 83.6L270.32 83.27M270.32 83.27L270.48 82.94M270.48 82.94L270.65 82.63M270.65 82.63L270.81 82.33M270.81 82.33L270.98 82.04M270.98 82.04L271.14 81.77M271.14 81.77L271.3 81.5M271.3 81.5L271.47 81.24M271.47 81.24L271.63 80.99M271.63 80.99L271.79 80.76M271.79 80.76L271.95 80.53M271.95 80.53L272.11 80.31M272.11 80.31L272.27 80.11M272.27 80.11L272.43 79.91M272.43 79.91L272.59 79.73M272.59 79.73L272.75 79.56M272.75 79.56L272.91 79.39M272.91 79.39L273.07 79.24M273.07 79.24L273.22 79.1M273.22 79.1L273.38 78.97M273.38 78.97L273.54 78.84M273.54 78.84L273.7 78.73M273.7 78.73L273.85 78.63M273.85 78.63L274.01 78.54M274.01 78.54L274.16 78.47M274.16 78.47L274.32 78.4M274.32 78.4L274.47 78.34M274.47 78.34L274.62 78.29M274.62 78.29L274.78 78.26M274.78 78.26L274.93 78.23M274.93 78.23L275.08 78.21M275.08 78.21L275.23 78.21"
fill="none" stroke="black" stroke-width="12"/>
</g>
<g><path d="M275.23 78.21L275.42 78.22M275.42 78.22L275.61 78.25M275.61 78.25L275.78 78.3M275.78 78.3L275.95 78.38M275.95 78.38L276.12 78.47M276.12 78.47L276.28 78.59M276.28 78.59L276.43 78.72M276.43 78.72L276.57 78.88M276.57 78.88L276.71 79.06M276.71 79.06L276.84 79.26M276.84 79.26L276.96 79.48M276.96 79.48L277.08 79.72M277.08 79.72L277.19 79.99M277.19 79.99L277.29 80.27M277.29 80.27L277.39 80.58M277.39 80.58L277.48 80.9M277.48 80.9L277.56 81.25M277.56 81.25L277.63 81.6M277.63 81.6L277.69 81.97M277.69 81.97L277.74 82.35M277.74 82.35L277.77 82.75M277.77 82.75L277.8 83.16M277.8 83.16L277.81 83.58M277.81 83.58L277.81 84.02M277.81 84.02L277.8 84.47M277.8 84.47L277.78 84.93M277.78 84.93L277.74 85.4M277.74 85.4L277.7 85.89M277.7 85.89L277.64 86.39M277.64 86.39L277.58 86.91M277.58 86.91L277.5 87.43M277.5 87.43L277.41 87.98"
fill="none" stroke="black" stroke-width="12"/>
</g>
<g><path d="M277.41 87.98L239.21 306.58"
fill="none" stroke="black" stroke-width="12"/>
</g>
</g>
</svg>
