<?xml version="1.0" standalone="no"?><svg xmlns="http://www.w3.org/2000/svg" width="400.000" height="400.000" viewBox="0.0 0.0 400.000 400.000" version="1.1">
  <title>Produce by Acme CAD Converter</title>
  <desc>Produce by Acme CAD Converter</desc>
<g id="0" display="visible">
<g><path d="M164.68 200L305.58 59.1"
fill="none" stroke="black" stroke-width="12"/>
</g>
<g><path d="M164.68 308.69L164.68 399.27"
fill="none" stroke="black" stroke-width="12"/>
</g>
<g><path d="M164.68 0.73L164.68 91.31"
fill="none" stroke="black" stroke-width="12"/>
</g>
<g><path d="M305.58 59.1L344.01 97.53"
fill="none" stroke="black" stroke-width="12"/>
</g>
<g><path d="M305.58 59.1L267.15 20.67"
fill="none" stroke="black" stroke-width="12"/>
</g>
<g><path d="M55.99 200L57.84 219.97M57.84 219.97L63.33 239.26M63.33 239.26L72.27 257.22M72.27 257.22L84.36 273.22M84.36 273.22L99.18 286.74M99.18 286.74L116.23 297.3M116.23 297.3L134.94 304.54M134.94 304.54L154.65 308.23M154.65 308.23L174.71 308.23M174.71 308.23L194.42 304.54M194.42 304.54L213.13 297.3M213.13 297.3L230.18 286.74M230.18 286.74L245 273.22M245 273.22L257.09 257.22M257.09 257.22L266.03 239.26M266.03 239.26L271.52 219.97M271.52 219.97L273.37 200"
fill="none" stroke="black" stroke-width="12"/>
</g>
<g><path d="M273.37 200L271.52 180.03M271.52 180.03L266.03 160.74M266.03 160.74L257.09 142.78M257.09 142.78L245 126.78M245 126.78L230.18 113.26M230.18 113.26L213.13 102.7M213.13 102.7L194.42 95.46M194.42 95.46L174.71 91.77M174.71 91.77L154.65 91.77M154.65 91.77L134.94 95.46M134.94 95.46L116.23 102.7M116.23 102.7L99.18 113.26M99.18 113.26L84.36 126.78M84.36 126.78L72.27 142.78M72.27 142.78L63.33 160.74M63.33 160.74L57.84 180.03M57.84 180.03L55.99 200"
fill="none" stroke="black" stroke-width="12"/>
</g>
</g>
</svg>
