<?xml version="1.0" standalone="no"?><svg xmlns="http://www.w3.org/2000/svg" width="400.000" height="400.000" viewBox="0.0 0.0 400.000 400.000" version="1.1">
  <title>Produce by Acme CAD Converter</title>
  <desc>Produce by Acme CAD Converter</desc>
<g id="0" display="visible">
<g><path d="M0.73 59.34L0.73 200"
fill="none" stroke="black" stroke-width="12"/>
</g>
<g><path d="M0.73 200L117.95 200"
fill="none" stroke="black" stroke-width="12"/>
</g>
<g><path d="M258.61 59.34L0.73 59.34"
fill="none" stroke="black" stroke-width="12"/>
</g>
<g><path d="M258.61 270.33L274.26 268.57M274.26 268.57L289.12 263.36M289.12 263.36L302.46 254.99M302.46 254.99L313.59 243.85M313.59 243.85L321.97 230.51M321.97 230.51L327.17 215.65M327.17 215.65L328.94 200M328.94 200L327.17 184.35M327.17 184.35L321.97 169.49M321.97 169.49L313.59 156.15M313.59 156.15L302.46 145.01M302.46 145.01L289.12 136.64M289.12 136.64L274.26 131.43M274.26 131.43L258.61 129.67"
fill="none" stroke="black" stroke-width="12"/>
</g>
<g><path d="M258.61 129.67L242.96 131.43M242.96 131.43L228.09 136.64M228.09 136.64L214.76 145.01M214.76 145.01L203.62 156.15M203.62 156.15L195.24 169.49M195.24 169.49L190.04 184.35M190.04 184.35L188.28 200M188.28 200L190.04 215.65M190.04 215.65L195.24 230.51M195.24 230.51L203.62 243.85M203.62 243.85L214.76 254.99M214.76 254.99L228.09 263.36M228.09 263.36L242.96 268.57M242.96 268.57L258.61 270.33"
fill="none" stroke="black" stroke-width="12"/>
</g>
<g><path d="M117.95 200L119.68 222M119.68 222L124.83 243.47M124.83 243.47L133.28 263.86M133.28 263.86L144.81 282.68M144.81 282.68L159.15 299.46M159.15 299.46L175.93 313.8M175.93 313.8L194.75 325.33M194.75 325.33L215.14 333.77M215.14 333.77L236.6 338.93M236.6 338.93L258.61 340.66"
fill="none" stroke="black" stroke-width="12"/>
</g>
<g><path d="M258.61 340.66L281.76 338.74M281.76 338.74L304.28 333.04M304.28 333.04L325.55 323.71M325.55 323.71L345 311M345 311L362.09 295.27M362.09 295.27L376.36 276.93M376.36 276.93L387.42 256.5M387.42 256.5L394.96 234.53M394.96 234.53L398.79 211.62M398.79 211.62L398.79 188.38M398.79 188.38L394.96 165.47M394.96 165.47L387.42 143.5M387.42 143.5L376.36 123.07M376.36 123.07L362.09 104.73M362.09 104.73L345 89M345 89L325.55 76.29M325.55 76.29L304.28 66.96M304.28 66.96L281.76 61.26M281.76 61.26L258.61 59.34"
fill="none" stroke="black" stroke-width="12"/>
</g>
</g>
</svg>
