<?xml version="1.0" standalone="no"?><svg xmlns="http://www.w3.org/2000/svg" width="400.000" height="400.000" viewBox="0.0 0.0 400.000 400.000" version="1.1">
  <title>Produce by Acme CAD Converter</title>
  <desc>Produce by Acme CAD Converter</desc>
<g id="0" display="visible">
<g><path d="M200 200L82.58 270.45"
fill="none" stroke="black" stroke-width="12"/>
</g>
<g><path d="M82.58 270.45L129.55 317.42"
fill="none" stroke="black" stroke-width="12"/>
</g>
<g><path d="M200 200L270.45 82.58"
fill="none" stroke="black" stroke-width="12"/>
</g>
<g><path d="M317.42 129.55L200 200"
fill="none" stroke="black" stroke-width="12"/>
</g>
<g><path d="M129.55 317.42L200 200"
fill="none" stroke="black" stroke-width="12"/>
</g>
<g><path d="M270.45 82.58L317.42 129.55"
fill="none" stroke="black" stroke-width="12"/>
</g>
<g><path d="M0.73 200L2.59 227.13M2.59 227.13L8.12 253.76M8.12 253.76L17.23 279.39M17.23 279.39L29.74 303.54M29.74 303.54L45.43 325.75M45.43 325.75L63.99 345.63M63.99 345.63L85.09 362.79M85.09 362.79L108.32 376.93M108.32 376.93L133.27 387.76M133.27 387.76L159.46 395.1M159.46 395.1L186.4 398.8M186.4 398.8L213.6 398.8M213.6 398.8L240.54 395.1M240.54 395.1L266.73 387.76M266.73 387.76L291.68 376.93M291.68 376.93L314.91 362.79M314.91 362.79L336.01 345.63M336.01 345.63L354.57 325.75M354.57 325.75L370.26 303.54M370.26 303.54L382.77 279.39M382.77 279.39L391.88 253.76M391.88 253.76L397.41 227.13M397.41 227.13L399.27 200"
fill="none" stroke="black" stroke-width="12"/>
</g>
<g><path d="M399.27 200L397.41 172.87M397.41 172.87L391.88 146.24M391.88 146.24L382.77 120.61M382.77 120.61L370.26 96.46M370.26 96.46L354.57 74.25M354.57 74.25L336.01 54.37M336.01 54.37L314.91 37.21M314.91 37.21L291.68 23.07M291.68 23.07L266.73 12.24M266.73 12.24L240.54 4.9M240.54 4.9L213.6 1.2M213.6 1.2L186.4 1.2M186.4 1.2L159.46 4.9M159.46 4.9L133.27 12.24M133.27 12.24L108.32 23.07M108.32 23.07L85.09 37.21M85.09 37.21L63.99 54.37M63.99 54.37L45.43 74.25M45.43 74.25L29.74 96.46M29.74 96.46L17.23 120.61M17.23 120.61L8.12 146.24M8.12 146.24L2.59 172.87M2.59 172.87L0.73 200"
fill="none" stroke="black" stroke-width="12"/>
</g>
</g>
</svg>
