<?xml version="1.0" standalone="no"?><svg xmlns="http://www.w3.org/2000/svg" width="400.000" height="400.000" viewBox="0.0 0.0 400.000 400.000" version="1.1">
  <title>Produce by Acme CAD Converter</title>
  <desc>Produce by Acme CAD Converter</desc>
<g id="0" display="visible">
<g><path d="M210.77 238.24L258.15 222.89 210.77 222.89 210.77 238.24Z"
fill-rule="evenodd" fill="black"/>
</g>
<g><path d="M210.77 222.89L258.15 222.89 210.77 207.55 210.77 222.89Z"
fill-rule="evenodd" fill="black"/>
</g>
<g><path d="M332.7 165.66L332.7 222.89"
fill="none" stroke="black" stroke-width="12"/>
</g>
<g><path d="M399.27 222.89L0.73 222.89"
fill="none" stroke="black" stroke-width="12"/>
</g>
<g><path d="M134.47 238.25L332.7 280.13"
fill="none" stroke="black" stroke-width="12"/>
</g>
<g><path d="M332.7 280.13L332.7 222.89"
fill="none" stroke="black" stroke-width="12"/>
</g>
<g><path d="M134.47 207.54L332.7 165.66"
fill="none" stroke="black" stroke-width="12"/>
</g>
<g><path d="M103.76 188.55L103.76 119.87"
fill="none" stroke="black" stroke-width="12"/>
</g>
<g><path d="M69.42 222.89L71.1 233.51M71.1 233.51L75.97 243.08M75.97 243.08L83.57 250.68M83.57 250.68L93.15 255.55M93.15 255.55L103.76 257.24M103.76 257.24L114.37 255.55M114.37 255.55L123.94 250.68M123.94 250.68L131.54 243.08M131.54 243.08L136.42 233.51M136.42 233.51L138.1 222.89"
fill="none" stroke="black" stroke-width="12"/>
</g>
<g><path d="M138.1 222.89L136.42 212.28M136.42 212.28L131.54 202.71M131.54 202.71L123.94 195.11M123.94 195.11L114.37 190.23M114.37 190.23L103.76 188.55M103.76 188.55L93.15 190.23M93.15 190.23L83.57 195.11M83.57 195.11L75.97 202.71M75.97 202.71L71.1 212.28M71.1 212.28L69.42 222.89"
fill="none" stroke="black" stroke-width="12"/>
</g>
</g>
</svg>
