<?xml version="1.0" standalone="no"?><svg xmlns="http://www.w3.org/2000/svg" width="400.000" height="400.000" viewBox="0.0 0.0 400.000 400.000" version="1.1">
  <title>Produce by Acme CAD Converter</title>
  <desc>Produce by Acme CAD Converter</desc>
<g id="0" display="visible">
<g><path d="M0.73 200L399.27 200"
fill="none" stroke="black" stroke-width="12"/>
</g>
<g><path d="M129.55 270.45L270.45 129.55"
fill="none" stroke="black" stroke-width="12"/>
</g>
<g><path d="M180.07 200L182.05 208.65M182.05 208.65L187.58 215.58M187.58 215.58L195.57 219.43M195.57 219.43L204.43 219.43M204.43 219.43L212.42 215.58M212.42 215.58L217.95 208.65M217.95 208.65L219.93 200"
fill="none" stroke="black" stroke-width="12"/>
</g>
<g><path d="M219.93 200L217.95 191.35M217.95 191.35L212.42 184.42M212.42 184.42L204.43 180.57M204.43 180.57L195.57 180.57M195.57 180.57L187.58 184.42M187.58 184.42L182.05 191.35M182.05 191.35L180.07 200"
fill="none" stroke="black" stroke-width="12"/>
</g>
</g>
</svg>
