<?xml version="1.0" standalone="no"?><svg xmlns="http://www.w3.org/2000/svg" width="400.000" height="400.000" viewBox="0.0 0.0 400.000 400.000" version="1.1">
  <title>Produce by Acme CAD Converter</title>
  <desc>Produce by Acme CAD Converter</desc>
<g id="0" display="visible">
<g><path d="M129.67 211.72L129.67 71.06"
fill="none" stroke="black" stroke-width="12"/>
</g>
<g><path d="M270.33 211.72L270.33 71.06"
fill="none" stroke="black" stroke-width="12"/>
</g>
<g><path d="M200 282.05L200 399.27"
fill="none" stroke="black" stroke-width="12"/>
</g>
<g><path d="M129.67 141.39L270.33 141.39"
fill="none" stroke="black" stroke-width="12"/>
</g>
<g><path d="M129.67 211.72L131.43 227.37M131.43 227.37L136.64 242.24M136.64 242.24L145.01 255.57M145.01 255.57L156.15 266.71M156.15 266.71L169.49 275.09M169.49 275.09L184.35 280.29M184.35 280.29L200 282.05M200 282.05L215.65 280.29M215.65 280.29L230.51 275.09M230.51 275.09L243.85 266.71M243.85 266.71L254.99 255.57M254.99 255.57L263.36 242.24M263.36 242.24L268.57 227.37M268.57 227.37L270.33 211.72"
fill="none" stroke="black" stroke-width="12"/>
</g>
<g><path d="M270.33 71.06L268.57 55.41M268.57 55.41L263.36 40.55M263.36 40.55L254.99 27.21M254.99 27.21L243.85 16.08M243.85 16.08L230.51 7.7M230.51 7.7L215.65 2.5M215.65 2.5L200 0.73M200 0.73L184.35 2.5M184.35 2.5L169.49 7.7M169.49 7.7L156.15 16.08M156.15 16.08L145.01 27.21M145.01 27.21L136.64 40.55M136.64 40.55L131.43 55.41M131.43 55.41L129.67 71.06"
fill="none" stroke="black" stroke-width="12"/>
</g>
</g>
</svg>
