<?xml version="1.0" standalone="no"?><svg xmlns="http://www.w3.org/2000/svg" width="400.000" height="400.000" viewBox="0.0 0.0 400.000 400.000" version="1.1">
  <title>Produce by Acme CAD Converter</title>
  <desc>Produce by Acme CAD Converter</desc>
<g id="0" display="visible">
<g><path d="M200 69.57L200 32.08 190.41 69.57 200 69.57Z"
fill-rule="evenodd" fill="black"/>
</g>
<g><path d="M200 194.95L200 157.46 190.41 194.95 200 194.95Z"
fill-rule="evenodd" fill="black"/>
</g>
<g><path d="M200 282.85L200 245.36 190.41 245.36 200 282.85Z"
fill-rule="evenodd" fill="black"/>
</g>
<g><path d="M200 157.46L200 119.98 190.41 119.98 200 157.46Z"
fill-rule="evenodd" fill="black"/>
</g>
<g><path d="M200 157.46L209.59 119.98 200 119.98 200 157.46Z"
fill-rule="evenodd" fill="black"/>
</g>
<g><path d="M200 282.85L209.59 245.36 200 245.36 200 282.85Z"
fill-rule="evenodd" fill="black"/>
</g>
<g><path d="M200 194.95L209.59 194.95 200 157.46 200 194.95Z"
fill-rule="evenodd" fill="black"/>
</g>
<g><path d="M200 69.57L209.59 69.57 200 32.08 200 69.57Z"
fill-rule="evenodd" fill="black"/>
</g>
<g><path d="M74.62 157.46L325.38 157.46"
fill="none" stroke="black" stroke-width="12"/>
</g>
<g><path d="M200 32.08L200 282.85"
fill="none" stroke="black" stroke-width="12"/>
</g>
<g><path d="M137.31 220.15L137.31 367.92"
fill="none" stroke="black" stroke-width="12"/>
</g>
<g><path d="M74.62 157.46L0.73 157.46"
fill="none" stroke="black" stroke-width="12"/>
</g>
<g><path d="M262.69 220.15L262.69 367.92"
fill="none" stroke="black" stroke-width="12"/>
</g>
<g><path d="M325.38 157.46L399.27 157.46"
fill="none" stroke="black" stroke-width="12"/>
</g>
<g><path d="M200 282.85L325.38 157.46"
fill="none" stroke="black" stroke-width="12"/>
</g>
<g><path d="M325.38 157.46L200 32.08"
fill="none" stroke="black" stroke-width="12"/>
</g>
<g><path d="M200 32.08L74.62 157.46"
fill="none" stroke="black" stroke-width="12"/>
</g>
<g><path d="M74.62 157.46L200 282.85"
fill="none" stroke="black" stroke-width="12"/>
</g>
</g>
</svg>
