<?xml version="1.0" standalone="no"?><svg xmlns="http://www.w3.org/2000/svg" width="400.000" height="400.000" viewBox="0.0 0.0 400.000 400.000" version="1.1">
  <title>Produce by Acme CAD Converter</title>
  <desc>Produce by Acme CAD Converter</desc>
<g id="0" display="visible">
<g><path d="M200 325.38L200 200 137.31 262.69 200 325.38Z"
fill-rule="evenodd" fill="black"/>
<path d="M200 325.38L262.69 137.31 200 200 200 325.38Z"
fill-rule="evenodd" fill="black"/>
</g>
<g><path d="M262.69 262.69L262.69 137.31 200 325.38 262.69 262.69Z"
fill-rule="evenodd" fill="black"/>
<path d="M262.69 262.69L325.38 200 262.69 137.31 262.69 262.69Z"
fill-rule="evenodd" fill="black"/>
</g>
<g><path d="M74.62 200L0.73 200"
fill="none" stroke="black" stroke-width="12"/>
</g>
<g><path d="M137.31 262.69L262.69 137.31"
fill="none" stroke="black" stroke-width="12"/>
</g>
<g><path d="M325.38 200L399.27 200"
fill="none" stroke="black" stroke-width="12"/>
</g>
<g><path d="M200 325.38L325.38 200"
fill="none" stroke="black" stroke-width="12"/>
</g>
<g><path d="M325.38 200L200 74.62"
fill="none" stroke="black" stroke-width="12"/>
</g>
<g><path d="M200 74.62L74.62 200"
fill="none" stroke="black" stroke-width="12"/>
</g>
<g><path d="M74.62 200L200 325.38"
fill="none" stroke="black" stroke-width="12"/>
</g>
</g>
</svg>
