<?xml version="1.0" standalone="no"?><svg xmlns="http://www.w3.org/2000/svg" width="400.000" height="400.000" viewBox="0.0 0.0 400.000 400.000" version="1.1">
  <title>Produce by Acme CAD Converter</title>
  <desc>Produce by Acme CAD Converter</desc>
<g id="0" display="visible">
<g><path d="M200 266.42L200 399.27"
fill="none" stroke="black" stroke-width="12"/>
</g>
<g><path d="M67.16 133.58L68.97 155.44M68.97 155.44L74.35 176.71M74.35 176.71L83.17 196.8M83.17 196.8L95.17 215.17M95.17 215.17L110.03 231.31M110.03 231.31L127.34 244.79M127.34 244.79L146.64 255.23M146.64 255.23L167.39 262.36M167.39 262.36L189.03 265.97M189.03 265.97L210.97 265.97M210.97 265.97L232.61 262.36M232.61 262.36L253.36 255.23M253.36 255.23L272.66 244.79M272.66 244.79L289.97 231.31M289.97 231.31L304.83 215.17M304.83 215.17L316.83 196.8M316.83 196.8L325.65 176.71M325.65 176.71L331.03 155.44M331.03 155.44L332.84 133.58"
fill="none" stroke="black" stroke-width="12"/>
</g>
<g><path d="M332.84 133.58L331.03 111.71M331.03 111.71L325.65 90.44M325.65 90.44L316.83 70.35M316.83 70.35L304.83 51.98M304.83 51.98L289.97 35.84M289.97 35.84L272.66 22.36M272.66 22.36L253.36 11.92M253.36 11.92L232.61 4.8M232.61 4.8L210.97 1.19M210.97 1.19L189.03 1.19M189.03 1.19L167.39 4.8M167.39 4.8L146.64 11.92M146.64 11.92L127.34 22.36M127.34 22.36L110.03 35.84M110.03 35.84L95.17 51.98M95.17 51.98L83.17 70.35M83.17 70.35L74.35 90.44M74.35 90.44L68.97 111.71M68.97 111.71L67.16 133.58"
fill="none" stroke="black" stroke-width="12"/>
</g>
<g><path d="M183.35 107.01L175.95 107.01M175.95 107.01L174.99 106.32M174.99 106.32L174.97 104.55M174.97 104.55L176.95 102.09M176.95 102.09L194.73 102.09M194.73 102.09L195.71 104.55M195.71 104.55L193.73 107.01M193.73 107.01L186.32 107.01M186.32 107.01L173.71 168.56M173.71 168.56L172.91 170.43M172.91 170.43L171.72 171.02M171.72 171.02L170.81 170.43M170.81 170.43L170.75 168.56M170.75 168.56L183.35 107.01"
fill="none" stroke="black" stroke-width="12"/>
</g>
<g><path d="M196 136.53L189.95 166.06M189.95 166.06L203.26 166.06M203.26 166.06L204.23 168.52M204.23 168.52L202.25 170.98M202.25 170.98L187.46 170.98M187.46 170.98L186.48 168.52M186.48 168.52L199.59 104.55M199.59 104.55L201.57 102.09M201.57 102.09L216.36 102.09M216.36 102.09L217.33 104.55M217.33 104.55L215.35 107.01M215.35 107.01L202.04 107.01M202.04 107.01L197 131.61M197 131.61L204.41 131.61M204.41 131.61L205.39 134.07M205.39 134.07L203.4 136.53M203.4 136.53L196 136.53"
fill="none" stroke="black" stroke-width="12"/>
</g>
</g>
</svg>
