<?xml version="1.0" standalone="no"?><svg xmlns="http://www.w3.org/2000/svg" width="400.000" height="400.000" viewBox="0.0 0.0 400.000 400.000" version="1.1">
  <title>Produce by Acme CAD Converter</title>
  <desc>Produce by Acme CAD Converter</desc>
<g id="0" display="visible">
<g><path d="M200 266.42L200 399.27"
fill="none" stroke="black" stroke-width="12"/>
</g>
<g><path d="M67.16 133.58L68.97 155.44M68.97 155.44L74.35 176.71M74.35 176.71L83.17 196.8M83.17 196.8L95.17 215.17M95.17 215.17L110.03 231.31M110.03 231.31L127.34 244.79M127.34 244.79L146.64 255.23M146.64 255.23L167.39 262.36M167.39 262.36L189.03 265.97M189.03 265.97L210.97 265.97M210.97 265.97L232.61 262.36M232.61 262.36L253.36 255.23M253.36 255.23L272.66 244.79M272.66 244.79L289.97 231.31M289.97 231.31L304.83 215.17M304.83 215.17L316.83 196.8M316.83 196.8L325.65 176.71M325.65 176.71L331.03 155.44M331.03 155.44L332.84 133.58"
fill="none" stroke="black" stroke-width="12"/>
</g>
<g><path d="M332.84 133.58L331.03 111.71M331.03 111.71L325.65 90.44M325.65 90.44L316.83 70.35M316.83 70.35L304.83 51.98M304.83 51.98L289.97 35.84M289.97 35.84L272.66 22.36M272.66 22.36L253.36 11.92M253.36 11.92L232.61 4.8M232.61 4.8L210.97 1.19M210.97 1.19L189.03 1.19M189.03 1.19L167.39 4.8M167.39 4.8L146.64 11.92M146.64 11.92L127.34 22.36M127.34 22.36L110.03 35.84M110.03 35.84L95.17 51.98M95.17 51.98L83.17 70.35M83.17 70.35L74.35 90.44M74.35 90.44L68.97 111.71M68.97 111.71L67.16 133.58"
fill="none" stroke="black" stroke-width="12"/>
</g>
<g><path d="M188.52 168.56L187.73 170.43M187.73 170.43L186.54 171.02M186.54 171.02L185.62 170.43M185.62 170.43L185.56 168.56M185.56 168.56L196.86 113.38M196.86 113.38L182.75 137.82M182.75 137.82L181.13 139.35M181.13 139.35L180.19 137.82M180.19 137.82L176.11 113.43M176.11 113.43L164.82 168.56M164.82 168.56L164.02 170.43M164.02 170.43L162.84 171.02M162.84 171.02L161.92 170.43M161.92 170.43L161.86 168.56M161.86 168.56L174.93 104.72M174.93 104.72L176.85 101.87M176.85 101.87L177.52 102.21M177.52 102.21L177.95 103.44M177.95 103.44L182.67 131.96M182.67 131.96L199.1 103.44M199.1 103.44L200.85 101.87M200.85 101.87L201.6 104.72M201.6 104.72L188.52 168.56"
fill="none" stroke="black" stroke-width="12"/>
</g>
<g><path d="M201.27 136.53L195.22 166.06M195.22 166.06L208.53 166.06M208.53 166.06L209.5 168.52M209.5 168.52L207.52 170.98M207.52 170.98L192.73 170.98M192.73 170.98L191.76 168.52M191.76 168.52L204.86 104.55M204.86 104.55L206.84 102.09M206.84 102.09L221.63 102.09M221.63 102.09L222.61 104.55M222.61 104.55L220.62 107.01M220.62 107.01L207.32 107.01M207.32 107.01L202.28 131.61M202.28 131.61L209.68 131.61M209.68 131.61L210.66 134.07M210.66 134.07L208.68 136.53M208.68 136.53L201.27 136.53"
fill="none" stroke="black" stroke-width="12"/>
</g>
</g>
</svg>
