<?xml version="1.0" standalone="no"?><svg xmlns="http://www.w3.org/2000/svg" width="400.000" height="400.000" viewBox="0.0 0.0 400.000 400.000" version="1.1">
  <title>Produce by Acme CAD Converter</title>
  <desc>Produce by Acme CAD Converter</desc>
<g id="0" display="visible">
<g><path d="M39.66 217.26L43.45 227.66 39.66 206.19 39.66 217.26Z"
fill-rule="evenodd" fill="black"/>
<path d="M43.45 227.66L43.45 195.78 39.66 206.19 43.45 227.66Z"
fill-rule="evenodd" fill="black"/>
<path d="M43.45 227.66L50.57 236.15 43.45 195.78 43.45 227.66Z"
fill-rule="evenodd" fill="black"/>
<path d="M50.57 236.15L50.57 187.3 43.45 195.78 50.57 236.15Z"
fill-rule="evenodd" fill="black"/>
<path d="M50.57 236.15L60.16 241.68 50.57 187.3 50.57 236.15Z"
fill-rule="evenodd" fill="black"/>
<path d="M60.16 241.68L60.16 181.76 50.57 187.3 60.16 241.68Z"
fill-rule="evenodd" fill="black"/>
<path d="M60.16 241.68L71.06 243.6 60.16 181.76 60.16 241.68Z"
fill-rule="evenodd" fill="black"/>
<path d="M71.06 243.6L71.06 179.84 60.16 181.76 71.06 243.6Z"
fill-rule="evenodd" fill="black"/>
<path d="M71.06 243.6L81.97 241.68 71.06 179.84 71.06 243.6Z"
fill-rule="evenodd" fill="black"/>
<path d="M81.97 241.68L81.97 181.76 71.06 179.84 81.97 241.68Z"
fill-rule="evenodd" fill="black"/>
<path d="M81.97 241.68L91.56 236.15 81.97 181.76 81.97 241.68Z"
fill-rule="evenodd" fill="black"/>
<path d="M91.56 236.15L91.56 187.3 81.97 181.76 91.56 236.15Z"
fill-rule="evenodd" fill="black"/>
<path d="M91.56 236.15L98.67 227.66 91.56 187.3 91.56 236.15Z"
fill-rule="evenodd" fill="black"/>
<path d="M98.67 227.66L98.67 195.78 91.56 187.3 98.67 227.66Z"
fill-rule="evenodd" fill="black"/>
<path d="M98.67 227.66L102.46 217.26 98.67 195.78 98.67 227.66Z"
fill-rule="evenodd" fill="black"/>
<path d="M102.46 217.26L102.46 206.19 98.67 195.78 102.46 217.26Z"
fill-rule="evenodd" fill="black"/>
</g>
<g><path d="M71.06 179.84L81.97 181.76M81.97 181.76L91.56 187.3M91.56 187.3L98.67 195.78M98.67 195.78L102.46 206.19M102.46 206.19L102.46 217.26M102.46 217.26L98.67 227.66M98.67 227.66L91.56 236.15M91.56 236.15L81.97 241.68M81.97 241.68L71.06 243.6M71.06 243.6L71.06 243.6M71.06 243.6L60.16 241.68M60.16 241.68L50.57 236.15M50.57 236.15L43.45 227.66M43.45 227.66L39.66 217.26M39.66 217.26L39.66 206.19M39.66 206.19L43.45 195.78M43.45 195.78L50.57 187.3M50.57 187.3L60.16 181.76M60.16 181.76L71.06 179.84"
fill="none" stroke="black" stroke-width="12"/>
</g>
<g><path d="M71.06 211.72L71.06 94.51"
fill="none" stroke="black" stroke-width="12"/>
</g>
<g><path d="M0.73 94.51L141.39 94.51"
fill="none" stroke="black" stroke-width="12"/>
</g>
<g><path d="M71.06 211.72L352.38 211.72M352.38 211.72L352.38 211.72M352.38 211.72L364.52 213.32M364.52 213.32L375.82 218M375.82 218L385.53 225.45M385.53 225.45L392.99 235.16M392.99 235.16L397.67 246.47M397.67 246.47L399.27 258.61M399.27 258.61L399.27 305.49"
fill="none" stroke="black" stroke-width="12"/>
</g>
</g>
</svg>
