<?xml version="1.0" standalone="no"?><svg xmlns="http://www.w3.org/2000/svg" width="400.000" height="400.000" viewBox="0.0 0.0 400.000 400.000" version="1.1">
  <title>Produce by Acme CAD Converter</title>
  <desc>Produce by Acme CAD Converter</desc>
<g id="0" display="visible">
<g><path d="M173.31 274.25L176.53 283.1 173.31 264.84 173.31 274.25Z"
fill-rule="evenodd" fill="black"/>
<path d="M176.53 283.1L176.53 256 173.31 264.84 176.53 283.1Z"
fill-rule="evenodd" fill="black"/>
<path d="M176.53 283.1L182.58 290.31 176.53 256 176.53 283.1Z"
fill-rule="evenodd" fill="black"/>
<path d="M182.58 290.31L182.58 248.79 176.53 256 182.58 290.31Z"
fill-rule="evenodd" fill="black"/>
<path d="M182.58 290.31L190.73 295.01 182.58 248.79 182.58 290.31Z"
fill-rule="evenodd" fill="black"/>
<path d="M190.73 295.01L190.73 244.08 182.58 248.79 190.73 295.01Z"
fill-rule="evenodd" fill="black"/>
<path d="M190.73 295.01L200 296.65 190.73 244.08 190.73 295.01Z"
fill-rule="evenodd" fill="black"/>
<path d="M200 296.65L200 242.45 190.73 244.08 200 296.65Z"
fill-rule="evenodd" fill="black"/>
<path d="M200 296.65L209.27 295.01 200 242.45 200 296.65Z"
fill-rule="evenodd" fill="black"/>
<path d="M209.27 295.01L209.27 244.08 200 242.45 209.27 295.01Z"
fill-rule="evenodd" fill="black"/>
<path d="M209.27 295.01L217.42 290.31 209.27 244.08 209.27 295.01Z"
fill-rule="evenodd" fill="black"/>
<path d="M217.42 290.31L217.42 248.79 209.27 244.08 217.42 290.31Z"
fill-rule="evenodd" fill="black"/>
<path d="M217.42 290.31L223.47 283.1 217.42 248.79 217.42 290.31Z"
fill-rule="evenodd" fill="black"/>
<path d="M223.47 283.1L223.47 256 217.42 248.79 223.47 283.1Z"
fill-rule="evenodd" fill="black"/>
<path d="M223.47 283.1L226.69 274.25 223.47 256 223.47 283.1Z"
fill-rule="evenodd" fill="black"/>
<path d="M226.69 274.25L226.69 264.84 223.47 256 226.69 274.25Z"
fill-rule="evenodd" fill="black"/>
</g>
<g><path d="M200 268.35L399.27 153.31M399.27 153.31L200 38.26M200 38.26L200 268.35"
fill="none" stroke="black" stroke-width="12"/>
</g>
<g><path d="M200 37.86L0.73 152.91M0.73 152.91L200 267.95M200 267.95L200 37.86"
fill="none" stroke="black" stroke-width="12"/>
</g>
<g><path d="M200 242.45L209.27 244.08M209.27 244.08L217.42 248.79M217.42 248.79L223.47 256M223.47 256L226.69 264.84M226.69 264.84L226.69 274.25M226.69 274.25L223.47 283.1M223.47 283.1L217.42 290.31M217.42 290.31L209.27 295.01M209.27 295.01L200 296.65M200 296.65L200 296.65M200 296.65L190.73 295.01M190.73 295.01L182.58 290.31M182.58 290.31L176.53 283.1M176.53 283.1L173.31 274.25M173.31 274.25L173.31 264.84M173.31 264.84L176.53 256M176.53 256L182.58 248.79M182.58 248.79L190.73 244.08M190.73 244.08L200 242.45"
fill="none" stroke="black" stroke-width="12"/>
</g>
<g><path d="M200 269.55L200 362.14"
fill="none" stroke="black" stroke-width="12"/>
</g>
</g>
</svg>
