<?xml version="1.0" standalone="no"?><svg xmlns="http://www.w3.org/2000/svg" width="400.000" height="400.000" viewBox="0.0 0.0 400.000 400.000" version="1.1">
  <title>Produce by Acme CAD Converter</title>
  <desc>Produce by Acme CAD Converter</desc>
<g id="0" display="visible">
<g><path d="M200 357.16L399.27 242.11M399.27 242.11L200 127.07M200 127.07L200 357.16"
fill="none" stroke="black" stroke-width="12"/>
</g>
<g><path d="M200 126.67L0.73 241.71M0.73 241.71L200 356.76M200 356.76L200 126.67"
fill="none" stroke="black" stroke-width="12"/>
</g>
<g><path d="M200 331.25L209.27 332.88M209.27 332.88L217.42 337.59M217.42 337.59L223.47 344.8M223.47 344.8L226.69 353.64M226.69 353.64L226.69 363.06M226.69 363.06L223.47 371.9M223.47 371.9L217.42 379.11M217.42 379.11L209.27 383.82M209.27 383.82L200 385.45M200 385.45L200 385.45M200 385.45L190.73 383.82M190.73 383.82L182.58 379.11M182.58 379.11L176.53 371.9M176.53 371.9L173.31 363.06M173.31 363.06L173.31 353.64M173.31 353.64L176.53 344.8M176.53 344.8L182.58 337.59M182.58 337.59L190.73 332.88M190.73 332.88L200 331.25"
fill="none" stroke="black" stroke-width="12"/>
</g>
<g><path d="M200 358.35L200 14.55M200 14.55L307.6 14.55M307.6 14.55L307.6 62.37"
fill="none" stroke="black" stroke-width="12"/>
</g>
<g><path d="M380.08 110.74L307.6 66.36M307.6 66.36L235.12 110.74M235.12 110.74L380.08 110.74"
fill="none" stroke="black" stroke-width="12"/>
</g>
</g>
</svg>
