<?xml version="1.0" standalone="no"?><svg xmlns="http://www.w3.org/2000/svg" width="400.000" height="400.000" viewBox="0.0 0.0 400.000 400.000" version="1.1">
  <title>Produce by Acme CAD Converter</title>
  <desc>Produce by Acme CAD Converter</desc>
<g id="0" display="visible">
<g><path d="M105.61 114.46L399.27 114.46"
fill="none" stroke="black" stroke-width="12"/>
</g>
<g><path d="M105.61 160.34L399.27 160.34"
fill="none" stroke="black" stroke-width="12"/>
</g>
<g><path d="M105.61 114.46L105.61 229.17"
fill="none" stroke="black" stroke-width="12"/>
</g>
<g><path d="M210.49 257.35L208.7 252.18M208.7 252.18L203.41 247.17M203.41 247.17L194.78 242.52M194.78 242.52L183.12 238.37M183.12 238.37L168.81 234.86M168.81 234.86L152.36 232.12M152.36 232.12L134.31 230.24M134.31 230.24L115.29 229.29M115.29 229.29L95.93 229.29M95.93 229.29L76.91 230.24M76.91 230.24L58.86 232.12M58.86 232.12L42.41 234.86M42.41 234.86L28.11 238.37M28.11 238.37L16.44 242.52M16.44 242.52L7.82 247.17M7.82 247.17L2.52 252.18M2.52 252.18L0.73 257.35"
fill="none" stroke="black" stroke-width="12"/>
</g>
<g><path d="M0.73 257.35L2.52 262.53M2.52 262.53L7.82 267.54M7.82 267.54L16.44 272.19M16.44 272.19L28.11 276.34M28.11 276.34L42.41 279.85M42.41 279.85L58.86 282.59M58.86 282.59L76.91 284.46M76.91 284.46L95.93 285.42M95.93 285.42L115.29 285.42M115.29 285.42L134.31 284.46M134.31 284.46L152.36 282.59M152.36 282.59L168.81 279.85M168.81 279.85L183.12 276.34M183.12 276.34L194.78 272.19M194.78 272.19L203.41 267.54M203.41 267.54L208.7 262.53M208.7 262.53L210.49 257.35"
fill="none" stroke="black" stroke-width="12"/>
</g>
</g>
</svg>
