<?xml version="1.0" standalone="no"?><svg xmlns="http://www.w3.org/2000/svg" width="400.000" height="400.000" viewBox="0.0 0.0 400.000 400.000" version="1.1">
  <title>Produce by Acme CAD Converter</title>
  <desc>Produce by Acme CAD Converter</desc>
<g id="0" display="visible">
<g><path d="M27.06 18.71L27.06 6.73 25.45 12.72 27.06 18.71Z"
fill-rule="evenodd" fill="black"/>
<path d="M27.06 18.71L31.45 23.1 27.06 6.73 27.06 18.71Z"
fill-rule="evenodd" fill="black"/>
<path d="M31.45 23.1L31.45 2.34 27.06 6.73 31.45 23.1Z"
fill-rule="evenodd" fill="black"/>
<path d="M31.45 23.1L37.44 24.71 31.45 2.34 31.45 23.1Z"
fill-rule="evenodd" fill="black"/>
<path d="M37.44 24.71L37.44 0.73 31.45 2.34 37.44 24.71Z"
fill-rule="evenodd" fill="black"/>
<path d="M37.44 24.71L43.43 23.1 37.44 0.73 37.44 24.71Z"
fill-rule="evenodd" fill="black"/>
<path d="M43.43 23.1L43.43 2.34 37.44 0.73 43.43 23.1Z"
fill-rule="evenodd" fill="black"/>
<path d="M43.43 23.1L47.82 18.71 43.43 2.34 43.43 23.1Z"
fill-rule="evenodd" fill="black"/>
<path d="M47.82 18.71L47.82 6.73 43.43 2.34 47.82 18.71Z"
fill-rule="evenodd" fill="black"/>
<path d="M47.82 18.71L49.43 12.72 47.82 6.73 47.82 18.71Z"
fill-rule="evenodd" fill="black"/>
</g>
<g><path d="M27.06 393.27L27.06 381.29 25.45 387.28 27.06 393.27Z"
fill-rule="evenodd" fill="black"/>
<path d="M27.06 393.27L31.45 397.66 27.06 381.29 27.06 393.27Z"
fill-rule="evenodd" fill="black"/>
<path d="M31.45 397.66L31.45 376.9 27.06 381.29 31.45 397.66Z"
fill-rule="evenodd" fill="black"/>
<path d="M31.45 397.66L37.44 399.27 31.45 376.9 31.45 397.66Z"
fill-rule="evenodd" fill="black"/>
<path d="M37.44 399.27L37.44 375.29 31.45 376.9 37.44 399.27Z"
fill-rule="evenodd" fill="black"/>
<path d="M37.44 399.27L43.43 397.66 37.44 375.29 37.44 399.27Z"
fill-rule="evenodd" fill="black"/>
<path d="M43.43 397.66L43.43 376.9 37.44 375.29 43.43 397.66Z"
fill-rule="evenodd" fill="black"/>
<path d="M43.43 397.66L47.82 393.27 43.43 376.9 43.43 397.66Z"
fill-rule="evenodd" fill="black"/>
<path d="M47.82 393.27L47.82 381.29 43.43 376.9 47.82 393.27Z"
fill-rule="evenodd" fill="black"/>
<path d="M47.82 393.27L49.43 387.28 47.82 381.29 47.82 393.27Z"
fill-rule="evenodd" fill="black"/>
</g>
<g><path d="M112.35 237.46L337.09 237.46"
fill="none" stroke="black" stroke-width="12"/>
</g>
<g><path d="M112.35 312.37L337.09 312.37"
fill="none" stroke="black" stroke-width="12"/>
</g>
<g><path d="M74.9 274.91L76.73 286.49M76.73 286.49L82.05 296.93M82.05 296.93L90.34 305.21M90.34 305.21L100.78 310.54M100.78 310.54L112.35 312.37"
fill="none" stroke="black" stroke-width="12"/>
</g>
<g><path d="M112.35 237.46L100.78 239.29M100.78 239.29L90.34 244.61M90.34 244.61L82.05 252.9M82.05 252.9L76.73 263.34M76.73 263.34L74.9 274.91"
fill="none" stroke="black" stroke-width="12"/>
</g>
<g><path d="M374.55 200L372.71 188.43M372.71 188.43L367.39 177.98M367.39 177.98L359.11 169.7M359.11 169.7L348.66 164.38M348.66 164.38L337.09 162.54"
fill="none" stroke="black" stroke-width="12"/>
</g>
<g><path d="M337.09 237.46L348.66 235.62M348.66 235.62L359.11 230.3M359.11 230.3L367.39 222.02M367.39 222.02L372.71 211.57M372.71 211.57L374.55 200"
fill="none" stroke="black" stroke-width="12"/>
</g>
<g><path d="M112.35 162.54L337.09 162.54"
fill="none" stroke="black" stroke-width="12"/>
</g>
<g><path d="M74.9 125.09L76.73 136.66M76.73 136.66L82.05 147.1M82.05 147.1L90.34 155.39M90.34 155.39L100.78 160.71M100.78 160.71L112.35 162.54"
fill="none" stroke="black" stroke-width="12"/>
</g>
<g><path d="M112.35 87.63L100.78 89.46M100.78 89.46L90.34 94.79M90.34 94.79L82.05 103.07M82.05 103.07L76.73 113.51M76.73 113.51L74.9 125.09"
fill="none" stroke="black" stroke-width="12"/>
</g>
<g><path d="M112.35 87.63L337.09 87.63"
fill="none" stroke="black" stroke-width="12"/>
</g>
<g><path d="M374.55 50.18L372.71 38.6M372.71 38.6L367.39 28.16M367.39 28.16L359.11 19.87M359.11 19.87L348.66 14.55M348.66 14.55L337.09 12.72"
fill="none" stroke="black" stroke-width="12"/>
</g>
<g><path d="M337.09 87.63L348.66 85.8M348.66 85.8L359.11 80.48M359.11 80.48L367.39 72.19M367.39 72.19L372.71 61.75M372.71 61.75L374.55 50.18"
fill="none" stroke="black" stroke-width="12"/>
</g>
<g><path d="M374.55 349.82L372.71 338.25M372.71 338.25L367.39 327.81M367.39 327.81L359.11 319.52M359.11 319.52L348.66 314.2M348.66 314.2L337.09 312.37"
fill="none" stroke="black" stroke-width="12"/>
</g>
<g><path d="M337.09 387.28L348.66 385.45M348.66 385.45L359.11 380.13M359.11 380.13L367.39 371.84M367.39 371.84L372.71 361.4M372.71 361.4L374.55 349.82"
fill="none" stroke="black" stroke-width="12"/>
</g>
<g><path d="M337.09 12.72L37.44 12.72"
fill="none" stroke="black" stroke-width="12"/>
</g>
<g><path d="M337.09 387.28L37.44 387.28"
fill="none" stroke="black" stroke-width="12"/>
</g>
<g><path d="M37.44 0.73L43.43 2.34M43.43 2.34L47.82 6.73M47.82 6.73L49.43 12.72M49.43 12.72L47.82 18.71M47.82 18.71L43.43 23.1M43.43 23.1L37.44 24.71M37.44 24.71L37.44 24.71M37.44 24.71L31.45 23.1M31.45 23.1L27.06 18.71M27.06 18.71L25.45 12.72M25.45 12.72L27.06 6.73M27.06 6.73L31.45 2.34M31.45 2.34L37.44 0.73"
fill="none" stroke="black" stroke-width="12"/>
</g>
<g><path d="M37.44 375.29L43.43 376.9M43.43 376.9L47.82 381.29M47.82 381.29L49.43 387.28M49.43 387.28L47.82 393.27M47.82 393.27L43.43 397.66M43.43 397.66L37.44 399.27M37.44 399.27L37.44 399.27M37.44 399.27L31.45 397.66M31.45 397.66L27.06 393.27M27.06 393.27L25.45 387.28M25.45 387.28L27.06 381.29M27.06 381.29L31.45 376.9M31.45 376.9L37.44 375.29"
fill="none" stroke="black" stroke-width="12"/>
</g>
</g>
</svg>
