<?xml version="1.0" standalone="no"?><svg xmlns="http://www.w3.org/2000/svg" width="400.000" height="400.000" viewBox="0.0 0.0 400.000 400.000" version="1.1">
  <title>Produce by Acme CAD Converter</title>
  <desc>Produce by Acme CAD Converter</desc>
<g id="0" display="visible">
<g><path d="M78.52 122.21L80.37 101.12M80.37 101.12L85.85 80.66M85.85 80.66L94.8 61.47M94.8 61.47L106.94 44.13M106.94 44.13L121.92 29.15M121.92 29.15L139.26 17.01M139.26 17.01L158.45 8.06M158.45 8.06L178.91 2.58M178.91 2.58L200 0.73M200 0.73L221.09 2.58M221.09 2.58L241.55 8.06M241.55 8.06L260.74 17.01M260.74 17.01L278.08 29.15M278.08 29.15L293.06 44.13M293.06 44.13L305.2 61.47M305.2 61.47L314.15 80.66M314.15 80.66L319.63 101.12M319.63 101.12L321.48 122.21M321.48 122.21L321.48 122.21M321.48 122.21L319.63 143.3M319.63 143.3L314.15 163.76M314.15 163.76L305.2 182.95M305.2 182.95L293.06 200.29M293.06 200.29L278.08 215.27M278.08 215.27L260.74 227.41M260.74 227.41L241.55 236.36M241.55 236.36L221.09 241.84M221.09 241.84L200 243.69M200 243.69L178.91 241.84M178.91 241.84L158.45 236.36M158.45 236.36L139.26 227.41M139.26 227.41L121.92 215.27M121.92 215.27L106.94 200.29M106.94 200.29L94.8 182.95M94.8 182.95L85.85 163.76M85.85 163.76L80.37 143.3M80.37 143.3L78.52 122.21"
fill="none" stroke="black" stroke-width="12"/>
</g>
<g><path d="M200 243.69L200 399.27"
fill="none" stroke="black" stroke-width="12"/>
</g>
</g>
</svg>
