<?xml version="1.0" standalone="no"?><svg xmlns="http://www.w3.org/2000/svg" width="400.000" height="400.000" viewBox="0.0 0.0 400.000 400.000" version="1.1">
  <title>Produce by Acme CAD Converter</title>
  <desc>Produce by Acme CAD Converter</desc>
<g id="0" display="visible">
<g><path d="M0.73 200L2.51 180.81M2.51 180.81L7.78 162.28M7.78 162.28L16.37 145.04M16.37 145.04L27.98 129.66M27.98 129.66L42.22 116.68M42.22 116.68L58.6 106.54M58.6 106.54L76.57 99.58M76.57 99.58L95.51 96.04M95.51 96.04L114.78 96.04M114.78 96.04L133.72 99.58M133.72 99.58L151.68 106.54M151.68 106.54L168.06 116.68M168.06 116.68L182.3 129.66M182.3 129.66L193.91 145.04M193.91 145.04L202.5 162.28M202.5 162.28L207.77 180.81M207.77 180.81L209.55 200M209.55 200L209.55 200M209.55 200L207.77 219.19M207.77 219.19L202.5 237.72M202.5 237.72L193.91 254.96M193.91 254.96L182.3 270.34M182.3 270.34L168.06 283.32M168.06 283.32L151.68 293.46M151.68 293.46L133.72 300.42M133.72 300.42L114.78 303.96M114.78 303.96L95.51 303.96M95.51 303.96L76.57 300.42M76.57 300.42L58.6 293.46M58.6 293.46L42.22 283.32M42.22 283.32L27.98 270.34M27.98 270.34L16.37 254.96M16.37 254.96L7.78 237.72M7.78 237.72L2.51 219.19M2.51 219.19L0.73 200"
fill="none" stroke="black" stroke-width="12"/>
</g>
<g><path d="M209.55 176.88L399.27 176.88"
fill="none" stroke="black" stroke-width="12"/>
</g>
<g><path d="M209.55 222.99L399.27 222.99"
fill="none" stroke="black" stroke-width="12"/>
</g>
</g>
</svg>
