<?xml version="1.0" standalone="no"?><svg xmlns="http://www.w3.org/2000/svg" width="400.000" height="400.000" viewBox="0.0 0.0 400.000 400.000" version="1.1">
  <title>Produce by Acme CAD Converter</title>
  <desc>Produce by Acme CAD Converter</desc>
<g id="0" display="visible">
<g><path d="M173.31 204.71L176.53 213.55 173.31 195.29 173.31 204.71Z"
fill-rule="evenodd" fill="black"/>
<path d="M176.53 213.55L176.53 186.45 173.31 195.29 176.53 213.55Z"
fill-rule="evenodd" fill="black"/>
<path d="M176.53 213.55L182.58 220.76 176.53 186.45 176.53 213.55Z"
fill-rule="evenodd" fill="black"/>
<path d="M182.58 220.76L182.58 179.24 176.53 186.45 182.58 220.76Z"
fill-rule="evenodd" fill="black"/>
<path d="M182.58 220.76L190.73 225.47 182.58 179.24 182.58 220.76Z"
fill-rule="evenodd" fill="black"/>
<path d="M190.73 225.47L190.73 174.53 182.58 179.24 190.73 225.47Z"
fill-rule="evenodd" fill="black"/>
<path d="M190.73 225.47L200 227.1 190.73 174.53 190.73 225.47Z"
fill-rule="evenodd" fill="black"/>
<path d="M200 227.1L200 172.9 190.73 174.53 200 227.1Z"
fill-rule="evenodd" fill="black"/>
<path d="M200 227.1L209.27 225.47 200 172.9 200 227.1Z"
fill-rule="evenodd" fill="black"/>
<path d="M209.27 225.47L209.27 174.53 200 172.9 209.27 225.47Z"
fill-rule="evenodd" fill="black"/>
<path d="M209.27 225.47L217.42 220.76 209.27 174.53 209.27 225.47Z"
fill-rule="evenodd" fill="black"/>
<path d="M217.42 220.76L217.42 179.24 209.27 174.53 217.42 220.76Z"
fill-rule="evenodd" fill="black"/>
<path d="M217.42 220.76L223.47 213.55 217.42 179.24 217.42 220.76Z"
fill-rule="evenodd" fill="black"/>
<path d="M223.47 213.55L223.47 186.45 217.42 179.24 223.47 213.55Z"
fill-rule="evenodd" fill="black"/>
<path d="M223.47 213.55L226.69 204.71 223.47 186.45 223.47 213.55Z"
fill-rule="evenodd" fill="black"/>
<path d="M226.69 204.71L226.69 195.29 223.47 186.45 226.69 204.71Z"
fill-rule="evenodd" fill="black"/>
</g>
<g><path d="M0.73 315.05L200 200M200 200L0.73 84.95M0.73 84.95L0.73 315.05"
fill="none" stroke="black" stroke-width="12"/>
</g>
<g><path d="M399.27 84.95L200 200M200 200L399.27 315.05M399.27 315.05L399.27 84.95"
fill="none" stroke="black" stroke-width="12"/>
</g>
<g><path d="M200 172.9L209.27 174.53M209.27 174.53L217.42 179.24M217.42 179.24L223.47 186.45M223.47 186.45L226.69 195.29M226.69 195.29L226.69 204.71M226.69 204.71L223.47 213.55M223.47 213.55L217.42 220.76M217.42 220.76L209.27 225.47M209.27 225.47L200 227.1M200 227.1L200 227.1M200 227.1L190.73 225.47M190.73 225.47L182.58 220.76M182.58 220.76L176.53 213.55M176.53 213.55L173.31 204.71M173.31 204.71L173.31 195.29M173.31 195.29L176.53 186.45M176.53 186.45L182.58 179.24M182.58 179.24L190.73 174.53M190.73 174.53L200 172.9"
fill="none" stroke="black" stroke-width="12"/>
</g>
</g>
</svg>
