<?xml version="1.0" standalone="no"?><svg xmlns="http://www.w3.org/2000/svg" width="400.000" height="400.000" viewBox="0.0 0.0 400.000 400.000" version="1.1">
  <title>Produce by Acme CAD Converter</title>
  <desc>Produce by Acme CAD Converter</desc>
<g id="0" display="visible">
<g><path d="M113.93 157.23L113.93 135.99 112.24 146.61 113.93 157.23Z"
fill-rule="evenodd" fill="black"/>
<path d="M113.93 157.23L118.81 166.8 113.93 135.99 113.93 157.23Z"
fill-rule="evenodd" fill="black"/>
<path d="M118.81 166.8L118.81 126.41 113.93 135.99 118.81 166.8Z"
fill-rule="evenodd" fill="black"/>
<path d="M118.81 166.8L126.41 174.41 118.81 126.41 118.81 166.8Z"
fill-rule="evenodd" fill="black"/>
<path d="M126.41 174.41L126.41 118.81 118.81 126.41 126.41 174.41Z"
fill-rule="evenodd" fill="black"/>
<path d="M126.41 174.41L135.99 179.29 126.41 118.81 126.41 174.41Z"
fill-rule="evenodd" fill="black"/>
<path d="M135.99 179.29L135.99 113.93 126.41 118.81 135.99 179.29Z"
fill-rule="evenodd" fill="black"/>
<path d="M135.99 179.29L146.61 180.97 135.99 113.93 135.99 179.29Z"
fill-rule="evenodd" fill="black"/>
<path d="M146.61 180.97L146.61 112.24 135.99 113.93 146.61 180.97Z"
fill-rule="evenodd" fill="black"/>
<path d="M146.61 180.97L157.23 179.29 146.61 112.24 146.61 180.97Z"
fill-rule="evenodd" fill="black"/>
<path d="M157.23 179.29L157.23 113.93 146.61 112.24 157.23 179.29Z"
fill-rule="evenodd" fill="black"/>
<path d="M157.23 179.29L166.8 174.41 157.23 113.93 157.23 179.29Z"
fill-rule="evenodd" fill="black"/>
<path d="M166.8 174.41L166.8 118.81 157.23 113.93 166.8 174.41Z"
fill-rule="evenodd" fill="black"/>
<path d="M166.8 174.41L174.41 166.8 166.8 118.81 166.8 174.41Z"
fill-rule="evenodd" fill="black"/>
<path d="M174.41 166.8L174.41 126.41 166.8 118.81 174.41 166.8Z"
fill-rule="evenodd" fill="black"/>
<path d="M174.41 166.8L179.29 157.23 174.41 126.41 174.41 166.8Z"
fill-rule="evenodd" fill="black"/>
<path d="M179.29 157.23L179.29 135.99 174.41 126.41 179.29 157.23Z"
fill-rule="evenodd" fill="black"/>
<path d="M179.29 157.23L180.97 146.61 179.29 135.99 179.29 157.23Z"
fill-rule="evenodd" fill="black"/>
</g>
<g><path d="M292.48 399.27L146.61 146.61M146.61 146.61L0.73 399.27M0.73 399.27L292.48 399.27"
fill="none" stroke="black" stroke-width="12"/>
</g>
<g><path d="M399.27 0.73L146.61 146.61M146.61 146.61L399.27 292.48M399.27 292.48L399.27 0.73"
fill="none" stroke="black" stroke-width="12"/>
</g>
<g><path d="M146.61 112.24L157.23 113.93M157.23 113.93L166.8 118.81M166.8 118.81L174.41 126.41M174.41 126.41L179.29 135.99M179.29 135.99L180.97 146.61M180.97 146.61L179.29 157.23M179.29 157.23L174.41 166.8M174.41 166.8L166.8 174.41M166.8 174.41L157.23 179.29M157.23 179.29L146.61 180.97M146.61 180.97L146.61 180.97M146.61 180.97L135.99 179.29M135.99 179.29L126.41 174.41M126.41 174.41L118.81 166.8M118.81 166.8L113.93 157.23M113.93 157.23L112.24 146.61M112.24 146.61L113.93 135.99M113.93 135.99L118.81 126.41M118.81 126.41L126.41 118.81M126.41 118.81L135.99 113.93M135.99 113.93L146.61 112.24"
fill="none" stroke="black" stroke-width="12"/>
</g>
</g>
</svg>
