<?xml version="1.0" standalone="no"?><svg xmlns="http://www.w3.org/2000/svg" width="400.000" height="400.000" viewBox="0.0 0.0 400.000 400.000" version="1.1">
  <title>Produce by Acme CAD Converter</title>
  <desc>Produce by Acme CAD Converter</desc>
<g id="0" display="visible">
<g><path d="M173.31 166.58L176.53 175.43 173.31 157.17 173.31 166.58Z"
fill-rule="evenodd" fill="black"/>
<path d="M176.53 175.43L176.53 148.33 173.31 157.17 176.53 175.43Z"
fill-rule="evenodd" fill="black"/>
<path d="M176.53 175.43L182.58 182.64 176.53 148.33 176.53 175.43Z"
fill-rule="evenodd" fill="black"/>
<path d="M182.58 182.64L182.58 141.12 176.53 148.33 182.58 182.64Z"
fill-rule="evenodd" fill="black"/>
<path d="M182.58 182.64L190.73 187.34 182.58 141.12 182.58 182.64Z"
fill-rule="evenodd" fill="black"/>
<path d="M190.73 187.34L190.73 136.41 182.58 141.12 190.73 187.34Z"
fill-rule="evenodd" fill="black"/>
<path d="M190.73 187.34L200 188.98 190.73 136.41 190.73 187.34Z"
fill-rule="evenodd" fill="black"/>
<path d="M200 188.98L200 134.78 190.73 136.41 200 188.98Z"
fill-rule="evenodd" fill="black"/>
<path d="M200 188.98L209.27 187.34 200 134.78 200 188.98Z"
fill-rule="evenodd" fill="black"/>
<path d="M209.27 187.34L209.27 136.41 200 134.78 209.27 187.34Z"
fill-rule="evenodd" fill="black"/>
<path d="M209.27 187.34L217.42 182.64 209.27 136.41 209.27 187.34Z"
fill-rule="evenodd" fill="black"/>
<path d="M217.42 182.64L217.42 141.12 209.27 136.41 217.42 182.64Z"
fill-rule="evenodd" fill="black"/>
<path d="M217.42 182.64L223.47 175.43 217.42 141.12 217.42 182.64Z"
fill-rule="evenodd" fill="black"/>
<path d="M223.47 175.43L223.47 148.33 217.42 141.12 223.47 175.43Z"
fill-rule="evenodd" fill="black"/>
<path d="M223.47 175.43L226.69 166.58 223.47 148.33 223.47 175.43Z"
fill-rule="evenodd" fill="black"/>
<path d="M226.69 166.58L226.69 157.17 223.47 148.33 226.69 166.58Z"
fill-rule="evenodd" fill="black"/>
</g>
<g><path d="M315.05 353.17L200 153.9M200 153.9L84.95 353.17M84.95 353.17L315.05 353.17"
fill="none" stroke="black" stroke-width="12"/>
</g>
<g><path d="M0.73 276.92L200 161.88M200 161.88L0.73 46.83M0.73 46.83L0.73 276.92"
fill="none" stroke="black" stroke-width="12"/>
</g>
<g><path d="M399.27 46.83L200 161.88M200 161.88L399.27 276.92M399.27 276.92L399.27 46.83"
fill="none" stroke="black" stroke-width="12"/>
</g>
<g><path d="M200 134.78L209.27 136.41M209.27 136.41L217.42 141.12M217.42 141.12L223.47 148.33M223.47 148.33L226.69 157.17M226.69 157.17L226.69 166.58M226.69 166.58L223.47 175.43M223.47 175.43L217.42 182.64M217.42 182.64L209.27 187.34M209.27 187.34L200 188.98M200 188.98L200 188.98M200 188.98L190.73 187.34M190.73 187.34L182.58 182.64M182.58 182.64L176.53 175.43M176.53 175.43L173.31 166.58M173.31 166.58L173.31 157.17M173.31 157.17L176.53 148.33M176.53 148.33L182.58 141.12M182.58 141.12L190.73 136.41M190.73 136.41L200 134.78"
fill="none" stroke="black" stroke-width="12"/>
</g>
</g>
</svg>
