<?xml version="1.0" standalone="no"?><svg xmlns="http://www.w3.org/2000/svg" width="400.000" height="400.000" viewBox="0.0 0.0 400.000 400.000" version="1.1">
  <title>Produce by Acme CAD Converter</title>
  <desc>Produce by Acme CAD Converter</desc>
<g id="0" display="visible">
<g><path d="M319.56 279.71L336.13 277.96M336.13 277.96L351.98 272.82M351.98 272.82L366.41 264.48M366.41 264.48L378.79 253.33M378.79 253.33L388.59 239.85M388.59 239.85L395.37 224.63M395.37 224.63L398.83 208.33M398.83 208.33L398.83 191.67M398.83 191.67L395.37 175.37M395.37 175.37L388.59 160.15M388.59 160.15L378.79 146.67M378.79 146.67L366.41 135.52M366.41 135.52L351.98 127.18M351.98 127.18L336.13 122.04M336.13 122.04L319.56 120.29"
fill="none" stroke="black" stroke-width="12"/>
</g>
<g><path d="M0.73 200L160.15 200"
fill="none" stroke="black" stroke-width="12"/>
</g>
<g><path d="M319.56 120.29L160.15 120.29"
fill="none" stroke="black" stroke-width="12"/>
</g>
<g><path d="M160.15 120.29L160.15 279.71"
fill="none" stroke="black" stroke-width="12"/>
</g>
<g><path d="M160.15 279.71L319.56 279.71"
fill="none" stroke="black" stroke-width="12"/>
</g>
<g><path d="M0.73 200L0.73 200"
fill="none" stroke="black" stroke-width=".5"/>
</g>
</g>
</svg>
