<?xml version="1.0" standalone="no"?><svg xmlns="http://www.w3.org/2000/svg" width="400.000" height="400.000" viewBox="0.0 0.0 400.000 400.000" version="1.1">
  <title>Produce by Acme CAD Converter</title>
  <desc>Produce by Acme CAD Converter</desc>
<g id="0" display="visible">
<g><path d="M399.27 100.37L379.83 102.28M379.83 102.28L361.14 107.95M361.14 107.95L343.91 117.16M343.91 117.16L328.82 129.55M328.82 129.55L316.42 144.65M316.42 144.65L307.22 161.87M307.22 161.87L301.55 180.56M301.55 180.56L299.63 200M299.63 200L301.55 219.44M301.55 219.44L307.22 238.13M307.22 238.13L316.42 255.35M316.42 255.35L328.82 270.45M328.82 270.45L343.91 282.84M343.91 282.84L361.14 292.05M361.14 292.05L379.83 297.72M379.83 297.72L399.27 299.63"
fill="none" stroke="black" stroke-width="12"/>
</g>
<g><path d="M0.73 200L200 200"
fill="none" stroke="black" stroke-width="12"/>
</g>
<g><path d="M399.27 100.37L200 100.37"
fill="none" stroke="black" stroke-width="12"/>
</g>
<g><path d="M200 100.37L200 299.63"
fill="none" stroke="black" stroke-width="12"/>
</g>
<g><path d="M200 299.63L399.27 299.63"
fill="none" stroke="black" stroke-width="12"/>
</g>
<g><path d="M0.73 200L0.73 200"
fill="none" stroke="black" stroke-width=".5"/>
</g>
</g>
</svg>
