<?xml version="1.0" standalone="no"?><svg xmlns="http://www.w3.org/2000/svg" width="400.000" height="400.000" viewBox="0.0 0.0 400.000 400.000" version="1.1">
  <title>Produce by Acme CAD Converter</title>
  <desc>Produce by Acme CAD Converter</desc>
<g id="0" display="visible">
<g><path d="M213.28 173.43L186.72 200"
fill="none" stroke="black" stroke-width="12"/>
</g>
<g><path d="M186.72 200L213.28 226.57"
fill="none" stroke="black" stroke-width="12"/>
</g>
<g><path d="M239.85 226.57L213.28 200"
fill="none" stroke="black" stroke-width="12"/>
</g>
<g><path d="M213.28 200L239.85 173.43"
fill="none" stroke="black" stroke-width="12"/>
</g>
<g><path d="M0.73 200L186.72 200"
fill="none" stroke="black" stroke-width="12"/>
</g>
<g><path d="M33.94 200L35.74 189.22M35.74 189.22L40.95 179.6M40.95 179.6L48.99 172.2M48.99 172.2L59 167.81M59 167.81L69.9 166.9M69.9 166.9L80.5 169.59M80.5 169.59L89.65 175.57M89.65 175.57L96.36 184.19M96.36 184.19L99.91 194.53M99.91 194.53L99.91 205.47M99.91 205.47L96.36 215.81M96.36 215.81L89.65 224.43M89.65 224.43L80.5 230.41M80.5 230.41L69.9 233.1M69.9 233.1L59 232.19M59 232.19L48.99 227.8M48.99 227.8L40.95 220.4M40.95 220.4L35.74 210.78M35.74 210.78L33.94 200"
fill="none" stroke="black" stroke-width="12"/>
</g>
<g><path d="M67.16 233.21L120.29 233.21"
fill="none" stroke="black" stroke-width="12"/>
</g>
<g><path d="M299.63 200L301.43 189.22M301.43 189.22L306.64 179.6M306.64 179.6L314.68 172.2M314.68 172.2L324.69 167.81M324.69 167.81L335.59 166.9M335.59 166.9L346.19 169.59M346.19 169.59L355.34 175.57M355.34 175.57L362.05 184.19M362.05 184.19L365.6 194.53M365.6 194.53L365.6 205.47M365.6 205.47L362.05 215.81M362.05 215.81L355.34 224.43M355.34 224.43L346.19 230.41M346.19 230.41L335.59 233.1M335.59 233.1L324.69 232.19M324.69 232.19L314.68 227.8M314.68 227.8L306.64 220.4M306.64 220.4L301.43 210.78M301.43 210.78L299.63 200"
fill="none" stroke="black" stroke-width="12"/>
</g>
<g><path d="M332.84 233.21L279.71 233.21"
fill="none" stroke="black" stroke-width="12"/>
</g>
<g><path d="M399.27 200L213.28 200"
fill="none" stroke="black" stroke-width="12"/>
</g>
<g><path d="M0.73 200L0.73 200"
fill="none" stroke="black" stroke-width=".5"/>
</g>
<g><path d="M399.27 200L399.27 200"
fill="none" stroke="black" stroke-width=".5"/>
</g>
<g><path d="M200 200L200 200"
fill="none" stroke="black" stroke-width=".5"/>
</g>
</g>
</svg>
