<?xml version="1.0" standalone="no"?><svg xmlns="http://www.w3.org/2000/svg" width="400.000" height="400.000" viewBox="0.0 0.0 400.000 400.000" version="1.1">
  <title>Produce by Acme CAD Converter</title>
  <desc>Produce by Acme CAD Converter</desc>
<g id="0" display="visible">
<g><path d="M82.78 24.18L188.28 24.18"
fill="none" stroke="black" stroke-width="12"/>
</g>
<g><path d="M164.84 0.73L188.28 24.18"
fill="none" stroke="black" stroke-width="12"/>
</g>
<g><path d="M188.28 24.18L164.84 47.62"
fill="none" stroke="black" stroke-width="12"/>
</g>
<g><path d="M317.22 24.18L211.72 24.18"
fill="none" stroke="black" stroke-width="12"/>
</g>
<g><path d="M188.28 0.73L211.72 24.18"
fill="none" stroke="black" stroke-width="12"/>
</g>
<g><path d="M211.72 24.18L188.28 47.62"
fill="none" stroke="black" stroke-width="12"/>
</g>
<g><path d="M82.78 141.39L188.28 141.39"
fill="none" stroke="black" stroke-width="12"/>
</g>
<g><path d="M164.84 117.95L188.28 141.39"
fill="none" stroke="black" stroke-width="12"/>
</g>
<g><path d="M188.28 141.39L164.84 164.84"
fill="none" stroke="black" stroke-width="12"/>
</g>
<g><path d="M317.22 141.39L211.72 141.39"
fill="none" stroke="black" stroke-width="12"/>
</g>
<g><path d="M188.28 117.95L211.72 141.39"
fill="none" stroke="black" stroke-width="12"/>
</g>
<g><path d="M211.72 141.39L188.28 164.84"
fill="none" stroke="black" stroke-width="12"/>
</g>
<g><path d="M82.78 258.61L188.28 258.61"
fill="none" stroke="black" stroke-width="12"/>
</g>
<g><path d="M164.84 235.16L188.28 258.61"
fill="none" stroke="black" stroke-width="12"/>
</g>
<g><path d="M188.28 258.61L164.84 282.05"
fill="none" stroke="black" stroke-width="12"/>
</g>
<g><path d="M317.22 258.61L211.72 258.61"
fill="none" stroke="black" stroke-width="12"/>
</g>
<g><path d="M188.28 235.16L211.72 258.61"
fill="none" stroke="black" stroke-width="12"/>
</g>
<g><path d="M211.72 258.61L188.28 282.05"
fill="none" stroke="black" stroke-width="12"/>
</g>
<g><path d="M82.78 375.82L188.28 375.82"
fill="none" stroke="black" stroke-width="12"/>
</g>
<g><path d="M164.84 352.38L188.28 375.82"
fill="none" stroke="black" stroke-width="12"/>
</g>
<g><path d="M188.28 375.82L164.84 399.27"
fill="none" stroke="black" stroke-width="12"/>
</g>
<g><path d="M317.22 375.82L211.72 375.82"
fill="none" stroke="black" stroke-width="12"/>
</g>
<g><path d="M188.28 352.38L211.72 375.82"
fill="none" stroke="black" stroke-width="12"/>
</g>
<g><path d="M211.72 375.82L188.28 399.27"
fill="none" stroke="black" stroke-width="12"/>
</g>
<g><path d="M282.05 24.18L282.05 375.82"
fill="none" stroke="black" stroke-width="12"/>
</g>
<g><path d="M117.95 24.18L117.95 375.82"
fill="none" stroke="black" stroke-width="12"/>
</g>
<g><path d="M82.78 24.18L82.78 24.18"
fill="none" stroke="black" stroke-width=".5"/>
</g>
<g><path d="M317.22 24.18L317.22 24.18"
fill="none" stroke="black" stroke-width=".5"/>
</g>
<g><path d="M200 24.18L200 24.18"
fill="none" stroke="black" stroke-width=".5"/>
</g>
<g><path d="M82.78 141.39L82.78 141.39"
fill="none" stroke="black" stroke-width=".5"/>
</g>
<g><path d="M317.22 141.39L317.22 141.39"
fill="none" stroke="black" stroke-width=".5"/>
</g>
<g><path d="M200 141.39L200 141.39"
fill="none" stroke="black" stroke-width=".5"/>
</g>
<g><path d="M82.78 258.61L82.78 258.61"
fill="none" stroke="black" stroke-width=".5"/>
</g>
<g><path d="M317.22 258.61L317.22 258.61"
fill="none" stroke="black" stroke-width=".5"/>
</g>
<g><path d="M200 258.61L200 258.61"
fill="none" stroke="black" stroke-width=".5"/>
</g>
<g><path d="M82.78 375.82L82.78 375.82"
fill="none" stroke="black" stroke-width=".5"/>
</g>
<g><path d="M317.22 375.82L317.22 375.82"
fill="none" stroke="black" stroke-width=".5"/>
</g>
<g><path d="M200 375.82L200 375.82"
fill="none" stroke="black" stroke-width=".5"/>
</g>
</g>
</svg>
