<?xml version="1.0" standalone="no"?><svg xmlns="http://www.w3.org/2000/svg" width="400.000" height="400.000" viewBox="0.0 0.0 400.000 400.000" version="1.1">
  <title>Produce by Acme CAD Converter</title>
  <desc>Produce by Acme CAD Converter</desc>
<g id="0" display="visible">
<g><path d="M116.55 386.37L116.55 365.68 116.23 365.94 116.55 386.37Z"
fill-rule="evenodd" fill="black"/>
<path d="M116.55 386.37L132.06 398.24 116.55 365.68 116.55 386.37Z"
fill-rule="evenodd" fill="black"/>
<path d="M132.06 398.24L132.06 353.02 116.55 365.68 132.06 398.24Z"
fill-rule="evenodd" fill="black"/>
<path d="M132.06 398.24L132.78 398.79 132.06 353.02 132.06 398.24Z"
fill-rule="evenodd" fill="black"/>
<path d="M132.78 398.79L132.78 353.17 132.06 353.02 132.78 398.79Z"
fill-rule="evenodd" fill="black"/>
<path d="M132.78 398.79L152.02 393.9 132.78 353.17 132.78 398.79Z"
fill-rule="evenodd" fill="black"/>
<path d="M152.02 393.9L152.02 357.43 132.78 353.17 152.02 393.9Z"
fill-rule="evenodd" fill="black"/>
<path d="M152.02 393.9L152.59 393.75 152.02 357.43 152.02 393.9Z"
fill-rule="evenodd" fill="black"/>
<path d="M152.59 393.75L152.59 358.6 152.02 357.43 152.59 393.75Z"
fill-rule="evenodd" fill="black"/>
<path d="M152.59 393.75L160.93 375.82 152.59 358.6 152.59 393.75Z"
fill-rule="evenodd" fill="black"/>
</g>
<g><path d="M106.23 94.51L200 94.51 106.23 0.73 106.23 94.51Z"
fill-rule="evenodd" fill="black"/>
<path d="M200 94.51L200 0.73 106.23 0.73 200 94.51Z"
fill-rule="evenodd" fill="black"/>
</g>
<g><path d="M293.77 94.51L387.55 94.51 293.77 0.73 293.77 94.51Z"
fill-rule="evenodd" fill="black"/>
<path d="M387.55 94.51L387.55 0.73 293.77 0.73 387.55 94.51Z"
fill-rule="evenodd" fill="black"/>
</g>
<g><path d="M335.35 386.37L335.35 365.68 335.03 365.94 335.35 386.37Z"
fill-rule="evenodd" fill="black"/>
<path d="M335.35 386.37L350.87 398.24 335.35 365.68 335.35 386.37Z"
fill-rule="evenodd" fill="black"/>
<path d="M350.87 398.24L350.87 353.02 335.35 365.68 350.87 398.24Z"
fill-rule="evenodd" fill="black"/>
<path d="M350.87 398.24L351.58 398.79 350.87 353.02 350.87 398.24Z"
fill-rule="evenodd" fill="black"/>
<path d="M351.58 398.79L351.58 353.17 350.87 353.02 351.58 398.79Z"
fill-rule="evenodd" fill="black"/>
<path d="M351.58 398.79L370.82 393.9 351.58 353.17 351.58 398.79Z"
fill-rule="evenodd" fill="black"/>
<path d="M370.82 393.9L370.82 357.43 351.58 353.17 370.82 393.9Z"
fill-rule="evenodd" fill="black"/>
<path d="M370.82 393.9L371.39 393.75 370.82 357.43 370.82 393.9Z"
fill-rule="evenodd" fill="black"/>
<path d="M371.39 393.75L371.39 358.6 370.82 357.43 371.39 393.75Z"
fill-rule="evenodd" fill="black"/>
<path d="M371.39 393.75L379.73 375.82 371.39 358.6 371.39 393.75Z"
fill-rule="evenodd" fill="black"/>
</g>
<g><path d="M137.48 125.76L231.26 172.65"
fill="none" stroke="black" stroke-width="12"/>
</g>
<g><path d="M231.26 172.65L137.48 219.54"
fill="none" stroke="black" stroke-width="12"/>
</g>
<g><path d="M137.48 219.54L137.48 375.82"
fill="none" stroke="black" stroke-width="12"/>
</g>
<g><path d="M114.04 375.82L115.83 366.85M115.83 366.85L120.91 359.25M120.91 359.25L128.51 354.16M128.51 354.16L137.48 352.38M137.48 352.38L146.46 354.16M146.46 354.16L154.06 359.25M154.06 359.25L159.14 366.85M159.14 366.85L160.93 375.82M160.93 375.82L159.14 384.79M159.14 384.79L154.06 392.4M154.06 392.4L146.46 397.48M146.46 397.48L137.48 399.27M137.48 399.27L128.51 397.48M128.51 397.48L120.91 392.4M120.91 392.4L115.83 384.79M115.83 384.79L114.04 375.82"
fill="none" stroke="black" stroke-width="12"/>
</g>
<g><path d="M12.45 375.82L12.45 94.51"
fill="none" stroke="black" stroke-width="12"/>
</g>
<g><path d="M12.45 94.51L387.55 94.51"
fill="none" stroke="black" stroke-width="12"/>
</g>
<g><path d="M387.55 0.73L106.23 0.73"
fill="none" stroke="black" stroke-width="12"/>
</g>
<g><path d="M387.55 94.51L387.55 0.73"
fill="none" stroke="black" stroke-width="12"/>
</g>
<g><path d="M200 94.51L200 0.73"
fill="none" stroke="black" stroke-width="12"/>
</g>
<g><path d="M106.23 0.73L106.23 94.51"
fill="none" stroke="black" stroke-width="12"/>
</g>
<g><path d="M293.77 0.73L293.77 94.51"
fill="none" stroke="black" stroke-width="12"/>
</g>
<g><path d="M356.29 157.02L262.52 203.91"
fill="none" stroke="black" stroke-width="12"/>
</g>
<g><path d="M262.52 203.91L356.29 250.79"
fill="none" stroke="black" stroke-width="12"/>
</g>
<g><path d="M356.29 250.79L356.29 375.82"
fill="none" stroke="black" stroke-width="12"/>
</g>
<g><path d="M332.84 375.82L334.63 366.85M334.63 366.85L339.71 359.25M339.71 359.25L347.32 354.16M347.32 354.16L356.29 352.38M356.29 352.38L365.26 354.16M365.26 354.16L372.86 359.25M372.86 359.25L377.95 366.85M377.95 366.85L379.73 375.82M379.73 375.82L377.95 384.79M377.95 384.79L372.86 392.4M372.86 392.4L365.26 397.48M365.26 397.48L356.29 399.27M356.29 399.27L347.32 397.48M347.32 397.48L339.71 392.4M339.71 392.4L334.63 384.79M334.63 384.79L332.84 375.82"
fill="none" stroke="black" stroke-width="12"/>
</g>
<g><path d="M356.29 375.82L356.29 375.82"
fill="none" stroke="black" stroke-width=".5"/>
</g>
<g><path d="M12.45 375.82L12.45 375.82"
fill="none" stroke="black" stroke-width=".5"/>
</g>
<g><path d="M137.48 375.82L137.48 375.82"
fill="none" stroke="black" stroke-width=".5"/>
</g>
</g>
</svg>
