<?xml version="1.0" standalone="no"?><svg xmlns="http://www.w3.org/2000/svg" width="400.000" height="400.000" viewBox="0.0 0.0 400.000 400.000" version="1.1">
  <title>Produce by Acme CAD Converter</title>
  <desc>Produce by Acme CAD Converter</desc>
<g id="0" display="visible">
<g><path d="M98.01 195.28L99.97 175.38M99.97 175.38L105.77 156.25M105.77 156.25L115.2 138.61M115.2 138.61L127.88 123.16M127.88 123.16L143.34 110.47M143.34 110.47L160.97 101.05M160.97 101.05L180.1 95.25M180.1 95.25L200 93.29M200 93.29L219.9 95.25M219.9 95.25L239.03 101.05M239.03 101.05L256.66 110.47M256.66 110.47L272.12 123.16M272.12 123.16L284.8 138.61M284.8 138.61L294.23 156.25M294.23 156.25L300.03 175.38M300.03 175.38L301.99 195.28M301.99 195.28L300.03 215.18M300.03 215.18L294.23 234.31M294.23 234.31L284.8 251.94M284.8 251.94L272.12 267.4M272.12 267.4L256.66 280.08M256.66 280.08L239.03 289.51M239.03 289.51L219.9 295.31M219.9 295.31L200 297.27M200 297.27L180.1 295.31M180.1 295.31L160.97 289.51M160.97 289.51L143.34 280.08M143.34 280.08L127.88 267.4M127.88 267.4L115.2 251.94M115.2 251.94L105.77 234.31M105.77 234.31L99.97 215.18M99.97 215.18L98.01 195.28"
fill="none" stroke="black" stroke-width="12"/>
</g>
<g><path d="M98.01 297.27L99.97 277.38M99.97 277.38L105.77 258.24M105.77 258.24L115.2 240.61M115.2 240.61L127.88 225.15M127.88 225.15L143.34 212.47M143.34 212.47L160.97 203.04M160.97 203.04L180.1 197.24M180.1 197.24L200 195.28M200 195.28L219.9 197.24M219.9 197.24L239.03 203.04M239.03 203.04L256.66 212.47M256.66 212.47L272.12 225.15M272.12 225.15L284.8 240.61M284.8 240.61L294.23 258.24M294.23 258.24L300.03 277.38M300.03 277.38L301.99 297.27M301.99 297.27L300.03 317.17M300.03 317.17L294.23 336.3M294.23 336.3L284.8 353.94M284.8 353.94L272.12 369.39M272.12 369.39L256.66 382.08M256.66 382.08L239.03 391.5M239.03 391.5L219.9 397.31M219.9 397.31L200 399.27M200 399.27L180.1 397.31M180.1 397.31L160.97 391.5M160.97 391.5L143.34 382.08M143.34 382.08L127.88 369.39M127.88 369.39L115.2 353.94M115.2 353.94L105.77 336.3M105.77 336.3L99.97 317.17M99.97 317.17L98.01 297.27"
fill="none" stroke="black" stroke-width="12"/>
</g>
<g><path d="M200 93.29L200 93.29"
fill="none" stroke="black" stroke-width=".5"/>
</g>
<g><path d="M200 399.27L200 399.27"
fill="none" stroke="black" stroke-width=".5"/>
</g>
<g><path d="M301.99 195.28L300.36 169.54M300.36 169.54L295.5 144.21M295.5 144.21L287.47 119.69M287.47 119.69L276.42 96.38M276.42 96.38L262.51 74.66M262.51 74.66L245.97 54.86M245.97 54.86L227.07 37.31M227.07 37.31L206.1 22.29M206.1 22.29L183.41 10.03M183.41 10.03L159.35 0.73"
fill="none" stroke="black" stroke-width="12"/>
</g>
</g>
</svg>
