<?xml version="1.0" standalone="no"?><svg xmlns="http://www.w3.org/2000/svg" width="400.000" height="400.000" viewBox="0.0 0.0 400.000 400.000" version="1.1">
  <title>Produce by Acme CAD Converter</title>
  <desc>Produce by Acme CAD Converter</desc>
<g id="0" display="visible">
<g><path d="M163.82 138.76L165.77 122.07M165.77 122.07L171.52 106.28M171.52 106.28L180.75 92.25M180.75 92.25L192.97 80.72M192.97 80.72L207.52 72.32M207.52 72.32L223.62 67.5M223.62 67.5L240.39 66.52M240.39 66.52L256.94 69.44M256.94 69.44L272.36 76.09M272.36 76.09L285.84 86.13M285.84 86.13L296.64 99M296.64 99L304.18 114.01M304.18 114.01L308.05 130.36M308.05 130.36L308.05 147.16M308.05 147.16L304.18 163.51M304.18 163.51L296.64 178.52M296.64 178.52L285.84 191.4M285.84 191.4L272.36 201.43M272.36 201.43L256.94 208.08M256.94 208.08L240.39 211M240.39 211L223.62 210.02M223.62 210.02L207.52 205.21M207.52 205.21L192.97 196.8M192.97 196.8L180.75 185.27M180.75 185.27L171.52 171.24M171.52 171.24L165.77 155.45M165.77 155.45L163.82 138.76"
fill="none" stroke="black" stroke-width="12"/>
</g>
<g><path d="M163.82 211.12L165.77 194.44M165.77 194.44L171.52 178.65M171.52 178.65L180.75 164.61M180.75 164.61L192.97 153.08M192.97 153.08L207.52 144.68M207.52 144.68L223.62 139.86M223.62 139.86L240.39 138.88M240.39 138.88L256.94 141.8M256.94 141.8L272.36 148.46M272.36 148.46L285.84 158.49M285.84 158.49L296.64 171.36M296.64 171.36L304.18 186.37M304.18 186.37L308.05 202.72M308.05 202.72L308.05 219.52M308.05 219.52L304.18 235.87M304.18 235.87L296.64 250.89M296.64 250.89L285.84 263.76M285.84 263.76L272.36 273.79M272.36 273.79L256.94 280.45M256.94 280.45L240.39 283.36M240.39 283.36L223.62 282.39M223.62 282.39L207.52 277.57M207.52 277.57L192.97 269.17M192.97 269.17L180.75 257.64M180.75 257.64L171.52 243.6M171.52 243.6L165.77 227.81M165.77 227.81L163.82 211.12"
fill="none" stroke="black" stroke-width="12"/>
</g>
<g><path d="M308.54 138.76L306.74 115.96M306.74 115.96L301.36 93.74M301.36 93.74L292.55 72.63M292.55 72.63L280.53 53.18M280.53 53.18L265.6 35.87M265.6 35.87L248.12 21.12M248.12 21.12L228.54 9.31M228.54 9.31L207.34 0.73"
fill="none" stroke="black" stroke-width="12"/>
</g>
<g><path d="M163.82 138.76L91.46 138.76"
fill="none" stroke="black" stroke-width="12"/>
</g>
<g><path d="M236.18 283.49L236.18 399.27"
fill="none" stroke="black" stroke-width="12"/>
</g>
</g>
</svg>
