<?xml version="1.0" standalone="no"?><svg xmlns="http://www.w3.org/2000/svg" width="400.000" height="400.000" viewBox="0.0 0.0 400.000 400.000" version="1.1">
  <title>Produce by Acme CAD Converter</title>
  <desc>Produce by Acme CAD Converter</desc>
<g id="0" display="visible">
<g><path d="M337.07 262.19L335.26 230.73M335.26 230.73L329.85 199.68M329.85 199.68L320.91 169.45M320.91 169.45L308.56 140.45M308.56 140.45L292.96 113.06M292.96 113.06L274.33 87.65M274.33 87.65L252.9 64.53M252.9 64.53L228.95 44.04M228.95 44.04L202.82 26.42M202.82 26.42L174.83 11.92M174.83 11.92L145.36 0.73"
fill="none" stroke="black" stroke-width="12"/>
</g>
<g><path d="M62.93 262.19L64.9 239.03M64.9 239.03L70.76 216.53M70.76 216.53L80.33 195.34M80.33 195.34L93.35 176.08M93.35 176.08L109.44 159.3M109.44 159.3L128.13 145.47M128.13 145.47L148.89 135M148.89 135L171.12 128.2M171.12 128.2L194.18 125.24M194.18 125.24L217.41 126.23M217.41 126.23L240.14 131.13M240.14 131.13L261.71 139.8M261.71 139.8L281.51 151.99M281.51 151.99L298.96 167.35M298.96 167.35L313.57 185.43M313.57 185.43L324.91 205.73M324.91 205.73L332.65 227.65M332.65 227.65L336.58 250.57M336.58 250.57L336.58 273.82M336.58 273.82L332.65 296.73M332.65 296.73L324.91 318.65M324.91 318.65L313.57 338.95M313.57 338.95L298.96 357.04M298.96 357.04L281.51 372.4M281.51 372.4L261.71 384.59M261.71 384.59L240.14 393.26M240.14 393.26L217.41 398.16M217.41 398.16L194.18 399.14M194.18 399.14L171.12 396.19M171.12 396.19L148.89 389.38M148.89 389.38L128.13 378.92M128.13 378.92L109.44 365.09M109.44 365.09L93.35 348.31M93.35 348.31L80.33 329.04M80.33 329.04L70.76 307.86M70.76 307.86L64.9 285.36M64.9 285.36L62.93 262.19"
fill="none" stroke="black" stroke-width="12"/>
</g>
</g>
</svg>
