<?xml version="1.0" standalone="no"?><svg xmlns="http://www.w3.org/2000/svg" width="400.000" height="400.000" viewBox="0.0 0.0 400.000 400.000" version="1.1">
  <title>Produce by Acme CAD Converter</title>
  <desc>Produce by Acme CAD Converter</desc>
<g id="0" display="visible">
<g><path d="M215.94 295.65L209.02 297.23M209.02 297.23L203.48 301.65M203.48 301.65L200.4 308.04M200.4 308.04L200.4 315.14M200.4 315.14L203.48 321.53M203.48 321.53L209.02 325.95M209.02 325.95L215.94 327.53"
fill="none" stroke="black" stroke-width="12"/>
</g>
<g><path d="M215.94 327.53L209.02 329.11M209.02 329.11L203.48 333.53M203.48 333.53L200.4 339.92M200.4 339.92L200.4 347.02M200.4 347.02L203.48 353.41M203.48 353.41L209.02 357.83M209.02 357.83L215.94 359.41"
fill="none" stroke="black" stroke-width="12"/>
</g>
<g><path d="M215.94 359.41L209.02 360.99M209.02 360.99L203.48 365.42M203.48 365.42L200.4 371.81M200.4 371.81L200.4 378.9M200.4 378.9L203.48 385.29M203.48 385.29L209.02 389.72M209.02 389.72L215.94 391.3"
fill="none" stroke="black" stroke-width="12"/>
</g>
<g><path d="M247.82 295.65L215.94 295.65"
fill="none" stroke="black" stroke-width="12"/>
</g>
<g><path d="M215.94 391.3L247.82 391.3"
fill="none" stroke="black" stroke-width="12"/>
</g>
<g><path d="M215.94 152.18L209.02 153.75M209.02 153.75L203.48 158.18M203.48 158.18L200.4 164.57M200.4 164.57L200.4 171.66M200.4 171.66L203.48 178.06M203.48 178.06L209.02 182.48M209.02 182.48L215.94 184.06"
fill="none" stroke="black" stroke-width="12"/>
</g>
<g><path d="M215.94 184.06L209.02 185.64M209.02 185.64L203.48 190.06M203.48 190.06L200.4 196.45M200.4 196.45L200.4 203.55M200.4 203.55L203.48 209.94M203.48 209.94L209.02 214.36M209.02 214.36L215.94 215.94"
fill="none" stroke="black" stroke-width="12"/>
</g>
<g><path d="M215.94 215.94L209.02 217.52M209.02 217.52L203.48 221.94M203.48 221.94L200.4 228.34M200.4 228.34L200.4 235.43M200.4 235.43L203.48 241.82M203.48 241.82L209.02 246.25M209.02 246.25L215.94 247.82"
fill="none" stroke="black" stroke-width="12"/>
</g>
<g><path d="M247.82 152.18L215.94 152.18"
fill="none" stroke="black" stroke-width="12"/>
</g>
<g><path d="M215.94 247.82L247.82 247.82"
fill="none" stroke="black" stroke-width="12"/>
</g>
<g><path d="M215.94 8.7L209.02 10.28M209.02 10.28L203.48 14.71M203.48 14.71L200.4 21.1M200.4 21.1L200.4 28.19M200.4 28.19L203.48 34.58M203.48 34.58L209.02 39.01M209.02 39.01L215.94 40.59"
fill="none" stroke="black" stroke-width="12"/>
</g>
<g><path d="M215.94 40.59L209.02 42.17M209.02 42.17L203.48 46.59M203.48 46.59L200.4 52.98M200.4 52.98L200.4 60.08M200.4 60.08L203.48 66.47M203.48 66.47L209.02 70.89M209.02 70.89L215.94 72.47"
fill="none" stroke="black" stroke-width="12"/>
</g>
<g><path d="M215.94 72.47L209.02 74.05M209.02 74.05L203.48 78.47M203.48 78.47L200.4 84.86M200.4 84.86L200.4 91.96M200.4 91.96L203.48 98.35M203.48 98.35L209.02 102.77M209.02 102.77L215.94 104.35"
fill="none" stroke="black" stroke-width="12"/>
</g>
<g><path d="M247.82 8.7L215.94 8.7"
fill="none" stroke="black" stroke-width="12"/>
</g>
<g><path d="M215.94 104.35L247.82 104.35"
fill="none" stroke="black" stroke-width="12"/>
</g>
<g><path d="M184.06 0.73L184.06 399.27"
fill="none" stroke="black" stroke-width="12"/>
</g>
<g><path d="M152.18 184.06L159.09 182.48M159.09 182.48L164.64 178.06M164.64 178.06L167.72 171.66M167.72 171.66L167.72 164.57M167.72 164.57L164.64 158.18M164.64 158.18L159.09 153.75M159.09 153.75L152.18 152.18"
fill="none" stroke="black" stroke-width="12"/>
</g>
<g><path d="M152.18 215.94L159.09 214.36M159.09 214.36L164.64 209.94M164.64 209.94L167.72 203.55M167.72 203.55L167.72 196.45M167.72 196.45L164.64 190.06M164.64 190.06L159.09 185.64M159.09 185.64L152.18 184.06"
fill="none" stroke="black" stroke-width="12"/>
</g>
<g><path d="M152.18 247.82L159.09 246.25M159.09 246.25L164.64 241.82M164.64 241.82L167.72 235.43M167.72 235.43L167.72 228.34M167.72 228.34L164.64 221.94M164.64 221.94L159.09 217.52M159.09 217.52L152.18 215.94"
fill="none" stroke="black" stroke-width="12"/>
</g>
<g><path d="M152.18 279.71L152.18 247.82"
fill="none" stroke="black" stroke-width="12"/>
</g>
<g><path d="M152.18 152.18L152.18 120.29"
fill="none" stroke="black" stroke-width="12"/>
</g>
</g>
</svg>
