<?xml version="1.0" standalone="no"?><svg xmlns="http://www.w3.org/2000/svg" width="400.000" height="400.000" viewBox="0.0 0.0 400.000 400.000" version="1.1">
  <title>Produce by Acme CAD Converter</title>
  <desc>Produce by Acme CAD Converter</desc>
<g id="0" display="visible">
<g><path d="M130.26 80.44L142.57 78.49M142.57 78.49L153.68 72.83M153.68 72.83L162.5 64.01M162.5 64.01L168.16 52.9M168.16 52.9L170.11 40.59M170.11 40.59L168.16 28.27M168.16 28.27L162.5 17.16M162.5 17.16L153.68 8.34M153.68 8.34L142.57 2.68M142.57 2.68L130.26 0.73"
fill="none" stroke="black" stroke-width="12"/>
</g>
<g><path d="M269.74 0.73L257.43 2.68M257.43 2.68L246.32 8.34M246.32 8.34L237.5 17.16M237.5 17.16L231.84 28.27M231.84 28.27L229.89 40.59M229.89 40.59L231.84 52.9M231.84 52.9L237.5 64.01M237.5 64.01L246.32 72.83M246.32 72.83L257.43 78.49M257.43 78.49L269.74 80.44"
fill="none" stroke="black" stroke-width="12"/>
</g>
<g><path d="M130.26 160.15L142.57 158.2M142.57 158.2L153.68 152.54M153.68 152.54L162.5 143.72M162.5 143.72L168.16 132.61M168.16 132.61L170.11 120.29M170.11 120.29L168.16 107.98M168.16 107.98L162.5 96.87M162.5 96.87L153.68 88.05M153.68 88.05L142.57 82.39M142.57 82.39L130.26 80.44"
fill="none" stroke="black" stroke-width="12"/>
</g>
<g><path d="M269.74 80.44L257.43 82.39M257.43 82.39L246.32 88.05M246.32 88.05L237.5 96.87M237.5 96.87L231.84 107.98M231.84 107.98L229.89 120.29M229.89 120.29L231.84 132.61M231.84 132.61L237.5 143.72M237.5 143.72L246.32 152.54M246.32 152.54L257.43 158.2M257.43 158.2L269.74 160.15"
fill="none" stroke="black" stroke-width="12"/>
</g>
<g><path d="M130.26 239.85L142.57 237.9M142.57 237.9L153.68 232.24M153.68 232.24L162.5 223.43M162.5 223.43L168.16 212.32M168.16 212.32L170.11 200M170.11 200L168.16 187.68M168.16 187.68L162.5 176.57M162.5 176.57L153.68 167.76M153.68 167.76L142.57 162.1M142.57 162.1L130.26 160.15"
fill="none" stroke="black" stroke-width="12"/>
</g>
<g><path d="M269.74 160.15L257.43 162.1M257.43 162.1L246.32 167.76M246.32 167.76L237.5 176.57M237.5 176.57L231.84 187.68M231.84 187.68L229.89 200M229.89 200L231.84 212.32M231.84 212.32L237.5 223.43M237.5 223.43L246.32 232.24M246.32 232.24L257.43 237.9M257.43 237.9L269.74 239.85"
fill="none" stroke="black" stroke-width="12"/>
</g>
<g><path d="M130.26 319.56L142.57 317.61M142.57 317.61L153.68 311.95M153.68 311.95L162.5 303.13M162.5 303.13L168.16 292.02M168.16 292.02L170.11 279.71M170.11 279.71L168.16 267.39M168.16 267.39L162.5 256.28M162.5 256.28L153.68 247.46M153.68 247.46L142.57 241.8M142.57 241.8L130.26 239.85"
fill="none" stroke="black" stroke-width="12"/>
</g>
<g><path d="M269.74 239.85L257.43 241.8M257.43 241.8L246.32 247.46M246.32 247.46L237.5 256.28M237.5 256.28L231.84 267.39M231.84 267.39L229.89 279.71M229.89 279.71L231.84 292.02M231.84 292.02L237.5 303.13M237.5 303.13L246.32 311.95M246.32 311.95L257.43 317.61M257.43 317.61L269.74 319.56"
fill="none" stroke="black" stroke-width="12"/>
</g>
<g><path d="M130.26 399.27L142.57 397.32M142.57 397.32L153.68 391.66M153.68 391.66L162.5 382.84M162.5 382.84L168.16 371.73M168.16 371.73L170.11 359.41M170.11 359.41L168.16 347.1M168.16 347.1L162.5 335.99M162.5 335.99L153.68 327.17M153.68 327.17L142.57 321.51M142.57 321.51L130.26 319.56"
fill="none" stroke="black" stroke-width="12"/>
</g>
<g><path d="M269.74 319.56L257.43 321.51M257.43 321.51L246.32 327.17M246.32 327.17L237.5 335.99M237.5 335.99L231.84 347.1M231.84 347.1L229.89 359.41M229.89 359.41L231.84 371.73M231.84 371.73L237.5 382.84M237.5 382.84L246.32 391.66M246.32 391.66L257.43 397.32M257.43 397.32L269.74 399.27"
fill="none" stroke="black" stroke-width="12"/>
</g>
<g><path d="M130.26 399.27L50.55 399.27"
fill="none" stroke="black" stroke-width="12"/>
</g>
<g><path d="M349.45 0.73L269.74 0.73"
fill="none" stroke="black" stroke-width="12"/>
</g>
<g><path d="M269.74 399.27L349.45 399.27"
fill="none" stroke="black" stroke-width="12"/>
</g>
<g><path d="M200 15.68L200 65.49"
fill="none" stroke="black" stroke-width="12"/>
</g>
<g><path d="M200 95.38L200 145.2"
fill="none" stroke="black" stroke-width="12"/>
</g>
<g><path d="M200 175.09L200 224.91"
fill="none" stroke="black" stroke-width="12"/>
</g>
<g><path d="M200 254.8L200 304.62"
fill="none" stroke="black" stroke-width="12"/>
</g>
<g><path d="M200 334.51L200 384.32"
fill="none" stroke="black" stroke-width="12"/>
</g>
<g><path d="M130.26 0.73L50.55 0.73"
fill="none" stroke="black" stroke-width="12"/>
</g>
<g><path d="M50.55 0.73L50.55 0.73"
fill="none" stroke="black" stroke-width=".5"/>
</g>
<g><path d="M50.55 399.27L50.55 399.27"
fill="none" stroke="black" stroke-width=".5"/>
</g>
<g><path d="M349.45 0.73L349.45 0.73"
fill="none" stroke="black" stroke-width=".5"/>
</g>
<g><path d="M349.45 399.27L349.45 399.27"
fill="none" stroke="black" stroke-width=".5"/>
</g>
</g>
</svg>
