<?xml version="1.0" standalone="no"?><svg xmlns="http://www.w3.org/2000/svg" width="400.000" height="400.000" viewBox="0.0 0.0 400.000 400.000" version="1.1">
  <title>Produce by Acme CAD Converter</title>
  <desc>Produce by Acme CAD Converter</desc>
<g id="0" display="visible">
<g><path d="M125.27 299.63L224.91 299.63"
fill="none" stroke="black" stroke-width="12"/>
</g>
<g><path d="M224.91 399.27L224.91 0.73"
fill="none" stroke="black" stroke-width="12"/>
</g>
<g><path d="M224.91 200L237.8 198.3M237.8 198.3L249.82 193.33M249.82 193.33L260.13 185.41M260.13 185.41L268.05 175.09M268.05 175.09L273.03 163.08M273.03 163.08L274.73 150.18M274.73 150.18L273.03 137.29M273.03 137.29L268.05 125.27M268.05 125.27L260.13 114.96M260.13 114.96L249.82 107.04M249.82 107.04L237.8 102.06M237.8 102.06L224.91 100.37"
fill="none" stroke="black" stroke-width="12"/>
</g>
<g><path d="M224.91 299.63L237.8 297.94M237.8 297.94L249.82 292.96M249.82 292.96L260.13 285.04M260.13 285.04L268.05 274.73M268.05 274.73L273.03 262.71M273.03 262.71L274.73 249.82M274.73 249.82L273.03 236.92M273.03 236.92L268.05 224.91M268.05 224.91L260.13 214.59M260.13 214.59L249.82 206.67M249.82 206.67L237.8 201.7M237.8 201.7L224.91 200"
fill="none" stroke="black" stroke-width="12"/>
</g>
<g><path d="M224.91 100.37L125.27 100.37"
fill="none" stroke="black" stroke-width="12"/>
</g>
<g><path d="M125.27 100.37L125.27 100.37"
fill="none" stroke="black" stroke-width=".5"/>
</g>
<g><path d="M125.27 299.63L125.27 299.63"
fill="none" stroke="black" stroke-width=".5"/>
</g>
<g><path d="M224.91 0.73L224.91 0.73"
fill="none" stroke="black" stroke-width=".5"/>
</g>
<g><path d="M224.91 399.27L224.91 399.27"
fill="none" stroke="black" stroke-width=".5"/>
</g>
</g>
</svg>
