<?xml version="1.0" standalone="no"?><svg xmlns="http://www.w3.org/2000/svg" width="400.000" height="400.000" viewBox="0.0 0.0 400.000 400.000" version="1.1">
  <title>Produce by Acme CAD Converter</title>
  <desc>Produce by Acme CAD Converter</desc>
<g id="0" display="visible">
<g><path d="M35.39 139.35L37.28 121.34M37.28 121.34L42.88 104.11M42.88 104.11L51.93 88.43M51.93 88.43L64.05 74.97M64.05 74.97L78.71 64.32M78.71 64.32L95.25 56.96M95.25 56.96L112.97 53.19M112.97 53.19L131.08 53.19M131.08 53.19L148.8 56.96M148.8 56.96L165.34 64.32M165.34 64.32L180 74.97M180 74.97L192.12 88.43M192.12 88.43L201.17 104.11M201.17 104.11L206.77 121.34M206.77 121.34L208.66 139.35M208.66 139.35L206.77 157.37M206.77 157.37L201.17 174.59M201.17 174.59L192.12 190.28M192.12 190.28L180 203.74M180 203.74L165.34 214.38M165.34 214.38L148.8 221.75M148.8 221.75L131.08 225.52M131.08 225.52L112.97 225.52M112.97 225.52L95.25 221.75M95.25 221.75L78.71 214.38M78.71 214.38L64.05 203.74M64.05 203.74L51.93 190.28M51.93 190.28L42.88 174.59M42.88 174.59L37.28 157.37M37.28 157.37L35.39 139.35"
fill="none" stroke="black" stroke-width="9"/>
</g>
<g><path d="M122.03 52.72L122.03 0.73"
fill="none" stroke="black" stroke-width="9"/>
</g>
<g><path d="M35.39 260.65L37.28 242.63M37.28 242.63L42.88 225.41M42.88 225.41L51.93 209.72M51.93 209.72L64.05 196.26M64.05 196.26L78.71 185.62M78.71 185.62L95.25 178.25M95.25 178.25L112.97 174.48M112.97 174.48L131.08 174.48M131.08 174.48L148.8 178.25M148.8 178.25L165.34 185.62M165.34 185.62L180 196.26M180 196.26L192.12 209.72M192.12 209.72L201.17 225.41M201.17 225.41L206.77 242.63M206.77 242.63L208.66 260.65M208.66 260.65L206.77 278.66M206.77 278.66L201.17 295.89M201.17 295.89L192.12 311.57M192.12 311.57L180 325.03M180 325.03L165.34 335.68M165.34 335.68L148.8 343.04M148.8 343.04L131.08 346.81M131.08 346.81L112.97 346.81M112.97 346.81L95.25 343.04M95.25 343.04L78.71 335.68M78.71 335.68L64.05 325.03M64.05 325.03L51.93 311.57M51.93 311.57L42.88 295.89M42.88 295.89L37.28 278.66M37.28 278.66L35.39 260.65"
fill="none" stroke="black" stroke-width="9"/>
</g>
<g><path d="M122.03 347.28L122.03 399.27"
fill="none" stroke="black" stroke-width="9"/>
</g>
<g><path d="M139.35 200L141.25 181.99M141.25 181.99L146.84 164.76M146.84 164.76L155.9 149.08M155.9 149.08L168.02 135.62M168.02 135.62L182.67 124.97M182.67 124.97L199.22 117.6M199.22 117.6L216.94 113.84M216.94 113.84L235.05 113.84M235.05 113.84L252.76 117.6M252.76 117.6L269.31 124.97M269.31 124.97L283.96 135.62M283.96 135.62L296.08 149.08M296.08 149.08L305.14 164.76M305.14 164.76L310.74 181.99M310.74 181.99L312.63 200M312.63 200L310.74 218.01M310.74 218.01L305.14 235.24M305.14 235.24L296.08 250.92M296.08 250.92L283.96 264.38M283.96 264.38L269.31 275.03M269.31 275.03L252.76 282.4M252.76 282.4L235.05 286.16M235.05 286.16L216.94 286.16M216.94 286.16L199.22 282.4M199.22 282.4L182.67 275.03M182.67 275.03L168.02 264.38M168.02 264.38L155.9 250.92M155.9 250.92L146.84 235.24M146.84 235.24L141.25 218.01M141.25 218.01L139.35 200"
fill="none" stroke="black" stroke-width="9"/>
</g>
<g><path d="M312.63 200L364.61 200"
fill="none" stroke="black" stroke-width="9"/>
</g>
</g>
</svg>
