<?xml version="1.0" standalone="no"?><svg xmlns="http://www.w3.org/2000/svg" width="400.000" height="400.000" viewBox="0.0 0.0 400.000 400.000" version="1.1">
  <title>Produce by Acme CAD Converter</title>
  <desc>Produce by Acme CAD Converter</desc>
<g id="0" display="visible">
<g><path d="M100.37 299.63L200 299.63"
fill="none" stroke="black" stroke-width="12"/>
</g>
<g><path d="M200 399.27L200 0.73"
fill="none" stroke="black" stroke-width="12"/>
</g>
<g><path d="M200 200L212.89 198.3M212.89 198.3L224.91 193.33M224.91 193.33L235.23 185.41M235.23 185.41L243.14 175.09M243.14 175.09L248.12 163.08M248.12 163.08L249.82 150.18M249.82 150.18L248.12 137.29M248.12 137.29L243.14 125.27M243.14 125.27L235.23 114.96M235.23 114.96L224.91 107.04M224.91 107.04L212.89 102.06M212.89 102.06L200 100.37"
fill="none" stroke="black" stroke-width="12"/>
</g>
<g><path d="M200 299.63L212.89 297.94M212.89 297.94L224.91 292.96M224.91 292.96L235.23 285.04M235.23 285.04L243.14 274.73M243.14 274.73L248.12 262.71M248.12 262.71L249.82 249.82M249.82 249.82L248.12 236.92M248.12 236.92L243.14 224.91M243.14 224.91L235.23 214.59M235.23 214.59L224.91 206.67M224.91 206.67L212.89 201.7M212.89 201.7L200 200"
fill="none" stroke="black" stroke-width="12"/>
</g>
<g><path d="M40.59 349.45L100.37 349.45"
fill="none" stroke="black" stroke-width="12"/>
</g>
<g><path d="M100.37 349.45L299.63 50.55"
fill="none" stroke="black" stroke-width="12"/>
</g>
<g><path d="M299.63 50.55L359.41 50.55"
fill="none" stroke="black" stroke-width="12"/>
</g>
<g><path d="M200 100.37L100.37 100.37"
fill="none" stroke="black" stroke-width="12"/>
</g>
<g><path d="M100.37 100.37L100.37 100.37"
fill="none" stroke="black" stroke-width=".5"/>
</g>
<g><path d="M100.37 299.63L100.37 299.63"
fill="none" stroke="black" stroke-width=".5"/>
</g>
<g><path d="M200 0.73L200 0.73"
fill="none" stroke="black" stroke-width=".5"/>
</g>
<g><path d="M200 399.27L200 399.27"
fill="none" stroke="black" stroke-width=".5"/>
</g>
</g>
</svg>
