<?xml version="1.0" standalone="no"?><svg xmlns="http://www.w3.org/2000/svg" width="400.000" height="400.000" viewBox="0.0 0.0 400.000 400.000" version="1.1">
  <title>Produce by Acme CAD Converter</title>
  <desc>Produce by Acme CAD Converter</desc>
<g id="0" display="visible">
<g><path d="M107.01 146.86L120.76 145.05M120.76 145.05L133.58 139.74M133.58 139.74L144.58 131.3M144.58 131.3L153.03 120.29M153.03 120.29L158.34 107.48M158.34 107.48L160.15 93.72M160.15 93.72L158.34 79.97M158.34 79.97L153.03 67.16M153.03 67.16L144.58 56.15M144.58 56.15L133.58 47.71M133.58 47.71L120.76 42.4M120.76 42.4L107.01 40.59"
fill="none" stroke="black" stroke-width="12"/>
</g>
<g><path d="M292.99 40.59L279.24 42.4M279.24 42.4L266.42 47.71M266.42 47.71L255.42 56.15M255.42 56.15L246.97 67.16M246.97 67.16L241.66 79.97M241.66 79.97L239.85 93.72M239.85 93.72L241.66 107.48M241.66 107.48L246.97 120.29M246.97 120.29L255.42 131.3M255.42 131.3L266.42 139.74M266.42 139.74L279.24 145.05M279.24 145.05L292.99 146.86"
fill="none" stroke="black" stroke-width="12"/>
</g>
<g><path d="M107.01 253.14L120.76 251.33M120.76 251.33L133.58 246.02M133.58 246.02L144.58 237.57M144.58 237.57L153.03 226.57M153.03 226.57L158.34 213.75M158.34 213.75L160.15 200M160.15 200L158.34 186.25M158.34 186.25L153.03 173.43M153.03 173.43L144.58 162.43M144.58 162.43L133.58 153.98M133.58 153.98L120.76 148.67M120.76 148.67L107.01 146.86"
fill="none" stroke="black" stroke-width="12"/>
</g>
<g><path d="M292.99 146.86L279.24 148.67M279.24 148.67L266.42 153.98M266.42 153.98L255.42 162.43M255.42 162.43L246.97 173.43M246.97 173.43L241.66 186.25M241.66 186.25L239.85 200M239.85 200L241.66 213.75M241.66 213.75L246.97 226.57M246.97 226.57L255.42 237.57M255.42 237.57L266.42 246.02M266.42 246.02L279.24 251.33M279.24 251.33L292.99 253.14"
fill="none" stroke="black" stroke-width="12"/>
</g>
<g><path d="M107.01 359.41L120.76 357.6M120.76 357.6L133.58 352.29M133.58 352.29L144.58 343.85M144.58 343.85L153.03 332.84M153.03 332.84L158.34 320.03M158.34 320.03L160.15 306.28M160.15 306.28L158.34 292.52M158.34 292.52L153.03 279.71M153.03 279.71L144.58 268.7M144.58 268.7L133.58 260.26M133.58 260.26L120.76 254.95M120.76 254.95L107.01 253.14"
fill="none" stroke="black" stroke-width="12"/>
</g>
<g><path d="M292.99 253.14L279.24 254.95M279.24 254.95L266.42 260.26M266.42 260.26L255.42 268.7M255.42 268.7L246.97 279.71M246.97 279.71L241.66 292.52M241.66 292.52L239.85 306.28M239.85 306.28L241.66 320.03M241.66 320.03L246.97 332.84M246.97 332.84L255.42 343.85M255.42 343.85L266.42 352.29M266.42 352.29L279.24 357.6M279.24 357.6L292.99 359.41"
fill="none" stroke="black" stroke-width="12"/>
</g>
<g><path d="M107.01 359.41L0.73 359.41"
fill="none" stroke="black" stroke-width="12"/>
</g>
<g><path d="M399.27 40.59L292.99 40.59"
fill="none" stroke="black" stroke-width="12"/>
</g>
<g><path d="M292.99 359.41L399.27 359.41"
fill="none" stroke="black" stroke-width="12"/>
</g>
<g><path d="M107.01 40.59L0.73 40.59"
fill="none" stroke="black" stroke-width="12"/>
</g>
<g><path d="M200 40.59L200 359.41"
fill="none" stroke="black" stroke-width="12"/>
</g>
</g>
</svg>
