<?xml version="1.0" standalone="no"?><svg xmlns="http://www.w3.org/2000/svg" width="400.000" height="400.000" viewBox="0.0 0.0 400.000 400.000" version="1.1">
  <title>Produce by Acme CAD Converter</title>
  <desc>Produce by Acme CAD Converter</desc>
<g id="0" display="visible">
<g><path d="M67.16 133.58L69.07 111.13M69.07 111.13L74.74 89.32M74.74 89.32L84.02 68.79M84.02 68.79L96.64 50.12M96.64 50.12L112.23 33.86M112.23 33.86L130.35 20.46M130.35 20.46L150.47 10.31M150.47 10.31L172.01 3.71M172.01 3.71L194.36 0.85M194.36 0.85L216.87 1.81M216.87 1.81L238.9 6.56M238.9 6.56L259.81 14.96M259.81 14.96L278.99 26.77M278.99 26.77L295.91 41.66M295.91 41.66L310.06 59.19M310.06 59.19L321.05 78.86M321.05 78.86L328.56 100.1M328.56 100.1L332.37 122.31M332.37 122.31L332.37 144.84M332.37 144.84L328.56 167.05M328.56 167.05L321.05 188.3M321.05 188.3L310.06 207.97M310.06 207.97L295.91 225.5M295.91 225.5L278.99 240.38M278.99 240.38L259.81 252.2M259.81 252.2L238.9 260.6M238.9 260.6L216.87 265.35M216.87 265.35L194.36 266.3M194.36 266.3L172.01 263.44M172.01 263.44L150.47 256.84M150.47 256.84L130.35 246.7M130.35 246.7L112.23 233.3M112.23 233.3L96.64 217.03M96.64 217.03L84.02 198.37M84.02 198.37L74.74 177.83M74.74 177.83L69.07 156.03M69.07 156.03L67.16 133.58"
fill="none" stroke="black" stroke-width="12"/>
</g>
<g><path d="M67.16 266.42L69.07 243.97M69.07 243.97L74.74 222.17M74.74 222.17L84.02 201.63M84.02 201.63L96.64 182.97M96.64 182.97L112.23 166.7M112.23 166.7L130.35 153.3M130.35 153.3L150.47 143.16M150.47 143.16L172.01 136.56M172.01 136.56L194.36 133.7M194.36 133.7L216.87 134.65M216.87 134.65L238.9 139.4M238.9 139.4L259.81 147.8M259.81 147.8L278.99 159.62M278.99 159.62L295.91 174.5M295.91 174.5L310.06 192.03M310.06 192.03L321.05 211.7M321.05 211.7L328.56 232.95M328.56 232.95L332.37 255.16M332.37 255.16L332.37 277.69M332.37 277.69L328.56 299.9M328.56 299.9L321.05 321.14M321.05 321.14L310.06 340.81M310.06 340.81L295.91 358.34M295.91 358.34L278.99 373.23M278.99 373.23L259.81 385.04M259.81 385.04L238.9 393.44M238.9 393.44L216.87 398.19M216.87 398.19L194.36 399.15M194.36 399.15L172.01 396.29M172.01 396.29L150.47 389.69M150.47 389.69L130.35 379.54M130.35 379.54L112.23 366.14M112.23 366.14L96.64 349.88M96.64 349.88L84.02 331.21M84.02 331.21L74.74 310.68M74.74 310.68L69.07 288.87M69.07 288.87L67.16 266.42"
fill="none" stroke="black" stroke-width="12"/>
</g>
</g>
</svg>
