<?xml version="1.0" standalone="no"?><svg xmlns="http://www.w3.org/2000/svg" width="400.000" height="400.000" viewBox="0.0 0.0 400.000 400.000" version="1.1">
  <title>Produce by Acme CAD Converter</title>
  <desc>Produce by Acme CAD Converter</desc>
<g id="0" display="visible">
<g><path d="M80.44 160.15L82.35 140.71M82.35 140.71L88.02 122.02M88.02 122.02L97.23 104.79M97.23 104.79L109.62 89.7M109.62 89.7L124.72 77.3M124.72 77.3L141.95 68.1M141.95 68.1L160.64 62.43M160.64 62.43L180.07 60.51M180.07 60.51L199.51 62.43M199.51 62.43L218.2 68.1M218.2 68.1L235.43 77.3M235.43 77.3L250.52 89.7M250.52 89.7L262.92 104.79M262.92 104.79L272.12 122.02M272.12 122.02L277.79 140.71M277.79 140.71L279.71 160.15M279.71 160.15L277.79 179.58M277.79 179.58L272.12 198.27M272.12 198.27L262.92 215.5M262.92 215.5L250.52 230.6M250.52 230.6L235.43 242.99M235.43 242.99L218.2 252.2M218.2 252.2L199.51 257.87M199.51 257.87L180.07 259.78M180.07 259.78L160.64 257.87M160.64 257.87L141.95 252.2M141.95 252.2L124.72 242.99M124.72 242.99L109.62 230.6M109.62 230.6L97.23 215.5M97.23 215.5L88.02 198.27M88.02 198.27L82.35 179.58M82.35 179.58L80.44 160.15"
fill="none" stroke="black" stroke-width="9"/>
</g>
<g><path d="M180.07 60.51L180.07 0.73"
fill="none" stroke="black" stroke-width="9"/>
</g>
<g><path d="M80.44 299.63L82.35 280.2M82.35 280.2L88.02 261.51M88.02 261.51L97.23 244.28M97.23 244.28L109.62 229.18M109.62 229.18L124.72 216.79M124.72 216.79L141.95 207.58M141.95 207.58L160.64 201.91M160.64 201.91L180.07 200M180.07 200L199.51 201.91M199.51 201.91L218.2 207.58M218.2 207.58L235.43 216.79M235.43 216.79L250.52 229.18M250.52 229.18L262.92 244.28M262.92 244.28L272.12 261.51M272.12 261.51L277.79 280.2M277.79 280.2L279.71 299.63M279.71 299.63L277.79 319.07M277.79 319.07L272.12 337.76M272.12 337.76L262.92 354.99M262.92 354.99L250.52 370.08M250.52 370.08L235.43 382.48M235.43 382.48L218.2 391.68M218.2 391.68L199.51 397.35M199.51 397.35L180.07 399.27M180.07 399.27L160.64 397.35M160.64 397.35L141.95 391.68M141.95 391.68L124.72 382.48M124.72 382.48L109.62 370.08M109.62 370.08L97.23 354.99M97.23 354.99L88.02 337.76M88.02 337.76L82.35 319.07M82.35 319.07L80.44 299.63"
fill="none" stroke="black" stroke-width="9"/>
</g>
<g><path d="M200 229.89L201.91 210.45M201.91 210.45L207.58 191.76M207.58 191.76L216.79 174.54M216.79 174.54L229.18 159.44M229.18 159.44L244.28 147.05M244.28 147.05L261.51 137.84M261.51 137.84L280.2 132.17M280.2 132.17L299.63 130.26M299.63 130.26L319.07 132.17M319.07 132.17L337.76 137.84M337.76 137.84L354.99 147.05M354.99 147.05L370.08 159.44M370.08 159.44L382.48 174.54M382.48 174.54L391.68 191.76M391.68 191.76L397.35 210.45M397.35 210.45L399.27 229.89M399.27 229.89L397.35 249.33M397.35 249.33L391.68 268.02M391.68 268.02L382.48 285.24M382.48 285.24L370.08 300.34M370.08 300.34L354.99 312.73M354.99 312.73L337.76 321.94M337.76 321.94L319.07 327.61M319.07 327.61L299.63 329.52M299.63 329.52L280.2 327.61M280.2 327.61L261.51 321.94M261.51 321.94L244.28 312.73M244.28 312.73L229.18 300.34M229.18 300.34L216.79 285.24M216.79 285.24L207.58 268.02M207.58 268.02L201.91 249.33M201.91 249.33L200 229.89"
fill="none" stroke="black" stroke-width="9"/>
</g>
<g><path d="M40.59 160.15L180.07 160.15"
fill="none" stroke="black" stroke-width="9"/>
</g>
<g><path d="M40.59 209.96L40.59 110.33"
fill="none" stroke="black" stroke-width="9"/>
</g>
<g><path d="M20.66 190.04L20.66 130.26"
fill="none" stroke="black" stroke-width="9"/>
</g>
<g><path d="M0.73 170.11L0.73 150.18"
fill="none" stroke="black" stroke-width="9"/>
</g>
<g><path d="M80.44 160.15L40.59 160.15"
fill="none" stroke="black" stroke-width="9"/>
</g>
<g><path d="M180.07 160.15L180.07 100.37"
fill="none" stroke="black" stroke-width="9"/>
</g>
<g><path d="M180.07 160.15L231.84 190.04"
fill="none" stroke="black" stroke-width="9"/>
</g>
<g><path d="M180.07 160.15L128.3 190.04"
fill="none" stroke="black" stroke-width="9"/>
</g>
<g><path d="M180.07 299.63L180.07 239.85"
fill="none" stroke="black" stroke-width="9"/>
</g>
<g><path d="M180.07 299.63L231.84 329.52"
fill="none" stroke="black" stroke-width="9"/>
</g>
<g><path d="M180.07 299.63L128.3 329.52"
fill="none" stroke="black" stroke-width="9"/>
</g>
<g><path d="M319.56 269.74L247.86 269.74"
fill="none" stroke="black" stroke-width="9"/>
</g>
<g><path d="M247.86 269.74L299.63 180.07"
fill="none" stroke="black" stroke-width="9"/>
</g>
<g><path d="M299.63 180.07L351.4 269.74"
fill="none" stroke="black" stroke-width="9"/>
</g>
</g>
</svg>
