<?xml version="1.0" standalone="no"?><svg xmlns="http://www.w3.org/2000/svg" width="400.000" height="400.000" viewBox="0.0 0.0 400.000 400.000" version="1.1">
  <title>Produce by Acme CAD Converter</title>
  <desc>Produce by Acme CAD Converter</desc>
<g id="0" display="visible">
<g><path d="M113.8 273.94L392.3 273.94"
fill="none" stroke="black" stroke-width="12"/>
</g>
<g><path d="M308.75 273.94L197.35 329.64"
fill="none" stroke="black" stroke-width="12"/>
</g>
<g><path d="M197.35 329.64L197.35 218.24"
fill="none" stroke="black" stroke-width="12"/>
</g>
<g><path d="M197.35 218.24L308.75 273.94"
fill="none" stroke="black" stroke-width="12"/>
</g>
<g><path d="M308.75 329.64L308.75 218.24"
fill="none" stroke="black" stroke-width="12"/>
</g>
<g><path d="M126.06 178.14L7.7 59.78"
fill="none" stroke="black" stroke-width="12"/>
</g>
<g><path d="M126.06 178.14L51.42 134.97"
fill="none" stroke="black" stroke-width="12"/>
</g>
<g><path d="M126.06 178.14L82.61 103.22"
fill="none" stroke="black" stroke-width="12"/>
</g>
<g><path d="M185.1 119.1L66.74 0.73"
fill="none" stroke="black" stroke-width="12"/>
</g>
<g><path d="M185.1 119.1L110.18 75.65"
fill="none" stroke="black" stroke-width="12"/>
</g>
<g><path d="M185.1 119.1L141.93 44.46"
fill="none" stroke="black" stroke-width="12"/>
</g>
<g><path d="M113.8 273.94L113.8 273.94"
fill="none" stroke="black" stroke-width=".5"/>
</g>
<g><path d="M392.3 273.94L392.3 273.94"
fill="none" stroke="black" stroke-width=".5"/>
</g>
<g><path d="M127.73 273.94L129.63 252.18M129.63 252.18L135.29 231.08M135.29 231.08L144.52 211.28M144.52 211.28L157.05 193.38M157.05 193.38L172.5 177.94M172.5 177.94L190.39 165.41M190.39 165.41L210.19 156.17M210.19 156.17L231.29 150.52M231.29 150.52L253.05 148.62M253.05 148.62L274.82 150.52M274.82 150.52L295.92 156.17M295.92 156.17L315.72 165.41M315.72 165.41L333.61 177.94M333.61 177.94L349.06 193.38M349.06 193.38L361.59 211.28M361.59 211.28L370.82 231.08M370.82 231.08L376.48 252.18M376.48 252.18L378.38 273.94M378.38 273.94L376.48 295.7M376.48 295.7L370.82 316.81M370.82 316.81L361.59 336.6M361.59 336.6L349.06 354.5M349.06 354.5L333.61 369.95M333.61 369.95L315.72 382.48M315.72 382.48L295.92 391.71M295.92 391.71L274.82 397.36M274.82 397.36L253.05 399.27M253.05 399.27L231.29 397.36M231.29 397.36L210.19 391.71M210.19 391.71L190.39 382.48M190.39 382.48L172.5 369.95M172.5 369.95L157.05 354.5M157.05 354.5L144.52 336.6M144.52 336.6L135.29 316.81M135.29 316.81L129.63 295.7M129.63 295.7L127.73 273.94"
fill="none" stroke="black" stroke-width="12"/>
</g>
<g><path d="M113.8 273.94L113.8 273.94"
fill="none" stroke="black" stroke-width=".5"/>
</g>
</g>
</svg>
