<?xml version="1.0" standalone="no"?><svg xmlns="http://www.w3.org/2000/svg" width="400.000" height="400.000" viewBox="0.0 0.0 400.000 400.000" version="1.1">
  <title>Produce by Acme CAD Converter</title>
  <desc>Produce by Acme CAD Converter</desc>
<g id="0" display="visible">
<g><path d="M111.51 261.43L399.27 261.43"
fill="none" stroke="black" stroke-width="12"/>
</g>
<g><path d="M312.94 261.43L197.84 318.99"
fill="none" stroke="black" stroke-width="12"/>
</g>
<g><path d="M197.84 318.99L197.84 203.88"
fill="none" stroke="black" stroke-width="12"/>
</g>
<g><path d="M197.84 203.88L312.94 261.43"
fill="none" stroke="black" stroke-width="12"/>
</g>
<g><path d="M312.94 318.99L312.94 203.88"
fill="none" stroke="black" stroke-width="12"/>
</g>
<g><path d="M125.9 261.43L127.87 238.95M127.87 238.95L133.71 217.15M133.71 217.15L143.25 196.69M143.25 196.69L156.19 178.2M156.19 178.2L172.15 162.24M172.15 162.24L190.64 149.29M190.64 149.29L211.1 139.75M211.1 139.75L232.9 133.91M232.9 133.91L255.39 131.95M255.39 131.95L277.87 133.91M277.87 133.91L299.68 139.75M299.68 139.75L320.13 149.29M320.13 149.29L338.62 162.24M338.62 162.24L354.58 178.2M354.58 178.2L367.53 196.69M367.53 196.69L377.07 217.15M377.07 217.15L382.91 238.95M382.91 238.95L384.88 261.43M384.88 261.43L382.91 283.92M382.91 283.92L377.07 305.72M377.07 305.72L367.53 326.18M367.53 326.18L354.58 344.67M354.58 344.67L338.62 360.63M338.62 360.63L320.13 373.58M320.13 373.58L299.68 383.12M299.68 383.12L277.87 388.96M277.87 388.96L255.39 390.92M255.39 390.92L232.9 388.96M232.9 388.96L211.1 383.12M211.1 383.12L190.64 373.58M190.64 373.58L172.15 360.63M172.15 360.63L156.19 344.67M156.19 344.67L143.25 326.18M143.25 326.18L133.71 305.72M133.71 305.72L127.87 283.92M127.87 283.92L125.9 261.43"
fill="none" stroke="black" stroke-width="12"/>
</g>
<g><path d="M123.76 192.01L0.73 70.44"
fill="none" stroke="black" stroke-width="12"/>
</g>
<g><path d="M45.79 147.29L0.73 70.44"
fill="none" stroke="black" stroke-width="12"/>
</g>
<g><path d="M0.74 70.73L78.12 114.58"
fill="none" stroke="black" stroke-width="12"/>
</g>
<g><path d="M184.4 130.64L61.37 9.08"
fill="none" stroke="black" stroke-width="12"/>
</g>
<g><path d="M106.43 85.93L61.37 9.08"
fill="none" stroke="black" stroke-width="12"/>
</g>
<g><path d="M61.37 9.08L138.64 53.22"
fill="none" stroke="black" stroke-width="12"/>
</g>
</g>
</svg>
