<?xml version="1.0" standalone="no"?><svg xmlns="http://www.w3.org/2000/svg" width="400.000" height="400.000" viewBox="0.0 0.0 400.000 400.000" version="1.1">
  <title>Produce by Acme CAD Converter</title>
  <desc>Produce by Acme CAD Converter</desc>
<g id="0" display="visible">
<g><path d="M349.45 299.63L362.34 297.94M362.34 297.94L374.36 292.96M374.36 292.96L384.68 285.04M384.68 285.04L392.59 274.72M392.59 274.72L397.57 262.71M397.57 262.71L399.27 249.82M399.27 249.82L399.27 150.18M399.27 150.18L399.27 150.18M399.27 150.18L397.57 137.29M397.57 137.29L392.59 125.28M392.59 125.28L384.68 114.96M384.68 114.96L374.36 107.04M374.36 107.04L362.34 102.06M362.34 102.06L349.45 100.37M349.45 100.37L50.55 100.37M50.55 100.37L50.55 100.37M50.55 100.37L37.66 102.06M37.66 102.06L25.64 107.04M25.64 107.04L15.32 114.96M15.32 114.96L7.41 125.28M7.41 125.28L2.43 137.29M2.43 137.29L0.73 150.18M0.73 150.18L0.73 249.82M0.73 249.82L0.73 249.82M0.73 249.82L2.43 262.71M2.43 262.71L7.41 274.72M7.41 274.72L15.32 285.04M15.32 285.04L25.64 292.96M25.64 292.96L37.66 297.94M37.66 297.94L50.55 299.63M50.55 299.63L349.45 299.63"
fill="none" stroke="black" stroke-width="12"/>
</g>
</g>
</svg>
