<?xml version="1.0" standalone="no"?><svg xmlns="http://www.w3.org/2000/svg" width="400.000" height="400.000" viewBox="0.0 0.0 400.000 400.000" version="1.1">
  <title>Produce by Acme CAD Converter</title>
  <desc>Produce by Acme CAD Converter</desc>
<g id="0" display="visible">
<g><path d="M332.84 399.27L347.62 397.6M347.62 397.6L361.66 392.69M361.66 392.69L374.26 384.78M374.26 384.78L384.78 374.26M384.78 374.26L392.69 361.66M392.69 361.66L397.6 347.62M397.6 347.62L399.27 332.84M399.27 332.84L399.27 67.16M399.27 67.16L399.27 67.16M399.27 67.16L397.6 52.38M397.6 52.38L392.69 38.34M392.69 38.34L384.78 25.74M384.78 25.74L374.26 15.22M374.26 15.22L361.66 7.31M361.66 7.31L347.62 2.4M347.62 2.4L332.84 0.73M332.84 0.73L67.16 0.73M67.16 0.73L67.16 0.73M67.16 0.73L52.38 2.4M52.38 2.4L38.34 7.31M38.34 7.31L25.74 15.22M25.74 15.22L15.22 25.74M15.22 25.74L7.31 38.34M7.31 38.34L2.4 52.38M2.4 52.38L0.73 67.16M0.73 67.16L0.73 332.84M0.73 332.84L0.73 332.84M0.73 332.84L2.4 347.62M2.4 347.62L7.31 361.66M7.31 361.66L15.22 374.26M15.22 374.26L25.74 384.78M25.74 384.78L38.34 392.69M38.34 392.69L52.38 397.6M52.38 397.6L67.16 399.27M67.16 399.27L332.84 399.27"
fill="none" stroke="black" stroke-width="12"/>
</g>
</g>
</svg>
