<?xml version="1.0" standalone="no"?><svg xmlns="http://www.w3.org/2000/svg" width="400.000" height="400.000" viewBox="0.0 0.0 400.000 400.000" version="1.1">
  <title>Produce by Acme CAD Converter</title>
  <desc>Produce by Acme CAD Converter</desc>
<g id="0" display="visible">
<g><path d="M108.91 148.76L99.91 165.4M99.91 165.4L94.12 183.4M94.12 183.4L91.73 202.16M91.73 202.16L92.82 221.04M92.82 221.04L97.36 239.4M97.36 239.4L105.19 256.62M105.19 256.62L116.05 272.1M116.05 272.1L129.56 285.33M129.56 285.33L145.27 295.86M145.27 295.86L162.65 303.33M162.65 303.33L181.1 307.48M181.1 307.48L200 308.17"
fill="none" stroke="black" stroke-width="3"/>
</g>
<g><path d="M108.91 148.76L200 0.73"
fill="none" stroke="black" stroke-width="3"/>
</g>
<g><path d="M200 0.73L291.09 148.76"
fill="none" stroke="black" stroke-width="3"/>
</g>
<g><path d="M200 308.17L218.9 307.48M218.9 307.48L237.35 303.33M237.35 303.33L254.73 295.86M254.73 295.86L270.44 285.33M270.44 285.33L283.95 272.1M283.95 272.1L294.81 256.62M294.81 256.62L302.64 239.4M302.64 239.4L307.18 221.04M307.18 221.04L308.27 202.16M308.27 202.16L305.88 183.4M305.88 183.4L300.09 165.4M300.09 165.4L291.09 148.76"
fill="none" stroke="black" stroke-width="3"/>
</g>
<g><path d="M200 308.17L200 399.27"
fill="none" stroke="black" stroke-width="3"/>
</g>
<g><path d="M200 399.27L268.32 399.27"
fill="none" stroke="black" stroke-width="3"/>
</g>
</g>
</svg>
