<?xml version="1.0" standalone="no"?><svg xmlns="http://www.w3.org/2000/svg" width="400.000" height="400.000" viewBox="0.0 0.0 400.000 400.000" version="1.1">
  <title>Produce by Acme CAD Converter</title>
  <desc>Produce by Acme CAD Converter</desc>
<g id="0" display="visible">
<g><path d="M150.15 246.73L152 233.28M152 233.28L157.41 220.83M157.41 220.83L165.98 210.3M165.98 210.3L177.07 202.47M177.07 202.47L189.86 197.93M189.86 197.93L203.4 197M203.4 197L216.69 199.76M216.69 199.76L228.75 206.01M228.75 206.01L238.67 215.27M238.67 215.27L245.72 226.87M245.72 226.87L249.38 239.94M249.38 239.94L249.38 253.52M249.38 253.52L245.72 266.59M245.72 266.59L238.67 278.19M238.67 278.19L228.75 287.45M228.75 287.45L216.69 293.7M216.69 293.7L203.4 296.46M203.4 296.46L189.86 295.54M189.86 295.54L177.07 290.99M177.07 290.99L165.98 283.16M165.98 283.16L157.41 272.63M157.41 272.63L152 260.18M152 260.18L150.15 246.73"
fill="none" stroke="black" stroke-width="3"/>
</g>
<g><path d="M162.62 59.81L164.44 48.25M164.44 48.25L169.75 37.83M169.75 37.83L178.03 29.56M178.03 29.56L188.45 24.25M188.45 24.25L200 22.42M200 22.42L211.55 24.25M211.55 24.25L221.97 29.56M221.97 29.56L230.25 37.83M230.25 37.83L235.56 48.25M235.56 48.25L237.38 59.81M237.38 59.81L235.56 71.36M235.56 71.36L230.25 81.78M230.25 81.78L221.97 90.05M221.97 90.05L211.55 95.36M211.55 95.36L200 97.19M200 97.19L188.45 95.36M188.45 95.36L178.03 90.05M178.03 90.05L169.75 81.78M169.75 81.78L164.44 71.36M164.44 71.36L162.62 59.81"
fill="none" stroke="black" stroke-width="3"/>
</g>
<g><path d="M0.73 340.19L2.56 328.64M2.56 328.64L7.87 318.22M7.87 318.22L16.14 309.95M16.14 309.95L26.57 304.64M26.57 304.64L38.12 302.81M38.12 302.81L49.67 304.64M49.67 304.64L60.09 309.95M60.09 309.95L68.36 318.22M68.36 318.22L73.67 328.64M73.67 328.64L75.5 340.19M75.5 340.19L73.67 351.75M73.67 351.75L68.36 362.17M68.36 362.17L60.09 370.44M60.09 370.44L49.67 375.75M49.67 375.75L38.12 377.58M38.12 377.58L26.57 375.75M26.57 375.75L16.14 370.44M16.14 370.44L7.87 362.17M7.87 362.17L2.56 351.75M2.56 351.75L0.73 340.19"
fill="none" stroke="black" stroke-width="3"/>
</g>
<g><path d="M324.5 340.19L326.33 328.64M326.33 328.64L331.64 318.22M331.64 318.22L339.91 309.95M339.91 309.95L350.33 304.64M350.33 304.64L361.88 302.81M361.88 302.81L373.43 304.64M373.43 304.64L383.86 309.95M383.86 309.95L392.13 318.22M392.13 318.22L397.44 328.64M397.44 328.64L399.27 340.19M399.27 340.19L397.44 351.75M397.44 351.75L392.13 362.17M392.13 362.17L383.86 370.44M383.86 370.44L373.43 375.75M373.43 375.75L361.88 377.58M361.88 377.58L350.33 375.75M350.33 375.75L339.91 370.44M339.91 370.44L331.64 362.17M331.64 362.17L326.33 351.75M326.33 351.75L324.5 340.19"
fill="none" stroke="black" stroke-width="3"/>
</g>
</g>
</svg>
