<?xml version="1.0" standalone="no"?><svg xmlns="http://www.w3.org/2000/svg" width="400.000" height="400.000" viewBox="0.0 0.0 400.000 400.000" version="1.1">
  <title>Produce by Acme CAD Converter</title>
  <desc>Produce by Acme CAD Converter</desc>
<g id="0" display="visible">
<g><path d="M2.25 365.35L2.25 355.36 0.73 358.49 2.25 365.35Z"
fill-rule="evenodd" fill="black"/>
<path d="M2.25 365.35L6.91 369.15 2.25 355.36 2.25 365.35Z"
fill-rule="evenodd" fill="black"/>
<path d="M6.91 369.15L6.91 345.74 2.25 355.36 6.91 369.15Z"
fill-rule="evenodd" fill="black"/>
<path d="M6.91 369.15L13.23 374.31 6.91 345.74 6.91 369.15Z"
fill-rule="evenodd" fill="black"/>
<path d="M13.23 374.31L13.23 344.34 6.91 345.74 13.23 374.31Z"
fill-rule="evenodd" fill="black"/>
<path d="M13.23 374.31L20.75 372.64 13.23 344.34 13.23 374.31Z"
fill-rule="evenodd" fill="black"/>
<path d="M20.75 372.64L20.75 342.68 13.23 344.34 20.75 372.64Z"
fill-rule="evenodd" fill="black"/>
<path d="M20.75 372.64L27.07 371.25 20.75 342.68 20.75 372.64Z"
fill-rule="evenodd" fill="black"/>
<path d="M27.07 371.25L27.07 347.83 20.75 342.68 27.07 371.25Z"
fill-rule="evenodd" fill="black"/>
<path d="M27.07 371.25L31.73 361.62 27.07 347.83 27.07 371.25Z"
fill-rule="evenodd" fill="black"/>
<path d="M31.73 361.62L31.73 351.64 27.07 347.83 31.73 361.62Z"
fill-rule="evenodd" fill="black"/>
<path d="M31.73 361.62L33.24 358.49 31.73 351.64 31.73 361.62Z"
fill-rule="evenodd" fill="black"/>
<path d="M72.31 318.49L72.31 303.5 70.03 313.79 72.31 318.49Z"
fill-rule="evenodd" fill="black"/>
<path d="M72.31 318.49L79.3 332.92 72.31 303.5 72.31 318.49Z"
fill-rule="evenodd" fill="black"/>
<path d="M79.3 332.92L79.3 297.8 72.31 303.5 79.3 332.92Z"
fill-rule="evenodd" fill="black"/>
<path d="M79.3 332.92L88.78 335.02 79.3 297.8 79.3 332.92Z"
fill-rule="evenodd" fill="black"/>
<path d="M88.78 335.02L88.78 290.07 79.3 297.8 88.78 335.02Z"
fill-rule="evenodd" fill="black"/>
<path d="M88.78 335.02L100.05 337.51 88.78 290.07 88.78 335.02Z"
fill-rule="evenodd" fill="black"/>
<path d="M100.05 337.51L100.05 292.56 88.78 290.07 100.05 337.51Z"
fill-rule="evenodd" fill="black"/>
<path d="M100.05 337.51L109.53 329.78 100.05 292.56 100.05 337.51Z"
fill-rule="evenodd" fill="black"/>
<path d="M109.53 329.78L109.53 294.66 100.05 292.56 109.53 329.78Z"
fill-rule="evenodd" fill="black"/>
<path d="M109.53 329.78L116.52 324.07 109.53 294.66 109.53 329.78Z"
fill-rule="evenodd" fill="black"/>
<path d="M116.52 324.07L116.52 309.09 109.53 294.66 116.52 324.07Z"
fill-rule="evenodd" fill="black"/>
<path d="M116.52 324.07L118.8 313.79 116.52 309.09 116.52 324.07Z"
fill-rule="evenodd" fill="black"/>
<path d="M177.89 141.2L177.89 126.22 175.62 130.91 177.89 141.2Z"
fill-rule="evenodd" fill="black"/>
<path d="M177.89 141.2L183.74 145.97 177.89 126.22 177.89 141.2Z"
fill-rule="evenodd" fill="black"/>
<path d="M183.74 145.97L183.74 114.13 177.89 126.22 183.74 145.97Z"
fill-rule="evenodd" fill="black"/>
<path d="M183.74 145.97L184.88 146.9 183.74 114.13 183.74 145.97Z"
fill-rule="evenodd" fill="black"/>
<path d="M184.88 146.9L184.88 111.78 183.74 114.13 184.88 146.9Z"
fill-rule="evenodd" fill="black"/>
<path d="M184.88 46.65L184.88 39.16 183.74 41.51 184.88 46.65Z"
fill-rule="evenodd" fill="black"/>
<path d="M184.88 146.9L185.26 147.21 184.88 111.78 184.88 146.9Z"
fill-rule="evenodd" fill="black"/>
<path d="M185.26 147.21L185.26 111.7 184.88 111.78 185.26 147.21Z"
fill-rule="evenodd" fill="black"/>
<path d="M184.88 46.65L185.26 48.36 184.88 39.16 184.88 46.65Z"
fill-rule="evenodd" fill="black"/>
<path d="M185.26 48.36L185.26 38.38 184.88 39.16 185.26 48.36Z"
fill-rule="evenodd" fill="black"/>
<path d="M185.26 147.21L189.92 151.01 185.26 111.7 185.26 147.21Z"
fill-rule="evenodd" fill="black"/>
<path d="M189.92 151.01L189.92 110.67 185.26 111.7 189.92 151.01Z"
fill-rule="evenodd" fill="black"/>
<path d="M185.26 48.36L189.92 52.17 185.26 38.38 185.26 48.36Z"
fill-rule="evenodd" fill="black"/>
<path d="M189.92 52.17L189.92 28.75 185.26 38.38 189.92 52.17Z"
fill-rule="evenodd" fill="black"/>
<path d="M189.92 151.01L194.36 154.64 189.92 110.67 189.92 151.01Z"
fill-rule="evenodd" fill="black"/>
<path d="M194.36 154.64L194.36 109.69 189.92 110.67 194.36 154.64Z"
fill-rule="evenodd" fill="black"/>
<path d="M189.92 52.17L194.36 55.79 189.92 28.75 189.92 52.17Z"
fill-rule="evenodd" fill="black"/>
<path d="M194.36 55.79L194.36 27.77 189.92 28.75 194.36 55.79Z"
fill-rule="evenodd" fill="black"/>
<path d="M194.36 154.64L196.24 154.22 194.36 109.69 194.36 154.64Z"
fill-rule="evenodd" fill="black"/>
<path d="M196.24 154.22L196.24 109.27 194.36 109.69 196.24 154.22Z"
fill-rule="evenodd" fill="black"/>
<path d="M194.36 55.79L196.24 57.32 194.36 27.77 194.36 55.79Z"
fill-rule="evenodd" fill="black"/>
<path d="M196.24 57.32L196.24 27.36 194.36 27.77 196.24 57.32Z"
fill-rule="evenodd" fill="black"/>
<path d="M196.24 154.22L203.76 152.56 196.24 109.27 196.24 154.22Z"
fill-rule="evenodd" fill="black"/>
<path d="M203.76 152.56L203.76 107.61 196.24 109.27 203.76 152.56Z"
fill-rule="evenodd" fill="black"/>
<path d="M196.24 57.32L203.76 55.66 196.24 27.36 196.24 57.32Z"
fill-rule="evenodd" fill="black"/>
<path d="M203.76 55.66L203.76 25.69 196.24 27.36 203.76 55.66Z"
fill-rule="evenodd" fill="black"/>
<path d="M203.76 152.56L205.64 152.14 203.76 107.61 203.76 152.56Z"
fill-rule="evenodd" fill="black"/>
<path d="M205.64 152.14L205.64 107.19 203.76 107.61 205.64 152.14Z"
fill-rule="evenodd" fill="black"/>
<path d="M203.76 55.66L205.64 55.24 203.76 25.69 203.76 55.66Z"
fill-rule="evenodd" fill="black"/>
<path d="M205.64 55.24L205.64 27.23 203.76 25.69 205.64 55.24Z"
fill-rule="evenodd" fill="black"/>
<path d="M205.64 152.14L210.08 151.16 205.64 107.19 205.64 152.14Z"
fill-rule="evenodd" fill="black"/>
<path d="M210.08 151.16L210.08 110.81 205.64 107.19 210.08 151.16Z"
fill-rule="evenodd" fill="black"/>
<path d="M205.64 55.24L210.08 54.26 205.64 27.23 205.64 55.24Z"
fill-rule="evenodd" fill="black"/>
<path d="M210.08 54.26L210.08 30.85 205.64 27.23 210.08 54.26Z"
fill-rule="evenodd" fill="black"/>
<path d="M210.08 151.16L214.74 150.13 210.08 110.81 210.08 151.16Z"
fill-rule="evenodd" fill="black"/>
<path d="M214.74 150.13L214.74 114.62 210.08 110.81 214.74 150.13Z"
fill-rule="evenodd" fill="black"/>
<path d="M210.08 54.26L214.74 44.64 210.08 30.85 210.08 54.26Z"
fill-rule="evenodd" fill="black"/>
<path d="M214.74 44.64L214.74 34.65 210.08 30.85 214.74 44.64Z"
fill-rule="evenodd" fill="black"/>
<path d="M214.74 150.13L215.12 150.04 214.74 114.62 214.74 150.13Z"
fill-rule="evenodd" fill="black"/>
<path d="M215.12 150.04L215.12 114.93 214.74 114.62 215.12 150.04Z"
fill-rule="evenodd" fill="black"/>
<path d="M214.74 44.64L215.12 43.86 214.74 34.65 214.74 44.64Z"
fill-rule="evenodd" fill="black"/>
<path d="M215.12 43.86L215.12 36.36 214.74 34.65 215.12 43.86Z"
fill-rule="evenodd" fill="black"/>
<path d="M215.12 150.04L216.26 147.7 215.12 114.93 215.12 150.04Z"
fill-rule="evenodd" fill="black"/>
<path d="M216.26 147.7L216.26 115.85 215.12 114.93 216.26 147.7Z"
fill-rule="evenodd" fill="black"/>
<path d="M215.12 43.86L216.26 41.51 215.12 36.36 215.12 43.86Z"
fill-rule="evenodd" fill="black"/>
<path d="M216.26 147.7L222.11 135.61 216.26 115.85 216.26 147.7Z"
fill-rule="evenodd" fill="black"/>
<path d="M222.11 135.61L222.11 120.63 216.26 115.85 222.11 135.61Z"
fill-rule="evenodd" fill="black"/>
<path d="M222.11 135.61L224.38 130.91 222.11 120.63 222.11 135.61Z"
fill-rule="evenodd" fill="black"/>
<path d="M283.48 324.07L283.48 309.09 281.2 313.79 283.48 324.07Z"
fill-rule="evenodd" fill="black"/>
<path d="M283.48 324.07L290.47 329.78 283.48 309.09 283.48 324.07Z"
fill-rule="evenodd" fill="black"/>
<path d="M290.47 329.78L290.47 294.66 283.48 309.09 290.47 329.78Z"
fill-rule="evenodd" fill="black"/>
<path d="M290.47 329.78L299.95 337.51 290.47 294.66 290.47 329.78Z"
fill-rule="evenodd" fill="black"/>
<path d="M299.95 337.51L299.95 292.56 290.47 294.66 299.95 337.51Z"
fill-rule="evenodd" fill="black"/>
<path d="M299.95 337.51L311.22 335.02 299.95 292.56 299.95 337.51Z"
fill-rule="evenodd" fill="black"/>
<path d="M311.22 335.02L311.22 290.07 299.95 292.56 311.22 335.02Z"
fill-rule="evenodd" fill="black"/>
<path d="M311.22 335.02L320.7 332.92 311.22 290.07 311.22 335.02Z"
fill-rule="evenodd" fill="black"/>
<path d="M320.7 332.92L320.7 297.8 311.22 290.07 320.7 332.92Z"
fill-rule="evenodd" fill="black"/>
<path d="M320.7 332.92L327.69 318.49 320.7 297.8 320.7 332.92Z"
fill-rule="evenodd" fill="black"/>
<path d="M327.69 318.49L327.69 303.5 320.7 297.8 327.69 318.49Z"
fill-rule="evenodd" fill="black"/>
<path d="M327.69 318.49L329.97 313.79 327.69 303.5 327.69 318.49Z"
fill-rule="evenodd" fill="black"/>
<path d="M368.27 365.35L368.27 355.36 366.76 358.49 368.27 365.35Z"
fill-rule="evenodd" fill="black"/>
<path d="M368.27 365.35L372.93 369.15 368.27 355.36 368.27 365.35Z"
fill-rule="evenodd" fill="black"/>
<path d="M372.93 369.15L372.93 345.74 368.27 355.36 372.93 369.15Z"
fill-rule="evenodd" fill="black"/>
<path d="M372.93 369.15L379.25 374.31 372.93 345.74 372.93 369.15Z"
fill-rule="evenodd" fill="black"/>
<path d="M379.25 374.31L379.25 344.34 372.93 345.74 379.25 374.31Z"
fill-rule="evenodd" fill="black"/>
<path d="M379.25 374.31L386.77 372.64 379.25 344.34 379.25 374.31Z"
fill-rule="evenodd" fill="black"/>
<path d="M386.77 372.64L386.77 342.68 379.25 344.34 386.77 372.64Z"
fill-rule="evenodd" fill="black"/>
<path d="M386.77 372.64L393.09 371.25 386.77 342.68 386.77 372.64Z"
fill-rule="evenodd" fill="black"/>
<path d="M393.09 371.25L393.09 347.83 386.77 342.68 393.09 371.25Z"
fill-rule="evenodd" fill="black"/>
<path d="M393.09 371.25L397.75 361.62 393.09 347.83 393.09 371.25Z"
fill-rule="evenodd" fill="black"/>
<path d="M397.75 361.62L397.75 351.64 393.09 347.83 397.75 361.62Z"
fill-rule="evenodd" fill="black"/>
<path d="M397.75 361.62L399.27 358.49 397.75 351.64 397.75 361.62Z"
fill-rule="evenodd" fill="black"/>
</g>
<g><path d="M167.49 252.83L169.45 241.71M169.45 241.71L175.09 231.93M175.09 231.93L183.74 224.68M183.74 224.68L194.35 220.81M194.35 220.81L205.65 220.81M205.65 220.81L216.26 224.68M216.26 224.68L224.91 231.93M224.91 231.93L230.55 241.71M230.55 241.71L232.51 252.83M232.51 252.83L230.55 263.95M230.55 263.95L224.91 273.73M224.91 273.73L216.26 280.99M216.26 280.99L205.65 284.85M205.65 284.85L194.35 284.85M194.35 284.85L183.74 280.99M183.74 280.99L175.09 273.73M175.09 273.73L169.45 263.95M169.45 263.95L167.49 252.83"
fill="none" stroke="black" stroke-width="3"/>
</g>
<g><path d="M70.03 313.79L71.89 304.46M71.89 304.46L77.17 296.55M77.17 296.55L85.09 291.26M85.09 291.26L94.42 289.41M94.42 289.41L103.75 291.26M103.75 291.26L111.66 296.55M111.66 296.55L116.94 304.46M116.94 304.46L118.8 313.79M118.8 313.79L116.94 323.12M116.94 323.12L111.66 331.03M111.66 331.03L103.75 336.32M103.75 336.32L94.42 338.17M94.42 338.17L85.09 336.32M85.09 336.32L77.17 331.03M77.17 331.03L71.89 323.12M71.89 323.12L70.03 313.79"
fill="none" stroke="black" stroke-width="3"/>
</g>
<g><path d="M0.73 358.49L2.6 350.94M2.6 350.94L7.75 345.11M7.75 345.11L15.03 342.36M15.03 342.36L22.75 343.29M22.75 343.29L29.16 347.71M29.16 347.71L32.77 354.6M32.77 354.6L32.77 362.38M32.77 362.38L29.16 369.27M29.16 369.27L22.75 373.69M22.75 373.69L15.03 374.63M15.03 374.63L7.75 371.87M7.75 371.87L2.6 366.05M2.6 366.05L0.73 358.49"
fill="none" stroke="black" stroke-width="3"/>
</g>
<g><path d="M183.74 41.51L185.61 33.95M185.61 33.95L190.77 28.13M190.77 28.13L198.04 25.37M198.04 25.37L205.76 26.31M205.76 26.31L212.17 30.73M212.17 30.73L215.78 37.62M215.78 37.62L215.78 45.4M215.78 45.4L212.17 52.29M212.17 52.29L205.76 56.71M205.76 56.71L198.04 57.64M198.04 57.64L190.77 54.89M190.77 54.89L185.61 49.06M185.61 49.06L183.74 41.51"
fill="none" stroke="black" stroke-width="3"/>
</g>
<g><path d="M175.62 130.91L177.47 121.58M177.47 121.58L182.76 113.67M182.76 113.67L190.67 108.39M190.67 108.39L200 106.53M200 106.53L209.33 108.39M209.33 108.39L217.24 113.67M217.24 113.67L222.53 121.58M222.53 121.58L224.38 130.91M224.38 130.91L222.53 140.24M222.53 140.24L217.24 148.16M217.24 148.16L209.33 153.44M209.33 153.44L200 155.3M200 155.3L190.67 153.44M190.67 153.44L182.76 148.16M182.76 148.16L177.47 140.24M177.47 140.24L175.62 130.91"
fill="none" stroke="black" stroke-width="3"/>
</g>
<g><path d="M366.76 358.49L368.62 350.94M368.62 350.94L373.78 345.11M373.78 345.11L381.05 342.36M381.05 342.36L388.78 343.29M388.78 343.29L395.18 347.71M395.18 347.71L398.79 354.6M398.79 354.6L398.79 362.38M398.79 362.38L395.18 369.27M395.18 369.27L388.78 373.69M388.78 373.69L381.05 374.63M381.05 374.63L373.78 371.87M373.78 371.87L368.62 366.05M368.62 366.05L366.76 358.49"
fill="none" stroke="black" stroke-width="3"/>
</g>
<g><path d="M281.2 313.79L283.06 304.46M283.06 304.46L288.34 296.55M288.34 296.55L296.25 291.26M296.25 291.26L305.58 289.41M305.58 289.41L314.91 291.26M314.91 291.26L322.83 296.55M322.83 296.55L328.11 304.46M328.11 304.46L329.97 313.79M329.97 313.79L328.11 323.12M328.11 323.12L322.83 331.03M322.83 331.03L314.91 336.32M314.91 336.32L305.58 338.17M305.58 338.17L296.25 336.32M296.25 336.32L288.34 331.03M288.34 331.03L283.06 323.12M283.06 323.12L281.2 313.79"
fill="none" stroke="black" stroke-width="3"/>
</g>
</g>
</svg>
