<?xml version="1.0" standalone="no"?><svg xmlns="http://www.w3.org/2000/svg" width="400.000" height="400.000" viewBox="0.0 0.0 400.000 400.000" version="1.1">
  <title>Produce by Acme CAD Converter</title>
  <desc>Produce by Acme CAD Converter</desc>
<g id="0" display="visible">
<g><path d="M335.31 71.61L335.31 41.94 332.83 53.15 335.31 71.61Z"
fill-rule="evenodd" fill="black"/>
<path d="M335.31 71.61L353.26 205.18 335.31 41.94 335.31 71.61Z"
fill-rule="evenodd" fill="black"/>
<path d="M353.26 205.18L353.26 27.3 335.31 41.94 353.26 205.18Z"
fill-rule="evenodd" fill="black"/>
<path d="M353.26 205.18L359.4 250.9 353.26 27.3 353.26 205.18Z"
fill-rule="evenodd" fill="black"/>
<path d="M359.4 250.9L359.4 28.66 353.26 27.3 359.4 250.9Z"
fill-rule="evenodd" fill="black"/>
<path d="M359.4 250.9L375.88 128.3 359.4 28.66 359.4 250.9Z"
fill-rule="evenodd" fill="black"/>
<path d="M375.88 128.3L375.88 32.3 359.4 28.66 375.88 128.3Z"
fill-rule="evenodd" fill="black"/>
<path d="M375.88 128.3L385.98 53.15 375.88 32.3 375.88 128.3Z"
fill-rule="evenodd" fill="black"/>
</g>
<g><path d="M4.45 366.3L4.45 341.81 0.73 349.49 4.45 366.3Z"
fill-rule="evenodd" fill="black"/>
<path d="M4.45 366.3L15.88 375.63 4.45 341.81 4.45 366.3Z"
fill-rule="evenodd" fill="black"/>
<path d="M15.88 375.63L15.88 318.21 4.45 341.81 15.88 375.63Z"
fill-rule="evenodd" fill="black"/>
<path d="M15.88 375.63L31.38 388.27 15.88 318.21 15.88 375.63Z"
fill-rule="evenodd" fill="black"/>
<path d="M31.38 388.27L31.38 314.78 15.88 318.21 31.38 388.27Z"
fill-rule="evenodd" fill="black"/>
<path d="M31.38 388.27L49.81 384.19 31.38 314.78 31.38 388.27Z"
fill-rule="evenodd" fill="black"/>
<path d="M49.81 384.19L49.81 310.7 31.38 314.78 49.81 384.19Z"
fill-rule="evenodd" fill="black"/>
<path d="M49.81 384.19L65.31 380.76 49.81 310.7 49.81 384.19Z"
fill-rule="evenodd" fill="black"/>
<path d="M65.31 380.76L65.31 323.35 49.81 310.7 65.31 380.76Z"
fill-rule="evenodd" fill="black"/>
<path d="M65.31 380.76L76.74 357.17 65.31 323.35 65.31 380.76Z"
fill-rule="evenodd" fill="black"/>
<path d="M76.74 357.17L76.74 332.67 65.31 323.35 76.74 357.17Z"
fill-rule="evenodd" fill="black"/>
<path d="M76.74 357.17L80.46 349.49 76.74 332.67 76.74 357.17Z"
fill-rule="evenodd" fill="black"/>
<path d="M177.07 67.33L177.07 42.83 173.35 50.51 177.07 67.33Z"
fill-rule="evenodd" fill="black"/>
<path d="M177.07 67.33L188.5 76.65 177.07 42.83 177.07 67.33Z"
fill-rule="evenodd" fill="black"/>
<path d="M188.5 76.65L188.5 19.24 177.07 42.83 188.5 76.65Z"
fill-rule="evenodd" fill="black"/>
<path d="M188.5 76.65L203.99 89.3 188.5 19.24 188.5 76.65Z"
fill-rule="evenodd" fill="black"/>
<path d="M203.99 89.3L203.99 15.81 188.5 19.24 203.99 89.3Z"
fill-rule="evenodd" fill="black"/>
<path d="M203.99 89.3L222.43 85.22 203.99 15.81 203.99 89.3Z"
fill-rule="evenodd" fill="black"/>
<path d="M222.43 85.22L222.43 11.73 203.99 15.81 222.43 85.22Z"
fill-rule="evenodd" fill="black"/>
<path d="M222.43 85.22L237.93 81.79 222.43 11.73 222.43 85.22Z"
fill-rule="evenodd" fill="black"/>
<path d="M237.93 81.79L237.93 24.37 222.43 11.73 237.93 81.79Z"
fill-rule="evenodd" fill="black"/>
<path d="M237.93 81.79L249.35 58.19 237.93 24.37 237.93 81.79Z"
fill-rule="evenodd" fill="black"/>
<path d="M249.35 58.19L249.35 33.7 237.93 24.37 249.35 58.19Z"
fill-rule="evenodd" fill="black"/>
<path d="M249.35 58.19L253.07 50.51 249.35 33.7 249.35 58.19Z"
fill-rule="evenodd" fill="black"/>
<path d="M323.26 347.44L323.26 322.94 319.54 330.62 323.26 347.44Z"
fill-rule="evenodd" fill="black"/>
<path d="M323.26 347.44L334.69 356.76 323.26 322.94 323.26 347.44Z"
fill-rule="evenodd" fill="black"/>
<path d="M334.69 356.76L334.69 299.35 323.26 322.94 334.69 356.76Z"
fill-rule="evenodd" fill="black"/>
<path d="M334.69 356.76L350.19 369.41 334.69 299.35 334.69 356.76Z"
fill-rule="evenodd" fill="black"/>
<path d="M350.19 369.41L350.19 295.92 334.69 299.35 350.19 369.41Z"
fill-rule="evenodd" fill="black"/>
<path d="M350.19 369.41L368.62 365.33 350.19 295.92 350.19 369.41Z"
fill-rule="evenodd" fill="black"/>
<path d="M368.62 365.33L368.62 291.84 350.19 295.92 368.62 365.33Z"
fill-rule="evenodd" fill="black"/>
<path d="M368.62 365.33L384.12 361.9 368.62 291.84 368.62 365.33Z"
fill-rule="evenodd" fill="black"/>
<path d="M384.12 361.9L384.12 304.49 368.62 291.84 384.12 361.9Z"
fill-rule="evenodd" fill="black"/>
<path d="M384.12 361.9L395.55 338.31 384.12 304.49 384.12 361.9Z"
fill-rule="evenodd" fill="black"/>
<path d="M395.55 338.31L395.55 313.81 384.12 304.49 395.55 338.31Z"
fill-rule="evenodd" fill="black"/>
<path d="M395.55 338.31L399.27 330.62 395.55 313.81 395.55 338.31Z"
fill-rule="evenodd" fill="black"/>
</g>
<g><path d="M160.06 249.83L162.03 235.49M162.03 235.49L167.8 222.21M167.8 222.21L176.93 210.98M176.93 210.98L188.76 202.64M188.76 202.64L202.4 197.79M202.4 197.79L216.84 196.8M216.84 196.8L231.01 199.75M231.01 199.75L243.86 206.41M243.86 206.41L254.44 216.29M254.44 216.29L261.96 228.65M261.96 228.65L265.87 242.59M265.87 242.59L265.87 257.07M265.87 257.07L261.96 271M261.96 271L254.44 283.37M254.44 283.37L243.86 293.25M243.86 293.25L231.01 299.91M231.01 299.91L216.84 302.86M216.84 302.86L202.4 301.87M202.4 301.87L188.76 297.02M188.76 297.02L176.93 288.67M176.93 288.67L167.8 277.45M167.8 277.45L162.03 264.17M162.03 264.17L160.06 249.83"
fill="none" stroke="black" stroke-width="3"/>
</g>
<g><path d="M173.35 50.51L175.3 38.19M175.3 38.19L180.96 27.08M180.96 27.08L189.78 18.26M189.78 18.26L200.89 12.6M200.89 12.6L213.21 10.65M213.21 10.65L225.53 12.6M225.53 12.6L236.64 18.26M236.64 18.26L245.46 27.08M245.46 27.08L251.12 38.19M251.12 38.19L253.07 50.51M253.07 50.51L251.12 62.83M251.12 62.83L245.46 73.94M245.46 73.94L236.64 82.76M236.64 82.76L225.53 88.42M225.53 88.42L213.21 90.38M213.21 90.38L200.89 88.42M200.89 88.42L189.78 82.76M189.78 82.76L180.96 73.94M180.96 73.94L175.3 62.83M175.3 62.83L173.35 50.51"
fill="none" stroke="black" stroke-width="3"/>
</g>
<g><path d="M0.73 349.49L2.68 337.17M2.68 337.17L8.35 326.06M8.35 326.06L17.17 317.24M17.17 317.24L28.28 311.58M28.28 311.58L40.6 309.62M40.6 309.62L52.92 311.58M52.92 311.58L64.03 317.24M64.03 317.24L72.85 326.06M72.85 326.06L78.51 337.17M78.51 337.17L80.46 349.49M80.46 349.49L78.51 361.81M78.51 361.81L72.85 372.92M72.85 372.92L64.03 381.74M64.03 381.74L52.92 387.4M52.92 387.4L40.6 389.35M40.6 389.35L28.28 387.4M28.28 387.4L17.17 381.74M17.17 381.74L8.35 372.92M8.35 372.92L2.68 361.81M2.68 361.81L0.73 349.49"
fill="none" stroke="black" stroke-width="3"/>
</g>
<g><path d="M319.54 330.62L321.49 318.31M321.49 318.31L327.15 307.19M327.15 307.19L335.97 298.37M335.97 298.37L347.08 292.71M347.08 292.71L359.4 290.76M359.4 290.76L371.72 292.71M371.72 292.71L382.83 298.37M382.83 298.37L391.65 307.19M391.65 307.19L397.32 318.31M397.32 318.31L399.27 330.62M399.27 330.62L397.32 342.94M397.32 342.94L391.65 354.06M391.65 354.06L382.83 362.88M382.83 362.88L371.72 368.54M371.72 368.54L359.4 370.49M359.4 370.49L347.08 368.54M347.08 368.54L335.97 362.88M335.97 362.88L327.15 354.06M327.15 354.06L321.49 342.94M321.49 342.94L319.54 330.62"
fill="none" stroke="black" stroke-width="3"/>
</g>
<g><path d="M332.83 53.15L359.4 250.9"
fill="none" stroke="black" stroke-width="3"/>
</g>
<g><path d="M359.4 250.9L385.98 53.15"
fill="none" stroke="black" stroke-width="3"/>
</g>
<g><path d="M385.98 53.15L384.38 44.07M384.38 44.07L379.76 36.07M379.76 36.07L372.69 30.14M372.69 30.14L364.02 26.98M364.02 26.98L354.79 26.98M354.79 26.98L346.12 30.14M346.12 30.14L339.05 36.07M339.05 36.07L334.43 44.07M334.43 44.07L332.83 53.15"
fill="none" stroke="black" stroke-width="3"/>
</g>
</g>
</svg>
