<?xml version="1.0" standalone="no"?><svg xmlns="http://www.w3.org/2000/svg" width="400.000" height="400.000" viewBox="0.0 0.0 400.000 400.000" version="1.1">
  <title>Produce by Acme CAD Converter</title>
  <desc>Produce by Acme CAD Converter</desc>
<g id="0" display="visible">
<g><path d="M5.38 221.01L5.38 190.4 0.73 200 5.38 221.01Z"
fill-rule="evenodd" fill="black"/>
<path d="M5.38 221.01L19.66 232.66 5.38 190.4 5.38 221.01Z"
fill-rule="evenodd" fill="black"/>
<path d="M19.66 232.66L19.66 160.91 5.38 190.4 19.66 232.66Z"
fill-rule="evenodd" fill="black"/>
<path d="M19.66 232.66L39.03 248.47 19.66 160.91 19.66 232.66Z"
fill-rule="evenodd" fill="black"/>
<path d="M39.03 248.47L39.03 156.63 19.66 160.91 39.03 248.47Z"
fill-rule="evenodd" fill="black"/>
<path d="M39.03 248.47L62.07 243.37 39.03 156.63 39.03 248.47Z"
fill-rule="evenodd" fill="black"/>
<path d="M62.07 243.37L62.07 151.53 39.03 156.63 62.07 243.37Z"
fill-rule="evenodd" fill="black"/>
<path d="M62.07 243.37L81.44 239.09 62.07 151.53 62.07 243.37Z"
fill-rule="evenodd" fill="black"/>
<path d="M81.44 239.09L81.44 167.34 62.07 151.53 81.44 239.09Z"
fill-rule="evenodd" fill="black"/>
<path d="M81.44 239.09L95.72 209.6 81.44 167.34 81.44 239.09Z"
fill-rule="evenodd" fill="black"/>
<path d="M95.72 209.6L95.72 178.99 81.44 167.34 95.72 209.6Z"
fill-rule="evenodd" fill="black"/>
<path d="M95.72 209.6L100.37 200 95.72 178.99 95.72 209.6Z"
fill-rule="evenodd" fill="black"/>
<path d="M304.28 221.01L304.28 190.4 299.63 200 304.28 221.01Z"
fill-rule="evenodd" fill="black"/>
<path d="M304.28 221.01L318.56 232.66 304.28 190.4 304.28 221.01Z"
fill-rule="evenodd" fill="black"/>
<path d="M318.56 232.66L318.56 160.91 304.28 190.4 318.56 232.66Z"
fill-rule="evenodd" fill="black"/>
<path d="M318.56 232.66L337.93 248.47 318.56 160.91 318.56 232.66Z"
fill-rule="evenodd" fill="black"/>
<path d="M337.93 248.47L337.93 156.63 318.56 160.91 337.93 248.47Z"
fill-rule="evenodd" fill="black"/>
<path d="M337.93 248.47L360.97 243.37 337.93 156.63 337.93 248.47Z"
fill-rule="evenodd" fill="black"/>
<path d="M360.97 243.37L360.97 151.53 337.93 156.63 360.97 243.37Z"
fill-rule="evenodd" fill="black"/>
<path d="M360.97 243.37L380.34 239.09 360.97 151.53 360.97 243.37Z"
fill-rule="evenodd" fill="black"/>
<path d="M380.34 239.09L380.34 167.34 360.97 151.53 380.34 239.09Z"
fill-rule="evenodd" fill="black"/>
<path d="M380.34 239.09L394.62 209.6 380.34 167.34 380.34 239.09Z"
fill-rule="evenodd" fill="black"/>
<path d="M394.62 209.6L394.62 178.99 380.34 167.34 394.62 209.6Z"
fill-rule="evenodd" fill="black"/>
<path d="M394.62 209.6L399.27 200 394.62 178.99 394.62 209.6Z"
fill-rule="evenodd" fill="black"/>
</g>
<g><path d="M299.63 200L301.48 186.56M301.48 186.56L306.89 174.12M306.89 174.12L315.45 163.59M315.45 163.59L326.53 155.77M326.53 155.77L339.31 151.23M339.31 151.23L352.85 150.3M352.85 150.3L366.13 153.06M366.13 153.06L378.18 159.3M378.18 159.3L388.09 168.56M388.09 168.56L395.14 180.15M395.14 180.15L398.8 193.22M398.8 193.22L398.8 206.78M398.8 206.78L395.14 219.85M395.14 219.85L388.09 231.44M388.09 231.44L378.18 240.7M378.18 240.7L366.13 246.94M366.13 246.94L352.85 249.7M352.85 249.7L339.31 248.77M339.31 248.77L326.53 244.23M326.53 244.23L315.45 236.41M315.45 236.41L306.89 225.88M306.89 225.88L301.48 213.44M301.48 213.44L299.63 200"
fill="none" stroke="black" stroke-width="3"/>
</g>
<g><path d="M0.73 200L2.58 186.56M2.58 186.56L7.99 174.12M7.99 174.12L16.55 163.59M16.55 163.59L27.63 155.77M27.63 155.77L40.41 151.23M40.41 151.23L53.95 150.3M53.95 150.3L67.23 153.06M67.23 153.06L79.28 159.3M79.28 159.3L89.19 168.56M89.19 168.56L96.24 180.15M96.24 180.15L99.9 193.22M99.9 193.22L99.9 206.78M99.9 206.78L96.24 219.85M96.24 219.85L89.19 231.44M89.19 231.44L79.28 240.7M79.28 240.7L67.23 246.94M67.23 246.94L53.95 249.7M53.95 249.7L40.41 248.77M40.41 248.77L27.63 244.23M27.63 244.23L16.55 236.41M16.55 236.41L7.99 225.88M7.99 225.88L2.58 213.44M2.58 213.44L0.73 200"
fill="none" stroke="black" stroke-width="3"/>
</g>
</g>
</svg>
