<?xml version="1.0" standalone="no"?><svg xmlns="http://www.w3.org/2000/svg" width="400.000" height="400.000" viewBox="0.0 0.0 400.000 400.000" version="1.1">
  <title>Produce by Acme CAD Converter</title>
  <desc>Produce by Acme CAD Converter</desc>
<g id="0" display="visible">
<g><path d="M0.73 386.81L399.27 386.81"
fill="none" stroke="black" stroke-width="3"/>
</g>
<g><path d="M125.27 312.09L125.27 112.82"
fill="none" stroke="black" stroke-width="3"/>
</g>
<g><path d="M125.27 112.82L123.1 94M123.1 94L117.66 75.85M117.66 75.85L109.12 58.94M109.12 58.94L97.75 43.78M97.75 43.78L83.91 30.85M83.91 30.85L68.01 20.55M68.01 20.55L50.55 13.19"
fill="none" stroke="black" stroke-width="3"/>
</g>
<g><path d="M274.73 312.09L274.73 112.82"
fill="none" stroke="black" stroke-width="3"/>
</g>
<g><path d="M349.45 13.19L331.99 20.55M331.99 20.55L316.09 30.85M316.09 30.85L302.25 43.78M302.25 43.78L290.88 58.94M290.88 58.94L282.34 75.85M282.34 75.85L276.9 94M276.9 94L274.73 112.82"
fill="none" stroke="black" stroke-width="3"/>
</g>
</g>
</svg>
