<?xml version="1.0" standalone="no"?><svg xmlns="http://www.w3.org/2000/svg" width="400.000" height="400.000" viewBox="0.0 0.0 400.000 400.000" version="1.1">
  <title>Produce by Acme CAD Converter</title>
  <desc>Produce by Acme CAD Converter</desc>
<g id="0" display="visible">
<g><path d="M0.73 389.3L399.27 389.3"
fill="none" stroke="black" stroke-width="3"/>
</g>
<g><path d="M100.37 329.52L100.37 170.11"
fill="none" stroke="black" stroke-width="3"/>
</g>
<g><path d="M100.37 170.11L98.08 152.58M98.08 152.58L92.26 135.89M92.26 135.89L83.16 120.74M83.16 120.74L71.16 107.76M71.16 107.76L56.77 97.51M56.77 97.51L40.59 90.4"
fill="none" stroke="black" stroke-width="3"/>
</g>
<g><path d="M299.63 329.52L299.63 170.11"
fill="none" stroke="black" stroke-width="3"/>
</g>
<g><path d="M359.41 90.4L343.23 97.51M343.23 97.51L328.84 107.76M328.84 107.76L316.84 120.74M316.84 120.74L307.74 135.89M307.74 135.89L301.92 152.58M301.92 152.58L299.63 170.11"
fill="none" stroke="black" stroke-width="3"/>
</g>
<g><path d="M200 329.52L200 10.7"
fill="none" stroke="black" stroke-width="3"/>
</g>
</g>
</svg>
