<?xml version="1.0" standalone="no"?><svg xmlns="http://www.w3.org/2000/svg" width="400.000" height="400.000" viewBox="0.0 0.0 400.000 400.000" version="1.1">
  <title>Produce by Acme CAD Converter</title>
  <desc>Produce by Acme CAD Converter</desc>
<g id="0" display="visible">
<g><path d="M4.22 328.7L4.22 305.73 0.73 321.5 4.22 328.7Z"
fill-rule="evenodd" fill="black"/>
<path d="M4.22 328.7L14.94 350.83 4.22 305.73 4.22 328.7Z"
fill-rule="evenodd" fill="black"/>
<path d="M14.94 350.83L14.94 296.99 4.22 305.73 14.94 350.83Z"
fill-rule="evenodd" fill="black"/>
<path d="M14.94 350.83L29.47 354.05 14.94 296.99 14.94 350.83Z"
fill-rule="evenodd" fill="black"/>
<path d="M29.47 354.05L29.47 285.13 14.94 296.99 29.47 354.05Z"
fill-rule="evenodd" fill="black"/>
<path d="M29.47 354.05L46.76 357.87 29.47 285.13 29.47 354.05Z"
fill-rule="evenodd" fill="black"/>
<path d="M46.76 357.87L46.76 288.95 29.47 285.13 46.76 357.87Z"
fill-rule="evenodd" fill="black"/>
<path d="M46.76 357.87L61.3 346.01 46.76 288.95 46.76 357.87Z"
fill-rule="evenodd" fill="black"/>
<path d="M61.3 346.01L61.3 292.17 46.76 288.95 61.3 346.01Z"
fill-rule="evenodd" fill="black"/>
<path d="M61.3 346.01L72.01 337.27 61.3 292.17 61.3 346.01Z"
fill-rule="evenodd" fill="black"/>
<path d="M72.01 337.27L72.01 314.3 61.3 292.17 72.01 337.27Z"
fill-rule="evenodd" fill="black"/>
<path d="M72.01 337.27L75.5 321.5 72.01 314.3 72.01 337.27Z"
fill-rule="evenodd" fill="black"/>
<path d="M166.1 56.88L166.1 33.91 162.62 41.11 166.1 56.88Z"
fill-rule="evenodd" fill="black"/>
<path d="M166.1 56.88L176.82 65.63 166.1 33.91 166.1 56.88Z"
fill-rule="evenodd" fill="black"/>
<path d="M176.82 65.63L176.82 11.78 166.1 33.91 176.82 65.63Z"
fill-rule="evenodd" fill="black"/>
<path d="M176.82 65.63L191.36 77.49 176.82 11.78 176.82 65.63Z"
fill-rule="evenodd" fill="black"/>
<path d="M191.36 77.49L191.36 8.57 176.82 11.78 191.36 77.49Z"
fill-rule="evenodd" fill="black"/>
<path d="M191.36 77.49L208.64 73.66 191.36 8.57 191.36 77.49Z"
fill-rule="evenodd" fill="black"/>
<path d="M208.64 73.66L208.64 4.74 191.36 8.57 208.64 73.66Z"
fill-rule="evenodd" fill="black"/>
<path d="M208.64 73.66L223.18 70.45 208.64 4.74 208.64 73.66Z"
fill-rule="evenodd" fill="black"/>
<path d="M223.18 70.45L223.18 16.6 208.64 4.74 223.18 70.45Z"
fill-rule="evenodd" fill="black"/>
<path d="M223.18 70.45L233.9 48.32 223.18 16.6 223.18 70.45Z"
fill-rule="evenodd" fill="black"/>
<path d="M233.9 48.32L233.9 25.34 223.18 16.6 233.9 48.32Z"
fill-rule="evenodd" fill="black"/>
<path d="M233.9 48.32L237.38 41.11 233.9 25.34 233.9 48.32Z"
fill-rule="evenodd" fill="black"/>
<path d="M327.99 337.27L327.99 314.3 324.5 321.5 327.99 337.27Z"
fill-rule="evenodd" fill="black"/>
<path d="M327.99 337.27L338.7 346.01 327.99 314.3 327.99 337.27Z"
fill-rule="evenodd" fill="black"/>
<path d="M338.7 346.01L338.7 292.17 327.99 314.3 338.7 346.01Z"
fill-rule="evenodd" fill="black"/>
<path d="M338.7 346.01L353.24 357.87 338.7 292.17 338.7 346.01Z"
fill-rule="evenodd" fill="black"/>
<path d="M353.24 357.87L353.24 288.95 338.7 292.17 353.24 357.87Z"
fill-rule="evenodd" fill="black"/>
<path d="M353.24 357.87L370.53 354.05 353.24 288.95 353.24 357.87Z"
fill-rule="evenodd" fill="black"/>
<path d="M370.53 354.05L370.53 285.13 353.24 288.95 370.53 354.05Z"
fill-rule="evenodd" fill="black"/>
<path d="M370.53 354.05L385.06 350.83 370.53 285.13 370.53 354.05Z"
fill-rule="evenodd" fill="black"/>
<path d="M385.06 350.83L385.06 296.99 370.53 285.13 385.06 350.83Z"
fill-rule="evenodd" fill="black"/>
<path d="M385.06 350.83L395.78 328.7 385.06 296.99 385.06 350.83Z"
fill-rule="evenodd" fill="black"/>
<path d="M395.78 328.7L395.78 305.73 385.06 296.99 395.78 328.7Z"
fill-rule="evenodd" fill="black"/>
<path d="M395.78 328.7L399.27 321.5 395.78 305.73 395.78 328.7Z"
fill-rule="evenodd" fill="black"/>
</g>
<g><path d="M150.15 228.04L152 214.59M152 214.59L157.41 202.14M157.41 202.14L165.98 191.61M165.98 191.61L177.07 183.78M177.07 183.78L189.86 179.23M189.86 179.23L203.4 178.31M203.4 178.31L216.69 181.07M216.69 181.07L228.75 187.32M228.75 187.32L238.67 196.58M238.67 196.58L245.72 208.18M245.72 208.18L249.38 221.25M249.38 221.25L249.38 234.83M249.38 234.83L245.72 247.9M245.72 247.9L238.67 259.5M238.67 259.5L228.75 268.76M228.75 268.76L216.69 275.01M216.69 275.01L203.4 277.77M203.4 277.77L189.86 276.84M189.86 276.84L177.07 272.3M177.07 272.3L165.98 264.47M165.98 264.47L157.41 253.94M157.41 253.94L152 241.49M152 241.49L150.15 228.04"
fill="none" stroke="black" stroke-width="3"/>
</g>
<g><path d="M162.62 41.11L164.44 29.56M164.44 29.56L169.75 19.14M169.75 19.14L178.03 10.87M178.03 10.87L188.45 5.56M188.45 5.56L200 3.73M200 3.73L211.55 5.56M211.55 5.56L221.97 10.87M221.97 10.87L230.25 19.14M230.25 19.14L235.56 29.56M235.56 29.56L237.38 41.11M237.38 41.11L235.56 52.67M235.56 52.67L230.25 63.09M230.25 63.09L221.97 71.36M221.97 71.36L211.55 76.67M211.55 76.67L200 78.5M200 78.5L188.45 76.67M188.45 76.67L178.03 71.36M178.03 71.36L169.75 63.09M169.75 63.09L164.44 52.67M164.44 52.67L162.62 41.11"
fill="none" stroke="black" stroke-width="3"/>
</g>
<g><path d="M0.73 321.5L2.56 309.95M2.56 309.95L7.87 299.53M7.87 299.53L16.14 291.26M16.14 291.26L26.57 285.95M26.57 285.95L38.12 284.12M38.12 284.12L49.67 285.95M49.67 285.95L60.09 291.26M60.09 291.26L68.36 299.53M68.36 299.53L73.67 309.95M73.67 309.95L75.5 321.5M75.5 321.5L73.67 333.05M73.67 333.05L68.36 343.48M68.36 343.48L60.09 351.75M60.09 351.75L49.67 357.06M49.67 357.06L38.12 358.89M38.12 358.89L26.57 357.06M26.57 357.06L16.14 351.75M16.14 351.75L7.87 343.48M7.87 343.48L2.56 333.05M2.56 333.05L0.73 321.5"
fill="none" stroke="black" stroke-width="3"/>
</g>
<g><path d="M324.5 321.5L326.33 309.95M326.33 309.95L331.64 299.53M331.64 299.53L339.91 291.26M339.91 291.26L350.33 285.95M350.33 285.95L361.88 284.12M361.88 284.12L373.43 285.95M373.43 285.95L383.86 291.26M383.86 291.26L392.13 299.53M392.13 299.53L397.44 309.95M397.44 309.95L399.27 321.5M399.27 321.5L397.44 333.05M397.44 333.05L392.13 343.48M392.13 343.48L383.86 351.75M383.86 351.75L373.43 357.06M373.43 357.06L361.88 358.89M361.88 358.89L350.33 357.06M350.33 357.06L339.91 351.75M339.91 351.75L331.64 343.48M331.64 343.48L326.33 333.05M326.33 333.05L324.5 321.5"
fill="none" stroke="black" stroke-width="3"/>
</g>
<g><path d="M38.12 396.27L361.88 396.27"
fill="none" stroke="black" stroke-width="3"/>
</g>
</g>
</svg>
