<?xml version="1.0" standalone="no"?><svg xmlns="http://www.w3.org/2000/svg" width="400.000" height="400.000" viewBox="0.0 0.0 400.000 400.000" version="1.1">
  <title>Produce by Acme CAD Converter</title>
  <desc>Produce by Acme CAD Converter</desc>
<g id="0" display="visible">
<g><path d="M119.73 114.48L122.49 103.58M122.49 103.58L122.13 92.34M122.13 92.34L118.69 81.64M118.69 81.64L112.42 72.3M112.42 72.3L103.82 65.06M103.82 65.06L93.55 60.48M93.55 60.48L82.41 58.91"
fill="none" stroke="black" stroke-width="3"/>
</g>
<g><path d="M82.41 58.91L71.28 60.48M71.28 60.48L61.01 65.06M61.01 65.06L52.41 72.3M52.41 72.3L46.14 81.64M46.14 81.64L42.7 92.34M42.7 92.34L42.34 103.58M42.34 103.58L45.1 114.48"
fill="none" stroke="black" stroke-width="3"/>
</g>
<g><path d="M141.22 184.28L148.5 175.52M148.5 175.52L153.03 165.08M153.03 165.08L154.46 153.78M154.46 153.78L152.68 142.54M152.68 142.54L147.83 132.24M147.83 132.24L140.29 123.71M140.29 123.71L130.67 117.63M130.67 117.63L119.73 114.48"
fill="none" stroke="black" stroke-width="3"/>
</g>
<g><path d="M123.78 260.93L135.67 259.14M135.67 259.14L146.5 253.92M146.5 253.92L155.31 245.74M155.31 245.74L161.32 235.32M161.32 235.32L163.99 223.6M163.99 223.6L163.08 211.61M163.08 211.61L158.67 200.43M158.67 200.43L151.17 191.04M151.17 191.04L141.22 184.28"
fill="none" stroke="black" stroke-width="3"/>
</g>
<g><path d="M45.1 114.48L34.16 117.63M34.16 117.63L24.54 123.71M24.54 123.71L17 132.24M17 132.24L12.15 142.54M12.15 142.54L10.37 153.78M10.37 153.78L11.8 165.08M11.8 165.08L16.33 175.52M16.33 175.52L23.6 184.28"
fill="none" stroke="black" stroke-width="3"/>
</g>
<g><path d="M23.6 184.28L13.66 191.04M13.66 191.04L6.16 200.43M6.16 200.43L1.75 211.61M1.75 211.61L0.84 223.6M0.84 223.6L3.51 235.32M3.51 235.32L9.52 245.74M9.52 245.74L18.33 253.92M18.33 253.92L29.16 259.14M29.16 259.14L41.04 260.93"
fill="none" stroke="black" stroke-width="3"/>
</g>
<g><path d="M82.41 260.93L123.78 260.93"
fill="none" stroke="black" stroke-width="3"/>
</g>
<g><path d="M122.73 341.09L82.41 341.09"
fill="none" stroke="black" stroke-width="3"/>
</g>
<g><path d="M82.41 341.09L82.41 260.93"
fill="none" stroke="black" stroke-width="3"/>
</g>
<g><path d="M82.41 260.93L41.04 260.93"
fill="none" stroke="black" stroke-width="3"/>
</g>
<g><path d="M324.28 58.91L272.02 98.77"
fill="none" stroke="black" stroke-width="3"/>
</g>
<g><path d="M324.28 58.91L376.53 98.77"
fill="none" stroke="black" stroke-width="3"/>
</g>
<g><path d="M324.28 219.95L399.27 269.71"
fill="none" stroke="black" stroke-width="3"/>
</g>
<g><path d="M324.28 219.95L249.29 269.71"
fill="none" stroke="black" stroke-width="3"/>
</g>
<g><path d="M324.28 144.21L265.47 184.28"
fill="none" stroke="black" stroke-width="3"/>
</g>
<g><path d="M324.28 144.21L383.09 184.28"
fill="none" stroke="black" stroke-width="3"/>
</g>
<g><path d="M364.59 341.09L324.28 341.09"
fill="none" stroke="black" stroke-width="3"/>
</g>
<g><path d="M324.28 341.09L324.28 58.91"
fill="none" stroke="black" stroke-width="3"/>
</g>
</g>
</svg>
