<?xml version="1.0" standalone="no"?><svg xmlns="http://www.w3.org/2000/svg" width="400.000" height="400.000" viewBox="0.0 0.0 400.000 400.000" version="1.1">
  <title>Produce by Acme CAD Converter</title>
  <desc>Produce by Acme CAD Converter</desc>
<g id="0" display="visible">
<g><path d="M0.73 340.39L2.59 332.27M2.59 332.27L7.78 325.75M7.78 325.75L15.29 322.14M15.29 322.14L23.62 322.14M23.62 322.14L31.12 325.75M31.12 325.75L36.32 332.27M36.32 332.27L38.17 340.39M38.17 340.39L36.32 348.51M36.32 348.51L31.12 355.02M31.12 355.02L23.62 358.64M23.62 358.64L15.29 358.64M15.29 358.64L7.78 355.02M7.78 355.02L2.59 348.51M2.59 348.51L0.73 340.39"
fill="none" stroke="black" stroke-width="3"/>
</g>
<g><path d="M361.83 340.39L363.68 332.27M363.68 332.27L368.88 325.75M368.88 325.75L376.38 322.14M376.38 322.14L384.71 322.14M384.71 322.14L392.22 325.75M392.22 325.75L397.41 332.27M397.41 332.27L399.27 340.39M399.27 340.39L397.41 348.51M397.41 348.51L392.22 355.02M392.22 355.02L384.71 358.64M384.71 358.64L376.38 358.64M376.38 358.64L368.88 355.02M368.88 355.02L363.68 348.51M363.68 348.51L361.83 340.39"
fill="none" stroke="black" stroke-width="3"/>
</g>
<g><path d="M380.55 40.9L200 340.39"
fill="none" stroke="black" stroke-width="3"/>
</g>
<g><path d="M200 340.39L19.45 40.9"
fill="none" stroke="black" stroke-width="3"/>
</g>
</g>
</svg>
