<?xml version="1.0" standalone="no"?><svg xmlns="http://www.w3.org/2000/svg" width="400.000" height="400.000" viewBox="0.0 0.0 400.000 400.000" version="1.1">
  <title>Produce by Acme CAD Converter</title>
  <desc>Produce by Acme CAD Converter</desc>
<g id="0" display="visible">
<g><path d="M178.74 34.06L178.74 19.66 176.56 24.18 178.74 34.06Z"
fill-rule="evenodd" fill="black"/>
<path d="M178.74 34.06L185.47 39.55 178.74 19.66 178.74 34.06Z"
fill-rule="evenodd" fill="black"/>
<path d="M185.47 39.55L185.47 5.78 178.74 19.66 185.47 39.55Z"
fill-rule="evenodd" fill="black"/>
<path d="M185.47 39.55L194.58 46.98 185.47 5.78 185.47 39.55Z"
fill-rule="evenodd" fill="black"/>
<path d="M194.58 46.98L194.58 3.77 185.47 5.78 194.58 46.98Z"
fill-rule="evenodd" fill="black"/>
<path d="M194.58 46.98L205.42 44.59 194.58 3.77 194.58 46.98Z"
fill-rule="evenodd" fill="black"/>
<path d="M205.42 44.59L205.42 1.37 194.58 3.77 205.42 44.59Z"
fill-rule="evenodd" fill="black"/>
<path d="M205.42 44.59L214.53 42.57 205.42 1.37 205.42 44.59Z"
fill-rule="evenodd" fill="black"/>
<path d="M214.53 42.57L214.53 8.8 205.42 1.37 214.53 42.57Z"
fill-rule="evenodd" fill="black"/>
<path d="M214.53 42.57L221.26 28.69 214.53 8.8 214.53 42.57Z"
fill-rule="evenodd" fill="black"/>
<path d="M221.26 28.69L221.26 14.29 214.53 8.8 221.26 28.69Z"
fill-rule="evenodd" fill="black"/>
<path d="M221.26 28.69L223.44 24.18 221.26 14.29 221.26 28.69Z"
fill-rule="evenodd" fill="black"/>
</g>
<g><path d="M176.56 24.18L178.34 15.21M178.34 15.21L183.42 7.6M183.42 7.6L191.03 2.52M191.03 2.52L200 0.73M200 0.73L208.97 2.52M208.97 2.52L216.58 7.6M216.58 7.6L221.66 15.21M221.66 15.21L223.44 24.18M223.44 24.18L221.66 33.15M221.66 33.15L216.58 40.75M216.58 40.75L208.97 45.84M208.97 45.84L200 47.62M200 47.62L191.03 45.84M191.03 45.84L183.42 40.75M183.42 40.75L178.34 33.15M178.34 33.15L176.56 24.18"
fill="none" stroke="black" stroke-width="3"/>
</g>
<g><path d="M200 399.27L200 47.62"
fill="none" stroke="black" stroke-width="3"/>
</g>
</g>
</svg>
