<?xml version="1.0" standalone="no"?><svg xmlns="http://www.w3.org/2000/svg" width="400.000" height="400.000" viewBox="0.0 0.0 400.000 400.000" version="1.1">
  <title>Produce by Acme CAD Converter</title>
  <desc>Produce by Acme CAD Converter</desc>
<g id="0" display="visible">
<g><path d="M354.9 114.48L357.66 103.58M357.66 103.58L357.3 92.34M357.3 92.34L353.86 81.64M353.86 81.64L347.59 72.3M347.59 72.3L338.99 65.06M338.99 65.06L328.72 60.48M328.72 60.48L317.59 58.91"
fill="none" stroke="black" stroke-width="3"/>
</g>
<g><path d="M317.59 58.91L306.45 60.48M306.45 60.48L296.18 65.06M296.18 65.06L287.58 72.3M287.58 72.3L281.31 81.64M281.31 81.64L277.87 92.34M277.87 92.34L277.51 103.58M277.51 103.58L280.27 114.48"
fill="none" stroke="black" stroke-width="3"/>
</g>
<g><path d="M376.4 184.28L383.67 175.52M383.67 175.52L388.2 165.08M388.2 165.08L389.63 153.78M389.63 153.78L387.85 142.54M387.85 142.54L383 132.24M383 132.24L375.46 123.71M375.46 123.71L365.84 117.63M365.84 117.63L354.9 114.48"
fill="none" stroke="black" stroke-width="3"/>
</g>
<g><path d="M358.96 260.93L370.84 259.14M370.84 259.14L381.67 253.92M381.67 253.92L390.48 245.74M390.48 245.74L396.49 235.32M396.49 235.32L399.16 223.6M399.16 223.6L398.25 211.61M398.25 211.61L393.84 200.43M393.84 200.43L386.34 191.04M386.34 191.04L376.4 184.28"
fill="none" stroke="black" stroke-width="3"/>
</g>
<g><path d="M280.27 114.48L269.33 117.63M269.33 117.63L259.71 123.71M259.71 123.71L252.17 132.24M252.17 132.24L247.32 142.54M247.32 142.54L245.54 153.78M245.54 153.78L246.97 165.08M246.97 165.08L251.5 175.52M251.5 175.52L258.78 184.28"
fill="none" stroke="black" stroke-width="3"/>
</g>
<g><path d="M258.78 184.28L248.83 191.04M248.83 191.04L241.33 200.43M241.33 200.43L236.92 211.61M236.92 211.61L236.01 223.6M236.01 223.6L238.68 235.32M238.68 235.32L244.69 245.74M244.69 245.74L253.5 253.92M253.5 253.92L264.33 259.14M264.33 259.14L276.22 260.93"
fill="none" stroke="black" stroke-width="3"/>
</g>
<g><path d="M317.59 260.93L358.96 260.93"
fill="none" stroke="black" stroke-width="3"/>
</g>
<g><path d="M357.9 341.09L317.59 341.09"
fill="none" stroke="black" stroke-width="3"/>
</g>
<g><path d="M317.59 341.09L317.59 260.93"
fill="none" stroke="black" stroke-width="3"/>
</g>
<g><path d="M317.59 260.93L276.22 260.93"
fill="none" stroke="black" stroke-width="3"/>
</g>
<g><path d="M75.72 58.91L23.47 98.77"
fill="none" stroke="black" stroke-width="3"/>
</g>
<g><path d="M75.72 58.91L127.98 98.77"
fill="none" stroke="black" stroke-width="3"/>
</g>
<g><path d="M75.72 219.95L150.71 269.71"
fill="none" stroke="black" stroke-width="3"/>
</g>
<g><path d="M75.72 219.95L0.73 269.71"
fill="none" stroke="black" stroke-width="3"/>
</g>
<g><path d="M75.72 144.21L16.91 184.28"
fill="none" stroke="black" stroke-width="3"/>
</g>
<g><path d="M75.72 144.21L134.53 184.28"
fill="none" stroke="black" stroke-width="3"/>
</g>
<g><path d="M116.03 341.09L75.72 341.09"
fill="none" stroke="black" stroke-width="3"/>
</g>
<g><path d="M75.72 341.09L75.72 58.91"
fill="none" stroke="black" stroke-width="3"/>
</g>
</g>
</svg>
