<?xml version="1.0" standalone="no"?><svg xmlns="http://www.w3.org/2000/svg" width="400.000" height="400.000" viewBox="0.0 0.0 400.000 400.000" version="1.1">
  <title>Produce by Acme CAD Converter</title>
  <desc>Produce by Acme CAD Converter</desc>
<g id="0" display="visible">
<g><path d="M0.73 200L2.66 176.76M2.66 176.76L8.38 154.15M8.38 154.15L17.75 132.8M17.75 132.8L30.51 113.28M30.51 113.28L46.3 96.12M46.3 96.12L64.7 81.79M64.7 81.79L85.21 70.7M85.21 70.7L107.27 63.12M107.27 63.12L130.27 59.29M130.27 59.29L153.59 59.29M153.59 59.29L176.59 63.12M176.59 63.12L198.65 70.7M198.65 70.7L219.16 81.79M219.16 81.79L237.56 96.12M237.56 96.12L253.35 113.28M253.35 113.28L266.11 132.8M266.11 132.8L275.48 154.15M275.48 154.15L281.2 176.76M281.2 176.76L283.13 200M283.13 200L281.2 223.24M281.2 223.24L275.48 245.85M275.48 245.85L266.11 267.2M266.11 267.2L253.35 286.72M253.35 286.72L237.56 303.88M237.56 303.88L219.16 318.21M219.16 318.21L198.65 329.3M198.65 329.3L176.59 336.88M176.59 336.88L153.59 340.71M153.59 340.71L130.27 340.71M130.27 340.71L107.27 336.88M107.27 336.88L85.21 329.3M85.21 329.3L64.7 318.21M64.7 318.21L46.3 303.88M46.3 303.88L30.51 286.72M30.51 286.72L17.75 267.2M17.75 267.2L8.38 245.85M8.38 245.85L2.66 223.24M2.66 223.24L0.73 200"
fill="none" stroke="black" stroke-width="3"/>
</g>
<g><path d="M141.93 341.2L399.27 341.2"
fill="none" stroke="black" stroke-width="3"/>
</g>
</g>
</svg>
