<?xml version="1.0" standalone="no"?><svg xmlns="http://www.w3.org/2000/svg" width="400.000" height="400.000" viewBox="0.0 0.0 400.000 400.000" version="1.1">
  <title>Produce by Acme CAD Converter</title>
  <desc>Produce by Acme CAD Converter</desc>
<g id="0" display="visible">
<g><path d="M252.7 79.22L256.35 65.8M256.35 65.8L256.64 51.89M256.64 51.89L253.55 38.34M253.55 38.34L247.27 25.93M247.27 25.93L238.16 15.42M238.16 15.42L226.78 7.43M226.78 7.43L213.8 2.43M213.8 2.43L200 0.73"
fill="none" stroke="black" stroke-width="3"/>
</g>
<g><path d="M200 0.73L186.2 2.43M186.2 2.43L173.22 7.43M173.22 7.43L161.84 15.42M161.84 15.42L152.73 25.93M152.73 25.93L146.45 38.34M146.45 38.34L143.36 51.89M143.36 51.89L143.65 65.8M143.65 65.8L147.3 79.22"
fill="none" stroke="black" stroke-width="3"/>
</g>
<g><path d="M283.06 177.79L292.37 166.94M292.37 166.94L298.68 154.1M298.68 154.1L301.59 140.1M301.59 140.1L300.92 125.81M300.92 125.81L296.71 112.14M296.71 112.14L289.22 99.96M289.22 99.96L278.94 90.02M278.94 90.02L266.5 82.96M266.5 82.96L252.7 79.22"
fill="none" stroke="black" stroke-width="3"/>
</g>
<g><path d="M258.43 286.06L272.24 284.36M272.24 284.36L285.22 279.36M285.22 279.36L296.6 271.37M296.6 271.37L305.7 260.85M305.7 260.85L311.99 248.44M311.99 248.44L315.07 234.88M315.07 234.88L314.78 220.97M314.78 220.97L311.12 207.55M311.12 207.55L304.31 195.42M304.31 195.42L294.77 185.3M294.77 185.3L283.06 177.79"
fill="none" stroke="black" stroke-width="3"/>
</g>
<g><path d="M147.3 79.22L133.5 82.96M133.5 82.96L121.06 90.02M121.06 90.02L110.78 99.96M110.78 99.96L103.29 112.14M103.29 112.14L99.08 125.81M99.08 125.81L98.41 140.1M98.41 140.1L101.32 154.1M101.32 154.1L107.63 166.94M107.63 166.94L116.94 177.79"
fill="none" stroke="black" stroke-width="3"/>
</g>
<g><path d="M116.94 177.79L105.23 185.3M105.23 185.3L95.69 195.42M95.69 195.42L88.88 207.55M88.88 207.55L85.22 220.97M85.22 220.97L84.93 234.88M84.93 234.88L88.01 248.44M88.01 248.44L94.3 260.85M94.3 260.85L103.4 271.37M103.4 271.37L114.78 279.36M114.78 279.36L127.76 284.36M127.76 284.36L141.57 286.06"
fill="none" stroke="black" stroke-width="3"/>
</g>
<g><path d="M200 286.06L258.43 286.06"
fill="none" stroke="black" stroke-width="3"/>
</g>
<g><path d="M256.93 399.27L200 399.27"
fill="none" stroke="black" stroke-width="3"/>
</g>
<g><path d="M200 286.06L141.57 286.06"
fill="none" stroke="black" stroke-width="3"/>
</g>
<g><path d="M200 399.27L200 286.06"
fill="none" stroke="black" stroke-width="3"/>
</g>
</g>
</svg>
