<?xml version="1.0" standalone="no"?><svg xmlns="http://www.w3.org/2000/svg" width="400.000" height="400.000" viewBox="0.0 0.0 400.000 400.000" version="1.1">
  <title>Produce by Acme CAD Converter</title>
  <desc>Produce by Acme CAD Converter</desc>
<g id="0" display="visible">
<g><path d="M256.93 399.27L200 399.27"
fill="none" stroke="black" stroke-width="3"/>
</g>
<g><path d="M200 399.27L200 286.06"
fill="none" stroke="black" stroke-width="3"/>
</g>
<g><path d="M86.13 0.73L313.87 0.73"
fill="none" stroke="black" stroke-width="3"/>
</g>
<g><path d="M86.13 0.73L85.6 21.66"
fill="none" stroke="black" stroke-width="3"/>
</g>
<g><path d="M85.6 21.66L86.34 54.68M86.34 54.68L90.26 87.47M90.26 87.47L97.32 119.73M97.32 119.73L107.45 151.16M107.45 151.16L120.57 181.47M120.57 181.47L136.54 210.38M136.54 210.38L155.22 237.61M155.22 237.61L176.44 262.91M176.44 262.91L200 286.06"
fill="none" stroke="black" stroke-width="3"/>
</g>
<g><path d="M313.87 0.73L314.4 21.66"
fill="none" stroke="black" stroke-width="3"/>
</g>
<g><path d="M200 286.06L223.56 262.91M223.56 262.91L244.78 237.61M244.78 237.61L263.46 210.38M263.46 210.38L279.43 181.47M279.43 181.47L292.55 151.16M292.55 151.16L302.68 119.73M302.68 119.73L309.74 87.47M309.74 87.47L313.66 54.68M313.66 54.68L314.4 21.66"
fill="none" stroke="black" stroke-width="3"/>
</g>
</g>
</svg>
