<?xml version="1.0" standalone="no"?><svg xmlns="http://www.w3.org/2000/svg" width="400.000" height="400.000" viewBox="0.0 0.0 400.000 400.000" version="1.1">
  <title>Produce by Acme CAD Converter</title>
  <desc>Produce by Acme CAD Converter</desc>
<g id="0" display="visible">
<g><path d="M312.44 324.3L312.44 312.44"
fill="none" stroke="black" stroke-width="9"/>
</g>
<g><path d="M317.19 338.54L317.19 312.44"
fill="none" stroke="black" stroke-width="9"/>
</g>
<g><path d="M328.1 338.54L328.1 312.44"
fill="none" stroke="black" stroke-width="9"/>
</g>
<g><path d="M335.22 338.54L335.22 312.44"
fill="none" stroke="black" stroke-width="9"/>
</g>
<g><path d="M339.96 338.54L339.96 312.44"
fill="none" stroke="black" stroke-width="9"/>
</g>
<g><path d="M339.96 319.56L309.12 319.56"
fill="none" stroke="black" stroke-width="3"/>
</g>
<g><path d="M339.96 317.19L309.12 317.19"
fill="none" stroke="black" stroke-width="3"/>
</g>
<g><path d="M339.96 314.82L309.12 314.82"
fill="none" stroke="black" stroke-width="3"/>
</g>
<g><path d="M339.96 321.93L309.12 321.93"
fill="none" stroke="black" stroke-width="9"/>
</g>
<g><path d="M339.96 324.3L309.12 324.3"
fill="none" stroke="black" stroke-width="9"/>
</g>
<g><path d="M339.96 326.68L309.12 326.68"
fill="none" stroke="black" stroke-width="3"/>
</g>
<g><path d="M339.96 329.05L309.12 329.05"
fill="none" stroke="black" stroke-width="3"/>
</g>
<g><path d="M339.96 333.79L309.12 333.79"
fill="none" stroke="black" stroke-width="3"/>
</g>
<g><path d="M339.96 336.17L309.12 336.17"
fill="none" stroke="black" stroke-width="3"/>
</g>
<g><path d="M335.45 323.94L335.45 323.73M335.45 323.73L336.22 323.73M336.22 323.73L336.22 322.5M336.22 322.5L335.92 322.5M335.92 322.5L335.61 323.32M335.61 323.32L335.61 323.73M335.61 323.73L336.38 323.73M336.38 323.73L336.38 323.94M336.69 323.53L336.69 323.12M336.69 323.12L336.84 322.91M336.84 322.91L337.15 322.91M337.15 322.91L337.3 323.12M337.3 323.12L337.3 322.91M337.3 322.91L337.3 323.73M337.3 323.73L337.3 323.53M337.3 323.53L337.15 323.73M337.15 323.73L336.84 323.73M336.84 323.73L336.69 323.53M337.92 323.73L337.92 322.91M337.92 322.91L337.61 322.91M337.61 322.91L338.23 322.91M338.54 323.53L338.54 323.12M338.54 323.12L338.69 322.91M338.69 322.91L339 322.91M339 322.91L339.15 323.12M339.15 323.12L339.15 322.91M339.15 322.91L339.15 323.73M339.15 323.73L339.15 323.53M339.15 323.53L339 323.73M339 323.73L338.69 323.73M338.69 323.73L338.54 323.53"
fill="none" stroke="black" stroke-width="3"/>
</g>
<g><path d="M396.89 319.56L339.96 319.56"
fill="none" stroke="black" stroke-width="9"/>
</g>
<g><path d="M396.89 331.42L339.96 331.42"
fill="none" stroke="black" stroke-width="9"/>
</g>
<g><path d="M373.17 338.54L373.17 319.56"
fill="none" stroke="black" stroke-width="9"/>
</g>
<g><path d="M396.89 321.93L373.17 321.93"
fill="none" stroke="black" stroke-width="9"/>
</g>
<g><path d="M396.89 329.05L373.17 329.05"
fill="none" stroke="black" stroke-width="9"/>
</g>
<g><path d="M382.66 331.42L382.66 329.05"
fill="none" stroke="black" stroke-width="9"/>
</g>
<g><path d="M380.29 329.05L380.29 319.56"
fill="none" stroke="black" stroke-width="9"/>
</g>
<g><path d="M388.35 329.05L388.35 319.56"
fill="none" stroke="black" stroke-width="9"/>
</g>
<g><path d="M375.54 329.05L375.54 321.93"
fill="none" stroke="black" stroke-width="3"/>
</g>
<g><path d="M377.92 329.05L377.92 321.93"
fill="none" stroke="black" stroke-width="3"/>
</g>
<g><path d="M396.89 312.44L309.12 312.44"
fill="none" stroke="black" stroke-width="9"/>
</g>
<g><path d="M339.96 331.42L309.12 331.42"
fill="none" stroke="black" stroke-width="3"/>
</g>
<g><path d="M309.12 338.54L309.12 312.44"
fill="none" stroke="black" stroke-width="9"/>
</g>
<g><path d="M299.63 340.91L299.63 338.54"
fill="none" stroke="black" stroke-width="3"/>
</g>
<g><path d="M382.85 65.48L383.14 65.08M383.14 65.08L383.74 65.08M383.74 65.08L384.03 65.48M384.03 65.48L384.03 65.87M384.03 65.87L383.74 66.27M383.74 66.27L383.44 66.27M383.74 66.27L384.03 66.66M384.03 66.66L384.03 67.06M384.03 67.06L383.74 67.45M383.74 67.45L383.14 67.45M383.14 67.45L382.85 67.06M384.92 67.06L384.92 67.45M384.92 67.45L384.63 67.85M385.51 65.48L385.81 65.08M385.81 65.08L386.4 65.08M386.4 65.08L386.7 65.48M386.7 65.48L386.7 65.87M386.7 65.87L386.4 66.27M386.4 66.27L385.81 66.27M385.81 66.27L385.51 66.66M385.51 66.66L385.51 67.45M385.51 67.45L386.7 67.45"
fill="none" stroke="black" stroke-width="3"/>
</g>
<g><path d="M388.1 68.16L387.76 69.42M387.76 69.42L388.1 70.68"
fill="none" stroke="black" stroke-width="3"/>
</g>
<g><path d="M385.45 70.67L387.35 67.39"
fill="none" stroke="black" stroke-width="3"/>
</g>
<g><path d="M391.58 70.68L391.92 69.42M391.92 69.42L391.58 68.16"
fill="none" stroke="black" stroke-width="3"/>
</g>
<g><path d="M389.75 70.67L391.65 67.39"
fill="none" stroke="black" stroke-width="3"/>
</g>
<g><path d="M389.75 70.67L388.57 68.62"
fill="none" stroke="black" stroke-width="3"/>
</g>
<g><path d="M385.45 70.67L384.26 68.62"
fill="none" stroke="black" stroke-width="3"/>
</g>
<g><path d="M396.89 61.46L396.89 338.54"
fill="none" stroke="black" stroke-width="9"/>
</g>
<g><path d="M399.27 59.09L399.27 340.91"
fill="none" stroke="black" stroke-width="3"/>
</g>
<g><path d="M299.63 61.46L299.63 59.09"
fill="none" stroke="black" stroke-width="3"/>
</g>
<g><path d="M396.89 200L399.27 200"
fill="none" stroke="black" stroke-width="3"/>
</g>
<g><path d="M10.22 269.74L4.53 269.74"
fill="none" stroke="black" stroke-width="9"/>
</g>
<g><path d="M4.53 338.54L4.53 269.74"
fill="none" stroke="black" stroke-width="9"/>
</g>
<g><path d="M10.22 286.35L4.53 286.35"
fill="none" stroke="black" stroke-width="9"/>
</g>
<g><path d="M10.22 298.21L4.53 298.21"
fill="none" stroke="black" stroke-width="9"/>
</g>
<g><path d="M10.22 310.07L4.53 310.07"
fill="none" stroke="black" stroke-width="9"/>
</g>
<g><path d="M10.22 326.68L4.53 326.68"
fill="none" stroke="black" stroke-width="9"/>
</g>
<g><path d="M6.9 338.54L6.9 269.74"
fill="none" stroke="black" stroke-width="3"/>
</g>
<g><path d="M10.22 68.1L43.43 68.1"
fill="none" stroke="black" stroke-width="9"/>
</g>
<g><path d="M43.43 68.1L43.43 61.46"
fill="none" stroke="black" stroke-width="9"/>
</g>
<g><path d="M0.73 340.91L0.73 59.09"
fill="none" stroke="black" stroke-width="3"/>
</g>
<g><path d="M10.22 338.54L10.22 61.46"
fill="none" stroke="black" stroke-width="9"/>
</g>
<g><path d="M10.22 118.4L4.53 118.4"
fill="none" stroke="black" stroke-width="9"/>
</g>
<g><path d="M10.22 89.93L4.53 89.93"
fill="none" stroke="black" stroke-width="9"/>
</g>
<g><path d="M6.9 118.4L6.9 61.46"
fill="none" stroke="black" stroke-width="3"/>
</g>
<g><path d="M4.53 118.4L4.53 61.46"
fill="none" stroke="black" stroke-width="9"/>
</g>
<g><path d="M0.73 200L10.22 200"
fill="none" stroke="black" stroke-width="3"/>
</g>
<g><path d="M0.73 59.09L399.27 59.09"
fill="none" stroke="black" stroke-width="3"/>
</g>
<g><path d="M4.53 61.46L396.89 61.46"
fill="none" stroke="black" stroke-width="9"/>
</g>
<g><path d="M399.27 340.91L0.73 340.91"
fill="none" stroke="black" stroke-width="3"/>
</g>
<g><path d="M396.89 338.54L4.53 338.54"
fill="none" stroke="black" stroke-width="9"/>
</g>
<g><path d="M381.65 321.32L381.65 319.99M381.65 319.99L381.99 320.87M381.99 320.87L382.32 319.99M382.32 319.99L382.32 321.32M382.65 321.1L382.65 320.65M382.65 320.65L382.82 320.43M382.82 320.43L383.15 320.43M383.15 320.43L383.31 320.65M383.31 320.65L383.31 320.43M383.31 320.43L383.31 321.32M383.31 321.32L383.31 321.1M383.31 321.1L383.15 321.32M383.15 321.32L382.82 321.32M382.82 321.32L382.65 321.1M384.31 321.1L384.14 321.32M384.14 321.32L383.81 321.32M383.81 321.32L383.65 321.1M383.65 321.1L383.65 320.65M383.65 320.65L383.81 320.43M383.81 320.43L384.14 320.43M384.14 320.43L384.31 320.65M385.31 321.1L385.14 321.32M385.14 321.32L384.81 321.32M384.81 321.32L384.64 321.1M384.64 321.1L384.64 320.65M384.64 320.65L384.81 320.43M384.81 320.43L385.14 320.43M385.14 320.43L385.31 320.65M385.64 321.1L385.64 320.65M385.64 320.65L385.81 320.43M385.81 320.43L386.14 320.43M386.14 320.43L386.3 320.65M386.3 320.65L386.3 320.43M386.3 320.43L386.3 321.32M386.3 321.32L386.3 321.1M386.3 321.1L386.14 321.32M386.14 321.32L385.81 321.32M385.81 321.32L385.64 321.1"
fill="none" stroke="black" stroke-width="3"/>
</g>
<g><path d="M388.63 321.35L388.63 320.02M388.63 320.02L388.96 320.9M388.96 320.9L389.3 320.02M389.3 320.02L389.3 321.35M389.63 321.12L389.63 320.68M389.63 320.68L389.79 320.46M389.79 320.46L390.13 320.46M390.13 320.46L390.29 320.68M390.29 320.68L390.29 320.46M390.29 320.46L390.29 321.35M390.29 321.35L390.29 321.12M390.29 321.12L390.13 321.35M390.13 321.35L389.79 321.35M389.79 321.35L389.63 321.12M391.29 321.12L391.12 321.35M391.12 321.35L390.79 321.35M390.79 321.35L390.62 321.12M390.62 321.12L390.62 320.68M390.62 320.68L390.79 320.46M390.79 320.46L391.12 320.46M391.12 320.46L391.29 320.68M391.62 321.35L391.62 320.46M391.62 320.46L391.62 321.35M391.62 321.35L391.95 321.35M391.95 321.35L391.95 320.9M391.95 320.9L391.95 321.35M391.95 321.35L392.29 321.35M392.29 321.35L392.29 320.46M392.95 321.35L392.95 320.46M392.95 320.46L392.62 320.46M392.62 320.46L393.28 320.46M393.61 321.12L393.61 320.68M393.61 320.68L393.78 320.46M393.78 320.46L394.11 320.46M394.11 320.46L394.28 320.68M394.28 320.68L394.28 320.46M394.28 320.46L394.28 321.35M394.28 321.35L394.28 321.12M394.28 321.12L394.11 321.35M394.11 321.35L393.78 321.35M393.78 321.35L393.61 321.12M395.11 320.46L394.61 320.46M394.61 320.46L394.61 321.35M394.61 321.35L395.11 321.35M395.11 321.35L395.27 321.12M395.27 321.12L395.11 320.9M395.11 320.9L394.61 320.9"
fill="none" stroke="black" stroke-width="3"/>
</g>
<g><path d="M391.28 324.49L391.52 324.17M391.52 324.17L391.52 326.07M391.28 326.07L391.76 326.07M392.23 324.81L392.23 325.12M392.23 325.44L392.23 325.75M392.7 324.49L392.94 324.17M392.94 324.17L392.94 326.07M392.7 326.07L393.18 326.07"
fill="none" stroke="black" stroke-width="3"/>
</g>
<g><path d="M382.96 326.56L383.91 326.56"
fill="none" stroke="black" stroke-width="3"/>
</g>
<g><path d="M373.82 326.53L374.77 326.53"
fill="none" stroke="black" stroke-width="3"/>
</g>
<g><path d="M373.97 330.79L374.13 330.79M374.13 330.79L374.63 329.46M374.63 329.46L374.8 329.46M374.8 329.46L374.8 330.79M375.13 329.9L375.13 330.79M375.13 330.79L375.79 329.9M375.79 329.9L375.79 330.79M376.79 330.57L376.62 330.79M376.62 330.79L376.29 330.79M376.29 330.79L376.13 330.57M376.13 330.57L376.13 330.12M376.13 330.12L376.29 329.9M376.29 329.9L376.62 329.9M376.62 329.9L376.79 330.12M377.45 330.79L377.45 329.9M377.45 329.9L377.12 329.9M377.12 329.9L377.79 329.9"
fill="none" stroke="black" stroke-width="3"/>
</g>
<g><path d="M383.43 330.72L383.6 330.72M383.6 330.72L384.1 329.39M384.1 329.39L384.26 329.39M384.26 329.39L384.26 330.72M384.59 329.83L384.59 330.72M384.59 330.72L385.26 329.83M385.26 329.83L385.26 330.72M386.25 330.5L386.09 330.72M386.09 330.72L385.76 330.72M385.76 330.72L385.59 330.5M385.59 330.5L385.59 330.05M385.59 330.05L385.76 329.83M385.76 329.83L386.09 329.83M386.09 329.83L386.25 330.05M386.92 330.72L386.92 329.83M386.92 329.83L386.59 329.83M386.59 329.83L387.25 329.83M387.58 330.5L387.58 330.05M387.58 330.05L387.75 329.83M387.75 329.83L388.08 329.83M388.08 329.83L388.25 330.05M388.25 330.05L388.25 330.5M388.25 330.5L388.08 330.72M388.08 330.72L387.75 330.72M387.75 330.72L387.58 330.5M388.58 330.72L388.58 329.83M388.58 329.83L388.91 329.83M388.91 330.27L388.58 330.27M388.58 330.27L389.08 330.27M389.08 330.72L388.58 330.72M388.91 330.27L389.08 330.05M389.08 330.05L388.91 329.83M389.08 330.72L389.24 330.5M389.24 330.5L389.08 330.27"
fill="none" stroke="black" stroke-width="3"/>
</g>
<g><path d="M340.48 335.64L341.31 335.64"
fill="none" stroke="black" stroke-width="3"/>
</g>
<g><path d="M346.92 333.71L347.75 333.71"
fill="none" stroke="black" stroke-width="3"/>
</g>
<g><path d="M346.92 337.53L347.75 337.53"
fill="none" stroke="black" stroke-width="3"/>
</g>
<g><path d="M374.27 337.58L375.45 337.58"
fill="none" stroke="black" stroke-width="3"/>
</g>
<g><path d="M346.8 335.06L370.52 335.06"
fill="none" stroke="black" stroke-width="3"/>
</g>
<g><path d="M344.77 327.87L345.96 327.87"
fill="none" stroke="black" stroke-width="3"/>
</g>
<g><path d="M348.52 317.58L350.18 317.58"
fill="none" stroke="black" stroke-width="3"/>
</g>
<g><path d="M348.5 340.2L348.5 338.87M349.17 338.87L348.67 339.53M348.67 339.53L348.5 339.53M348.67 339.53L349.17 340.2M349.5 339.98L349.5 339.53M349.5 339.53L349.66 339.31M349.66 339.31L350 339.31M350 339.31L350.16 339.53M350.16 339.53L350.16 339.98M350.16 339.98L350 340.2M350 340.2L349.66 340.2M349.66 340.2L349.5 339.98M350.49 340.2L350.49 339.31M350.49 339.31L351.16 339.31M351.16 339.31L351.16 340.2M351.49 339.31L351.49 340.2M351.49 340.2L352.15 339.31M352.15 339.31L352.15 340.2M352.49 340.2L352.49 339.31M352.49 339.31L352.98 339.31M352.98 339.31L353.15 339.53M353.15 339.53L353.15 339.76M353.15 339.76L352.98 339.98M352.98 339.98L352.49 339.98M353.48 339.98L353.48 339.53M353.48 339.53L353.65 339.31M353.65 339.31L353.98 339.31M353.98 339.31L354.15 339.53M354.15 339.53L354.15 339.98M354.15 339.98L353.98 340.2M353.98 340.2L353.65 340.2M353.65 340.2L353.48 339.98M354.48 340.2L354.48 339.31M354.48 339.31L354.81 339.31M354.81 339.76L354.48 339.76M354.48 339.76L354.98 339.76M354.98 340.2L354.48 340.2M354.81 339.76L354.98 339.53M354.98 339.53L354.81 339.31M354.98 340.2L355.14 339.98M355.14 339.98L354.98 339.76M355.48 339.98L355.48 339.53M355.48 339.53L355.64 339.31M355.64 339.31L355.97 339.31M355.97 339.31L356.14 339.53M356.14 339.53L356.14 339.31M356.14 339.31L356.14 340.2M356.14 340.2L356.14 339.98M356.14 339.98L355.97 340.2M355.97 340.2L355.64 340.2M355.64 340.2L355.48 339.98M356.47 340.2L356.8 339.31M356.8 339.31L357.14 339.31M357.14 339.31L357.14 340.2"
fill="none" stroke="black" stroke-width="3"/>
</g>
<g><path d="M41.67 63.75L40.49 63.75"
fill="none" stroke="black" stroke-width="3"/>
</g>
<g><path d="M200 61.46L200 59.09"
fill="none" stroke="black" stroke-width="3"/>
</g>
<g><path d="M100.37 61.46L100.37 59.09"
fill="none" stroke="black" stroke-width="3"/>
</g>
<g><path d="M299.63 338.54L299.63 340.91"
fill="none" stroke="black" stroke-width="3"/>
</g>
<g><path d="M200 338.54L200 340.91"
fill="none" stroke="black" stroke-width="3"/>
</g>
<g><path d="M100.37 338.54L100.37 340.91"
fill="none" stroke="black" stroke-width="3"/>
</g>
<g><path d="M6.33 81.41L5 81.41M5 81.41L5 80.75M5 80.75L6.33 80.75M5.88 80.42L5.88 79.92M5.88 79.92L5.66 79.75M5.66 79.75L5.44 79.92M5.44 79.92L5.44 80.25M5.44 80.25L5.66 80.42M5.66 80.42L6.11 80.42M6.11 80.42L6.33 80.25M6.33 80.25L6.33 79.92M6.33 79.42L5.44 79.42M5.44 79.42L5.44 78.92M5.44 78.92L5.66 78.76M5.66 78.76L5.88 78.76M5.88 78.76L6.11 78.92M6.11 78.92L6.11 79.42M6.33 78.42L5.44 78.42M5.44 78.42L5.44 78.09M5.88 78.09L5.88 78.42M5.88 78.42L5.88 77.93M6.33 77.93L6.33 78.42M5.88 78.09L5.66 77.93M5.66 77.93L5.44 78.09M6.33 77.93L6.11 77.76M6.11 77.76L5.88 77.93M6.33 77.43L6.11 77.43M6.33 76.1L5.44 76.1M5.44 76.1L5.44 75.44M5.44 75.44L6.33 75.44M6.33 75.1L5.44 75.1M5.44 75.1L5.44 74.61M5.44 74.61L5.66 74.44M5.66 74.44L5.88 74.44M5.88 74.44L6.11 74.61M6.11 74.61L6.11 75.1M5.44 74.11L6.33 74.11M6.33 74.11L5.44 73.44M5.44 73.44L6.33 73.44M6.33 73.11L5.44 73.11M5.44 73.11L5.88 72.78M5.88 72.78L5.44 72.45M5.44 72.45L6.33 72.45M5.88 72.11L5.88 71.62M5.88 71.62L5.66 71.45M5.66 71.45L5.44 71.62M5.44 71.62L5.44 71.95M5.44 71.95L5.66 72.11M5.66 72.11L6.11 72.11M6.11 72.11L6.33 71.95M6.33 71.95L6.33 71.62M6.33 71.12L5.44 71.12M5.44 71.12L5.88 71.12M5.88 71.12L5.88 70.45M5.88 70.45L5.44 70.45M5.44 70.45L6.33 70.45M6.33 70.12L6.11 70.12"
fill="none" stroke="black" stroke-width="3"/>
</g>
<g><path d="M6.21 106.34L6.43 106.51M6.43 106.51L6.43 106.84M6.43 106.84L6.21 107.01M6.21 107.01L5.32 107.01M5.32 107.01L5.1 106.84M5.1 106.84L5.1 106.51M5.1 106.51L5.32 106.34M6.43 106.01L5.54 106.01M5.54 106.01L5.54 105.35M5.54 105.35L6.43 105.35M6.43 105.02L5.54 105.02M5.54 105.02L5.54 104.52M5.54 104.52L5.76 104.35M5.76 104.35L5.98 104.35M5.98 104.35L6.21 104.52M6.21 104.52L6.21 105.02M6.21 104.02L5.76 104.02M5.76 104.02L5.54 103.85M5.54 103.85L5.54 103.52M5.54 103.52L5.76 103.36M5.76 103.36L5.54 103.36M5.54 103.36L6.43 103.36M6.43 103.36L6.21 103.36M6.21 103.36L6.43 103.52M6.43 103.52L6.43 103.85M6.43 103.85L6.21 104.02M6.43 103.02L5.54 103.02M5.54 103.02L5.54 102.69M5.98 102.69L5.98 103.02M5.98 103.02L5.98 102.53M6.43 102.53L6.43 103.02M5.98 102.69L5.76 102.53M5.76 102.53L5.54 102.69M6.43 102.53L6.21 102.36M6.21 102.36L5.98 102.53M6.43 102.03L6.21 102.03M6.43 100.7L5.1 100.7M5.1 100.7L6.43 100.03M6.43 100.03L5.1 100.03"
fill="none" stroke="black" stroke-width="3"/>
</g>
<g><path d="M6.09 284.04L4.76 284.04M4.76 284.04L4.76 283.38M4.76 283.38L6.09 283.38M5.87 283.05L5.43 283.05M5.43 283.05L5.21 282.88M5.21 282.88L5.21 282.55M5.21 282.55L5.43 282.38M5.43 282.38L5.87 282.38M5.87 282.38L6.09 282.55M6.09 282.55L6.09 282.88M6.09 282.88L5.87 283.05M6.31 282.05L6.09 282.05M6.09 282.05L6.09 281.88M6.09 281.88L5.43 281.88M5.43 281.88L5.21 281.72M5.21 281.72L5.21 281.55M5.21 281.55L6.09 281.55M6.09 281.55L6.09 281.88M6.09 281.88L6.09 281.39M6.09 281.39L6.31 281.39M6.09 281.05L5.21 281.05M5.21 281.05L5.21 280.39M5.21 280.39L6.09 280.39M6.09 280.06L5.87 280.06M5.21 278.73L6.09 278.73M6.09 278.73L5.21 278.07M5.21 278.07L6.09 278.07M6.31 276.74L6.09 276.74M6.09 276.74L6.09 276.57M6.09 276.57L5.43 276.57M5.43 276.57L5.21 276.4M5.21 276.4L5.21 276.24M5.21 276.24L6.09 276.24M6.09 276.24L6.09 276.57M6.09 276.57L6.09 276.07M6.09 276.07L6.31 276.07M5.87 275.74L5.43 275.74M5.43 275.74L5.21 275.57M5.21 275.57L5.21 275.24M5.21 275.24L5.43 275.08M5.43 275.08L5.21 275.08M5.21 275.08L6.09 275.08M6.09 275.08L5.87 275.08M5.87 275.08L6.09 275.24M6.09 275.24L6.09 275.57M6.09 275.57L5.87 275.74M6.09 274.41L5.21 274.41M5.21 274.41L5.21 274.74M5.21 274.74L5.21 274.08M5.87 273.75L5.43 273.75M5.43 273.75L5.21 273.58M5.21 273.58L5.21 273.25M5.21 273.25L5.43 273.08M5.43 273.08L5.21 273.08M5.21 273.08L6.09 273.08M6.09 273.08L5.87 273.08M5.87 273.08L6.09 273.25M6.09 273.25L6.09 273.58M6.09 273.58L5.87 273.75"
fill="none" stroke="black" stroke-width="3"/>
</g>
<g><path d="M6.21 297.77L5.32 297.11M5.32 297.11L6.21 297.11M6.21 297.11L4.88 297.11M4.88 297.77L6.21 297.77M6.21 296.77L5.32 296.77M5.32 296.77L5.76 296.77M5.76 296.77L5.76 296.11M5.76 296.11L5.32 296.11M5.32 296.11L6.21 296.11M6.21 295.78L5.32 295.78M5.32 295.78L5.32 295.45M5.76 295.45L5.76 295.78M5.76 295.78L5.76 295.28M6.21 295.28L6.21 295.78M5.76 295.45L5.54 295.28M5.54 295.28L5.32 295.45M6.21 295.28L5.98 295.11M5.98 295.11L5.76 295.28M6.21 294.78L5.98 294.78M6.21 293.45L4.88 293.45M4.88 293.45L6.21 292.79M6.21 292.79L4.88 292.79M6.43 291.46L6.21 291.46M6.21 291.46L6.21 291.29M6.21 291.29L5.54 291.29M5.54 291.29L5.32 291.13M5.32 291.13L5.32 290.96M5.32 290.96L6.21 290.96M6.21 290.96L6.21 291.29M6.21 291.29L6.21 290.8M6.21 290.8L6.43 290.8M5.98 290.46L6.21 290.3M6.21 290.3L6.21 289.97M6.21 289.97L5.98 289.8M5.98 289.8L5.32 289.8M5.32 289.8L5.76 289.8M5.76 289.8L5.76 290.13M5.76 290.13L5.32 290.46M5.32 288.97L5.32 289.47M5.32 289.47L6.21 289.47M6.21 289.47L6.21 288.97M6.21 288.97L5.98 288.8M5.98 288.8L5.76 288.97M5.76 288.97L5.76 289.47M6.21 288.47L5.32 288.14M5.32 288.14L5.32 287.81M5.32 287.81L6.21 287.81M6.21 287.48L5.98 287.48"
fill="none" stroke="black" stroke-width="3"/>
</g>
<g><path d="M6.21 324.53L4.88 324.53M4.88 324.53L4.88 323.87M4.88 323.87L6.21 323.87M5.98 323.53L5.54 323.53M5.54 323.53L5.32 323.37M5.32 323.37L5.32 323.04M5.32 323.04L5.54 322.87M5.54 322.87L5.98 322.87M5.98 322.87L6.21 323.04M6.21 323.04L6.21 323.37M6.21 323.37L5.98 323.53M6.43 322.54L6.21 322.54M6.21 322.54L6.21 322.37M6.21 322.37L5.54 322.37M5.54 322.37L5.32 322.21M5.32 322.21L5.32 322.04M5.32 322.04L6.21 322.04M6.21 322.04L6.21 322.37M6.21 322.37L6.21 321.87M6.21 321.87L6.43 321.87M6.21 321.54L5.32 321.54M5.32 321.54L5.32 320.88M5.32 320.88L6.21 320.88M6.21 320.54L5.98 320.54M5.32 319.22L6.21 319.22M6.21 319.22L5.32 318.55M5.32 318.55L6.21 318.55M6.43 317.22L6.21 317.22M6.21 317.22L6.21 317.06M6.21 317.06L5.54 317.06M5.54 317.06L5.32 316.89M5.32 316.89L5.32 316.73M5.32 316.73L6.21 316.73M6.21 316.73L6.21 317.06M6.21 317.06L6.21 316.56M6.21 316.56L6.43 316.56M5.98 316.23L5.54 316.23M5.54 316.23L5.32 316.06M5.32 316.06L5.32 315.73M5.32 315.73L5.54 315.56M5.54 315.56L5.32 315.56M5.32 315.56L6.21 315.56M6.21 315.56L5.98 315.56M5.98 315.56L6.21 315.73M6.21 315.73L6.21 316.06M6.21 316.06L5.98 316.23M6.21 314.9L5.32 314.9M5.32 314.9L5.32 315.23M5.32 315.23L5.32 314.57M5.98 314.23L5.54 314.23M5.54 314.23L5.32 314.07M5.32 314.07L5.32 313.74M5.32 313.74L5.54 313.57M5.54 313.57L5.32 313.57M5.32 313.57L6.21 313.57M6.21 313.57L5.98 313.57M5.98 313.57L6.21 313.74M6.21 313.74L6.21 314.07M6.21 314.07L5.98 314.23"
fill="none" stroke="black" stroke-width="3"/>
</g>
<g><path d="M6.21 338.12L5.32 337.46M5.32 337.46L6.21 337.46M6.21 337.46L4.88 337.46M4.88 338.12L6.21 338.12M6.21 337.12L5.32 337.12M5.32 337.12L5.76 337.12M5.76 337.12L5.76 336.46M5.76 336.46L5.32 336.46M5.32 336.46L6.21 336.46M6.21 336.13L5.32 336.13M5.32 336.13L5.32 335.8M5.76 335.8L5.76 336.13M5.76 336.13L5.76 335.63M6.21 335.63L6.21 336.13M5.76 335.8L5.54 335.63M5.54 335.63L5.32 335.8M6.21 335.63L5.98 335.46M5.98 335.46L5.76 335.63M6.21 335.13L5.98 335.13M6.21 333.8L4.88 333.8M4.88 333.8L6.21 333.14M6.21 333.14L4.88 333.14M6.21 331.81L5.32 331.81M5.32 331.81L5.32 331.15M5.32 331.15L6.21 331.15M5.98 330.81L5.54 330.81M5.54 330.81L5.32 330.65M5.32 330.65L5.32 330.32M5.32 330.32L5.54 330.15M5.54 330.15L5.98 330.15M5.98 330.15L6.21 330.32M6.21 330.32L6.21 330.65M6.21 330.65L5.98 330.81M6.43 329.82L6.21 329.82M6.21 329.82L6.21 329.65M6.21 329.65L5.54 329.65M5.54 329.65L5.32 329.49M5.32 329.49L5.32 329.32M5.32 329.32L6.21 329.32M6.21 329.32L6.21 329.65M6.21 329.65L6.21 329.15M6.21 329.15L6.43 329.15M6.21 328.82L5.32 328.49M5.32 328.49L5.32 328.16M5.32 328.16L6.21 328.16M6.21 327.83L5.98 327.83"
fill="none" stroke="black" stroke-width="3"/>
</g>
<g><path d="M309.29 323.94L309.91 323.12M309.91 323.12L309.91 323.94M309.91 323.94L309.91 322.71M309.29 322.71L309.29 323.94M310.22 323.33L310.37 323.12M310.37 323.12L310.68 323.12M310.68 323.12L310.83 323.33M310.83 323.33L310.68 323.53M310.68 323.53L310.53 323.53M310.53 323.53L310.68 323.53M310.68 323.53L310.83 323.74M310.83 323.74L310.68 323.94M310.68 323.94L310.37 323.94M310.37 323.94L310.22 323.74M311.14 323.94L311.14 323.12M311.14 323.12L311.45 323.53M311.45 323.53L311.76 323.12M311.76 323.12L311.76 323.94M312.07 323.94L312.07 323.74"
fill="none" stroke="black" stroke-width="3"/>
</g>
<g><path d="M312.75 323.93L312.91 323.93M312.91 323.93L313.37 322.7M313.37 322.7L313.52 322.7M313.52 322.7L313.52 323.93M313.83 323.11L313.83 323.93M313.83 323.93L314.45 323.11M314.45 323.11L314.45 323.93M315.37 323.73L315.22 323.93M315.22 323.93L314.91 323.93M314.91 323.93L314.76 323.73M314.76 323.73L314.76 323.31M314.76 323.31L314.91 323.11M314.91 323.11L315.22 323.11M315.22 323.11L315.37 323.31M315.99 323.93L315.99 323.11M315.99 323.11L315.68 323.11M315.68 323.11L316.3 323.11M316.61 323.93L316.61 323.73"
fill="none" stroke="black" stroke-width="3"/>
</g>
<g><path d="M318.95 323.84L318.95 322.61M318.95 322.61L319.57 323.84M319.57 323.84L319.57 322.61M320.8 324.05L320.8 323.84M320.8 323.84L320.95 323.84M320.95 323.84L320.95 323.23M320.95 323.23L321.11 323.02M321.11 323.02L321.26 323.02M321.26 323.02L321.26 323.84M321.26 323.84L320.95 323.84M320.95 323.84L321.42 323.84M321.42 323.84L321.42 324.05M321.72 323.64L321.72 323.23M321.72 323.23L321.88 323.02M321.88 323.02L322.19 323.02M322.19 323.02L322.34 323.23M322.34 323.23L322.34 323.64M322.34 323.64L322.19 323.84M322.19 323.84L321.88 323.84M321.88 323.84L321.72 323.64M322.65 323.84L322.65 323.02M322.65 323.02L322.65 323.43M322.65 323.43L322.96 323.43M322.96 323.43L323.27 323.02M323.27 323.02L322.96 323.43M322.96 323.43L323.27 323.84M323.57 323.64L323.73 323.84M323.73 323.84L324.04 323.84M324.04 323.84L324.19 323.64M324.19 323.64L324.19 323.02M324.19 323.02L324.19 323.43M324.19 323.43L323.88 323.43M323.88 323.43L323.57 323.02M324.5 323.84L324.5 323.02M324.5 323.02L324.81 323.43M324.81 323.43L325.12 323.02M325.12 323.02L325.12 323.84M325.42 323.84L325.42 323.64"
fill="none" stroke="black" stroke-width="3"/>
</g>
<g><path d="M329.67 323.71L329.67 322.47M329.67 322.47L330.29 322.47M330.29 322.47L330.29 323.71M330.6 323.5L330.6 323.09M330.6 323.09L330.75 322.89M330.75 322.89L331.06 322.89M331.06 322.89L331.21 323.09M331.21 323.09L331.21 323.5M331.21 323.5L331.06 323.71M331.06 323.71L330.75 323.71M330.75 323.71L330.6 323.5M331.52 323.91L331.52 323.71M331.52 323.71L331.67 323.71M331.67 323.71L331.67 323.09M331.67 323.09L331.83 322.89M331.83 322.89L331.98 322.89M331.98 322.89L331.98 323.71M331.98 323.71L331.67 323.71M331.67 323.71L332.14 323.71M332.14 323.71L332.14 323.91M332.45 323.71L332.45 322.89M332.45 322.89L333.06 322.89M333.06 322.89L333.06 323.71M333.37 323.71L333.37 323.5"
fill="none" stroke="black" stroke-width="3"/>
</g>
<g><path d="M374 321.29L374.17 321.29M374.17 321.29L374.67 319.96M374.67 319.96L374.83 319.96M374.83 319.96L374.83 321.29M375.17 320.4L375.17 321.29M375.17 321.29L375.83 320.4M375.83 320.4L375.83 321.29M376.49 321.29L376.49 320.4M376.49 320.4L376.16 320.4M376.16 320.4L376.83 320.4M377.16 320.85L377.66 320.85M377.66 320.85L377.82 320.63M377.82 320.63L377.66 320.4M377.66 320.4L377.32 320.4M377.32 320.4L377.16 320.63M377.16 320.63L377.16 321.07M377.16 321.07L377.32 321.29M377.32 321.29L377.66 321.29M378.15 321.29L378.15 320.4M378.15 320.4L378.65 320.4M378.65 320.4L378.82 320.63M378.82 320.63L378.82 320.85M378.82 320.85L378.65 321.07M378.65 321.07L378.15 321.07M379.15 321.29L379.15 321.07"
fill="none" stroke="black" stroke-width="3"/>
</g>
<g><path d="M373.93 330.91L374.09 330.91M374.09 330.91L374.59 329.59M374.59 329.59L374.76 329.59M374.76 329.59L374.76 330.91M375.09 330.03L375.09 330.91M375.09 330.91L375.75 330.03M375.75 330.03L375.75 330.91M376.75 330.69L376.58 330.91M376.58 330.91L376.25 330.91M376.25 330.91L376.09 330.69M376.09 330.69L376.09 330.25M376.09 330.25L376.25 330.03M376.25 330.03L376.58 330.03M376.58 330.03L376.75 330.25M377.41 330.91L377.41 330.03M377.41 330.03L377.08 330.03M377.08 330.03L377.75 330.03"
fill="none" stroke="black" stroke-width="3"/>
</g>
<g><path d="M383.44 330.87L383.61 330.87M383.61 330.87L384.11 329.55M384.11 329.55L384.27 329.55M384.27 329.55L384.27 330.87M384.6 329.99L384.6 330.87M384.6 330.87L385.27 329.99M385.27 329.99L385.27 330.87M386.26 330.65L386.1 330.87M386.1 330.87L385.77 330.87M385.77 330.87L385.6 330.65M385.6 330.65L385.6 330.21M385.6 330.21L385.77 329.99M385.77 329.99L386.1 329.99M386.1 329.99L386.26 330.21M386.93 330.87L386.93 329.99M386.93 329.99L386.6 329.99M386.6 329.99L387.26 329.99M387.59 330.65L387.59 330.21M387.59 330.21L387.76 329.99M387.76 329.99L388.09 329.99M388.09 329.99L388.26 330.21M388.26 330.21L388.26 330.65M388.26 330.65L388.09 330.87M388.09 330.87L387.76 330.87M387.76 330.87L387.59 330.65M388.59 330.87L388.59 329.99M388.59 329.99L388.92 329.99M388.92 330.43L388.59 330.43M388.59 330.43L389.09 330.43M389.09 330.87L388.59 330.87M388.92 330.43L389.09 330.21M389.09 330.21L388.92 329.99M389.09 330.87L389.25 330.65M389.25 330.65L389.09 330.43"
fill="none" stroke="black" stroke-width="3"/>
</g>
<g><path d="M381.78 321.29L381.78 319.96M381.78 319.96L382.11 320.85M382.11 320.85L382.44 319.96M382.44 319.96L382.44 321.29M382.77 321.07L382.77 320.63M382.77 320.63L382.94 320.4M382.94 320.4L383.27 320.4M383.27 320.4L383.44 320.63M383.44 320.63L383.44 320.4M383.44 320.4L383.44 321.29M383.44 321.29L383.44 321.07M383.44 321.07L383.27 321.29M383.27 321.29L382.94 321.29M382.94 321.29L382.77 321.07M384.43 321.07L384.27 321.29M384.27 321.29L383.94 321.29M383.94 321.29L383.77 321.07M383.77 321.07L383.77 320.63M383.77 320.63L383.94 320.4M383.94 320.4L384.27 320.4M384.27 320.4L384.43 320.63M385.43 321.07L385.26 321.29M385.26 321.29L384.93 321.29M384.93 321.29L384.77 321.07M384.77 321.07L384.77 320.63M384.77 320.63L384.93 320.4M384.93 320.4L385.26 320.4M385.26 320.4L385.43 320.63M385.76 321.07L385.76 320.63M385.76 320.63L385.93 320.4M385.93 320.4L386.26 320.4M386.26 320.4L386.43 320.63M386.43 320.63L386.43 320.4M386.43 320.4L386.43 321.29M386.43 321.29L386.43 321.07M386.43 321.07L386.26 321.29M386.26 321.29L385.93 321.29M385.93 321.29L385.76 321.07"
fill="none" stroke="black" stroke-width="3"/>
</g>
<g><path d="M388.67 321.29L388.67 319.96M388.67 319.96L389 320.85M389 320.85L389.33 319.96M389.33 319.96L389.33 321.29M389.66 321.07L389.66 320.63M389.66 320.63L389.83 320.4M389.83 320.4L390.16 320.4M390.16 320.4L390.33 320.63M390.33 320.63L390.33 320.4M390.33 320.4L390.33 321.29M390.33 321.29L390.33 321.07M390.33 321.07L390.16 321.29M390.16 321.29L389.83 321.29M389.83 321.29L389.66 321.07M391.32 321.07L391.16 321.29M391.16 321.29L390.83 321.29M390.83 321.29L390.66 321.07M390.66 321.07L390.66 320.63M390.66 320.63L390.83 320.4M390.83 320.4L391.16 320.4M391.16 320.4L391.32 320.63M391.66 321.29L391.66 320.4M391.66 320.4L391.66 321.29M391.66 321.29L391.99 321.29M391.99 321.29L391.99 320.85M391.99 320.85L391.99 321.29M391.99 321.29L392.32 321.29M392.32 321.29L392.32 320.4M392.98 321.29L392.98 320.4M392.98 320.4L392.65 320.4M392.65 320.4L393.32 320.4M393.65 321.07L393.65 320.63M393.65 320.63L393.81 320.4M393.81 320.4L394.15 320.4M394.15 320.4L394.31 320.63M394.31 320.63L394.31 320.4M394.31 320.4L394.31 321.29M394.31 321.29L394.31 321.07M394.31 321.07L394.15 321.29M394.15 321.29L393.81 321.29M393.81 321.29L393.65 321.07M395.14 320.4L394.64 320.4M394.64 320.4L394.64 321.29M394.64 321.29L395.14 321.29M395.14 321.29L395.31 321.07M395.31 321.07L395.14 320.85M395.14 320.85L394.64 320.85"
fill="none" stroke="black" stroke-width="3"/>
</g>
<g><path d="M346.4 326.36L347.58 326.36"
fill="none" stroke="black" stroke-width="3"/>
</g>
<g><path d="M350.23 318.11L351.89 318.11"
fill="none" stroke="black" stroke-width="3"/>
</g>
<g><path d="M380.68 330.91L381.35 330.91"
fill="none" stroke="black" stroke-width="3"/>
</g>
<g><path d="M394.54 330.91L395.2 330.91"
fill="none" stroke="black" stroke-width="3"/>
</g>
<g><path d="M374.1 325.72L374.1 325.27M374.1 325.27L374.27 325.05M374.27 325.05L374.6 325.05M374.6 325.05L374.76 325.27M374.76 325.27L374.76 325.05M374.76 325.05L374.76 325.94M374.76 325.94L374.76 325.72M374.76 325.72L374.6 325.94M374.6 325.94L374.27 325.94M374.27 325.94L374.1 325.72"
fill="none" stroke="black" stroke-width="3"/>
</g>
<g><path d="M381.62 325.9L382.28 325.9"
fill="none" stroke="black" stroke-width="3"/>
</g>
<g><path d="M347.22 337.53L348.17 337.53"
fill="none" stroke="black" stroke-width="3"/>
</g>
<g><path d="M347.26 334.23L348.21 334.23"
fill="none" stroke="black" stroke-width="3"/>
</g>
<g><path d="M340.49 335.66L341.44 335.66"
fill="none" stroke="black" stroke-width="3"/>
</g>
<g><path d="M335.48 323.86L335.48 323.66M335.48 323.66L336.22 323.66M336.22 323.66L336.22 322.47M336.22 322.47L335.92 322.47M335.92 322.47L335.63 323.26M335.63 323.26L335.63 323.66M335.63 323.66L336.37 323.66M336.37 323.66L336.37 323.86M336.67 323.46L336.67 323.07M336.67 323.07L336.81 322.87M336.81 322.87L337.11 322.87M337.11 322.87L337.26 323.07M337.26 323.07L337.26 322.87M337.26 322.87L337.26 323.66M337.26 323.66L337.26 323.46M337.26 323.46L337.11 323.66M337.11 323.66L336.81 323.66M336.81 323.66L336.67 323.46M337.85 323.66L337.85 322.87M337.85 322.87L337.56 322.87M337.56 322.87L338.15 322.87M338.44 323.46L338.44 323.07M338.44 323.07L338.59 322.87M338.59 322.87L338.89 322.87M338.89 322.87L339.04 323.07M339.04 323.07L339.04 322.87M339.04 322.87L339.04 323.66M339.04 323.66L339.04 323.46M339.04 323.46L338.89 323.66M338.89 323.66L338.59 323.66M338.59 323.66L338.44 323.46"
fill="none" stroke="black" stroke-width="3"/>
</g>
<g><path d="M42.02 62.98L40.83 62.98"
fill="none" stroke="black" stroke-width="3"/>
</g>
<g><path d="M311.58 305.17L311.85 304.82M311.85 304.82L312.38 304.82M312.38 304.82L312.65 305.17M312.65 305.17L312.65 305.53M312.65 305.53L312.38 305.89M312.38 305.89L311.85 305.89M311.85 305.89L311.58 306.24M311.58 306.24L311.58 306.95M311.58 306.95L312.65 306.95M313.18 306.95L313.18 306.6M315.32 306.6L315.32 305.17M315.32 305.17L315.58 304.82M315.58 304.82L316.12 304.82M316.12 304.82L316.38 305.17M316.38 305.17L316.38 306.6M316.38 306.6L316.12 306.95M316.12 306.95L315.58 306.95M315.58 306.95L315.32 306.6M317.99 306.6L317.72 306.95M317.72 306.95L317.19 306.95M317.19 306.95L316.92 306.6M316.92 306.6L316.92 305.89M316.92 305.89L317.19 305.53M317.19 305.53L317.72 305.53M317.72 305.53L317.99 305.89M319.05 306.95L319.05 305.53M319.05 305.53L318.52 305.53M318.52 305.53L319.59 305.53M320.12 306.95L320.12 305.53M320.12 305.53L320.92 305.53M320.92 305.53L321.19 305.89M321.19 305.89L321.19 306.24M321.19 306.24L320.92 306.6M320.92 306.6L320.12 306.6M321.72 306.95L321.72 305.53M321.72 305.53L321.72 306.24M321.72 306.24L322.26 306.24M322.26 306.24L322.52 306.6M322.52 306.6L322.26 306.95M322.26 306.95L321.72 306.95M322.79 306.95L322.79 305.53M323.32 306.24L324.12 306.24M324.12 306.24L324.39 305.89M324.39 305.89L324.12 305.53M324.12 305.53L323.59 305.53M323.59 305.53L323.32 305.89M323.32 305.89L323.32 306.6M323.32 306.6L323.59 306.95M323.59 306.95L324.12 306.95M326.53 306.95L326.53 305.53M326.53 305.53L326.53 306.24M326.53 306.24L327.06 306.24M327.06 306.24L327.59 305.53M327.59 305.53L327.06 306.24M327.06 306.24L327.59 306.95M328.13 306.95L328.13 305.53M328.13 305.53L328.93 305.53M328.93 305.53L329.19 305.89M329.19 305.89L329.19 306.24M329.19 306.24L328.93 306.6M328.93 306.6L328.13 306.6M329.73 306.6L329.73 305.89M329.73 305.89L330 305.53M330 305.53L330.53 305.53M330.53 305.53L330.8 305.89M330.8 305.89L330.8 306.6M330.8 306.6L330.53 306.95M330.53 306.95L330 306.95M330 306.95L329.73 306.6M331.33 306.95L331.33 305.53M331.33 305.53L331.86 306.24M331.86 306.24L332.4 305.53M332.4 305.53L332.4 306.95M332.93 306.95L332.93 305.53M332.93 305.53L332.93 306.24M332.93 306.24L333.46 306.24M333.46 306.24L334 305.53M334 305.53L333.46 306.24M333.46 306.24L334 306.95M334.53 305.53L334.53 306.95M334.53 306.95L335.6 305.53M335.6 305.53L335.6 306.95M338.8 306.6L338.54 306.95M338.54 306.95L338 306.95M338 306.95L337.73 306.6M337.73 306.6L337.73 305.89M337.73 305.89L338 305.53M338 305.53L338.54 305.53M338.54 305.53L338.8 305.89M339.34 306.95L339.34 305.53M339.34 305.53L339.34 306.24M339.34 306.24L339.87 306.24M339.87 306.24L340.4 305.53M340.4 305.53L339.87 306.24M339.87 306.24L340.4 306.95M340.94 306.95L340.94 305.53M340.94 305.53L341.74 305.53M341.74 305.53L342 305.89M342 305.89L342 306.24M342 306.24L341.74 306.6M341.74 306.6L340.94 306.6M342.54 306.6L342.81 306.95M342.81 306.95L343.34 306.95M343.34 306.95L343.61 306.6M343.61 306.6L343.61 305.53M343.61 305.53L343.61 306.24M343.61 306.24L343.07 306.24M343.07 306.24L342.54 305.53M344.14 306.95L344.14 305.53M344.14 305.53L344.94 305.53M345.47 306.95L346.01 305.53M346.01 305.53L346.54 305.53M346.54 305.53L346.54 306.95M347.08 305.53L347.08 306.95M347.08 306.95L348.14 305.53M348.14 305.53L348.14 306.95M349.21 306.95L349.21 305.53M349.21 305.53L348.68 305.53M348.68 305.53L349.74 305.53M350.28 306.95L350.28 305.53M350.28 305.53L350.28 306.24M350.28 306.24L350.81 306.24M350.81 306.24L351.08 306.6M351.08 306.6L350.81 306.95M350.81 306.95L350.28 306.95M353.21 306.95L353.21 304.82M353.21 304.82L354.01 304.82M354.01 304.82L354.28 305.17M354.28 305.17L354.28 305.53M354.28 305.53L354.01 305.89M354.01 305.89L353.21 305.89M353.48 305.89L354.28 306.95M355.08 306.95L354.81 306.6M354.81 306.6L354.81 305.17M354.81 305.17L355.08 304.82M355.08 304.82L355.35 304.82M355.35 304.82L355.62 305.17M355.62 305.17L355.62 306.6M355.62 306.6L355.35 306.95M355.35 306.95L355.08 306.95M356.42 306.6L356.42 306.95M356.42 306.95L356.15 307.31M356.95 305.17L357.22 304.82M357.22 304.82L357.22 306.95M356.95 306.95L357.48 306.95M358.02 306.95L358.02 306.6M358.55 306.95L358.55 306.6M359.08 306.95L359.08 306.6M359.89 306.95L359.62 306.6M359.62 306.6L359.62 305.17M359.62 305.17L359.89 304.82M359.89 304.82L360.15 304.82M360.15 304.82L360.42 305.17M360.42 305.17L360.42 306.6M360.42 306.6L360.15 306.95M360.15 306.95L359.89 306.95M361.22 306.6L361.22 306.95M361.22 306.95L360.95 307.31M361.75 305.17L362.02 304.82M362.02 304.82L362.55 304.82M362.55 304.82L362.82 305.17M362.82 305.17L362.82 305.53M362.82 305.53L362.55 305.89M362.55 305.89L362.02 305.89M362.02 305.89L361.75 306.24M361.75 306.24L361.75 306.95M361.75 306.95L362.82 306.95M363.35 306.95L363.35 306.6"
fill="none" stroke="black" stroke-width="3"/>
</g>
<g><path d="M376.52 340.2L376.52 338.87M376.52 338.87L376.36 338.87M376.36 338.87L376.19 339.09M376.19 339.09L376.19 339.53M376.19 339.53L376.36 339.76M376.36 339.76L376.69 339.76M376.69 339.76L376.85 339.53M376.85 339.53L376.85 339.09M376.85 339.09L376.69 338.87M376.69 338.87L376.52 338.87M377.19 339.98L377.19 339.53M377.19 339.53L377.35 339.31M377.35 339.31L377.68 339.31M377.68 339.31L377.85 339.53M377.85 339.53L377.85 339.98M377.85 339.98L377.68 340.2M377.68 340.2L377.35 340.2M377.35 340.2L377.19 339.98M378.18 340.2L378.18 339.31M378.18 339.31L378.68 339.31M378.68 339.31L378.85 339.53M378.85 339.53L378.85 339.76M378.85 339.76L378.68 339.98M378.68 339.98L378.18 339.98M379.18 340.2L379.18 339.31M379.18 339.31L379.51 339.76M379.51 339.76L379.84 339.31M379.84 339.31L379.84 340.2M380.18 339.98L380.18 339.53M380.18 339.53L380.34 339.31M380.34 339.31L380.67 339.31M380.67 339.31L380.84 339.53M380.84 339.53L380.84 339.31M380.84 339.31L380.84 340.2M380.84 340.2L380.84 339.98M380.84 339.98L380.67 340.2M380.67 340.2L380.34 340.2M380.34 340.2L380.18 339.98M381.5 340.2L381.5 339.31M381.5 339.31L381.17 339.31M381.17 339.31L381.84 339.31M383.16 340.2L383.16 339.76M383.16 339.76L383.5 338.87M383.5 338.87L383.83 339.76M383.83 339.76L383.83 340.2M383.16 339.76L383.83 339.76M384.16 339.09L384.33 338.87M384.33 338.87L384.33 340.2M384.16 340.2L384.49 340.2M385.82 340.2L385.82 338.87M385.82 338.87L386.49 338.87M386.49 338.87L386.49 339.09M386.82 339.98L386.82 339.09M386.82 339.09L386.98 338.87M386.98 338.87L387.32 338.87M387.32 338.87L387.48 339.09M387.48 339.09L387.48 339.98M387.48 339.98L387.32 340.2M387.32 340.2L386.98 340.2M386.98 340.2L386.82 339.98M388.48 339.98L388.31 340.2M388.31 340.2L387.98 340.2M387.98 340.2L387.81 339.98M387.81 339.98L387.81 339.09M387.81 339.09L387.98 338.87M387.98 338.87L388.31 338.87M388.31 338.87L388.48 339.09M388.81 338.87L389.47 338.87M389.14 338.87L389.14 340.2M390.8 339.09L390.97 338.87M390.97 338.87L391.3 338.87M391.3 338.87L391.47 339.09M391.47 339.09L391.47 339.31M391.47 339.31L391.3 339.53M391.3 339.53L390.97 339.53M390.97 339.53L390.8 339.76M390.8 339.76L390.8 340.2M390.8 340.2L391.47 340.2M391.8 340.2L391.8 339.98M392.13 339.09L392.3 338.87M392.3 338.87L392.63 338.87M392.63 338.87L392.8 339.09M392.8 339.09L392.8 339.31M392.8 339.31L392.63 339.53M392.63 339.53L392.46 339.53M392.63 339.53L392.8 339.76M392.8 339.76L392.8 339.98M392.8 339.98L392.63 340.2M392.63 340.2L392.3 340.2M392.3 340.2L392.13 339.98M393.29 340.2L393.13 339.98M393.13 339.98L393.13 339.09M393.13 339.09L393.29 338.87M393.29 338.87L393.46 338.87M393.46 338.87L393.63 339.09M393.63 339.09L393.63 339.98M393.63 339.98L393.46 340.2M393.46 340.2L393.29 340.2M393.96 339.09L394.12 338.87M394.12 338.87L394.12 340.2M393.96 340.2L394.29 340.2"
fill="none" stroke="black" stroke-width="3"/>
</g>
<g><path d="M309.61 326.12L309.61 324.79M309.61 324.79L310.1 324.79M310.1 324.79L310.27 325.01M310.27 325.01L310.27 325.23M310.27 325.23L310.1 325.45M310.1 325.45L309.61 325.45M310.6 325.89L310.6 325.45M310.6 325.45L310.77 325.23M310.77 325.23L311.1 325.23M311.1 325.23L311.27 325.45M311.27 325.45L311.27 325.23M311.27 325.23L311.27 326.12M311.27 326.12L311.27 325.89M311.27 325.89L311.1 326.12M311.1 326.12L310.77 326.12M310.77 326.12L310.6 325.89M311.6 325.45L311.76 325.23M311.76 325.23L312.1 325.23M312.1 325.23L312.26 325.45M312.26 325.45L312.1 325.67M312.1 325.67L311.93 325.67M311.93 325.67L312.1 325.67M312.1 325.67L312.26 325.89M312.26 325.89L312.1 326.12M312.1 326.12L311.76 326.12M311.76 326.12L311.6 325.89M312.59 326.12L312.59 325.23M312.59 325.23L313.09 325.23M313.09 325.23L313.26 325.45M313.26 325.45L313.26 325.67M313.26 325.67L313.09 325.89M313.09 325.89L312.59 325.89M313.59 325.89L313.59 325.45M313.59 325.45L313.76 325.23M313.76 325.23L314.09 325.23M314.09 325.23L314.25 325.45M314.25 325.45L314.25 325.23M314.25 325.23L314.25 326.12M314.25 326.12L314.25 325.89M314.25 325.89L314.09 326.12M314.09 326.12L313.76 326.12M313.76 326.12L313.59 325.89M315.08 325.23L314.59 325.23M314.59 325.23L314.59 326.12M314.59 326.12L315.08 326.12M315.08 326.12L315.25 325.89M315.25 325.89L315.08 325.67M315.08 325.67L314.59 325.67M315.58 326.12L315.58 325.89"
fill="none" stroke="black" stroke-width="3"/>
</g>
<g><path d="M309.61 328.57L309.61 327.25M309.61 327.25L310.27 327.25M310.27 327.25L310.27 328.57M310.61 328.57L310.61 327.69M310.61 327.69L311.1 327.69M311.1 327.69L311.27 327.91M311.27 327.91L311.27 328.13M311.27 328.13L311.1 328.35M311.1 328.35L310.61 328.35M311.6 328.35L311.6 327.91M311.6 327.91L311.77 327.69M311.77 327.69L312.1 327.69M312.1 327.69L312.27 327.91M312.27 327.91L312.27 328.35M312.27 328.35L312.1 328.57M312.1 328.57L311.77 328.57M311.77 328.57L311.6 328.35M312.6 328.57L312.6 327.69M312.6 327.69L312.93 327.69M312.93 328.13L312.6 328.13M312.6 328.13L313.1 328.13M313.1 328.57L312.6 328.57M312.93 328.13L313.1 327.91M313.1 327.91L312.93 327.69M313.1 328.57L313.26 328.35M313.26 328.35L313.1 328.13M313.59 328.57L313.59 328.35"
fill="none" stroke="black" stroke-width="3"/>
</g>
<g><path d="M309.61 329.62L310.27 329.62M309.94 329.62L309.94 330.95M310.61 330.95L310.61 330.73M310.94 330.95L310.94 330.06M310.94 330.06L310.94 330.5M310.94 330.5L311.27 330.5M311.27 330.5L311.6 330.06M311.6 330.06L311.27 330.5M311.27 330.5L311.6 330.95M311.93 330.73L311.93 330.28M311.93 330.28L312.1 330.06M312.1 330.06L312.43 330.06M312.43 330.06L312.6 330.28M312.6 330.28L312.6 330.73M312.6 330.73L312.43 330.95M312.43 330.95L312.1 330.95M312.1 330.95L311.93 330.73M312.93 330.95L312.93 330.06M312.93 330.06L312.93 330.5M312.93 330.5L313.59 330.5M313.59 330.5L313.59 330.06M313.59 330.06L313.59 330.95M314.26 330.95L314.26 330.06M314.26 330.06L313.93 330.06M313.93 330.06L314.59 330.06M314.92 330.95L314.92 330.06M314.92 330.06L315.42 330.06M315.42 330.06L315.59 330.28M315.59 330.28L315.59 330.5M315.59 330.5L315.42 330.73M315.42 330.73L314.92 330.73M315.92 330.95L315.92 330.73"
fill="none" stroke="black" stroke-width="3"/>
</g>
<g><path d="M309.61 335.69L309.61 334.36M309.61 335.03L310.27 335.03M310.27 334.36L310.27 335.69M310.61 335.69L310.61 335.47M310.94 335.69L310.94 334.81M310.94 334.81L310.94 335.25M310.94 335.25L311.27 335.25M311.27 335.25L311.6 334.81M311.6 334.81L311.27 335.25M311.27 335.25L311.6 335.69M311.93 335.47L311.93 335.03M311.93 335.03L312.1 334.81M312.1 334.81L312.43 334.81M312.43 334.81L312.6 335.03M312.6 335.03L312.6 335.47M312.6 335.47L312.43 335.69M312.43 335.69L312.1 335.69M312.1 335.69L311.93 335.47M312.93 335.69L312.93 334.81M312.93 334.81L312.93 335.25M312.93 335.25L313.59 335.25M313.59 335.25L313.59 334.81M313.59 334.81L313.59 335.69M314.26 335.69L314.26 334.81M314.26 334.81L313.93 334.81M313.93 334.81L314.59 334.81M314.92 335.69L314.92 334.81M314.92 334.81L315.42 334.81M315.42 334.81L315.59 335.03M315.59 335.03L315.59 335.25M315.59 335.25L315.42 335.47M315.42 335.47L314.92 335.47M315.92 335.69L315.92 335.47"
fill="none" stroke="black" stroke-width="3"/>
</g>
<g><path d="M309.61 337.84L309.77 338.06M309.77 338.06L310.11 338.06M310.11 338.06L310.27 337.84M310.27 337.84L310.27 336.73M310.27 336.73L310.27 337.62M310.27 337.62L309.77 337.62M309.77 337.62L309.61 337.4M309.61 337.4L309.61 336.73M310.94 338.06L310.94 337.18M310.94 337.18L310.61 337.18M310.61 337.18L311.27 337.18M311.6 338.06L311.6 337.18M311.6 337.18L311.93 337.18M311.93 337.62L311.6 337.62M311.6 337.62L312.1 337.62M312.1 338.06L311.6 338.06M311.93 337.62L312.1 337.4M312.1 337.4L311.93 337.18M312.1 338.06L312.27 337.84M312.27 337.84L312.1 337.62M312.6 338.06L312.6 337.84"
fill="none" stroke="black" stroke-width="3"/>
</g>
<g><path d="M397.91 338.5L397.34 338.5M397.34 338.22L397.63 338.43M397.63 338.43L397.63 338.5M397.63 338.43L397.91 338.22M397.91 338.08L397.34 338.08M397.34 338.08L397.34 337.79M397.34 337.79L397.91 337.79M397.91 337.79L397.91 338.08M397.91 337.65L397.34 337.65M397.34 337.65L397.91 337.37M397.91 337.37L397.34 337.37M397.82 337.22L397.91 337.15M397.91 337.15L397.91 337.01M397.91 337.01L397.82 336.94M397.82 336.94L397.44 337.22M397.44 337.22L397.34 337.15M397.34 337.15L397.34 337.01M397.34 337.01L397.44 336.94M397.91 336.8L397.34 336.8M397.34 336.8L397.34 336.51M397.63 336.8L397.63 336.65M397.91 336.8L397.91 336.51M397.91 336.37L397.34 336.08M397.34 336.37L397.91 336.08M397.91 335.94L397.34 335.94M397.34 335.94L397.34 335.73M397.34 335.73L397.44 335.66M397.44 335.66L397.53 335.66M397.53 335.66L397.63 335.73M397.63 335.73L397.63 335.94M397.91 335.51L397.34 335.51M397.34 335.51L397.34 335.23M397.63 335.51L397.63 335.37M397.91 335.51L397.91 335.23M397.91 335.09L397.34 335.09M397.34 335.09L397.34 334.87M397.34 334.87L397.44 334.8M397.44 334.8L397.53 334.8M397.53 334.8L397.63 334.87M397.63 334.87L397.63 335.09M397.63 335.02L397.91 334.8M397.34 334.66L397.34 334.38M397.34 334.52L397.91 334.52M397.72 333.52L397.91 333.66M397.91 333.66L397.91 333.74M397.91 333.74L397.82 333.81M397.82 333.81L397.72 333.81M397.72 333.81L397.53 333.66M397.53 333.66L397.44 333.66M397.44 333.66L397.34 333.74M397.34 333.74L397.44 333.81M397.44 333.81L397.53 333.81M397.53 333.81L397.91 333.52M397.91 332.95L397.34 332.95M397.34 332.95L397.34 332.74M397.34 332.74L397.44 332.67M397.44 332.67L397.53 332.67M397.53 332.67L397.63 332.74M397.63 332.74L397.63 332.95M397.63 332.88L397.91 332.67M397.34 332.53L397.34 332.38M397.34 332.45L397.91 332.45M397.91 332.53L397.91 332.38M397.91 332.24L397.91 332.03M397.91 332.03L397.82 331.96M397.82 331.96L397.72 331.96M397.72 331.96L397.63 332.03M397.63 332.03L397.63 332.17M397.63 332.03L397.53 331.96M397.53 331.96L397.44 331.96M397.44 331.96L397.34 332.03M397.34 332.03L397.34 332.24M397.34 332.17L397.91 332.17M397.91 331.81L397.91 331.6M397.91 331.6L397.82 331.53M397.82 331.53L397.72 331.53M397.72 331.53L397.63 331.6M397.63 331.6L397.63 331.74M397.63 331.6L397.53 331.53M397.53 331.53L397.44 331.53M397.44 331.53L397.34 331.6M397.34 331.6L397.34 331.81M397.34 331.74L397.91 331.74M397.91 331.39L397.34 331.39M397.34 331.39L397.34 331.1M397.34 331.1L397.91 331.1M397.91 331.1L397.91 331.39M397.91 330.96L397.34 330.96M397.34 330.96L397.91 330.68M397.91 330.68L397.34 330.68M397.82 330.53L397.91 330.46M397.91 330.46L397.91 330.32M397.91 330.32L397.82 330.25M397.82 330.25L397.44 330.53M397.44 330.53L397.34 330.46M397.34 330.46L397.34 330.32M397.34 330.32L397.44 330.25M397.91 330.11L397.34 330.11M397.34 330.11L397.34 329.82M397.34 329.82L397.91 329.82M397.91 329.82L397.91 330.11M397.91 329.68L397.34 329.68M397.34 329.68L397.34 329.39M397.63 329.68L397.63 329.54M397.34 329.25L397.34 328.97M397.34 329.11L397.91 329.11"
fill="none" stroke="black" stroke-width="3"/>
</g>
<g><path d="M398.77 337.53L398.2 337.53M398.2 337.53L398.2 337.25M398.2 337.25L398.77 337.25M398.77 337.25L398.77 337.53M398.77 337.1L398.2 337.1M398.2 337.1L398.2 336.89M398.2 336.89L398.3 336.82M398.3 336.82L398.39 336.82M398.39 336.82L398.49 336.89M398.49 336.89L398.49 337.1M398.77 336.68L398.2 336.68M398.2 336.68L398.2 336.39M398.49 336.68L398.49 336.53M398.77 336.68L398.77 336.39M398.77 336.25L398.2 336.25M398.2 336.25L398.77 335.96M398.77 335.96L398.2 335.96M398.68 335.39L398.77 335.32M398.77 335.32L398.77 335.18M398.77 335.18L398.68 335.11M398.68 335.11L398.3 335.39M398.3 335.39L398.2 335.32M398.2 335.32L398.2 335.18M398.2 335.18L398.3 335.11M398.77 334.97L398.2 334.97M398.2 334.97L398.2 334.68M398.2 334.68L398.77 334.68M398.77 334.68L398.77 334.97M398.2 334.54L398.68 334.54M398.68 334.54L398.77 334.47M398.77 334.47L398.77 334.33M398.77 334.33L398.68 334.26M398.68 334.26L398.2 334.26M398.77 334.11L398.2 334.11M398.2 334.11L398.2 333.9M398.2 333.9L398.3 333.83M398.3 333.83L398.39 333.83M398.39 333.83L398.49 333.9M398.49 333.9L398.49 334.11M398.49 334.04L398.77 333.83M398.68 333.4L398.77 333.47M398.77 333.47L398.77 333.62M398.77 333.62L398.68 333.69M398.68 333.69L398.3 333.69M398.3 333.69L398.2 333.62M398.2 333.62L398.2 333.47M398.2 333.47L398.3 333.4M398.77 333.26L398.2 333.26M398.2 333.26L398.2 332.98M398.49 333.26L398.49 333.12M398.77 333.26L398.77 332.98M398.77 332.41L398.2 332.41M398.2 332.41L398.2 332.19M398.2 332.19L398.3 332.12M398.3 332.12L398.39 332.12M398.39 332.12L398.49 332.19M398.49 332.19L398.49 332.41M398.49 332.33L398.77 332.12M398.77 331.98L398.2 331.98M398.2 331.98L398.2 331.69M398.49 331.98L398.49 331.84M398.77 331.98L398.77 331.69M398.2 331.55L398.77 331.55M398.77 331.55L398.77 331.27M398.77 331.12L398.2 331.12M398.2 331.12L398.2 330.84M398.49 331.12L398.49 330.98M398.77 331.12L398.77 330.84M398.77 330.7L398.58 330.7M398.58 330.7L398.2 330.56M398.2 330.56L398.58 330.41M398.58 330.41L398.77 330.41M398.58 330.7L398.58 330.41M398.68 330.27L398.77 330.2M398.77 330.2L398.77 330.06M398.77 330.06L398.68 329.99M398.68 329.99L398.3 330.27M398.3 330.27L398.2 330.2M398.2 330.2L398.2 330.06M398.2 330.06L398.3 329.99M398.77 329.84L398.2 329.84M398.2 329.84L398.2 329.56M398.49 329.84L398.49 329.7M398.77 329.84L398.77 329.56"
fill="none" stroke="black" stroke-width="3"/>
</g>
<g><path d="M373.93 335.66L374.59 335.66"
fill="none" stroke="black" stroke-width="3"/>
</g>
<g><path d="M349.18 59.85L349.35 59.61M349.35 59.61L349.35 61.03M349.18 61.03L349.53 61.03"
fill="none" stroke="black" stroke-width="3"/>
</g>
<g><path d="M249.54 59.85L249.72 59.61M249.72 59.61L250.08 59.61M250.08 59.61L250.25 59.85M250.25 59.85L250.25 60.08M250.25 60.08L250.08 60.32M250.08 60.32L249.72 60.32M249.72 60.32L249.54 60.56M249.54 60.56L249.54 61.03M249.54 61.03L250.25 61.03"
fill="none" stroke="black" stroke-width="3"/>
</g>
<g><path d="M149.91 59.85L150.09 59.61M150.09 59.61L150.44 59.61M150.44 59.61L150.62 59.85M150.62 59.85L150.62 60.08M150.62 60.08L150.44 60.32M150.44 60.32L150.27 60.32M150.44 60.32L150.62 60.56M150.62 60.56L150.62 60.79M150.62 60.79L150.44 61.03M150.44 61.03L150.09 61.03M150.09 61.03L149.91 60.79"
fill="none" stroke="black" stroke-width="3"/>
</g>
<g><path d="M50.99 60.56L50.28 60.56M50.28 60.56L50.81 59.61M50.81 59.61L50.81 61.03"
fill="none" stroke="black" stroke-width="3"/>
</g>
<g><path d="M349.18 339.26L349.35 339.02M349.35 339.02L349.35 340.44M349.18 340.44L349.53 340.44"
fill="none" stroke="black" stroke-width="3"/>
</g>
<g><path d="M249.54 339.26L249.72 339.02M249.72 339.02L250.08 339.02M250.08 339.02L250.25 339.26M250.25 339.26L250.25 339.49M250.25 339.49L250.08 339.73M250.08 339.73L249.72 339.73M249.72 339.73L249.54 339.97M249.54 339.97L249.54 340.44M249.54 340.44L250.25 340.44"
fill="none" stroke="black" stroke-width="3"/>
</g>
<g><path d="M149.91 339.26L150.09 339.02M150.09 339.02L150.44 339.02M150.44 339.02L150.62 339.26M150.62 339.26L150.62 339.49M150.62 339.49L150.44 339.73M150.44 339.73L150.27 339.73M150.44 339.73L150.62 339.97M150.62 339.97L150.62 340.2M150.62 340.2L150.44 340.44M150.44 340.44L150.09 340.44M150.09 340.44L149.91 340.2"
fill="none" stroke="black" stroke-width="3"/>
</g>
<g><path d="M50.99 339.97L50.28 339.97M50.28 339.97L50.81 339.02M50.81 339.02L50.81 340.44"
fill="none" stroke="black" stroke-width="3"/>
</g>
<g><path d="M4.76 264.09L4.76 263.46M4.76 263.46L5.23 262.19M5.23 262.19L5.7 263.46M5.7 263.46L5.7 264.09M4.76 263.46L5.7 263.46"
fill="none" stroke="black" stroke-width="3"/>
</g>
<g><path d="M397.4 264.09L397.4 263.46M397.4 263.46L397.88 262.19M397.88 262.19L398.35 263.46M398.35 263.46L398.35 264.09M397.4 263.46L398.35 263.46"
fill="none" stroke="black" stroke-width="3"/>
</g>
<g><path d="M4.76 127.64L5.47 127.64M5.47 127.64L5.7 127.32M5.7 127.32L5.7 127M5.7 127L5.47 126.69M5.47 126.69L4.99 126.69M5.47 126.69L5.7 126.37M5.7 126.37L5.7 126.05M5.7 126.05L5.47 125.74M5.47 125.74L4.76 125.74M4.99 125.74L4.99 127.64"
fill="none" stroke="black" stroke-width="3"/>
</g>
<g><path d="M397.4 127.64L398.11 127.64M398.11 127.64L398.35 127.32M398.35 127.32L398.35 127M398.35 127L398.11 126.69M398.11 126.69L397.64 126.69M398.11 126.69L398.35 126.37M398.35 126.37L398.35 126.05M398.35 126.05L398.11 125.74M398.11 125.74L397.4 125.74M397.64 125.74L397.64 127.64"
fill="none" stroke="black" stroke-width="3"/>
</g>
<g><path d="M311.59 298.16L311.86 297.8M311.86 297.8L311.86 299.94M311.59 299.94L312.12 299.94M312.66 299.94L312.66 299.58M314.79 299.94L314.79 297.8M314.79 298.87L315.86 298.87M315.86 297.8L315.86 299.94M316.39 299.23L317.2 299.23M317.2 299.23L317.46 298.87M317.46 298.87L317.2 298.51M317.2 298.51L316.66 298.51M316.66 298.51L316.39 298.87M316.39 298.87L316.39 299.58M316.39 299.58L316.66 299.94M316.66 299.94L317.2 299.94M318 299.58L318.26 299.94M318.26 299.94L318.8 299.94M318.8 299.94L319.06 299.58M319.06 299.58L319.06 298.51M319.06 298.51L319.06 299.23M319.06 299.23L318.53 299.23M318.53 299.23L318 298.51M319.6 299.94L319.6 298.51M319.6 298.51L319.6 299.23M319.6 299.23L320.13 299.23M320.13 299.23L320.66 298.51M320.66 298.51L320.13 299.23M320.13 299.23L320.66 299.94M321.2 299.58L321.2 298.87M321.2 298.87L321.47 298.51M321.47 298.51L322 298.51M322 298.51L322.27 298.87M322.27 298.87L322.27 298.51M322.27 298.51L322.27 299.94M322.27 299.94L322.27 299.58M322.27 299.58L322 299.94M322 299.94L321.47 299.94M321.47 299.94L321.2 299.58M322.8 298.87L323.07 298.51M323.07 298.51L323.6 298.51M323.6 298.51L323.87 298.87M323.87 298.87L323.6 299.23M323.6 299.23L323.33 299.23M323.33 299.23L323.6 299.23M323.6 299.23L323.87 299.58M323.87 299.58L323.6 299.94M323.6 299.94L323.07 299.94M323.07 299.94L322.8 299.58M324.4 299.58L324.4 298.87M324.4 298.87L324.67 298.51M324.67 298.51L325.2 298.51M325.2 298.51L325.47 298.87M325.47 298.87L325.47 298.51M325.47 298.51L325.47 299.94M325.47 299.94L325.47 299.58M325.47 299.58L325.2 299.94M325.2 299.94L324.67 299.94M324.67 299.94L324.4 299.58M326 299.94L326 298.51M326 298.51L326 299.23M326 299.23L327.07 299.23M327.07 299.23L327.07 298.51M327.07 298.51L327.07 299.94M327.6 299.94L327.6 298.51M327.6 298.51L327.6 299.23M327.6 299.23L328.67 299.23M328.67 299.23L328.67 298.51M328.67 298.51L328.67 299.94M329.2 299.94L329.2 298.51M329.2 298.51L329.2 299.23M329.2 299.23L329.74 299.23M329.74 299.23L330.01 299.58M330.01 299.58L329.74 299.94M329.74 299.94L329.2 299.94M330.27 299.94L330.27 298.51M330.81 299.23L331.61 299.23M331.61 299.23L331.87 298.87M331.87 298.87L331.61 298.51M331.61 298.51L331.07 298.51M331.07 298.51L330.81 298.87M330.81 298.87L330.81 299.58M330.81 299.58L331.07 299.94M331.07 299.94L331.61 299.94M334.01 299.94L334.01 298.51M334.01 298.51L335.08 298.51M335.08 298.51L335.08 299.94M335.61 299.94L335.61 298.51M335.61 298.51L336.41 298.51M336.41 298.51L336.68 298.87M336.68 298.87L336.68 299.23M336.68 299.23L336.41 299.58M336.41 299.58L335.61 299.58M337.21 299.23L338.01 299.23M338.01 299.23L338.28 298.87M338.28 298.87L338.01 298.51M338.01 298.51L337.48 298.51M337.48 298.51L337.21 298.87M337.21 298.87L337.21 299.58M337.21 299.58L337.48 299.94M337.48 299.94L338.01 299.94M338.81 300.29L338.81 299.94M338.81 299.94L339.08 299.94M339.08 299.94L339.08 298.87M339.08 298.87L339.35 298.51M339.35 298.51L339.61 298.51M339.61 298.51L339.61 299.94M339.61 299.94L339.08 299.94M339.08 299.94L339.88 299.94M339.88 299.94L339.88 300.29M340.41 299.23L341.21 299.23M341.21 299.23L341.48 298.87M341.48 298.87L341.21 298.51M341.21 298.51L340.68 298.51M340.68 298.51L340.41 298.87M340.41 298.87L340.41 299.58M340.41 299.58L340.68 299.94M340.68 299.94L341.21 299.94M342.01 299.94L342.55 298.51M342.55 298.51L343.08 298.51M343.08 298.51L343.08 299.94M343.62 299.94L343.62 298.51M343.62 298.51L343.62 299.23M343.62 299.23L344.15 299.23M344.15 299.23L344.42 299.58M344.42 299.58L344.15 299.94M344.15 299.94L343.62 299.94M344.95 299.94L344.95 298.51M344.95 298.51L344.95 299.23M344.95 299.23L346.02 299.23M346.02 299.23L346.02 298.51M346.02 298.51L346.02 299.94M346.55 299.94L346.55 298.51M346.55 298.51L346.55 299.23M346.55 299.23L347.09 299.23M347.09 299.23L347.35 299.58M347.35 299.58L347.09 299.94M347.09 299.94L346.55 299.94M347.62 299.94L347.62 298.51M348.15 299.23L348.95 299.23M348.95 299.23L349.22 298.87M349.22 298.87L348.95 298.51M348.95 298.51L348.42 298.51M348.42 298.51L348.15 298.87M348.15 298.87L348.15 299.58M348.15 299.58L348.42 299.94M348.42 299.94L348.95 299.94M351.36 299.58L351.36 298.87M351.36 298.87L351.62 298.51M351.62 298.51L352.16 298.51M352.16 298.51L352.42 298.87M352.42 298.87L352.42 299.58M352.42 299.58L352.16 299.94M352.16 299.94L351.62 299.94M351.62 299.94L351.36 299.58M353.49 299.94L353.49 298.51M353.49 298.51L352.96 298.51M352.96 298.51L354.02 298.51M354.56 299.94L354.56 298.51M354.56 298.51L354.56 299.23M354.56 299.23L355.09 299.23M355.09 299.23L355.63 298.51M355.63 298.51L355.09 299.23M355.09 299.23L355.63 299.94M356.16 299.94L356.69 298.51M356.69 298.51L357.23 298.51M357.23 298.51L357.23 299.94M357.76 299.58L357.76 298.87M357.76 298.87L358.03 298.51M358.03 298.51L358.56 298.51M358.56 298.51L358.83 298.87M358.83 298.87L358.83 299.58M358.83 299.58L358.56 299.94M358.56 299.94L358.03 299.94M358.03 299.94L357.76 299.58M359.36 299.94L359.36 298.51M359.36 298.51L359.36 299.23M359.36 299.23L360.43 299.23M360.43 299.23L360.43 298.51M360.43 298.51L360.43 299.94M360.96 299.23L361.76 299.23M361.76 299.23L362.03 298.87M362.03 298.87L361.76 298.51M361.76 298.51L361.23 298.51M361.23 298.51L360.96 298.87M360.96 298.87L360.96 299.58M360.96 299.58L361.23 299.94M361.23 299.94L361.76 299.94M362.56 299.94L362.56 298.51M362.56 298.51L362.56 299.23M362.56 299.23L363.63 299.23M363.63 299.23L363.63 298.51M363.63 298.51L363.63 299.94M364.17 298.51L364.17 299.94M364.17 299.94L365.23 298.51M365.23 298.51L365.23 299.94M365.77 299.94L366.3 299.23M366.3 299.23L366.03 299.23M366.03 299.23L365.77 298.87M365.77 298.87L366.03 298.51M366.03 298.51L366.83 298.51M366.83 298.51L366.83 299.23M366.83 299.23L366.3 299.23M366.3 299.23L366.83 299.23M366.83 299.23L366.83 299.94M368.97 299.94L368.97 298.51M368.97 298.51L369.77 298.51M369.77 298.51L370.04 298.87M370.04 298.87L370.04 299.23M370.04 299.23L369.77 299.58M369.77 299.58L368.97 299.58M370.57 299.58L370.57 298.87M370.57 298.87L370.84 298.51M370.84 298.51L371.37 298.51M371.37 298.51L371.64 298.87M371.64 298.87L371.64 298.51M371.64 298.51L371.64 299.94M371.64 299.94L371.64 299.58M371.64 299.58L371.37 299.94M371.37 299.94L370.84 299.94M370.84 299.94L370.57 299.58M372.17 298.87L372.44 298.51M372.44 298.51L372.97 298.51M372.97 298.51L373.24 298.87M373.24 298.87L372.97 299.23M372.97 299.23L372.71 299.23M372.71 299.23L372.97 299.23M372.97 299.23L373.24 299.58M373.24 299.58L372.97 299.94M372.97 299.94L372.44 299.94M372.44 299.94L372.17 299.58M373.77 299.94L373.77 298.51M373.77 298.51L374.31 299.23M374.31 299.23L374.84 298.51M374.84 298.51L374.84 299.94M375.37 299.23L376.17 299.23M376.17 299.23L376.44 298.87M376.44 298.87L376.17 298.51M376.17 298.51L375.64 298.51M375.64 298.51L375.37 298.87M375.37 298.87L375.37 299.58M375.37 299.58L375.64 299.94M375.64 299.94L376.17 299.94M376.98 299.94L376.98 298.51M376.98 298.51L377.78 298.51M377.78 298.51L378.04 298.87M378.04 298.87L378.04 299.23M378.04 299.23L377.78 299.58M377.78 299.58L376.98 299.58M378.58 299.58L378.58 298.87M378.58 298.87L378.84 298.51M378.84 298.51L379.38 298.51M379.38 298.51L379.64 298.87M379.64 298.87L379.64 299.58M379.64 299.58L379.38 299.94M379.38 299.94L378.84 299.94M378.84 299.94L378.58 299.58M380.18 299.94L380.18 298.51M380.18 298.51L380.71 298.51M380.71 299.23L380.18 299.23M380.18 299.23L380.98 299.23M380.98 299.94L380.18 299.94M380.71 299.23L380.9 299.12M380.9 299.12L380.98 298.87M380.98 298.87L380.9 298.62M380.9 298.62L380.71 298.51M380.98 299.94L381.17 299.83M381.17 299.83L381.25 299.58M381.25 299.58L381.17 299.33M381.17 299.33L380.98 299.23M314.79 303.14L314.79 302.43M314.79 302.43L315.06 302.07M315.06 302.07L315.59 302.07M315.59 302.07L315.86 302.43M315.86 302.43L315.86 303.14M315.86 303.14L315.59 303.5M315.59 303.5L315.06 303.5M315.06 303.5L314.79 303.14M316.93 303.5L316.93 302.07M316.93 302.07L316.39 302.07M316.39 302.07L317.46 302.07M318 303.5L318 302.07M318 302.07L318.53 302.07M318.53 302.78L318 302.78M318 302.78L318.8 302.78M318.8 303.5L318 303.5M318.53 302.78L318.72 302.68M318.72 302.68L318.8 302.43M318.8 302.43L318.72 302.18M318.72 302.18L318.53 302.07M318.8 303.5L318.99 303.39M318.99 303.39L319.06 303.14M319.06 303.14L318.99 302.89M318.99 302.89L318.8 302.78M319.6 302.78L320.4 302.78M320.4 302.78L320.66 302.43M320.66 302.43L320.4 302.07M320.4 302.07L319.86 302.07M319.86 302.07L319.6 302.43M319.6 302.43L319.6 303.14M319.6 303.14L319.86 303.5M319.86 303.5L320.4 303.5M321.2 303.5L321.2 302.07M321.2 302.07L322 302.07M322 302.07L322.27 302.43M322.27 302.43L322.27 302.78M322.27 302.78L322 303.14M322 303.14L321.2 303.14M323.87 303.14L323.6 303.5M323.6 303.5L323.07 303.5M323.07 303.5L322.8 303.14M322.8 303.14L322.8 302.43M322.8 302.43L323.07 302.07M323.07 302.07L323.6 302.07M323.6 302.07L323.87 302.43M324.93 303.5L324.93 302.07M324.93 302.07L324.4 302.07M324.4 302.07L325.47 302.07M326 302.07L326 303.5M326 303.5L327.07 302.07M327.07 302.07L327.07 303.5M327.6 302.07L327.6 303.5M327.6 303.5L328.67 302.07M328.67 302.07L328.67 303.5M328.4 302.07L327.87 302.07M330.81 302.43L331.87 302.43M334.01 303.5L334.01 301.36M334.01 302.43L335.08 302.43M335.08 301.36L335.08 303.5M335.61 301.72L335.88 301.36M335.88 301.36L335.88 303.5M335.61 303.5L336.14 303.5M337.74 302.78L336.68 302.78M336.68 302.78L337.48 301.36M337.48 301.36L337.48 303.5M338.55 303.14L338.55 303.5M338.55 303.5L338.28 303.85M340.68 303.5L340.68 302.07M340.68 302.07L341.21 302.07M341.21 302.78L340.68 302.78M340.68 302.78L341.48 302.78M341.48 303.5L340.68 303.5M341.21 302.78L341.4 302.68M341.4 302.68L341.48 302.43M341.48 302.43L341.4 302.18M341.4 302.18L341.21 302.07M341.48 303.5L341.67 303.39M341.67 303.39L341.75 303.14M341.75 303.14L341.67 302.89M341.67 302.89L341.48 302.78M342.28 303.14L342.28 302.43M342.28 302.43L342.55 302.07M342.55 302.07L343.08 302.07M343.08 302.07L343.35 302.43M343.35 302.43L343.35 302.07M343.35 302.07L343.35 303.5M343.35 303.5L343.35 303.14M343.35 303.14L343.08 303.5M343.08 303.5L342.55 303.5M342.55 303.5L342.28 303.14M343.88 303.5L344.42 302.07M344.42 302.07L344.95 302.07M344.95 302.07L344.95 303.5M345.48 303.14L345.48 302.43M345.48 302.43L345.75 302.07M345.75 302.07L346.28 302.07M346.28 302.07L346.55 302.43M346.55 302.43L346.55 303.14M346.55 303.14L346.28 303.5M346.28 303.5L345.75 303.5M345.75 303.5L345.48 303.14M347.09 303.5L347.09 302.07M347.09 302.07L347.62 302.07M347.62 302.78L347.09 302.78M347.09 302.78L347.89 302.78M347.89 303.5L347.09 303.5M347.62 302.78L347.81 302.68M347.81 302.68L347.89 302.43M347.89 302.43L347.81 302.18M347.81 302.18L347.62 302.07M347.89 303.5L348.07 303.39M348.07 303.39L348.15 303.14M348.15 303.14L348.07 302.89M348.07 302.89L347.89 302.78M350.29 302.43L351.36 302.43M353.49 303.5L353.49 301.36M353.49 302.78L354.02 302.07M354.02 302.07L354.29 302.07M354.29 302.07L354.56 302.43M354.56 302.43L354.56 303.5M355.09 301.72L355.36 301.36M355.36 301.36L355.36 303.5M355.09 303.5L355.63 303.5M357.23 302.78L356.16 302.78M356.16 302.78L356.96 301.36M356.96 301.36L356.96 303.5M358.03 303.14L358.03 303.5M358.03 303.5L357.76 303.85M360.16 303.14L360.16 302.43M360.16 302.43L360.43 302.07M360.43 302.07L360.96 302.07M360.96 302.07L361.23 302.43M361.23 302.43L361.23 303.14M361.23 303.14L360.96 303.5M360.96 303.5L360.43 303.5M360.43 303.5L360.16 303.14M362.83 303.14L362.56 303.5M362.56 303.5L362.03 303.5M362.03 303.5L361.76 303.14M361.76 303.14L361.76 302.43M361.76 302.43L362.03 302.07M362.03 302.07L362.56 302.07M362.56 302.07L362.83 302.43M363.9 303.5L363.9 302.07M363.9 302.07L363.36 302.07M363.36 302.07L364.43 302.07M364.97 303.14L364.97 302.43M364.97 302.43L365.23 302.07M365.23 302.07L365.77 302.07M365.77 302.07L366.03 302.43M366.03 302.43L366.03 302.07M366.03 302.07L366.03 303.5M366.03 303.5L366.03 303.14M366.03 303.14L365.77 303.5M365.77 303.5L365.23 303.5M365.23 303.5L364.97 303.14M366.57 303.5L367.1 302.07M367.1 302.07L367.63 302.07M367.63 302.07L367.63 303.5M368.17 303.5L368.17 302.07M368.17 302.07L368.17 302.78M368.17 302.78L368.7 302.78M368.7 302.78L368.97 303.14M368.97 303.14L368.7 303.5M368.7 303.5L368.17 303.5M369.5 303.5L369.5 302.07M369.5 302.07L369.5 302.78M369.5 302.78L370.57 302.78M370.57 302.78L370.57 302.07M370.57 302.07L370.57 303.5M371.1 303.5L371.1 302.07M371.1 302.07L371.1 302.78M371.1 302.78L371.64 302.78M371.64 302.78L371.9 303.14M371.9 303.14L371.64 303.5M371.64 303.5L371.1 303.5M372.17 303.5L372.17 302.07M372.71 303.5L373.77 302.07M372.71 302.07L373.77 303.5M375.91 303.14L376.98 303.14M376.44 302.78L376.44 301.36M375.91 302.07L376.98 302.07M379.11 301.36L379.64 301.36M379.38 301.36L379.38 303.5M379.11 303.5L379.64 303.5M380.18 301.36L381.25 301.36M380.71 301.36L380.71 303.5"
fill="none" stroke="black" stroke-width="3"/>
</g>
<g><path d="M387.71 300.48L387.89 300.25M387.89 300.25L387.89 301.67M387.71 301.67L388.07 301.67M389.13 301.19L388.42 301.19M388.42 301.19L388.96 300.25M388.96 300.25L388.96 301.67"
fill="none" stroke="black" stroke-width="3"/>
</g>
<g><path d="M388.23 302.52L388.41 302.29M388.41 302.29L388.77 302.29M388.77 302.29L388.94 302.52M388.94 302.52L388.94 302.76M388.94 302.76L388.77 303M388.77 303L388.41 303M388.41 303L388.23 303.23M388.23 303.23L388.23 303.71M388.23 303.71L388.94 303.71"
fill="none" stroke="black" stroke-width="3"/>
</g>
<g><path d="M387.47 302.01L389.61 302.01"
fill="none" stroke="black" stroke-width="3"/>
</g>
<g><path d="M6.44 309.4L6.44 308.9M6.44 308.9L6.22 308.74M6.22 308.74L6 308.74M6 308.74L5.78 308.9M5.78 308.9L5.78 309.23M5.78 308.9L5.55 308.74M5.55 308.74L5.33 308.74M5.33 308.74L5.11 308.9M5.11 308.9L5.11 309.4M5.11 309.23L6.44 309.23M5.78 308.4L5.55 308.24M5.55 308.24L5.55 307.91M5.55 307.91L5.78 307.74M5.78 307.74L6 307.91M6 307.91L6 308.07M6 308.07L6 307.91M6 307.91L6.22 307.74M6.22 307.74L6.44 307.91M6.44 307.91L6.44 308.24M6.44 308.24L6.22 308.4M6.22 307.41L5.78 307.41M5.78 307.41L5.55 307.24M5.55 307.24L5.55 306.91M5.55 306.91L5.78 306.74M5.78 306.74L5.55 306.74M5.55 306.74L6.44 306.74M6.44 306.74L6.22 306.74M6.22 306.74L6.44 306.91M6.44 306.91L6.44 307.24M6.44 307.24L6.22 307.41M6.44 306.41L5.55 306.41M5.55 306.41L6 306.08M6 306.08L5.55 305.75M5.55 305.75L6.44 305.75M6.44 305.41L6.22 305.41M5.55 304.09L6.44 304.09M6.44 304.09L5.55 303.42M5.55 303.42L6.44 303.42M6.44 303.09L5.55 303.09M5.55 303.09L6 303.09M6 303.09L6 302.43M6 302.43L5.55 302.43M5.55 302.43L6.44 302.43M6.44 302.09L5.55 302.09M5.55 302.09L5.55 301.76M6 301.76L6 302.09M6 302.09L6 301.6M6.44 301.6L6.44 302.09M6 301.76L5.78 301.6M5.78 301.6L5.55 301.76M6.44 301.6L6.22 301.43M6.22 301.43L6 301.6M6.44 301.1L6.22 301.1M6.44 300.77L5.11 300.77M5.11 300.77L6.44 300.1M6.44 300.1L5.11 300.1"
fill="none" stroke="black" stroke-width="3"/>
</g>
</g>
</svg>
