<?xml version="1.0" standalone="no"?><svg xmlns="http://www.w3.org/2000/svg" width="400.000" height="400.000" viewBox="0.0 0.0 400.000 400.000" version="1.1">
  <title>Produce by Acme CAD Converter</title>
  <desc>Produce by Acme CAD Converter</desc>
<g id="0" display="visible">
<g><path d="M335.45 323.94L335.45 323.73M335.45 323.73L336.22 323.73M336.22 323.73L336.22 322.5M336.22 322.5L335.92 322.5M335.92 322.5L335.61 323.32M335.61 323.32L335.61 323.73M335.61 323.73L336.38 323.73M336.38 323.73L336.38 323.94M336.69 323.53L336.69 323.12M336.69 323.12L336.84 322.91M336.84 322.91L337.15 322.91M337.15 322.91L337.3 323.12M337.3 323.12L337.3 322.91M337.3 322.91L337.3 323.73M337.3 323.73L337.3 323.53M337.3 323.53L337.15 323.73M337.15 323.73L336.84 323.73M336.84 323.73L336.69 323.53M337.92 323.73L337.92 322.91M337.92 322.91L337.61 322.91M337.61 322.91L338.23 322.91M338.54 323.53L338.54 323.12M338.54 323.12L338.69 322.91M338.69 322.91L339 322.91M339 322.91L339.15 323.12M339.15 323.12L339.15 322.91M339.15 322.91L339.15 323.73M339.15 323.73L339.15 323.53M339.15 323.53L339 323.73M339 323.73L338.69 323.73M338.69 323.73L338.54 323.53"
fill="none" stroke="black" stroke-width="3"/>
</g>
<g><path d="M299.63 340.91L299.63 338.54"
fill="none" stroke="black" stroke-width="3"/>
</g>
<g><path d="M382.85 65.48L383.14 65.08M383.14 65.08L383.74 65.08M383.74 65.08L384.03 65.48M384.03 65.48L384.03 65.87M384.03 65.87L383.74 66.27M383.74 66.27L383.44 66.27M383.74 66.27L384.03 66.66M384.03 66.66L384.03 67.06M384.03 67.06L383.74 67.45M383.74 67.45L383.14 67.45M383.14 67.45L382.85 67.06M384.92 67.06L384.92 67.45M384.92 67.45L384.63 67.85M385.51 65.48L385.81 65.08M385.81 65.08L386.4 65.08M386.4 65.08L386.7 65.48M386.7 65.48L386.7 65.87M386.7 65.87L386.4 66.27M386.4 66.27L385.81 66.27M385.81 66.27L385.51 66.66M385.51 66.66L385.51 67.45M385.51 67.45L386.7 67.45"
fill="none" stroke="black" stroke-width="3"/>
</g>
<g><path d="M388.1 68.16L387.76 69.42M387.76 69.42L388.1 70.68"
fill="none" stroke="black" stroke-width="3"/>
</g>
<g><path d="M385.45 70.67L387.35 67.39"
fill="none" stroke="black" stroke-width="3"/>
</g>
<g><path d="M391.58 70.68L391.92 69.42M391.92 69.42L391.58 68.16"
fill="none" stroke="black" stroke-width="3"/>
</g>
<g><path d="M389.75 70.67L391.65 67.39"
fill="none" stroke="black" stroke-width="3"/>
</g>
<g><path d="M389.75 70.67L388.57 68.62"
fill="none" stroke="black" stroke-width="3"/>
</g>
<g><path d="M385.45 70.67L384.26 68.62"
fill="none" stroke="black" stroke-width="3"/>
</g>
<g><path d="M396.89 61.46L396.89 338.54"
fill="none" stroke="black" stroke-width="9"/>
</g>
<g><path d="M399.27 59.09L399.27 340.91"
fill="none" stroke="black" stroke-width="3"/>
</g>
<g><path d="M299.63 61.46L299.63 59.09"
fill="none" stroke="black" stroke-width="3"/>
</g>
<g><path d="M396.89 200L399.27 200"
fill="none" stroke="black" stroke-width="3"/>
</g>
<g><path d="M10.22 269.74L4.53 269.74"
fill="none" stroke="black" stroke-width="9"/>
</g>
<g><path d="M4.53 338.54L4.53 269.74"
fill="none" stroke="black" stroke-width="9"/>
</g>
<g><path d="M10.22 286.35L4.53 286.35"
fill="none" stroke="black" stroke-width="9"/>
</g>
<g><path d="M10.22 298.21L4.53 298.21"
fill="none" stroke="black" stroke-width="9"/>
</g>
<g><path d="M10.22 310.07L4.53 310.07"
fill="none" stroke="black" stroke-width="9"/>
</g>
<g><path d="M10.22 326.68L4.53 326.68"
fill="none" stroke="black" stroke-width="9"/>
</g>
<g><path d="M6.9 338.54L6.9 269.74"
fill="none" stroke="black" stroke-width="3"/>
</g>
<g><path d="M10.22 68.1L43.43 68.1"
fill="none" stroke="black" stroke-width="9"/>
</g>
<g><path d="M43.43 68.1L43.43 61.46"
fill="none" stroke="black" stroke-width="9"/>
</g>
<g><path d="M0.73 340.91L0.73 59.09"
fill="none" stroke="black" stroke-width="3"/>
</g>
<g><path d="M10.22 338.54L10.22 61.46"
fill="none" stroke="black" stroke-width="9"/>
</g>
<g><path d="M10.22 118.4L4.53 118.4"
fill="none" stroke="black" stroke-width="9"/>
</g>
<g><path d="M10.22 89.93L4.53 89.93"
fill="none" stroke="black" stroke-width="9"/>
</g>
<g><path d="M6.9 118.4L6.9 61.46"
fill="none" stroke="black" stroke-width="3"/>
</g>
<g><path d="M4.53 118.4L4.53 61.46"
fill="none" stroke="black" stroke-width="9"/>
</g>
<g><path d="M0.73 200L10.22 200"
fill="none" stroke="black" stroke-width="3"/>
</g>
<g><path d="M0.73 59.09L399.27 59.09"
fill="none" stroke="black" stroke-width="3"/>
</g>
<g><path d="M4.53 61.46L396.89 61.46"
fill="none" stroke="black" stroke-width="9"/>
</g>
<g><path d="M399.27 340.91L0.73 340.91"
fill="none" stroke="black" stroke-width="3"/>
</g>
<g><path d="M396.89 338.54L4.53 338.54"
fill="none" stroke="black" stroke-width="9"/>
</g>
<g><path d="M381.65 321.32L381.65 319.99M381.65 319.99L381.99 320.87M381.99 320.87L382.32 319.99M382.32 319.99L382.32 321.32M382.65 321.1L382.65 320.65M382.65 320.65L382.82 320.43M382.82 320.43L383.15 320.43M383.15 320.43L383.31 320.65M383.31 320.65L383.31 320.43M383.31 320.43L383.31 321.32M383.31 321.32L383.31 321.1M383.31 321.1L383.15 321.32M383.15 321.32L382.82 321.32M382.82 321.32L382.65 321.1M384.31 321.1L384.14 321.32M384.14 321.32L383.81 321.32M383.81 321.32L383.65 321.1M383.65 321.1L383.65 320.65M383.65 320.65L383.81 320.43M383.81 320.43L384.14 320.43M384.14 320.43L384.31 320.65M385.31 321.1L385.14 321.32M385.14 321.32L384.81 321.32M384.81 321.32L384.64 321.1M384.64 321.1L384.64 320.65M384.64 320.65L384.81 320.43M384.81 320.43L385.14 320.43M385.14 320.43L385.31 320.65M385.64 321.1L385.64 320.65M385.64 320.65L385.81 320.43M385.81 320.43L386.14 320.43M386.14 320.43L386.3 320.65M386.3 320.65L386.3 320.43M386.3 320.43L386.3 321.32M386.3 321.32L386.3 321.1M386.3 321.1L386.14 321.32M386.14 321.32L385.81 321.32M385.81 321.32L385.64 321.1"
fill="none" stroke="black" stroke-width="3"/>
</g>
<g><path d="M388.63 321.35L388.63 320.02M388.63 320.02L388.96 320.9M388.96 320.9L389.3 320.02M389.3 320.02L389.3 321.35M389.63 321.12L389.63 320.68M389.63 320.68L389.79 320.46M389.79 320.46L390.13 320.46M390.13 320.46L390.29 320.68M390.29 320.68L390.29 320.46M390.29 320.46L390.29 321.35M390.29 321.35L390.29 321.12M390.29 321.12L390.13 321.35M390.13 321.35L389.79 321.35M389.79 321.35L389.63 321.12M391.29 321.12L391.12 321.35M391.12 321.35L390.79 321.35M390.79 321.35L390.62 321.12M390.62 321.12L390.62 320.68M390.62 320.68L390.79 320.46M390.79 320.46L391.12 320.46M391.12 320.46L391.29 320.68M391.62 321.35L391.62 320.46M391.62 320.46L391.62 321.35M391.62 321.35L391.95 321.35M391.95 321.35L391.95 320.9M391.95 320.9L391.95 321.35M391.95 321.35L392.29 321.35M392.29 321.35L392.29 320.46M392.95 321.35L392.95 320.46M392.95 320.46L392.62 320.46M392.62 320.46L393.28 320.46M393.61 321.12L393.61 320.68M393.61 320.68L393.78 320.46M393.78 320.46L394.11 320.46M394.11 320.46L394.28 320.68M394.28 320.68L394.28 320.46M394.28 320.46L394.28 321.35M394.28 321.35L394.28 321.12M394.28 321.12L394.11 321.35M394.11 321.35L393.78 321.35M393.78 321.35L393.61 321.12M395.11 320.46L394.61 320.46M394.61 320.46L394.61 321.35M394.61 321.35L395.11 321.35M395.11 321.35L395.27 321.12M395.27 321.12L395.11 320.9M395.11 320.9L394.61 320.9"
fill="none" stroke="black" stroke-width="3"/>
</g>
<g><path d="M382.96 326.56L383.91 326.56"
fill="none" stroke="black" stroke-width="3"/>
</g>
<g><path d="M373.82 326.53L374.77 326.53"
fill="none" stroke="black" stroke-width="3"/>
</g>
<g><path d="M373.97 330.79L374.13 330.79M374.13 330.79L374.63 329.46M374.63 329.46L374.8 329.46M374.8 329.46L374.8 330.79M375.13 329.9L375.13 330.79M375.13 330.79L375.79 329.9M375.79 329.9L375.79 330.79M376.79 330.57L376.62 330.79M376.62 330.79L376.29 330.79M376.29 330.79L376.13 330.57M376.13 330.57L376.13 330.12M376.13 330.12L376.29 329.9M376.29 329.9L376.62 329.9M376.62 329.9L376.79 330.12M377.45 330.79L377.45 329.9M377.45 329.9L377.12 329.9M377.12 329.9L377.79 329.9"
fill="none" stroke="black" stroke-width="3"/>
</g>
<g><path d="M383.43 330.72L383.6 330.72M383.6 330.72L384.1 329.39M384.1 329.39L384.26 329.39M384.26 329.39L384.26 330.72M384.59 329.83L384.59 330.72M384.59 330.72L385.26 329.83M385.26 329.83L385.26 330.72M386.25 330.5L386.09 330.72M386.09 330.72L385.76 330.72M385.76 330.72L385.59 330.5M385.59 330.5L385.59 330.05M385.59 330.05L385.76 329.83M385.76 329.83L386.09 329.83M386.09 329.83L386.25 330.05M386.92 330.72L386.92 329.83M386.92 329.83L386.59 329.83M386.59 329.83L387.25 329.83M387.58 330.5L387.58 330.05M387.58 330.05L387.75 329.83M387.75 329.83L388.08 329.83M388.08 329.83L388.25 330.05M388.25 330.05L388.25 330.5M388.25 330.5L388.08 330.72M388.08 330.72L387.75 330.72M387.75 330.72L387.58 330.5M388.58 330.72L388.58 329.83M388.58 329.83L388.91 329.83M388.91 330.27L388.58 330.27M388.58 330.27L389.08 330.27M389.08 330.72L388.58 330.72M388.91 330.27L389.08 330.05M389.08 330.05L388.91 329.83M389.08 330.72L389.24 330.5M389.24 330.5L389.08 330.27"
fill="none" stroke="black" stroke-width="3"/>
</g>
<g><path d="M340.48 335.64L341.31 335.64"
fill="none" stroke="black" stroke-width="3"/>
</g>
<g><path d="M346.92 333.71L347.75 333.71"
fill="none" stroke="black" stroke-width="3"/>
</g>
<g><path d="M346.92 337.53L347.75 337.53"
fill="none" stroke="black" stroke-width="3"/>
</g>
<g><path d="M374.27 337.58L375.45 337.58"
fill="none" stroke="black" stroke-width="3"/>
</g>
<g><path d="M344.77 327.87L345.96 327.87"
fill="none" stroke="black" stroke-width="3"/>
</g>
<g><path d="M348.52 317.58L350.18 317.58"
fill="none" stroke="black" stroke-width="3"/>
</g>
<g><path d="M348.5 340.2L348.5 338.87M349.17 338.87L348.67 339.53M348.67 339.53L348.5 339.53M348.67 339.53L349.17 340.2M349.5 339.98L349.5 339.53M349.5 339.53L349.66 339.31M349.66 339.31L350 339.31M350 339.31L350.16 339.53M350.16 339.53L350.16 339.98M350.16 339.98L350 340.2M350 340.2L349.66 340.2M349.66 340.2L349.5 339.98M350.49 340.2L350.49 339.31M350.49 339.31L351.16 339.31M351.16 339.31L351.16 340.2M351.49 339.31L351.49 340.2M351.49 340.2L352.15 339.31M352.15 339.31L352.15 340.2M352.49 340.2L352.49 339.31M352.49 339.31L352.98 339.31M352.98 339.31L353.15 339.53M353.15 339.53L353.15 339.76M353.15 339.76L352.98 339.98M352.98 339.98L352.49 339.98M353.48 339.98L353.48 339.53M353.48 339.53L353.65 339.31M353.65 339.31L353.98 339.31M353.98 339.31L354.15 339.53M354.15 339.53L354.15 339.98M354.15 339.98L353.98 340.2M353.98 340.2L353.65 340.2M353.65 340.2L353.48 339.98M354.48 340.2L354.48 339.31M354.48 339.31L354.81 339.31M354.81 339.76L354.48 339.76M354.48 339.76L354.98 339.76M354.98 340.2L354.48 340.2M354.81 339.76L354.98 339.53M354.98 339.53L354.81 339.31M354.98 340.2L355.14 339.98M355.14 339.98L354.98 339.76M355.48 339.98L355.48 339.53M355.48 339.53L355.64 339.31M355.64 339.31L355.97 339.31M355.97 339.31L356.14 339.53M356.14 339.53L356.14 339.31M356.14 339.31L356.14 340.2M356.14 340.2L356.14 339.98M356.14 339.98L355.97 340.2M355.97 340.2L355.64 340.2M355.64 340.2L355.48 339.98M356.47 340.2L356.8 339.31M356.8 339.31L357.14 339.31M357.14 339.31L357.14 340.2"
fill="none" stroke="black" stroke-width="3"/>
</g>
<g><path d="M41.67 63.75L40.49 63.75"
fill="none" stroke="black" stroke-width="3"/>
</g>
<g><path d="M200 61.46L200 59.09"
fill="none" stroke="black" stroke-width="3"/>
</g>
<g><path d="M100.37 61.46L100.37 59.09"
fill="none" stroke="black" stroke-width="3"/>
</g>
<g><path d="M299.63 338.54L299.63 340.91"
fill="none" stroke="black" stroke-width="3"/>
</g>
<g><path d="M200 338.54L200 340.91"
fill="none" stroke="black" stroke-width="3"/>
</g>
<g><path d="M100.37 338.54L100.37 340.91"
fill="none" stroke="black" stroke-width="3"/>
</g>
<g><path d="M6.33 81.41L5 81.41M5 81.41L5 80.75M5 80.75L6.33 80.75M5.88 80.42L5.88 79.92M5.88 79.92L5.66 79.75M5.66 79.75L5.44 79.92M5.44 79.92L5.44 80.25M5.44 80.25L5.66 80.42M5.66 80.42L6.11 80.42M6.11 80.42L6.33 80.25M6.33 80.25L6.33 79.92M6.33 79.42L5.44 79.42M5.44 79.42L5.44 78.92M5.44 78.92L5.66 78.76M5.66 78.76L5.88 78.76M5.88 78.76L6.11 78.92M6.11 78.92L6.11 79.42M6.33 78.42L5.44 78.42M5.44 78.42L5.44 78.09M5.88 78.09L5.88 78.42M5.88 78.42L5.88 77.93M6.33 77.93L6.33 78.42M5.88 78.09L5.66 77.93M5.66 77.93L5.44 78.09M6.33 77.93L6.11 77.76M6.11 77.76L5.88 77.93M6.33 77.43L6.11 77.43M6.33 76.1L5.44 76.1M5.44 76.1L5.44 75.44M5.44 75.44L6.33 75.44M6.33 75.1L5.44 75.1M5.44 75.1L5.44 74.61M5.44 74.61L5.66 74.44M5.66 74.44L5.88 74.44M5.88 74.44L6.11 74.61M6.11 74.61L6.11 75.1M5.44 74.11L6.33 74.11M6.33 74.11L5.44 73.44M5.44 73.44L6.33 73.44M6.33 73.11L5.44 73.11M5.44 73.11L5.88 72.78M5.88 72.78L5.44 72.45M5.44 72.45L6.33 72.45M5.88 72.11L5.88 71.62M5.88 71.62L5.66 71.45M5.66 71.45L5.44 71.62M5.44 71.62L5.44 71.95M5.44 71.95L5.66 72.11M5.66 72.11L6.11 72.11M6.11 72.11L6.33 71.95M6.33 71.95L6.33 71.62M6.33 71.12L5.44 71.12M5.44 71.12L5.88 71.12M5.88 71.12L5.88 70.45M5.88 70.45L5.44 70.45M5.44 70.45L6.33 70.45M6.33 70.12L6.11 70.12"
fill="none" stroke="black" stroke-width="3"/>
</g>
<g><path d="M6.21 106.34L6.43 106.51M6.43 106.51L6.43 106.84M6.43 106.84L6.21 107.01M6.21 107.01L5.32 107.01M5.32 107.01L5.1 106.84M5.1 106.84L5.1 106.51M5.1 106.51L5.32 106.34M6.43 106.01L5.54 106.01M5.54 106.01L5.54 105.35M5.54 105.35L6.43 105.35M6.43 105.02L5.54 105.02M5.54 105.02L5.54 104.52M5.54 104.52L5.76 104.35M5.76 104.35L5.98 104.35M5.98 104.35L6.21 104.52M6.21 104.52L6.21 105.02M6.21 104.02L5.76 104.02M5.76 104.02L5.54 103.85M5.54 103.85L5.54 103.52M5.54 103.52L5.76 103.36M5.76 103.36L5.54 103.36M5.54 103.36L6.43 103.36M6.43 103.36L6.21 103.36M6.21 103.36L6.43 103.52M6.43 103.52L6.43 103.85M6.43 103.85L6.21 104.02M6.43 103.02L5.54 103.02M5.54 103.02L5.54 102.69M5.98 102.69L5.98 103.02M5.98 103.02L5.98 102.53M6.43 102.53L6.43 103.02M5.98 102.69L5.76 102.53M5.76 102.53L5.54 102.69M6.43 102.53L6.21 102.36M6.21 102.36L5.98 102.53M6.43 102.03L6.21 102.03M6.43 100.7L5.1 100.7M5.1 100.7L6.43 100.03M6.43 100.03L5.1 100.03"
fill="none" stroke="black" stroke-width="3"/>
</g>
<g><path d="M6.09 284.04L4.76 284.04M4.76 284.04L4.76 283.38M4.76 283.38L6.09 283.38M5.87 283.05L5.43 283.05M5.43 283.05L5.21 282.88M5.21 282.88L5.21 282.55M5.21 282.55L5.43 282.38M5.43 282.38L5.87 282.38M5.87 282.38L6.09 282.55M6.09 282.55L6.09 282.88M6.09 282.88L5.87 283.05M6.31 282.05L6.09 282.05M6.09 282.05L6.09 281.88M6.09 281.88L5.43 281.88M5.43 281.88L5.21 281.72M5.21 281.72L5.21 281.55M5.21 281.55L6.09 281.55M6.09 281.55L6.09 281.88M6.09 281.88L6.09 281.39M6.09 281.39L6.31 281.39M6.09 281.05L5.21 281.05M5.21 281.05L5.21 280.39M5.21 280.39L6.09 280.39M6.09 280.06L5.87 280.06M5.21 278.73L6.09 278.73M6.09 278.73L5.21 278.07M5.21 278.07L6.09 278.07M6.31 276.74L6.09 276.74M6.09 276.74L6.09 276.57M6.09 276.57L5.43 276.57M5.43 276.57L5.21 276.4M5.21 276.4L5.21 276.24M5.21 276.24L6.09 276.24M6.09 276.24L6.09 276.57M6.09 276.57L6.09 276.07M6.09 276.07L6.31 276.07M5.87 275.74L5.43 275.74M5.43 275.74L5.21 275.57M5.21 275.57L5.21 275.24M5.21 275.24L5.43 275.08M5.43 275.08L5.21 275.08M5.21 275.08L6.09 275.08M6.09 275.08L5.87 275.08M5.87 275.08L6.09 275.24M6.09 275.24L6.09 275.57M6.09 275.57L5.87 275.74M6.09 274.41L5.21 274.41M5.21 274.41L5.21 274.74M5.21 274.74L5.21 274.08M5.87 273.75L5.43 273.75M5.43 273.75L5.21 273.58M5.21 273.58L5.21 273.25M5.21 273.25L5.43 273.08M5.43 273.08L5.21 273.08M5.21 273.08L6.09 273.08M6.09 273.08L5.87 273.08M5.87 273.08L6.09 273.25M6.09 273.25L6.09 273.58M6.09 273.58L5.87 273.75"
fill="none" stroke="black" stroke-width="3"/>
</g>
<g><path d="M6.21 297.77L5.32 297.11M5.32 297.11L6.21 297.11M6.21 297.11L4.88 297.11M4.88 297.77L6.21 297.77M6.21 296.77L5.32 296.77M5.32 296.77L5.76 296.77M5.76 296.77L5.76 296.11M5.76 296.11L5.32 296.11M5.32 296.11L6.21 296.11M6.21 295.78L5.32 295.78M5.32 295.78L5.32 295.45M5.76 295.45L5.76 295.78M5.76 295.78L5.76 295.28M6.21 295.28L6.21 295.78M5.76 295.45L5.54 295.28M5.54 295.28L5.32 295.45M6.21 295.28L5.98 295.11M5.98 295.11L5.76 295.28M6.21 294.78L5.98 294.78M6.21 293.45L4.88 293.45M4.88 293.45L6.21 292.79M6.21 292.79L4.88 292.79M6.43 291.46L6.21 291.46M6.21 291.46L6.21 291.29M6.21 291.29L5.54 291.29M5.54 291.29L5.32 291.13M5.32 291.13L5.32 290.96M5.32 290.96L6.21 290.96M6.21 290.96L6.21 291.29M6.21 291.29L6.21 290.8M6.21 290.8L6.43 290.8M5.98 290.46L6.21 290.3M6.21 290.3L6.21 289.97M6.21 289.97L5.98 289.8M5.98 289.8L5.32 289.8M5.32 289.8L5.76 289.8M5.76 289.8L5.76 290.13M5.76 290.13L5.32 290.46M5.32 288.97L5.32 289.47M5.32 289.47L6.21 289.47M6.21 289.47L6.21 288.97M6.21 288.97L5.98 288.8M5.98 288.8L5.76 288.97M5.76 288.97L5.76 289.47M6.21 288.47L5.32 288.14M5.32 288.14L5.32 287.81M5.32 287.81L6.21 287.81M6.21 287.48L5.98 287.48"
fill="none" stroke="black" stroke-width="3"/>
</g>
<g><path d="M6.21 324.53L4.88 324.53M4.88 324.53L4.88 323.87M4.88 323.87L6.21 323.87M5.98 323.53L5.54 323.53M5.54 323.53L5.32 323.37M5.32 323.37L5.32 323.04M5.32 323.04L5.54 322.87M5.54 322.87L5.98 322.87M5.98 322.87L6.21 323.04M6.21 323.04L6.21 323.37M6.21 323.37L5.98 323.53M6.43 322.54L6.21 322.54M6.21 322.54L6.21 322.37M6.21 322.37L5.54 322.37M5.54 322.37L5.32 322.21M5.32 322.21L5.32 322.04M5.32 322.04L6.21 322.04M6.21 322.04L6.21 322.37M6.21 322.37L6.21 321.87M6.21 321.87L6.43 321.87M6.21 321.54L5.32 321.54M5.32 321.54L5.32 320.88M5.32 320.88L6.21 320.88M6.21 320.54L5.98 320.54M5.32 319.22L6.21 319.22M6.21 319.22L5.32 318.55M5.32 318.55L6.21 318.55M6.43 317.22L6.21 317.22M6.21 317.22L6.21 317.06M6.21 317.06L5.54 317.06M5.54 317.06L5.32 316.89M5.32 316.89L5.32 316.73M5.32 316.73L6.21 316.73M6.21 316.73L6.21 317.06M6.21 317.06L6.21 316.56M6.21 316.56L6.43 316.56M5.98 316.23L5.54 316.23M5.54 316.23L5.32 316.06M5.32 316.06L5.32 315.73M5.32 315.73L5.54 315.56M5.54 315.56L5.32 315.56M5.32 315.56L6.21 315.56M6.21 315.56L5.98 315.56M5.98 315.56L6.21 315.73M6.21 315.73L6.21 316.06M6.21 316.06L5.98 316.23M6.21 314.9L5.32 314.9M5.32 314.9L5.32 315.23M5.32 315.23L5.32 314.57M5.98 314.23L5.54 314.23M5.54 314.23L5.32 314.07M5.32 314.07L5.32 313.74M5.32 313.74L5.54 313.57M5.54 313.57L5.32 313.57M5.32 313.57L6.21 313.57M6.21 313.57L5.98 313.57M5.98 313.57L6.21 313.74M6.21 313.74L6.21 314.07M6.21 314.07L5.98 314.23"
fill="none" stroke="black" stroke-width="3"/>
</g>
<g><path d="M6.21 338.12L5.32 337.46M5.32 337.46L6.21 337.46M6.21 337.46L4.88 337.46M4.88 338.12L6.21 338.12M6.21 337.12L5.32 337.12M5.32 337.12L5.76 337.12M5.76 337.12L5.76 336.46M5.76 336.46L5.32 336.46M5.32 336.46L6.21 336.46M6.21 336.13L5.32 336.13M5.32 336.13L5.32 335.8M5.76 335.8L5.76 336.13M5.76 336.13L5.76 335.63M6.21 335.63L6.21 336.13M5.76 335.8L5.54 335.63M5.54 335.63L5.32 335.8M6.21 335.63L5.98 335.46M5.98 335.46L5.76 335.63M6.21 335.13L5.98 335.13M6.21 333.8L4.88 333.8M4.88 333.8L6.21 333.14M6.21 333.14L4.88 333.14M6.21 331.81L5.32 331.81M5.32 331.81L5.32 331.15M5.32 331.15L6.21 331.15M5.98 330.81L5.54 330.81M5.54 330.81L5.32 330.65M5.32 330.65L5.32 330.32M5.32 330.32L5.54 330.15M5.54 330.15L5.98 330.15M5.98 330.15L6.21 330.32M6.21 330.32L6.21 330.65M6.21 330.65L5.98 330.81M6.43 329.82L6.21 329.82M6.21 329.82L6.21 329.65M6.21 329.65L5.54 329.65M5.54 329.65L5.32 329.49M5.32 329.49L5.32 329.32M5.32 329.32L6.21 329.32M6.21 329.32L6.21 329.65M6.21 329.65L6.21 329.15M6.21 329.15L6.43 329.15M6.21 328.82L5.32 328.49M5.32 328.49L5.32 328.16M5.32 328.16L6.21 328.16M6.21 327.83L5.98 327.83"
fill="none" stroke="black" stroke-width="3"/>
</g>
<g><path d="M42.02 62.98L40.83 62.98"
fill="none" stroke="black" stroke-width="3"/>
</g>
<g><path d="M397.91 338.5L397.34 338.5M397.34 338.22L397.63 338.43M397.63 338.43L397.63 338.5M397.63 338.43L397.91 338.22M397.91 338.08L397.34 338.08M397.34 338.08L397.34 337.79M397.34 337.79L397.91 337.79M397.91 337.79L397.91 338.08M397.91 337.65L397.34 337.65M397.34 337.65L397.91 337.37M397.91 337.37L397.34 337.37M397.82 337.22L397.91 337.15M397.91 337.15L397.91 337.01M397.91 337.01L397.82 336.94M397.82 336.94L397.44 337.22M397.44 337.22L397.34 337.15M397.34 337.15L397.34 337.01M397.34 337.01L397.44 336.94M397.91 336.8L397.34 336.8M397.34 336.8L397.34 336.51M397.63 336.8L397.63 336.65M397.91 336.8L397.91 336.51M397.91 336.37L397.34 336.08M397.34 336.37L397.91 336.08M397.91 335.94L397.34 335.94M397.34 335.94L397.34 335.73M397.34 335.73L397.44 335.66M397.44 335.66L397.53 335.66M397.53 335.66L397.63 335.73M397.63 335.73L397.63 335.94M397.91 335.51L397.34 335.51M397.34 335.51L397.34 335.23M397.63 335.51L397.63 335.37M397.91 335.51L397.91 335.23M397.91 335.09L397.34 335.09M397.34 335.09L397.34 334.87M397.34 334.87L397.44 334.8M397.44 334.8L397.53 334.8M397.53 334.8L397.63 334.87M397.63 334.87L397.63 335.09M397.63 335.02L397.91 334.8M397.34 334.66L397.34 334.38M397.34 334.52L397.91 334.52M397.72 333.52L397.91 333.66M397.91 333.66L397.91 333.74M397.91 333.74L397.82 333.81M397.82 333.81L397.72 333.81M397.72 333.81L397.53 333.66M397.53 333.66L397.44 333.66M397.44 333.66L397.34 333.74M397.34 333.74L397.44 333.81M397.44 333.81L397.53 333.81M397.53 333.81L397.91 333.52M397.91 332.95L397.34 332.95M397.34 332.95L397.34 332.74M397.34 332.74L397.44 332.67M397.44 332.67L397.53 332.67M397.53 332.67L397.63 332.74M397.63 332.74L397.63 332.95M397.63 332.88L397.91 332.67M397.34 332.53L397.34 332.38M397.34 332.45L397.91 332.45M397.91 332.53L397.91 332.38M397.91 332.24L397.91 332.03M397.91 332.03L397.82 331.96M397.82 331.96L397.72 331.96M397.72 331.96L397.63 332.03M397.63 332.03L397.63 332.17M397.63 332.03L397.53 331.96M397.53 331.96L397.44 331.96M397.44 331.96L397.34 332.03M397.34 332.03L397.34 332.24M397.34 332.17L397.91 332.17M397.91 331.81L397.91 331.6M397.91 331.6L397.82 331.53M397.82 331.53L397.72 331.53M397.72 331.53L397.63 331.6M397.63 331.6L397.63 331.74M397.63 331.6L397.53 331.53M397.53 331.53L397.44 331.53M397.44 331.53L397.34 331.6M397.34 331.6L397.34 331.81M397.34 331.74L397.91 331.74M397.91 331.39L397.34 331.39M397.34 331.39L397.34 331.1M397.34 331.1L397.91 331.1M397.91 331.1L397.91 331.39M397.91 330.96L397.34 330.96M397.34 330.96L397.91 330.68M397.91 330.68L397.34 330.68M397.82 330.53L397.91 330.46M397.91 330.46L397.91 330.32M397.91 330.32L397.82 330.25M397.82 330.25L397.44 330.53M397.44 330.53L397.34 330.46M397.34 330.46L397.34 330.32M397.34 330.32L397.44 330.25M397.91 330.11L397.34 330.11M397.34 330.11L397.34 329.82M397.34 329.82L397.91 329.82M397.91 329.82L397.91 330.11M397.91 329.68L397.34 329.68M397.34 329.68L397.34 329.39M397.63 329.68L397.63 329.54M397.34 329.25L397.34 328.97M397.34 329.11L397.91 329.11"
fill="none" stroke="black" stroke-width="3"/>
</g>
<g><path d="M398.77 337.53L398.2 337.53M398.2 337.53L398.2 337.25M398.2 337.25L398.77 337.25M398.77 337.25L398.77 337.53M398.77 337.1L398.2 337.1M398.2 337.1L398.2 336.89M398.2 336.89L398.3 336.82M398.3 336.82L398.39 336.82M398.39 336.82L398.49 336.89M398.49 336.89L398.49 337.1M398.77 336.68L398.2 336.68M398.2 336.68L398.2 336.39M398.49 336.68L398.49 336.53M398.77 336.68L398.77 336.39M398.77 336.25L398.2 336.25M398.2 336.25L398.77 335.96M398.77 335.96L398.2 335.96M398.68 335.39L398.77 335.32M398.77 335.32L398.77 335.18M398.77 335.18L398.68 335.11M398.68 335.11L398.3 335.39M398.3 335.39L398.2 335.32M398.2 335.32L398.2 335.18M398.2 335.18L398.3 335.11M398.77 334.97L398.2 334.97M398.2 334.97L398.2 334.68M398.2 334.68L398.77 334.68M398.77 334.68L398.77 334.97M398.2 334.54L398.68 334.54M398.68 334.54L398.77 334.47M398.77 334.47L398.77 334.33M398.77 334.33L398.68 334.26M398.68 334.26L398.2 334.26M398.77 334.11L398.2 334.11M398.2 334.11L398.2 333.9M398.2 333.9L398.3 333.83M398.3 333.83L398.39 333.83M398.39 333.83L398.49 333.9M398.49 333.9L398.49 334.11M398.49 334.04L398.77 333.83M398.68 333.4L398.77 333.47M398.77 333.47L398.77 333.62M398.77 333.62L398.68 333.69M398.68 333.69L398.3 333.69M398.3 333.69L398.2 333.62M398.2 333.62L398.2 333.47M398.2 333.47L398.3 333.4M398.77 333.26L398.2 333.26M398.2 333.26L398.2 332.98M398.49 333.26L398.49 333.12M398.77 333.26L398.77 332.98M398.77 332.41L398.2 332.41M398.2 332.41L398.2 332.19M398.2 332.19L398.3 332.12M398.3 332.12L398.39 332.12M398.39 332.12L398.49 332.19M398.49 332.19L398.49 332.41M398.49 332.33L398.77 332.12M398.77 331.98L398.2 331.98M398.2 331.98L398.2 331.69M398.49 331.98L398.49 331.84M398.77 331.98L398.77 331.69M398.2 331.55L398.77 331.55M398.77 331.55L398.77 331.27M398.77 331.12L398.2 331.12M398.2 331.12L398.2 330.84M398.49 331.12L398.49 330.98M398.77 331.12L398.77 330.84M398.77 330.7L398.58 330.7M398.58 330.7L398.2 330.56M398.2 330.56L398.58 330.41M398.58 330.41L398.77 330.41M398.58 330.7L398.58 330.41M398.68 330.27L398.77 330.2M398.77 330.2L398.77 330.06M398.77 330.06L398.68 329.99M398.68 329.99L398.3 330.27M398.3 330.27L398.2 330.2M398.2 330.2L398.2 330.06M398.2 330.06L398.3 329.99M398.77 329.84L398.2 329.84M398.2 329.84L398.2 329.56M398.49 329.84L398.49 329.7M398.77 329.84L398.77 329.56"
fill="none" stroke="black" stroke-width="3"/>
</g>
<g><path d="M309.12 333.79L339.96 333.79"
fill="none" stroke="black" stroke-width=".5"/>
</g>
<g><path d="M392.15 338.54L392.15 331.42"
fill="none" stroke="black" stroke-width="9"/>
</g>
<g><path d="M309.12 331.42L396.89 331.42"
fill="none" stroke="black" stroke-width="9"/>
</g>
<g><path d="M312.44 338.54L312.44 331.42"
fill="none" stroke="black" stroke-width="9"/>
</g>
<g><path d="M317.19 338.54L317.19 331.42"
fill="none" stroke="black" stroke-width="9"/>
</g>
<g><path d="M328.1 338.54L328.1 331.42"
fill="none" stroke="black" stroke-width="9"/>
</g>
<g><path d="M335.22 338.54L335.22 331.42"
fill="none" stroke="black" stroke-width="9"/>
</g>
<g><path d="M309.12 336.17L339.96 336.17"
fill="none" stroke="black" stroke-width="9"/>
</g>
<g><path d="M339.96 338.54L339.96 331.42"
fill="none" stroke="black" stroke-width="9"/>
</g>
<g><path d="M392.15 334.98L396.89 334.98"
fill="none" stroke="black" stroke-width="9"/>
</g>
<g><path d="M309.12 338.54L309.12 331.42"
fill="none" stroke="black" stroke-width="9"/>
</g>
<g><path d="M309.32 338.13L309.94 337.3M309.94 337.3L309.94 338.13M309.94 338.13L309.94 336.89M309.32 336.89L309.32 338.13M310.25 337.51L310.4 337.3M310.4 337.3L310.71 337.3M310.71 337.3L310.86 337.51M310.86 337.51L310.71 337.72M310.71 337.72L310.56 337.72M310.56 337.72L310.71 337.72M310.71 337.72L310.86 337.92M310.86 337.92L310.71 338.13M310.71 338.13L310.4 338.13M310.4 338.13L310.25 337.92M311.17 338.13L311.17 337.3M311.17 337.3L311.48 337.72M311.48 337.72L311.79 337.3M311.79 337.3L311.79 338.13M312.1 338.13L312.1 337.92"
fill="none" stroke="black" stroke-width="3"/>
</g>
<g><path d="M312.78 338.12L312.94 338.12M312.94 338.12L313.4 336.88M313.4 336.88L313.55 336.88M313.55 336.88L313.55 338.12M313.86 337.29L313.86 338.12M313.86 338.12L314.48 337.29M314.48 337.29L314.48 338.12M315.4 337.91L315.25 338.12M315.25 338.12L314.94 338.12M314.94 338.12L314.79 337.91M314.79 337.91L314.79 337.5M314.79 337.5L314.94 337.29M314.94 337.29L315.25 337.29M315.25 337.29L315.4 337.5M316.02 338.12L316.02 337.29M316.02 337.29L315.71 337.29M315.71 337.29L316.33 337.29M316.64 338.12L316.64 337.91"
fill="none" stroke="black" stroke-width="3"/>
</g>
<g><path d="M318.98 338.03L318.98 336.79M318.98 336.79L319.6 338.03M319.6 338.03L319.6 336.79M320.83 338.23L320.83 338.03M320.83 338.03L320.98 338.03M320.98 338.03L320.98 337.41M320.98 337.41L321.14 337.21M321.14 337.21L321.29 337.21M321.29 337.21L321.29 338.03M321.29 338.03L320.98 338.03M320.98 338.03L321.45 338.03M321.45 338.03L321.45 338.23M321.75 337.82L321.75 337.41M321.75 337.41L321.91 337.21M321.91 337.21L322.22 337.21M322.22 337.21L322.37 337.41M322.37 337.41L322.37 337.82M322.37 337.82L322.22 338.03M322.22 338.03L321.91 338.03M321.91 338.03L321.75 337.82M322.68 338.03L322.68 337.21M322.68 337.21L322.68 337.62M322.68 337.62L322.99 337.62M322.99 337.62L323.3 337.21M323.3 337.21L322.99 337.62M322.99 337.62L323.3 338.03M323.6 337.82L323.76 338.03M323.76 338.03L324.07 338.03M324.07 338.03L324.22 337.82M324.22 337.82L324.22 337.21M324.22 337.21L324.22 337.62M324.22 337.62L323.91 337.62M323.91 337.62L323.6 337.21M324.53 338.03L324.53 337.21M324.53 337.21L324.84 337.62M324.84 337.62L325.15 337.21M325.15 337.21L325.15 338.03M325.45 338.03L325.45 337.82"
fill="none" stroke="black" stroke-width="3"/>
</g>
<g><path d="M329.7 337.89L329.7 336.66M329.7 336.66L330.32 336.66M330.32 336.66L330.32 337.89M330.63 337.69L330.63 337.27M330.63 337.27L330.78 337.07M330.78 337.07L331.09 337.07M331.09 337.07L331.24 337.27M331.24 337.27L331.24 337.69M331.24 337.69L331.09 337.89M331.09 337.89L330.78 337.89M330.78 337.89L330.63 337.69M331.55 338.1L331.55 337.89M331.55 337.89L331.7 337.89M331.7 337.89L331.7 337.27M331.7 337.27L331.86 337.07M331.86 337.07L332.01 337.07M332.01 337.07L332.01 337.89M332.01 337.89L331.7 337.89M331.7 337.89L332.17 337.89M332.17 337.89L332.17 338.1M332.48 337.89L332.48 337.07M332.48 337.07L333.09 337.07M333.09 337.07L333.09 337.89M333.4 337.89L333.4 337.69"
fill="none" stroke="black" stroke-width="3"/>
</g>
<g><path d="M335.48 338.09L335.48 337.89M335.48 337.89L336.22 337.89M336.22 337.89L336.22 336.71M336.22 336.71L335.92 336.71M335.92 336.71L335.63 337.5M335.63 337.5L335.63 337.89M335.63 337.89L336.37 337.89M336.37 337.89L336.37 338.09M336.67 337.7L336.67 337.3M336.67 337.3L336.81 337.1M336.81 337.1L337.11 337.1M337.11 337.1L337.26 337.3M337.26 337.3L337.26 337.1M337.26 337.1L337.26 337.89M337.26 337.89L337.26 337.7M337.26 337.7L337.11 337.89M337.11 337.89L336.81 337.89M336.81 337.89L336.67 337.7M337.85 337.89L337.85 337.1M337.85 337.1L337.56 337.1M337.56 337.1L338.15 337.1M338.44 337.7L338.44 337.3M338.44 337.3L338.59 337.1M338.59 337.1L338.89 337.1M338.89 337.1L339.04 337.3M339.04 337.3L339.04 337.1M339.04 337.1L339.04 337.89M339.04 337.89L339.04 337.7M339.04 337.7L338.89 337.89M338.89 337.89L338.59 337.89M338.59 337.89L338.44 337.7"
fill="none" stroke="black" stroke-width="3"/>
</g>
<g><path d="M350.23 337.09L351.89 337.09"
fill="none" stroke="black" stroke-width="3"/>
</g>
<g><path d="M392.7 333.96L392.85 333.96M392.85 333.96L393.29 332.78M393.29 332.78L393.44 332.78M393.44 332.78L393.44 333.96M393.74 333.17L393.74 333.96M393.74 333.96L394.33 333.17M394.33 333.17L394.33 333.96M395.22 333.76L395.07 333.96M395.07 333.96L394.78 333.96M394.78 333.96L394.63 333.76M394.63 333.76L394.63 333.37M394.63 333.37L394.78 333.17M394.78 333.17L395.07 333.17M395.07 333.17L395.22 333.37M395.81 333.96L395.81 333.17M395.81 333.17L395.52 333.17M395.52 333.17L396.11 333.17"
fill="none" stroke="black" stroke-width="3"/>
</g>
<g><path d="M394.05 338.12L395.23 338.12"
fill="none" stroke="black" stroke-width="3"/>
</g>
<g><path d="M376.48 340.2L376.48 338.87M376.48 338.87L376.32 338.87M376.32 338.87L376.15 339.09M376.15 339.09L376.15 339.53M376.15 339.53L376.32 339.76M376.32 339.76L376.65 339.76M376.65 339.76L376.82 339.53M376.82 339.53L376.82 339.09M376.82 339.09L376.65 338.87M376.65 338.87L376.48 338.87M377.15 339.98L377.15 339.53M377.15 339.53L377.32 339.31M377.32 339.31L377.65 339.31M377.65 339.31L377.81 339.53M377.81 339.53L377.81 339.98M377.81 339.98L377.65 340.2M377.65 340.2L377.32 340.2M377.32 340.2L377.15 339.98M378.15 340.2L378.15 339.31M378.15 339.31L378.64 339.31M378.64 339.31L378.81 339.53M378.81 339.53L378.81 339.76M378.81 339.76L378.64 339.98M378.64 339.98L378.15 339.98M379.14 340.2L379.14 339.31M379.14 339.31L379.47 339.76M379.47 339.76L379.81 339.31M379.81 339.31L379.81 340.2M380.14 339.98L380.14 339.53M380.14 339.53L380.3 339.31M380.3 339.31L380.64 339.31M380.64 339.31L380.8 339.53M380.8 339.53L380.8 339.31M380.8 339.31L380.8 340.2M380.8 340.2L380.8 339.98M380.8 339.98L380.64 340.2M380.64 340.2L380.3 340.2M380.3 340.2L380.14 339.98M381.47 340.2L381.47 339.31M381.47 339.31L381.13 339.31M381.13 339.31L381.8 339.31M383.13 340.2L383.13 339.76M383.13 339.76L383.46 338.87M383.46 338.87L383.79 339.76M383.79 339.76L383.79 340.2M383.13 339.76L383.79 339.76M384.12 339.09L384.29 338.87M384.29 338.87L384.29 340.2M384.12 340.2L384.46 340.2M385.78 340.2L385.78 338.87M385.78 338.87L386.45 338.87M386.45 338.87L386.45 339.09M386.78 339.98L386.78 339.09M386.78 339.09L386.95 338.87M386.95 338.87L387.28 338.87M387.28 338.87L387.44 339.09M387.44 339.09L387.44 339.98M387.44 339.98L387.28 340.2M387.28 340.2L386.95 340.2M386.95 340.2L386.78 339.98M388.44 339.98L388.27 340.2M388.27 340.2L387.94 340.2M387.94 340.2L387.78 339.98M387.78 339.98L387.78 339.09M387.78 339.09L387.94 338.87M387.94 338.87L388.27 338.87M388.27 338.87L388.44 339.09M388.77 338.87L389.44 338.87M389.11 338.87L389.11 340.2M390.77 339.09L390.93 338.87M390.93 338.87L391.26 338.87M391.26 338.87L391.43 339.09M391.43 339.09L391.43 339.31M391.43 339.31L391.26 339.53M391.26 339.53L390.93 339.53M390.93 339.53L390.77 339.76M390.77 339.76L390.77 340.2M390.77 340.2L391.43 340.2M391.76 340.2L391.76 339.98M392.09 339.09L392.26 338.87M392.26 338.87L392.59 338.87M392.59 338.87L392.76 339.09M392.76 339.09L392.76 339.31M392.76 339.31L392.59 339.53M392.59 339.53L392.43 339.53M392.59 339.53L392.76 339.76M392.76 339.76L392.76 339.98M392.76 339.98L392.59 340.2M392.59 340.2L392.26 340.2M392.26 340.2L392.09 339.98M393.26 340.2L393.09 339.98M393.09 339.98L393.09 339.09M393.09 339.09L393.26 338.87M393.26 338.87L393.42 338.87M393.42 338.87L393.59 339.09M393.59 339.09L393.59 339.98M393.59 339.98L393.42 340.2M393.42 340.2L393.26 340.2M393.92 339.09L394.09 338.87M394.09 338.87L394.09 340.2M393.92 340.2L394.25 340.2"
fill="none" stroke="black" stroke-width="3"/>
</g>
<g><path d="M349.18 59.85L349.35 59.61M349.35 59.61L349.35 61.03M349.18 61.03L349.53 61.03"
fill="none" stroke="black" stroke-width="3"/>
</g>
<g><path d="M249.54 59.85L249.72 59.61M249.72 59.61L250.08 59.61M250.08 59.61L250.25 59.85M250.25 59.85L250.25 60.08M250.25 60.08L250.08 60.32M250.08 60.32L249.72 60.32M249.72 60.32L249.54 60.56M249.54 60.56L249.54 61.03M249.54 61.03L250.25 61.03"
fill="none" stroke="black" stroke-width="3"/>
</g>
<g><path d="M149.91 59.85L150.09 59.61M150.09 59.61L150.44 59.61M150.44 59.61L150.62 59.85M150.62 59.85L150.62 60.08M150.62 60.08L150.44 60.32M150.44 60.32L150.27 60.32M150.44 60.32L150.62 60.56M150.62 60.56L150.62 60.79M150.62 60.79L150.44 61.03M150.44 61.03L150.09 61.03M150.09 61.03L149.91 60.79"
fill="none" stroke="black" stroke-width="3"/>
</g>
<g><path d="M50.99 60.56L50.28 60.56M50.28 60.56L50.81 59.61M50.81 59.61L50.81 61.03"
fill="none" stroke="black" stroke-width="3"/>
</g>
<g><path d="M349.18 339.26L349.35 339.02M349.35 339.02L349.35 340.44M349.18 340.44L349.53 340.44"
fill="none" stroke="black" stroke-width="3"/>
</g>
<g><path d="M249.54 339.26L249.72 339.02M249.72 339.02L250.08 339.02M250.08 339.02L250.25 339.26M250.25 339.26L250.25 339.49M250.25 339.49L250.08 339.73M250.08 339.73L249.72 339.73M249.72 339.73L249.54 339.97M249.54 339.97L249.54 340.44M249.54 340.44L250.25 340.44"
fill="none" stroke="black" stroke-width="3"/>
</g>
<g><path d="M149.91 339.26L150.09 339.02M150.09 339.02L150.44 339.02M150.44 339.02L150.62 339.26M150.62 339.26L150.62 339.49M150.62 339.49L150.44 339.73M150.44 339.73L150.27 339.73M150.44 339.73L150.62 339.97M150.62 339.97L150.62 340.2M150.62 340.2L150.44 340.44M150.44 340.44L150.09 340.44M150.09 340.44L149.91 340.2"
fill="none" stroke="black" stroke-width="3"/>
</g>
<g><path d="M50.99 339.97L50.28 339.97M50.28 339.97L50.81 339.02M50.81 339.02L50.81 340.44"
fill="none" stroke="black" stroke-width="3"/>
</g>
<g><path d="M4.76 264.09L4.76 263.46M4.76 263.46L5.23 262.19M5.23 262.19L5.7 263.46M5.7 263.46L5.7 264.09M4.76 263.46L5.7 263.46"
fill="none" stroke="black" stroke-width="3"/>
</g>
<g><path d="M397.4 264.09L397.4 263.46M397.4 263.46L397.88 262.19M397.88 262.19L398.35 263.46M398.35 263.46L398.35 264.09M397.4 263.46L398.35 263.46"
fill="none" stroke="black" stroke-width="3"/>
</g>
<g><path d="M4.76 127.64L5.47 127.64M5.47 127.64L5.7 127.32M5.7 127.32L5.7 127M5.7 127L5.47 126.69M5.47 126.69L4.99 126.69M5.47 126.69L5.7 126.37M5.7 126.37L5.7 126.05M5.7 126.05L5.47 125.74M5.47 125.74L4.76 125.74M4.99 125.74L4.99 127.64"
fill="none" stroke="black" stroke-width="3"/>
</g>
<g><path d="M397.4 127.64L398.11 127.64M398.11 127.64L398.35 127.32M398.35 127.32L398.35 127M398.35 127L398.11 126.69M398.11 126.69L397.64 126.69M398.11 126.69L398.35 126.37M398.35 126.37L398.35 126.05M398.35 126.05L398.11 125.74M398.11 125.74L397.4 125.74M397.64 125.74L397.64 127.64"
fill="none" stroke="black" stroke-width="3"/>
</g>
<g><path d="M6.44 309.4L6.44 308.9M6.44 308.9L6.22 308.74M6.22 308.74L6 308.74M6 308.74L5.78 308.9M5.78 308.9L5.78 309.23M5.78 308.9L5.55 308.74M5.55 308.74L5.33 308.74M5.33 308.74L5.11 308.9M5.11 308.9L5.11 309.4M5.11 309.23L6.44 309.23M5.78 308.4L5.55 308.24M5.55 308.24L5.55 307.91M5.55 307.91L5.78 307.74M5.78 307.74L6 307.91M6 307.91L6 308.07M6 308.07L6 307.91M6 307.91L6.22 307.74M6.22 307.74L6.44 307.91M6.44 307.91L6.44 308.24M6.44 308.24L6.22 308.4M6.22 307.41L5.78 307.41M5.78 307.41L5.55 307.24M5.55 307.24L5.55 306.91M5.55 306.91L5.78 306.74M5.78 306.74L5.55 306.74M5.55 306.74L6.44 306.74M6.44 306.74L6.22 306.74M6.22 306.74L6.44 306.91M6.44 306.91L6.44 307.24M6.44 307.24L6.22 307.41M6.44 306.41L5.55 306.41M5.55 306.41L6 306.08M6 306.08L5.55 305.75M5.55 305.75L6.44 305.75M6.44 305.41L6.22 305.41M5.55 304.09L6.44 304.09M6.44 304.09L5.55 303.42M5.55 303.42L6.44 303.42M6.44 303.09L5.55 303.09M5.55 303.09L6 303.09M6 303.09L6 302.43M6 302.43L5.55 302.43M5.55 302.43L6.44 302.43M6.44 302.09L5.55 302.09M5.55 302.09L5.55 301.76M6 301.76L6 302.09M6 302.09L6 301.6M6.44 301.6L6.44 302.09M6 301.76L5.78 301.6M5.78 301.6L5.55 301.76M6.44 301.6L6.22 301.43M6.22 301.43L6 301.6M6.44 301.1L6.22 301.1M6.44 300.77L5.11 300.77M5.11 300.77L6.44 300.1M6.44 300.1L5.11 300.1"
fill="none" stroke="black" stroke-width="3"/>
</g>
</g>
</svg>
