<?xml version="1.0" standalone="no"?><svg xmlns="http://www.w3.org/2000/svg" width="400.000" height="400.000" viewBox="0.0 0.0 400.000 400.000" version="1.1">
  <title>Produce by Acme CAD Converter</title>
  <desc>Produce by Acme CAD Converter</desc>
<g id="0" display="visible">
<g><path d="M218.12 375.78L218.12 359.01"
fill="none" stroke="black" stroke-width="9"/>
</g>
<g><path d="M224.82 395.91L224.82 359.01"
fill="none" stroke="black" stroke-width="9"/>
</g>
<g><path d="M240.26 395.91L240.26 359.01"
fill="none" stroke="black" stroke-width="9"/>
</g>
<g><path d="M250.32 395.91L250.32 359.01"
fill="none" stroke="black" stroke-width="9"/>
</g>
<g><path d="M257.03 395.91L257.03 359.01"
fill="none" stroke="black" stroke-width="9"/>
</g>
<g><path d="M257.03 369.07L213.42 369.07"
fill="none" stroke="black" stroke-width="3"/>
</g>
<g><path d="M257.03 365.72L213.42 365.72"
fill="none" stroke="black" stroke-width="3"/>
</g>
<g><path d="M257.03 362.37L213.42 362.37"
fill="none" stroke="black" stroke-width="3"/>
</g>
<g><path d="M257.03 372.43L213.42 372.43"
fill="none" stroke="black" stroke-width="9"/>
</g>
<g><path d="M257.03 375.78L213.42 375.78"
fill="none" stroke="black" stroke-width="9"/>
</g>
<g><path d="M257.03 379.14L213.42 379.14"
fill="none" stroke="black" stroke-width="3"/>
</g>
<g><path d="M257.03 382.49L213.42 382.49"
fill="none" stroke="black" stroke-width="3"/>
</g>
<g><path d="M257.03 389.2L213.42 389.2"
fill="none" stroke="black" stroke-width="3"/>
</g>
<g><path d="M257.03 392.56L213.42 392.56"
fill="none" stroke="black" stroke-width="3"/>
</g>
<g><path d="M250.65 375.27L250.65 374.98M250.65 374.98L251.74 374.98M251.74 374.98L251.74 373.23M251.74 373.23L251.31 373.23M251.31 373.23L250.87 374.4M250.87 374.4L250.87 374.98M250.87 374.98L251.96 374.98M251.96 374.98L251.96 375.27M252.4 374.69L252.4 374.11M252.4 374.11L252.62 373.82M252.62 373.82L253.05 373.82M253.05 373.82L253.27 374.11M253.27 374.11L253.27 373.82M253.27 373.82L253.27 374.98M253.27 374.98L253.27 374.69M253.27 374.69L253.05 374.98M253.05 374.98L252.62 374.98M252.62 374.98L252.4 374.69M254.14 374.98L254.14 373.82M254.14 373.82L253.71 373.82M253.71 373.82L254.58 373.82M255.02 374.69L255.02 374.11M255.02 374.11L255.23 373.82M255.23 373.82L255.67 373.82M255.67 373.82L255.89 374.11M255.89 374.11L255.89 373.82M255.89 373.82L255.89 374.98M255.89 374.98L255.89 374.69M255.89 374.69L255.67 374.98M255.67 374.98L255.23 374.98M255.23 374.98L255.02 374.69"
fill="none" stroke="black" stroke-width="3"/>
</g>
<g><path d="M337.54 369.07L257.03 369.07"
fill="none" stroke="black" stroke-width="9"/>
</g>
<g><path d="M337.54 385.85L257.03 385.85"
fill="none" stroke="black" stroke-width="9"/>
</g>
<g><path d="M303.99 395.91L303.99 369.07"
fill="none" stroke="black" stroke-width="9"/>
</g>
<g><path d="M337.54 372.43L303.99 372.43"
fill="none" stroke="black" stroke-width="9"/>
</g>
<g><path d="M337.54 382.49L303.99 382.49"
fill="none" stroke="black" stroke-width="9"/>
</g>
<g><path d="M317.41 385.85L317.41 382.49"
fill="none" stroke="black" stroke-width="9"/>
</g>
<g><path d="M314.06 382.49L314.06 369.07"
fill="none" stroke="black" stroke-width="9"/>
</g>
<g><path d="M325.46 382.49L325.46 369.07"
fill="none" stroke="black" stroke-width="9"/>
</g>
<g><path d="M307.35 382.49L307.35 372.43"
fill="none" stroke="black" stroke-width="3"/>
</g>
<g><path d="M310.7 382.49L310.7 372.43"
fill="none" stroke="black" stroke-width="3"/>
</g>
<g><path d="M337.54 359.01L213.42 359.01"
fill="none" stroke="black" stroke-width="9"/>
</g>
<g><path d="M257.03 385.85L213.42 385.85"
fill="none" stroke="black" stroke-width="3"/>
</g>
<g><path d="M213.42 395.91L213.42 359.01"
fill="none" stroke="black" stroke-width="9"/>
</g>
<g><path d="M200 399.27L200 395.91"
fill="none" stroke="black" stroke-width="3"/>
</g>
<g><path d="M317.67 9.77L318.09 9.21M318.09 9.21L318.93 9.21M318.93 9.21L319.35 9.77M319.35 9.77L319.35 10.32M319.35 10.32L318.93 10.88M318.93 10.88L318.51 10.88M318.93 10.88L319.35 11.44M319.35 11.44L319.35 12M319.35 12L318.93 12.56M318.93 12.56L318.09 12.56M318.09 12.56L317.67 12M320.61 12L320.61 12.56M320.61 12.56L320.19 13.12M321.45 9.77L321.87 9.21M321.87 9.21L322.71 9.21M322.71 9.21L323.13 9.77M323.13 9.77L323.13 10.32M323.13 10.32L322.71 10.88M322.71 10.88L321.87 10.88M321.87 10.88L321.45 11.44M321.45 11.44L321.45 12.56M321.45 12.56L323.13 12.56"
fill="none" stroke="black" stroke-width="3"/>
</g>
<g><path d="M325.1 13.55L324.62 15.34M324.62 15.34L325.1 17.13"
fill="none" stroke="black" stroke-width="3"/>
</g>
<g><path d="M321.35 17.12L324.04 12.47"
fill="none" stroke="black" stroke-width="3"/>
</g>
<g><path d="M330.03 17.13L330.5 15.34M330.5 15.34L330.03 13.55"
fill="none" stroke="black" stroke-width="3"/>
</g>
<g><path d="M327.44 17.12L330.13 12.47"
fill="none" stroke="black" stroke-width="3"/>
</g>
<g><path d="M327.44 17.12L325.77 14.21"
fill="none" stroke="black" stroke-width="3"/>
</g>
<g><path d="M321.35 17.12L319.68 14.21"
fill="none" stroke="black" stroke-width="3"/>
</g>
<g><path d="M337.54 4.09L337.54 395.91"
fill="none" stroke="black" stroke-width="9"/>
</g>
<g><path d="M340.9 0.73L340.9 399.27"
fill="none" stroke="black" stroke-width="3"/>
</g>
<g><path d="M200 4.09L200 0.73"
fill="none" stroke="black" stroke-width="3"/>
</g>
<g><path d="M337.54 200L340.9 200"
fill="none" stroke="black" stroke-width="3"/>
</g>
<g><path d="M72.52 298.63L64.47 298.63"
fill="none" stroke="black" stroke-width="9"/>
</g>
<g><path d="M64.47 395.91L64.47 298.63"
fill="none" stroke="black" stroke-width="9"/>
</g>
<g><path d="M72.52 322.11L64.47 322.11"
fill="none" stroke="black" stroke-width="9"/>
</g>
<g><path d="M72.52 338.88L64.47 338.88"
fill="none" stroke="black" stroke-width="9"/>
</g>
<g><path d="M72.52 355.66L64.47 355.66"
fill="none" stroke="black" stroke-width="9"/>
</g>
<g><path d="M72.52 379.14L64.47 379.14"
fill="none" stroke="black" stroke-width="9"/>
</g>
<g><path d="M67.83 395.91L67.83 298.63"
fill="none" stroke="black" stroke-width="3"/>
</g>
<g><path d="M72.52 13.48L119.49 13.48"
fill="none" stroke="black" stroke-width="9"/>
</g>
<g><path d="M119.49 13.48L119.49 4.09"
fill="none" stroke="black" stroke-width="9"/>
</g>
<g><path d="M59.1 399.27L59.1 0.73"
fill="none" stroke="black" stroke-width="3"/>
</g>
<g><path d="M72.52 395.91L72.52 4.09"
fill="none" stroke="black" stroke-width="9"/>
</g>
<g><path d="M72.52 84.6L64.47 84.6"
fill="none" stroke="black" stroke-width="9"/>
</g>
<g><path d="M72.52 44.34L64.47 44.34"
fill="none" stroke="black" stroke-width="9"/>
</g>
<g><path d="M67.83 84.6L67.83 4.09"
fill="none" stroke="black" stroke-width="3"/>
</g>
<g><path d="M64.47 84.6L64.47 4.09"
fill="none" stroke="black" stroke-width="9"/>
</g>
<g><path d="M59.1 200L72.52 200"
fill="none" stroke="black" stroke-width="3"/>
</g>
<g><path d="M59.1 0.73L340.9 0.73"
fill="none" stroke="black" stroke-width="3"/>
</g>
<g><path d="M64.47 4.09L337.54 4.09"
fill="none" stroke="black" stroke-width="9"/>
</g>
<g><path d="M340.9 399.27L59.1 399.27"
fill="none" stroke="black" stroke-width="3"/>
</g>
<g><path d="M337.54 395.91L64.47 395.91"
fill="none" stroke="black" stroke-width="9"/>
</g>
<g><path d="M315.99 371.56L315.99 369.68M315.99 369.68L316.46 370.93M316.46 370.93L316.93 369.68M316.93 369.68L316.93 371.56M317.4 371.25L317.4 370.62M317.4 370.62L317.63 370.31M317.63 370.31L318.1 370.31M318.1 370.31L318.34 370.62M318.34 370.62L318.34 370.31M318.34 370.31L318.34 371.56M318.34 371.56L318.34 371.25M318.34 371.25L318.1 371.56M318.1 371.56L317.63 371.56M317.63 371.56L317.4 371.25M319.75 371.25L319.51 371.56M319.51 371.56L319.04 371.56M319.04 371.56L318.81 371.25M318.81 371.25L318.81 370.62M318.81 370.62L319.04 370.31M319.04 370.31L319.51 370.31M319.51 370.31L319.75 370.62M321.15 371.25L320.92 371.56M320.92 371.56L320.45 371.56M320.45 371.56L320.22 371.25M320.22 371.25L320.22 370.62M320.22 370.62L320.45 370.31M320.45 370.31L320.92 370.31M320.92 370.31L321.15 370.62M321.62 371.25L321.62 370.62M321.62 370.62L321.86 370.31M321.86 370.31L322.33 370.31M322.33 370.31L322.56 370.62M322.56 370.62L322.56 370.31M322.56 370.31L322.56 371.56M322.56 371.56L322.56 371.25M322.56 371.25L322.33 371.56M322.33 371.56L321.86 371.56M321.86 371.56L321.62 371.25"
fill="none" stroke="black" stroke-width="3"/>
</g>
<g><path d="M325.86 371.6L325.86 369.72M325.86 369.72L326.33 370.97M326.33 370.97L326.8 369.72M326.8 369.72L326.8 371.6M327.27 371.29L327.27 370.66M327.27 370.66L327.5 370.35M327.5 370.35L327.97 370.35M327.97 370.35L328.2 370.66M328.2 370.66L328.2 370.35M328.2 370.35L328.2 371.6M328.2 371.6L328.2 371.29M328.2 371.29L327.97 371.6M327.97 371.6L327.5 371.6M327.5 371.6L327.27 371.29M329.61 371.29L329.38 371.6M329.38 371.6L328.91 371.6M328.91 371.6L328.67 371.29M328.67 371.29L328.67 370.66M328.67 370.66L328.91 370.35M328.91 370.35L329.38 370.35M329.38 370.35L329.61 370.66M330.08 371.6L330.08 370.35M330.08 370.35L330.08 371.6M330.08 371.6L330.55 371.6M330.55 371.6L330.55 370.97M330.55 370.97L330.55 371.6M330.55 371.6L331.02 371.6M331.02 371.6L331.02 370.35M331.96 371.6L331.96 370.35M331.96 370.35L331.49 370.35M331.49 370.35L332.43 370.35M332.9 371.29L332.9 370.66M332.9 370.66L333.14 370.35M333.14 370.35L333.61 370.35M333.61 370.35L333.84 370.66M333.84 370.66L333.84 370.35M333.84 370.35L333.84 371.6M333.84 371.6L333.84 371.29M333.84 371.29L333.61 371.6M333.61 371.6L333.14 371.6M333.14 371.6L332.9 371.29M335.01 370.35L334.31 370.35M334.31 370.35L334.31 371.6M334.31 371.6L335.01 371.6M335.01 371.6L335.25 371.29M335.25 371.29L335.01 370.97M335.01 370.97L334.31 370.97"
fill="none" stroke="black" stroke-width="3"/>
</g>
<g><path d="M329.6 376.05L329.94 375.6M329.94 375.6L329.94 378.28M329.6 378.28L330.27 378.28M330.95 376.49L330.95 376.94M330.95 377.39L330.95 377.84M331.62 376.05L331.95 375.6M331.95 375.6L331.95 378.28M331.62 378.28L332.29 378.28"
fill="none" stroke="black" stroke-width="3"/>
</g>
<g><path d="M317.83 378.97L319.18 378.97"
fill="none" stroke="black" stroke-width="3"/>
</g>
<g><path d="M304.91 378.93L306.26 378.93"
fill="none" stroke="black" stroke-width="3"/>
</g>
<g><path d="M305.12 384.95L305.35 384.95M305.35 384.95L306.06 383.07M306.06 383.07L306.29 383.07M306.29 383.07L306.29 384.95M306.76 383.7L306.76 384.95M306.76 384.95L307.7 383.7M307.7 383.7L307.7 384.95M309.11 384.64L308.88 384.95M308.88 384.95L308.41 384.95M308.41 384.95L308.17 384.64M308.17 384.64L308.17 384.01M308.17 384.01L308.41 383.7M308.41 383.7L308.88 383.7M308.88 383.7L309.11 384.01M310.05 384.95L310.05 383.7M310.05 383.7L309.58 383.7M309.58 383.7L310.52 383.7"
fill="none" stroke="black" stroke-width="3"/>
</g>
<g><path d="M318.5 384.85L318.74 384.85M318.74 384.85L319.44 382.97M319.44 382.97L319.68 382.97M319.68 382.97L319.68 384.85M320.15 383.6L320.15 384.85M320.15 384.85L321.08 383.6M321.08 383.6L321.08 384.85M322.49 384.54L322.26 384.85M322.26 384.85L321.79 384.85M321.79 384.85L321.55 384.54M321.55 384.54L321.55 383.91M321.55 383.91L321.79 383.6M321.79 383.6L322.26 383.6M322.26 383.6L322.49 383.91M323.43 384.85L323.43 383.6M323.43 383.6L322.96 383.6M322.96 383.6L323.9 383.6M324.37 384.54L324.37 383.91M324.37 383.91L324.61 383.6M324.61 383.6L325.08 383.6M325.08 383.6L325.31 383.91M325.31 383.91L325.31 384.54M325.31 384.54L325.08 384.85M325.08 384.85L324.61 384.85M324.61 384.85L324.37 384.54M325.78 384.85L325.78 383.6M325.78 383.6L326.25 383.6M326.25 384.23L325.78 384.23M325.78 384.23L326.49 384.23M326.49 384.85L325.78 384.85M326.25 384.23L326.42 384.14M326.42 384.14L326.49 383.91M326.49 383.91L326.42 383.69M326.42 383.69L326.25 383.6M326.49 384.85L326.65 384.76M326.65 384.76L326.72 384.54M326.72 384.54L326.65 384.32M326.65 384.32L326.49 384.23"
fill="none" stroke="black" stroke-width="3"/>
</g>
<g><path d="M257.76 391.82L258.93 391.82"
fill="none" stroke="black" stroke-width="3"/>
</g>
<g><path d="M266.86 389.09L268.04 389.09"
fill="none" stroke="black" stroke-width="3"/>
</g>
<g><path d="M266.86 394.48L268.04 394.48"
fill="none" stroke="black" stroke-width="3"/>
</g>
<g><path d="M305.54 394.56L307.22 394.56"
fill="none" stroke="black" stroke-width="3"/>
</g>
<g><path d="M266.7 391L300.25 391"
fill="none" stroke="black" stroke-width="3"/>
</g>
<g><path d="M263.83 380.83L265.51 380.83"
fill="none" stroke="black" stroke-width="3"/>
</g>
<g><path d="M269.13 366.27L271.48 366.27"
fill="none" stroke="black" stroke-width="3"/>
</g>
<g><path d="M269.11 398.26L269.11 396.38M270.05 396.38L269.34 397.32M269.34 397.32L269.11 397.32M269.34 397.32L270.05 398.26M270.51 397.95L270.51 397.32M270.51 397.32L270.75 397.01M270.75 397.01L271.22 397.01M271.22 397.01L271.45 397.32M271.45 397.32L271.45 397.95M271.45 397.95L271.22 398.26M271.22 398.26L270.75 398.26M270.75 398.26L270.51 397.95M271.92 398.26L271.92 397.01M271.92 397.01L272.86 397.01M272.86 397.01L272.86 398.26M273.33 397.01L273.33 398.26M273.33 398.26L274.27 397.01M274.27 397.01L274.27 398.26M274.74 398.26L274.74 397.01M274.74 397.01L275.45 397.01M275.45 397.01L275.68 397.32M275.68 397.32L275.68 397.63M275.68 397.63L275.45 397.95M275.45 397.95L274.74 397.95M276.15 397.95L276.15 397.32M276.15 397.32L276.39 397.01M276.39 397.01L276.86 397.01M276.86 397.01L277.09 397.32M277.09 397.32L277.09 397.95M277.09 397.95L276.86 398.26M276.86 398.26L276.39 398.26M276.39 398.26L276.15 397.95M277.56 398.26L277.56 397.01M277.56 397.01L278.03 397.01M278.03 397.63L277.56 397.63M277.56 397.63L278.26 397.63M278.26 398.26L277.56 398.26M278.03 397.63L278.2 397.54M278.2 397.54L278.26 397.32M278.26 397.32L278.2 397.1M278.2 397.1L278.03 397.01M278.26 398.26L278.43 398.17M278.43 398.17L278.5 397.95M278.5 397.95L278.43 397.73M278.43 397.73L278.26 397.63M278.97 397.95L278.97 397.32M278.97 397.32L279.2 397.01M279.2 397.01L279.67 397.01M279.67 397.01L279.91 397.32M279.91 397.32L279.91 397.01M279.91 397.01L279.91 398.26M279.91 398.26L279.91 397.95M279.91 397.95L279.67 398.26M279.67 398.26L279.2 398.26M279.2 398.26L278.97 397.95M280.38 398.26L280.85 397.01M280.85 397.01L281.32 397.01M281.32 397.01L281.32 398.26"
fill="none" stroke="black" stroke-width="3"/>
</g>
<g><path d="M117 7.33L115.32 7.33"
fill="none" stroke="black" stroke-width="3"/>
</g>
<g><path d="M67.01 32.3L65.14 32.3M65.14 32.3L65.14 31.36M65.14 31.36L67.01 31.36M66.39 30.89L66.39 30.19M66.39 30.19L66.08 29.95M66.08 29.95L65.76 30.19M65.76 30.19L65.76 30.66M65.76 30.66L66.08 30.89M66.08 30.89L66.7 30.89M66.7 30.89L67.01 30.66M67.01 30.66L67.01 30.19M67.01 29.48L65.76 29.48M65.76 29.48L65.76 28.78M65.76 28.78L66.08 28.54M66.08 28.54L66.39 28.54M66.39 28.54L66.7 28.78M66.7 28.78L66.7 29.48M67.01 28.07L65.76 28.07M65.76 28.07L65.76 27.61M66.39 27.61L66.39 28.07M66.39 28.07L66.39 27.37M67.01 27.37L67.01 28.07M66.39 27.61L66.3 27.44M66.3 27.44L66.08 27.37M66.08 27.37L65.85 27.44M65.85 27.44L65.76 27.61M67.01 27.37L66.92 27.2M66.92 27.2L66.7 27.14M66.7 27.14L66.48 27.2M66.48 27.2L66.39 27.37M67.01 26.67L66.7 26.67M67.01 24.79L65.76 24.79M65.76 24.79L65.76 23.85M65.76 23.85L67.01 23.85M67.01 23.38L65.76 23.38M65.76 23.38L65.76 22.67M65.76 22.67L66.08 22.44M66.08 22.44L66.39 22.44M66.39 22.44L66.7 22.67M66.7 22.67L66.7 23.38M65.76 21.97L67.01 21.97M67.01 21.97L65.76 21.03M65.76 21.03L67.01 21.03M67.01 20.56L65.76 20.56M65.76 20.56L66.39 20.09M66.39 20.09L65.76 19.62M65.76 19.62L67.01 19.62M66.39 19.15L66.39 18.45M66.39 18.45L66.08 18.21M66.08 18.21L65.76 18.45M65.76 18.45L65.76 18.92M65.76 18.92L66.08 19.15M66.08 19.15L66.7 19.15M66.7 19.15L67.01 18.92M67.01 18.92L67.01 18.45M67.01 17.74L65.76 17.74M65.76 17.74L66.39 17.74M66.39 17.74L66.39 16.8M66.39 16.8L65.76 16.8M65.76 16.8L67.01 16.8M67.01 16.33L66.7 16.33"
fill="none" stroke="black" stroke-width="3"/>
</g>
<g><path d="M66.84 67.56L67.16 67.79M67.16 67.79L67.16 68.26M67.16 68.26L66.84 68.5M66.84 68.5L65.59 68.5M65.59 68.5L65.28 68.26M65.28 68.26L65.28 67.79M65.28 67.79L65.59 67.56M67.16 67.09L65.9 67.09M65.9 67.09L65.9 66.15M65.9 66.15L67.16 66.15M67.16 65.68L65.9 65.68M65.9 65.68L65.9 64.98M65.9 64.98L66.22 64.74M66.22 64.74L66.53 64.74M66.53 64.74L66.84 64.98M66.84 64.98L66.84 65.68M66.84 64.27L66.22 64.27M66.22 64.27L65.9 64.04M65.9 64.04L65.9 63.57M65.9 63.57L66.22 63.33M66.22 63.33L65.9 63.33M65.9 63.33L67.16 63.33M67.16 63.33L66.84 63.33M66.84 63.33L67.16 63.57M67.16 63.57L67.16 64.04M67.16 64.04L66.84 64.27M67.16 62.86L65.9 62.86M65.9 62.86L65.9 62.39M66.53 62.39L66.53 62.86M66.53 62.86L66.53 62.16M67.16 62.16L67.16 62.86M66.53 62.39L66.44 62.23M66.44 62.23L66.22 62.16M66.22 62.16L65.99 62.23M65.99 62.23L65.9 62.39M67.16 62.16L67.06 61.99M67.06 61.99L66.84 61.92M66.84 61.92L66.62 61.99M66.62 61.99L66.53 62.16M67.16 61.45L66.84 61.45M67.16 59.57L65.28 59.57M65.28 59.57L67.16 58.63M67.16 58.63L65.28 58.63"
fill="none" stroke="black" stroke-width="3"/>
</g>
<g><path d="M66.68 318.85L64.8 318.85M64.8 318.85L64.8 317.91M64.8 317.91L66.68 317.91M66.37 317.44L65.74 317.44M65.74 317.44L65.43 317.21M65.43 317.21L65.43 316.74M65.43 316.74L65.74 316.5M65.74 316.5L66.37 316.5M66.37 316.5L66.68 316.74M66.68 316.74L66.68 317.21M66.68 317.21L66.37 317.44M67 316.03L66.68 316.03M66.68 316.03L66.68 315.8M66.68 315.8L65.74 315.8M65.74 315.8L65.43 315.56M65.43 315.56L65.43 315.33M65.43 315.33L66.68 315.33M66.68 315.33L66.68 315.8M66.68 315.8L66.68 315.09M66.68 315.09L67 315.09M66.68 314.62L65.43 314.62M65.43 314.62L65.43 313.68M65.43 313.68L66.68 313.68M66.68 313.21L66.37 313.21M65.43 311.33L66.68 311.33M66.68 311.33L65.43 310.4M65.43 310.4L66.68 310.4M67 308.52L66.68 308.52M66.68 308.52L66.68 308.28M66.68 308.28L65.74 308.28M65.74 308.28L65.43 308.05M65.43 308.05L65.43 307.81M65.43 307.81L66.68 307.81M66.68 307.81L66.68 308.28M66.68 308.28L66.68 307.58M66.68 307.58L67 307.58M66.37 307.11L65.74 307.11M65.74 307.11L65.43 306.87M65.43 306.87L65.43 306.4M65.43 306.4L65.74 306.17M65.74 306.17L65.43 306.17M65.43 306.17L66.68 306.17M66.68 306.17L66.37 306.17M66.37 306.17L66.68 306.4M66.68 306.4L66.68 306.87M66.68 306.87L66.37 307.11M66.68 305.23L65.43 305.23M65.43 305.23L65.43 305.7M65.43 305.7L65.43 304.76M66.37 304.29L65.74 304.29M65.74 304.29L65.43 304.05M65.43 304.05L65.43 303.59M65.43 303.59L65.74 303.35M65.74 303.35L65.43 303.35M65.43 303.35L66.68 303.35M66.68 303.35L66.37 303.35M66.37 303.35L66.68 303.59M66.68 303.59L66.68 304.05M66.68 304.05L66.37 304.29"
fill="none" stroke="black" stroke-width="3"/>
</g>
<g><path d="M66.84 338.26L65.59 337.32M65.59 337.32L66.84 337.32M66.84 337.32L64.96 337.32M64.96 338.26L66.84 338.26M66.84 336.85L65.59 336.85M65.59 336.85L66.22 336.85M66.22 336.85L66.22 335.91M66.22 335.91L65.59 335.91M65.59 335.91L66.84 335.91M66.84 335.44L65.59 335.44M65.59 335.44L65.59 334.97M66.22 334.97L66.22 335.44M66.22 335.44L66.22 334.74M66.84 334.74L66.84 335.44M66.22 334.97L66.12 334.81M66.12 334.81L65.9 334.74M65.9 334.74L65.68 334.81M65.68 334.81L65.59 334.97M66.84 334.74L66.75 334.57M66.75 334.57L66.53 334.5M66.53 334.5L66.31 334.57M66.31 334.57L66.22 334.74M66.84 334.04L66.53 334.04M66.84 332.16L64.96 332.16M64.96 332.16L66.84 331.22M66.84 331.22L64.96 331.22M67.16 329.34L66.84 329.34M66.84 329.34L66.84 329.1M66.84 329.1L65.9 329.1M65.9 329.1L65.59 328.87M65.59 328.87L65.59 328.63M65.59 328.63L66.84 328.63M66.84 328.63L66.84 329.1M66.84 329.1L66.84 328.4M66.84 328.4L67.16 328.4M66.53 327.93L66.84 327.7M66.84 327.7L66.84 327.23M66.84 327.23L66.53 326.99M66.53 326.99L65.59 326.99M65.59 326.99L66.22 326.99M66.22 326.99L66.22 327.46M66.22 327.46L65.59 327.93M65.59 325.82L65.59 326.52M65.59 326.52L66.84 326.52M66.84 326.52L66.84 325.82M66.84 325.82L66.53 325.58M66.53 325.58L66.22 325.82M66.22 325.82L66.22 326.52M66.84 325.11L65.59 324.64M65.59 324.64L65.59 324.17M65.59 324.17L66.84 324.17M66.84 323.7L66.53 323.7"
fill="none" stroke="black" stroke-width="3"/>
</g>
<g><path d="M66.84 376.1L64.96 376.1M64.96 376.1L64.96 375.16M64.96 375.16L66.84 375.16M66.53 374.69L65.9 374.69M65.9 374.69L65.59 374.46M65.59 374.46L65.59 373.99M65.59 373.99L65.9 373.76M65.9 373.76L66.53 373.76M66.53 373.76L66.84 373.99M66.84 373.99L66.84 374.46M66.84 374.46L66.53 374.69M67.16 373.29L66.84 373.29M66.84 373.29L66.84 373.05M66.84 373.05L65.9 373.05M65.9 373.05L65.59 372.82M65.59 372.82L65.59 372.58M65.59 372.58L66.84 372.58M66.84 372.58L66.84 373.05M66.84 373.05L66.84 372.35M66.84 372.35L67.16 372.35M66.84 371.88L65.59 371.88M65.59 371.88L65.59 370.94M65.59 370.94L66.84 370.94M66.84 370.47L66.53 370.47M65.59 368.59L66.84 368.59M66.84 368.59L65.59 367.65M65.59 367.65L66.84 367.65M67.16 365.77L66.84 365.77M66.84 365.77L66.84 365.54M66.84 365.54L65.9 365.54M65.9 365.54L65.59 365.3M65.59 365.3L65.59 365.07M65.59 365.07L66.84 365.07M66.84 365.07L66.84 365.54M66.84 365.54L66.84 364.83M66.84 364.83L67.16 364.83M66.53 364.36L65.9 364.36M65.9 364.36L65.59 364.13M65.59 364.13L65.59 363.66M65.59 363.66L65.9 363.42M65.9 363.42L65.59 363.42M65.59 363.42L66.84 363.42M66.84 363.42L66.53 363.42M66.53 363.42L66.84 363.66M66.84 363.66L66.84 364.13M66.84 364.13L66.53 364.36M66.84 362.48L65.59 362.48M65.59 362.48L65.59 362.95M65.59 362.95L65.59 362.01M66.53 361.54L65.9 361.54M65.9 361.54L65.59 361.31M65.59 361.31L65.59 360.84M65.59 360.84L65.9 360.6M65.9 360.6L65.59 360.6M65.59 360.6L66.84 360.6M66.84 360.6L66.53 360.6M66.53 360.6L66.84 360.84M66.84 360.84L66.84 361.31M66.84 361.31L66.53 361.54"
fill="none" stroke="black" stroke-width="3"/>
</g>
<g><path d="M66.84 395.32L65.59 394.38M65.59 394.38L66.84 394.38M66.84 394.38L64.96 394.38M64.96 395.32L66.84 395.32M66.84 393.91L65.59 393.91M65.59 393.91L66.22 393.91M66.22 393.91L66.22 392.97M66.22 392.97L65.59 392.97M65.59 392.97L66.84 392.97M66.84 392.5L65.59 392.5M65.59 392.5L65.59 392.04M66.22 392.04L66.22 392.5M66.22 392.5L66.22 391.8M66.84 391.8L66.84 392.5M66.22 392.04L66.12 391.87M66.12 391.87L65.9 391.8M65.9 391.8L65.68 391.87M65.68 391.87L65.59 392.04M66.84 391.8L66.75 391.63M66.75 391.63L66.53 391.57M66.53 391.57L66.31 391.63M66.31 391.63L66.22 391.8M66.84 391.1L66.53 391.1M66.84 389.22L64.96 389.22M64.96 389.22L66.84 388.28M66.84 388.28L64.96 388.28M66.84 386.4L65.59 386.4M65.59 386.4L65.59 385.46M65.59 385.46L66.84 385.46M66.53 384.99L65.9 384.99M65.9 384.99L65.59 384.76M65.59 384.76L65.59 384.29M65.59 384.29L65.9 384.05M65.9 384.05L66.53 384.05M66.53 384.05L66.84 384.29M66.84 384.29L66.84 384.76M66.84 384.76L66.53 384.99M67.16 383.58L66.84 383.58M66.84 383.58L66.84 383.35M66.84 383.35L65.9 383.35M65.9 383.35L65.59 383.11M65.59 383.11L65.59 382.88M65.59 382.88L66.84 382.88M66.84 382.88L66.84 383.35M66.84 383.35L66.84 382.64M66.84 382.64L67.16 382.64M66.84 382.17L65.59 381.7M65.59 381.7L65.59 381.23M65.59 381.23L66.84 381.23M66.84 380.76L66.53 380.76"
fill="none" stroke="black" stroke-width="3"/>
</g>
<g><path d="M213.66 375.27L214.53 374.11M214.53 374.11L214.53 375.27M214.53 375.27L214.53 373.53M213.66 373.53L213.66 375.27M214.97 374.4L215.19 374.11M215.19 374.11L215.62 374.11M215.62 374.11L215.84 374.4M215.84 374.4L215.62 374.69M215.62 374.69L215.4 374.69M215.4 374.69L215.62 374.69M215.62 374.69L215.84 374.98M215.84 374.98L215.62 375.27M215.62 375.27L215.19 375.27M215.19 375.27L214.97 374.98M216.28 375.27L216.28 374.11M216.28 374.11L216.71 374.69M216.71 374.69L217.15 374.11M217.15 374.11L217.15 375.27M217.58 375.27L217.58 374.98"
fill="none" stroke="black" stroke-width="3"/>
</g>
<g><path d="M218.55 375.26L218.77 375.26M218.77 375.26L219.43 373.51M219.43 373.51L219.64 373.51M219.64 373.51L219.64 375.26M220.08 374.09L220.08 375.26M220.08 375.26L220.95 374.09M220.95 374.09L220.95 375.26M222.26 374.97L222.04 375.26M222.04 375.26L221.61 375.26M221.61 375.26L221.39 374.97M221.39 374.97L221.39 374.38M221.39 374.38L221.61 374.09M221.61 374.09L222.04 374.09M222.04 374.09L222.26 374.38M223.13 375.26L223.13 374.09M223.13 374.09L222.7 374.09M222.7 374.09L223.57 374.09M224 375.26L224 374.97"
fill="none" stroke="black" stroke-width="3"/>
</g>
<g><path d="M227.31 375.13L227.31 373.39M227.31 373.39L228.19 375.13M228.19 375.13L228.19 373.39M229.93 375.42L229.93 375.13M229.93 375.13L230.15 375.13M230.15 375.13L230.15 374.26M230.15 374.26L230.37 373.97M230.37 373.97L230.59 373.97M230.59 373.97L230.59 375.13M230.59 375.13L230.15 375.13M230.15 375.13L230.8 375.13M230.8 375.13L230.8 375.42M231.24 374.84L231.24 374.26M231.24 374.26L231.46 373.97M231.46 373.97L231.89 373.97M231.89 373.97L232.11 374.26M232.11 374.26L232.11 374.84M232.11 374.84L231.89 375.13M231.89 375.13L231.46 375.13M231.46 375.13L231.24 374.84M232.55 375.13L232.55 373.97M232.55 373.97L232.55 374.55M232.55 374.55L232.98 374.55M232.98 374.55L233.42 373.97M233.42 373.97L232.98 374.55M232.98 374.55L233.42 375.13M233.86 374.84L234.07 375.13M234.07 375.13L234.51 375.13M234.51 375.13L234.73 374.84M234.73 374.84L234.73 373.97M234.73 373.97L234.73 374.55M234.73 374.55L234.29 374.55M234.29 374.55L233.86 373.97M235.16 375.13L235.16 373.97M235.16 373.97L235.6 374.55M235.6 374.55L236.04 373.97M236.04 373.97L236.04 375.13M236.47 375.13L236.47 374.84"
fill="none" stroke="black" stroke-width="3"/>
</g>
<g><path d="M242.48 374.94L242.48 373.2M242.48 373.2L243.35 373.2M243.35 373.2L243.35 374.94M243.78 374.65L243.78 374.07M243.78 374.07L244 373.78M244 373.78L244.44 373.78M244.44 373.78L244.66 374.07M244.66 374.07L244.66 374.65M244.66 374.65L244.44 374.94M244.44 374.94L244 374.94M244 374.94L243.78 374.65M245.09 375.23L245.09 374.94M245.09 374.94L245.31 374.94M245.31 374.94L245.31 374.07M245.31 374.07L245.53 373.78M245.53 373.78L245.75 373.78M245.75 373.78L245.75 374.94M245.75 374.94L245.31 374.94M245.31 374.94L245.96 374.94M245.96 374.94L245.96 375.23M246.4 374.94L246.4 373.78M246.4 373.78L247.27 373.78M247.27 373.78L247.27 374.94M247.71 374.94L247.71 374.65"
fill="none" stroke="black" stroke-width="3"/>
</g>
<g><path d="M305.17 371.52L305.4 371.52M305.4 371.52L306.11 369.64M306.11 369.64L306.34 369.64M306.34 369.64L306.34 371.52M306.81 370.27L306.81 371.52M306.81 371.52L307.75 370.27M307.75 370.27L307.75 371.52M308.69 371.52L308.69 370.27M308.69 370.27L308.22 370.27M308.22 370.27L309.16 370.27M309.63 370.89L310.34 370.89M310.34 370.89L310.57 370.58M310.57 370.58L310.34 370.27M310.34 370.27L309.87 370.27M309.87 370.27L309.63 370.58M309.63 370.58L309.63 371.21M309.63 371.21L309.87 371.52M309.87 371.52L310.34 371.52M311.04 371.52L311.04 370.27M311.04 370.27L311.74 370.27M311.74 370.27L311.98 370.58M311.98 370.58L311.98 370.89M311.98 370.89L311.74 371.21M311.74 371.21L311.04 371.21M312.45 371.52L312.45 371.21"
fill="none" stroke="black" stroke-width="3"/>
</g>
<g><path d="M305.06 385.13L305.3 385.13M305.3 385.13L306 383.25M306 383.25L306.24 383.25M306.24 383.25L306.24 385.13M306.71 383.88L306.71 385.13M306.71 385.13L307.64 383.88M307.64 383.88L307.64 385.13M309.05 384.82L308.82 385.13M308.82 385.13L308.35 385.13M308.35 385.13L308.11 384.82M308.11 384.82L308.11 384.19M308.11 384.19L308.35 383.88M308.35 383.88L308.82 383.88M308.82 383.88L309.05 384.19M309.99 385.13L309.99 383.88M309.99 383.88L309.52 383.88M309.52 383.88L310.46 383.88"
fill="none" stroke="black" stroke-width="3"/>
</g>
<g><path d="M318.52 385.07L318.75 385.07M318.75 385.07L319.46 383.2M319.46 383.2L319.69 383.2M319.69 383.2L319.69 385.07M320.16 383.82L320.16 385.07M320.16 385.07L321.1 383.82M321.1 383.82L321.1 385.07M322.51 384.76L322.27 385.07M322.27 385.07L321.8 385.07M321.8 385.07L321.57 384.76M321.57 384.76L321.57 384.14M321.57 384.14L321.8 383.82M321.8 383.82L322.27 383.82M322.27 383.82L322.51 384.14M323.45 385.07L323.45 383.82M323.45 383.82L322.98 383.82M322.98 383.82L323.92 383.82M324.39 384.76L324.39 384.14M324.39 384.14L324.62 383.82M324.62 383.82L325.09 383.82M325.09 383.82L325.33 384.14M325.33 384.14L325.33 384.76M325.33 384.76L325.09 385.07M325.09 385.07L324.62 385.07M324.62 385.07L324.39 384.76M325.8 385.07L325.8 383.82M325.8 383.82L326.27 383.82M326.27 384.45L325.8 384.45M325.8 384.45L326.5 384.45M326.5 385.07L325.8 385.07M326.27 384.45L326.43 384.36M326.43 384.36L326.5 384.14M326.5 384.14L326.43 383.91M326.43 383.91L326.27 383.82M326.5 385.07L326.67 384.98M326.67 384.98L326.74 384.76M326.74 384.76L326.67 384.54M326.67 384.54L326.5 384.45"
fill="none" stroke="black" stroke-width="3"/>
</g>
<g><path d="M316.16 371.52L316.16 369.64M316.16 369.64L316.63 370.89M316.63 370.89L317.1 369.64M317.1 369.64L317.1 371.52M317.57 371.21L317.57 370.58M317.57 370.58L317.81 370.27M317.81 370.27L318.28 370.27M318.28 370.27L318.51 370.58M318.51 370.58L318.51 370.27M318.51 370.27L318.51 371.52M318.51 371.52L318.51 371.21M318.51 371.21L318.28 371.52M318.28 371.52L317.81 371.52M317.81 371.52L317.57 371.21M319.92 371.21L319.69 371.52M319.69 371.52L319.22 371.52M319.22 371.52L318.98 371.21M318.98 371.21L318.98 370.58M318.98 370.58L319.22 370.27M319.22 370.27L319.69 370.27M319.69 370.27L319.92 370.58M321.33 371.21L321.09 371.52M321.09 371.52L320.62 371.52M320.62 371.52L320.39 371.21M320.39 371.21L320.39 370.58M320.39 370.58L320.62 370.27M320.62 370.27L321.09 370.27M321.09 370.27L321.33 370.58M321.8 371.21L321.8 370.58M321.8 370.58L322.03 370.27M322.03 370.27L322.5 370.27M322.5 370.27L322.74 370.58M322.74 370.58L322.74 370.27M322.74 370.27L322.74 371.52M322.74 371.52L322.74 371.21M322.74 371.21L322.5 371.52M322.5 371.52L322.03 371.52M322.03 371.52L321.8 371.21"
fill="none" stroke="black" stroke-width="3"/>
</g>
<g><path d="M325.91 371.52L325.91 369.64M325.91 369.64L326.38 370.89M326.38 370.89L326.85 369.64M326.85 369.64L326.85 371.52M327.32 371.21L327.32 370.58M327.32 370.58L327.55 370.27M327.55 370.27L328.02 370.27M328.02 370.27L328.25 370.58M328.25 370.58L328.25 370.27M328.25 370.27L328.25 371.52M328.25 371.52L328.25 371.21M328.25 371.21L328.02 371.52M328.02 371.52L327.55 371.52M327.55 371.52L327.32 371.21M329.66 371.21L329.43 371.52M329.43 371.52L328.96 371.52M328.96 371.52L328.72 371.21M328.72 371.21L328.72 370.58M328.72 370.58L328.96 370.27M328.96 370.27L329.43 370.27M329.43 370.27L329.66 370.58M330.13 371.52L330.13 370.27M330.13 370.27L330.13 371.52M330.13 371.52L330.6 371.52M330.6 371.52L330.6 370.89M330.6 370.89L330.6 371.52M330.6 371.52L331.07 371.52M331.07 371.52L331.07 370.27M332.01 371.52L332.01 370.27M332.01 370.27L331.54 370.27M331.54 370.27L332.48 370.27M332.95 371.21L332.95 370.58M332.95 370.58L333.19 370.27M333.19 370.27L333.66 370.27M333.66 370.27L333.89 370.58M333.89 370.58L333.89 370.27M333.89 370.27L333.89 371.52M333.89 371.52L333.89 371.21M333.89 371.21L333.66 371.52M333.66 371.52L333.19 371.52M333.19 371.52L332.95 371.21M335.06 370.27L334.36 370.27M334.36 370.27L334.36 371.52M334.36 371.52L335.06 371.52M335.06 371.52L335.3 371.21M335.3 371.21L335.06 370.89M335.06 370.89L334.36 370.89"
fill="none" stroke="black" stroke-width="3"/>
</g>
<g><path d="M266.13 378.7L267.81 378.7"
fill="none" stroke="black" stroke-width="3"/>
</g>
<g><path d="M271.55 367.03L273.9 367.03"
fill="none" stroke="black" stroke-width="3"/>
</g>
<g><path d="M314.62 385.13L315.55 385.13"
fill="none" stroke="black" stroke-width="3"/>
</g>
<g><path d="M334.21 385.13L335.15 385.13"
fill="none" stroke="black" stroke-width="3"/>
</g>
<g><path d="M305.31 377.78L305.31 377.16M305.31 377.16L305.54 376.84M305.54 376.84L306.01 376.84M306.01 376.84L306.24 377.16M306.24 377.16L306.24 376.84M306.24 376.84L306.24 378.09M306.24 378.09L306.24 377.78M306.24 377.78L306.01 378.09M306.01 378.09L305.54 378.09M305.54 378.09L305.31 377.78"
fill="none" stroke="black" stroke-width="3"/>
</g>
<g><path d="M315.94 378.04L316.88 378.04"
fill="none" stroke="black" stroke-width="3"/>
</g>
<g><path d="M267.3 394.49L268.64 394.49"
fill="none" stroke="black" stroke-width="3"/>
</g>
<g><path d="M267.36 389.82L268.7 389.82"
fill="none" stroke="black" stroke-width="3"/>
</g>
<g><path d="M257.77 391.85L259.11 391.85"
fill="none" stroke="black" stroke-width="3"/>
</g>
<g><path d="M250.69 375.15L250.69 374.87M250.69 374.87L251.74 374.87M251.74 374.87L251.74 373.2M251.74 373.2L251.32 373.2M251.32 373.2L250.9 374.31M250.9 374.31L250.9 374.87M250.9 374.87L251.95 374.87M251.95 374.87L251.95 375.15M252.37 374.59L252.37 374.03M252.37 374.03L252.58 373.75M252.58 373.75L253 373.75M253 373.75L253.21 374.03M253.21 374.03L253.21 373.75M253.21 373.75L253.21 374.87M253.21 374.87L253.21 374.59M253.21 374.59L253 374.87M253 374.87L252.58 374.87M252.58 374.87L252.37 374.59M254.05 374.87L254.05 373.75M254.05 373.75L253.63 373.75M253.63 373.75L254.47 373.75M254.88 374.59L254.88 374.03M254.88 374.03L255.09 373.75M255.09 373.75L255.51 373.75M255.51 373.75L255.72 374.03M255.72 374.03L255.72 373.75M255.72 373.75L255.72 374.87M255.72 374.87L255.72 374.59M255.72 374.59L255.51 374.87M255.51 374.87L255.09 374.87M255.09 374.87L254.88 374.59"
fill="none" stroke="black" stroke-width="3"/>
</g>
<g><path d="M117.48 6.23L115.81 6.23"
fill="none" stroke="black" stroke-width="3"/>
</g>
<g><path d="M216.9 348.73L217.27 348.23M217.27 348.23L218.03 348.23M218.03 348.23L218.41 348.73M218.41 348.73L218.41 349.23M218.41 349.23L218.03 349.74M218.03 349.74L217.27 349.74M217.27 349.74L216.9 350.24M216.9 350.24L216.9 351.25M216.9 351.25L218.41 351.25M219.16 351.25L219.16 350.74M222.18 350.74L222.18 348.73M222.18 348.73L222.56 348.23M222.56 348.23L223.31 348.23M223.31 348.23L223.69 348.73M223.69 348.73L223.69 350.74M223.69 350.74L223.31 351.25M223.31 351.25L222.56 351.25M222.56 351.25L222.18 350.74M225.95 350.74L225.58 351.25M225.58 351.25L224.82 351.25M224.82 351.25L224.44 350.74M224.44 350.74L224.44 349.74M224.44 349.74L224.82 349.23M224.82 349.23L225.58 349.23M225.58 349.23L225.95 349.74M227.46 351.25L227.46 349.23M227.46 349.23L226.71 349.23M226.71 349.23L228.22 349.23M228.97 351.25L228.97 349.23M228.97 349.23L230.1 349.23M230.1 349.23L230.48 349.74M230.48 349.74L230.48 350.24M230.48 350.24L230.1 350.74M230.1 350.74L228.97 350.74M231.24 351.25L231.24 349.23M231.24 349.23L231.24 350.24M231.24 350.24L231.99 350.24M231.99 350.24L232.37 350.74M232.37 350.74L231.99 351.25M231.99 351.25L231.24 351.25M232.75 351.25L232.75 349.23M233.5 350.24L234.63 350.24M234.63 350.24L235.01 349.74M235.01 349.74L234.63 349.23M234.63 349.23L233.88 349.23M233.88 349.23L233.5 349.74M233.5 349.74L233.5 350.74M233.5 350.74L233.88 351.25M233.88 351.25L234.63 351.25M238.03 351.25L238.03 349.23M238.03 349.23L238.03 350.24M238.03 350.24L238.78 350.24M238.78 350.24L239.54 349.23M239.54 349.23L238.78 350.24M238.78 350.24L239.54 351.25M240.29 351.25L240.29 349.23M240.29 349.23L241.43 349.23M241.43 349.23L241.8 349.74M241.8 349.74L241.8 350.24M241.8 350.24L241.43 350.74M241.43 350.74L240.29 350.74M242.56 350.74L242.56 349.74M242.56 349.74L242.94 349.23M242.94 349.23L243.69 349.23M243.69 349.23L244.07 349.74M244.07 349.74L244.07 350.74M244.07 350.74L243.69 351.25M243.69 351.25L242.94 351.25M242.94 351.25L242.56 350.74M244.82 351.25L244.82 349.23M244.82 349.23L245.58 350.24M245.58 350.24L246.33 349.23M246.33 349.23L246.33 351.25M247.09 351.25L247.09 349.23M247.09 349.23L247.09 350.24M247.09 350.24L247.84 350.24M247.84 350.24L248.6 349.23M248.6 349.23L247.84 350.24M247.84 350.24L248.6 351.25M249.35 349.23L249.35 351.25M249.35 351.25L250.86 349.23M250.86 349.23L250.86 351.25M255.39 350.74L255.01 351.25M255.01 351.25L254.26 351.25M254.26 351.25L253.88 350.74M253.88 350.74L253.88 349.74M253.88 349.74L254.26 349.23M254.26 349.23L255.01 349.23M255.01 349.23L255.39 349.74M256.14 351.25L256.14 349.23M256.14 349.23L256.14 350.24M256.14 350.24L256.9 350.24M256.9 350.24L257.65 349.23M257.65 349.23L256.9 350.24M256.9 350.24L257.65 351.25M258.41 351.25L258.41 349.23M258.41 349.23L259.54 349.23M259.54 349.23L259.92 349.74M259.92 349.74L259.92 350.24M259.92 350.24L259.54 350.74M259.54 350.74L258.41 350.74M260.67 350.74L261.05 351.25M261.05 351.25L261.81 351.25M261.81 351.25L262.18 350.74M262.18 350.74L262.18 349.23M262.18 349.23L262.18 350.24M262.18 350.24L261.43 350.24M261.43 350.24L260.67 349.23M262.94 351.25L262.94 349.23M262.94 349.23L264.07 349.23M264.83 351.25L265.58 349.23M265.58 349.23L266.33 349.23M266.33 349.23L266.33 351.25M267.09 349.23L267.09 351.25M267.09 351.25L268.6 349.23M268.6 349.23L268.6 351.25M270.11 351.25L270.11 349.23M270.11 349.23L269.35 349.23M269.35 349.23L270.86 349.23M271.62 351.25L271.62 349.23M271.62 349.23L271.62 350.24M271.62 350.24L272.37 350.24M272.37 350.24L272.75 350.74M272.75 350.74L272.37 351.25M272.37 351.25L271.62 351.25M275.77 351.25L275.77 348.23M275.77 348.23L276.9 348.23M276.9 348.23L277.28 348.73M277.28 348.73L277.28 349.23M277.28 349.23L276.9 349.74M276.9 349.74L275.77 349.74M276.15 349.74L277.28 351.25M278.41 351.25L278.03 350.74M278.03 350.74L278.03 348.73M278.03 348.73L278.41 348.23M278.41 348.23L278.79 348.23M278.79 348.23L279.17 348.73M279.17 348.73L279.17 350.74M279.17 350.74L278.79 351.25M278.79 351.25L278.41 351.25M280.3 350.74L280.3 351.25M280.3 351.25L279.92 351.75M281.05 348.73L281.43 348.23M281.43 348.23L281.43 351.25M281.05 351.25L281.81 351.25M282.56 351.25L282.56 350.74M283.32 351.25L283.32 350.74M284.07 351.25L284.07 350.74M285.2 351.25L284.83 350.74M284.83 350.74L284.83 348.73M284.83 348.73L285.2 348.23M285.2 348.23L285.58 348.23M285.58 348.23L285.96 348.73M285.96 348.73L285.96 350.74M285.96 350.74L285.58 351.25M285.58 351.25L285.2 351.25M287.09 350.74L287.09 351.25M287.09 351.25L286.71 351.75M287.85 348.73L288.22 348.23M288.22 348.23L288.98 348.23M288.98 348.23L289.36 348.73M289.36 348.73L289.36 349.23M289.36 349.23L288.98 349.74M288.98 349.74L288.22 349.74M288.22 349.74L287.85 350.24M287.85 350.24L287.85 351.25M287.85 351.25L289.36 351.25M290.11 351.25L290.11 350.74"
fill="none" stroke="black" stroke-width="3"/>
</g>
<g><path d="M308.27 398.26L308.27 396.38M308.27 396.38L308.04 396.38M308.04 396.38L307.8 396.69M307.8 396.69L307.8 397.32M307.8 397.32L308.04 397.63M308.04 397.63L308.51 397.63M308.51 397.63L308.74 397.32M308.74 397.32L308.74 396.69M308.74 396.69L308.51 396.38M308.51 396.38L308.27 396.38M309.21 397.95L309.21 397.32M309.21 397.32L309.45 397.01M309.45 397.01L309.92 397.01M309.92 397.01L310.15 397.32M310.15 397.32L310.15 397.95M310.15 397.95L309.92 398.26M309.92 398.26L309.45 398.26M309.45 398.26L309.21 397.95M310.62 398.26L310.62 397.01M310.62 397.01L311.33 397.01M311.33 397.01L311.56 397.32M311.56 397.32L311.56 397.63M311.56 397.63L311.33 397.95M311.33 397.95L310.62 397.95M312.03 398.26L312.03 397.01M312.03 397.01L312.5 397.63M312.5 397.63L312.97 397.01M312.97 397.01L312.97 398.26M313.44 397.95L313.44 397.32M313.44 397.32L313.67 397.01M313.67 397.01L314.14 397.01M314.14 397.01L314.38 397.32M314.38 397.32L314.38 397.01M314.38 397.01L314.38 398.26M314.38 398.26L314.38 397.95M314.38 397.95L314.14 398.26M314.14 398.26L313.67 398.26M313.67 398.26L313.44 397.95M315.32 398.26L315.32 397.01M315.32 397.01L314.85 397.01M314.85 397.01L315.79 397.01M317.67 398.26L317.67 397.63M317.67 397.63L318.14 396.38M318.14 396.38L318.61 397.63M318.61 397.63L318.61 398.26M317.67 397.63L318.61 397.63M319.08 396.69L319.31 396.38M319.31 396.38L319.78 396.38M319.78 396.38L320.02 396.69M320.02 396.69L320.02 397.01M320.02 397.01L319.78 397.32M319.78 397.32L319.31 397.32M319.31 397.32L319.08 397.63M319.08 397.63L319.08 398.26M319.08 398.26L320.02 398.26M321.89 398.26L321.89 396.38M321.89 396.38L322.83 396.38M322.83 396.38L322.83 396.69M323.3 397.95L323.3 396.69M323.3 396.69L323.54 396.38M323.54 396.38L324.01 396.38M324.01 396.38L324.24 396.69M324.24 396.69L324.24 397.95M324.24 397.95L324.01 398.26M324.01 398.26L323.54 398.26M323.54 398.26L323.3 397.95M325.65 397.95L325.42 398.26M325.42 398.26L324.95 398.26M324.95 398.26L324.71 397.95M324.71 397.95L324.71 396.69M324.71 396.69L324.95 396.38M324.95 396.38L325.42 396.38M325.42 396.38L325.65 396.69M326.12 396.38L327.06 396.38M326.59 396.38L326.59 398.26M328.94 396.69L329.17 396.38M329.17 396.38L329.64 396.38M329.64 396.38L329.88 396.69M329.88 396.69L329.88 397.01M329.88 397.01L329.64 397.32M329.64 397.32L329.17 397.32M329.17 397.32L328.94 397.63M328.94 397.63L328.94 398.26M328.94 398.26L329.88 398.26M330.35 398.26L330.35 397.95M330.82 396.69L331.05 396.38M331.05 396.38L331.52 396.38M331.52 396.38L331.76 396.69M331.76 396.69L331.76 397.01M331.76 397.01L331.52 397.32M331.52 397.32L331.29 397.32M331.52 397.32L331.76 397.63M331.76 397.63L331.76 397.95M331.76 397.95L331.52 398.26M331.52 398.26L331.05 398.26M331.05 398.26L330.82 397.95M332.46 398.26L332.23 397.95M332.23 397.95L332.23 396.69M332.23 396.69L332.46 396.38M332.46 396.38L332.7 396.38M332.7 396.38L332.93 396.69M332.93 396.69L332.93 397.95M332.93 397.95L332.7 398.26M332.7 398.26L332.46 398.26M333.4 396.69L333.63 396.38M333.63 396.38L333.63 398.26M333.4 398.26L333.87 398.26"
fill="none" stroke="black" stroke-width="3"/>
</g>
<g><path d="M214.1 378.34L214.1 376.47M214.1 376.47L214.8 376.47M214.8 376.47L215.04 376.78M215.04 376.78L215.04 377.09M215.04 377.09L214.8 377.41M214.8 377.41L214.1 377.41M215.51 378.03L215.51 377.41M215.51 377.41L215.74 377.09M215.74 377.09L216.21 377.09M216.21 377.09L216.45 377.41M216.45 377.41L216.45 377.09M216.45 377.09L216.45 378.34M216.45 378.34L216.45 378.03M216.45 378.03L216.21 378.34M216.21 378.34L215.74 378.34M215.74 378.34L215.51 378.03M216.92 377.41L217.15 377.09M217.15 377.09L217.62 377.09M217.62 377.09L217.86 377.41M217.86 377.41L217.62 377.72M217.62 377.72L217.39 377.72M217.39 377.72L217.62 377.72M217.62 377.72L217.86 378.03M217.86 378.03L217.62 378.34M217.62 378.34L217.15 378.34M217.15 378.34L216.92 378.03M218.33 378.34L218.33 377.09M218.33 377.09L219.03 377.09M219.03 377.09L219.27 377.41M219.27 377.41L219.27 377.72M219.27 377.72L219.03 378.03M219.03 378.03L218.33 378.03M219.74 378.03L219.74 377.41M219.74 377.41L219.97 377.09M219.97 377.09L220.44 377.09M220.44 377.09L220.67 377.41M220.67 377.41L220.67 377.09M220.67 377.09L220.67 378.34M220.67 378.34L220.67 378.03M220.67 378.03L220.44 378.34M220.44 378.34L219.97 378.34M219.97 378.34L219.74 378.03M221.85 377.09L221.14 377.09M221.14 377.09L221.14 378.34M221.14 378.34L221.85 378.34M221.85 378.34L222.08 378.03M222.08 378.03L221.85 377.72M221.85 377.72L221.14 377.72M222.55 378.34L222.55 378.03"
fill="none" stroke="black" stroke-width="3"/>
</g>
<g><path d="M214.1 381.82L214.1 379.94M214.1 379.94L215.04 379.94M215.04 379.94L215.04 381.82M215.51 381.82L215.51 380.57M215.51 380.57L216.22 380.57M216.22 380.57L216.45 380.88M216.45 380.88L216.45 381.2M216.45 381.2L216.22 381.51M216.22 381.51L215.51 381.51M216.92 381.51L216.92 380.88M216.92 380.88L217.16 380.57M217.16 380.57L217.63 380.57M217.63 380.57L217.86 380.88M217.86 380.88L217.86 381.51M217.86 381.51L217.63 381.82M217.63 381.82L217.16 381.82M217.16 381.82L216.92 381.51M218.33 381.82L218.33 380.57M218.33 380.57L218.8 380.57M218.8 381.2L218.33 381.2M218.33 381.2L219.04 381.2M219.04 381.82L218.33 381.82M218.8 381.2L218.97 381.1M218.97 381.1L219.04 380.88M219.04 380.88L218.97 380.66M218.97 380.66L218.8 380.57M219.04 381.82L219.2 381.73M219.2 381.73L219.27 381.51M219.27 381.51L219.2 381.29M219.2 381.29L219.04 381.2M219.74 381.82L219.74 381.51"
fill="none" stroke="black" stroke-width="3"/>
</g>
<g><path d="M214.1 383.3L215.04 383.3M214.57 383.3L214.57 385.18M215.51 385.18L215.51 384.86M215.98 385.18L215.98 383.92M215.98 383.92L215.98 384.55M215.98 384.55L216.45 384.55M216.45 384.55L216.92 383.92M216.92 383.92L216.45 384.55M216.45 384.55L216.92 385.18M217.39 384.86L217.39 384.24M217.39 384.24L217.63 383.92M217.63 383.92L218.1 383.92M218.1 383.92L218.33 384.24M218.33 384.24L218.33 384.86M218.33 384.86L218.1 385.18M218.1 385.18L217.63 385.18M217.63 385.18L217.39 384.86M218.8 385.18L218.8 383.92M218.8 383.92L218.8 384.55M218.8 384.55L219.74 384.55M219.74 384.55L219.74 383.92M219.74 383.92L219.74 385.18M220.68 385.18L220.68 383.92M220.68 383.92L220.21 383.92M220.21 383.92L221.15 383.92M221.62 385.18L221.62 383.92M221.62 383.92L222.32 383.92M222.32 383.92L222.56 384.24M222.56 384.24L222.56 384.55M222.56 384.55L222.32 384.86M222.32 384.86L221.62 384.86M223.03 385.18L223.03 384.86"
fill="none" stroke="black" stroke-width="3"/>
</g>
<g><path d="M214.1 391.89L214.1 390.01M214.1 390.95L215.04 390.95M215.04 390.01L215.04 391.89M215.51 391.89L215.51 391.57M215.98 391.89L215.98 390.63M215.98 390.63L215.98 391.26M215.98 391.26L216.45 391.26M216.45 391.26L216.92 390.63M216.92 390.63L216.45 391.26M216.45 391.26L216.92 391.89M217.39 391.57L217.39 390.95M217.39 390.95L217.63 390.63M217.63 390.63L218.1 390.63M218.1 390.63L218.33 390.95M218.33 390.95L218.33 391.57M218.33 391.57L218.1 391.89M218.1 391.89L217.63 391.89M217.63 391.89L217.39 391.57M218.8 391.89L218.8 390.63M218.8 390.63L218.8 391.26M218.8 391.26L219.74 391.26M219.74 391.26L219.74 390.63M219.74 390.63L219.74 391.89M220.68 391.89L220.68 390.63M220.68 390.63L220.21 390.63M220.21 390.63L221.15 390.63M221.62 391.89L221.62 390.63M221.62 390.63L222.32 390.63M222.32 390.63L222.56 390.95M222.56 390.95L222.56 391.26M222.56 391.26L222.32 391.57M222.32 391.57L221.62 391.57M223.03 391.89L223.03 391.57"
fill="none" stroke="black" stroke-width="3"/>
</g>
<g><path d="M214.1 394.93L214.34 395.24M214.34 395.24L214.81 395.24M214.81 395.24L215.04 394.93M215.04 394.93L215.04 393.36M215.04 393.36L215.04 394.61M215.04 394.61L214.34 394.61M214.34 394.61L214.1 394.3M214.1 394.3L214.1 393.36M215.98 395.24L215.98 393.99M215.98 393.99L215.51 393.99M215.51 393.99L216.45 393.99M216.92 395.24L216.92 393.99M216.92 393.99L217.39 393.99M217.39 394.61L216.92 394.61M216.92 394.61L217.63 394.61M217.63 395.24L216.92 395.24M217.39 394.61L217.56 394.52M217.56 394.52L217.63 394.3M217.63 394.3L217.56 394.08M217.56 394.08L217.39 393.99M217.63 395.24L217.79 395.15M217.79 395.15L217.86 394.93M217.86 394.93L217.79 394.71M217.79 394.71L217.63 394.61M218.33 395.24L218.33 394.93"
fill="none" stroke="black" stroke-width="3"/>
</g>
<g><path d="M338.98 395.86L338.18 395.86M338.18 395.46L338.58 395.76M338.58 395.76L338.58 395.86M338.58 395.76L338.98 395.46M338.98 395.26L338.18 395.26M338.18 395.26L338.18 394.86M338.18 394.86L338.98 394.86M338.98 394.86L338.98 395.26M338.98 394.66L338.18 394.66M338.18 394.66L338.98 394.25M338.98 394.25L338.18 394.25M338.85 394.05L338.98 393.95M338.98 393.95L338.98 393.75M338.98 393.75L338.85 393.65M338.85 393.65L338.31 394.05M338.31 394.05L338.18 393.95M338.18 393.95L338.18 393.75M338.18 393.75L338.31 393.65M338.98 393.45L338.18 393.45M338.18 393.45L338.18 393.05M338.58 393.45L338.58 393.25M338.98 393.45L338.98 393.05M338.98 392.84L338.18 392.44M338.18 392.84L338.98 392.44M338.98 392.24L338.18 392.24M338.18 392.24L338.18 391.94M338.18 391.94L338.31 391.84M338.31 391.84L338.45 391.84M338.45 391.84L338.58 391.94M338.58 391.94L338.58 392.24M338.98 391.64L338.18 391.64M338.18 391.64L338.18 391.23M338.58 391.64L338.58 391.44M338.98 391.64L338.98 391.23M338.98 391.03L338.18 391.03M338.18 391.03L338.18 390.73M338.18 390.73L338.31 390.63M338.31 390.63L338.45 390.63M338.45 390.63L338.58 390.73M338.58 390.73L338.58 391.03M338.58 390.93L338.98 390.63M338.18 390.43L338.18 390.03M338.18 390.23L338.98 390.23M338.71 388.82L338.98 389.02M338.98 389.02L338.98 389.12M338.98 389.12L338.85 389.22M338.85 389.22L338.71 389.22M338.71 389.22L338.45 389.02M338.45 389.02L338.31 389.02M338.31 389.02L338.18 389.12M338.18 389.12L338.31 389.22M338.31 389.22L338.45 389.22M338.45 389.22L338.98 388.82M338.98 388.01L338.18 388.01M338.18 388.01L338.18 387.71M338.18 387.71L338.31 387.61M338.31 387.61L338.45 387.61M338.45 387.61L338.58 387.71M338.58 387.71L338.58 388.01M338.58 387.91L338.98 387.61M338.18 387.41L338.18 387.21M338.18 387.31L338.98 387.31M338.98 387.41L338.98 387.21M338.98 387.01L338.98 386.71M338.98 386.71L338.85 386.61M338.85 386.61L338.71 386.61M338.71 386.61L338.58 386.71M338.58 386.71L338.58 386.91M338.58 386.71L338.45 386.61M338.45 386.61L338.31 386.61M338.31 386.61L338.18 386.71M338.18 386.71L338.18 387.01M338.18 386.91L338.98 386.91M338.98 386.4L338.98 386.1M338.98 386.1L338.85 386M338.85 386L338.71 386M338.71 386L338.58 386.1M338.58 386.1L338.58 386.3M338.58 386.1L338.45 386M338.45 386L338.31 386M338.31 386L338.18 386.1M338.18 386.1L338.18 386.4M338.18 386.3L338.98 386.3M338.98 385.8L338.18 385.8M338.18 385.8L338.18 385.4M338.18 385.4L338.98 385.4M338.98 385.4L338.98 385.8M338.98 385.2L338.18 385.2M338.18 385.2L338.98 384.79M338.98 384.79L338.18 384.79M338.85 384.59L338.98 384.49M338.98 384.49L338.98 384.29M338.98 384.29L338.85 384.19M338.85 384.19L338.31 384.59M338.31 384.59L338.18 384.49M338.18 384.49L338.18 384.29M338.18 384.29L338.31 384.19M338.98 383.99L338.18 383.99M338.18 383.99L338.18 383.59M338.18 383.59L338.98 383.59M338.98 383.59L338.98 383.99M338.98 383.38L338.18 383.38M338.18 383.38L338.18 382.98M338.58 383.38L338.58 383.18M338.18 382.78L338.18 382.38M338.18 382.58L338.98 382.58"
fill="none" stroke="black" stroke-width="3"/>
</g>
<g><path d="M340.2 394.49L339.39 394.49M339.39 394.49L339.39 394.08M339.39 394.08L340.2 394.08M340.2 394.08L340.2 394.49M340.2 393.88L339.39 393.88M339.39 393.88L339.39 393.58M339.39 393.58L339.53 393.48M339.53 393.48L339.66 393.48M339.66 393.48L339.8 393.58M339.8 393.58L339.8 393.88M340.2 393.28L339.39 393.28M339.39 393.28L339.39 392.88M339.8 393.28L339.8 393.08M340.2 393.28L340.2 392.88M340.2 392.68L339.39 392.68M339.39 392.68L340.2 392.27M340.2 392.27L339.39 392.27M340.06 391.47L340.2 391.37M340.2 391.37L340.2 391.17M340.2 391.17L340.06 391.06M340.06 391.06L339.53 391.47M339.53 391.47L339.39 391.37M339.39 391.37L339.39 391.17M339.39 391.17L339.53 391.06M340.2 390.86L339.39 390.86M339.39 390.86L339.39 390.46M339.39 390.46L340.2 390.46M340.2 390.46L340.2 390.86M339.39 390.26L340.06 390.26M340.06 390.26L340.2 390.16M340.2 390.16L340.2 389.96M340.2 389.96L340.06 389.86M340.06 389.86L339.39 389.86M340.2 389.66L339.39 389.66M339.39 389.66L339.39 389.35M339.39 389.35L339.53 389.25M339.53 389.25L339.66 389.25M339.66 389.25L339.8 389.35M339.8 389.35L339.8 389.66M339.8 389.56L340.2 389.25M340.06 388.65L340.2 388.75M340.2 388.75L340.2 388.95M340.2 388.95L340.06 389.05M340.06 389.05L339.53 389.05M339.53 389.05L339.39 388.95M339.39 388.95L339.39 388.75M339.39 388.75L339.53 388.65M340.2 388.45L339.39 388.45M339.39 388.45L339.39 388.05M339.8 388.45L339.8 388.25M340.2 388.45L340.2 388.05M340.2 387.24L339.39 387.24M339.39 387.24L339.39 386.94M339.39 386.94L339.53 386.84M339.53 386.84L339.66 386.84M339.66 386.84L339.8 386.94M339.8 386.94L339.8 387.24M339.8 387.14L340.2 386.84M340.2 386.64L339.39 386.64M339.39 386.64L339.39 386.23M339.8 386.64L339.8 386.44M340.2 386.64L340.2 386.23M339.39 386.03L340.2 386.03M340.2 386.03L340.2 385.63M340.2 385.43L339.39 385.43M339.39 385.43L339.39 385.03M339.8 385.43L339.8 385.23M340.2 385.43L340.2 385.03M340.2 384.83L339.93 384.83M339.93 384.83L339.39 384.62M339.39 384.62L339.93 384.42M339.93 384.42L340.2 384.42M339.93 384.83L339.93 384.42M340.06 384.22L340.2 384.12M340.2 384.12L340.2 383.92M340.2 383.92L340.06 383.82M340.06 383.82L339.53 384.22M339.53 384.22L339.39 384.12M339.39 384.12L339.39 383.92M339.39 383.92L339.53 383.82M340.2 383.62L339.39 383.62M339.39 383.62L339.39 383.21M339.8 383.62L339.8 383.42M340.2 383.62L340.2 383.21"
fill="none" stroke="black" stroke-width="3"/>
</g>
<g><path d="M305.06 391.86L306 391.86"
fill="none" stroke="black" stroke-width="3"/>
</g>
<g><path d="M216.91 338.81L217.29 338.31M217.29 338.31L217.29 341.33M216.91 341.33L217.66 341.33M218.42 341.33L218.42 340.82M221.44 341.33L221.44 338.31M221.44 339.82L222.95 339.82M222.95 338.31L222.95 341.33M223.7 340.32L224.84 340.32M224.84 340.32L225.21 339.82M225.21 339.82L224.84 339.31M224.84 339.31L224.08 339.31M224.08 339.31L223.7 339.82M223.7 339.82L223.7 340.82M223.7 340.82L224.08 341.33M224.08 341.33L224.84 341.33M225.97 340.82L226.34 341.33M226.34 341.33L227.1 341.33M227.1 341.33L227.48 340.82M227.48 340.82L227.48 339.31M227.48 339.31L227.48 340.32M227.48 340.32L226.72 340.32M226.72 340.32L225.97 339.31M228.23 341.33L228.23 339.31M228.23 339.31L228.23 340.32M228.23 340.32L228.99 340.32M228.99 340.32L229.74 339.31M229.74 339.31L228.99 340.32M228.99 340.32L229.74 341.33M230.5 340.82L230.5 339.82M230.5 339.82L230.87 339.31M230.87 339.31L231.63 339.31M231.63 339.31L232.01 339.82M232.01 339.82L232.01 339.31M232.01 339.31L232.01 341.33M232.01 341.33L232.01 340.82M232.01 340.82L231.63 341.33M231.63 341.33L230.87 341.33M230.87 341.33L230.5 340.82M232.76 339.82L233.14 339.31M233.14 339.31L233.89 339.31M233.89 339.31L234.27 339.82M234.27 339.82L233.89 340.32M233.89 340.32L233.52 340.32M233.52 340.32L233.89 340.32M233.89 340.32L234.27 340.82M234.27 340.82L233.89 341.33M233.89 341.33L233.14 341.33M233.14 341.33L232.76 340.82M235.02 340.82L235.02 339.82M235.02 339.82L235.4 339.31M235.4 339.31L236.16 339.31M236.16 339.31L236.53 339.82M236.53 339.82L236.53 339.31M236.53 339.31L236.53 341.33M236.53 341.33L236.53 340.82M236.53 340.82L236.16 341.33M236.16 341.33L235.4 341.33M235.4 341.33L235.02 340.82M237.29 341.33L237.29 339.31M237.29 339.31L237.29 340.32M237.29 340.32L238.8 340.32M238.8 340.32L238.8 339.31M238.8 339.31L238.8 341.33M239.55 341.33L239.55 339.31M239.55 339.31L239.55 340.32M239.55 340.32L241.06 340.32M241.06 340.32L241.06 339.31M241.06 339.31L241.06 341.33M241.82 341.33L241.82 339.31M241.82 339.31L241.82 340.32M241.82 340.32L242.57 340.32M242.57 340.32L242.95 340.82M242.95 340.82L242.57 341.33M242.57 341.33L241.82 341.33M243.33 341.33L243.33 339.31M244.08 340.32L245.21 340.32M245.21 340.32L245.59 339.82M245.59 339.82L245.21 339.31M245.21 339.31L244.46 339.31M244.46 339.31L244.08 339.82M244.08 339.82L244.08 340.82M244.08 340.82L244.46 341.33M244.46 341.33L245.21 341.33M248.61 341.33L248.61 339.31M248.61 339.31L250.12 339.31M250.12 339.31L250.12 341.33M250.88 341.33L250.88 339.31M250.88 339.31L252.01 339.31M252.01 339.31L252.39 339.82M252.39 339.82L252.39 340.32M252.39 340.32L252.01 340.82M252.01 340.82L250.88 340.82M253.14 340.32L254.27 340.32M254.27 340.32L254.65 339.82M254.65 339.82L254.27 339.31M254.27 339.31L253.52 339.31M253.52 339.31L253.14 339.82M253.14 339.82L253.14 340.82M253.14 340.82L253.52 341.33M253.52 341.33L254.27 341.33M255.4 341.83L255.4 341.33M255.4 341.33L255.78 341.33M255.78 341.33L255.78 339.82M255.78 339.82L256.16 339.31M256.16 339.31L256.54 339.31M256.54 339.31L256.54 341.33M256.54 341.33L255.78 341.33M255.78 341.33L256.91 341.33M256.91 341.33L256.91 341.83M257.67 340.32L258.8 340.32M258.8 340.32L259.18 339.82M259.18 339.82L258.8 339.31M258.8 339.31L258.05 339.31M258.05 339.31L257.67 339.82M257.67 339.82L257.67 340.82M257.67 340.82L258.05 341.33M258.05 341.33L258.8 341.33M259.93 341.33L260.69 339.31M260.69 339.31L261.44 339.31M261.44 339.31L261.44 341.33M262.2 341.33L262.2 339.31M262.2 339.31L262.2 340.32M262.2 340.32L262.95 340.32M262.95 340.32L263.33 340.82M263.33 340.82L262.95 341.33M262.95 341.33L262.2 341.33M264.08 341.33L264.08 339.31M264.08 339.31L264.08 340.32M264.08 340.32L265.59 340.32M265.59 340.32L265.59 339.31M265.59 339.31L265.59 341.33M266.35 341.33L266.35 339.31M266.35 339.31L266.35 340.32M266.35 340.32L267.1 340.32M267.1 340.32L267.48 340.82M267.48 340.82L267.1 341.33M267.1 341.33L266.35 341.33M267.86 341.33L267.86 339.31M268.61 340.32L269.75 340.32M269.75 340.32L270.12 339.82M270.12 339.82L269.75 339.31M269.75 339.31L268.99 339.31M268.99 339.31L268.61 339.82M268.61 339.82L268.61 340.82M268.61 340.82L268.99 341.33M268.99 341.33L269.75 341.33M273.14 340.82L273.14 339.82M273.14 339.82L273.52 339.31M273.52 339.31L274.27 339.31M274.27 339.31L274.65 339.82M274.65 339.82L274.65 340.82M274.65 340.82L274.27 341.33M274.27 341.33L273.52 341.33M273.52 341.33L273.14 340.82M276.16 341.33L276.16 339.31M276.16 339.31L275.41 339.31M275.41 339.31L276.92 339.31M277.67 341.33L277.67 339.31M277.67 339.31L277.67 340.32M277.67 340.32L278.43 340.32M278.43 340.32L279.18 339.31M279.18 339.31L278.43 340.32M278.43 340.32L279.18 341.33M279.94 341.33L280.69 339.31M280.69 339.31L281.45 339.31M281.45 339.31L281.45 341.33M282.2 340.82L282.2 339.82M282.2 339.82L282.58 339.31M282.58 339.31L283.33 339.31M283.33 339.31L283.71 339.82M283.71 339.82L283.71 340.82M283.71 340.82L283.33 341.33M283.33 341.33L282.58 341.33M282.58 341.33L282.2 340.82M284.46 341.33L284.46 339.31M284.46 339.31L284.46 340.32M284.46 340.32L285.97 340.32M285.97 340.32L285.97 339.31M285.97 339.31L285.97 341.33M286.73 340.32L287.86 340.32M287.86 340.32L288.24 339.82M288.24 339.82L287.86 339.31M287.86 339.31L287.11 339.31M287.11 339.31L286.73 339.82M286.73 339.82L286.73 340.82M286.73 340.82L287.11 341.33M287.11 341.33L287.86 341.33M288.99 341.33L288.99 339.31M288.99 339.31L288.99 340.32M288.99 340.32L290.5 340.32M290.5 340.32L290.5 339.31M290.5 339.31L290.5 341.33M291.26 339.31L291.26 341.33M291.26 341.33L292.77 339.31M292.77 339.31L292.77 341.33M293.52 341.33L294.28 340.32M294.28 340.32L293.9 340.32M293.9 340.32L293.52 339.82M293.52 339.82L293.9 339.31M293.9 339.31L295.03 339.31M295.03 339.31L295.03 340.32M295.03 340.32L294.28 340.32M294.28 340.32L295.03 340.32M295.03 340.32L295.03 341.33M298.05 341.33L298.05 339.31M298.05 339.31L299.18 339.31M299.18 339.31L299.56 339.82M299.56 339.82L299.56 340.32M299.56 340.32L299.18 340.82M299.18 340.82L298.05 340.82M300.31 340.82L300.31 339.82M300.31 339.82L300.69 339.31M300.69 339.31L301.45 339.31M301.45 339.31L301.82 339.82M301.82 339.82L301.82 339.31M301.82 339.31L301.82 341.33M301.82 341.33L301.82 340.82M301.82 340.82L301.45 341.33M301.45 341.33L300.69 341.33M300.69 341.33L300.31 340.82M302.58 339.82L302.96 339.31M302.96 339.31L303.71 339.31M303.71 339.31L304.09 339.82M304.09 339.82L303.71 340.32M303.71 340.32L303.33 340.32M303.33 340.32L303.71 340.32M303.71 340.32L304.09 340.82M304.09 340.82L303.71 341.33M303.71 341.33L302.96 341.33M302.96 341.33L302.58 340.82M304.84 341.33L304.84 339.31M304.84 339.31L305.6 340.32M305.6 340.32L306.35 339.31M306.35 339.31L306.35 341.33M307.11 340.32L308.24 340.32M308.24 340.32L308.62 339.82M308.62 339.82L308.24 339.31M308.24 339.31L307.49 339.31M307.49 339.31L307.11 339.82M307.11 339.82L307.11 340.82M307.11 340.82L307.49 341.33M307.49 341.33L308.24 341.33M309.37 341.33L309.37 339.31M309.37 339.31L310.5 339.31M310.5 339.31L310.88 339.82M310.88 339.82L310.88 340.32M310.88 340.32L310.5 340.82M310.5 340.82L309.37 340.82M311.64 340.82L311.64 339.82M311.64 339.82L312.01 339.31M312.01 339.31L312.77 339.31M312.77 339.31L313.15 339.82M313.15 339.82L313.15 340.82M313.15 340.82L312.77 341.33M312.77 341.33L312.01 341.33M312.01 341.33L311.64 340.82M313.9 341.33L313.9 339.31M313.9 339.31L314.66 339.31M314.66 340.32L313.9 340.32M313.9 340.32L315.03 340.32M315.03 341.33L313.9 341.33M314.66 340.32L314.92 340.17M314.92 340.17L315.03 339.82M315.03 339.82L314.92 339.46M314.92 339.46L314.66 339.31M315.03 341.33L315.3 341.18M315.3 341.18L315.41 340.82M315.41 340.82L315.3 340.47M315.3 340.47L315.03 340.32M221.44 345.85L221.44 344.85M221.44 344.85L221.82 344.35M221.82 344.35L222.57 344.35M222.57 344.35L222.95 344.85M222.95 344.85L222.95 345.85M222.95 345.85L222.57 346.36M222.57 346.36L221.82 346.36M221.82 346.36L221.44 345.85M224.46 346.36L224.46 344.35M224.46 344.35L223.7 344.35M223.7 344.35L225.21 344.35M225.97 346.36L225.97 344.35M225.97 344.35L226.72 344.35M226.72 345.35L225.97 345.35M225.97 345.35L227.1 345.35M227.1 346.36L225.97 346.36M226.72 345.35L226.99 345.2M226.99 345.2L227.1 344.85M227.1 344.85L226.99 344.49M226.99 344.49L226.72 344.35M227.1 346.36L227.37 346.21M227.37 346.21L227.48 345.85M227.48 345.85L227.37 345.5M227.37 345.5L227.1 345.35M228.23 345.35L229.36 345.35M229.36 345.35L229.74 344.85M229.74 344.85L229.36 344.35M229.36 344.35L228.61 344.35M228.61 344.35L228.23 344.85M228.23 344.85L228.23 345.85M228.23 345.85L228.61 346.36M228.61 346.36L229.36 346.36M230.5 346.36L230.5 344.35M230.5 344.35L231.63 344.35M231.63 344.35L232.01 344.85M232.01 344.85L232.01 345.35M232.01 345.35L231.63 345.85M231.63 345.85L230.5 345.85M234.27 345.85L233.89 346.36M233.89 346.36L233.14 346.36M233.14 346.36L232.76 345.85M232.76 345.85L232.76 344.85M232.76 344.85L233.14 344.35M233.14 344.35L233.89 344.35M233.89 344.35L234.27 344.85M235.78 346.36L235.78 344.35M235.78 344.35L235.02 344.35M235.02 344.35L236.53 344.35M237.29 344.35L237.29 346.36M237.29 346.36L238.8 344.35M238.8 344.35L238.8 346.36M239.55 344.35L239.55 346.36M239.55 346.36L241.06 344.35M241.06 344.35L241.06 346.36M240.69 344.35L239.93 344.35M244.08 344.85L245.59 344.85M248.61 346.36L248.61 343.34M248.61 344.85L250.12 344.85M250.12 343.34L250.12 346.36M250.88 343.84L251.25 343.34M251.25 343.34L251.25 346.36M250.88 346.36L251.63 346.36M253.89 345.35L252.39 345.35M252.39 345.35L253.52 343.34M253.52 343.34L253.52 346.36M255.03 345.85L255.03 346.36M255.03 346.36L254.65 346.86M258.05 346.36L258.05 344.35M258.05 344.35L258.8 344.35M258.8 345.35L258.05 345.35M258.05 345.35L259.18 345.35M259.18 346.36L258.05 346.36M258.8 345.35L259.07 345.2M259.07 345.2L259.18 344.85M259.18 344.85L259.07 344.49M259.07 344.49L258.8 344.35M259.18 346.36L259.45 346.21M259.45 346.21L259.56 345.85M259.56 345.85L259.45 345.5M259.45 345.5L259.18 345.35M260.31 345.85L260.31 344.85M260.31 344.85L260.69 344.35M260.69 344.35L261.44 344.35M261.44 344.35L261.82 344.85M261.82 344.85L261.82 344.35M261.82 344.35L261.82 346.36M261.82 346.36L261.82 345.85M261.82 345.85L261.44 346.36M261.44 346.36L260.69 346.36M260.69 346.36L260.31 345.85M262.58 346.36L263.33 344.35M263.33 344.35L264.08 344.35M264.08 344.35L264.08 346.36M264.84 345.85L264.84 344.85M264.84 344.85L265.22 344.35M265.22 344.35L265.97 344.35M265.97 344.35L266.35 344.85M266.35 344.85L266.35 345.85M266.35 345.85L265.97 346.36M265.97 346.36L265.22 346.36M265.22 346.36L264.84 345.85M267.1 346.36L267.1 344.35M267.1 344.35L267.86 344.35M267.86 345.35L267.1 345.35M267.1 345.35L268.24 345.35M268.24 346.36L267.1 346.36M267.86 345.35L268.13 345.2M268.13 345.2L268.24 344.85M268.24 344.85L268.13 344.49M268.13 344.49L267.86 344.35M268.24 346.36L268.5 346.21M268.5 346.21L268.61 345.85M268.61 345.85L268.5 345.5M268.5 345.5L268.24 345.35M271.63 344.85L273.14 344.85M276.16 346.36L276.16 343.34M276.16 345.35L276.92 344.35M276.92 344.35L277.29 344.35M277.29 344.35L277.67 344.85M277.67 344.85L277.67 346.36M278.43 343.84L278.8 343.34M278.8 343.34L278.8 346.36M278.43 346.36L279.18 346.36M281.45 345.35L279.94 345.35M279.94 345.35L281.07 343.34M281.07 343.34L281.07 346.36M282.58 345.85L282.58 346.36M282.58 346.36L282.2 346.86M285.6 345.85L285.6 344.85M285.6 344.85L285.97 344.35M285.97 344.35L286.73 344.35M286.73 344.35L287.11 344.85M287.11 344.85L287.11 345.85M287.11 345.85L286.73 346.36M286.73 346.36L285.97 346.36M285.97 346.36L285.6 345.85M289.37 345.85L288.99 346.36M288.99 346.36L288.24 346.36M288.24 346.36L287.86 345.85M287.86 345.85L287.86 344.85M287.86 344.85L288.24 344.35M288.24 344.35L288.99 344.35M288.99 344.35L289.37 344.85M290.88 346.36L290.88 344.35M290.88 344.35L290.13 344.35M290.13 344.35L291.63 344.35M292.39 345.85L292.39 344.85M292.39 344.85L292.77 344.35M292.77 344.35L293.52 344.35M293.52 344.35L293.9 344.85M293.9 344.85L293.9 344.35M293.9 344.35L293.9 346.36M293.9 346.36L293.9 345.85M293.9 345.85L293.52 346.36M293.52 346.36L292.77 346.36M292.77 346.36L292.39 345.85M294.65 346.36L295.41 344.35M295.41 344.35L296.16 344.35M296.16 344.35L296.16 346.36M296.92 346.36L296.92 344.35M296.92 344.35L296.92 345.35M296.92 345.35L297.67 345.35M297.67 345.35L298.05 345.85M298.05 345.85L297.67 346.36M297.67 346.36L296.92 346.36M298.81 346.36L298.81 344.35M298.81 344.35L298.81 345.35M298.81 345.35L300.31 345.35M300.31 345.35L300.31 344.35M300.31 344.35L300.31 346.36M301.07 346.36L301.07 344.35M301.07 344.35L301.07 345.35M301.07 345.35L301.82 345.35M301.82 345.35L302.2 345.85M302.2 345.85L301.82 346.36M301.82 346.36L301.07 346.36M302.58 346.36L302.58 344.35M303.33 346.36L304.84 344.35M303.33 344.35L304.84 346.36M307.86 345.85L309.37 345.85M308.62 345.35L308.62 343.34M307.86 344.35L309.37 344.35M312.39 343.34L313.15 343.34M312.77 343.34L312.77 346.36M312.39 346.36L313.15 346.36M313.9 343.34L315.41 343.34M314.66 343.34L314.66 346.36"
fill="none" stroke="black" stroke-width="3"/>
</g>
<g><path d="M324.55 342.1L324.8 341.76M324.8 341.76L324.8 343.77M324.55 343.77L325.06 343.77M326.57 343.1L325.56 343.1M325.56 343.1L326.31 341.76M326.31 341.76L326.31 343.77"
fill="none" stroke="black" stroke-width="3"/>
</g>
<g><path d="M325.29 344.98L325.54 344.65M325.54 344.65L326.05 344.65M326.05 344.65L326.3 344.98M326.3 344.98L326.3 345.32M326.3 345.32L326.05 345.65M326.05 345.65L325.54 345.65M325.54 345.65L325.29 345.99M325.29 345.99L325.29 346.66M325.29 346.66L326.3 346.66"
fill="none" stroke="black" stroke-width="3"/>
</g>
<g><path d="M324.22 344.25L327.24 344.25"
fill="none" stroke="black" stroke-width="3"/>
</g>
<g><path d="M64.79 290.63L64.79 289.74M64.79 289.74L65.46 287.95M65.46 287.95L66.13 289.74M66.13 289.74L66.13 290.63M64.79 289.74L66.13 289.74"
fill="none" stroke="black" stroke-width="3"/>
</g>
<g><path d="M64.79 97.67L65.8 97.67M65.8 97.67L66.13 97.22M66.13 97.22L66.13 96.77M66.13 96.77L65.8 96.33M65.8 96.33L65.13 96.33M65.8 96.33L66.13 95.88M66.13 95.88L66.13 95.43M66.13 95.43L65.8 94.98M65.8 94.98L64.79 94.98M65.13 94.98L65.13 97.67"
fill="none" stroke="black" stroke-width="3"/>
</g>
<g><path d="M270.06 1.8L270.31 1.47M270.31 1.47L270.31 3.48M270.06 3.48L270.56 3.48"
fill="none" stroke="black" stroke-width="3"/>
</g>
<g><path d="M129.16 1.8L129.42 1.47M129.42 1.47L129.92 1.47M129.92 1.47L130.17 1.8M130.17 1.8L130.17 2.14M130.17 2.14L129.92 2.47M129.92 2.47L129.42 2.47M129.42 2.47L129.16 2.81M129.16 2.81L129.16 3.48M129.16 3.48L130.17 3.48"
fill="none" stroke="black" stroke-width="3"/>
</g>
<g><path d="M129.16 396.93L129.42 396.59M129.42 396.59L129.92 396.59M129.92 396.59L130.17 396.93M130.17 396.93L130.17 397.26M130.17 397.26L129.92 397.6M129.92 397.6L129.42 397.6M129.42 397.6L129.16 397.93M129.16 397.93L129.16 398.6M129.16 398.6L130.17 398.6"
fill="none" stroke="black" stroke-width="3"/>
</g>
<g><path d="M270.06 396.93L270.31 396.59M270.31 396.59L270.31 398.6M270.06 398.6L270.56 398.6"
fill="none" stroke="black" stroke-width="3"/>
</g>
<g><path d="M338.51 290.63L338.51 289.74M338.51 289.74L339.18 287.95M339.18 287.95L339.85 289.74M339.85 289.74L339.85 290.63M338.51 289.74L339.85 289.74"
fill="none" stroke="black" stroke-width="3"/>
</g>
<g><path d="M338.51 97.67L339.52 97.67M339.52 97.67L339.85 97.22M339.85 97.22L339.85 96.77M339.85 96.77L339.52 96.33M339.52 96.33L338.85 96.33M339.52 96.33L339.85 95.88M339.85 95.88L339.85 95.43M339.85 95.43L339.52 94.98M339.52 94.98L338.51 94.98M338.85 94.98L338.85 97.67"
fill="none" stroke="black" stroke-width="3"/>
</g>
<g><path d="M67.17 354.71L67.17 354M67.17 354L66.86 353.77M66.86 353.77L66.55 353.77M66.55 353.77L66.23 354M66.23 354L66.23 354.47M66.23 354L65.92 353.77M65.92 353.77L65.61 353.77M65.61 353.77L65.3 354M65.3 354L65.3 354.71M65.3 354.47L67.17 354.47M66.23 353.3L65.92 353.06M65.92 353.06L65.92 352.59M65.92 352.59L66.23 352.36M66.23 352.36L66.55 352.59M66.55 352.59L66.55 352.83M66.55 352.83L66.55 352.59M66.55 352.59L66.86 352.36M66.86 352.36L67.17 352.59M67.17 352.59L67.17 353.06M67.17 353.06L66.86 353.3M66.86 351.89L66.23 351.89M66.23 351.89L65.92 351.65M65.92 351.65L65.92 351.19M65.92 351.19L66.23 350.95M66.23 350.95L65.92 350.95M65.92 350.95L67.17 350.95M67.17 350.95L66.86 350.95M66.86 350.95L67.17 351.19M67.17 351.19L67.17 351.65M67.17 351.65L66.86 351.89M67.17 350.48L65.92 350.48M65.92 350.48L66.55 350.01M66.55 350.01L65.92 349.54M65.92 349.54L67.17 349.54M67.17 349.07L66.86 349.07M65.92 347.19L67.17 347.19M67.17 347.19L65.92 346.25M65.92 346.25L67.17 346.25M67.17 345.78L65.92 345.78M65.92 345.78L66.55 345.78M66.55 345.78L66.55 344.84M66.55 344.84L65.92 344.84M65.92 344.84L67.17 344.84M67.17 344.38L65.92 344.38M65.92 344.38L65.92 343.91M66.55 343.91L66.55 344.38M66.55 344.38L66.55 343.67M67.17 343.67L67.17 344.38M66.55 343.91L66.46 343.74M66.46 343.74L66.23 343.67M66.23 343.67L66.01 343.74M66.01 343.74L65.92 343.91M67.17 343.67L67.08 343.5M67.08 343.5L66.86 343.44M66.86 343.44L66.64 343.5M66.64 343.5L66.55 343.67M67.17 342.97L66.86 342.97M67.17 342.5L65.3 342.5M65.3 342.5L67.17 341.56M67.17 341.56L65.3 341.56"
fill="none" stroke="black" stroke-width="3"/>
</g>
</g>
</svg>
