<?xml version="1.0" standalone="no"?><svg xmlns="http://www.w3.org/2000/svg" width="400.000" height="400.000" viewBox="0.0 0.0 400.000 400.000" version="1.1">
  <title>Produce by Acme CAD Converter</title>
  <desc>Produce by Acme CAD Converter</desc>
<g id="0" display="visible">
<g><path d="M250.65 375.27L250.65 374.98M250.65 374.98L251.74 374.98M251.74 374.98L251.74 373.23M251.74 373.23L251.31 373.23M251.31 373.23L250.87 374.4M250.87 374.4L250.87 374.98M250.87 374.98L251.96 374.98M251.96 374.98L251.96 375.27M252.4 374.69L252.4 374.11M252.4 374.11L252.62 373.82M252.62 373.82L253.05 373.82M253.05 373.82L253.27 374.11M253.27 374.11L253.27 373.82M253.27 373.82L253.27 374.98M253.27 374.98L253.27 374.69M253.27 374.69L253.05 374.98M253.05 374.98L252.62 374.98M252.62 374.98L252.4 374.69M254.14 374.98L254.14 373.82M254.14 373.82L253.71 373.82M253.71 373.82L254.58 373.82M255.02 374.69L255.02 374.11M255.02 374.11L255.23 373.82M255.23 373.82L255.67 373.82M255.67 373.82L255.89 374.11M255.89 374.11L255.89 373.82M255.89 373.82L255.89 374.98M255.89 374.98L255.89 374.69M255.89 374.69L255.67 374.98M255.67 374.98L255.23 374.98M255.23 374.98L255.02 374.69"
fill="none" stroke="black" stroke-width="3"/>
</g>
<g><path d="M200 399.27L200 395.91"
fill="none" stroke="black" stroke-width="3"/>
</g>
<g><path d="M317.67 9.77L318.09 9.21M318.09 9.21L318.93 9.21M318.93 9.21L319.35 9.77M319.35 9.77L319.35 10.32M319.35 10.32L318.93 10.88M318.93 10.88L318.51 10.88M318.93 10.88L319.35 11.44M319.35 11.44L319.35 12M319.35 12L318.93 12.56M318.93 12.56L318.09 12.56M318.09 12.56L317.67 12M320.61 12L320.61 12.56M320.61 12.56L320.19 13.12M321.45 9.77L321.87 9.21M321.87 9.21L322.71 9.21M322.71 9.21L323.13 9.77M323.13 9.77L323.13 10.32M323.13 10.32L322.71 10.88M322.71 10.88L321.87 10.88M321.87 10.88L321.45 11.44M321.45 11.44L321.45 12.56M321.45 12.56L323.13 12.56"
fill="none" stroke="black" stroke-width="3"/>
</g>
<g><path d="M325.1 13.55L324.62 15.34M324.62 15.34L325.1 17.13"
fill="none" stroke="black" stroke-width="3"/>
</g>
<g><path d="M321.35 17.12L324.04 12.47"
fill="none" stroke="black" stroke-width="3"/>
</g>
<g><path d="M330.03 17.13L330.5 15.34M330.5 15.34L330.03 13.55"
fill="none" stroke="black" stroke-width="3"/>
</g>
<g><path d="M327.44 17.12L330.13 12.47"
fill="none" stroke="black" stroke-width="3"/>
</g>
<g><path d="M327.44 17.12L325.77 14.21"
fill="none" stroke="black" stroke-width="3"/>
</g>
<g><path d="M321.35 17.12L319.68 14.21"
fill="none" stroke="black" stroke-width="3"/>
</g>
<g><path d="M337.54 4.09L337.54 395.91"
fill="none" stroke="black" stroke-width="9"/>
</g>
<g><path d="M340.9 0.73L340.9 399.27"
fill="none" stroke="black" stroke-width="3"/>
</g>
<g><path d="M200 4.09L200 0.73"
fill="none" stroke="black" stroke-width="3"/>
</g>
<g><path d="M337.54 200L340.9 200"
fill="none" stroke="black" stroke-width="3"/>
</g>
<g><path d="M72.52 298.63L64.47 298.63"
fill="none" stroke="black" stroke-width="9"/>
</g>
<g><path d="M64.47 395.91L64.47 298.63"
fill="none" stroke="black" stroke-width="9"/>
</g>
<g><path d="M72.52 322.11L64.47 322.11"
fill="none" stroke="black" stroke-width="9"/>
</g>
<g><path d="M72.52 338.88L64.47 338.88"
fill="none" stroke="black" stroke-width="9"/>
</g>
<g><path d="M72.52 355.66L64.47 355.66"
fill="none" stroke="black" stroke-width="9"/>
</g>
<g><path d="M72.52 379.14L64.47 379.14"
fill="none" stroke="black" stroke-width="9"/>
</g>
<g><path d="M67.83 395.91L67.83 298.63"
fill="none" stroke="black" stroke-width="3"/>
</g>
<g><path d="M72.52 13.48L119.49 13.48"
fill="none" stroke="black" stroke-width="9"/>
</g>
<g><path d="M119.49 13.48L119.49 4.09"
fill="none" stroke="black" stroke-width="9"/>
</g>
<g><path d="M59.1 399.27L59.1 0.73"
fill="none" stroke="black" stroke-width="3"/>
</g>
<g><path d="M72.52 395.91L72.52 4.09"
fill="none" stroke="black" stroke-width="9"/>
</g>
<g><path d="M72.52 84.6L64.47 84.6"
fill="none" stroke="black" stroke-width="9"/>
</g>
<g><path d="M72.52 44.34L64.47 44.34"
fill="none" stroke="black" stroke-width="9"/>
</g>
<g><path d="M67.83 84.6L67.83 4.09"
fill="none" stroke="black" stroke-width="3"/>
</g>
<g><path d="M64.47 84.6L64.47 4.09"
fill="none" stroke="black" stroke-width="9"/>
</g>
<g><path d="M59.1 200L72.52 200"
fill="none" stroke="black" stroke-width="3"/>
</g>
<g><path d="M59.1 0.73L340.9 0.73"
fill="none" stroke="black" stroke-width="3"/>
</g>
<g><path d="M64.47 4.09L337.54 4.09"
fill="none" stroke="black" stroke-width="9"/>
</g>
<g><path d="M340.9 399.27L59.1 399.27"
fill="none" stroke="black" stroke-width="3"/>
</g>
<g><path d="M337.54 395.91L64.47 395.91"
fill="none" stroke="black" stroke-width="9"/>
</g>
<g><path d="M315.99 371.56L315.99 369.68M315.99 369.68L316.46 370.93M316.46 370.93L316.93 369.68M316.93 369.68L316.93 371.56M317.4 371.25L317.4 370.62M317.4 370.62L317.63 370.31M317.63 370.31L318.1 370.31M318.1 370.31L318.34 370.62M318.34 370.62L318.34 370.31M318.34 370.31L318.34 371.56M318.34 371.56L318.34 371.25M318.34 371.25L318.1 371.56M318.1 371.56L317.63 371.56M317.63 371.56L317.4 371.25M319.75 371.25L319.51 371.56M319.51 371.56L319.04 371.56M319.04 371.56L318.81 371.25M318.81 371.25L318.81 370.62M318.81 370.62L319.04 370.31M319.04 370.31L319.51 370.31M319.51 370.31L319.75 370.62M321.15 371.25L320.92 371.56M320.92 371.56L320.45 371.56M320.45 371.56L320.22 371.25M320.22 371.25L320.22 370.62M320.22 370.62L320.45 370.31M320.45 370.31L320.92 370.31M320.92 370.31L321.15 370.62M321.62 371.25L321.62 370.62M321.62 370.62L321.86 370.31M321.86 370.31L322.33 370.31M322.33 370.31L322.56 370.62M322.56 370.62L322.56 370.31M322.56 370.31L322.56 371.56M322.56 371.56L322.56 371.25M322.56 371.25L322.33 371.56M322.33 371.56L321.86 371.56M321.86 371.56L321.62 371.25"
fill="none" stroke="black" stroke-width="3"/>
</g>
<g><path d="M325.86 371.6L325.86 369.72M325.86 369.72L326.33 370.97M326.33 370.97L326.8 369.72M326.8 369.72L326.8 371.6M327.27 371.29L327.27 370.66M327.27 370.66L327.5 370.35M327.5 370.35L327.97 370.35M327.97 370.35L328.2 370.66M328.2 370.66L328.2 370.35M328.2 370.35L328.2 371.6M328.2 371.6L328.2 371.29M328.2 371.29L327.97 371.6M327.97 371.6L327.5 371.6M327.5 371.6L327.27 371.29M329.61 371.29L329.38 371.6M329.38 371.6L328.91 371.6M328.91 371.6L328.67 371.29M328.67 371.29L328.67 370.66M328.67 370.66L328.91 370.35M328.91 370.35L329.38 370.35M329.38 370.35L329.61 370.66M330.08 371.6L330.08 370.35M330.08 370.35L330.08 371.6M330.08 371.6L330.55 371.6M330.55 371.6L330.55 370.97M330.55 370.97L330.55 371.6M330.55 371.6L331.02 371.6M331.02 371.6L331.02 370.35M331.96 371.6L331.96 370.35M331.96 370.35L331.49 370.35M331.49 370.35L332.43 370.35M332.9 371.29L332.9 370.66M332.9 370.66L333.14 370.35M333.14 370.35L333.61 370.35M333.61 370.35L333.84 370.66M333.84 370.66L333.84 370.35M333.84 370.35L333.84 371.6M333.84 371.6L333.84 371.29M333.84 371.29L333.61 371.6M333.61 371.6L333.14 371.6M333.14 371.6L332.9 371.29M335.01 370.35L334.31 370.35M334.31 370.35L334.31 371.6M334.31 371.6L335.01 371.6M335.01 371.6L335.25 371.29M335.25 371.29L335.01 370.97M335.01 370.97L334.31 370.97"
fill="none" stroke="black" stroke-width="3"/>
</g>
<g><path d="M317.83 378.97L319.18 378.97"
fill="none" stroke="black" stroke-width="3"/>
</g>
<g><path d="M304.91 378.93L306.26 378.93"
fill="none" stroke="black" stroke-width="3"/>
</g>
<g><path d="M305.12 384.95L305.35 384.95M305.35 384.95L306.06 383.07M306.06 383.07L306.29 383.07M306.29 383.07L306.29 384.95M306.76 383.7L306.76 384.95M306.76 384.95L307.7 383.7M307.7 383.7L307.7 384.95M309.11 384.64L308.88 384.95M308.88 384.95L308.41 384.95M308.41 384.95L308.17 384.64M308.17 384.64L308.17 384.01M308.17 384.01L308.41 383.7M308.41 383.7L308.88 383.7M308.88 383.7L309.11 384.01M310.05 384.95L310.05 383.7M310.05 383.7L309.58 383.7M309.58 383.7L310.52 383.7"
fill="none" stroke="black" stroke-width="3"/>
</g>
<g><path d="M318.5 384.85L318.74 384.85M318.74 384.85L319.44 382.97M319.44 382.97L319.68 382.97M319.68 382.97L319.68 384.85M320.15 383.6L320.15 384.85M320.15 384.85L321.08 383.6M321.08 383.6L321.08 384.85M322.49 384.54L322.26 384.85M322.26 384.85L321.79 384.85M321.79 384.85L321.55 384.54M321.55 384.54L321.55 383.91M321.55 383.91L321.79 383.6M321.79 383.6L322.26 383.6M322.26 383.6L322.49 383.91M323.43 384.85L323.43 383.6M323.43 383.6L322.96 383.6M322.96 383.6L323.9 383.6M324.37 384.54L324.37 383.91M324.37 383.91L324.61 383.6M324.61 383.6L325.08 383.6M325.08 383.6L325.31 383.91M325.31 383.91L325.31 384.54M325.31 384.54L325.08 384.85M325.08 384.85L324.61 384.85M324.61 384.85L324.37 384.54M325.78 384.85L325.78 383.6M325.78 383.6L326.25 383.6M326.25 384.23L325.78 384.23M325.78 384.23L326.49 384.23M326.49 384.85L325.78 384.85M326.25 384.23L326.42 384.14M326.42 384.14L326.49 383.91M326.49 383.91L326.42 383.69M326.42 383.69L326.25 383.6M326.49 384.85L326.65 384.76M326.65 384.76L326.72 384.54M326.72 384.54L326.65 384.32M326.65 384.32L326.49 384.23"
fill="none" stroke="black" stroke-width="3"/>
</g>
<g><path d="M257.76 391.82L258.93 391.82"
fill="none" stroke="black" stroke-width="3"/>
</g>
<g><path d="M266.86 389.09L268.04 389.09"
fill="none" stroke="black" stroke-width="3"/>
</g>
<g><path d="M266.86 394.48L268.04 394.48"
fill="none" stroke="black" stroke-width="3"/>
</g>
<g><path d="M305.54 394.56L307.22 394.56"
fill="none" stroke="black" stroke-width="3"/>
</g>
<g><path d="M263.83 380.83L265.51 380.83"
fill="none" stroke="black" stroke-width="3"/>
</g>
<g><path d="M269.13 366.27L271.48 366.27"
fill="none" stroke="black" stroke-width="3"/>
</g>
<g><path d="M269.11 398.26L269.11 396.38M270.05 396.38L269.34 397.32M269.34 397.32L269.11 397.32M269.34 397.32L270.05 398.26M270.51 397.95L270.51 397.32M270.51 397.32L270.75 397.01M270.75 397.01L271.22 397.01M271.22 397.01L271.45 397.32M271.45 397.32L271.45 397.95M271.45 397.95L271.22 398.26M271.22 398.26L270.75 398.26M270.75 398.26L270.51 397.95M271.92 398.26L271.92 397.01M271.92 397.01L272.86 397.01M272.86 397.01L272.86 398.26M273.33 397.01L273.33 398.26M273.33 398.26L274.27 397.01M274.27 397.01L274.27 398.26M274.74 398.26L274.74 397.01M274.74 397.01L275.45 397.01M275.45 397.01L275.68 397.32M275.68 397.32L275.68 397.63M275.68 397.63L275.45 397.95M275.45 397.95L274.74 397.95M276.15 397.95L276.15 397.32M276.15 397.32L276.39 397.01M276.39 397.01L276.86 397.01M276.86 397.01L277.09 397.32M277.09 397.32L277.09 397.95M277.09 397.95L276.86 398.26M276.86 398.26L276.39 398.26M276.39 398.26L276.15 397.95M277.56 398.26L277.56 397.01M277.56 397.01L278.03 397.01M278.03 397.63L277.56 397.63M277.56 397.63L278.26 397.63M278.26 398.26L277.56 398.26M278.03 397.63L278.2 397.54M278.2 397.54L278.26 397.32M278.26 397.32L278.2 397.1M278.2 397.1L278.03 397.01M278.26 398.26L278.43 398.17M278.43 398.17L278.5 397.95M278.5 397.95L278.43 397.73M278.43 397.73L278.26 397.63M278.97 397.95L278.97 397.32M278.97 397.32L279.2 397.01M279.2 397.01L279.67 397.01M279.67 397.01L279.91 397.32M279.91 397.32L279.91 397.01M279.91 397.01L279.91 398.26M279.91 398.26L279.91 397.95M279.91 397.95L279.67 398.26M279.67 398.26L279.2 398.26M279.2 398.26L278.97 397.95M280.38 398.26L280.85 397.01M280.85 397.01L281.32 397.01M281.32 397.01L281.32 398.26"
fill="none" stroke="black" stroke-width="3"/>
</g>
<g><path d="M117 7.33L115.32 7.33"
fill="none" stroke="black" stroke-width="3"/>
</g>
<g><path d="M67.01 32.3L65.14 32.3M65.14 32.3L65.14 31.36M65.14 31.36L67.01 31.36M66.39 30.89L66.39 30.19M66.39 30.19L66.08 29.95M66.08 29.95L65.76 30.19M65.76 30.19L65.76 30.66M65.76 30.66L66.08 30.89M66.08 30.89L66.7 30.89M66.7 30.89L67.01 30.66M67.01 30.66L67.01 30.19M67.01 29.48L65.76 29.48M65.76 29.48L65.76 28.78M65.76 28.78L66.08 28.54M66.08 28.54L66.39 28.54M66.39 28.54L66.7 28.78M66.7 28.78L66.7 29.48M67.01 28.07L65.76 28.07M65.76 28.07L65.76 27.61M66.39 27.61L66.39 28.07M66.39 28.07L66.39 27.37M67.01 27.37L67.01 28.07M66.39 27.61L66.3 27.44M66.3 27.44L66.08 27.37M66.08 27.37L65.85 27.44M65.85 27.44L65.76 27.61M67.01 27.37L66.92 27.2M66.92 27.2L66.7 27.14M66.7 27.14L66.48 27.2M66.48 27.2L66.39 27.37M67.01 26.67L66.7 26.67M67.01 24.79L65.76 24.79M65.76 24.79L65.76 23.85M65.76 23.85L67.01 23.85M67.01 23.38L65.76 23.38M65.76 23.38L65.76 22.67M65.76 22.67L66.08 22.44M66.08 22.44L66.39 22.44M66.39 22.44L66.7 22.67M66.7 22.67L66.7 23.38M65.76 21.97L67.01 21.97M67.01 21.97L65.76 21.03M65.76 21.03L67.01 21.03M67.01 20.56L65.76 20.56M65.76 20.56L66.39 20.09M66.39 20.09L65.76 19.62M65.76 19.62L67.01 19.62M66.39 19.15L66.39 18.45M66.39 18.45L66.08 18.21M66.08 18.21L65.76 18.45M65.76 18.45L65.76 18.92M65.76 18.92L66.08 19.15M66.08 19.15L66.7 19.15M66.7 19.15L67.01 18.92M67.01 18.92L67.01 18.45M67.01 17.74L65.76 17.74M65.76 17.74L66.39 17.74M66.39 17.74L66.39 16.8M66.39 16.8L65.76 16.8M65.76 16.8L67.01 16.8M67.01 16.33L66.7 16.33"
fill="none" stroke="black" stroke-width="3"/>
</g>
<g><path d="M66.84 67.56L67.16 67.79M67.16 67.79L67.16 68.26M67.16 68.26L66.84 68.5M66.84 68.5L65.59 68.5M65.59 68.5L65.28 68.26M65.28 68.26L65.28 67.79M65.28 67.79L65.59 67.56M67.16 67.09L65.9 67.09M65.9 67.09L65.9 66.15M65.9 66.15L67.16 66.15M67.16 65.68L65.9 65.68M65.9 65.68L65.9 64.98M65.9 64.98L66.22 64.74M66.22 64.74L66.53 64.74M66.53 64.74L66.84 64.98M66.84 64.98L66.84 65.68M66.84 64.27L66.22 64.27M66.22 64.27L65.9 64.04M65.9 64.04L65.9 63.57M65.9 63.57L66.22 63.33M66.22 63.33L65.9 63.33M65.9 63.33L67.16 63.33M67.16 63.33L66.84 63.33M66.84 63.33L67.16 63.57M67.16 63.57L67.16 64.04M67.16 64.04L66.84 64.27M67.16 62.86L65.9 62.86M65.9 62.86L65.9 62.39M66.53 62.39L66.53 62.86M66.53 62.86L66.53 62.16M67.16 62.16L67.16 62.86M66.53 62.39L66.44 62.23M66.44 62.23L66.22 62.16M66.22 62.16L65.99 62.23M65.99 62.23L65.9 62.39M67.16 62.16L67.06 61.99M67.06 61.99L66.84 61.92M66.84 61.92L66.62 61.99M66.62 61.99L66.53 62.16M67.16 61.45L66.84 61.45M67.16 59.57L65.28 59.57M65.28 59.57L67.16 58.63M67.16 58.63L65.28 58.63"
fill="none" stroke="black" stroke-width="3"/>
</g>
<g><path d="M66.68 318.85L64.8 318.85M64.8 318.85L64.8 317.91M64.8 317.91L66.68 317.91M66.37 317.44L65.74 317.44M65.74 317.44L65.43 317.21M65.43 317.21L65.43 316.74M65.43 316.74L65.74 316.5M65.74 316.5L66.37 316.5M66.37 316.5L66.68 316.74M66.68 316.74L66.68 317.21M66.68 317.21L66.37 317.44M67 316.03L66.68 316.03M66.68 316.03L66.68 315.8M66.68 315.8L65.74 315.8M65.74 315.8L65.43 315.56M65.43 315.56L65.43 315.33M65.43 315.33L66.68 315.33M66.68 315.33L66.68 315.8M66.68 315.8L66.68 315.09M66.68 315.09L67 315.09M66.68 314.62L65.43 314.62M65.43 314.62L65.43 313.68M65.43 313.68L66.68 313.68M66.68 313.21L66.37 313.21M65.43 311.33L66.68 311.33M66.68 311.33L65.43 310.4M65.43 310.4L66.68 310.4M67 308.52L66.68 308.52M66.68 308.52L66.68 308.28M66.68 308.28L65.74 308.28M65.74 308.28L65.43 308.05M65.43 308.05L65.43 307.81M65.43 307.81L66.68 307.81M66.68 307.81L66.68 308.28M66.68 308.28L66.68 307.58M66.68 307.58L67 307.58M66.37 307.11L65.74 307.11M65.74 307.11L65.43 306.87M65.43 306.87L65.43 306.4M65.43 306.4L65.74 306.17M65.74 306.17L65.43 306.17M65.43 306.17L66.68 306.17M66.68 306.17L66.37 306.17M66.37 306.17L66.68 306.4M66.68 306.4L66.68 306.87M66.68 306.87L66.37 307.11M66.68 305.23L65.43 305.23M65.43 305.23L65.43 305.7M65.43 305.7L65.43 304.76M66.37 304.29L65.74 304.29M65.74 304.29L65.43 304.05M65.43 304.05L65.43 303.59M65.43 303.59L65.74 303.35M65.74 303.35L65.43 303.35M65.43 303.35L66.68 303.35M66.68 303.35L66.37 303.35M66.37 303.35L66.68 303.59M66.68 303.59L66.68 304.05M66.68 304.05L66.37 304.29"
fill="none" stroke="black" stroke-width="3"/>
</g>
<g><path d="M66.84 338.26L65.59 337.32M65.59 337.32L66.84 337.32M66.84 337.32L64.96 337.32M64.96 338.26L66.84 338.26M66.84 336.85L65.59 336.85M65.59 336.85L66.22 336.85M66.22 336.85L66.22 335.91M66.22 335.91L65.59 335.91M65.59 335.91L66.84 335.91M66.84 335.44L65.59 335.44M65.59 335.44L65.59 334.97M66.22 334.97L66.22 335.44M66.22 335.44L66.22 334.74M66.84 334.74L66.84 335.44M66.22 334.97L66.12 334.81M66.12 334.81L65.9 334.74M65.9 334.74L65.68 334.81M65.68 334.81L65.59 334.97M66.84 334.74L66.75 334.57M66.75 334.57L66.53 334.5M66.53 334.5L66.31 334.57M66.31 334.57L66.22 334.74M66.84 334.04L66.53 334.04M66.84 332.16L64.96 332.16M64.96 332.16L66.84 331.22M66.84 331.22L64.96 331.22M67.16 329.34L66.84 329.34M66.84 329.34L66.84 329.1M66.84 329.1L65.9 329.1M65.9 329.1L65.59 328.87M65.59 328.87L65.59 328.63M65.59 328.63L66.84 328.63M66.84 328.63L66.84 329.1M66.84 329.1L66.84 328.4M66.84 328.4L67.16 328.4M66.53 327.93L66.84 327.7M66.84 327.7L66.84 327.23M66.84 327.23L66.53 326.99M66.53 326.99L65.59 326.99M65.59 326.99L66.22 326.99M66.22 326.99L66.22 327.46M66.22 327.46L65.59 327.93M65.59 325.82L65.59 326.52M65.59 326.52L66.84 326.52M66.84 326.52L66.84 325.82M66.84 325.82L66.53 325.58M66.53 325.58L66.22 325.82M66.22 325.82L66.22 326.52M66.84 325.11L65.59 324.64M65.59 324.64L65.59 324.17M65.59 324.17L66.84 324.17M66.84 323.7L66.53 323.7"
fill="none" stroke="black" stroke-width="3"/>
</g>
<g><path d="M66.84 376.1L64.96 376.1M64.96 376.1L64.96 375.16M64.96 375.16L66.84 375.16M66.53 374.69L65.9 374.69M65.9 374.69L65.59 374.46M65.59 374.46L65.59 373.99M65.59 373.99L65.9 373.76M65.9 373.76L66.53 373.76M66.53 373.76L66.84 373.99M66.84 373.99L66.84 374.46M66.84 374.46L66.53 374.69M67.16 373.29L66.84 373.29M66.84 373.29L66.84 373.05M66.84 373.05L65.9 373.05M65.9 373.05L65.59 372.82M65.59 372.82L65.59 372.58M65.59 372.58L66.84 372.58M66.84 372.58L66.84 373.05M66.84 373.05L66.84 372.35M66.84 372.35L67.16 372.35M66.84 371.88L65.59 371.88M65.59 371.88L65.59 370.94M65.59 370.94L66.84 370.94M66.84 370.47L66.53 370.47M65.59 368.59L66.84 368.59M66.84 368.59L65.59 367.65M65.59 367.65L66.84 367.65M67.16 365.77L66.84 365.77M66.84 365.77L66.84 365.54M66.84 365.54L65.9 365.54M65.9 365.54L65.59 365.3M65.59 365.3L65.59 365.07M65.59 365.07L66.84 365.07M66.84 365.07L66.84 365.54M66.84 365.54L66.84 364.83M66.84 364.83L67.16 364.83M66.53 364.36L65.9 364.36M65.9 364.36L65.59 364.13M65.59 364.13L65.59 363.66M65.59 363.66L65.9 363.42M65.9 363.42L65.59 363.42M65.59 363.42L66.84 363.42M66.84 363.42L66.53 363.42M66.53 363.42L66.84 363.66M66.84 363.66L66.84 364.13M66.84 364.13L66.53 364.36M66.84 362.48L65.59 362.48M65.59 362.48L65.59 362.95M65.59 362.95L65.59 362.01M66.53 361.54L65.9 361.54M65.9 361.54L65.59 361.31M65.59 361.31L65.59 360.84M65.59 360.84L65.9 360.6M65.9 360.6L65.59 360.6M65.59 360.6L66.84 360.6M66.84 360.6L66.53 360.6M66.53 360.6L66.84 360.84M66.84 360.84L66.84 361.31M66.84 361.31L66.53 361.54"
fill="none" stroke="black" stroke-width="3"/>
</g>
<g><path d="M66.84 395.32L65.59 394.38M65.59 394.38L66.84 394.38M66.84 394.38L64.96 394.38M64.96 395.32L66.84 395.32M66.84 393.91L65.59 393.91M65.59 393.91L66.22 393.91M66.22 393.91L66.22 392.97M66.22 392.97L65.59 392.97M65.59 392.97L66.84 392.97M66.84 392.5L65.59 392.5M65.59 392.5L65.59 392.04M66.22 392.04L66.22 392.5M66.22 392.5L66.22 391.8M66.84 391.8L66.84 392.5M66.22 392.04L66.12 391.87M66.12 391.87L65.9 391.8M65.9 391.8L65.68 391.87M65.68 391.87L65.59 392.04M66.84 391.8L66.75 391.63M66.75 391.63L66.53 391.57M66.53 391.57L66.31 391.63M66.31 391.63L66.22 391.8M66.84 391.1L66.53 391.1M66.84 389.22L64.96 389.22M64.96 389.22L66.84 388.28M66.84 388.28L64.96 388.28M66.84 386.4L65.59 386.4M65.59 386.4L65.59 385.46M65.59 385.46L66.84 385.46M66.53 384.99L65.9 384.99M65.9 384.99L65.59 384.76M65.59 384.76L65.59 384.29M65.59 384.29L65.9 384.05M65.9 384.05L66.53 384.05M66.53 384.05L66.84 384.29M66.84 384.29L66.84 384.76M66.84 384.76L66.53 384.99M67.16 383.58L66.84 383.58M66.84 383.58L66.84 383.35M66.84 383.35L65.9 383.35M65.9 383.35L65.59 383.11M65.59 383.11L65.59 382.88M65.59 382.88L66.84 382.88M66.84 382.88L66.84 383.35M66.84 383.35L66.84 382.64M66.84 382.64L67.16 382.64M66.84 382.17L65.59 381.7M65.59 381.7L65.59 381.23M65.59 381.23L66.84 381.23M66.84 380.76L66.53 380.76"
fill="none" stroke="black" stroke-width="3"/>
</g>
<g><path d="M338.98 395.86L338.18 395.86M338.18 395.46L338.58 395.76M338.58 395.76L338.58 395.86M338.58 395.76L338.98 395.46M338.98 395.26L338.18 395.26M338.18 395.26L338.18 394.86M338.18 394.86L338.98 394.86M338.98 394.86L338.98 395.26M338.98 394.66L338.18 394.66M338.18 394.66L338.98 394.25M338.98 394.25L338.18 394.25M338.85 394.05L338.98 393.95M338.98 393.95L338.98 393.75M338.98 393.75L338.85 393.65M338.85 393.65L338.31 394.05M338.31 394.05L338.18 393.95M338.18 393.95L338.18 393.75M338.18 393.75L338.31 393.65M338.98 393.45L338.18 393.45M338.18 393.45L338.18 393.05M338.58 393.45L338.58 393.25M338.98 393.45L338.98 393.05M338.98 392.84L338.18 392.44M338.18 392.84L338.98 392.44M338.98 392.24L338.18 392.24M338.18 392.24L338.18 391.94M338.18 391.94L338.31 391.84M338.31 391.84L338.45 391.84M338.45 391.84L338.58 391.94M338.58 391.94L338.58 392.24M338.98 391.64L338.18 391.64M338.18 391.64L338.18 391.23M338.58 391.64L338.58 391.44M338.98 391.64L338.98 391.23M338.98 391.03L338.18 391.03M338.18 391.03L338.18 390.73M338.18 390.73L338.31 390.63M338.31 390.63L338.45 390.63M338.45 390.63L338.58 390.73M338.58 390.73L338.58 391.03M338.58 390.93L338.98 390.63M338.18 390.43L338.18 390.03M338.18 390.23L338.98 390.23M338.71 388.82L338.98 389.02M338.98 389.02L338.98 389.12M338.98 389.12L338.85 389.22M338.85 389.22L338.71 389.22M338.71 389.22L338.45 389.02M338.45 389.02L338.31 389.02M338.31 389.02L338.18 389.12M338.18 389.12L338.31 389.22M338.31 389.22L338.45 389.22M338.45 389.22L338.98 388.82M338.98 388.01L338.18 388.01M338.18 388.01L338.18 387.71M338.18 387.71L338.31 387.61M338.31 387.61L338.45 387.61M338.45 387.61L338.58 387.71M338.58 387.71L338.58 388.01M338.58 387.91L338.98 387.61M338.18 387.41L338.18 387.21M338.18 387.31L338.98 387.31M338.98 387.41L338.98 387.21M338.98 387.01L338.98 386.71M338.98 386.71L338.85 386.61M338.85 386.61L338.71 386.61M338.71 386.61L338.58 386.71M338.58 386.71L338.58 386.91M338.58 386.71L338.45 386.61M338.45 386.61L338.31 386.61M338.31 386.61L338.18 386.71M338.18 386.71L338.18 387.01M338.18 386.91L338.98 386.91M338.98 386.4L338.98 386.1M338.98 386.1L338.85 386M338.85 386L338.71 386M338.71 386L338.58 386.1M338.58 386.1L338.58 386.3M338.58 386.1L338.45 386M338.45 386L338.31 386M338.31 386L338.18 386.1M338.18 386.1L338.18 386.4M338.18 386.3L338.98 386.3M338.98 385.8L338.18 385.8M338.18 385.8L338.18 385.4M338.18 385.4L338.98 385.4M338.98 385.4L338.98 385.8M338.98 385.2L338.18 385.2M338.18 385.2L338.98 384.79M338.98 384.79L338.18 384.79M338.85 384.59L338.98 384.49M338.98 384.49L338.98 384.29M338.98 384.29L338.85 384.19M338.85 384.19L338.31 384.59M338.31 384.59L338.18 384.49M338.18 384.49L338.18 384.29M338.18 384.29L338.31 384.19M338.98 383.99L338.18 383.99M338.18 383.99L338.18 383.59M338.18 383.59L338.98 383.59M338.98 383.59L338.98 383.99M338.98 383.38L338.18 383.38M338.18 383.38L338.18 382.98M338.58 383.38L338.58 383.18M338.18 382.78L338.18 382.38M338.18 382.58L338.98 382.58"
fill="none" stroke="black" stroke-width="3"/>
</g>
<g><path d="M340.2 394.49L339.39 394.49M339.39 394.49L339.39 394.08M339.39 394.08L340.2 394.08M340.2 394.08L340.2 394.49M340.2 393.88L339.39 393.88M339.39 393.88L339.39 393.58M339.39 393.58L339.53 393.48M339.53 393.48L339.66 393.48M339.66 393.48L339.8 393.58M339.8 393.58L339.8 393.88M340.2 393.28L339.39 393.28M339.39 393.28L339.39 392.88M339.8 393.28L339.8 393.08M340.2 393.28L340.2 392.88M340.2 392.68L339.39 392.68M339.39 392.68L340.2 392.27M340.2 392.27L339.39 392.27M340.06 391.47L340.2 391.37M340.2 391.37L340.2 391.17M340.2 391.17L340.06 391.06M340.06 391.06L339.53 391.47M339.53 391.47L339.39 391.37M339.39 391.37L339.39 391.17M339.39 391.17L339.53 391.06M340.2 390.86L339.39 390.86M339.39 390.86L339.39 390.46M339.39 390.46L340.2 390.46M340.2 390.46L340.2 390.86M339.39 390.26L340.06 390.26M340.06 390.26L340.2 390.16M340.2 390.16L340.2 389.96M340.2 389.96L340.06 389.86M340.06 389.86L339.39 389.86M340.2 389.66L339.39 389.66M339.39 389.66L339.39 389.35M339.39 389.35L339.53 389.25M339.53 389.25L339.66 389.25M339.66 389.25L339.8 389.35M339.8 389.35L339.8 389.66M339.8 389.56L340.2 389.25M340.06 388.65L340.2 388.75M340.2 388.75L340.2 388.95M340.2 388.95L340.06 389.05M340.06 389.05L339.53 389.05M339.53 389.05L339.39 388.95M339.39 388.95L339.39 388.75M339.39 388.75L339.53 388.65M340.2 388.45L339.39 388.45M339.39 388.45L339.39 388.05M339.8 388.45L339.8 388.25M340.2 388.45L340.2 388.05M340.2 387.24L339.39 387.24M339.39 387.24L339.39 386.94M339.39 386.94L339.53 386.84M339.53 386.84L339.66 386.84M339.66 386.84L339.8 386.94M339.8 386.94L339.8 387.24M339.8 387.14L340.2 386.84M340.2 386.64L339.39 386.64M339.39 386.64L339.39 386.23M339.8 386.64L339.8 386.44M340.2 386.64L340.2 386.23M339.39 386.03L340.2 386.03M340.2 386.03L340.2 385.63M340.2 385.43L339.39 385.43M339.39 385.43L339.39 385.03M339.8 385.43L339.8 385.23M340.2 385.43L340.2 385.03M340.2 384.83L339.93 384.83M339.93 384.83L339.39 384.62M339.39 384.62L339.93 384.42M339.93 384.42L340.2 384.42M339.93 384.83L339.93 384.42M340.06 384.22L340.2 384.12M340.2 384.12L340.2 383.92M340.2 383.92L340.06 383.82M340.06 383.82L339.53 384.22M339.53 384.22L339.39 384.12M339.39 384.12L339.39 383.92M339.39 383.92L339.53 383.82M340.2 383.62L339.39 383.62M339.39 383.62L339.39 383.21M339.8 383.62L339.8 383.42M340.2 383.62L340.2 383.21"
fill="none" stroke="black" stroke-width="3"/>
</g>
<g><path d="M213.42 389.2L257.03 389.2"
fill="none" stroke="black" stroke-width=".5"/>
</g>
<g><path d="M330.83 395.91L330.83 385.85"
fill="none" stroke="black" stroke-width="9"/>
</g>
<g><path d="M213.42 385.85L337.54 385.85"
fill="none" stroke="black" stroke-width="9"/>
</g>
<g><path d="M218.12 395.91L218.12 385.85"
fill="none" stroke="black" stroke-width="9"/>
</g>
<g><path d="M224.82 395.91L224.82 385.85"
fill="none" stroke="black" stroke-width="9"/>
</g>
<g><path d="M240.26 395.91L240.26 385.85"
fill="none" stroke="black" stroke-width="9"/>
</g>
<g><path d="M250.32 395.91L250.32 385.85"
fill="none" stroke="black" stroke-width="9"/>
</g>
<g><path d="M213.42 392.56L257.03 392.56"
fill="none" stroke="black" stroke-width="9"/>
</g>
<g><path d="M257.03 395.91L257.03 385.85"
fill="none" stroke="black" stroke-width="9"/>
</g>
<g><path d="M330.83 390.88L337.54 390.88"
fill="none" stroke="black" stroke-width="9"/>
</g>
<g><path d="M213.42 395.91L213.42 385.85"
fill="none" stroke="black" stroke-width="9"/>
</g>
<g><path d="M213.7 395.33L214.57 394.17M214.57 394.17L214.57 395.33M214.57 395.33L214.57 393.59M213.7 393.59L213.7 395.33M215.01 394.46L215.23 394.17M215.23 394.17L215.66 394.17M215.66 394.17L215.88 394.46M215.88 394.46L215.66 394.75M215.66 394.75L215.45 394.75M215.45 394.75L215.66 394.75M215.66 394.75L215.88 395.04M215.88 395.04L215.66 395.33M215.66 395.33L215.23 395.33M215.23 395.33L215.01 395.04M216.32 395.33L216.32 394.17M216.32 394.17L216.75 394.75M216.75 394.75L217.19 394.17M217.19 394.17L217.19 395.33M217.63 395.33L217.63 395.04"
fill="none" stroke="black" stroke-width="3"/>
</g>
<g><path d="M218.6 395.32L218.81 395.32M218.81 395.32L219.47 393.57M219.47 393.57L219.69 393.57M219.69 393.57L219.69 395.32M220.12 394.15L220.12 395.32M220.12 395.32L220.99 394.15M220.99 394.15L220.99 395.32M222.3 395.02L222.08 395.32M222.08 395.32L221.65 395.32M221.65 395.32L221.43 395.02M221.43 395.02L221.43 394.44M221.43 394.44L221.65 394.15M221.65 394.15L222.08 394.15M222.08 394.15L222.3 394.44M223.17 395.32L223.17 394.15M223.17 394.15L222.74 394.15M222.74 394.15L223.61 394.15M224.05 395.32L224.05 395.02"
fill="none" stroke="black" stroke-width="3"/>
</g>
<g><path d="M227.36 395.19L227.36 393.45M227.36 393.45L228.23 395.19M228.23 395.19L228.23 393.45M229.97 395.48L229.97 395.19M229.97 395.19L230.19 395.19M230.19 395.19L230.19 394.32M230.19 394.32L230.41 394.03M230.41 394.03L230.63 394.03M230.63 394.03L230.63 395.19M230.63 395.19L230.19 395.19M230.19 395.19L230.85 395.19M230.85 395.19L230.85 395.48M231.28 394.9L231.28 394.32M231.28 394.32L231.5 394.03M231.5 394.03L231.94 394.03M231.94 394.03L232.15 394.32M232.15 394.32L232.15 394.9M232.15 394.9L231.94 395.19M231.94 395.19L231.5 395.19M231.5 395.19L231.28 394.9M232.59 395.19L232.59 394.03M232.59 394.03L232.59 394.61M232.59 394.61L233.03 394.61M233.03 394.61L233.46 394.03M233.46 394.03L233.03 394.61M233.03 394.61L233.46 395.19M233.9 394.9L234.12 395.19M234.12 395.19L234.55 395.19M234.55 395.19L234.77 394.9M234.77 394.9L234.77 394.03M234.77 394.03L234.77 394.61M234.77 394.61L234.33 394.61M234.33 394.61L233.9 394.03M235.21 395.19L235.21 394.03M235.21 394.03L235.64 394.61M235.64 394.61L236.08 394.03M236.08 394.03L236.08 395.19M236.52 395.19L236.52 394.9"
fill="none" stroke="black" stroke-width="3"/>
</g>
<g><path d="M242.52 395L242.52 393.25M242.52 393.25L243.39 393.25M243.39 393.25L243.39 395M243.83 394.71L243.83 394.13M243.83 394.13L244.05 393.84M244.05 393.84L244.48 393.84M244.48 393.84L244.7 394.13M244.7 394.13L244.7 394.71M244.7 394.71L244.48 395M244.48 395L244.05 395M244.05 395L243.83 394.71M245.14 395.29L245.14 395M245.14 395L245.35 395M245.35 395L245.35 394.13M245.35 394.13L245.57 393.84M245.57 393.84L245.79 393.84M245.79 393.84L245.79 395M245.79 395L245.35 395M245.35 395L246.01 395M246.01 395L246.01 395.29M246.44 395L246.44 393.84M246.44 393.84L247.32 393.84M247.32 393.84L247.32 395M247.75 395L247.75 394.71"
fill="none" stroke="black" stroke-width="3"/>
</g>
<g><path d="M250.69 395.28L250.69 395M250.69 395L251.74 395M251.74 395L251.74 393.32M251.74 393.32L251.32 393.32M251.32 393.32L250.9 394.44M250.9 394.44L250.9 395M250.9 395L251.95 395M251.95 395L251.95 395.28M252.37 394.72L252.37 394.16M252.37 394.16L252.58 393.88M252.58 393.88L253 393.88M253 393.88L253.21 394.16M253.21 394.16L253.21 393.88M253.21 393.88L253.21 395M253.21 395L253.21 394.72M253.21 394.72L253 395M253 395L252.58 395M252.58 395L252.37 394.72M254.05 395L254.05 393.88M254.05 393.88L253.63 393.88M253.63 393.88L254.47 393.88M254.88 394.72L254.88 394.16M254.88 394.16L255.09 393.88M255.09 393.88L255.51 393.88M255.51 393.88L255.72 394.16M255.72 394.16L255.72 393.88M255.72 393.88L255.72 395M255.72 395L255.72 394.72M255.72 394.72L255.51 395M255.51 395L255.09 395M255.09 395L254.88 394.72"
fill="none" stroke="black" stroke-width="3"/>
</g>
<g><path d="M271.55 393.86L273.9 393.86"
fill="none" stroke="black" stroke-width="3"/>
</g>
<g><path d="M331.61 389.44L331.82 389.44M331.82 389.44L332.45 387.76M332.45 387.76L332.66 387.76M332.66 387.76L332.66 389.44M333.08 388.32L333.08 389.44M333.08 389.44L333.91 388.32M333.91 388.32L333.91 389.44M335.17 389.16L334.96 389.44M334.96 389.44L334.54 389.44M334.54 389.44L334.33 389.16M334.33 389.16L334.33 388.6M334.33 388.6L334.54 388.32M334.54 388.32L334.96 388.32M334.96 388.32L335.17 388.6M336.01 389.44L336.01 388.32M336.01 388.32L335.59 388.32M335.59 388.32L336.43 388.32"
fill="none" stroke="black" stroke-width="3"/>
</g>
<g><path d="M333.52 395.32L335.19 395.32"
fill="none" stroke="black" stroke-width="3"/>
</g>
<g><path d="M117.48 6.23L115.81 6.23"
fill="none" stroke="black" stroke-width="3"/>
</g>
<g><path d="M308.32 398.26L308.32 396.38M308.32 396.38L308.08 396.38M308.08 396.38L307.85 396.69M307.85 396.69L307.85 397.32M307.85 397.32L308.08 397.63M308.08 397.63L308.55 397.63M308.55 397.63L308.79 397.32M308.79 397.32L308.79 396.69M308.79 396.69L308.55 396.38M308.55 396.38L308.32 396.38M309.26 397.95L309.26 397.32M309.26 397.32L309.49 397.01M309.49 397.01L309.96 397.01M309.96 397.01L310.2 397.32M310.2 397.32L310.2 397.95M310.2 397.95L309.96 398.26M309.96 398.26L309.49 398.26M309.49 398.26L309.26 397.95M310.67 398.26L310.67 397.01M310.67 397.01L311.37 397.01M311.37 397.01L311.61 397.32M311.61 397.32L311.61 397.63M311.61 397.63L311.37 397.95M311.37 397.95L310.67 397.95M312.08 398.26L312.08 397.01M312.08 397.01L312.55 397.63M312.55 397.63L313.02 397.01M313.02 397.01L313.02 398.26M313.49 397.95L313.49 397.32M313.49 397.32L313.72 397.01M313.72 397.01L314.19 397.01M314.19 397.01L314.42 397.32M314.42 397.32L314.42 397.01M314.42 397.01L314.42 398.26M314.42 398.26L314.42 397.95M314.42 397.95L314.19 398.26M314.19 398.26L313.72 398.26M313.72 398.26L313.49 397.95M315.36 398.26L315.36 397.01M315.36 397.01L314.89 397.01M314.89 397.01L315.83 397.01M317.71 398.26L317.71 397.63M317.71 397.63L318.18 396.38M318.18 396.38L318.65 397.63M318.65 397.63L318.65 398.26M317.71 397.63L318.65 397.63M319.12 396.69L319.36 396.38M319.36 396.38L319.83 396.38M319.83 396.38L320.06 396.69M320.06 396.69L320.06 397.01M320.06 397.01L319.83 397.32M319.83 397.32L319.36 397.32M319.36 397.32L319.12 397.63M319.12 397.63L319.12 398.26M319.12 398.26L320.06 398.26M321.94 398.26L321.94 396.38M321.94 396.38L322.88 396.38M322.88 396.38L322.88 396.69M323.35 397.95L323.35 396.69M323.35 396.69L323.58 396.38M323.58 396.38L324.05 396.38M324.05 396.38L324.29 396.69M324.29 396.69L324.29 397.95M324.29 397.95L324.05 398.26M324.05 398.26L323.58 398.26M323.58 398.26L323.35 397.95M325.7 397.95L325.46 398.26M325.46 398.26L324.99 398.26M324.99 398.26L324.76 397.95M324.76 397.95L324.76 396.69M324.76 396.69L324.99 396.38M324.99 396.38L325.46 396.38M325.46 396.38L325.7 396.69M326.17 396.38L327.11 396.38M326.64 396.38L326.64 398.26M328.98 396.69L329.22 396.38M329.22 396.38L329.69 396.38M329.69 396.38L329.92 396.69M329.92 396.69L329.92 397.01M329.92 397.01L329.69 397.32M329.69 397.32L329.22 397.32M329.22 397.32L328.98 397.63M328.98 397.63L328.98 398.26M328.98 398.26L329.92 398.26M330.39 398.26L330.39 397.95M330.86 396.69L331.1 396.38M331.1 396.38L331.57 396.38M331.57 396.38L331.8 396.69M331.8 396.69L331.8 397.01M331.8 397.01L331.57 397.32M331.57 397.32L331.33 397.32M331.57 397.32L331.8 397.63M331.8 397.63L331.8 397.95M331.8 397.95L331.57 398.26M331.57 398.26L331.1 398.26M331.1 398.26L330.86 397.95M332.51 398.26L332.27 397.95M332.27 397.95L332.27 396.69M332.27 396.69L332.51 396.38M332.51 396.38L332.74 396.38M332.74 396.38L332.98 396.69M332.98 396.69L332.98 397.95M332.98 397.95L332.74 398.26M332.74 398.26L332.51 398.26M333.45 396.69L333.68 396.38M333.68 396.38L333.68 398.26M333.45 398.26L333.92 398.26"
fill="none" stroke="black" stroke-width="3"/>
</g>
<g><path d="M64.79 290.63L64.79 289.74M64.79 289.74L65.46 287.95M65.46 287.95L66.13 289.74M66.13 289.74L66.13 290.63M64.79 289.74L66.13 289.74"
fill="none" stroke="black" stroke-width="3"/>
</g>
<g><path d="M64.79 97.67L65.8 97.67M65.8 97.67L66.13 97.22M66.13 97.22L66.13 96.77M66.13 96.77L65.8 96.33M65.8 96.33L65.13 96.33M65.8 96.33L66.13 95.88M66.13 95.88L66.13 95.43M66.13 95.43L65.8 94.98M65.8 94.98L64.79 94.98M65.13 94.98L65.13 97.67"
fill="none" stroke="black" stroke-width="3"/>
</g>
<g><path d="M270.06 1.8L270.31 1.47M270.31 1.47L270.31 3.48M270.06 3.48L270.56 3.48"
fill="none" stroke="black" stroke-width="3"/>
</g>
<g><path d="M129.16 1.8L129.42 1.47M129.42 1.47L129.92 1.47M129.92 1.47L130.17 1.8M130.17 1.8L130.17 2.14M130.17 2.14L129.92 2.47M129.92 2.47L129.42 2.47M129.42 2.47L129.16 2.81M129.16 2.81L129.16 3.48M129.16 3.48L130.17 3.48"
fill="none" stroke="black" stroke-width="3"/>
</g>
<g><path d="M129.16 396.93L129.42 396.59M129.42 396.59L129.92 396.59M129.92 396.59L130.17 396.93M130.17 396.93L130.17 397.26M130.17 397.26L129.92 397.6M129.92 397.6L129.42 397.6M129.42 397.6L129.16 397.93M129.16 397.93L129.16 398.6M129.16 398.6L130.17 398.6"
fill="none" stroke="black" stroke-width="3"/>
</g>
<g><path d="M270.06 396.93L270.31 396.59M270.31 396.59L270.31 398.6M270.06 398.6L270.56 398.6"
fill="none" stroke="black" stroke-width="3"/>
</g>
<g><path d="M338.51 290.63L338.51 289.74M338.51 289.74L339.18 287.95M339.18 287.95L339.85 289.74M339.85 289.74L339.85 290.63M338.51 289.74L339.85 289.74"
fill="none" stroke="black" stroke-width="3"/>
</g>
<g><path d="M338.51 97.67L339.52 97.67M339.52 97.67L339.85 97.22M339.85 97.22L339.85 96.77M339.85 96.77L339.52 96.33M339.52 96.33L338.85 96.33M339.52 96.33L339.85 95.88M339.85 95.88L339.85 95.43M339.85 95.43L339.52 94.98M339.52 94.98L338.51 94.98M338.85 94.98L338.85 97.67"
fill="none" stroke="black" stroke-width="3"/>
</g>
<g><path d="M67.17 354.71L67.17 354M67.17 354L66.86 353.77M66.86 353.77L66.55 353.77M66.55 353.77L66.23 354M66.23 354L66.23 354.47M66.23 354L65.92 353.77M65.92 353.77L65.61 353.77M65.61 353.77L65.3 354M65.3 354L65.3 354.71M65.3 354.47L67.17 354.47M66.23 353.3L65.92 353.06M65.92 353.06L65.92 352.59M65.92 352.59L66.23 352.36M66.23 352.36L66.55 352.59M66.55 352.59L66.55 352.83M66.55 352.83L66.55 352.59M66.55 352.59L66.86 352.36M66.86 352.36L67.17 352.59M67.17 352.59L67.17 353.06M67.17 353.06L66.86 353.3M66.86 351.89L66.23 351.89M66.23 351.89L65.92 351.65M65.92 351.65L65.92 351.19M65.92 351.19L66.23 350.95M66.23 350.95L65.92 350.95M65.92 350.95L67.17 350.95M67.17 350.95L66.86 350.95M66.86 350.95L67.17 351.19M67.17 351.19L67.17 351.65M67.17 351.65L66.86 351.89M67.17 350.48L65.92 350.48M65.92 350.48L66.55 350.01M66.55 350.01L65.92 349.54M65.92 349.54L67.17 349.54M67.17 349.07L66.86 349.07M65.92 347.19L67.17 347.19M67.17 347.19L65.92 346.25M65.92 346.25L67.17 346.25M67.17 345.78L65.92 345.78M65.92 345.78L66.55 345.78M66.55 345.78L66.55 344.84M66.55 344.84L65.92 344.84M65.92 344.84L67.17 344.84M67.17 344.38L65.92 344.38M65.92 344.38L65.92 343.91M66.55 343.91L66.55 344.38M66.55 344.38L66.55 343.67M67.17 343.67L67.17 344.38M66.55 343.91L66.46 343.74M66.46 343.74L66.23 343.67M66.23 343.67L66.01 343.74M66.01 343.74L65.92 343.91M67.17 343.67L67.08 343.5M67.08 343.5L66.86 343.44M66.86 343.44L66.64 343.5M66.64 343.5L66.55 343.67M67.17 342.97L66.86 342.97M67.17 342.5L65.3 342.5M65.3 342.5L67.17 341.56M67.17 341.56L65.3 341.56"
fill="none" stroke="black" stroke-width="3"/>
</g>
</g>
</svg>
