<?xml version="1.0" standalone="no"?><svg xmlns="http://www.w3.org/2000/svg" width="400.000" height="400.000" viewBox="0.0 0.0 400.000 400.000" version="1.1">
  <title>Produce by Acme CAD Converter</title>
  <desc>Produce by Acme CAD Converter</desc>
<g id="0" display="visible">
<g><path d="M218.98 63.83L394.52 63.83"
fill="none" stroke="black" stroke-width="9"/>
</g>
<g><path d="M394.52 336.17L218.98 336.17"
fill="none" stroke="black" stroke-width="9"/>
</g>
<g><path d="M394.52 63.83L394.52 336.17"
fill="none" stroke="black" stroke-width="9"/>
</g>
<g><path d="M399.27 59.09L399.27 340.91"
fill="none" stroke="black" stroke-width="3"/>
</g>
<g><path d="M19.71 177.7L8.32 177.7"
fill="none" stroke="black" stroke-width="9"/>
</g>
<g><path d="M19.71 120.77L8.32 120.77"
fill="none" stroke="black" stroke-width="9"/>
</g>
<g><path d="M19.71 198.58L8.32 198.58"
fill="none" stroke="black" stroke-width="9"/>
</g>
<g><path d="M8.32 336.17L8.32 198.58"
fill="none" stroke="black" stroke-width="9"/>
</g>
<g><path d="M19.71 231.79L8.32 231.79"
fill="none" stroke="black" stroke-width="9"/>
</g>
<g><path d="M19.71 255.51L8.32 255.51"
fill="none" stroke="black" stroke-width="9"/>
</g>
<g><path d="M19.71 279.23L8.32 279.23"
fill="none" stroke="black" stroke-width="9"/>
</g>
<g><path d="M19.71 312.44L8.32 312.44"
fill="none" stroke="black" stroke-width="9"/>
</g>
<g><path d="M13.07 336.17L13.07 198.58"
fill="none" stroke="black" stroke-width="3"/>
</g>
<g><path d="M13.07 177.7L13.07 63.83"
fill="none" stroke="black" stroke-width="3"/>
</g>
<g><path d="M19.71 336.17L19.71 63.83"
fill="none" stroke="black" stroke-width="9"/>
</g>
<g><path d="M8.32 177.7L8.32 63.83"
fill="none" stroke="black" stroke-width="9"/>
</g>
<g><path d="M19.71 77.12L86.13 77.12"
fill="none" stroke="black" stroke-width="9"/>
</g>
<g><path d="M86.13 77.12L86.13 63.83"
fill="none" stroke="black" stroke-width="9"/>
</g>
<g><path d="M0.73 59.09L399.27 59.09"
fill="none" stroke="black" stroke-width="3"/>
</g>
<g><path d="M0.73 340.91L0.73 59.09"
fill="none" stroke="black" stroke-width="3"/>
</g>
<g><path d="M218.98 63.83L8.32 63.83"
fill="none" stroke="black" stroke-width="9"/>
</g>
<g><path d="M399.27 340.91L0.73 340.91"
fill="none" stroke="black" stroke-width="3"/>
</g>
<g><path d="M218.98 336.17L8.32 336.17"
fill="none" stroke="black" stroke-width="9"/>
</g>
<g><path d="M366.43 71.86L367.02 71.07M367.02 71.07L368.2 71.07M368.2 71.07L368.8 71.86M368.8 71.86L368.8 72.65M368.8 72.65L368.2 73.45M368.2 73.45L367.61 73.45M368.2 73.45L368.8 74.24M368.8 74.24L368.8 75.03M368.8 75.03L368.2 75.82M368.2 75.82L367.02 75.82M367.02 75.82L366.43 75.03M370.58 75.03L370.58 75.82M370.58 75.82L369.98 76.61M371.76 71.86L372.36 71.07M372.36 71.07L373.54 71.07M373.54 71.07L374.14 71.86M374.14 71.86L374.14 72.65M374.14 72.65L373.54 73.45M373.54 73.45L372.36 73.45M372.36 73.45L371.76 74.24M371.76 74.24L371.76 75.82M371.76 75.82L374.14 75.82"
fill="none" stroke="black" stroke-width="3"/>
</g>
<g><path d="M376.93 77.22L376.25 79.75M376.25 79.75L376.93 82.28"
fill="none" stroke="black" stroke-width="3"/>
</g>
<g><path d="M371.63 82.26L375.43 75.68"
fill="none" stroke="black" stroke-width="3"/>
</g>
<g><path d="M383.89 82.28L384.57 79.75M384.57 79.75L383.89 77.22"
fill="none" stroke="black" stroke-width="3"/>
</g>
<g><path d="M380.24 82.26L384.04 75.68"
fill="none" stroke="black" stroke-width="3"/>
</g>
<g><path d="M380.24 82.26L377.87 78.15"
fill="none" stroke="black" stroke-width="3"/>
</g>
<g><path d="M371.63 82.26L369.26 78.15"
fill="none" stroke="black" stroke-width="3"/>
</g>
<g><path d="M200 59.09L200 59.09"
fill="none" stroke="black" stroke-width="3"/>
</g>
<g><path d="M200 340.91L200 336.17"
fill="none" stroke="black" stroke-width="3"/>
</g>
<g><path d="M200 63.83L200 59.09"
fill="none" stroke="black" stroke-width="3"/>
</g>
<g><path d="M297.74 339.49L297.74 336.83M299.06 336.83L298.07 338.16M298.07 338.16L297.74 338.16M298.07 338.16L299.06 339.49M299.73 339.04L299.73 338.16M299.73 338.16L300.06 337.72M300.06 337.72L300.72 337.72M300.72 337.72L301.06 338.16M301.06 338.16L301.06 339.04M301.06 339.04L300.72 339.49M300.72 339.49L300.06 339.49M300.06 339.49L299.73 339.04M301.72 339.49L301.72 337.72M301.72 337.72L303.05 337.72M303.05 337.72L303.05 339.49M303.71 337.72L303.71 339.49M303.71 339.49L305.04 337.72M305.04 337.72L305.04 339.49M305.71 339.49L305.71 337.72M305.71 337.72L306.7 337.72M306.7 337.72L307.03 338.16M307.03 338.16L307.03 338.6M307.03 338.6L306.7 339.04M306.7 339.04L305.71 339.04M307.7 339.04L307.7 338.16M307.7 338.16L308.03 337.72M308.03 337.72L308.7 337.72M308.7 337.72L309.03 338.16M309.03 338.16L309.03 339.04M309.03 339.04L308.7 339.49M308.7 339.49L308.03 339.49M308.03 339.49L307.7 339.04M309.69 339.49L309.69 337.72M309.69 337.72L310.36 337.72M310.36 338.6L309.69 338.6M309.69 338.6L310.69 338.6M310.69 339.49L309.69 339.49M310.36 338.6L310.59 338.47M310.59 338.47L310.69 338.16M310.69 338.16L310.59 337.85M310.59 337.85L310.36 337.72M310.69 339.49L310.92 339.36M310.92 339.36L311.02 339.04M311.02 339.04L310.92 338.73M310.92 338.73L310.69 338.6M311.68 339.04L311.68 338.16M311.68 338.16L312.02 337.72M312.02 337.72L312.68 337.72M312.68 337.72L313.01 338.16M313.01 338.16L313.01 337.72M313.01 337.72L313.01 339.49M313.01 339.49L313.01 339.04M313.01 339.04L312.68 339.49M312.68 339.49L312.02 339.49M312.02 339.49L311.68 339.04M313.68 339.49L314.34 337.72M314.34 337.72L315.01 337.72M315.01 337.72L315.01 339.49"
fill="none" stroke="black" stroke-width="3"/>
</g>
<g><path d="M396.56 336.1L395.42 336.1M395.42 335.53L395.99 335.96M395.99 335.96L395.99 336.1M395.99 335.96L396.56 335.53M396.56 335.24L395.42 335.24M395.42 335.24L395.42 334.67M395.42 334.67L396.56 334.67M396.56 334.67L396.56 335.24M396.56 334.39L395.42 334.39M395.42 334.39L396.56 333.82M396.56 333.82L395.42 333.82M396.37 333.54L396.56 333.39M396.56 333.39L396.56 333.11M396.56 333.11L396.37 332.97M396.37 332.97L395.61 333.54M395.61 333.54L395.42 333.39M395.42 333.39L395.42 333.11M395.42 333.11L395.61 332.97M396.56 332.68L395.42 332.68M395.42 332.68L395.42 332.11M395.99 332.68L395.99 332.4M396.56 332.68L396.56 332.11M396.56 331.83L395.42 331.26M395.42 331.83L396.56 331.26M396.56 330.97L395.42 330.97M395.42 330.97L395.42 330.55M395.42 330.55L395.61 330.4M395.61 330.4L395.8 330.4M395.8 330.4L395.99 330.55M395.99 330.55L395.99 330.97M396.56 330.12L395.42 330.12M395.42 330.12L395.42 329.55M395.99 330.12L395.99 329.83M396.56 330.12L396.56 329.55M396.56 329.27L395.42 329.27M395.42 329.27L395.42 328.84M395.42 328.84L395.61 328.7M395.61 328.7L395.8 328.7M395.8 328.7L395.99 328.84M395.99 328.84L395.99 329.27M395.99 329.12L396.56 328.7M395.42 328.41L395.42 327.84M395.42 328.13L396.56 328.13M396.18 326.13L396.56 326.42M396.56 326.42L396.56 326.56M396.56 326.56L396.37 326.7M396.37 326.7L396.18 326.7M396.18 326.7L395.8 326.42M395.8 326.42L395.61 326.42M395.61 326.42L395.42 326.56M395.42 326.56L395.61 326.7M395.61 326.7L395.8 326.7M395.8 326.7L396.56 326.13M396.56 325L395.42 325M395.42 325L395.42 324.57M395.42 324.57L395.61 324.43M395.61 324.43L395.8 324.43M395.8 324.43L395.99 324.57M395.99 324.57L395.99 325M395.99 324.85L396.56 324.43M395.42 324.14L395.42 323.86M395.42 324L396.56 324M396.56 324.14L396.56 323.86M396.56 323.57L396.56 323.15M396.56 323.15L396.37 323M396.37 323L396.18 323M396.18 323L395.99 323.15M395.99 323.15L395.99 323.43M395.99 323.15L395.8 323M395.8 323L395.61 323M395.61 323L395.42 323.15M395.42 323.15L395.42 323.57M395.42 323.43L396.56 323.43M396.56 322.72L396.56 322.29M396.56 322.29L396.37 322.15M396.37 322.15L396.18 322.15M396.18 322.15L395.99 322.29M395.99 322.29L395.99 322.58M395.99 322.29L395.8 322.15M395.8 322.15L395.61 322.15M395.61 322.15L395.42 322.29M395.42 322.29L395.42 322.72M395.42 322.58L396.56 322.58M396.56 321.86L395.42 321.86M395.42 321.86L395.42 321.29M395.42 321.29L396.56 321.29M396.56 321.29L396.56 321.86M396.56 321.01L395.42 321.01M395.42 321.01L396.56 320.44M396.56 320.44L395.42 320.44M396.37 320.16L396.56 320.01M396.56 320.01L396.56 319.73M396.56 319.73L396.37 319.59M396.37 319.59L395.61 320.16M395.61 320.16L395.42 320.01M395.42 320.01L395.42 319.73M395.42 319.73L395.61 319.59M396.56 319.3L395.42 319.3M395.42 319.3L395.42 318.73M395.42 318.73L396.56 318.73M396.56 318.73L396.56 319.3M396.56 318.45L395.42 318.45M395.42 318.45L395.42 317.88M395.99 318.45L395.99 318.16M395.42 317.59L395.42 317.02M395.42 317.31L396.56 317.31"
fill="none" stroke="black" stroke-width="3"/>
</g>
<g><path d="M398.28 334.15L397.14 334.15M397.14 334.15L397.14 333.58M397.14 333.58L398.28 333.58M398.28 333.58L398.28 334.15M398.28 333.3L397.14 333.3M397.14 333.3L397.14 332.87M397.14 332.87L397.33 332.73M397.33 332.73L397.52 332.73M397.52 332.73L397.71 332.87M397.71 332.87L397.71 333.3M398.28 332.44L397.14 332.44M397.14 332.44L397.14 331.87M397.71 332.44L397.71 332.16M398.28 332.44L398.28 331.87M398.28 331.59L397.14 331.59M397.14 331.59L398.28 331.02M398.28 331.02L397.14 331.02M398.09 329.88L398.28 329.74M398.28 329.74L398.28 329.45M398.28 329.45L398.09 329.31M398.09 329.31L397.33 329.88M397.33 329.88L397.14 329.74M397.14 329.74L397.14 329.45M397.14 329.45L397.33 329.31M398.28 329.03L397.14 329.03M397.14 329.03L397.14 328.46M397.14 328.46L398.28 328.46M398.28 328.46L398.28 329.03M397.14 328.17L398.09 328.17M398.09 328.17L398.28 328.03M398.28 328.03L398.28 327.74M398.28 327.74L398.09 327.6M398.09 327.6L397.14 327.6M398.28 327.32L397.14 327.32M397.14 327.32L397.14 326.89M397.14 326.89L397.33 326.75M397.33 326.75L397.52 326.75M397.52 326.75L397.71 326.89M397.71 326.89L397.71 327.32M397.71 327.18L398.28 326.75M398.09 325.89L398.28 326.04M398.28 326.04L398.28 326.32M398.28 326.32L398.09 326.46M398.09 326.46L397.33 326.46M397.33 326.46L397.14 326.32M397.14 326.32L397.14 326.04M397.14 326.04L397.33 325.89M398.28 325.61L397.14 325.61M397.14 325.61L397.14 325.04M397.71 325.61L397.71 325.32M398.28 325.61L398.28 325.04M398.28 323.9L397.14 323.9M397.14 323.9L397.14 323.47M397.14 323.47L397.33 323.33M397.33 323.33L397.52 323.33M397.52 323.33L397.71 323.47M397.71 323.47L397.71 323.9M397.71 323.76L398.28 323.33M398.28 323.05L397.14 323.05M397.14 323.05L397.14 322.48M397.71 323.05L397.71 322.76M398.28 323.05L398.28 322.48M397.14 322.19L398.28 322.19M398.28 322.19L398.28 321.62M398.28 321.34L397.14 321.34M397.14 321.34L397.14 320.77M397.71 321.34L397.71 321.05M398.28 321.34L398.28 320.77M398.28 320.49L397.9 320.49M397.9 320.49L397.14 320.2M397.14 320.2L397.9 319.92M397.9 319.92L398.28 319.92M397.9 320.49L397.9 319.92M398.09 319.63L398.28 319.49M398.28 319.49L398.28 319.2M398.28 319.2L398.09 319.06M398.09 319.06L397.33 319.63M397.33 319.63L397.14 319.49M397.14 319.49L397.14 319.2M397.14 319.2L397.33 319.06M398.28 318.78L397.14 318.78M397.14 318.78L397.14 318.21M397.71 318.78L397.71 318.49M398.28 318.78L398.28 318.21"
fill="none" stroke="black" stroke-width="3"/>
</g>
<g><path d="M82.62 68.42L80.24 68.42"
fill="none" stroke="black" stroke-width="3"/>
</g>
<g><path d="M218.98 326.68L280.66 326.68"
fill="none" stroke="black" stroke-width=".5"/>
</g>
<g><path d="M271.7 335.34L271.7 334.93M271.7 334.93L273.24 334.93M273.24 334.93L273.24 332.46M273.24 332.46L272.63 332.46M272.63 332.46L272.01 334.11M272.01 334.11L272.01 334.93M272.01 334.93L273.55 334.93M273.55 334.93L273.55 335.34M274.17 334.52L274.17 333.69M274.17 333.69L274.48 333.28M274.48 333.28L275.09 333.28M275.09 333.28L275.4 333.69M275.4 333.69L275.4 333.28M275.4 333.28L275.4 334.93M275.4 334.93L275.4 334.52M275.4 334.52L275.09 334.93M275.09 334.93L274.48 334.93M274.48 334.93L274.17 334.52M276.63 334.93L276.63 333.28M276.63 333.28L276.02 333.28M276.02 333.28L277.25 333.28M277.87 334.52L277.87 333.69M277.87 333.69L278.18 333.28M278.18 333.28L278.79 333.28M278.79 333.28L279.1 333.69M279.1 333.69L279.1 333.28M279.1 333.28L279.1 334.93M279.1 334.93L279.1 334.52M279.1 334.52L278.79 334.93M278.79 334.93L278.18 334.93M278.18 334.93L277.87 334.52"
fill="none" stroke="black" stroke-width="3"/>
</g>
<g><path d="M385.03 336.17L385.03 321.93"
fill="none" stroke="black" stroke-width="9"/>
</g>
<g><path d="M218.98 321.93L394.52 321.93"
fill="none" stroke="black" stroke-width="9"/>
</g>
<g><path d="M225.62 336.17L225.62 321.93"
fill="none" stroke="black" stroke-width="9"/>
</g>
<g><path d="M235.11 336.17L235.11 321.93"
fill="none" stroke="black" stroke-width="9"/>
</g>
<g><path d="M256.93 336.17L256.93 321.93"
fill="none" stroke="black" stroke-width="9"/>
</g>
<g><path d="M271.17 336.17L271.17 321.93"
fill="none" stroke="black" stroke-width="9"/>
</g>
<g><path d="M218.98 331.42L280.66 331.42"
fill="none" stroke="black" stroke-width="9"/>
</g>
<g><path d="M280.66 336.17L280.66 321.93"
fill="none" stroke="black" stroke-width="9"/>
</g>
<g><path d="M385.03 329.05L394.52 329.05"
fill="none" stroke="black" stroke-width="9"/>
</g>
<g><path d="M297.84 332.36L301.16 332.36"
fill="none" stroke="black" stroke-width="3"/>
</g>
<g><path d="M385.8 326.68L386.13 326.68M386.13 326.68L387.13 324.02M387.13 324.02L387.46 324.02M387.46 324.02L387.46 326.68M388.13 324.91L388.13 326.68M388.13 326.68L389.45 324.91M389.45 324.91L389.45 326.68M391.45 326.24L391.11 326.68M391.11 326.68L390.45 326.68M390.45 326.68L390.12 326.24M390.12 326.24L390.12 325.35M390.12 325.35L390.45 324.91M390.45 324.91L391.11 324.91M391.11 324.91L391.45 325.35M392.77 326.68L392.77 324.91M392.77 324.91L392.11 324.91M392.11 324.91L393.44 324.91"
fill="none" stroke="black" stroke-width="3"/>
</g>
<g><path d="M388.9 335.53L391.27 335.53"
fill="none" stroke="black" stroke-width="3"/>
</g>
<g><path d="M218.98 336.17L218.98 321.93"
fill="none" stroke="black" stroke-width="9"/>
</g>
<g><path d="M11.92 103.74L9.26 103.74M9.26 103.74L9.26 102.41M9.26 102.41L11.92 102.41M11.03 101.74L11.03 100.75M11.03 100.75L10.59 100.42M10.59 100.42L10.15 100.75M10.15 100.75L10.15 101.41M10.15 101.41L10.59 101.74M10.59 101.74L11.48 101.74M11.48 101.74L11.92 101.41M11.92 101.41L11.92 100.75M11.92 99.75L10.15 99.75M10.15 99.75L10.15 98.76M10.15 98.76L10.59 98.42M10.59 98.42L11.03 98.42M11.03 98.42L11.48 98.76M11.48 98.76L11.48 99.75M11.92 97.76L10.15 97.76M10.15 97.76L10.15 97.09M11.03 97.09L11.03 97.76M11.03 97.76L11.03 96.76M11.92 96.76L11.92 97.76M11.03 97.09L10.9 96.86M10.9 96.86L10.59 96.76M10.59 96.76L10.28 96.86M10.28 96.86L10.15 97.09M11.92 96.76L11.79 96.53M11.79 96.53L11.48 96.43M11.48 96.43L11.16 96.53M11.16 96.53L11.03 96.76M11.92 95.77L11.48 95.77M11.92 93.11L10.15 93.11M10.15 93.11L10.15 91.78M10.15 91.78L11.92 91.78M11.92 91.12L10.15 91.12M10.15 91.12L10.15 90.12M10.15 90.12L10.59 89.79M10.59 89.79L11.03 89.79M11.03 89.79L11.48 90.12M11.48 90.12L11.48 91.12M10.15 89.12L11.92 89.12M11.92 89.12L10.15 87.8M10.15 87.8L11.92 87.8M11.92 87.13L10.15 87.13M10.15 87.13L11.03 86.47M11.03 86.47L10.15 85.8M10.15 85.8L11.92 85.8M11.03 85.14L11.03 84.14M11.03 84.14L10.59 83.81M10.59 83.81L10.15 84.14M10.15 84.14L10.15 84.81M10.15 84.81L10.59 85.14M10.59 85.14L11.48 85.14M11.48 85.14L11.92 84.81M11.92 84.81L11.92 84.14M11.92 83.15L10.15 83.15M10.15 83.15L11.03 83.15M11.03 83.15L11.03 81.82M11.03 81.82L10.15 81.82M10.15 81.82L11.92 81.82M11.92 81.15L11.48 81.15"
fill="none" stroke="black" stroke-width="3"/>
</g>
<g><path d="M11.68 153.6L12.12 153.93M12.12 153.93L12.12 154.6M12.12 154.6L11.68 154.93M11.68 154.93L9.91 154.93M9.91 154.93L9.46 154.6M9.46 154.6L9.46 153.93M9.46 153.93L9.91 153.6M12.12 152.94L10.35 152.94M10.35 152.94L10.35 151.61M10.35 151.61L12.12 151.61M12.12 150.94L10.35 150.94M10.35 150.94L10.35 149.95M10.35 149.95L10.79 149.61M10.79 149.61L11.23 149.61M11.23 149.61L11.68 149.95M11.68 149.95L11.68 150.94M11.68 148.95L10.79 148.95M10.79 148.95L10.35 148.62M10.35 148.62L10.35 147.95M10.35 147.95L10.79 147.62M10.79 147.62L10.35 147.62M10.35 147.62L12.12 147.62M12.12 147.62L11.68 147.62M11.68 147.62L12.12 147.95M12.12 147.95L12.12 148.62M12.12 148.62L11.68 148.95M12.12 146.96L10.35 146.96M10.35 146.96L10.35 146.29M11.23 146.29L11.23 146.96M11.23 146.96L11.23 145.96M12.12 145.96L12.12 146.96M11.23 146.29L11.1 146.06M11.1 146.06L10.79 145.96M10.79 145.96L10.48 146.06M10.48 146.06L10.35 146.29M12.12 145.96L11.99 145.73M11.99 145.73L11.68 145.63M11.68 145.63L11.36 145.73M11.36 145.73L11.23 145.96M12.12 144.96L11.68 144.96M12.12 142.31L9.46 142.31M9.46 142.31L12.12 140.98M12.12 140.98L9.46 140.98"
fill="none" stroke="black" stroke-width="3"/>
</g>
<g><path d="M11.45 227.18L8.79 227.18M8.79 227.18L8.79 225.85M8.79 225.85L11.45 225.85M11.01 225.18L10.12 225.18M10.12 225.18L9.68 224.85M9.68 224.85L9.68 224.19M9.68 224.19L10.12 223.86M10.12 223.86L11.01 223.86M11.01 223.86L11.45 224.19M11.45 224.19L11.45 224.85M11.45 224.85L11.01 225.18M11.89 223.19L11.45 223.19M11.45 223.19L11.45 222.86M11.45 222.86L10.12 222.86M10.12 222.86L9.68 222.53M9.68 222.53L9.68 222.19M9.68 222.19L11.45 222.19M11.45 222.19L11.45 222.86M11.45 222.86L11.45 221.86M11.45 221.86L11.89 221.86M11.45 221.2L9.68 221.2M9.68 221.2L9.68 219.87M9.68 219.87L11.45 219.87M11.45 219.21L11.01 219.21M9.68 216.55L11.45 216.55M11.45 216.55L9.68 215.22M9.68 215.22L11.45 215.22M11.89 212.56L11.45 212.56M11.45 212.56L11.45 212.23M11.45 212.23L10.12 212.23M10.12 212.23L9.68 211.9M9.68 211.9L9.68 211.57M9.68 211.57L11.45 211.57M11.45 211.57L11.45 212.23M11.45 212.23L11.45 211.23M11.45 211.23L11.89 211.23M11.01 210.57L10.12 210.57M10.12 210.57L9.68 210.24M9.68 210.24L9.68 209.57M9.68 209.57L10.12 209.24M10.12 209.24L9.68 209.24M9.68 209.24L11.45 209.24M11.45 209.24L11.01 209.24M11.01 209.24L11.45 209.57M11.45 209.57L11.45 210.24M11.45 210.24L11.01 210.57M11.45 207.91L9.68 207.91M9.68 207.91L9.68 208.58M9.68 208.58L9.68 207.25M11.01 206.59L10.12 206.59M10.12 206.59L9.68 206.25M9.68 206.25L9.68 205.59M9.68 205.59L10.12 205.26M10.12 205.26L9.68 205.26M9.68 205.26L11.45 205.26M11.45 205.26L11.01 205.26M11.01 205.26L11.45 205.59M11.45 205.59L11.45 206.25M11.45 206.25L11.01 206.59"
fill="none" stroke="black" stroke-width="3"/>
</g>
<g><path d="M11.68 254.63L9.91 253.3M9.91 253.3L11.68 253.3M11.68 253.3L9.02 253.3M9.02 254.63L11.68 254.63M11.68 252.64L9.91 252.64M9.91 252.64L10.79 252.64M10.79 252.64L10.79 251.31M10.79 251.31L9.91 251.31M9.91 251.31L11.68 251.31M11.68 250.65L9.91 250.65M9.91 250.65L9.91 249.98M10.79 249.98L10.79 250.65M10.79 250.65L10.79 249.65M11.68 249.65L11.68 250.65M10.79 249.98L10.66 249.75M10.66 249.75L10.35 249.65M10.35 249.65L10.04 249.75M10.04 249.75L9.91 249.98M11.68 249.65L11.55 249.42M11.55 249.42L11.23 249.32M11.23 249.32L10.92 249.42M10.92 249.42L10.79 249.65M11.68 248.65L11.23 248.65M11.68 246L9.02 246M9.02 246L11.68 244.67M11.68 244.67L9.02 244.67M12.12 242.01L11.68 242.01M11.68 242.01L11.68 241.68M11.68 241.68L10.35 241.68M10.35 241.68L9.91 241.35M9.91 241.35L9.91 241.02M9.91 241.02L11.68 241.02M11.68 241.02L11.68 241.68M11.68 241.68L11.68 240.68M11.68 240.68L12.12 240.68M11.23 240.02L11.68 239.69M11.68 239.69L11.68 239.02M11.68 239.02L11.23 238.69M11.23 238.69L9.91 238.69M9.91 238.69L10.79 238.69M10.79 238.69L10.79 239.36M10.79 239.36L9.91 240.02M9.91 237.03L9.91 238.03M9.91 238.03L11.68 238.03M11.68 238.03L11.68 237.03M11.68 237.03L11.23 236.7M11.23 236.7L10.79 237.03M10.79 237.03L10.79 238.03M11.68 236.03L9.91 235.37M9.91 235.37L9.91 234.71M9.91 234.71L11.68 234.71M11.68 234.04L11.23 234.04"
fill="none" stroke="black" stroke-width="3"/>
</g>
<g><path d="M11.68 308.15L9.02 308.15M9.02 308.15L9.02 306.82M9.02 306.82L11.68 306.82M11.23 306.16L10.35 306.16M10.35 306.16L9.91 305.83M9.91 305.83L9.91 305.16M9.91 305.16L10.35 304.83M10.35 304.83L11.23 304.83M11.23 304.83L11.68 305.16M11.68 305.16L11.68 305.83M11.68 305.83L11.23 306.16M12.12 304.16L11.68 304.16M11.68 304.16L11.68 303.83M11.68 303.83L10.35 303.83M10.35 303.83L9.91 303.5M9.91 303.5L9.91 303.17M9.91 303.17L11.68 303.17M11.68 303.17L11.68 303.83M11.68 303.83L11.68 302.84M11.68 302.84L12.12 302.84M11.68 302.17L9.91 302.17M9.91 302.17L9.91 300.84M9.91 300.84L11.68 300.84M11.68 300.18L11.23 300.18M9.91 297.52L11.68 297.52M11.68 297.52L9.91 296.19M9.91 296.19L11.68 296.19M12.12 293.54L11.68 293.54M11.68 293.54L11.68 293.21M11.68 293.21L10.35 293.21M10.35 293.21L9.91 292.87M9.91 292.87L9.91 292.54M9.91 292.54L11.68 292.54M11.68 292.54L11.68 293.21M11.68 293.21L11.68 292.21M11.68 292.21L12.12 292.21M11.23 291.54L10.35 291.54M10.35 291.54L9.91 291.21M9.91 291.21L9.91 290.55M9.91 290.55L10.35 290.22M10.35 290.22L9.91 290.22M9.91 290.22L11.68 290.22M11.68 290.22L11.23 290.22M11.23 290.22L11.68 290.55M11.68 290.55L11.68 291.21M11.68 291.21L11.23 291.54M11.68 288.89L9.91 288.89M9.91 288.89L9.91 289.55M9.91 289.55L9.91 288.22M11.23 287.56L10.35 287.56M10.35 287.56L9.91 287.23M9.91 287.23L9.91 286.56M9.91 286.56L10.35 286.23M10.35 286.23L9.91 286.23M9.91 286.23L11.68 286.23M11.68 286.23L11.23 286.23M11.23 286.23L11.68 286.56M11.68 286.56L11.68 287.23M11.68 287.23L11.23 287.56"
fill="none" stroke="black" stroke-width="3"/>
</g>
<g><path d="M11.68 335.33L9.91 334M9.91 334L11.68 334M11.68 334L9.02 334M9.02 335.33L11.68 335.33M11.68 333.34L9.91 333.34M9.91 333.34L10.79 333.34M10.79 333.34L10.79 332.01M10.79 332.01L9.91 332.01M9.91 332.01L11.68 332.01M11.68 331.35L9.91 331.35M9.91 331.35L9.91 330.68M10.79 330.68L10.79 331.35M10.79 331.35L10.79 330.35M11.68 330.35L11.68 331.35M10.79 330.68L10.66 330.45M10.66 330.45L10.35 330.35M10.35 330.35L10.04 330.45M10.04 330.45L9.91 330.68M11.68 330.35L11.55 330.12M11.55 330.12L11.23 330.02M11.23 330.02L10.92 330.12M10.92 330.12L10.79 330.35M11.68 329.35L11.23 329.35M11.68 326.7L9.02 326.7M9.02 326.7L11.68 325.37M11.68 325.37L9.02 325.37M11.68 322.71L9.91 322.71M9.91 322.71L9.91 321.38M9.91 321.38L11.68 321.38M11.23 320.72L10.35 320.72M10.35 320.72L9.91 320.39M9.91 320.39L9.91 319.72M9.91 319.72L10.35 319.39M10.35 319.39L11.23 319.39M11.23 319.39L11.68 319.72M11.68 319.72L11.68 320.39M11.68 320.39L11.23 320.72M12.12 318.73L11.68 318.73M11.68 318.73L11.68 318.39M11.68 318.39L10.35 318.39M10.35 318.39L9.91 318.06M9.91 318.06L9.91 317.73M9.91 317.73L11.68 317.73M11.68 317.73L11.68 318.39M11.68 318.39L11.68 317.4M11.68 317.4L12.12 317.4M11.68 316.73L9.91 316.07M9.91 316.07L9.91 315.41M9.91 315.41L11.68 315.41M11.68 314.74L11.23 314.74"
fill="none" stroke="black" stroke-width="3"/>
</g>
<g><path d="M219.38 335.34L220.61 333.7M220.61 333.7L220.61 335.34M220.61 335.34L220.61 332.88M219.38 332.88L219.38 335.34M221.23 334.11L221.54 333.7M221.54 333.7L222.15 333.7M222.15 333.7L222.46 334.11M222.46 334.11L222.15 334.52M222.15 334.52L221.85 334.52M221.85 334.52L222.15 334.52M222.15 334.52L222.46 334.93M222.46 334.93L222.15 335.34M222.15 335.34L221.54 335.34M221.54 335.34L221.23 334.93M223.08 335.34L223.08 333.7M223.08 333.7L223.7 334.52M223.7 334.52L224.31 333.7M224.31 333.7L224.31 335.34M224.93 335.34L224.93 334.93"
fill="none" stroke="black" stroke-width="3"/>
</g>
<g><path d="M226.3 335.32L226.61 335.32M226.61 335.32L227.53 332.85M227.53 332.85L227.84 332.85M227.84 332.85L227.84 335.32M228.46 333.68L228.46 335.32M228.46 335.32L229.69 333.68M229.69 333.68L229.69 335.32M231.54 334.91L231.23 335.32M231.23 335.32L230.62 335.32M230.62 335.32L230.31 334.91M230.31 334.91L230.31 334.09M230.31 334.09L230.62 333.68M230.62 333.68L231.23 333.68M231.23 333.68L231.54 334.09M232.78 335.32L232.78 333.68M232.78 333.68L232.16 333.68M232.16 333.68L233.39 333.68M234.01 335.32L234.01 334.91"
fill="none" stroke="black" stroke-width="3"/>
</g>
<g><path d="M238.69 335.15L238.69 332.68M238.69 332.68L239.92 335.15M239.92 335.15L239.92 332.68M242.39 335.56L242.39 335.15M242.39 335.15L242.7 335.15M242.7 335.15L242.7 333.91M242.7 333.91L243.01 333.5M243.01 333.5L243.32 333.5M243.32 333.5L243.32 335.15M243.32 335.15L242.7 335.15M242.7 335.15L243.63 335.15M243.63 335.15L243.63 335.56M244.24 334.73L244.24 333.91M244.24 333.91L244.55 333.5M244.55 333.5L245.17 333.5M245.17 333.5L245.48 333.91M245.48 333.91L245.48 334.73M245.48 334.73L245.17 335.15M245.17 335.15L244.55 335.15M244.55 335.15L244.24 334.73M246.09 335.15L246.09 333.5M246.09 333.5L246.09 334.32M246.09 334.32L246.71 334.32M246.71 334.32L247.33 333.5M247.33 333.5L246.71 334.32M246.71 334.32L247.33 335.15M247.94 334.73L248.25 335.15M248.25 335.15L248.87 335.15M248.87 335.15L249.18 334.73M249.18 334.73L249.18 333.5M249.18 333.5L249.18 334.32M249.18 334.32L248.56 334.32M248.56 334.32L247.94 333.5M249.79 335.15L249.79 333.5M249.79 333.5L250.41 334.32M250.41 334.32L251.03 333.5M251.03 333.5L251.03 335.15M251.64 335.15L251.64 334.73"
fill="none" stroke="black" stroke-width="3"/>
</g>
<g><path d="M260.13 334.87L260.13 332.41M260.13 332.41L261.37 332.41M261.37 332.41L261.37 334.87M261.98 334.46L261.98 333.64M261.98 333.64L262.29 333.23M262.29 333.23L262.91 333.23M262.91 333.23L263.22 333.64M263.22 333.64L263.22 334.46M263.22 334.46L262.91 334.87M262.91 334.87L262.29 334.87M262.29 334.87L261.98 334.46M263.83 335.28L263.83 334.87M263.83 334.87L264.14 334.87M264.14 334.87L264.14 333.64M264.14 333.64L264.45 333.23M264.45 333.23L264.76 333.23M264.76 333.23L264.76 334.87M264.76 334.87L264.14 334.87M264.14 334.87L265.07 334.87M265.07 334.87L265.07 335.28M265.68 334.87L265.68 333.23M265.68 333.23L266.92 333.23M266.92 333.23L266.92 334.87M267.53 334.87L267.53 334.46"
fill="none" stroke="black" stroke-width="3"/>
</g>
<g><path d="M271.69 335.27L271.69 334.88M271.69 334.88L273.17 334.88M273.17 334.88L273.17 332.5M273.17 332.5L272.58 332.5M272.58 332.5L271.99 334.09M271.99 334.09L271.99 334.88M271.99 334.88L273.47 334.88M273.47 334.88L273.47 335.27M274.06 334.48L274.06 333.69M274.06 333.69L274.36 333.3M274.36 333.3L274.95 333.3M274.95 333.3L275.25 333.69M275.25 333.69L275.25 333.3M275.25 333.3L275.25 334.88M275.25 334.88L275.25 334.48M275.25 334.48L274.95 334.88M274.95 334.88L274.36 334.88M274.36 334.88L274.06 334.48M276.44 334.88L276.44 333.3M276.44 333.3L275.84 333.3M275.84 333.3L277.03 333.3M277.62 334.48L277.62 333.69M277.62 333.69L277.92 333.3M277.92 333.3L278.51 333.3M278.51 333.3L278.81 333.69M278.81 333.69L278.81 333.3M278.81 333.3L278.81 334.88M278.81 334.88L278.81 334.48M278.81 334.48L278.51 334.88M278.51 334.88L277.92 334.88M277.92 334.88L277.62 334.48"
fill="none" stroke="black" stroke-width="3"/>
</g>
<g><path d="M301.2 333.27L304.52 333.27"
fill="none" stroke="black" stroke-width="3"/>
</g>
<g><path d="M386.13 327.01L386.43 327.01M386.43 327.01L387.32 324.64M387.32 324.64L387.61 324.64M387.61 324.64L387.61 327.01M388.21 325.43L388.21 327.01M388.21 327.01L389.39 325.43M389.39 325.43L389.39 327.01M391.17 326.62L390.88 327.01M390.88 327.01L390.28 327.01M390.28 327.01L389.99 326.62M389.99 326.62L389.99 325.83M389.99 325.83L390.28 325.43M390.28 325.43L390.88 325.43M390.88 325.43L391.17 325.83M392.36 327.01L392.36 325.43M392.36 325.43L391.77 325.43M391.77 325.43L392.95 325.43"
fill="none" stroke="black" stroke-width="3"/>
</g>
<g><path d="M388.83 335.33L391.2 335.33"
fill="none" stroke="black" stroke-width="3"/>
</g>
<g><path d="M83.3 66.87L80.93 66.87"
fill="none" stroke="black" stroke-width="3"/>
</g>
<g><path d="M353.17 339.49L353.17 336.83M353.17 336.83L352.83 336.83M352.83 336.83L352.5 337.27M352.5 337.27L352.5 338.16M352.5 338.16L352.83 338.6M352.83 338.6L353.5 338.6M353.5 338.6L353.83 338.16M353.83 338.16L353.83 337.27M353.83 337.27L353.5 336.83M353.5 336.83L353.17 336.83M354.5 339.04L354.5 338.16M354.5 338.16L354.83 337.72M354.83 337.72L355.49 337.72M355.49 337.72L355.82 338.16M355.82 338.16L355.82 339.04M355.82 339.04L355.49 339.49M355.49 339.49L354.83 339.49M354.83 339.49L354.5 339.04M356.49 339.49L356.49 337.72M356.49 337.72L357.48 337.72M357.48 337.72L357.82 338.16M357.82 338.16L357.82 338.6M357.82 338.6L357.48 339.04M357.48 339.04L356.49 339.04M358.48 339.49L358.48 337.72M358.48 337.72L359.14 338.6M359.14 338.6L359.81 337.72M359.81 337.72L359.81 339.49M360.47 339.04L360.47 338.16M360.47 338.16L360.81 337.72M360.81 337.72L361.47 337.72M361.47 337.72L361.8 338.16M361.8 338.16L361.8 337.72M361.8 337.72L361.8 339.49M361.8 339.49L361.8 339.04M361.8 339.04L361.47 339.49M361.47 339.49L360.81 339.49M360.81 339.49L360.47 339.04M363.13 339.49L363.13 337.72M363.13 337.72L362.47 337.72M362.47 337.72L363.79 337.72M366.45 339.49L366.45 338.6M366.45 338.6L367.12 336.83M367.12 336.83L367.78 338.6M367.78 338.6L367.78 339.49M366.45 338.6L367.78 338.6M368.44 337.27L368.78 336.83M368.78 336.83L369.44 336.83M369.44 336.83L369.77 337.27M369.77 337.27L369.77 337.72M369.77 337.72L369.44 338.16M369.44 338.16L369.11 338.16M369.44 338.16L369.77 338.6M369.77 338.6L369.77 339.04M369.77 339.04L369.44 339.49M369.44 339.49L368.78 339.49M368.78 339.49L368.44 339.04M372.43 339.49L372.43 336.83M372.43 336.83L373.76 336.83M373.76 336.83L373.76 337.27M374.42 339.04L374.42 337.27M374.42 337.27L374.75 336.83M374.75 336.83L375.42 336.83M375.42 336.83L375.75 337.27M375.75 337.27L375.75 339.04M375.75 339.04L375.42 339.49M375.42 339.49L374.75 339.49M374.75 339.49L374.42 339.04M377.74 339.04L377.41 339.49M377.41 339.49L376.75 339.49M376.75 339.49L376.41 339.04M376.41 339.04L376.41 337.27M376.41 337.27L376.75 336.83M376.75 336.83L377.41 336.83M377.41 336.83L377.74 337.27M378.41 336.83L379.74 336.83M379.07 336.83L379.07 339.49M382.39 337.27L382.72 336.83M382.72 336.83L383.39 336.83M383.39 336.83L383.72 337.27M383.72 337.27L383.72 337.72M383.72 337.72L383.39 338.16M383.39 338.16L382.72 338.16M382.72 338.16L382.39 338.6M382.39 338.6L382.39 339.49M382.39 339.49L383.72 339.49M384.39 339.49L384.39 339.04M385.05 337.27L385.38 336.83M385.38 336.83L386.05 336.83M386.05 336.83L386.38 337.27M386.38 337.27L386.38 337.72M386.38 337.72L386.05 338.16M386.05 338.16L385.71 338.16M386.05 338.16L386.38 338.6M386.38 338.6L386.38 339.04M386.38 339.04L386.05 339.49M386.05 339.49L385.38 339.49M385.38 339.49L385.05 339.04M387.37 339.49L387.04 339.04M387.04 339.04L387.04 337.27M387.04 337.27L387.37 336.83M387.37 336.83L387.71 336.83M387.71 336.83L388.04 337.27M388.04 337.27L388.04 339.04M388.04 339.04L387.71 339.49M387.71 339.49L387.37 339.49M388.7 337.27L389.03 336.83M389.03 336.83L389.03 339.49M388.7 339.49L389.37 339.49"
fill="none" stroke="black" stroke-width="3"/>
</g>
<g><path d="M12.15 277.89L12.15 276.89M12.15 276.89L11.7 276.56M11.7 276.56L11.26 276.56M11.26 276.56L10.82 276.89M10.82 276.89L10.82 277.56M10.82 276.89L10.38 276.56M10.38 276.56L9.93 276.56M9.93 276.56L9.49 276.89M9.49 276.89L9.49 277.89M9.49 277.56L12.15 277.56M10.82 275.9L10.38 275.57M10.38 275.57L10.38 274.9M10.38 274.9L10.82 274.57M10.82 274.57L11.26 274.9M11.26 274.9L11.26 275.23M11.26 275.23L11.26 274.9M11.26 274.9L11.7 274.57M11.7 274.57L12.15 274.9M12.15 274.9L12.15 275.57M12.15 275.57L11.7 275.9M11.7 273.91L10.82 273.91M10.82 273.91L10.38 273.57M10.38 273.57L10.38 272.91M10.38 272.91L10.82 272.58M10.82 272.58L10.38 272.58M10.38 272.58L12.15 272.58M12.15 272.58L11.7 272.58M11.7 272.58L12.15 272.91M12.15 272.91L12.15 273.57M12.15 273.57L11.7 273.91M12.15 271.91L10.38 271.91M10.38 271.91L11.26 271.25M11.26 271.25L10.38 270.58M10.38 270.58L12.15 270.58M12.15 269.92L11.7 269.92M10.38 267.26L12.15 267.26M12.15 267.26L10.38 265.93M10.38 265.93L12.15 265.93M12.15 265.27L10.38 265.27M10.38 265.27L11.26 265.27M11.26 265.27L11.26 263.94M11.26 263.94L10.38 263.94M10.38 263.94L12.15 263.94M12.15 263.28L10.38 263.28M10.38 263.28L10.38 262.61M11.26 262.61L11.26 263.28M11.26 263.28L11.26 262.28M12.15 262.28L12.15 263.28M11.26 262.61L11.13 262.38M11.13 262.38L10.82 262.28M10.82 262.28L10.5 262.38M10.5 262.38L10.38 262.61M12.15 262.28L12.02 262.05M12.02 262.05L11.7 261.95M11.7 261.95L11.39 262.05M11.39 262.05L11.26 262.28M12.15 261.28L11.7 261.28M12.15 260.62L9.49 260.62M9.49 260.62L12.15 259.29M12.15 259.29L9.49 259.29"
fill="none" stroke="black" stroke-width="3"/>
</g>
</g>
</svg>
