<?xml version="1.0" standalone="no"?><svg xmlns="http://www.w3.org/2000/svg" width="400.000" height="400.000" viewBox="0.0 0.0 400.000 400.000" version="1.1">
  <title>Produce by Acme CAD Converter</title>
  <desc>Produce by Acme CAD Converter</desc>
<g id="0" display="visible">
<g><path d="M160.41 357.98L160.41 357.4M160.41 357.4L162.59 357.4M162.59 357.4L162.59 353.91M162.59 353.91L161.72 353.91M161.72 353.91L160.85 356.24M160.85 356.24L160.85 357.4M160.85 357.4L163.03 357.4M163.03 357.4L163.03 357.98M163.9 356.82L163.9 355.66M163.9 355.66L164.34 355.07M164.34 355.07L165.21 355.07M165.21 355.07L165.65 355.66M165.65 355.66L165.65 355.07M165.65 355.07L165.65 357.4M165.65 357.4L165.65 356.82M165.65 356.82L165.21 357.4M165.21 357.4L164.34 357.4M164.34 357.4L163.9 356.82M167.39 357.4L167.39 355.07M167.39 355.07L166.52 355.07M166.52 355.07L168.26 355.07M169.14 356.82L169.14 355.66M169.14 355.66L169.57 355.07M169.57 355.07L170.44 355.07M170.44 355.07L170.88 355.66M170.88 355.66L170.88 355.07M170.88 355.07L170.88 357.4M170.88 357.4L170.88 356.82M170.88 356.82L170.44 357.4M170.44 357.4L169.57 357.4M169.57 357.4L169.14 356.82"
fill="none" stroke="black" stroke-width="3"/>
</g>
<g><path d="M85.94 7.44L334.19 7.44"
fill="none" stroke="black" stroke-width="9"/>
</g>
<g><path d="M334.19 7.44L334.19 392.56"
fill="none" stroke="black" stroke-width="9"/>
</g>
<g><path d="M334.19 392.56L85.94 392.56"
fill="none" stroke="black" stroke-width="9"/>
</g>
<g><path d="M85.94 392.56L85.94 7.44"
fill="none" stroke="black" stroke-width="9"/>
</g>
<g><path d="M85.94 392.56L69.84 392.56"
fill="none" stroke="black" stroke-width="9"/>
</g>
<g><path d="M85.94 197.99L69.84 197.99"
fill="none" stroke="black" stroke-width="9"/>
</g>
<g><path d="M85.94 359.01L69.84 359.01"
fill="none" stroke="black" stroke-width="9"/>
</g>
<g><path d="M85.94 312.05L69.84 312.05"
fill="none" stroke="black" stroke-width="9"/>
</g>
<g><path d="M85.94 278.5L69.84 278.5"
fill="none" stroke="black" stroke-width="9"/>
</g>
<g><path d="M85.94 244.95L69.84 244.95"
fill="none" stroke="black" stroke-width="9"/>
</g>
<g><path d="M69.84 392.56L69.84 197.99"
fill="none" stroke="black" stroke-width="9"/>
</g>
<g><path d="M85.94 87.95L69.84 87.95"
fill="none" stroke="black" stroke-width="9"/>
</g>
<g><path d="M85.94 168.47L69.84 168.47"
fill="none" stroke="black" stroke-width="9"/>
</g>
<g><path d="M69.84 168.47L69.84 7.44"
fill="none" stroke="black" stroke-width="9"/>
</g>
<g><path d="M173.16 352.3L85.94 352.3"
fill="none" stroke="black" stroke-width="9"/>
</g>
<g><path d="M173.16 359.01L85.94 359.01"
fill="none" stroke="black" stroke-width="9"/>
</g>
<g><path d="M334.19 338.88L85.94 338.88"
fill="none" stroke="black" stroke-width="9"/>
</g>
<g><path d="M95.33 359.01L95.33 338.88"
fill="none" stroke="black" stroke-width="9"/>
</g>
<g><path d="M108.75 392.56L108.75 338.88"
fill="none" stroke="black" stroke-width="9"/>
</g>
<g><path d="M139.62 392.56L139.62 338.88"
fill="none" stroke="black" stroke-width="9"/>
</g>
<g><path d="M159.74 392.56L159.74 338.88"
fill="none" stroke="black" stroke-width="9"/>
</g>
<g><path d="M173.16 392.56L173.16 338.88"
fill="none" stroke="black" stroke-width="9"/>
</g>
<g><path d="M334.19 365.72L267.09 365.72"
fill="none" stroke="black" stroke-width="9"/>
</g>
<g><path d="M287.22 372.43L287.22 359.01"
fill="none" stroke="black" stroke-width="9"/>
</g>
<g><path d="M334.19 359.01L173.16 359.01"
fill="none" stroke="black" stroke-width="9"/>
</g>
<g><path d="M334.19 372.43L267.09 372.43"
fill="none" stroke="black" stroke-width="9"/>
</g>
<g><path d="M307.35 372.43L307.35 359.01"
fill="none" stroke="black" stroke-width="9"/>
</g>
<g><path d="M267.09 392.56L267.09 359.01"
fill="none" stroke="black" stroke-width="9"/>
</g>
<g><path d="M85.94 7.44L69.84 7.44"
fill="none" stroke="black" stroke-width="9"/>
</g>
<g><path d="M311.97 364.06L312.44 364.06M312.44 364.06L313.85 360.31M313.85 360.31L314.32 360.31M314.32 360.31L314.32 364.06M315.26 361.56L315.26 364.06M315.26 364.06L317.14 361.56M317.14 361.56L317.14 364.06M319.96 363.44L319.49 364.06M319.49 364.06L318.55 364.06M318.55 364.06L318.08 363.44M318.08 363.44L318.08 362.19M318.08 362.19L318.55 361.56M318.55 361.56L319.49 361.56M319.49 361.56L319.96 362.19M321.83 364.06L321.83 361.56M321.83 361.56L320.9 361.56M320.9 361.56L322.77 361.56M323.71 363.44L323.71 362.19M323.71 362.19L324.18 361.56M324.18 361.56L325.12 361.56M325.12 361.56L325.59 362.19M325.59 362.19L325.59 363.44M325.59 363.44L325.12 364.06M325.12 364.06L324.18 364.06M324.18 364.06L323.71 363.44M326.53 364.06L326.53 361.56M326.53 361.56L327.47 361.56M327.47 362.81L326.53 362.81M326.53 362.81L327.94 362.81M327.94 364.06L326.53 364.06M327.47 362.81L327.8 362.63M327.8 362.63L327.94 362.19M327.94 362.19L327.8 361.74M327.8 361.74L327.47 361.56M327.94 364.06L328.27 363.88M328.27 363.88L328.41 363.44M328.41 363.44L328.27 362.99M328.27 362.99L327.94 362.81"
fill="none" stroke="black" stroke-width="3"/>
</g>
<g><path d="M291.06 364.11L291.53 364.11M291.53 364.11L292.94 360.35M292.94 360.35L293.41 360.35M293.41 360.35L293.41 364.11M294.35 361.6L294.35 364.11M294.35 364.11L296.23 361.6M296.23 361.6L296.23 364.11M299.05 363.48L298.58 364.11M298.58 364.11L297.64 364.11M297.64 364.11L297.17 363.48M297.17 363.48L297.17 362.23M297.17 362.23L297.64 361.6M297.64 361.6L298.58 361.6M298.58 361.6L299.05 362.23M300.92 364.11L300.92 361.6M300.92 361.6L299.99 361.6M299.99 361.6L301.86 361.6"
fill="none" stroke="black" stroke-width="3"/>
</g>
<g><path d="M197.32 397.25L197.32 393.5M199.19 393.5L197.79 395.38M197.79 395.38L197.32 395.38M197.79 395.38L199.19 397.25M200.13 396.63L200.13 395.38M200.13 395.38L200.6 394.75M200.6 394.75L201.54 394.75M201.54 394.75L202.01 395.38M202.01 395.38L202.01 396.63M202.01 396.63L201.54 397.25M201.54 397.25L200.6 397.25M200.6 397.25L200.13 396.63M202.95 397.25L202.95 394.75M202.95 394.75L204.83 394.75M204.83 394.75L204.83 397.25M205.77 394.75L205.77 397.25M205.77 397.25L207.65 394.75M207.65 394.75L207.65 397.25M208.59 397.25L208.59 394.75M208.59 394.75L210 394.75M210 394.75L210.47 395.38M210.47 395.38L210.47 396M210.47 396L210 396.63M210 396.63L208.59 396.63M211.41 396.63L211.41 395.38M211.41 395.38L211.88 394.75M211.88 394.75L212.81 394.75M212.81 394.75L213.28 395.38M213.28 395.38L213.28 396.63M213.28 396.63L212.81 397.25M212.81 397.25L211.88 397.25M211.88 397.25L211.41 396.63M214.22 397.25L214.22 394.75M214.22 394.75L215.16 394.75M215.16 396L214.22 396M214.22 396L215.63 396M215.63 397.25L214.22 397.25M215.16 396L215.5 395.82M215.5 395.82L215.63 395.38M215.63 395.38L215.5 394.93M215.5 394.93L215.16 394.75M215.63 397.25L215.96 397.07M215.96 397.07L216.1 396.63M216.1 396.63L215.96 396.18M215.96 396.18L215.63 396M217.04 396.63L217.04 395.38M217.04 395.38L217.51 394.75M217.51 394.75L218.45 394.75M218.45 394.75L218.92 395.38M218.92 395.38L218.92 394.75M218.92 394.75L218.92 397.25M218.92 397.25L218.92 396.63M218.92 396.63L218.45 397.25M218.45 397.25L217.51 397.25M217.51 397.25L217.04 396.63M219.86 397.25L220.8 394.75M220.8 394.75L221.74 394.75M221.74 394.75L221.74 397.25"
fill="none" stroke="black" stroke-width="3"/>
</g>
<g><path d="M273.8 372.43L273.8 365.72"
fill="none" stroke="black" stroke-width="3"/>
</g>
<g><path d="M280.51 372.43L280.51 365.72"
fill="none" stroke="black" stroke-width="3"/>
</g>
<g><path d="M173.16 372.43L85.94 372.43"
fill="none" stroke="black" stroke-width="3"/>
</g>
<g><path d="M173.16 365.72L85.94 365.72"
fill="none" stroke="black" stroke-width="3"/>
</g>
<g><path d="M173.16 379.14L85.94 379.14"
fill="none" stroke="black" stroke-width="3"/>
</g>
<g><path d="M173.16 385.85L85.94 385.85"
fill="none" stroke="black" stroke-width="3"/>
</g>
<g><path d="M173.16 345.59L85.94 345.59"
fill="none" stroke="black" stroke-width="3"/>
</g>
<g><path d="M76.55 392.56L76.55 197.99"
fill="none" stroke="black" stroke-width="3"/>
</g>
<g><path d="M76.55 168.47L76.55 7.44"
fill="none" stroke="black" stroke-width="3"/>
</g>
<g><path d="M59.1 0.73L340.9 0.73"
fill="none" stroke="black" stroke-width="3"/>
</g>
<g><path d="M340.9 0.73L340.9 399.27"
fill="none" stroke="black" stroke-width="3"/>
</g>
<g><path d="M340.9 399.27L59.1 399.27"
fill="none" stroke="black" stroke-width="3"/>
</g>
<g><path d="M59.1 399.27L59.1 0.73"
fill="none" stroke="black" stroke-width="3"/>
</g>
<g><path d="M197.46 353.63L202.16 353.63"
fill="none" stroke="black" stroke-width="3"/>
</g>
<g><path d="M186.86 382.75L190.21 382.75"
fill="none" stroke="black" stroke-width="3"/>
</g>
<g><path d="M270.19 389.86L273.55 389.86"
fill="none" stroke="black" stroke-width="3"/>
</g>
<g><path d="M295.89 371.93L298.58 371.93"
fill="none" stroke="black" stroke-width="3"/>
</g>
<g><path d="M320.24 371.93L322.92 371.93"
fill="none" stroke="black" stroke-width="3"/>
</g>
<g><path d="M269.35 371.98L272.04 371.98"
fill="none" stroke="black" stroke-width="3"/>
</g>
<g><path d="M74.92 63.87L71.17 63.87M71.17 63.87L71.17 61.99M71.17 61.99L74.92 61.99M73.67 61.05L73.67 59.64M73.67 59.64L73.05 59.17M73.05 59.17L72.42 59.64M72.42 59.64L72.42 60.58M72.42 60.58L73.05 61.05M73.05 61.05L74.3 61.05M74.3 61.05L74.92 60.58M74.92 60.58L74.92 59.64M74.92 58.23L72.42 58.23M72.42 58.23L72.42 56.83M72.42 56.83L73.05 56.36M73.05 56.36L73.67 56.36M73.67 56.36L74.3 56.83M74.3 56.83L74.3 58.23M74.92 55.42L72.42 55.42M72.42 55.42L72.42 54.48M73.67 54.48L73.67 55.42M73.67 55.42L73.67 54.01M74.92 54.01L74.92 55.42M73.67 54.48L73.49 54.15M73.49 54.15L73.05 54.01M73.05 54.01L72.6 54.15M72.6 54.15L72.42 54.48M74.92 54.01L74.74 53.68M74.74 53.68L74.3 53.54M74.3 53.54L73.86 53.68M73.86 53.68L73.67 54.01M74.92 52.6L74.3 52.6M74.92 48.84L72.42 48.84M72.42 48.84L72.42 46.96M72.42 46.96L74.92 46.96M74.92 46.02L72.42 46.02M72.42 46.02L72.42 44.61M72.42 44.61L73.05 44.14M73.05 44.14L73.67 44.14M73.67 44.14L74.3 44.61M74.3 44.61L74.3 46.02M72.42 43.21L74.92 43.21M74.92 43.21L72.42 41.33M72.42 41.33L74.92 41.33M74.92 40.39L72.42 40.39M72.42 40.39L73.67 39.45M73.67 39.45L72.42 38.51M72.42 38.51L74.92 38.51M73.67 37.57L73.67 36.16M73.67 36.16L73.05 35.69M73.05 35.69L72.42 36.16M72.42 36.16L72.42 37.1M72.42 37.1L73.05 37.57M73.05 37.57L74.3 37.57M74.3 37.57L74.92 37.1M74.92 37.1L74.92 36.16M74.92 34.75L72.42 34.75M72.42 34.75L73.67 34.75M73.67 34.75L73.67 32.87M73.67 32.87L72.42 32.87M72.42 32.87L74.92 32.87M74.92 31.93L74.3 31.93"
fill="none" stroke="black" stroke-width="3"/>
</g>
<g><path d="M74.58 134.38L75.21 134.85M75.21 134.85L75.21 135.79M75.21 135.79L74.58 136.26M74.58 136.26L72.08 136.26M72.08 136.26L71.45 135.79M71.45 135.79L71.45 134.85M71.45 134.85L72.08 134.38M75.21 133.44L72.7 133.44M72.7 133.44L72.7 131.56M72.7 131.56L75.21 131.56M75.21 130.63L72.7 130.63M72.7 130.63L72.7 129.22M72.7 129.22L73.33 128.75M73.33 128.75L73.95 128.75M73.95 128.75L74.58 129.22M74.58 129.22L74.58 130.63M74.58 127.81L73.33 127.81M73.33 127.81L72.7 127.34M72.7 127.34L72.7 126.4M72.7 126.4L73.33 125.93M73.33 125.93L72.7 125.93M72.7 125.93L75.21 125.93M75.21 125.93L74.58 125.93M74.58 125.93L75.21 126.4M75.21 126.4L75.21 127.34M75.21 127.34L74.58 127.81M75.21 124.99L72.7 124.99M72.7 124.99L72.7 124.05M73.95 124.05L73.95 124.99M73.95 124.99L73.95 123.58M75.21 123.58L75.21 124.99M73.95 124.05L73.77 123.72M73.77 123.72L73.33 123.58M73.33 123.58L72.89 123.72M72.89 123.72L72.7 124.05M75.21 123.58L75.02 123.25M75.02 123.25L74.58 123.11M74.58 123.11L74.14 123.25M74.14 123.25L73.95 123.58M75.21 122.17L74.58 122.17M75.21 118.41L71.45 118.41M71.45 118.41L75.21 116.54M75.21 116.54L71.45 116.54"
fill="none" stroke="black" stroke-width="3"/>
</g>
<g><path d="M74.26 238.43L70.5 238.43M70.5 238.43L70.5 236.55M70.5 236.55L74.26 236.55M73.64 235.61L72.38 235.61M72.38 235.61L71.76 235.14M71.76 235.14L71.76 234.2M71.76 234.2L72.38 233.73M72.38 233.73L73.64 233.73M73.64 233.73L74.26 234.2M74.26 234.2L74.26 235.14M74.26 235.14L73.64 235.61M74.89 232.8L74.26 232.8M74.26 232.8L74.26 232.33M74.26 232.33L72.38 232.33M72.38 232.33L71.76 231.86M71.76 231.86L71.76 231.39M71.76 231.39L74.26 231.39M74.26 231.39L74.26 232.33M74.26 232.33L74.26 230.92M74.26 230.92L74.89 230.92M74.26 229.98L71.76 229.98M71.76 229.98L71.76 228.1M71.76 228.1L74.26 228.1M74.26 227.16L73.64 227.16M71.76 223.4L74.26 223.4M74.26 223.4L71.76 221.52M71.76 221.52L74.26 221.52M74.89 217.77L74.26 217.77M74.26 217.77L74.26 217.3M74.26 217.3L72.38 217.3M72.38 217.3L71.76 216.83M71.76 216.83L71.76 216.36M71.76 216.36L74.26 216.36M74.26 216.36L74.26 217.3M74.26 217.3L74.26 215.89M74.26 215.89L74.89 215.89M73.64 214.95L72.38 214.95M72.38 214.95L71.76 214.48M71.76 214.48L71.76 213.54M71.76 213.54L72.38 213.07M72.38 213.07L71.76 213.07M71.76 213.07L74.26 213.07M74.26 213.07L73.64 213.07M73.64 213.07L74.26 213.54M74.26 213.54L74.26 214.48M74.26 214.48L73.64 214.95M74.26 211.19L71.76 211.19M71.76 211.19L71.76 212.13M71.76 212.13L71.76 210.25M73.64 209.31L72.38 209.31M72.38 209.31L71.76 208.84M71.76 208.84L71.76 207.9M71.76 207.9L72.38 207.43M72.38 207.43L71.76 207.43M71.76 207.43L74.26 207.43M74.26 207.43L73.64 207.43M73.64 207.43L74.26 207.9M74.26 207.9L74.26 208.84M74.26 208.84L73.64 209.31"
fill="none" stroke="black" stroke-width="3"/>
</g>
<g><path d="M74.58 277.26L72.08 275.38M72.08 275.38L74.58 275.38M74.58 275.38L70.82 275.38M70.82 277.26L74.58 277.26M74.58 274.44L72.08 274.44M72.08 274.44L73.33 274.44M73.33 274.44L73.33 272.56M73.33 272.56L72.08 272.56M72.08 272.56L74.58 272.56M74.58 271.62L72.08 271.62M72.08 271.62L72.08 270.68M73.33 270.68L73.33 271.62M73.33 271.62L73.33 270.21M74.58 270.21L74.58 271.62M73.33 270.68L73.14 270.35M73.14 270.35L72.7 270.21M72.7 270.21L72.26 270.35M72.26 270.35L72.08 270.68M74.58 270.21L74.4 269.88M74.4 269.88L73.95 269.74M73.95 269.74L73.51 269.88M73.51 269.88L73.33 270.21M74.58 268.8L73.95 268.8M74.58 265.05L70.82 265.05M70.82 265.05L74.58 263.17M74.58 263.17L70.82 263.17M75.21 259.41L74.58 259.41M74.58 259.41L74.58 258.94M74.58 258.94L72.7 258.94M72.7 258.94L72.08 258.47M72.08 258.47L72.08 258M72.08 258L74.58 258M74.58 258L74.58 258.94M74.58 258.94L74.58 257.53M74.58 257.53L75.21 257.53M73.95 256.59L74.58 256.12M74.58 256.12L74.58 255.18M74.58 255.18L73.95 254.71M73.95 254.71L72.08 254.71M72.08 254.71L73.33 254.71M73.33 254.71L73.33 255.65M73.33 255.65L72.08 256.59M72.08 252.37L72.08 253.78M72.08 253.78L74.58 253.78M74.58 253.78L74.58 252.37M74.58 252.37L73.95 251.9M73.95 251.9L73.33 252.37M73.33 252.37L73.33 253.78M74.58 250.96L72.08 250.02M72.08 250.02L72.08 249.08M72.08 249.08L74.58 249.08M74.58 248.14L73.95 248.14"
fill="none" stroke="black" stroke-width="3"/>
</g>
<g><path d="M74.58 352.94L70.82 352.94M70.82 352.94L70.82 351.06M70.82 351.06L74.58 351.06M73.95 350.12L72.7 350.12M72.7 350.12L72.08 349.65M72.08 349.65L72.08 348.71M72.08 348.71L72.7 348.24M72.7 348.24L73.95 348.24M73.95 348.24L74.58 348.71M74.58 348.71L74.58 349.65M74.58 349.65L73.95 350.12M75.21 347.3L74.58 347.3M74.58 347.3L74.58 346.83M74.58 346.83L72.7 346.83M72.7 346.83L72.08 346.36M72.08 346.36L72.08 345.9M72.08 345.9L74.58 345.9M74.58 345.9L74.58 346.83M74.58 346.83L74.58 345.43M74.58 345.43L75.21 345.43M74.58 344.49L72.08 344.49M72.08 344.49L72.08 342.61M72.08 342.61L74.58 342.61M74.58 341.67L73.95 341.67M72.08 337.91L74.58 337.91M74.58 337.91L72.08 336.03M72.08 336.03L74.58 336.03M75.21 332.28L74.58 332.28M74.58 332.28L74.58 331.81M74.58 331.81L72.7 331.81M72.7 331.81L72.08 331.34M72.08 331.34L72.08 330.87M72.08 330.87L74.58 330.87M74.58 330.87L74.58 331.81M74.58 331.81L74.58 330.4M74.58 330.4L75.21 330.4M73.95 329.46L72.7 329.46M72.7 329.46L72.08 328.99M72.08 328.99L72.08 328.05M72.08 328.05L72.7 327.58M72.7 327.58L72.08 327.58M72.08 327.58L74.58 327.58M74.58 327.58L73.95 327.58M73.95 327.58L74.58 328.05M74.58 328.05L74.58 328.99M74.58 328.99L73.95 329.46M74.58 325.7L72.08 325.7M72.08 325.7L72.08 326.64M72.08 326.64L72.08 324.76M73.95 323.82L72.7 323.82M72.7 323.82L72.08 323.35M72.08 323.35L72.08 322.41M72.08 322.41L72.7 321.94M72.7 321.94L72.08 321.94M72.08 321.94L74.58 321.94M74.58 321.94L73.95 321.94M73.95 321.94L74.58 322.41M74.58 322.41L74.58 323.35M74.58 323.35L73.95 323.82"
fill="none" stroke="black" stroke-width="3"/>
</g>
<g><path d="M74.58 391.38L72.08 389.5M72.08 389.5L74.58 389.5M74.58 389.5L70.82 389.5M70.82 391.38L74.58 391.38M74.58 388.56L72.08 388.56M72.08 388.56L73.33 388.56M73.33 388.56L73.33 386.68M73.33 386.68L72.08 386.68M72.08 386.68L74.58 386.68M74.58 385.74L72.08 385.74M72.08 385.74L72.08 384.8M73.33 384.8L73.33 385.74M73.33 385.74L73.33 384.33M74.58 384.33L74.58 385.74M73.33 384.8L73.14 384.47M73.14 384.47L72.7 384.33M72.7 384.33L72.26 384.47M72.26 384.47L72.08 384.8M74.58 384.33L74.4 384M74.4 384L73.95 383.86M73.95 383.86L73.51 384M73.51 384L73.33 384.33M74.58 382.92L73.95 382.92M74.58 379.17L70.82 379.17M70.82 379.17L74.58 377.29M74.58 377.29L70.82 377.29M74.58 373.53L72.08 373.53M72.08 373.53L72.08 371.65M72.08 371.65L74.58 371.65M73.95 370.71L72.7 370.71M72.7 370.71L72.08 370.24M72.08 370.24L72.08 369.3M72.08 369.3L72.7 368.84M72.7 368.84L73.95 368.84M73.95 368.84L74.58 369.3M74.58 369.3L74.58 370.24M74.58 370.24L73.95 370.71M75.21 367.9L74.58 367.9M74.58 367.9L74.58 367.43M74.58 367.43L72.7 367.43M72.7 367.43L72.08 366.96M72.08 366.96L72.08 366.49M72.08 366.49L74.58 366.49M74.58 366.49L74.58 367.43M74.58 367.43L74.58 366.02M74.58 366.02L75.21 366.02M74.58 365.08L72.08 364.14M72.08 364.14L72.08 363.2M72.08 363.2L74.58 363.2M74.58 362.26L73.95 362.26"
fill="none" stroke="black" stroke-width="3"/>
</g>
<g><path d="M86.42 357.99L88.17 355.66M88.17 355.66L88.17 357.99M88.17 357.99L88.17 354.5M86.42 354.5L86.42 357.99M89.04 356.24L89.48 355.66M89.48 355.66L90.35 355.66M90.35 355.66L90.78 356.24M90.78 356.24L90.35 356.82M90.35 356.82L89.91 356.82M89.91 356.82L90.35 356.82M90.35 356.82L90.78 357.41M90.78 357.41L90.35 357.99M90.35 357.99L89.48 357.99M89.48 357.99L89.04 357.41M91.66 357.99L91.66 355.66M91.66 355.66L92.53 356.82M92.53 356.82L93.4 355.66M93.4 355.66L93.4 357.99M94.27 357.99L94.27 357.41"
fill="none" stroke="black" stroke-width="3"/>
</g>
<g><path d="M96.21 357.96L96.65 357.96M96.65 357.96L97.95 354.47M97.95 354.47L98.39 354.47M98.39 354.47L98.39 357.96M99.26 355.63L99.26 357.96M99.26 357.96L101.01 355.63M101.01 355.63L101.01 357.96M103.62 357.37L103.19 357.96M103.19 357.96L102.32 357.96M102.32 357.96L101.88 357.37M101.88 357.37L101.88 356.21M101.88 356.21L102.32 355.63M102.32 355.63L103.19 355.63M103.19 355.63L103.62 356.21M105.37 357.96L105.37 355.63M105.37 355.63L104.5 355.63M104.5 355.63L106.24 355.63M107.11 357.96L107.11 357.37"
fill="none" stroke="black" stroke-width="3"/>
</g>
<g><path d="M113.73 357.71L113.73 354.22M113.73 354.22L115.48 357.71M115.48 357.71L115.48 354.22M118.97 358.29L118.97 357.71M118.97 357.71L119.4 357.71M119.4 357.71L119.4 355.96M119.4 355.96L119.84 355.38M119.84 355.38L120.27 355.38M120.27 355.38L120.27 357.71M120.27 357.71L119.4 357.71M119.4 357.71L120.71 357.71M120.71 357.71L120.71 358.29M121.58 357.13L121.58 355.96M121.58 355.96L122.02 355.38M122.02 355.38L122.89 355.38M122.89 355.38L123.33 355.96M123.33 355.96L123.33 357.13M123.33 357.13L122.89 357.71M122.89 357.71L122.02 357.71M122.02 357.71L121.58 357.13M124.2 357.71L124.2 355.38M124.2 355.38L124.2 356.55M124.2 356.55L125.07 356.55M125.07 356.55L125.94 355.38M125.94 355.38L125.07 356.55M125.07 356.55L125.94 357.71M126.82 357.13L127.25 357.71M127.25 357.71L128.12 357.71M128.12 357.71L128.56 357.13M128.56 357.13L128.56 355.38M128.56 355.38L128.56 356.55M128.56 356.55L127.69 356.55M127.69 356.55L126.82 355.38M129.43 357.71L129.43 355.38M129.43 355.38L130.31 356.55M130.31 356.55L131.18 355.38M131.18 355.38L131.18 357.71M132.05 357.71L132.05 357.13"
fill="none" stroke="black" stroke-width="3"/>
</g>
<g><path d="M144.06 357.32L144.06 353.83M144.06 353.83L145.8 353.83M145.8 353.83L145.8 357.32M146.67 356.74L146.67 355.58M146.67 355.58L147.11 355M147.11 355L147.98 355M147.98 355L148.42 355.58M148.42 355.58L148.42 356.74M148.42 356.74L147.98 357.32M147.98 357.32L147.11 357.32M147.11 357.32L146.67 356.74M149.29 357.9L149.29 357.32M149.29 357.32L149.73 357.32M149.73 357.32L149.73 355.58M149.73 355.58L150.16 355M150.16 355L150.6 355M150.6 355L150.6 357.32M150.6 357.32L149.73 357.32M149.73 357.32L151.03 357.32M151.03 357.32L151.03 357.9M151.91 357.32L151.91 355M151.91 355L153.65 355M153.65 355L153.65 357.32M154.52 357.32L154.52 356.74"
fill="none" stroke="black" stroke-width="3"/>
</g>
<g><path d="M286.15 397.25L286.15 393.5M286.15 393.5L285.68 393.5M285.68 393.5L285.21 394.12M285.21 394.12L285.21 395.38M285.21 395.38L285.68 396M285.68 396L286.62 396M286.62 396L287.09 395.38M287.09 395.38L287.09 394.12M287.09 394.12L286.62 393.5M286.62 393.5L286.15 393.5M288.03 396.63L288.03 395.38M288.03 395.38L288.5 394.75M288.5 394.75L289.44 394.75M289.44 394.75L289.9 395.38M289.9 395.38L289.9 396.63M289.9 396.63L289.44 397.25M289.44 397.25L288.5 397.25M288.5 397.25L288.03 396.63M290.84 397.25L290.84 394.75M290.84 394.75L292.25 394.75M292.25 394.75L292.72 395.38M292.72 395.38L292.72 396M292.72 396L292.25 396.63M292.25 396.63L290.84 396.63M293.66 397.25L293.66 394.75M293.66 394.75L294.6 396M294.6 396L295.54 394.75M295.54 394.75L295.54 397.25M296.48 396.63L296.48 395.38M296.48 395.38L296.95 394.75M296.95 394.75L297.89 394.75M297.89 394.75L298.36 395.38M298.36 395.38L298.36 394.75M298.36 394.75L298.36 397.25M298.36 397.25L298.36 396.63M298.36 396.63L297.89 397.25M297.89 397.25L296.95 397.25M296.95 397.25L296.48 396.63M300.24 397.25L300.24 394.75M300.24 394.75L299.3 394.75M299.3 394.75L301.18 394.75M304.93 397.25L304.93 396M304.93 396L305.87 393.5M305.87 393.5L306.81 396M306.81 396L306.81 397.25M304.93 396L306.81 396M309.63 396L307.75 396M307.75 396L309.16 393.5M309.16 393.5L309.16 397.25"
fill="none" stroke="black" stroke-width="3"/>
</g>
<g><path d="M269.6 364.08L270.07 364.08M270.07 364.08L271.48 360.32M271.48 360.32L271.95 360.32M271.95 360.32L271.95 364.08M272.89 361.58L272.89 364.08M272.89 364.08L274.77 361.58M274.77 361.58L274.77 364.08M276.65 364.08L276.65 361.58M276.65 361.58L275.71 361.58M275.71 361.58L277.59 361.58M278.53 362.83L279.94 362.83M279.94 362.83L280.41 362.2M280.41 362.2L279.94 361.58M279.94 361.58L279 361.58M279 361.58L278.53 362.2M278.53 362.2L278.53 363.45M278.53 363.45L279 364.08M279 364.08L279.94 364.08M281.34 364.08L281.34 361.58M281.34 361.58L282.75 361.58M282.75 361.58L283.22 362.2M283.22 362.2L283.22 362.83M283.22 362.83L282.75 363.45M282.75 363.45L281.34 363.45M284.16 364.08L284.16 363.45"
fill="none" stroke="black" stroke-width="3"/>
</g>
<g><path d="M296.16 371.1L298.04 371.1"
fill="none" stroke="black" stroke-width="3"/>
</g>
<g><path d="M320.25 371.1L322.12 371.1"
fill="none" stroke="black" stroke-width="3"/>
</g>
<g><path d="M269.79 370.47L269.79 369.22M269.79 369.22L270.26 368.59M270.26 368.59L271.2 368.59M271.2 368.59L271.67 369.22M271.67 369.22L271.67 368.59M271.67 368.59L271.67 371.1M271.67 371.1L271.67 370.47M271.67 370.47L271.2 371.1M271.2 371.1L270.26 371.1M270.26 371.1L269.79 370.47"
fill="none" stroke="black" stroke-width="3"/>
</g>
<g><path d="M290.59 364.08L291.06 364.08M291.06 364.08L292.47 360.32M292.47 360.32L292.94 360.32M292.94 360.32L292.94 364.08M293.88 361.58L293.88 364.08M293.88 364.08L295.76 361.58M295.76 361.58L295.76 364.08M298.57 363.45L298.1 364.08M298.1 364.08L297.16 364.08M297.16 364.08L296.69 363.45M296.69 363.45L296.69 362.2M296.69 362.2L297.16 361.58M297.16 361.58L298.1 361.58M298.1 361.58L298.57 362.2M300.45 364.08L300.45 361.58M300.45 361.58L299.51 361.58M299.51 361.58L301.39 361.58M302.33 364.08L302.33 363.45"
fill="none" stroke="black" stroke-width="3"/>
</g>
<g><path d="M311.82 364.08L312.29 364.08M312.29 364.08L313.7 360.32M313.7 360.32L314.17 360.32M314.17 360.32L314.17 364.08M315.11 361.58L315.11 364.08M315.11 364.08L316.99 361.58M316.99 361.58L316.99 364.08M319.8 363.45L319.33 364.08M319.33 364.08L318.39 364.08M318.39 364.08L317.92 363.45M317.92 363.45L317.92 362.2M317.92 362.2L318.39 361.58M318.39 361.58L319.33 361.58M319.33 361.58L319.8 362.2M321.68 364.08L321.68 361.58M321.68 361.58L320.74 361.58M320.74 361.58L322.62 361.58M323.56 363.45L323.56 362.2M323.56 362.2L324.03 361.58M324.03 361.58L324.97 361.58M324.97 361.58L325.44 362.2M325.44 362.2L325.44 363.45M325.44 363.45L324.97 364.08M324.97 364.08L324.03 364.08M324.03 364.08L323.56 363.45M326.38 364.08L326.38 361.58M326.38 361.58L327.32 361.58M327.32 362.83L326.38 362.83M326.38 362.83L327.79 362.83M327.79 364.08L326.38 364.08M327.32 362.83L327.65 362.65M327.65 362.65L327.79 362.2M327.79 362.2L327.65 361.76M327.65 361.76L327.32 361.58M327.79 364.08L328.12 363.9M328.12 363.9L328.26 363.45M328.26 363.45L328.12 363.01M328.12 363.01L327.79 362.83M329.2 364.08L329.2 363.45"
fill="none" stroke="black" stroke-width="3"/>
</g>
<g><path d="M160.49 357.75L160.49 357.19M160.49 357.19L162.58 357.19M162.58 357.19L162.58 353.83M162.58 353.83L161.75 353.83M161.75 353.83L160.91 356.07M160.91 356.07L160.91 357.19M160.91 357.19L163 357.19M163 357.19L163 357.75M163.84 356.63L163.84 355.51M163.84 355.51L164.26 354.95M164.26 354.95L165.1 354.95M165.1 354.95L165.52 355.51M165.52 355.51L165.52 354.95M165.52 354.95L165.52 357.19M165.52 357.19L165.52 356.63M165.52 356.63L165.1 357.19M165.1 357.19L164.26 357.19M164.26 357.19L163.84 356.63M167.2 357.19L167.2 354.95M167.2 354.95L166.36 354.95M166.36 354.95L168.04 354.95M168.87 356.63L168.87 355.51M168.87 355.51L169.29 354.95M169.29 354.95L170.13 354.95M170.13 354.95L170.55 355.51M170.55 355.51L170.55 354.95M170.55 354.95L170.55 357.19M170.55 357.19L170.55 356.63M170.55 356.63L170.13 357.19M170.13 357.19L169.29 357.19M169.29 357.19L168.87 356.63"
fill="none" stroke="black" stroke-width="3"/>
</g>
<g><path d="M191.36 378.25L194.72 378.25"
fill="none" stroke="black" stroke-width="3"/>
</g>
<g><path d="M202.21 354.91L206.91 354.91"
fill="none" stroke="black" stroke-width="3"/>
</g>
<g><path d="M85.94 26.23L179.87 26.23"
fill="none" stroke="black" stroke-width="9"/>
</g>
<g><path d="M179.87 26.23L179.87 7.44"
fill="none" stroke="black" stroke-width="9"/>
</g>
<g><path d="M175.86 11.73L172.51 11.73"
fill="none" stroke="black" stroke-width="3"/>
</g>
<g><path d="M87.37 364.13L87.37 360.37M87.37 360.37L88.78 360.37M88.78 360.37L89.25 361M89.25 361L89.25 361.63M89.25 361.63L88.78 362.25M88.78 362.25L87.37 362.25M90.19 363.51L90.19 362.25M90.19 362.25L90.66 361.63M90.66 361.63L91.6 361.63M91.6 361.63L92.07 362.25M92.07 362.25L92.07 361.63M92.07 361.63L92.07 364.13M92.07 364.13L92.07 363.51M92.07 363.51L91.6 364.13M91.6 364.13L90.66 364.13M90.66 364.13L90.19 363.51M93.01 362.25L93.48 361.63M93.48 361.63L94.42 361.63M94.42 361.63L94.89 362.25M94.89 362.25L94.42 362.88M94.42 362.88L93.95 362.88M93.95 362.88L94.42 362.88M94.42 362.88L94.89 363.51M94.89 363.51L94.42 364.13M94.42 364.13L93.48 364.13M93.48 364.13L93.01 363.51M95.83 364.13L95.83 361.63M95.83 361.63L97.24 361.63M97.24 361.63L97.71 362.25M97.71 362.25L97.71 362.88M97.71 362.88L97.24 363.51M97.24 363.51L95.83 363.51M98.65 363.51L98.65 362.25M98.65 362.25L99.12 361.63M99.12 361.63L100.06 361.63M100.06 361.63L100.52 362.25M100.52 362.25L100.52 361.63M100.52 361.63L100.52 364.13M100.52 364.13L100.52 363.51M100.52 363.51L100.06 364.13M100.06 364.13L99.12 364.13M99.12 364.13L98.65 363.51M102.87 361.63L101.46 361.63M101.46 361.63L101.46 364.13M101.46 364.13L102.87 364.13M102.87 364.13L103.34 363.51M103.34 363.51L102.87 362.88M102.87 362.88L101.46 362.88M104.28 364.13L104.28 363.51"
fill="none" stroke="black" stroke-width="3"/>
</g>
<g><path d="M87.39 371.09L87.39 367.33M87.39 367.33L89.26 367.33M89.26 367.33L89.26 371.09M90.2 371.09L90.2 368.58M90.2 368.58L91.61 368.58M91.61 368.58L92.08 369.21M92.08 369.21L92.08 369.84M92.08 369.84L91.61 370.46M91.61 370.46L90.2 370.46M93.02 370.46L93.02 369.21M93.02 369.21L93.49 368.58M93.49 368.58L94.43 368.58M94.43 368.58L94.9 369.21M94.9 369.21L94.9 370.46M94.9 370.46L94.43 371.09M94.43 371.09L93.49 371.09M93.49 371.09L93.02 370.46M95.84 371.09L95.84 368.58M95.84 368.58L96.78 368.58M96.78 369.84L95.84 369.84M95.84 369.84L97.25 369.84M97.25 371.09L95.84 371.09M96.78 369.84L97.11 369.65M97.11 369.65L97.25 369.21M97.25 369.21L97.11 368.77M97.11 368.77L96.78 368.58M97.25 371.09L97.58 370.9M97.58 370.9L97.72 370.46M97.72 370.46L97.58 370.02M97.58 370.02L97.25 369.84M98.66 371.09L98.66 370.46"
fill="none" stroke="black" stroke-width="3"/>
</g>
<g><path d="M87.39 384.51L87.39 380.75M87.39 382.63L89.26 382.63M89.26 380.75L89.26 384.51M90.2 384.51L90.2 383.88M91.14 384.51L91.14 382M91.14 382L91.14 383.25M91.14 383.25L92.08 383.25M92.08 383.25L93.02 382M93.02 382L92.08 383.25M92.08 383.25L93.02 384.51M93.96 383.88L93.96 382.63M93.96 382.63L94.43 382M94.43 382L95.37 382M95.37 382L95.84 382.63M95.84 382.63L95.84 383.88M95.84 383.88L95.37 384.51M95.37 384.51L94.43 384.51M94.43 384.51L93.96 383.88M96.78 384.51L96.78 382M96.78 382L96.78 383.25M96.78 383.25L98.66 383.25M98.66 383.25L98.66 382M98.66 382L98.66 384.51M100.54 384.51L100.54 382M100.54 382L99.6 382M99.6 382L101.47 382M102.41 384.51L102.41 382M102.41 382L103.82 382M103.82 382L104.29 382.63M104.29 382.63L104.29 383.25M104.29 383.25L103.82 383.88M103.82 383.88L102.41 383.88M105.23 384.51L105.23 383.88"
fill="none" stroke="black" stroke-width="3"/>
</g>
<g><path d="M87.39 390.59L87.85 391.22M87.85 391.22L88.79 391.22M88.79 391.22L89.26 390.59M89.26 390.59L89.26 387.46M89.26 387.46L89.26 389.96M89.26 389.96L87.85 389.96M87.85 389.96L87.39 389.34M87.39 389.34L87.39 387.46M91.14 391.22L91.14 388.71M91.14 388.71L90.2 388.71M90.2 388.71L92.08 388.71M93.02 391.22L93.02 388.71M93.02 388.71L93.96 388.71M93.96 389.96L93.02 389.96M93.02 389.96L94.43 389.96M94.43 391.22L93.02 391.22M93.96 389.96L94.29 389.78M94.29 389.78L94.43 389.34M94.43 389.34L94.29 388.89M94.29 388.89L93.96 388.71M94.43 391.22L94.76 391.03M94.76 391.03L94.9 390.59M94.9 390.59L94.76 390.15M94.76 390.15L94.43 389.96M95.84 391.22L95.84 390.59"
fill="none" stroke="black" stroke-width="3"/>
</g>
<g><path d="M337.07 392.46L335.46 392.46M335.46 391.66L336.27 392.26M336.27 392.26L336.27 392.46M336.27 392.26L337.07 391.66M337.07 391.25L335.46 391.25M335.46 391.25L335.46 390.45M335.46 390.45L337.07 390.45M337.07 390.45L337.07 391.25M337.07 390.05L335.46 390.05M335.46 390.05L337.07 389.24M337.07 389.24L335.46 389.24M336.8 388.84L337.07 388.64M337.07 388.64L337.07 388.23M337.07 388.23L336.8 388.03M336.8 388.03L335.73 388.84M335.73 388.84L335.46 388.64M335.46 388.64L335.46 388.23M335.46 388.23L335.73 388.03M337.07 387.63L335.46 387.63M335.46 387.63L335.46 386.83M336.27 387.63L336.27 387.23M337.07 387.63L337.07 386.83M337.07 386.42L335.46 385.62M335.46 386.42L337.07 385.62M337.07 385.22L335.46 385.22M335.46 385.22L335.46 384.61M335.46 384.61L335.73 384.41M335.73 384.41L336 384.41M336 384.41L336.27 384.61M336.27 384.61L336.27 385.22M337.07 384.01L335.46 384.01M335.46 384.01L335.46 383.2M336.27 384.01L336.27 383.6M337.07 384.01L337.07 383.2M337.07 382.8L335.46 382.8M335.46 382.8L335.46 382.2M335.46 382.2L335.73 381.99M335.73 381.99L336 381.99M336 381.99L336.27 382.2M336.27 382.2L336.27 382.8M336.27 382.6L337.07 381.99M335.46 381.59L335.46 380.79M335.46 381.19L337.07 381.19M336.53 378.37L337.07 378.77M337.07 378.77L337.07 378.98M337.07 378.98L336.8 379.18M336.8 379.18L336.53 379.18M336.53 379.18L336 378.77M336 378.77L335.73 378.77M335.73 378.77L335.46 378.98M335.46 378.98L335.73 379.18M335.73 379.18L336 379.18M336 379.18L337.07 378.37M337.07 376.76L335.46 376.76M335.46 376.76L335.46 376.16M335.46 376.16L335.73 375.96M335.73 375.96L336 375.96M336 375.96L336.27 376.16M336.27 376.16L336.27 376.76M336.27 376.56L337.07 375.96M335.46 375.55L335.46 375.15M335.46 375.35L337.07 375.35M337.07 375.55L337.07 375.15M337.07 374.75L337.07 374.14M337.07 374.14L336.8 373.94M336.8 373.94L336.53 373.94M336.53 373.94L336.27 374.14M336.27 374.14L336.27 374.55M336.27 374.14L336 373.94M336 373.94L335.73 373.94M335.73 373.94L335.46 374.14M335.46 374.14L335.46 374.75M335.46 374.55L337.07 374.55M337.07 373.54L337.07 372.94M337.07 372.94L336.8 372.74M336.8 372.74L336.53 372.74M336.53 372.74L336.27 372.94M336.27 372.94L336.27 373.34M336.27 372.94L336 372.74M336 372.74L335.73 372.74M335.73 372.74L335.46 372.94M335.46 372.94L335.46 373.54M335.46 373.34L337.07 373.34M337.07 372.33L335.46 372.33M335.46 372.33L335.46 371.53M335.46 371.53L337.07 371.53M337.07 371.53L337.07 372.33M337.07 371.13L335.46 371.13M335.46 371.13L337.07 370.32M337.07 370.32L335.46 370.32M336.8 369.92L337.07 369.72M337.07 369.72L337.07 369.31M337.07 369.31L336.8 369.11M336.8 369.11L335.73 369.92M335.73 369.92L335.46 369.72M335.46 369.72L335.46 369.31M335.46 369.31L335.73 369.11M337.07 368.71L335.46 368.71M335.46 368.71L335.46 367.9M335.46 367.9L337.07 367.9M337.07 367.9L337.07 368.71M337.07 367.5L335.46 367.5M335.46 367.5L335.46 366.7M336.27 367.5L336.27 367.1M335.46 366.29L335.46 365.49M335.46 365.89L337.07 365.89"
fill="none" stroke="black" stroke-width="3"/>
</g>
<g><path d="M339.5 389.71L337.89 389.71M337.89 389.71L337.89 388.9M337.89 388.9L339.5 388.9M339.5 388.9L339.5 389.71M339.5 388.5L337.89 388.5M337.89 388.5L337.89 387.89M337.89 387.89L338.16 387.69M338.16 387.69L338.43 387.69M338.43 387.69L338.7 387.89M338.7 387.89L338.7 388.5M339.5 387.29L337.89 387.29M337.89 387.29L337.89 386.49M338.7 387.29L338.7 386.89M339.5 387.29L339.5 386.49M339.5 386.08L337.89 386.08M337.89 386.08L339.5 385.28M339.5 385.28L337.89 385.28M339.23 383.67L339.5 383.47M339.5 383.47L339.5 383.06M339.5 383.06L339.23 382.86M339.23 382.86L338.16 383.67M338.16 383.67L337.89 383.47M337.89 383.47L337.89 383.06M337.89 383.06L338.16 382.86M339.5 382.46L337.89 382.46M337.89 382.46L337.89 381.66M337.89 381.66L339.5 381.66M339.5 381.66L339.5 382.46M337.89 381.25L339.23 381.25M339.23 381.25L339.5 381.05M339.5 381.05L339.5 380.65M339.5 380.65L339.23 380.45M339.23 380.45L337.89 380.45M339.5 380.05L337.89 380.05M337.89 380.05L337.89 379.44M337.89 379.44L338.16 379.24M338.16 379.24L338.43 379.24M338.43 379.24L338.7 379.44M338.7 379.44L338.7 380.05M338.7 379.84L339.5 379.24M339.23 378.03L339.5 378.23M339.5 378.23L339.5 378.64M339.5 378.64L339.23 378.84M339.23 378.84L338.16 378.84M338.16 378.84L337.89 378.64M337.89 378.64L337.89 378.23M337.89 378.23L338.16 378.03M339.5 377.63L337.89 377.63M337.89 377.63L337.89 376.82M338.7 377.63L338.7 377.23M339.5 377.63L339.5 376.82M339.5 375.21L337.89 375.21M337.89 375.21L337.89 374.61M337.89 374.61L338.16 374.41M338.16 374.41L338.43 374.41M338.43 374.41L338.7 374.61M338.7 374.61L338.7 375.21M338.7 375.01L339.5 374.41M339.5 374.01L337.89 374.01M337.89 374.01L337.89 373.2M338.7 374.01L338.7 373.6M339.5 374.01L339.5 373.2M337.89 372.8L339.5 372.8M339.5 372.8L339.5 371.99M339.5 371.59L337.89 371.59M337.89 371.59L337.89 370.79M338.7 371.59L338.7 371.19M339.5 371.59L339.5 370.79M339.5 370.38L338.96 370.38M338.96 370.38L337.89 369.98M337.89 369.98L338.96 369.58M338.96 369.58L339.5 369.58M338.96 370.38L338.96 369.58M339.23 369.18L339.5 368.97M339.5 368.97L339.5 368.57M339.5 368.57L339.23 368.37M339.23 368.37L338.16 369.18M338.16 369.18L337.89 368.97M337.89 368.97L337.89 368.57M337.89 368.57L338.16 368.37M339.5 367.97L337.89 367.97M337.89 367.97L337.89 367.16M338.7 367.97L338.7 367.57M339.5 367.97L339.5 367.16"
fill="none" stroke="black" stroke-width="3"/>
</g>
<g><path d="M269.6 383.54L271.48 383.54"
fill="none" stroke="black" stroke-width="3"/>
</g>
<g><path d="M75.24 310.15L75.24 308.74M75.24 308.74L74.62 308.27M74.62 308.27L73.99 308.27M73.99 308.27L73.37 308.74M73.37 308.74L73.37 309.68M73.37 308.74L72.74 308.27M72.74 308.27L72.11 308.27M72.11 308.27L71.49 308.74M71.49 308.74L71.49 310.15M71.49 309.68L75.24 309.68M73.37 307.33L72.74 306.86M72.74 306.86L72.74 305.92M72.74 305.92L73.37 305.45M73.37 305.45L73.99 305.92M73.99 305.92L73.99 306.39M73.99 306.39L73.99 305.92M73.99 305.92L74.62 305.45M74.62 305.45L75.24 305.92M75.24 305.92L75.24 306.86M75.24 306.86L74.62 307.33M74.62 304.51L73.37 304.51M73.37 304.51L72.74 304.04M72.74 304.04L72.74 303.1M72.74 303.1L73.37 302.63M73.37 302.63L72.74 302.63M72.74 302.63L75.24 302.63M75.24 302.63L74.62 302.63M74.62 302.63L75.24 303.1M75.24 303.1L75.24 304.04M75.24 304.04L74.62 304.51M75.24 301.69L72.74 301.69M72.74 301.69L73.99 300.76M73.99 300.76L72.74 299.82M72.74 299.82L75.24 299.82M75.24 298.88L74.62 298.88M72.74 295.12L75.24 295.12M75.24 295.12L72.74 293.24M72.74 293.24L75.24 293.24M75.24 292.3L72.74 292.3M72.74 292.3L73.99 292.3M73.99 292.3L73.99 290.42M73.99 290.42L72.74 290.42M72.74 290.42L75.24 290.42M75.24 289.48L72.74 289.48M72.74 289.48L72.74 288.54M73.99 288.54L73.99 289.48M73.99 289.48L73.99 288.07M75.24 288.07L75.24 289.48M73.99 288.54L73.81 288.21M73.81 288.21L73.37 288.07M73.37 288.07L72.92 288.21M72.92 288.21L72.74 288.54M75.24 288.07L75.06 287.74M75.06 287.74L74.62 287.6M74.62 287.6L74.18 287.74M74.18 287.74L73.99 288.07M75.24 286.67L74.62 286.67M75.24 285.73L71.49 285.73M71.49 285.73L75.24 283.85M75.24 283.85L71.49 283.85"
fill="none" stroke="black" stroke-width="3"/>
</g>
</g>
</svg>
