<?xml version="1.0" standalone="no"?><svg xmlns="http://www.w3.org/2000/svg" width="400.000" height="400.000" viewBox="0.0 0.0 400.000 400.000" version="1.1">
  <title>Produce by Acme CAD Converter</title>
  <desc>Produce by Acme CAD Converter</desc>
<g id="0" display="visible">
<g><path d="M85.94 7.44L334.19 7.44"
fill="none" stroke="black" stroke-width="9"/>
</g>
<g><path d="M85.94 7.44L69.84 7.44"
fill="none" stroke="black" stroke-width="9"/>
</g>
<g><path d="M85.94 168.47L69.84 168.47"
fill="none" stroke="black" stroke-width="9"/>
</g>
<g><path d="M85.94 87.95L69.84 87.95"
fill="none" stroke="black" stroke-width="9"/>
</g>
<g><path d="M85.94 197.99L69.84 197.99"
fill="none" stroke="black" stroke-width="9"/>
</g>
<g><path d="M69.84 392.56L69.84 197.99"
fill="none" stroke="black" stroke-width="9"/>
</g>
<g><path d="M85.94 244.95L69.84 244.95"
fill="none" stroke="black" stroke-width="9"/>
</g>
<g><path d="M85.94 278.5L69.84 278.5"
fill="none" stroke="black" stroke-width="9"/>
</g>
<g><path d="M85.94 312.05L69.84 312.05"
fill="none" stroke="black" stroke-width="9"/>
</g>
<g><path d="M85.94 359.01L69.84 359.01"
fill="none" stroke="black" stroke-width="9"/>
</g>
<g><path d="M85.94 392.56L69.84 392.56"
fill="none" stroke="black" stroke-width="9"/>
</g>
<g><path d="M334.19 392.56L85.94 392.56"
fill="none" stroke="black" stroke-width="9"/>
</g>
<g><path d="M95.33 352.3L95.33 318.75"
fill="none" stroke="black" stroke-width="9"/>
</g>
<g><path d="M108.75 392.56L108.75 318.75"
fill="none" stroke="black" stroke-width="9"/>
</g>
<g><path d="M139.62 392.56L139.62 318.75"
fill="none" stroke="black" stroke-width="9"/>
</g>
<g><path d="M159.74 392.56L159.74 318.75"
fill="none" stroke="black" stroke-width="9"/>
</g>
<g><path d="M173.16 392.56L173.16 318.75"
fill="none" stroke="black" stroke-width="9"/>
</g>
<g><path d="M173.16 338.88L85.94 338.88"
fill="none" stroke="black" stroke-width="3"/>
</g>
<g><path d="M173.16 332.17L85.94 332.17"
fill="none" stroke="black" stroke-width="3"/>
</g>
<g><path d="M173.16 325.46L85.94 325.46"
fill="none" stroke="black" stroke-width="3"/>
</g>
<g><path d="M173.16 345.59L85.94 345.59"
fill="none" stroke="black" stroke-width="9"/>
</g>
<g><path d="M173.16 352.3L85.94 352.3"
fill="none" stroke="black" stroke-width="9"/>
</g>
<g><path d="M173.16 359.01L85.94 359.01"
fill="none" stroke="black" stroke-width="3"/>
</g>
<g><path d="M173.16 365.72L85.94 365.72"
fill="none" stroke="black" stroke-width="3"/>
</g>
<g><path d="M173.16 379.14L85.94 379.14"
fill="none" stroke="black" stroke-width="3"/>
</g>
<g><path d="M173.16 385.85L85.94 385.85"
fill="none" stroke="black" stroke-width="3"/>
</g>
<g><path d="M76.55 392.56L76.55 197.99"
fill="none" stroke="black" stroke-width="3"/>
</g>
<g><path d="M160.41 351.27L160.41 350.69M160.41 350.69L162.59 350.69M162.59 350.69L162.59 347.2M162.59 347.2L161.72 347.2M161.72 347.2L160.85 349.53M160.85 349.53L160.85 350.69M160.85 350.69L163.03 350.69M163.03 350.69L163.03 351.27M163.9 350.11L163.9 348.95M163.9 348.95L164.34 348.36M164.34 348.36L165.21 348.36M165.21 348.36L165.65 348.95M165.65 348.95L165.65 348.36M165.65 348.36L165.65 350.69M165.65 350.69L165.65 350.11M165.65 350.11L165.21 350.69M165.21 350.69L164.34 350.69M164.34 350.69L163.9 350.11M167.39 350.69L167.39 348.36M167.39 348.36L166.52 348.36M166.52 348.36L168.26 348.36M169.14 350.11L169.14 348.95M169.14 348.95L169.57 348.36M169.57 348.36L170.44 348.36M170.44 348.36L170.88 348.95M170.88 348.95L170.88 348.36M170.88 348.36L170.88 350.69M170.88 350.69L170.88 350.11M170.88 350.11L170.44 350.69M170.44 350.69L169.57 350.69M169.57 350.69L169.14 350.11"
fill="none" stroke="black" stroke-width="3"/>
</g>
<g><path d="M334.19 338.88L173.16 338.88"
fill="none" stroke="black" stroke-width="9"/>
</g>
<g><path d="M334.19 372.43L173.16 372.43"
fill="none" stroke="black" stroke-width="9"/>
</g>
<g><path d="M267.09 392.56L267.09 338.88"
fill="none" stroke="black" stroke-width="9"/>
</g>
<g><path d="M334.19 345.59L267.09 345.59"
fill="none" stroke="black" stroke-width="9"/>
</g>
<g><path d="M334.19 365.72L267.09 365.72"
fill="none" stroke="black" stroke-width="9"/>
</g>
<g><path d="M334.19 7.44L334.19 392.56"
fill="none" stroke="black" stroke-width="9"/>
</g>
<g><path d="M293.93 372.43L293.93 365.72"
fill="none" stroke="black" stroke-width="9"/>
</g>
<g><path d="M287.22 365.72L287.22 338.88"
fill="none" stroke="black" stroke-width="9"/>
</g>
<g><path d="M310.03 365.72L310.03 338.88"
fill="none" stroke="black" stroke-width="9"/>
</g>
<g><path d="M273.8 365.72L273.8 345.59"
fill="none" stroke="black" stroke-width="3"/>
</g>
<g><path d="M280.51 365.72L280.51 345.59"
fill="none" stroke="black" stroke-width="3"/>
</g>
<g><path d="M59.1 0.73L340.9 0.73"
fill="none" stroke="black" stroke-width="3"/>
</g>
<g><path d="M340.9 0.73L340.9 399.27"
fill="none" stroke="black" stroke-width="3"/>
</g>
<g><path d="M340.9 399.27L59.1 399.27"
fill="none" stroke="black" stroke-width="3"/>
</g>
<g><path d="M76.55 168.47L76.55 7.44"
fill="none" stroke="black" stroke-width="3"/>
</g>
<g><path d="M85.94 392.56L85.94 7.44"
fill="none" stroke="black" stroke-width="9"/>
</g>
<g><path d="M69.84 168.47L69.84 7.44"
fill="none" stroke="black" stroke-width="9"/>
</g>
<g><path d="M59.1 399.27L59.1 0.73"
fill="none" stroke="black" stroke-width="3"/>
</g>
<g><path d="M85.94 26.23L179.87 26.23"
fill="none" stroke="black" stroke-width="9"/>
</g>
<g><path d="M179.87 26.23L179.87 7.44"
fill="none" stroke="black" stroke-width="9"/>
</g>
<g><path d="M334.19 318.75L85.94 318.75"
fill="none" stroke="black" stroke-width="9"/>
</g>
<g><path d="M173.16 372.43L85.94 372.43"
fill="none" stroke="black" stroke-width="3"/>
</g>
<g><path d="M291.08 343.85L291.08 340.1M291.08 340.1L292.02 342.6M292.02 342.6L292.96 340.1M292.96 340.1L292.96 343.85M293.9 343.23L293.9 341.98M293.9 341.98L294.37 341.35M294.37 341.35L295.31 341.35M295.31 341.35L295.78 341.98M295.78 341.98L295.78 341.35M295.78 341.35L295.78 343.85M295.78 343.85L295.78 343.23M295.78 343.23L295.31 343.85M295.31 343.85L294.37 343.85M294.37 343.85L293.9 343.23M298.6 343.23L298.13 343.85M298.13 343.85L297.19 343.85M297.19 343.85L296.72 343.23M296.72 343.23L296.72 341.98M296.72 341.98L297.19 341.35M297.19 341.35L298.13 341.35M298.13 341.35L298.6 341.98M301.41 343.23L300.94 343.85M300.94 343.85L300 343.85M300 343.85L299.54 343.23M299.54 343.23L299.54 341.98M299.54 341.98L300 341.35M300 341.35L300.94 341.35M300.94 341.35L301.41 341.98M302.35 343.23L302.35 341.98M302.35 341.98L302.82 341.35M302.82 341.35L303.76 341.35M303.76 341.35L304.23 341.98M304.23 341.98L304.23 341.35M304.23 341.35L304.23 343.85M304.23 343.85L304.23 343.23M304.23 343.23L303.76 343.85M303.76 343.85L302.82 343.85M302.82 343.85L302.35 343.23"
fill="none" stroke="black" stroke-width="3"/>
</g>
<g><path d="M310.82 343.93L310.82 340.18M310.82 340.18L311.76 342.68M311.76 342.68L312.7 340.18M312.7 340.18L312.7 343.93M313.64 343.31L313.64 342.05M313.64 342.05L314.11 341.43M314.11 341.43L315.04 341.43M315.04 341.43L315.51 342.05M315.51 342.05L315.51 341.43M315.51 341.43L315.51 343.93M315.51 343.93L315.51 343.31M315.51 343.31L315.04 343.93M315.04 343.93L314.11 343.93M314.11 343.93L313.64 343.31M318.33 343.31L317.86 343.93M317.86 343.93L316.92 343.93M316.92 343.93L316.45 343.31M316.45 343.31L316.45 342.05M316.45 342.05L316.92 341.43M316.92 341.43L317.86 341.43M317.86 341.43L318.33 342.05M319.27 343.93L319.27 341.43M319.27 341.43L319.27 343.93M319.27 343.93L320.21 343.93M320.21 343.93L320.21 342.68M320.21 342.68L320.21 343.93M320.21 343.93L321.15 343.93M321.15 343.93L321.15 341.43M323.03 343.93L323.03 341.43M323.03 341.43L322.09 341.43M322.09 341.43L323.97 341.43M324.91 343.31L324.91 342.05M324.91 342.05L325.38 341.43M325.38 341.43L326.32 341.43M326.32 341.43L326.79 342.05M326.79 342.05L326.79 341.43M326.79 341.43L326.79 343.93M326.79 343.93L326.79 343.31M326.79 343.31L326.32 343.93M326.32 343.93L325.38 343.93M325.38 343.93L324.91 343.31M329.13 341.43L327.73 341.43M327.73 341.43L327.73 343.93M327.73 343.93L329.13 343.93M329.13 343.93L329.6 343.31M329.6 343.31L329.13 342.68M329.13 342.68L327.73 342.68"
fill="none" stroke="black" stroke-width="3"/>
</g>
<g><path d="M318.31 352.83L318.98 351.93M318.98 351.93L318.98 357.3M318.31 357.3L319.65 357.3M321 353.72L321 354.61M321 355.51L321 356.4M322.34 352.83L323.01 351.93M323.01 351.93L323.01 357.3M322.34 357.3L323.68 357.3"
fill="none" stroke="black" stroke-width="3"/>
</g>
<g><path d="M294.77 358.67L297.45 358.67"
fill="none" stroke="black" stroke-width="3"/>
</g>
<g><path d="M268.93 358.59L271.62 358.59"
fill="none" stroke="black" stroke-width="3"/>
</g>
<g><path d="M269.34 370.64L269.81 370.64M269.81 370.64L271.22 366.88M271.22 366.88L271.69 366.88M271.69 366.88L271.69 370.64M272.63 368.14L272.63 370.64M272.63 370.64L274.51 368.14M274.51 368.14L274.51 370.64M277.33 370.01L276.86 370.64M276.86 370.64L275.92 370.64M275.92 370.64L275.45 370.01M275.45 370.01L275.45 368.76M275.45 368.76L275.92 368.14M275.92 368.14L276.86 368.14M276.86 368.14L277.33 368.76M279.21 370.64L279.21 368.14M279.21 368.14L278.27 368.14M278.27 368.14L280.14 368.14"
fill="none" stroke="black" stroke-width="3"/>
</g>
<g><path d="M296.11 370.44L296.58 370.44M296.58 370.44L297.99 366.68M297.99 366.68L298.46 366.68M298.46 366.68L298.46 370.44M299.4 367.93L299.4 370.44M299.4 370.44L301.27 367.93M301.27 367.93L301.27 370.44M304.09 369.81L303.62 370.44M303.62 370.44L302.68 370.44M302.68 370.44L302.21 369.81M302.21 369.81L302.21 368.56M302.21 368.56L302.68 367.93M302.68 367.93L303.62 367.93M303.62 367.93L304.09 368.56M305.97 370.44L305.97 367.93M305.97 367.93L305.03 367.93M305.03 367.93L306.91 367.93M307.85 369.81L307.85 368.56M307.85 368.56L308.32 367.93M308.32 367.93L309.26 367.93M309.26 367.93L309.73 368.56M309.73 368.56L309.73 369.81M309.73 369.81L309.26 370.44M309.26 370.44L308.32 370.44M308.32 370.44L307.85 369.81M310.67 370.44L310.67 367.93M310.67 367.93L311.61 367.93M311.61 369.19L310.67 369.19M310.67 369.19L312.08 369.19M312.08 370.44L310.67 370.44M311.61 369.19L311.94 369M311.94 369L312.08 368.56M312.08 368.56L311.94 368.12M311.94 368.12L311.61 367.93M312.08 370.44L312.41 370.26M312.41 370.26L312.55 369.81M312.55 369.81L312.41 369.37M312.41 369.37L312.08 369.19"
fill="none" stroke="black" stroke-width="3"/>
</g>
<g><path d="M270.19 389.86L273.55 389.86"
fill="none" stroke="black" stroke-width="3"/>
</g>
<g><path d="M192.5 382.73L259.6 382.73"
fill="none" stroke="black" stroke-width="3"/>
</g>
<g><path d="M174.71 384.61L177.06 384.61"
fill="none" stroke="black" stroke-width="3"/>
</g>
<g><path d="M192.92 379.14L195.27 379.14"
fill="none" stroke="black" stroke-width="3"/>
</g>
<g><path d="M192.92 389.93L195.27 389.93"
fill="none" stroke="black" stroke-width="3"/>
</g>
<g><path d="M186.86 362.62L190.21 362.62"
fill="none" stroke="black" stroke-width="3"/>
</g>
<g><path d="M197.46 333.51L202.16 333.51"
fill="none" stroke="black" stroke-width="3"/>
</g>
<g><path d="M197.32 397.25L197.32 393.5M199.19 393.5L197.79 395.38M197.79 395.38L197.32 395.38M197.79 395.38L199.19 397.25M200.13 396.63L200.13 395.38M200.13 395.38L200.6 394.75M200.6 394.75L201.54 394.75M201.54 394.75L202.01 395.38M202.01 395.38L202.01 396.63M202.01 396.63L201.54 397.25M201.54 397.25L200.6 397.25M200.6 397.25L200.13 396.63M202.95 397.25L202.95 394.75M202.95 394.75L204.83 394.75M204.83 394.75L204.83 397.25M205.77 394.75L205.77 397.25M205.77 397.25L207.65 394.75M207.65 394.75L207.65 397.25M208.59 397.25L208.59 394.75M208.59 394.75L210 394.75M210 394.75L210.47 395.38M210.47 395.38L210.47 396M210.47 396L210 396.63M210 396.63L208.59 396.63M211.41 396.63L211.41 395.38M211.41 395.38L211.88 394.75M211.88 394.75L212.81 394.75M212.81 394.75L213.28 395.38M213.28 395.38L213.28 396.63M213.28 396.63L212.81 397.25M212.81 397.25L211.88 397.25M211.88 397.25L211.41 396.63M214.22 397.25L214.22 394.75M214.22 394.75L215.16 394.75M215.16 396L214.22 396M214.22 396L215.63 396M215.63 397.25L214.22 397.25M215.16 396L215.5 395.82M215.5 395.82L215.63 395.38M215.63 395.38L215.5 394.93M215.5 394.93L215.16 394.75M215.63 397.25L215.96 397.07M215.96 397.07L216.1 396.63M216.1 396.63L215.96 396.18M215.96 396.18L215.63 396M217.04 396.63L217.04 395.38M217.04 395.38L217.51 394.75M217.51 394.75L218.45 394.75M218.45 394.75L218.92 395.38M218.92 395.38L218.92 394.75M218.92 394.75L218.92 397.25M218.92 397.25L218.92 396.63M218.92 396.63L218.45 397.25M218.45 397.25L217.51 397.25M217.51 397.25L217.04 396.63M219.86 397.25L220.8 394.75M220.8 394.75L221.74 394.75M221.74 394.75L221.74 397.25"
fill="none" stroke="black" stroke-width="3"/>
</g>
<g><path d="M174.9 13.92L171.54 13.92"
fill="none" stroke="black" stroke-width="3"/>
</g>
<g><path d="M74.92 63.87L71.17 63.87M71.17 63.87L71.17 61.99M71.17 61.99L74.92 61.99M73.67 61.05L73.67 59.64M73.67 59.64L73.05 59.17M73.05 59.17L72.42 59.64M72.42 59.64L72.42 60.58M72.42 60.58L73.05 61.05M73.05 61.05L74.3 61.05M74.3 61.05L74.92 60.58M74.92 60.58L74.92 59.64M74.92 58.23L72.42 58.23M72.42 58.23L72.42 56.83M72.42 56.83L73.05 56.36M73.05 56.36L73.67 56.36M73.67 56.36L74.3 56.83M74.3 56.83L74.3 58.23M74.92 55.42L72.42 55.42M72.42 55.42L72.42 54.48M73.67 54.48L73.67 55.42M73.67 55.42L73.67 54.01M74.92 54.01L74.92 55.42M73.67 54.48L73.49 54.15M73.49 54.15L73.05 54.01M73.05 54.01L72.6 54.15M72.6 54.15L72.42 54.48M74.92 54.01L74.74 53.68M74.74 53.68L74.3 53.54M74.3 53.54L73.86 53.68M73.86 53.68L73.67 54.01M74.92 52.6L74.3 52.6M74.92 48.84L72.42 48.84M72.42 48.84L72.42 46.96M72.42 46.96L74.92 46.96M74.92 46.02L72.42 46.02M72.42 46.02L72.42 44.61M72.42 44.61L73.05 44.14M73.05 44.14L73.67 44.14M73.67 44.14L74.3 44.61M74.3 44.61L74.3 46.02M72.42 43.21L74.92 43.21M74.92 43.21L72.42 41.33M72.42 41.33L74.92 41.33M74.92 40.39L72.42 40.39M72.42 40.39L73.67 39.45M73.67 39.45L72.42 38.51M72.42 38.51L74.92 38.51M73.67 37.57L73.67 36.16M73.67 36.16L73.05 35.69M73.05 35.69L72.42 36.16M72.42 36.16L72.42 37.1M72.42 37.1L73.05 37.57M73.05 37.57L74.3 37.57M74.3 37.57L74.92 37.1M74.92 37.1L74.92 36.16M74.92 34.75L72.42 34.75M72.42 34.75L73.67 34.75M73.67 34.75L73.67 32.87M73.67 32.87L72.42 32.87M72.42 32.87L74.92 32.87M74.92 31.93L74.3 31.93"
fill="none" stroke="black" stroke-width="3"/>
</g>
<g><path d="M74.58 134.38L75.21 134.85M75.21 134.85L75.21 135.79M75.21 135.79L74.58 136.26M74.58 136.26L72.08 136.26M72.08 136.26L71.45 135.79M71.45 135.79L71.45 134.85M71.45 134.85L72.08 134.38M75.21 133.44L72.7 133.44M72.7 133.44L72.7 131.56M72.7 131.56L75.21 131.56M75.21 130.63L72.7 130.63M72.7 130.63L72.7 129.22M72.7 129.22L73.33 128.75M73.33 128.75L73.95 128.75M73.95 128.75L74.58 129.22M74.58 129.22L74.58 130.63M74.58 127.81L73.33 127.81M73.33 127.81L72.7 127.34M72.7 127.34L72.7 126.4M72.7 126.4L73.33 125.93M73.33 125.93L72.7 125.93M72.7 125.93L75.21 125.93M75.21 125.93L74.58 125.93M74.58 125.93L75.21 126.4M75.21 126.4L75.21 127.34M75.21 127.34L74.58 127.81M75.21 124.99L72.7 124.99M72.7 124.99L72.7 124.05M73.95 124.05L73.95 124.99M73.95 124.99L73.95 123.58M75.21 123.58L75.21 124.99M73.95 124.05L73.77 123.72M73.77 123.72L73.33 123.58M73.33 123.58L72.89 123.72M72.89 123.72L72.7 124.05M75.21 123.58L75.02 123.25M75.02 123.25L74.58 123.11M74.58 123.11L74.14 123.25M74.14 123.25L73.95 123.58M75.21 122.17L74.58 122.17M75.21 118.41L71.45 118.41M71.45 118.41L75.21 116.54M75.21 116.54L71.45 116.54"
fill="none" stroke="black" stroke-width="3"/>
</g>
<g><path d="M74.26 238.43L70.5 238.43M70.5 238.43L70.5 236.55M70.5 236.55L74.26 236.55M73.64 235.61L72.38 235.61M72.38 235.61L71.76 235.14M71.76 235.14L71.76 234.2M71.76 234.2L72.38 233.73M72.38 233.73L73.64 233.73M73.64 233.73L74.26 234.2M74.26 234.2L74.26 235.14M74.26 235.14L73.64 235.61M74.89 232.8L74.26 232.8M74.26 232.8L74.26 232.33M74.26 232.33L72.38 232.33M72.38 232.33L71.76 231.86M71.76 231.86L71.76 231.39M71.76 231.39L74.26 231.39M74.26 231.39L74.26 232.33M74.26 232.33L74.26 230.92M74.26 230.92L74.89 230.92M74.26 229.98L71.76 229.98M71.76 229.98L71.76 228.1M71.76 228.1L74.26 228.1M74.26 227.16L73.64 227.16M71.76 223.4L74.26 223.4M74.26 223.4L71.76 221.52M71.76 221.52L74.26 221.52M74.89 217.77L74.26 217.77M74.26 217.77L74.26 217.3M74.26 217.3L72.38 217.3M72.38 217.3L71.76 216.83M71.76 216.83L71.76 216.36M71.76 216.36L74.26 216.36M74.26 216.36L74.26 217.3M74.26 217.3L74.26 215.89M74.26 215.89L74.89 215.89M73.64 214.95L72.38 214.95M72.38 214.95L71.76 214.48M71.76 214.48L71.76 213.54M71.76 213.54L72.38 213.07M72.38 213.07L71.76 213.07M71.76 213.07L74.26 213.07M74.26 213.07L73.64 213.07M73.64 213.07L74.26 213.54M74.26 213.54L74.26 214.48M74.26 214.48L73.64 214.95M74.26 211.19L71.76 211.19M71.76 211.19L71.76 212.13M71.76 212.13L71.76 210.25M73.64 209.31L72.38 209.31M72.38 209.31L71.76 208.84M71.76 208.84L71.76 207.9M71.76 207.9L72.38 207.43M72.38 207.43L71.76 207.43M71.76 207.43L74.26 207.43M74.26 207.43L73.64 207.43M73.64 207.43L74.26 207.9M74.26 207.9L74.26 208.84M74.26 208.84L73.64 209.31"
fill="none" stroke="black" stroke-width="3"/>
</g>
<g><path d="M74.58 277.26L72.08 275.38M72.08 275.38L74.58 275.38M74.58 275.38L70.82 275.38M70.82 277.26L74.58 277.26M74.58 274.44L72.08 274.44M72.08 274.44L73.33 274.44M73.33 274.44L73.33 272.56M73.33 272.56L72.08 272.56M72.08 272.56L74.58 272.56M74.58 271.62L72.08 271.62M72.08 271.62L72.08 270.68M73.33 270.68L73.33 271.62M73.33 271.62L73.33 270.21M74.58 270.21L74.58 271.62M73.33 270.68L73.14 270.35M73.14 270.35L72.7 270.21M72.7 270.21L72.26 270.35M72.26 270.35L72.08 270.68M74.58 270.21L74.4 269.88M74.4 269.88L73.95 269.74M73.95 269.74L73.51 269.88M73.51 269.88L73.33 270.21M74.58 268.8L73.95 268.8M74.58 265.05L70.82 265.05M70.82 265.05L74.58 263.17M74.58 263.17L70.82 263.17M75.21 259.41L74.58 259.41M74.58 259.41L74.58 258.94M74.58 258.94L72.7 258.94M72.7 258.94L72.08 258.47M72.08 258.47L72.08 258M72.08 258L74.58 258M74.58 258L74.58 258.94M74.58 258.94L74.58 257.53M74.58 257.53L75.21 257.53M73.95 256.59L74.58 256.12M74.58 256.12L74.58 255.18M74.58 255.18L73.95 254.71M73.95 254.71L72.08 254.71M72.08 254.71L73.33 254.71M73.33 254.71L73.33 255.65M73.33 255.65L72.08 256.59M72.08 252.37L72.08 253.78M72.08 253.78L74.58 253.78M74.58 253.78L74.58 252.37M74.58 252.37L73.95 251.9M73.95 251.9L73.33 252.37M73.33 252.37L73.33 253.78M74.58 250.96L72.08 250.02M72.08 250.02L72.08 249.08M72.08 249.08L74.58 249.08M74.58 248.14L73.95 248.14"
fill="none" stroke="black" stroke-width="3"/>
</g>
<g><path d="M74.58 352.94L70.82 352.94M70.82 352.94L70.82 351.06M70.82 351.06L74.58 351.06M73.95 350.12L72.7 350.12M72.7 350.12L72.08 349.65M72.08 349.65L72.08 348.71M72.08 348.71L72.7 348.24M72.7 348.24L73.95 348.24M73.95 348.24L74.58 348.71M74.58 348.71L74.58 349.65M74.58 349.65L73.95 350.12M75.21 347.3L74.58 347.3M74.58 347.3L74.58 346.83M74.58 346.83L72.7 346.83M72.7 346.83L72.08 346.36M72.08 346.36L72.08 345.9M72.08 345.9L74.58 345.9M74.58 345.9L74.58 346.83M74.58 346.83L74.58 345.43M74.58 345.43L75.21 345.43M74.58 344.49L72.08 344.49M72.08 344.49L72.08 342.61M72.08 342.61L74.58 342.61M74.58 341.67L73.95 341.67M72.08 337.91L74.58 337.91M74.58 337.91L72.08 336.03M72.08 336.03L74.58 336.03M75.21 332.28L74.58 332.28M74.58 332.28L74.58 331.81M74.58 331.81L72.7 331.81M72.7 331.81L72.08 331.34M72.08 331.34L72.08 330.87M72.08 330.87L74.58 330.87M74.58 330.87L74.58 331.81M74.58 331.81L74.58 330.4M74.58 330.4L75.21 330.4M73.95 329.46L72.7 329.46M72.7 329.46L72.08 328.99M72.08 328.99L72.08 328.05M72.08 328.05L72.7 327.58M72.7 327.58L72.08 327.58M72.08 327.58L74.58 327.58M74.58 327.58L73.95 327.58M73.95 327.58L74.58 328.05M74.58 328.05L74.58 328.99M74.58 328.99L73.95 329.46M74.58 325.7L72.08 325.7M72.08 325.7L72.08 326.64M72.08 326.64L72.08 324.76M73.95 323.82L72.7 323.82M72.7 323.82L72.08 323.35M72.08 323.35L72.08 322.41M72.08 322.41L72.7 321.94M72.7 321.94L72.08 321.94M72.08 321.94L74.58 321.94M74.58 321.94L73.95 321.94M73.95 321.94L74.58 322.41M74.58 322.41L74.58 323.35M74.58 323.35L73.95 323.82"
fill="none" stroke="black" stroke-width="3"/>
</g>
<g><path d="M74.58 391.38L72.08 389.5M72.08 389.5L74.58 389.5M74.58 389.5L70.82 389.5M70.82 391.38L74.58 391.38M74.58 388.56L72.08 388.56M72.08 388.56L73.33 388.56M73.33 388.56L73.33 386.68M73.33 386.68L72.08 386.68M72.08 386.68L74.58 386.68M74.58 385.74L72.08 385.74M72.08 385.74L72.08 384.8M73.33 384.8L73.33 385.74M73.33 385.74L73.33 384.33M74.58 384.33L74.58 385.74M73.33 384.8L73.14 384.47M73.14 384.47L72.7 384.33M72.7 384.33L72.26 384.47M72.26 384.47L72.08 384.8M74.58 384.33L74.4 384M74.4 384L73.95 383.86M73.95 383.86L73.51 384M73.51 384L73.33 384.33M74.58 382.92L73.95 382.92M74.58 379.17L70.82 379.17M70.82 379.17L74.58 377.29M74.58 377.29L70.82 377.29M74.58 373.53L72.08 373.53M72.08 373.53L72.08 371.65M72.08 371.65L74.58 371.65M73.95 370.71L72.7 370.71M72.7 370.71L72.08 370.24M72.08 370.24L72.08 369.3M72.08 369.3L72.7 368.84M72.7 368.84L73.95 368.84M73.95 368.84L74.58 369.3M74.58 369.3L74.58 370.24M74.58 370.24L73.95 370.71M75.21 367.9L74.58 367.9M74.58 367.9L74.58 367.43M74.58 367.43L72.7 367.43M72.7 367.43L72.08 366.96M72.08 366.96L72.08 366.49M72.08 366.49L74.58 366.49M74.58 366.49L74.58 367.43M74.58 367.43L74.58 366.02M74.58 366.02L75.21 366.02M74.58 365.08L72.08 364.14M72.08 364.14L72.08 363.2M72.08 363.2L74.58 363.2M74.58 362.26L73.95 362.26"
fill="none" stroke="black" stroke-width="3"/>
</g>
<g><path d="M86.42 351.28L88.17 348.95M88.17 348.95L88.17 351.28M88.17 351.28L88.17 347.79M86.42 347.79L86.42 351.28M89.04 349.53L89.48 348.95M89.48 348.95L90.35 348.95M90.35 348.95L90.78 349.53M90.78 349.53L90.35 350.11M90.35 350.11L89.91 350.11M89.91 350.11L90.35 350.11M90.35 350.11L90.78 350.7M90.78 350.7L90.35 351.28M90.35 351.28L89.48 351.28M89.48 351.28L89.04 350.7M91.66 351.28L91.66 348.95M91.66 348.95L92.53 350.11M92.53 350.11L93.4 348.95M93.4 348.95L93.4 351.28M94.27 351.28L94.27 350.7"
fill="none" stroke="black" stroke-width="3"/>
</g>
<g><path d="M96.21 351.25L96.65 351.25M96.65 351.25L97.95 347.76M97.95 347.76L98.39 347.76M98.39 347.76L98.39 351.25M99.26 348.92L99.26 351.25M99.26 351.25L101.01 348.92M101.01 348.92L101.01 351.25M103.62 350.67L103.19 351.25M103.19 351.25L102.32 351.25M102.32 351.25L101.88 350.67M101.88 350.67L101.88 349.5M101.88 349.5L102.32 348.92M102.32 348.92L103.19 348.92M103.19 348.92L103.62 349.5M105.37 351.25L105.37 348.92M105.37 348.92L104.5 348.92M104.5 348.92L106.24 348.92M107.11 351.25L107.11 350.67"
fill="none" stroke="black" stroke-width="3"/>
</g>
<g><path d="M113.73 351L113.73 347.51M113.73 347.51L115.48 351M115.48 351L115.48 347.51M118.97 351.58L118.97 351M118.97 351L119.4 351M119.4 351L119.4 349.25M119.4 349.25L119.84 348.67M119.84 348.67L120.27 348.67M120.27 348.67L120.27 351M120.27 351L119.4 351M119.4 351L120.71 351M120.71 351L120.71 351.58M121.58 350.42L121.58 349.25M121.58 349.25L122.02 348.67M122.02 348.67L122.89 348.67M122.89 348.67L123.33 349.25M123.33 349.25L123.33 350.42M123.33 350.42L122.89 351M122.89 351L122.02 351M122.02 351L121.58 350.42M124.2 351L124.2 348.67M124.2 348.67L124.2 349.84M124.2 349.84L125.07 349.84M125.07 349.84L125.94 348.67M125.94 348.67L125.07 349.84M125.07 349.84L125.94 351M126.82 350.42L127.25 351M127.25 351L128.12 351M128.12 351L128.56 350.42M128.56 350.42L128.56 348.67M128.56 348.67L128.56 349.84M128.56 349.84L127.69 349.84M127.69 349.84L126.82 348.67M129.43 351L129.43 348.67M129.43 348.67L130.31 349.84M130.31 349.84L131.18 348.67M131.18 348.67L131.18 351M132.05 351L132.05 350.42"
fill="none" stroke="black" stroke-width="3"/>
</g>
<g><path d="M144.06 350.61L144.06 347.12M144.06 347.12L145.8 347.12M145.8 347.12L145.8 350.61M146.67 350.03L146.67 348.87M146.67 348.87L147.11 348.29M147.11 348.29L147.98 348.29M147.98 348.29L148.42 348.87M148.42 348.87L148.42 350.03M148.42 350.03L147.98 350.61M147.98 350.61L147.11 350.61M147.11 350.61L146.67 350.03M149.29 351.19L149.29 350.61M149.29 350.61L149.73 350.61M149.73 350.61L149.73 348.87M149.73 348.87L150.16 348.29M150.16 348.29L150.6 348.29M150.6 348.29L150.6 350.61M150.6 350.61L149.73 350.61M149.73 350.61L151.03 350.61M151.03 350.61L151.03 351.19M151.91 350.61L151.91 348.29M151.91 348.29L153.65 348.29M153.65 348.29L153.65 350.61M154.52 350.61L154.52 350.03"
fill="none" stroke="black" stroke-width="3"/>
</g>
<g><path d="M269.44 343.77L269.91 343.77M269.91 343.77L271.32 340.02M271.32 340.02L271.79 340.02M271.79 340.02L271.79 343.77M272.73 341.27L272.73 343.77M272.73 343.77L274.61 341.27M274.61 341.27L274.61 343.77M276.49 343.77L276.49 341.27M276.49 341.27L275.55 341.27M275.55 341.27L277.43 341.27M278.37 342.52L279.78 342.52M279.78 342.52L280.25 341.9M280.25 341.9L279.78 341.27M279.78 341.27L278.84 341.27M278.84 341.27L278.37 341.9M278.37 341.9L278.37 343.15M278.37 343.15L278.84 343.77M278.84 343.77L279.78 343.77M281.18 343.77L281.18 341.27M281.18 341.27L282.59 341.27M282.59 341.27L283.06 341.9M283.06 341.9L283.06 342.52M283.06 342.52L282.59 343.15M282.59 343.15L281.18 343.15M284 343.77L284 343.15"
fill="none" stroke="black" stroke-width="3"/>
</g>
<g><path d="M269.23 371L269.7 371M269.7 371L271.11 367.24M271.11 367.24L271.58 367.24M271.58 367.24L271.58 371M272.52 368.49L272.52 371M272.52 371L274.39 368.49M274.39 368.49L274.39 371M277.21 370.37L276.74 371M276.74 371L275.8 371M275.8 371L275.33 370.37M275.33 370.37L275.33 369.12M275.33 369.12L275.8 368.49M275.8 368.49L276.74 368.49M276.74 368.49L277.21 369.12M279.09 371L279.09 368.49M279.09 368.49L278.15 368.49M278.15 368.49L280.03 368.49"
fill="none" stroke="black" stroke-width="3"/>
</g>
<g><path d="M296.14 370.88L296.61 370.88M296.61 370.88L298.02 367.13M298.02 367.13L298.49 367.13M298.49 367.13L298.49 370.88M299.43 368.38L299.43 370.88M299.43 370.88L301.3 368.38M301.3 368.38L301.3 370.88M304.12 370.26L303.65 370.88M303.65 370.88L302.71 370.88M302.71 370.88L302.24 370.26M302.24 370.26L302.24 369M302.24 369L302.71 368.38M302.71 368.38L303.65 368.38M303.65 368.38L304.12 369M306 370.88L306 368.38M306 368.38L305.06 368.38M305.06 368.38L306.94 368.38M307.88 370.26L307.88 369M307.88 369L308.35 368.38M308.35 368.38L309.29 368.38M309.29 368.38L309.76 369M309.76 369L309.76 370.26M309.76 370.26L309.29 370.88M309.29 370.88L308.35 370.88M308.35 370.88L307.88 370.26M310.7 370.88L310.7 368.38M310.7 368.38L311.64 368.38M311.64 369.63L310.7 369.63M310.7 369.63L312.11 369.63M312.11 370.88L310.7 370.88M311.64 369.63L311.97 369.45M311.97 369.45L312.11 369M312.11 369L311.97 368.56M311.97 368.56L311.64 368.38M312.11 370.88L312.44 370.7M312.44 370.7L312.58 370.26M312.58 370.26L312.44 369.81M312.44 369.81L312.11 369.63"
fill="none" stroke="black" stroke-width="3"/>
</g>
<g><path d="M291.43 343.77L291.43 340.02M291.43 340.02L292.37 342.52M292.37 342.52L293.31 340.02M293.31 340.02L293.31 343.77M294.25 343.15L294.25 341.9M294.25 341.9L294.72 341.27M294.72 341.27L295.66 341.27M295.66 341.27L296.13 341.9M296.13 341.9L296.13 341.27M296.13 341.27L296.13 343.77M296.13 343.77L296.13 343.15M296.13 343.15L295.66 343.77M295.66 343.77L294.72 343.77M294.72 343.77L294.25 343.15M298.94 343.15L298.47 343.77M298.47 343.77L297.54 343.77M297.54 343.77L297.07 343.15M297.07 343.15L297.07 341.9M297.07 341.9L297.54 341.27M297.54 341.27L298.47 341.27M298.47 341.27L298.94 341.9M301.76 343.15L301.29 343.77M301.29 343.77L300.35 343.77M300.35 343.77L299.88 343.15M299.88 343.15L299.88 341.9M299.88 341.9L300.35 341.27M300.35 341.27L301.29 341.27M301.29 341.27L301.76 341.9M302.7 343.15L302.7 341.9M302.7 341.9L303.17 341.27M303.17 341.27L304.11 341.27M304.11 341.27L304.58 341.9M304.58 341.9L304.58 341.27M304.58 341.27L304.58 343.77M304.58 343.77L304.58 343.15M304.58 343.15L304.11 343.77M304.11 343.77L303.17 343.77M303.17 343.77L302.7 343.15"
fill="none" stroke="black" stroke-width="3"/>
</g>
<g><path d="M310.92 343.77L310.92 340.02M310.92 340.02L311.86 342.52M311.86 342.52L312.8 340.02M312.8 340.02L312.8 343.77M313.73 343.15L313.73 341.9M313.73 341.9L314.2 341.27M314.2 341.27L315.14 341.27M315.14 341.27L315.61 341.9M315.61 341.9L315.61 341.27M315.61 341.27L315.61 343.77M315.61 343.77L315.61 343.15M315.61 343.15L315.14 343.77M315.14 343.77L314.2 343.77M314.2 343.77L313.73 343.15M318.43 343.15L317.96 343.77M317.96 343.77L317.02 343.77M317.02 343.77L316.55 343.15M316.55 343.15L316.55 341.9M316.55 341.9L317.02 341.27M317.02 341.27L317.96 341.27M317.96 341.27L318.43 341.9M319.37 343.77L319.37 341.27M319.37 341.27L319.37 343.77M319.37 343.77L320.31 343.77M320.31 343.77L320.31 342.52M320.31 342.52L320.31 343.77M320.31 343.77L321.25 343.77M321.25 343.77L321.25 341.27M323.13 343.77L323.13 341.27M323.13 341.27L322.19 341.27M322.19 341.27L324.07 341.27M325.01 343.15L325.01 341.9M325.01 341.9L325.48 341.27M325.48 341.27L326.42 341.27M326.42 341.27L326.88 341.9M326.88 341.9L326.88 341.27M326.88 341.27L326.88 343.77M326.88 343.77L326.88 343.15M326.88 343.15L326.42 343.77M326.42 343.77L325.48 343.77M325.48 343.77L325.01 343.15M329.23 341.27L327.82 341.27M327.82 341.27L327.82 343.77M327.82 343.77L329.23 343.77M329.23 343.77L329.7 343.15M329.7 343.15L329.23 342.52M329.23 342.52L327.82 342.52"
fill="none" stroke="black" stroke-width="3"/>
</g>
<g><path d="M92.9 298.2L93.65 297.19M93.65 297.19L95.16 297.19M95.16 297.19L95.91 298.2M95.91 298.2L95.91 299.2M95.91 299.2L95.16 300.21M95.16 300.21L93.65 300.21M93.65 300.21L92.9 301.22M92.9 301.22L92.9 303.23M92.9 303.23L95.91 303.23M97.42 303.23L97.42 302.22M103.46 302.22L103.46 298.2M103.46 298.2L104.22 297.19M104.22 297.19L105.73 297.19M105.73 297.19L106.48 298.2M106.48 298.2L106.48 302.22M106.48 302.22L105.73 303.23M105.73 303.23L104.22 303.23M104.22 303.23L103.46 302.22M111.01 302.22L110.26 303.23M110.26 303.23L108.75 303.23M108.75 303.23L107.99 302.22M107.99 302.22L107.99 300.21M107.99 300.21L108.75 299.2M108.75 299.2L110.26 299.2M110.26 299.2L111.01 300.21M114.03 303.23L114.03 299.2M114.03 299.2L112.52 299.2M112.52 299.2L115.54 299.2M117.05 303.23L117.05 299.2M117.05 299.2L119.31 299.2M119.31 299.2L120.07 300.21M120.07 300.21L120.07 301.22M120.07 301.22L119.31 302.22M119.31 302.22L117.05 302.22M121.58 303.23L121.58 299.2M121.58 299.2L121.58 301.22M121.58 301.22L123.09 301.22M123.09 301.22L123.84 302.22M123.84 302.22L123.09 303.23M123.09 303.23L121.58 303.23M124.6 303.23L124.6 299.2M126.11 301.22L128.37 301.22M128.37 301.22L129.13 300.21M129.13 300.21L128.37 299.2M128.37 299.2L126.86 299.2M126.86 299.2L126.11 300.21M126.11 300.21L126.11 302.22M126.11 302.22L126.86 303.23M126.86 303.23L128.37 303.23M135.16 303.23L135.16 299.2M135.16 299.2L135.16 301.22M135.16 301.22L136.67 301.22M136.67 301.22L138.18 299.2M138.18 299.2L136.67 301.22M136.67 301.22L138.18 303.23M139.69 303.23L139.69 299.2M139.69 299.2L141.96 299.2M141.96 299.2L142.71 300.21M142.71 300.21L142.71 301.22M142.71 301.22L141.96 302.22M141.96 302.22L139.69 302.22M144.22 302.22L144.22 300.21M144.22 300.21L144.98 299.2M144.98 299.2L146.49 299.2M146.49 299.2L147.24 300.21M147.24 300.21L147.24 302.22M147.24 302.22L146.49 303.23M146.49 303.23L144.98 303.23M144.98 303.23L144.22 302.22M148.75 303.23L148.75 299.2M148.75 299.2L150.26 301.22M150.26 301.22L151.77 299.2M151.77 299.2L151.77 303.23M153.28 303.23L153.28 299.2M153.28 299.2L153.28 301.22M153.28 301.22L154.79 301.22M154.79 301.22L156.3 299.2M156.3 299.2L154.79 301.22M154.79 301.22L156.3 303.23M157.81 299.2L157.81 303.23M157.81 303.23L160.83 299.2M160.83 299.2L160.83 303.23M169.88 302.22L169.13 303.23M169.13 303.23L167.62 303.23M167.62 303.23L166.87 302.22M166.87 302.22L166.87 300.21M166.87 300.21L167.62 299.2M167.62 299.2L169.13 299.2M169.13 299.2L169.88 300.21M171.39 303.23L171.39 299.2M171.39 299.2L171.39 301.22M171.39 301.22L172.9 301.22M172.9 301.22L174.41 299.2M174.41 299.2L172.9 301.22M172.9 301.22L174.41 303.23M175.92 303.23L175.92 299.2M175.92 299.2L178.19 299.2M178.19 299.2L178.94 300.21M178.94 300.21L178.94 301.22M178.94 301.22L178.19 302.22M178.19 302.22L175.92 302.22M180.45 302.22L181.21 303.23M181.21 303.23L182.72 303.23M182.72 303.23L183.47 302.22M183.47 302.22L183.47 299.2M183.47 299.2L183.47 301.22M183.47 301.22L181.96 301.22M181.96 301.22L180.45 299.2M184.98 303.23L184.98 299.2M184.98 299.2L187.24 299.2M188.75 303.23L190.26 299.2M190.26 299.2L191.77 299.2M191.77 299.2L191.77 303.23M193.28 299.2L193.28 303.23M193.28 303.23L196.3 299.2M196.3 299.2L196.3 303.23M199.32 303.23L199.32 299.2M199.32 299.2L197.81 299.2M197.81 299.2L200.83 299.2M202.34 303.23L202.34 299.2M202.34 299.2L202.34 301.22M202.34 301.22L203.85 301.22M203.85 301.22L204.61 302.22M204.61 302.22L203.85 303.23M203.85 303.23L202.34 303.23M210.64 303.23L210.64 297.19M210.64 297.19L212.91 297.19M212.91 297.19L213.66 298.2M213.66 298.2L213.66 299.2M213.66 299.2L212.91 300.21M212.91 300.21L210.64 300.21M211.4 300.21L213.66 303.23M215.93 303.23L215.17 302.22M215.17 302.22L215.17 298.2M215.17 298.2L215.93 297.19M215.93 297.19L216.68 297.19M216.68 297.19L217.44 298.2M217.44 298.2L217.44 302.22M217.44 302.22L216.68 303.23M216.68 303.23L215.93 303.23M219.7 302.22L219.7 303.23M219.7 303.23L218.95 304.23M221.21 298.2L221.97 297.19M221.97 297.19L221.97 303.23M221.21 303.23L222.72 303.23M224.23 303.23L224.23 302.22M225.74 303.23L225.74 302.22M227.25 303.23L227.25 302.22M229.51 303.23L228.76 302.22M228.76 302.22L228.76 298.2M228.76 298.2L229.51 297.19M229.51 297.19L230.27 297.19M230.27 297.19L231.02 298.2M231.02 298.2L231.02 302.22M231.02 302.22L230.27 303.23M230.27 303.23L229.51 303.23M233.29 302.22L233.29 303.23M233.29 303.23L232.53 304.23M234.8 298.2L235.55 297.19M235.55 297.19L237.06 297.19M237.06 297.19L237.82 298.2M237.82 298.2L237.82 299.2M237.82 299.2L237.06 300.21M237.06 300.21L235.55 300.21M235.55 300.21L234.8 301.22M234.8 301.22L234.8 303.23M234.8 303.23L237.82 303.23M239.33 303.23L239.33 302.22"
fill="none" stroke="black" stroke-width="3"/>
</g>
<g><path d="M191.36 358.12L194.72 358.12"
fill="none" stroke="black" stroke-width="3"/>
</g>
<g><path d="M202.21 334.79L206.91 334.79"
fill="none" stroke="black" stroke-width="3"/>
</g>
<g><path d="M175.86 11.73L172.51 11.73"
fill="none" stroke="black" stroke-width="3"/>
</g>
<g><path d="M288.33 371L290.21 371"
fill="none" stroke="black" stroke-width="3"/>
</g>
<g><path d="M327.52 371L329.4 371"
fill="none" stroke="black" stroke-width="3"/>
</g>
<g><path d="M269.71 356.3L269.71 355.04M269.71 355.04L270.18 354.42M270.18 354.42L271.12 354.42M271.12 354.42L271.59 355.04M271.59 355.04L271.59 354.42M271.59 354.42L271.59 356.92M271.59 356.92L271.59 356.3M271.59 356.3L271.12 356.92M271.12 356.92L270.18 356.92M270.18 356.92L269.71 356.3"
fill="none" stroke="black" stroke-width="3"/>
</g>
<g><path d="M290.99 356.81L292.87 356.81"
fill="none" stroke="black" stroke-width="3"/>
</g>
<g><path d="M193.7 389.71L196.38 389.71"
fill="none" stroke="black" stroke-width="3"/>
</g>
<g><path d="M193.82 380.37L196.5 380.37"
fill="none" stroke="black" stroke-width="3"/>
</g>
<g><path d="M174.65 384.42L177.33 384.42"
fill="none" stroke="black" stroke-width="3"/>
</g>
<g><path d="M291.69 18.31L292.53 17.2M292.53 17.2L294.21 17.2M294.21 17.2L295.05 18.31M295.05 18.31L295.05 19.43M295.05 19.43L294.21 20.55M294.21 20.55L293.37 20.55M294.21 20.55L295.05 21.67M295.05 21.67L295.05 22.79M295.05 22.79L294.21 23.91M294.21 23.91L292.53 23.91M292.53 23.91L291.69 22.79M297.56 22.79L297.56 23.91M297.56 23.91L296.72 25.02M299.24 18.31L300.08 17.2M300.08 17.2L301.76 17.2M301.76 17.2L302.59 18.31M302.59 18.31L302.59 19.43M302.59 19.43L301.76 20.55M301.76 20.55L300.08 20.55M300.08 20.55L299.24 21.67M299.24 21.67L299.24 23.91M299.24 23.91L302.59 23.91"
fill="none" stroke="black" stroke-width="3"/>
</g>
<g><path d="M306.54 25.89L305.58 29.46M305.58 29.46L306.54 33.04"
fill="none" stroke="black" stroke-width="3"/>
</g>
<g><path d="M299.05 33.01L304.42 23.72"
fill="none" stroke="black" stroke-width="3"/>
</g>
<g><path d="M311.23 33.01L316.6 23.72"
fill="none" stroke="black" stroke-width="3"/>
</g>
<g><path d="M311.23 33.01L307.87 27.2"
fill="none" stroke="black" stroke-width="3"/>
</g>
<g><path d="M299.05 33.01L295.7 27.2"
fill="none" stroke="black" stroke-width="3"/>
</g>
<g><path d="M317.44 33.04L318.4 29.46M318.4 29.46L317.44 25.89"
fill="none" stroke="black" stroke-width="3"/>
</g>
<g><path d="M160.49 351.04L160.49 350.48M160.49 350.48L162.58 350.48M162.58 350.48L162.58 347.12M162.58 347.12L161.75 347.12M161.75 347.12L160.91 349.36M160.91 349.36L160.91 350.48M160.91 350.48L163 350.48M163 350.48L163 351.04M163.84 349.92L163.84 348.8M163.84 348.8L164.26 348.24M164.26 348.24L165.1 348.24M165.1 348.24L165.52 348.8M165.52 348.8L165.52 348.24M165.52 348.24L165.52 350.48M165.52 350.48L165.52 349.92M165.52 349.92L165.1 350.48M165.1 350.48L164.26 350.48M164.26 350.48L163.84 349.92M167.2 350.48L167.2 348.24M167.2 348.24L166.36 348.24M166.36 348.24L168.04 348.24M168.87 349.92L168.87 348.8M168.87 348.8L169.29 348.24M169.29 348.24L170.13 348.24M170.13 348.24L170.55 348.8M170.55 348.8L170.55 348.24M170.55 348.24L170.55 350.48M170.55 350.48L170.55 349.92M170.55 349.92L170.13 350.48M170.13 350.48L169.29 350.48M169.29 350.48L168.87 349.92"
fill="none" stroke="black" stroke-width="3"/>
</g>
<g><path d="M275.2 397.25L275.2 393.5M275.2 393.5L274.73 393.5M274.73 393.5L274.26 394.12M274.26 394.12L274.26 395.38M274.26 395.38L274.73 396M274.73 396L275.67 396M275.67 396L276.14 395.38M276.14 395.38L276.14 394.12M276.14 394.12L275.67 393.5M275.67 393.5L275.2 393.5M277.08 396.63L277.08 395.38M277.08 395.38L277.55 394.75M277.55 394.75L278.49 394.75M278.49 394.75L278.96 395.38M278.96 395.38L278.96 396.63M278.96 396.63L278.49 397.25M278.49 397.25L277.55 397.25M277.55 397.25L277.08 396.63M279.9 397.25L279.9 394.75M279.9 394.75L281.31 394.75M281.31 394.75L281.78 395.38M281.78 395.38L281.78 396M281.78 396L281.31 396.63M281.31 396.63L279.9 396.63M282.72 397.25L282.72 394.75M282.72 394.75L283.66 396M283.66 396L284.59 394.75M284.59 394.75L284.59 397.25M285.53 396.63L285.53 395.38M285.53 395.38L286 394.75M286 394.75L286.94 394.75M286.94 394.75L287.41 395.38M287.41 395.38L287.41 394.75M287.41 394.75L287.41 397.25M287.41 397.25L287.41 396.63M287.41 396.63L286.94 397.25M286.94 397.25L286 397.25M286 397.25L285.53 396.63M289.29 397.25L289.29 394.75M289.29 394.75L288.35 394.75M288.35 394.75L290.23 394.75M293.99 397.25L293.99 396M293.99 396L294.93 393.5M294.93 393.5L295.87 396M295.87 396L295.87 397.25M293.99 396L295.87 396M298.68 396L296.81 396M296.81 396L298.21 393.5M298.21 393.5L298.21 397.25M302.44 397.25L302.44 393.5M302.44 393.5L304.32 393.5M304.32 393.5L304.32 394.12M305.26 396.63L305.26 394.12M305.26 394.12L305.73 393.5M305.73 393.5L306.67 393.5M306.67 393.5L307.14 394.12M307.14 394.12L307.14 396.63M307.14 396.63L306.67 397.25M306.67 397.25L305.73 397.25M305.73 397.25L305.26 396.63M309.96 396.63L309.49 397.25M309.49 397.25L308.55 397.25M308.55 397.25L308.08 396.63M308.08 396.63L308.08 394.12M308.08 394.12L308.55 393.5M308.55 393.5L309.49 393.5M309.49 393.5L309.96 394.12M310.9 393.5L312.77 393.5M311.83 393.5L311.83 397.25M316.53 394.12L317 393.5M317 393.5L317.94 393.5M317.94 393.5L318.41 394.12M318.41 394.12L318.41 394.75M318.41 394.75L317.94 395.38M317.94 395.38L317 395.38M317 395.38L316.53 396M316.53 396L316.53 397.25M316.53 397.25L318.41 397.25M319.35 397.25L319.35 396.63M320.29 394.12L320.76 393.5M320.76 393.5L321.7 393.5M321.7 393.5L322.17 394.12M322.17 394.12L322.17 394.75M322.17 394.75L321.7 395.38M321.7 395.38L321.23 395.38M321.7 395.38L322.17 396M322.17 396L322.17 396.63M322.17 396.63L321.7 397.25M321.7 397.25L320.76 397.25M320.76 397.25L320.29 396.63M323.58 397.25L323.11 396.63M323.11 396.63L323.11 394.12M323.11 394.12L323.58 393.5M323.58 393.5L324.05 393.5M324.05 393.5L324.52 394.12M324.52 394.12L324.52 396.63M324.52 396.63L324.05 397.25M324.05 397.25L323.58 397.25M325.45 394.12L325.92 393.5M325.92 393.5L325.92 397.25M325.45 397.25L326.39 397.25"
fill="none" stroke="black" stroke-width="3"/>
</g>
<g><path d="M87.14 357.42L87.14 353.67M87.14 353.67L88.55 353.67M88.55 353.67L89.02 354.29M89.02 354.29L89.02 354.92M89.02 354.92L88.55 355.54M88.55 355.54L87.14 355.54M89.96 356.8L89.96 355.54M89.96 355.54L90.43 354.92M90.43 354.92L91.37 354.92M91.37 354.92L91.84 355.54M91.84 355.54L91.84 354.92M91.84 354.92L91.84 357.42M91.84 357.42L91.84 356.8M91.84 356.8L91.37 357.42M91.37 357.42L90.43 357.42M90.43 357.42L89.96 356.8M92.78 355.54L93.25 354.92M93.25 354.92L94.18 354.92M94.18 354.92L94.65 355.54M94.65 355.54L94.18 356.17M94.18 356.17L93.72 356.17M93.72 356.17L94.18 356.17M94.18 356.17L94.65 356.8M94.65 356.8L94.18 357.42M94.18 357.42L93.25 357.42M93.25 357.42L92.78 356.8M95.59 357.42L95.59 354.92M95.59 354.92L97 354.92M97 354.92L97.47 355.54M97.47 355.54L97.47 356.17M97.47 356.17L97 356.8M97 356.8L95.59 356.8M98.41 356.8L98.41 355.54M98.41 355.54L98.88 354.92M98.88 354.92L99.82 354.92M99.82 354.92L100.29 355.54M100.29 355.54L100.29 354.92M100.29 354.92L100.29 357.42M100.29 357.42L100.29 356.8M100.29 356.8L99.82 357.42M99.82 357.42L98.88 357.42M98.88 357.42L98.41 356.8M102.64 354.92L101.23 354.92M101.23 354.92L101.23 357.42M101.23 357.42L102.64 357.42M102.64 357.42L103.11 356.8M103.11 356.8L102.64 356.17M102.64 356.17L101.23 356.17M104.05 357.42L104.05 356.8"
fill="none" stroke="black" stroke-width="3"/>
</g>
<g><path d="M87.15 364.38L87.15 360.62M87.15 360.62L89.03 360.62M89.03 360.62L89.03 364.38M89.97 364.38L89.97 361.87M89.97 361.87L91.38 361.87M91.38 361.87L91.85 362.5M91.85 362.5L91.85 363.13M91.85 363.13L91.38 363.75M91.38 363.75L89.97 363.75M92.79 363.75L92.79 362.5M92.79 362.5L93.26 361.87M93.26 361.87L94.2 361.87M94.2 361.87L94.67 362.5M94.67 362.5L94.67 363.75M94.67 363.75L94.2 364.38M94.2 364.38L93.26 364.38M93.26 364.38L92.79 363.75M95.6 364.38L95.6 361.87M95.6 361.87L96.54 361.87M96.54 363.13L95.6 363.13M95.6 363.13L97.01 363.13M97.01 364.38L95.6 364.38M96.54 363.13L96.88 362.94M96.88 362.94L97.01 362.5M97.01 362.5L96.88 362.06M96.88 362.06L96.54 361.87M97.01 364.38L97.35 364.19M97.35 364.19L97.48 363.75M97.48 363.75L97.35 363.31M97.35 363.31L97.01 363.13M98.42 364.38L98.42 363.75"
fill="none" stroke="black" stroke-width="3"/>
</g>
<g><path d="M87.15 367.33L89.03 367.33M88.09 367.33L88.09 371.09M89.97 371.09L89.97 370.46M90.91 371.09L90.91 368.58M90.91 368.58L90.91 369.84M90.91 369.84L91.85 369.84M91.85 369.84L92.79 368.58M92.79 368.58L91.85 369.84M91.85 369.84L92.79 371.09M93.73 370.46L93.73 369.21M93.73 369.21L94.2 368.58M94.2 368.58L95.13 368.58M95.13 368.58L95.6 369.21M95.6 369.21L95.6 370.46M95.6 370.46L95.13 371.09M95.13 371.09L94.2 371.09M94.2 371.09L93.73 370.46M96.54 371.09L96.54 368.58M96.54 368.58L96.54 369.84M96.54 369.84L98.42 369.84M98.42 369.84L98.42 368.58M98.42 368.58L98.42 371.09M100.3 371.09L100.3 368.58M100.3 368.58L99.36 368.58M99.36 368.58L101.24 368.58M102.18 371.09L102.18 368.58M102.18 368.58L103.59 368.58M103.59 368.58L104.06 369.21M104.06 369.21L104.06 369.84M104.06 369.84L103.59 370.46M103.59 370.46L102.18 370.46M105 371.09L105 370.46"
fill="none" stroke="black" stroke-width="3"/>
</g>
<g><path d="M87.15 384.51L87.15 380.75M87.15 382.63L89.03 382.63M89.03 380.75L89.03 384.51M89.97 384.51L89.97 383.88M90.91 384.51L90.91 382M90.91 382L90.91 383.25M90.91 383.25L91.85 383.25M91.85 383.25L92.79 382M92.79 382L91.85 383.25M91.85 383.25L92.79 384.51M93.73 383.88L93.73 382.63M93.73 382.63L94.2 382M94.2 382L95.13 382M95.13 382L95.6 382.63M95.6 382.63L95.6 383.88M95.6 383.88L95.13 384.51M95.13 384.51L94.2 384.51M94.2 384.51L93.73 383.88M96.54 384.51L96.54 382M96.54 382L96.54 383.25M96.54 383.25L98.42 383.25M98.42 383.25L98.42 382M98.42 382L98.42 384.51M100.3 384.51L100.3 382M100.3 382L99.36 382M99.36 382L101.24 382M102.18 384.51L102.18 382M102.18 382L103.59 382M103.59 382L104.06 382.63M104.06 382.63L104.06 383.25M104.06 383.25L103.59 383.88M103.59 383.88L102.18 383.88M105 384.51L105 383.88"
fill="none" stroke="black" stroke-width="3"/>
</g>
<g><path d="M87.15 390.59L87.62 391.22M87.62 391.22L88.56 391.22M88.56 391.22L89.03 390.59M89.03 390.59L89.03 387.46M89.03 387.46L89.03 389.96M89.03 389.96L87.62 389.96M87.62 389.96L87.15 389.34M87.15 389.34L87.15 387.46M90.91 391.22L90.91 388.71M90.91 388.71L89.97 388.71M89.97 388.71L91.85 388.71M92.79 391.22L92.79 388.71M92.79 388.71L93.73 388.71M93.73 389.96L92.79 389.96M92.79 389.96L94.2 389.96M94.2 391.22L92.79 391.22M93.73 389.96L94.06 389.78M94.06 389.78L94.2 389.34M94.2 389.34L94.06 388.89M94.06 388.89L93.73 388.71M94.2 391.22L94.53 391.03M94.53 391.03L94.67 390.59M94.67 390.59L94.53 390.15M94.53 390.15L94.2 389.96M95.6 391.22L95.6 390.59"
fill="none" stroke="black" stroke-width="3"/>
</g>
<g><path d="M337.07 392.46L335.46 392.46M335.46 391.66L336.27 392.26M336.27 392.26L336.27 392.46M336.27 392.26L337.07 391.66M337.07 391.25L335.46 391.25M335.46 391.25L335.46 390.45M335.46 390.45L337.07 390.45M337.07 390.45L337.07 391.25M337.07 390.05L335.46 390.05M335.46 390.05L337.07 389.24M337.07 389.24L335.46 389.24M336.8 388.84L337.07 388.64M337.07 388.64L337.07 388.23M337.07 388.23L336.8 388.03M336.8 388.03L335.73 388.84M335.73 388.84L335.46 388.64M335.46 388.64L335.46 388.23M335.46 388.23L335.73 388.03M337.07 387.63L335.46 387.63M335.46 387.63L335.46 386.83M336.27 387.63L336.27 387.23M337.07 387.63L337.07 386.83M337.07 386.42L335.46 385.62M335.46 386.42L337.07 385.62M337.07 385.22L335.46 385.22M335.46 385.22L335.46 384.61M335.46 384.61L335.73 384.41M335.73 384.41L336 384.41M336 384.41L336.27 384.61M336.27 384.61L336.27 385.22M337.07 384.01L335.46 384.01M335.46 384.01L335.46 383.2M336.27 384.01L336.27 383.6M337.07 384.01L337.07 383.2M337.07 382.8L335.46 382.8M335.46 382.8L335.46 382.2M335.46 382.2L335.73 381.99M335.73 381.99L336 381.99M336 381.99L336.27 382.2M336.27 382.2L336.27 382.8M336.27 382.6L337.07 381.99M335.46 381.59L335.46 380.79M335.46 381.19L337.07 381.19M336.53 378.37L337.07 378.77M337.07 378.77L337.07 378.98M337.07 378.98L336.8 379.18M336.8 379.18L336.53 379.18M336.53 379.18L336 378.77M336 378.77L335.73 378.77M335.73 378.77L335.46 378.98M335.46 378.98L335.73 379.18M335.73 379.18L336 379.18M336 379.18L337.07 378.37M337.07 376.76L335.46 376.76M335.46 376.76L335.46 376.16M335.46 376.16L335.73 375.96M335.73 375.96L336 375.96M336 375.96L336.27 376.16M336.27 376.16L336.27 376.76M336.27 376.56L337.07 375.96M335.46 375.55L335.46 375.15M335.46 375.35L337.07 375.35M337.07 375.55L337.07 375.15M337.07 374.75L337.07 374.14M337.07 374.14L336.8 373.94M336.8 373.94L336.53 373.94M336.53 373.94L336.27 374.14M336.27 374.14L336.27 374.55M336.27 374.14L336 373.94M336 373.94L335.73 373.94M335.73 373.94L335.46 374.14M335.46 374.14L335.46 374.75M335.46 374.55L337.07 374.55M337.07 373.54L337.07 372.94M337.07 372.94L336.8 372.74M336.8 372.74L336.53 372.74M336.53 372.74L336.27 372.94M336.27 372.94L336.27 373.34M336.27 372.94L336 372.74M336 372.74L335.73 372.74M335.73 372.74L335.46 372.94M335.46 372.94L335.46 373.54M335.46 373.34L337.07 373.34M337.07 372.33L335.46 372.33M335.46 372.33L335.46 371.53M335.46 371.53L337.07 371.53M337.07 371.53L337.07 372.33M337.07 371.13L335.46 371.13M335.46 371.13L337.07 370.32M337.07 370.32L335.46 370.32M336.8 369.92L337.07 369.72M337.07 369.72L337.07 369.31M337.07 369.31L336.8 369.11M336.8 369.11L335.73 369.92M335.73 369.92L335.46 369.72M335.46 369.72L335.46 369.31M335.46 369.31L335.73 369.11M337.07 368.71L335.46 368.71M335.46 368.71L335.46 367.9M335.46 367.9L337.07 367.9M337.07 367.9L337.07 368.71M337.07 367.5L335.46 367.5M335.46 367.5L335.46 366.7M336.27 367.5L336.27 367.1M335.46 366.29L335.46 365.49M335.46 365.89L337.07 365.89"
fill="none" stroke="black" stroke-width="3"/>
</g>
<g><path d="M339.5 389.71L337.89 389.71M337.89 389.71L337.89 388.9M337.89 388.9L339.5 388.9M339.5 388.9L339.5 389.71M339.5 388.5L337.89 388.5M337.89 388.5L337.89 387.89M337.89 387.89L338.16 387.69M338.16 387.69L338.43 387.69M338.43 387.69L338.7 387.89M338.7 387.89L338.7 388.5M339.5 387.29L337.89 387.29M337.89 387.29L337.89 386.49M338.7 387.29L338.7 386.89M339.5 387.29L339.5 386.49M339.5 386.08L337.89 386.08M337.89 386.08L339.5 385.28M339.5 385.28L337.89 385.28M339.23 383.67L339.5 383.47M339.5 383.47L339.5 383.06M339.5 383.06L339.23 382.86M339.23 382.86L338.16 383.67M338.16 383.67L337.89 383.47M337.89 383.47L337.89 383.06M337.89 383.06L338.16 382.86M339.5 382.46L337.89 382.46M337.89 382.46L337.89 381.66M337.89 381.66L339.5 381.66M339.5 381.66L339.5 382.46M337.89 381.25L339.23 381.25M339.23 381.25L339.5 381.05M339.5 381.05L339.5 380.65M339.5 380.65L339.23 380.45M339.23 380.45L337.89 380.45M339.5 380.05L337.89 380.05M337.89 380.05L337.89 379.44M337.89 379.44L338.16 379.24M338.16 379.24L338.43 379.24M338.43 379.24L338.7 379.44M338.7 379.44L338.7 380.05M338.7 379.84L339.5 379.24M339.23 378.03L339.5 378.23M339.5 378.23L339.5 378.64M339.5 378.64L339.23 378.84M339.23 378.84L338.16 378.84M338.16 378.84L337.89 378.64M337.89 378.64L337.89 378.23M337.89 378.23L338.16 378.03M339.5 377.63L337.89 377.63M337.89 377.63L337.89 376.82M338.7 377.63L338.7 377.23M339.5 377.63L339.5 376.82M339.5 375.21L337.89 375.21M337.89 375.21L337.89 374.61M337.89 374.61L338.16 374.41M338.16 374.41L338.43 374.41M338.43 374.41L338.7 374.61M338.7 374.61L338.7 375.21M338.7 375.01L339.5 374.41M339.5 374.01L337.89 374.01M337.89 374.01L337.89 373.2M338.7 374.01L338.7 373.6M339.5 374.01L339.5 373.2M337.89 372.8L339.5 372.8M339.5 372.8L339.5 371.99M339.5 371.59L337.89 371.59M337.89 371.59L337.89 370.79M338.7 371.59L338.7 371.19M339.5 371.59L339.5 370.79M339.5 370.38L338.96 370.38M338.96 370.38L337.89 369.98M337.89 369.98L338.96 369.58M338.96 369.58L339.5 369.58M338.96 370.38L338.96 369.58M339.23 369.18L339.5 368.97M339.5 368.97L339.5 368.57M339.5 368.57L339.23 368.37M339.23 368.37L338.16 369.18M338.16 369.18L337.89 368.97M337.89 368.97L337.89 368.57M337.89 368.57L338.16 368.37M339.5 367.97L337.89 367.97M337.89 367.97L337.89 367.16M338.7 367.97L338.7 367.57M339.5 367.97L339.5 367.16"
fill="none" stroke="black" stroke-width="3"/>
</g>
<g><path d="M269.23 384.28L271.11 384.28"
fill="none" stroke="black" stroke-width="3"/>
</g>
<g><path d="M92.92 278.35L93.68 277.35M93.68 277.35L93.68 283.39M92.92 283.39L94.43 283.39M95.94 283.39L95.94 282.38M101.98 283.39L101.98 277.35M101.98 280.37L105 280.37M105 277.35L105 283.39M106.51 281.37L108.77 281.37M108.77 281.37L109.53 280.37M109.53 280.37L108.77 279.36M108.77 279.36L107.27 279.36M107.27 279.36L106.51 280.37M106.51 280.37L106.51 282.38M106.51 282.38L107.27 283.39M107.27 283.39L108.77 283.39M111.04 282.38L111.79 283.39M111.79 283.39L113.3 283.39M113.3 283.39L114.06 282.38M114.06 282.38L114.06 279.36M114.06 279.36L114.06 281.37M114.06 281.37L112.55 281.37M112.55 281.37L111.04 279.36M115.57 283.39L115.57 279.36M115.57 279.36L115.57 281.37M115.57 281.37L117.08 281.37M117.08 281.37L118.59 279.36M118.59 279.36L117.08 281.37M117.08 281.37L118.59 283.39M120.1 282.38L120.1 280.37M120.1 280.37L120.85 279.36M120.85 279.36L122.36 279.36M122.36 279.36L123.12 280.37M123.12 280.37L123.12 279.36M123.12 279.36L123.12 283.39M123.12 283.39L123.12 282.38M123.12 282.38L122.36 283.39M122.36 283.39L120.85 283.39M120.85 283.39L120.1 282.38M124.63 280.37L125.38 279.36M125.38 279.36L126.89 279.36M126.89 279.36L127.64 280.37M127.64 280.37L126.89 281.37M126.89 281.37L126.14 281.37M126.14 281.37L126.89 281.37M126.89 281.37L127.64 282.38M127.64 282.38L126.89 283.39M126.89 283.39L125.38 283.39M125.38 283.39L124.63 282.38M129.15 282.38L129.15 280.37M129.15 280.37L129.91 279.36M129.91 279.36L131.42 279.36M131.42 279.36L132.17 280.37M132.17 280.37L132.17 279.36M132.17 279.36L132.17 283.39M132.17 283.39L132.17 282.38M132.17 282.38L131.42 283.39M131.42 283.39L129.91 283.39M129.91 283.39L129.15 282.38M133.68 283.39L133.68 279.36M133.68 279.36L133.68 281.37M133.68 281.37L136.7 281.37M136.7 281.37L136.7 279.36M136.7 279.36L136.7 283.39M138.21 283.39L138.21 279.36M138.21 279.36L138.21 281.37M138.21 281.37L141.23 281.37M141.23 281.37L141.23 279.36M141.23 279.36L141.23 283.39M142.74 283.39L142.74 279.36M142.74 279.36L142.74 281.37M142.74 281.37L144.25 281.37M144.25 281.37L145 282.38M145 282.38L144.25 283.39M144.25 283.39L142.74 283.39M145.76 283.39L145.76 279.36M147.27 281.37L149.53 281.37M149.53 281.37L150.29 280.37M150.29 280.37L149.53 279.36M149.53 279.36L148.02 279.36M148.02 279.36L147.27 280.37M147.27 280.37L147.27 282.38M147.27 282.38L148.02 283.39M148.02 283.39L149.53 283.39M156.33 283.39L156.33 279.36M156.33 279.36L159.35 279.36M159.35 279.36L159.35 283.39M160.86 283.39L160.86 279.36M160.86 279.36L163.12 279.36M163.12 279.36L163.87 280.37M163.87 280.37L163.87 281.37M163.87 281.37L163.12 282.38M163.12 282.38L160.86 282.38M165.38 281.37L167.65 281.37M167.65 281.37L168.4 280.37M168.4 280.37L167.65 279.36M167.65 279.36L166.14 279.36M166.14 279.36L165.38 280.37M165.38 280.37L165.38 282.38M165.38 282.38L166.14 283.39M166.14 283.39L167.65 283.39M169.91 284.39L169.91 283.39M169.91 283.39L170.67 283.39M170.67 283.39L170.67 280.37M170.67 280.37L171.42 279.36M171.42 279.36L172.18 279.36M172.18 279.36L172.18 283.39M172.18 283.39L170.67 283.39M170.67 283.39L172.93 283.39M172.93 283.39L172.93 284.39M174.44 281.37L176.71 281.37M176.71 281.37L177.46 280.37M177.46 280.37L176.71 279.36M176.71 279.36L175.2 279.36M175.2 279.36L174.44 280.37M174.44 280.37L174.44 282.38M174.44 282.38L175.2 283.39M175.2 283.39L176.71 283.39M178.97 283.39L180.48 279.36M180.48 279.36L181.99 279.36M181.99 279.36L181.99 283.39M183.5 283.39L183.5 279.36M183.5 279.36L183.5 281.37M183.5 281.37L185.01 281.37M185.01 281.37L185.76 282.38M185.76 282.38L185.01 283.39M185.01 283.39L183.5 283.39M187.27 283.39L187.27 279.36M187.27 279.36L187.27 281.37M187.27 281.37L190.29 281.37M190.29 281.37L190.29 279.36M190.29 279.36L190.29 283.39M191.8 283.39L191.8 279.36M191.8 279.36L191.8 281.37M191.8 281.37L193.31 281.37M193.31 281.37L194.07 282.38M194.07 282.38L193.31 283.39M193.31 283.39L191.8 283.39M194.82 283.39L194.82 279.36M196.33 281.37L198.6 281.37M198.6 281.37L199.35 280.37M199.35 280.37L198.6 279.36M198.6 279.36L197.09 279.36M197.09 279.36L196.33 280.37M196.33 280.37L196.33 282.38M196.33 282.38L197.09 283.39M197.09 283.39L198.6 283.39M205.39 282.38L205.39 280.37M205.39 280.37L206.14 279.36M206.14 279.36L207.65 279.36M207.65 279.36L208.41 280.37M208.41 280.37L208.41 282.38M208.41 282.38L207.65 283.39M207.65 283.39L206.14 283.39M206.14 283.39L205.39 282.38M211.43 283.39L211.43 279.36M211.43 279.36L209.92 279.36M209.92 279.36L212.94 279.36M214.45 283.39L214.45 279.36M214.45 279.36L214.45 281.37M214.45 281.37L215.96 281.37M215.96 281.37L217.47 279.36M217.47 279.36L215.96 281.37M215.96 281.37L217.47 283.39M218.98 283.39L220.48 279.36M220.48 279.36L221.99 279.36M221.99 279.36L221.99 283.39M223.5 282.38L223.5 280.37M223.5 280.37L224.26 279.36M224.26 279.36L225.77 279.36M225.77 279.36L226.52 280.37M226.52 280.37L226.52 282.38M226.52 282.38L225.77 283.39M225.77 283.39L224.26 283.39M224.26 283.39L223.5 282.38M228.03 283.39L228.03 279.36M228.03 279.36L228.03 281.37M228.03 281.37L231.05 281.37M231.05 281.37L231.05 279.36M231.05 279.36L231.05 283.39M232.56 281.37L234.83 281.37M234.83 281.37L235.58 280.37M235.58 280.37L234.83 279.36M234.83 279.36L233.32 279.36M233.32 279.36L232.56 280.37M232.56 280.37L232.56 282.38M232.56 282.38L233.32 283.39M233.32 283.39L234.83 283.39M237.09 283.39L237.09 279.36M237.09 279.36L237.09 281.37M237.09 281.37L240.11 281.37M240.11 281.37L240.11 279.36M240.11 279.36L240.11 283.39M241.62 279.36L241.62 283.39M241.62 283.39L244.64 279.36M244.64 279.36L244.64 283.39M246.15 283.39L247.66 281.37M247.66 281.37L246.9 281.37M246.9 281.37L246.15 280.37M246.15 280.37L246.9 279.36M246.9 279.36L249.17 279.36M249.17 279.36L249.17 281.37M249.17 281.37L247.66 281.37M247.66 281.37L249.17 281.37M249.17 281.37L249.17 283.39M255.21 283.39L255.21 279.36M255.21 279.36L257.47 279.36M257.47 279.36L258.22 280.37M258.22 280.37L258.22 281.37M258.22 281.37L257.47 282.38M257.47 282.38L255.21 282.38M259.73 282.38L259.73 280.37M259.73 280.37L260.49 279.36M260.49 279.36L262 279.36M262 279.36L262.75 280.37M262.75 280.37L262.75 279.36M262.75 279.36L262.75 283.39M262.75 283.39L262.75 282.38M262.75 282.38L262 283.39M262 283.39L260.49 283.39M260.49 283.39L259.73 282.38M264.26 280.37L265.02 279.36M265.02 279.36L266.53 279.36M266.53 279.36L267.28 280.37M267.28 280.37L266.53 281.37M266.53 281.37L265.77 281.37M265.77 281.37L266.53 281.37M266.53 281.37L267.28 282.38M267.28 282.38L266.53 283.39M266.53 283.39L265.02 283.39M265.02 283.39L264.26 282.38M268.79 283.39L268.79 279.36M268.79 279.36L270.3 281.37M270.3 281.37L271.81 279.36M271.81 279.36L271.81 283.39M273.32 281.37L275.59 281.37M275.59 281.37L276.34 280.37M276.34 280.37L275.59 279.36M275.59 279.36L274.08 279.36M274.08 279.36L273.32 280.37M273.32 280.37L273.32 282.38M273.32 282.38L274.08 283.39M274.08 283.39L275.59 283.39M277.85 283.39L277.85 279.36M277.85 279.36L280.11 279.36M280.11 279.36L280.87 280.37M280.87 280.37L280.87 281.37M280.87 281.37L280.11 282.38M280.11 282.38L277.85 282.38M282.38 282.38L282.38 280.37M282.38 280.37L283.13 279.36M283.13 279.36L284.64 279.36M284.64 279.36L285.4 280.37M285.4 280.37L285.4 282.38M285.4 282.38L284.64 283.39M284.64 283.39L283.13 283.39M283.13 283.39L282.38 282.38M286.91 283.39L286.91 279.36M286.91 279.36L288.42 279.36M288.42 281.37L286.91 281.37M286.91 281.37L289.17 281.37M289.17 283.39L286.91 283.39M288.42 281.37L288.95 281.08M288.95 281.08L289.17 280.37M289.17 280.37L288.95 279.65M288.95 279.65L288.42 279.36M289.17 283.39L289.71 283.09M289.71 283.09L289.93 282.38M289.93 282.38L289.71 281.67M289.71 281.67L289.17 281.37M101.98 292.44L101.98 290.43M101.98 290.43L102.74 289.42M102.74 289.42L104.25 289.42M104.25 289.42L105 290.43M105 290.43L105 292.44M105 292.44L104.25 293.45M104.25 293.45L102.74 293.45M102.74 293.45L101.98 292.44M108.02 293.45L108.02 289.42M108.02 289.42L106.51 289.42M106.51 289.42L109.53 289.42M111.04 293.45L111.04 289.42M111.04 289.42L112.55 289.42M112.55 291.44L111.04 291.44M111.04 291.44L113.3 291.44M113.3 293.45L111.04 293.45M112.55 291.44L113.08 291.14M113.08 291.14L113.3 290.43M113.3 290.43L113.08 289.72M113.08 289.72L112.55 289.42M113.3 293.45L113.84 293.15M113.84 293.15L114.06 292.44M114.06 292.44L113.84 291.73M113.84 291.73L113.3 291.44M115.57 291.44L117.83 291.44M117.83 291.44L118.59 290.43M118.59 290.43L117.83 289.42M117.83 289.42L116.32 289.42M116.32 289.42L115.57 290.43M115.57 290.43L115.57 292.44M115.57 292.44L116.32 293.45M116.32 293.45L117.83 293.45M120.1 293.45L120.1 289.42M120.1 289.42L122.36 289.42M122.36 289.42L123.12 290.43M123.12 290.43L123.12 291.44M123.12 291.44L122.36 292.44M122.36 292.44L120.1 292.44M127.64 292.44L126.89 293.45M126.89 293.45L125.38 293.45M125.38 293.45L124.63 292.44M124.63 292.44L124.63 290.43M124.63 290.43L125.38 289.42M125.38 289.42L126.89 289.42M126.89 289.42L127.64 290.43M130.66 293.45L130.66 289.42M130.66 289.42L129.15 289.42M129.15 289.42L132.17 289.42M133.68 289.42L133.68 293.45M133.68 293.45L136.7 289.42M136.7 289.42L136.7 293.45M138.21 289.42L138.21 293.45M138.21 293.45L141.23 289.42M141.23 289.42L141.23 293.45M140.48 289.42L138.97 289.42M147.27 290.43L150.29 290.43M156.33 293.45L156.33 287.41M156.33 290.43L159.35 290.43M159.35 287.41L159.35 293.45M160.86 288.42L161.61 287.41M161.61 287.41L161.61 293.45M160.86 293.45L162.37 293.45M166.89 291.44L163.87 291.44M163.87 291.44L166.14 287.41M166.14 287.41L166.14 293.45M169.16 292.44L169.16 293.45M169.16 293.45L168.4 294.46M175.2 293.45L175.2 289.42M175.2 289.42L176.71 289.42M176.71 291.44L175.2 291.44M175.2 291.44L177.46 291.44M177.46 293.45L175.2 293.45M176.71 291.44L177.24 291.14M177.24 291.14L177.46 290.43M177.46 290.43L177.24 289.72M177.24 289.72L176.71 289.42M177.46 293.45L178 293.15M178 293.15L178.22 292.44M178.22 292.44L178 291.73M178 291.73L177.46 291.44M179.73 292.44L179.73 290.43M179.73 290.43L180.48 289.42M180.48 289.42L181.99 289.42M181.99 289.42L182.74 290.43M182.74 290.43L182.74 289.42M182.74 289.42L182.74 293.45M182.74 293.45L182.74 292.44M182.74 292.44L181.99 293.45M181.99 293.45L180.48 293.45M180.48 293.45L179.73 292.44M184.25 293.45L185.76 289.42M185.76 289.42L187.27 289.42M187.27 289.42L187.27 293.45M188.78 292.44L188.78 290.43M188.78 290.43L189.54 289.42M189.54 289.42L191.05 289.42M191.05 289.42L191.8 290.43M191.8 290.43L191.8 292.44M191.8 292.44L191.05 293.45M191.05 293.45L189.54 293.45M189.54 293.45L188.78 292.44M193.31 293.45L193.31 289.42M193.31 289.42L194.82 289.42M194.82 291.44L193.31 291.44M193.31 291.44L195.58 291.44M195.58 293.45L193.31 293.45M194.82 291.44L195.36 291.14M195.36 291.14L195.58 290.43M195.58 290.43L195.36 289.72M195.36 289.72L194.82 289.42M195.58 293.45L196.11 293.15M196.11 293.15L196.33 292.44M196.33 292.44L196.11 291.73M196.11 291.73L195.58 291.44M202.37 290.43L205.39 290.43M211.43 293.45L211.43 287.41M211.43 291.44L212.94 289.42M212.94 289.42L213.69 289.42M213.69 289.42L214.45 290.43M214.45 290.43L214.45 293.45M215.96 288.42L216.71 287.41M216.71 287.41L216.71 293.45M215.96 293.45L217.47 293.45M221.99 291.44L218.98 291.44M218.98 291.44L221.24 287.41M221.24 287.41L221.24 293.45M224.26 292.44L224.26 293.45M224.26 293.45L223.5 294.46M230.3 292.44L230.3 290.43M230.3 290.43L231.05 289.42M231.05 289.42L232.56 289.42M232.56 289.42L233.32 290.43M233.32 290.43L233.32 292.44M233.32 292.44L232.56 293.45M232.56 293.45L231.05 293.45M231.05 293.45L230.3 292.44M237.85 292.44L237.09 293.45M237.09 293.45L235.58 293.45M235.58 293.45L234.83 292.44M234.83 292.44L234.83 290.43M234.83 290.43L235.58 289.42M235.58 289.42L237.09 289.42M237.09 289.42L237.85 290.43M240.86 293.45L240.86 289.42M240.86 289.42L239.35 289.42M239.35 289.42L242.37 289.42M243.88 292.44L243.88 290.43M243.88 290.43L244.64 289.42M244.64 289.42L246.15 289.42M246.15 289.42L246.9 290.43M246.9 290.43L246.9 289.42M246.9 289.42L246.9 293.45M246.9 293.45L246.9 292.44M246.9 292.44L246.15 293.45M246.15 293.45L244.64 293.45M244.64 293.45L243.88 292.44M248.41 293.45L249.92 289.42M249.92 289.42L251.43 289.42M251.43 289.42L251.43 293.45M252.94 293.45L252.94 289.42M252.94 289.42L252.94 291.44M252.94 291.44L254.45 291.44M254.45 291.44L255.21 292.44M255.21 292.44L254.45 293.45M254.45 293.45L252.94 293.45M256.72 293.45L256.72 289.42M256.72 289.42L256.72 291.44M256.72 291.44L259.73 291.44M259.73 291.44L259.73 289.42M259.73 289.42L259.73 293.45M261.24 293.45L261.24 289.42M261.24 289.42L261.24 291.44M261.24 291.44L262.75 291.44M262.75 291.44L263.51 292.44M263.51 292.44L262.75 293.45M262.75 293.45L261.24 293.45M264.26 293.45L264.26 289.42M265.77 293.45L268.79 289.42M265.77 289.42L268.79 293.45M274.83 292.44L277.85 292.44M276.34 291.44L276.34 287.41M274.83 289.42L277.85 289.42M283.89 287.41L285.4 287.41M284.64 287.41L284.64 293.45M283.89 293.45L285.4 293.45M286.91 287.41L289.93 287.41M288.42 287.41L288.42 293.45"
fill="none" stroke="black" stroke-width="3"/>
</g>
<g><path d="M308.21 284.93L308.71 284.26M308.71 284.26L308.71 288.28M308.21 288.28L309.22 288.28M312.24 286.94L310.22 286.94M310.22 286.94L311.73 284.26M311.73 284.26L311.73 288.28"
fill="none" stroke="black" stroke-width="3"/>
</g>
<g><path d="M309.69 290.7L310.19 290.03M310.19 290.03L311.2 290.03M311.2 290.03L311.7 290.7M311.7 290.7L311.7 291.37M311.7 291.37L311.2 292.04M311.2 292.04L310.19 292.04M310.19 292.04L309.69 292.71M309.69 292.71L309.69 294.05M309.69 294.05L311.7 294.05"
fill="none" stroke="black" stroke-width="3"/>
</g>
<g><path d="M307.54 289.23L313.58 289.23"
fill="none" stroke="black" stroke-width="3"/>
</g>
<g><path d="M75.24 310.15L75.24 308.74M75.24 308.74L74.62 308.27M74.62 308.27L73.99 308.27M73.99 308.27L73.37 308.74M73.37 308.74L73.37 309.68M73.37 308.74L72.74 308.27M72.74 308.27L72.11 308.27M72.11 308.27L71.49 308.74M71.49 308.74L71.49 310.15M71.49 309.68L75.24 309.68M73.37 307.33L72.74 306.86M72.74 306.86L72.74 305.92M72.74 305.92L73.37 305.45M73.37 305.45L73.99 305.92M73.99 305.92L73.99 306.39M73.99 306.39L73.99 305.92M73.99 305.92L74.62 305.45M74.62 305.45L75.24 305.92M75.24 305.92L75.24 306.86M75.24 306.86L74.62 307.33M74.62 304.51L73.37 304.51M73.37 304.51L72.74 304.04M72.74 304.04L72.74 303.1M72.74 303.1L73.37 302.63M73.37 302.63L72.74 302.63M72.74 302.63L75.24 302.63M75.24 302.63L74.62 302.63M74.62 302.63L75.24 303.1M75.24 303.1L75.24 304.04M75.24 304.04L74.62 304.51M75.24 301.69L72.74 301.69M72.74 301.69L73.99 300.76M73.99 300.76L72.74 299.82M72.74 299.82L75.24 299.82M75.24 298.88L74.62 298.88M72.74 295.12L75.24 295.12M75.24 295.12L72.74 293.24M72.74 293.24L75.24 293.24M75.24 292.3L72.74 292.3M72.74 292.3L73.99 292.3M73.99 292.3L73.99 290.42M73.99 290.42L72.74 290.42M72.74 290.42L75.24 290.42M75.24 289.48L72.74 289.48M72.74 289.48L72.74 288.54M73.99 288.54L73.99 289.48M73.99 289.48L73.99 288.07M75.24 288.07L75.24 289.48M73.99 288.54L73.81 288.21M73.81 288.21L73.37 288.07M73.37 288.07L72.92 288.21M72.92 288.21L72.74 288.54M75.24 288.07L75.06 287.74M75.06 287.74L74.62 287.6M74.62 287.6L74.18 287.74M74.18 287.74L73.99 288.07M75.24 286.67L74.62 286.67M75.24 285.73L71.49 285.73M71.49 285.73L75.24 283.85M75.24 283.85L71.49 283.85"
fill="none" stroke="black" stroke-width="3"/>
</g>
</g>
</svg>
