<?xml version="1.0" standalone="no"?><svg xmlns="http://www.w3.org/2000/svg" width="400.000" height="400.000" viewBox="0.0 0.0 400.000 400.000" version="1.1">
  <title>Produce by Acme CAD Converter</title>
  <desc>Produce by Acme CAD Converter</desc>
<g id="0" display="visible">
<g><path d="M85.94 7.44L334.19 7.44"
fill="none" stroke="black" stroke-width="9"/>
</g>
<g><path d="M85.94 7.44L69.84 7.44"
fill="none" stroke="black" stroke-width="9"/>
</g>
<g><path d="M85.94 168.47L69.84 168.47"
fill="none" stroke="black" stroke-width="9"/>
</g>
<g><path d="M85.94 87.95L69.84 87.95"
fill="none" stroke="black" stroke-width="9"/>
</g>
<g><path d="M85.94 197.99L69.84 197.99"
fill="none" stroke="black" stroke-width="9"/>
</g>
<g><path d="M69.84 392.56L69.84 197.99"
fill="none" stroke="black" stroke-width="9"/>
</g>
<g><path d="M85.94 244.95L69.84 244.95"
fill="none" stroke="black" stroke-width="9"/>
</g>
<g><path d="M85.94 278.5L69.84 278.5"
fill="none" stroke="black" stroke-width="9"/>
</g>
<g><path d="M85.94 312.05L69.84 312.05"
fill="none" stroke="black" stroke-width="9"/>
</g>
<g><path d="M85.94 359.01L69.84 359.01"
fill="none" stroke="black" stroke-width="9"/>
</g>
<g><path d="M85.94 392.56L69.84 392.56"
fill="none" stroke="black" stroke-width="9"/>
</g>
<g><path d="M334.19 392.56L85.94 392.56"
fill="none" stroke="black" stroke-width="9"/>
</g>
<g><path d="M76.55 392.56L76.55 197.99"
fill="none" stroke="black" stroke-width="3"/>
</g>
<g><path d="M334.19 7.44L334.19 392.56"
fill="none" stroke="black" stroke-width="9"/>
</g>
<g><path d="M59.1 0.73L340.9 0.73"
fill="none" stroke="black" stroke-width="3"/>
</g>
<g><path d="M340.9 0.73L340.9 399.27"
fill="none" stroke="black" stroke-width="3"/>
</g>
<g><path d="M340.9 399.27L59.1 399.27"
fill="none" stroke="black" stroke-width="3"/>
</g>
<g><path d="M76.55 168.47L76.55 7.44"
fill="none" stroke="black" stroke-width="3"/>
</g>
<g><path d="M85.94 392.56L85.94 7.44"
fill="none" stroke="black" stroke-width="9"/>
</g>
<g><path d="M69.84 168.47L69.84 7.44"
fill="none" stroke="black" stroke-width="9"/>
</g>
<g><path d="M59.1 399.27L59.1 0.73"
fill="none" stroke="black" stroke-width="3"/>
</g>
<g><path d="M85.94 26.23L179.87 26.23"
fill="none" stroke="black" stroke-width="9"/>
</g>
<g><path d="M179.87 26.23L179.87 7.44"
fill="none" stroke="black" stroke-width="9"/>
</g>
<g><path d="M197.32 397.25L197.32 393.5M199.19 393.5L197.79 395.38M197.79 395.38L197.32 395.38M197.79 395.38L199.19 397.25M200.13 396.63L200.13 395.38M200.13 395.38L200.6 394.75M200.6 394.75L201.54 394.75M201.54 394.75L202.01 395.38M202.01 395.38L202.01 396.63M202.01 396.63L201.54 397.25M201.54 397.25L200.6 397.25M200.6 397.25L200.13 396.63M202.95 397.25L202.95 394.75M202.95 394.75L204.83 394.75M204.83 394.75L204.83 397.25M205.77 394.75L205.77 397.25M205.77 397.25L207.65 394.75M207.65 394.75L207.65 397.25M208.59 397.25L208.59 394.75M208.59 394.75L210 394.75M210 394.75L210.47 395.38M210.47 395.38L210.47 396M210.47 396L210 396.63M210 396.63L208.59 396.63M211.41 396.63L211.41 395.38M211.41 395.38L211.88 394.75M211.88 394.75L212.81 394.75M212.81 394.75L213.28 395.38M213.28 395.38L213.28 396.63M213.28 396.63L212.81 397.25M212.81 397.25L211.88 397.25M211.88 397.25L211.41 396.63M214.22 397.25L214.22 394.75M214.22 394.75L215.16 394.75M215.16 396L214.22 396M214.22 396L215.63 396M215.63 397.25L214.22 397.25M215.16 396L215.5 395.82M215.5 395.82L215.63 395.38M215.63 395.38L215.5 394.93M215.5 394.93L215.16 394.75M215.63 397.25L215.96 397.07M215.96 397.07L216.1 396.63M216.1 396.63L215.96 396.18M215.96 396.18L215.63 396M217.04 396.63L217.04 395.38M217.04 395.38L217.51 394.75M217.51 394.75L218.45 394.75M218.45 394.75L218.92 395.38M218.92 395.38L218.92 394.75M218.92 394.75L218.92 397.25M218.92 397.25L218.92 396.63M218.92 396.63L218.45 397.25M218.45 397.25L217.51 397.25M217.51 397.25L217.04 396.63M219.86 397.25L220.8 394.75M220.8 394.75L221.74 394.75M221.74 394.75L221.74 397.25"
fill="none" stroke="black" stroke-width="3"/>
</g>
<g><path d="M337.07 392.46L335.46 392.46M335.46 391.66L336.27 392.26M336.27 392.26L336.27 392.46M336.27 392.26L337.07 391.66M337.07 391.25L335.46 391.25M335.46 391.25L335.46 390.45M335.46 390.45L337.07 390.45M337.07 390.45L337.07 391.25M337.07 390.05L335.46 390.05M335.46 390.05L337.07 389.24M337.07 389.24L335.46 389.24M336.8 388.84L337.07 388.64M337.07 388.64L337.07 388.23M337.07 388.23L336.8 388.03M336.8 388.03L335.73 388.84M335.73 388.84L335.46 388.64M335.46 388.64L335.46 388.23M335.46 388.23L335.73 388.03M337.07 387.63L335.46 387.63M335.46 387.63L335.46 386.83M336.27 387.63L336.27 387.23M337.07 387.63L337.07 386.83M337.07 386.42L335.46 385.62M335.46 386.42L337.07 385.62M337.07 385.22L335.46 385.22M335.46 385.22L335.46 384.61M335.46 384.61L335.73 384.41M335.73 384.41L336 384.41M336 384.41L336.27 384.61M336.27 384.61L336.27 385.22M337.07 384.01L335.46 384.01M335.46 384.01L335.46 383.2M336.27 384.01L336.27 383.6M337.07 384.01L337.07 383.2M337.07 382.8L335.46 382.8M335.46 382.8L335.46 382.2M335.46 382.2L335.73 381.99M335.73 381.99L336 381.99M336 381.99L336.27 382.2M336.27 382.2L336.27 382.8M336.27 382.6L337.07 381.99M335.46 381.59L335.46 380.79M335.46 381.19L337.07 381.19M336.53 378.37L337.07 378.77M337.07 378.77L337.07 378.98M337.07 378.98L336.8 379.18M336.8 379.18L336.53 379.18M336.53 379.18L336 378.77M336 378.77L335.73 378.77M335.73 378.77L335.46 378.98M335.46 378.98L335.73 379.18M335.73 379.18L336 379.18M336 379.18L337.07 378.37M337.07 376.76L335.46 376.76M335.46 376.76L335.46 376.16M335.46 376.16L335.73 375.96M335.73 375.96L336 375.96M336 375.96L336.27 376.16M336.27 376.16L336.27 376.76M336.27 376.56L337.07 375.96M335.46 375.55L335.46 375.15M335.46 375.35L337.07 375.35M337.07 375.55L337.07 375.15M337.07 374.75L337.07 374.14M337.07 374.14L336.8 373.94M336.8 373.94L336.53 373.94M336.53 373.94L336.27 374.14M336.27 374.14L336.27 374.55M336.27 374.14L336 373.94M336 373.94L335.73 373.94M335.73 373.94L335.46 374.14M335.46 374.14L335.46 374.75M335.46 374.55L337.07 374.55M337.07 373.54L337.07 372.94M337.07 372.94L336.8 372.74M336.8 372.74L336.53 372.74M336.53 372.74L336.27 372.94M336.27 372.94L336.27 373.34M336.27 372.94L336 372.74M336 372.74L335.73 372.74M335.73 372.74L335.46 372.94M335.46 372.94L335.46 373.54M335.46 373.34L337.07 373.34M337.07 372.33L335.46 372.33M335.46 372.33L335.46 371.53M335.46 371.53L337.07 371.53M337.07 371.53L337.07 372.33M337.07 371.13L335.46 371.13M335.46 371.13L337.07 370.32M337.07 370.32L335.46 370.32M336.8 369.92L337.07 369.72M337.07 369.72L337.07 369.31M337.07 369.31L336.8 369.11M336.8 369.11L335.73 369.92M335.73 369.92L335.46 369.72M335.46 369.72L335.46 369.31M335.46 369.31L335.73 369.11M337.07 368.71L335.46 368.71M335.46 368.71L335.46 367.9M335.46 367.9L337.07 367.9M337.07 367.9L337.07 368.71M337.07 367.5L335.46 367.5M335.46 367.5L335.46 366.7M336.27 367.5L336.27 367.1M335.46 366.29L335.46 365.49M335.46 365.89L337.07 365.89"
fill="none" stroke="black" stroke-width="3"/>
</g>
<g><path d="M339.5 389.71L337.89 389.71M337.89 389.71L337.89 388.9M337.89 388.9L339.5 388.9M339.5 388.9L339.5 389.71M339.5 388.5L337.89 388.5M337.89 388.5L337.89 387.89M337.89 387.89L338.16 387.69M338.16 387.69L338.43 387.69M338.43 387.69L338.7 387.89M338.7 387.89L338.7 388.5M339.5 387.29L337.89 387.29M337.89 387.29L337.89 386.49M338.7 387.29L338.7 386.89M339.5 387.29L339.5 386.49M339.5 386.08L337.89 386.08M337.89 386.08L339.5 385.28M339.5 385.28L337.89 385.28M339.23 383.67L339.5 383.47M339.5 383.47L339.5 383.06M339.5 383.06L339.23 382.86M339.23 382.86L338.16 383.67M338.16 383.67L337.89 383.47M337.89 383.47L337.89 383.06M337.89 383.06L338.16 382.86M339.5 382.46L337.89 382.46M337.89 382.46L337.89 381.66M337.89 381.66L339.5 381.66M339.5 381.66L339.5 382.46M337.89 381.25L339.23 381.25M339.23 381.25L339.5 381.05M339.5 381.05L339.5 380.65M339.5 380.65L339.23 380.45M339.23 380.45L337.89 380.45M339.5 380.05L337.89 380.05M337.89 380.05L337.89 379.44M337.89 379.44L338.16 379.24M338.16 379.24L338.43 379.24M338.43 379.24L338.7 379.44M338.7 379.44L338.7 380.05M338.7 379.84L339.5 379.24M339.23 378.03L339.5 378.23M339.5 378.23L339.5 378.64M339.5 378.64L339.23 378.84M339.23 378.84L338.16 378.84M338.16 378.84L337.89 378.64M337.89 378.64L337.89 378.23M337.89 378.23L338.16 378.03M339.5 377.63L337.89 377.63M337.89 377.63L337.89 376.82M338.7 377.63L338.7 377.23M339.5 377.63L339.5 376.82M339.5 375.21L337.89 375.21M337.89 375.21L337.89 374.61M337.89 374.61L338.16 374.41M338.16 374.41L338.43 374.41M338.43 374.41L338.7 374.61M338.7 374.61L338.7 375.21M338.7 375.01L339.5 374.41M339.5 374.01L337.89 374.01M337.89 374.01L337.89 373.2M338.7 374.01L338.7 373.6M339.5 374.01L339.5 373.2M337.89 372.8L339.5 372.8M339.5 372.8L339.5 371.99M339.5 371.59L337.89 371.59M337.89 371.59L337.89 370.79M338.7 371.59L338.7 371.19M339.5 371.59L339.5 370.79M339.5 370.38L338.96 370.38M338.96 370.38L337.89 369.98M337.89 369.98L338.96 369.58M338.96 369.58L339.5 369.58M338.96 370.38L338.96 369.58M339.23 369.18L339.5 368.97M339.5 368.97L339.5 368.57M339.5 368.57L339.23 368.37M339.23 368.37L338.16 369.18M338.16 369.18L337.89 368.97M337.89 368.97L337.89 368.57M337.89 368.57L338.16 368.37M339.5 367.97L337.89 367.97M337.89 367.97L337.89 367.16M338.7 367.97L338.7 367.57M339.5 367.97L339.5 367.16"
fill="none" stroke="black" stroke-width="3"/>
</g>
<g><path d="M174.9 13.92L171.54 13.92"
fill="none" stroke="black" stroke-width="3"/>
</g>
<g><path d="M85.94 379.14L173.16 379.14"
fill="none" stroke="black" stroke-width=".5"/>
</g>
<g><path d="M160.5 391.39L160.5 390.81M160.5 390.81L162.68 390.81M162.68 390.81L162.68 387.32M162.68 387.32L161.81 387.32M161.81 387.32L160.94 389.64M160.94 389.64L160.94 390.81M160.94 390.81L163.12 390.81M163.12 390.81L163.12 391.39M163.99 390.23L163.99 389.06M163.99 389.06L164.42 388.48M164.42 388.48L165.3 388.48M165.3 388.48L165.73 389.06M165.73 389.06L165.73 388.48M165.73 388.48L165.73 390.81M165.73 390.81L165.73 390.23M165.73 390.23L165.3 390.81M165.3 390.81L164.42 390.81M164.42 390.81L163.99 390.23M167.48 390.81L167.48 388.48M167.48 388.48L166.6 388.48M166.6 388.48L168.35 388.48M169.22 390.23L169.22 389.06M169.22 389.06L169.66 388.48M169.66 388.48L170.53 388.48M170.53 388.48L170.97 389.06M170.97 389.06L170.97 388.48M170.97 388.48L170.97 390.81M170.97 390.81L170.97 390.23M170.97 390.23L170.53 390.81M170.53 390.81L169.66 390.81M169.66 390.81L169.22 390.23"
fill="none" stroke="black" stroke-width="3"/>
</g>
<g><path d="M320.77 392.56L320.77 372.43"
fill="none" stroke="black" stroke-width="9"/>
</g>
<g><path d="M85.94 372.43L334.19 372.43"
fill="none" stroke="black" stroke-width="9"/>
</g>
<g><path d="M95.33 392.56L95.33 372.43"
fill="none" stroke="black" stroke-width="9"/>
</g>
<g><path d="M108.75 392.56L108.75 372.43"
fill="none" stroke="black" stroke-width="9"/>
</g>
<g><path d="M139.62 392.56L139.62 372.43"
fill="none" stroke="black" stroke-width="9"/>
</g>
<g><path d="M159.74 392.56L159.74 372.43"
fill="none" stroke="black" stroke-width="9"/>
</g>
<g><path d="M85.94 385.85L173.16 385.85"
fill="none" stroke="black" stroke-width="9"/>
</g>
<g><path d="M173.16 392.56L173.16 372.43"
fill="none" stroke="black" stroke-width="9"/>
</g>
<g><path d="M320.77 382.49L334.19 382.49"
fill="none" stroke="black" stroke-width="9"/>
</g>
<g><path d="M197.46 387.18L202.16 387.18"
fill="none" stroke="black" stroke-width="3"/>
</g>
<g><path d="M321.85 379.14L322.32 379.14M322.32 379.14L323.73 375.38M323.73 375.38L324.2 375.38M324.2 375.38L324.2 379.14M325.14 376.64L325.14 379.14M325.14 379.14L327.02 376.64M327.02 376.64L327.02 379.14M329.84 378.51L329.37 379.14M329.37 379.14L328.43 379.14M328.43 379.14L327.96 378.51M327.96 378.51L327.96 377.26M327.96 377.26L328.43 376.64M328.43 376.64L329.37 376.64M329.37 376.64L329.84 377.26M331.72 379.14L331.72 376.64M331.72 376.64L330.78 376.64M330.78 376.64L332.65 376.64"
fill="none" stroke="black" stroke-width="3"/>
</g>
<g><path d="M326.24 391.66L329.59 391.66"
fill="none" stroke="black" stroke-width="3"/>
</g>
<g><path d="M74.92 63.87L71.17 63.87M71.17 63.87L71.17 61.99M71.17 61.99L74.92 61.99M73.67 61.05L73.67 59.64M73.67 59.64L73.05 59.17M73.05 59.17L72.42 59.64M72.42 59.64L72.42 60.58M72.42 60.58L73.05 61.05M73.05 61.05L74.3 61.05M74.3 61.05L74.92 60.58M74.92 60.58L74.92 59.64M74.92 58.23L72.42 58.23M72.42 58.23L72.42 56.83M72.42 56.83L73.05 56.36M73.05 56.36L73.67 56.36M73.67 56.36L74.3 56.83M74.3 56.83L74.3 58.23M74.92 55.42L72.42 55.42M72.42 55.42L72.42 54.48M73.67 54.48L73.67 55.42M73.67 55.42L73.67 54.01M74.92 54.01L74.92 55.42M73.67 54.48L73.49 54.15M73.49 54.15L73.05 54.01M73.05 54.01L72.6 54.15M72.6 54.15L72.42 54.48M74.92 54.01L74.74 53.68M74.74 53.68L74.3 53.54M74.3 53.54L73.86 53.68M73.86 53.68L73.67 54.01M74.92 52.6L74.3 52.6M74.92 48.84L72.42 48.84M72.42 48.84L72.42 46.96M72.42 46.96L74.92 46.96M74.92 46.02L72.42 46.02M72.42 46.02L72.42 44.61M72.42 44.61L73.05 44.14M73.05 44.14L73.67 44.14M73.67 44.14L74.3 44.61M74.3 44.61L74.3 46.02M72.42 43.21L74.92 43.21M74.92 43.21L72.42 41.33M72.42 41.33L74.92 41.33M74.92 40.39L72.42 40.39M72.42 40.39L73.67 39.45M73.67 39.45L72.42 38.51M72.42 38.51L74.92 38.51M73.67 37.57L73.67 36.16M73.67 36.16L73.05 35.69M73.05 35.69L72.42 36.16M72.42 36.16L72.42 37.1M72.42 37.1L73.05 37.57M73.05 37.57L74.3 37.57M74.3 37.57L74.92 37.1M74.92 37.1L74.92 36.16M74.92 34.75L72.42 34.75M72.42 34.75L73.67 34.75M73.67 34.75L73.67 32.87M73.67 32.87L72.42 32.87M72.42 32.87L74.92 32.87M74.92 31.93L74.3 31.93"
fill="none" stroke="black" stroke-width="3"/>
</g>
<g><path d="M74.58 134.38L75.21 134.85M75.21 134.85L75.21 135.79M75.21 135.79L74.58 136.26M74.58 136.26L72.08 136.26M72.08 136.26L71.45 135.79M71.45 135.79L71.45 134.85M71.45 134.85L72.08 134.38M75.21 133.44L72.7 133.44M72.7 133.44L72.7 131.56M72.7 131.56L75.21 131.56M75.21 130.63L72.7 130.63M72.7 130.63L72.7 129.22M72.7 129.22L73.33 128.75M73.33 128.75L73.95 128.75M73.95 128.75L74.58 129.22M74.58 129.22L74.58 130.63M74.58 127.81L73.33 127.81M73.33 127.81L72.7 127.34M72.7 127.34L72.7 126.4M72.7 126.4L73.33 125.93M73.33 125.93L72.7 125.93M72.7 125.93L75.21 125.93M75.21 125.93L74.58 125.93M74.58 125.93L75.21 126.4M75.21 126.4L75.21 127.34M75.21 127.34L74.58 127.81M75.21 124.99L72.7 124.99M72.7 124.99L72.7 124.05M73.95 124.05L73.95 124.99M73.95 124.99L73.95 123.58M75.21 123.58L75.21 124.99M73.95 124.05L73.77 123.72M73.77 123.72L73.33 123.58M73.33 123.58L72.89 123.72M72.89 123.72L72.7 124.05M75.21 123.58L75.02 123.25M75.02 123.25L74.58 123.11M74.58 123.11L74.14 123.25M74.14 123.25L73.95 123.58M75.21 122.17L74.58 122.17M75.21 118.41L71.45 118.41M71.45 118.41L75.21 116.54M75.21 116.54L71.45 116.54"
fill="none" stroke="black" stroke-width="3"/>
</g>
<g><path d="M74.26 238.43L70.5 238.43M70.5 238.43L70.5 236.55M70.5 236.55L74.26 236.55M73.64 235.61L72.38 235.61M72.38 235.61L71.76 235.14M71.76 235.14L71.76 234.2M71.76 234.2L72.38 233.73M72.38 233.73L73.64 233.73M73.64 233.73L74.26 234.2M74.26 234.2L74.26 235.14M74.26 235.14L73.64 235.61M74.89 232.8L74.26 232.8M74.26 232.8L74.26 232.33M74.26 232.33L72.38 232.33M72.38 232.33L71.76 231.86M71.76 231.86L71.76 231.39M71.76 231.39L74.26 231.39M74.26 231.39L74.26 232.33M74.26 232.33L74.26 230.92M74.26 230.92L74.89 230.92M74.26 229.98L71.76 229.98M71.76 229.98L71.76 228.1M71.76 228.1L74.26 228.1M74.26 227.16L73.64 227.16M71.76 223.4L74.26 223.4M74.26 223.4L71.76 221.52M71.76 221.52L74.26 221.52M74.89 217.77L74.26 217.77M74.26 217.77L74.26 217.3M74.26 217.3L72.38 217.3M72.38 217.3L71.76 216.83M71.76 216.83L71.76 216.36M71.76 216.36L74.26 216.36M74.26 216.36L74.26 217.3M74.26 217.3L74.26 215.89M74.26 215.89L74.89 215.89M73.64 214.95L72.38 214.95M72.38 214.95L71.76 214.48M71.76 214.48L71.76 213.54M71.76 213.54L72.38 213.07M72.38 213.07L71.76 213.07M71.76 213.07L74.26 213.07M74.26 213.07L73.64 213.07M73.64 213.07L74.26 213.54M74.26 213.54L74.26 214.48M74.26 214.48L73.64 214.95M74.26 211.19L71.76 211.19M71.76 211.19L71.76 212.13M71.76 212.13L71.76 210.25M73.64 209.31L72.38 209.31M72.38 209.31L71.76 208.84M71.76 208.84L71.76 207.9M71.76 207.9L72.38 207.43M72.38 207.43L71.76 207.43M71.76 207.43L74.26 207.43M74.26 207.43L73.64 207.43M73.64 207.43L74.26 207.9M74.26 207.9L74.26 208.84M74.26 208.84L73.64 209.31"
fill="none" stroke="black" stroke-width="3"/>
</g>
<g><path d="M74.58 277.26L72.08 275.38M72.08 275.38L74.58 275.38M74.58 275.38L70.82 275.38M70.82 277.26L74.58 277.26M74.58 274.44L72.08 274.44M72.08 274.44L73.33 274.44M73.33 274.44L73.33 272.56M73.33 272.56L72.08 272.56M72.08 272.56L74.58 272.56M74.58 271.62L72.08 271.62M72.08 271.62L72.08 270.68M73.33 270.68L73.33 271.62M73.33 271.62L73.33 270.21M74.58 270.21L74.58 271.62M73.33 270.68L73.14 270.35M73.14 270.35L72.7 270.21M72.7 270.21L72.26 270.35M72.26 270.35L72.08 270.68M74.58 270.21L74.4 269.88M74.4 269.88L73.95 269.74M73.95 269.74L73.51 269.88M73.51 269.88L73.33 270.21M74.58 268.8L73.95 268.8M74.58 265.05L70.82 265.05M70.82 265.05L74.58 263.17M74.58 263.17L70.82 263.17M75.21 259.41L74.58 259.41M74.58 259.41L74.58 258.94M74.58 258.94L72.7 258.94M72.7 258.94L72.08 258.47M72.08 258.47L72.08 258M72.08 258L74.58 258M74.58 258L74.58 258.94M74.58 258.94L74.58 257.53M74.58 257.53L75.21 257.53M73.95 256.59L74.58 256.12M74.58 256.12L74.58 255.18M74.58 255.18L73.95 254.71M73.95 254.71L72.08 254.71M72.08 254.71L73.33 254.71M73.33 254.71L73.33 255.65M73.33 255.65L72.08 256.59M72.08 252.37L72.08 253.78M72.08 253.78L74.58 253.78M74.58 253.78L74.58 252.37M74.58 252.37L73.95 251.9M73.95 251.9L73.33 252.37M73.33 252.37L73.33 253.78M74.58 250.96L72.08 250.02M72.08 250.02L72.08 249.08M72.08 249.08L74.58 249.08M74.58 248.14L73.95 248.14"
fill="none" stroke="black" stroke-width="3"/>
</g>
<g><path d="M74.58 352.94L70.82 352.94M70.82 352.94L70.82 351.06M70.82 351.06L74.58 351.06M73.95 350.12L72.7 350.12M72.7 350.12L72.08 349.65M72.08 349.65L72.08 348.71M72.08 348.71L72.7 348.24M72.7 348.24L73.95 348.24M73.95 348.24L74.58 348.71M74.58 348.71L74.58 349.65M74.58 349.65L73.95 350.12M75.21 347.3L74.58 347.3M74.58 347.3L74.58 346.83M74.58 346.83L72.7 346.83M72.7 346.83L72.08 346.36M72.08 346.36L72.08 345.9M72.08 345.9L74.58 345.9M74.58 345.9L74.58 346.83M74.58 346.83L74.58 345.43M74.58 345.43L75.21 345.43M74.58 344.49L72.08 344.49M72.08 344.49L72.08 342.61M72.08 342.61L74.58 342.61M74.58 341.67L73.95 341.67M72.08 337.91L74.58 337.91M74.58 337.91L72.08 336.03M72.08 336.03L74.58 336.03M75.21 332.28L74.58 332.28M74.58 332.28L74.58 331.81M74.58 331.81L72.7 331.81M72.7 331.81L72.08 331.34M72.08 331.34L72.08 330.87M72.08 330.87L74.58 330.87M74.58 330.87L74.58 331.81M74.58 331.81L74.58 330.4M74.58 330.4L75.21 330.4M73.95 329.46L72.7 329.46M72.7 329.46L72.08 328.99M72.08 328.99L72.08 328.05M72.08 328.05L72.7 327.58M72.7 327.58L72.08 327.58M72.08 327.58L74.58 327.58M74.58 327.58L73.95 327.58M73.95 327.58L74.58 328.05M74.58 328.05L74.58 328.99M74.58 328.99L73.95 329.46M74.58 325.7L72.08 325.7M72.08 325.7L72.08 326.64M72.08 326.64L72.08 324.76M73.95 323.82L72.7 323.82M72.7 323.82L72.08 323.35M72.08 323.35L72.08 322.41M72.08 322.41L72.7 321.94M72.7 321.94L72.08 321.94M72.08 321.94L74.58 321.94M74.58 321.94L73.95 321.94M73.95 321.94L74.58 322.41M74.58 322.41L74.58 323.35M74.58 323.35L73.95 323.82"
fill="none" stroke="black" stroke-width="3"/>
</g>
<g><path d="M74.58 391.38L72.08 389.5M72.08 389.5L74.58 389.5M74.58 389.5L70.82 389.5M70.82 391.38L74.58 391.38M74.58 388.56L72.08 388.56M72.08 388.56L73.33 388.56M73.33 388.56L73.33 386.68M73.33 386.68L72.08 386.68M72.08 386.68L74.58 386.68M74.58 385.74L72.08 385.74M72.08 385.74L72.08 384.8M73.33 384.8L73.33 385.74M73.33 385.74L73.33 384.33M74.58 384.33L74.58 385.74M73.33 384.8L73.14 384.47M73.14 384.47L72.7 384.33M72.7 384.33L72.26 384.47M72.26 384.47L72.08 384.8M74.58 384.33L74.4 384M74.4 384L73.95 383.86M73.95 383.86L73.51 384M73.51 384L73.33 384.33M74.58 382.92L73.95 382.92M74.58 379.17L70.82 379.17M70.82 379.17L74.58 377.29M74.58 377.29L70.82 377.29M74.58 373.53L72.08 373.53M72.08 373.53L72.08 371.65M72.08 371.65L74.58 371.65M73.95 370.71L72.7 370.71M72.7 370.71L72.08 370.24M72.08 370.24L72.08 369.3M72.08 369.3L72.7 368.84M72.7 368.84L73.95 368.84M73.95 368.84L74.58 369.3M74.58 369.3L74.58 370.24M74.58 370.24L73.95 370.71M75.21 367.9L74.58 367.9M74.58 367.9L74.58 367.43M74.58 367.43L72.7 367.43M72.7 367.43L72.08 366.96M72.08 366.96L72.08 366.49M72.08 366.49L74.58 366.49M74.58 366.49L74.58 367.43M74.58 367.43L74.58 366.02M74.58 366.02L75.21 366.02M74.58 365.08L72.08 364.14M72.08 364.14L72.08 363.2M72.08 363.2L74.58 363.2M74.58 362.26L73.95 362.26"
fill="none" stroke="black" stroke-width="3"/>
</g>
<g><path d="M86.51 391.39L88.25 389.07M88.25 389.07L88.25 391.39M88.25 391.39L88.25 387.9M86.51 387.9L86.51 391.39M89.13 389.65L89.56 389.07M89.56 389.07L90.43 389.07M90.43 389.07L90.87 389.65M90.87 389.65L90.43 390.23M90.43 390.23L90 390.23M90 390.23L90.43 390.23M90.43 390.23L90.87 390.81M90.87 390.81L90.43 391.39M90.43 391.39L89.56 391.39M89.56 391.39L89.13 390.81M91.74 391.39L91.74 389.07M91.74 389.07L92.61 390.23M92.61 390.23L93.49 389.07M93.49 389.07L93.49 391.39M94.36 391.39L94.36 390.81"
fill="none" stroke="black" stroke-width="3"/>
</g>
<g><path d="M96.3 391.36L96.73 391.36M96.73 391.36L98.04 387.87M98.04 387.87L98.48 387.87M98.48 387.87L98.48 391.36M99.35 389.04L99.35 391.36M99.35 391.36L101.09 389.04M101.09 389.04L101.09 391.36M103.71 390.78L103.27 391.36M103.27 391.36L102.4 391.36M102.4 391.36L101.97 390.78M101.97 390.78L101.97 389.62M101.97 389.62L102.4 389.04M102.4 389.04L103.27 389.04M103.27 389.04L103.71 389.62M105.45 391.36L105.45 389.04M105.45 389.04L104.58 389.04M104.58 389.04L106.33 389.04M107.2 391.36L107.2 390.78"
fill="none" stroke="black" stroke-width="3"/>
</g>
<g><path d="M113.82 391.12L113.82 387.63M113.82 387.63L115.56 391.12M115.56 391.12L115.56 387.63M119.05 391.7L119.05 391.12M119.05 391.12L119.49 391.12M119.49 391.12L119.49 389.37M119.49 389.37L119.92 388.79M119.92 388.79L120.36 388.79M120.36 388.79L120.36 391.12M120.36 391.12L119.49 391.12M119.49 391.12L120.8 391.12M120.8 391.12L120.8 391.7M121.67 390.53L121.67 389.37M121.67 389.37L122.1 388.79M122.1 388.79L122.98 388.79M122.98 388.79L123.41 389.37M123.41 389.37L123.41 390.53M123.41 390.53L122.98 391.12M122.98 391.12L122.1 391.12M122.1 391.12L121.67 390.53M124.29 391.12L124.29 388.79M124.29 388.79L124.29 389.95M124.29 389.95L125.16 389.95M125.16 389.95L126.03 388.79M126.03 388.79L125.16 389.95M125.16 389.95L126.03 391.12M126.9 390.53L127.34 391.12M127.34 391.12L128.21 391.12M128.21 391.12L128.65 390.53M128.65 390.53L128.65 388.79M128.65 388.79L128.65 389.95M128.65 389.95L127.77 389.95M127.77 389.95L126.9 388.79M129.52 391.12L129.52 388.79M129.52 388.79L130.39 389.95M130.39 389.95L131.26 388.79M131.26 388.79L131.26 391.12M132.14 391.12L132.14 390.53"
fill="none" stroke="black" stroke-width="3"/>
</g>
<g><path d="M144.14 390.73L144.14 387.24M144.14 387.24L145.89 387.24M145.89 387.24L145.89 390.73M146.76 390.15L146.76 388.99M146.76 388.99L147.19 388.4M147.19 388.4L148.07 388.4M148.07 388.4L148.5 388.99M148.5 388.99L148.5 390.15M148.5 390.15L148.07 390.73M148.07 390.73L147.19 390.73M147.19 390.73L146.76 390.15M149.37 391.31L149.37 390.73M149.37 390.73L149.81 390.73M149.81 390.73L149.81 388.99M149.81 388.99L150.25 388.4M150.25 388.4L150.68 388.4M150.68 388.4L150.68 390.73M150.68 390.73L149.81 390.73M149.81 390.73L151.12 390.73M151.12 390.73L151.12 391.31M151.99 390.73L151.99 388.4M151.99 388.4L153.74 388.4M153.74 388.4L153.74 390.73M154.61 390.73L154.61 390.15"
fill="none" stroke="black" stroke-width="3"/>
</g>
<g><path d="M160.49 391.29L160.49 390.74M160.49 390.74L162.58 390.74M162.58 390.74L162.58 387.38M162.58 387.38L161.75 387.38M161.75 387.38L160.91 389.62M160.91 389.62L160.91 390.74M160.91 390.74L163 390.74M163 390.74L163 391.29M163.84 390.18L163.84 389.06M163.84 389.06L164.26 388.5M164.26 388.5L165.1 388.5M165.1 388.5L165.52 389.06M165.52 389.06L165.52 388.5M165.52 388.5L165.52 390.74M165.52 390.74L165.52 390.18M165.52 390.18L165.1 390.74M165.1 390.74L164.26 390.74M164.26 390.74L163.84 390.18M167.2 390.74L167.2 388.5M167.2 388.5L166.36 388.5M166.36 388.5L168.04 388.5M168.87 390.18L168.87 389.06M168.87 389.06L169.29 388.5M169.29 388.5L170.13 388.5M170.13 388.5L170.55 389.06M170.55 389.06L170.55 388.5M170.55 388.5L170.55 390.74M170.55 390.74L170.55 390.18M170.55 390.18L170.13 390.74M170.13 390.74L169.29 390.74M169.29 390.74L168.87 390.18"
fill="none" stroke="black" stroke-width="3"/>
</g>
<g><path d="M202.21 388.46L206.91 388.46"
fill="none" stroke="black" stroke-width="3"/>
</g>
<g><path d="M322.32 379.61L322.74 379.61M322.74 379.61L324 376.26M324 376.26L324.42 376.26M324.42 376.26L324.42 379.61M325.26 377.38L325.26 379.61M325.26 379.61L326.93 377.38M326.93 377.38L326.93 379.61M329.45 379.05L329.03 379.61M329.03 379.61L328.19 379.61M328.19 379.61L327.77 379.05M327.77 379.05L327.77 377.94M327.77 377.94L328.19 377.38M328.19 377.38L329.03 377.38M329.03 377.38L329.45 377.94M331.13 379.61L331.13 377.38M331.13 377.38L330.29 377.38M330.29 377.38L331.97 377.38"
fill="none" stroke="black" stroke-width="3"/>
</g>
<g><path d="M326.14 391.38L329.49 391.38"
fill="none" stroke="black" stroke-width="3"/>
</g>
<g><path d="M294.63 19.15L295.47 18.03M295.47 18.03L297.14 18.03M297.14 18.03L297.98 19.15M297.98 19.15L297.98 20.27M297.98 20.27L297.14 21.39M297.14 21.39L296.31 21.39M297.14 21.39L297.98 22.51M297.98 22.51L297.98 23.62M297.98 23.62L297.14 24.74M297.14 24.74L295.47 24.74M295.47 24.74L294.63 23.62M300.5 23.62L300.5 24.74M300.5 24.74L299.66 25.86M302.18 19.15L303.01 18.03M303.01 18.03L304.69 18.03M304.69 18.03L305.53 19.15M305.53 19.15L305.53 20.27M305.53 20.27L304.69 21.39M304.69 21.39L303.01 21.39M303.01 21.39L302.18 22.51M302.18 22.51L302.18 24.74M302.18 24.74L305.53 24.74"
fill="none" stroke="black" stroke-width="3"/>
</g>
<g><path d="M309.48 26.73L308.52 30.3M308.52 30.3L309.48 33.88"
fill="none" stroke="black" stroke-width="3"/>
</g>
<g><path d="M301.99 33.85L307.35 24.55"
fill="none" stroke="black" stroke-width="3"/>
</g>
<g><path d="M319.33 33.88L320.29 30.3M320.29 30.3L319.33 26.73"
fill="none" stroke="black" stroke-width="3"/>
</g>
<g><path d="M314.17 33.85L319.53 24.55"
fill="none" stroke="black" stroke-width="3"/>
</g>
<g><path d="M314.17 33.85L310.81 28.04"
fill="none" stroke="black" stroke-width="3"/>
</g>
<g><path d="M301.99 33.85L298.63 28.04"
fill="none" stroke="black" stroke-width="3"/>
</g>
<g><path d="M175.86 11.73L172.51 11.73"
fill="none" stroke="black" stroke-width="3"/>
</g>
<g><path d="M275.26 397.25L275.26 393.5M275.26 393.5L274.79 393.5M274.79 393.5L274.32 394.12M274.32 394.12L274.32 395.38M274.32 395.38L274.79 396M274.79 396L275.73 396M275.73 396L276.2 395.38M276.2 395.38L276.2 394.12M276.2 394.12L275.73 393.5M275.73 393.5L275.26 393.5M277.14 396.63L277.14 395.38M277.14 395.38L277.6 394.75M277.6 394.75L278.54 394.75M278.54 394.75L279.01 395.38M279.01 395.38L279.01 396.63M279.01 396.63L278.54 397.25M278.54 397.25L277.6 397.25M277.6 397.25L277.14 396.63M279.95 397.25L279.95 394.75M279.95 394.75L281.36 394.75M281.36 394.75L281.83 395.38M281.83 395.38L281.83 396M281.83 396L281.36 396.63M281.36 396.63L279.95 396.63M282.77 397.25L282.77 394.75M282.77 394.75L283.71 396M283.71 396L284.65 394.75M284.65 394.75L284.65 397.25M285.59 396.63L285.59 395.38M285.59 395.38L286.06 394.75M286.06 394.75L287 394.75M287 394.75L287.47 395.38M287.47 395.38L287.47 394.75M287.47 394.75L287.47 397.25M287.47 397.25L287.47 396.63M287.47 396.63L287 397.25M287 397.25L286.06 397.25M286.06 397.25L285.59 396.63M289.35 397.25L289.35 394.75M289.35 394.75L288.41 394.75M288.41 394.75L290.29 394.75M294.04 397.25L294.04 396M294.04 396L294.98 393.5M294.98 393.5L295.92 396M295.92 396L295.92 397.25M294.04 396L295.92 396M298.74 396L296.86 396M296.86 396L298.27 393.5M298.27 393.5L298.27 397.25M302.5 397.25L302.5 393.5M302.5 393.5L304.37 393.5M304.37 393.5L304.37 394.12M305.31 396.63L305.31 394.12M305.31 394.12L305.78 393.5M305.78 393.5L306.72 393.5M306.72 393.5L307.19 394.12M307.19 394.12L307.19 396.63M307.19 396.63L306.72 397.25M306.72 397.25L305.78 397.25M305.78 397.25L305.31 396.63M310.01 396.63L309.54 397.25M309.54 397.25L308.6 397.25M308.6 397.25L308.13 396.63M308.13 396.63L308.13 394.12M308.13 394.12L308.6 393.5M308.6 393.5L309.54 393.5M309.54 393.5L310.01 394.12M310.95 393.5L312.83 393.5M311.89 393.5L311.89 397.25M316.59 394.12L317.06 393.5M317.06 393.5L317.99 393.5M317.99 393.5L318.46 394.12M318.46 394.12L318.46 394.75M318.46 394.75L317.99 395.38M317.99 395.38L317.06 395.38M317.06 395.38L316.59 396M316.59 396L316.59 397.25M316.59 397.25L318.46 397.25M319.4 397.25L319.4 396.63M320.34 394.12L320.81 393.5M320.81 393.5L321.75 393.5M321.75 393.5L322.22 394.12M322.22 394.12L322.22 394.75M322.22 394.75L321.75 395.38M321.75 395.38L321.28 395.38M321.75 395.38L322.22 396M322.22 396L322.22 396.63M322.22 396.63L321.75 397.25M321.75 397.25L320.81 397.25M320.81 397.25L320.34 396.63M323.63 397.25L323.16 396.63M323.16 396.63L323.16 394.12M323.16 394.12L323.63 393.5M323.63 393.5L324.1 393.5M324.1 393.5L324.57 394.12M324.57 394.12L324.57 396.63M324.57 396.63L324.1 397.25M324.1 397.25L323.63 397.25M325.51 394.12L325.98 393.5M325.98 393.5L325.98 397.25M325.51 397.25L326.45 397.25"
fill="none" stroke="black" stroke-width="3"/>
</g>
<g><path d="M75.24 310.15L75.24 308.74M75.24 308.74L74.62 308.27M74.62 308.27L73.99 308.27M73.99 308.27L73.37 308.74M73.37 308.74L73.37 309.68M73.37 308.74L72.74 308.27M72.74 308.27L72.11 308.27M72.11 308.27L71.49 308.74M71.49 308.74L71.49 310.15M71.49 309.68L75.24 309.68M73.37 307.33L72.74 306.86M72.74 306.86L72.74 305.92M72.74 305.92L73.37 305.45M73.37 305.45L73.99 305.92M73.99 305.92L73.99 306.39M73.99 306.39L73.99 305.92M73.99 305.92L74.62 305.45M74.62 305.45L75.24 305.92M75.24 305.92L75.24 306.86M75.24 306.86L74.62 307.33M74.62 304.51L73.37 304.51M73.37 304.51L72.74 304.04M72.74 304.04L72.74 303.1M72.74 303.1L73.37 302.63M73.37 302.63L72.74 302.63M72.74 302.63L75.24 302.63M75.24 302.63L74.62 302.63M74.62 302.63L75.24 303.1M75.24 303.1L75.24 304.04M75.24 304.04L74.62 304.51M75.24 301.69L72.74 301.69M72.74 301.69L73.99 300.76M73.99 300.76L72.74 299.82M72.74 299.82L75.24 299.82M75.24 298.88L74.62 298.88M72.74 295.12L75.24 295.12M75.24 295.12L72.74 293.24M72.74 293.24L75.24 293.24M75.24 292.3L72.74 292.3M72.74 292.3L73.99 292.3M73.99 292.3L73.99 290.42M73.99 290.42L72.74 290.42M72.74 290.42L75.24 290.42M75.24 289.48L72.74 289.48M72.74 289.48L72.74 288.54M73.99 288.54L73.99 289.48M73.99 289.48L73.99 288.07M75.24 288.07L75.24 289.48M73.99 288.54L73.81 288.21M73.81 288.21L73.37 288.07M73.37 288.07L72.92 288.21M72.92 288.21L72.74 288.54M75.24 288.07L75.06 287.74M75.06 287.74L74.62 287.6M74.62 287.6L74.18 287.74M74.18 287.74L73.99 288.07M75.24 286.67L74.62 286.67M75.24 285.73L71.49 285.73M71.49 285.73L75.24 283.85M75.24 283.85L71.49 283.85"
fill="none" stroke="black" stroke-width="3"/>
</g>
</g>
</svg>
