<?xml version="1.0" standalone="no"?><svg xmlns="http://www.w3.org/2000/svg" width="400.000" height="400.000" viewBox="0.0 0.0 400.000 400.000" version="1.1">
  <title>Produce by Acme CAD Converter</title>
  <desc>Produce by Acme CAD Converter</desc>
<g id="0" display="visible">
<g><path d="M59.1 399.27L340.9 399.27"
fill="none" stroke="black" stroke-width=".5"/>
</g>
<g><path d="M340.9 399.27L340.9 0.73"
fill="none" stroke="black" stroke-width=".5"/>
</g>
<g><path d="M340.9 0.73L59.1 0.73"
fill="none" stroke="black" stroke-width=".5"/>
</g>
<g><path d="M59.1 0.73L59.1 399.27"
fill="none" stroke="black" stroke-width=".5"/>
</g>
<g><path d="M85.94 7.44L334.19 7.44"
fill="none" stroke="black" stroke-width=".5"/>
</g>
<g><path d="M334.19 7.44L334.19 27.57"
fill="none" stroke="black" stroke-width=".5"/>
</g>
<g><path d="M85.94 27.57L85.94 7.44"
fill="none" stroke="black" stroke-width=".5"/>
</g>
<g><path d="M85.94 7.44L112.78 7.44"
fill="none" stroke="black" stroke-width=".5"/>
</g>
<g><path d="M260.38 7.44L273.8 7.44"
fill="none" stroke="black" stroke-width=".5"/>
</g>
<g><path d="M85.94 392.56L334.19 392.56"
fill="none" stroke="black" stroke-width=".5"/>
</g>
<g><path d="M334.19 392.56L334.19 372.43"
fill="none" stroke="black" stroke-width=".5"/>
</g>
<g><path d="M85.94 372.43L85.94 392.56"
fill="none" stroke="black" stroke-width=".5"/>
</g>
<g><path d="M85.94 372.43L85.94 392.56"
fill="none" stroke="black" stroke-width=".5"/>
</g>
<g><path d="M85.94 372.43L95.33 372.43"
fill="none" stroke="black" stroke-width=".5"/>
</g>
<g><path d="M85.94 372.43L85.94 379.14"
fill="none" stroke="black" stroke-width=".5"/>
</g>
<g><path d="M173.16 379.14L173.16 385.85"
fill="none" stroke="black" stroke-width=".5"/>
</g>
<g><path d="M97.13 390.8L97.55 390.8M97.55 390.8L98.81 387.45M98.81 387.45L99.23 387.45M99.23 387.45L99.23 390.8M100.07 388.57L100.07 390.8M100.07 390.8L101.75 388.57M101.75 388.57L101.75 390.8M104.26 390.25L103.84 390.8M103.84 390.8L103.01 390.8M103.01 390.8L102.59 390.25M102.59 390.25L102.59 389.13M102.59 389.13L103.01 388.57M103.01 388.57L103.84 388.57M103.84 388.57L104.26 389.13M105.94 390.8L105.94 388.57M105.94 388.57L105.1 388.57M105.1 388.57L106.78 388.57"
fill="none" stroke="black" stroke-width=".5"/>
</g>
<g><path d="M87.15 390.98L88.83 388.74M88.83 388.74L88.83 390.98M88.83 390.98L88.83 387.62M87.15 387.62L87.15 390.98M89.67 389.3L90.09 388.74M90.09 388.74L90.93 388.74M90.93 388.74L91.35 389.3M91.35 389.3L90.93 389.86M90.93 389.86L90.51 389.86M90.51 389.86L90.93 389.86M90.93 389.86L91.35 390.42M91.35 390.42L90.93 390.98M90.93 390.98L90.09 390.98M90.09 390.98L89.67 390.42M92.19 390.98L92.19 388.74M92.19 388.74L93.02 389.86M93.02 389.86L93.86 388.74M93.86 388.74L93.86 390.98"
fill="none" stroke="black" stroke-width=".5"/>
</g>
<g><path d="M149.48 23.15L149.48 13.76M149.48 18.45L154.17 18.45M154.17 13.76L154.17 23.15M156.52 21.58L156.52 18.45M156.52 18.45L157.7 16.89M157.7 16.89L160.04 16.89M160.04 16.89L161.22 18.45M161.22 18.45L161.22 16.89M161.22 16.89L161.22 23.15M161.22 23.15L161.22 21.58M161.22 21.58L160.04 23.15M160.04 23.15L157.7 23.15M157.7 23.15L156.52 21.58M163.57 16.89L163.57 23.15M163.57 23.15L168.26 16.89M168.26 16.89L168.26 23.15M170.61 23.15L170.61 16.89M170.61 16.89L172.96 20.02M172.96 20.02L175.31 16.89M175.31 16.89L175.31 23.15M177.66 20.02L181.18 20.02M181.18 20.02L182.35 18.45M182.35 18.45L181.18 16.89M181.18 16.89L178.83 16.89M178.83 16.89L177.66 18.45M177.66 18.45L177.66 21.58M177.66 21.58L178.83 23.15M178.83 23.15L181.18 23.15M184.7 23.15L184.7 16.89M184.7 16.89L184.7 20.02M184.7 20.02L189.4 20.02M189.4 20.02L189.4 16.89M189.4 16.89L189.4 23.15M191.74 21.58L191.74 18.45M191.74 18.45L192.92 16.89M192.92 16.89L195.27 16.89M195.27 16.89L196.44 18.45M196.44 18.45L196.44 21.58M196.44 21.58L195.27 23.15M195.27 23.15L192.92 23.15M192.92 23.15L191.74 21.58M198.79 23.15L198.79 16.89M198.79 16.89L201.14 16.89M201.14 20.02L198.79 20.02M198.79 20.02L202.31 20.02M202.31 23.15L198.79 23.15M201.14 20.02L201.97 19.56M201.97 19.56L202.31 18.45M202.31 18.45L201.97 17.34M201.97 17.34L201.14 16.89M202.31 23.15L203.14 22.69M203.14 22.69L203.49 21.58M203.49 21.58L203.14 20.48M203.14 20.48L202.31 20.02M205.83 21.58L205.83 18.45M205.83 18.45L207.01 16.89M207.01 16.89L209.36 16.89M209.36 16.89L210.53 18.45M210.53 18.45L210.53 16.89M210.53 16.89L210.53 23.15M210.53 23.15L210.53 21.58M210.53 21.58L209.36 23.15M209.36 23.15L207.01 23.15M207.01 23.15L205.83 21.58M212.88 23.15L212.88 16.89M212.88 16.89L212.88 20.02M212.88 20.02L217.58 20.02M217.58 20.02L217.58 16.89M217.58 16.89L217.58 23.15M219.92 16.89L219.92 23.15M219.92 23.15L224.62 16.89M224.62 16.89L224.62 23.15M226.97 20.02L230.49 20.02M230.49 20.02L231.67 18.45M231.67 18.45L230.49 16.89M230.49 16.89L228.14 16.89M228.14 16.89L226.97 18.45M226.97 18.45L226.97 21.58M226.97 21.58L228.14 23.15M228.14 23.15L230.49 23.15"
fill="none" stroke="black" stroke-width=".5"/>
</g>
<g><path d="M85.94 392.56L85.94 7.44"
fill="none" stroke="black" stroke-width="15"/>
</g>
<g><path d="M85.94 7.44L334.19 7.44"
fill="none" stroke="black" stroke-width="15"/>
</g>
<g><path d="M334.19 7.44L334.19 392.56"
fill="none" stroke="black" stroke-width="15"/>
</g>
<g><path d="M334.19 392.56L85.94 392.56"
fill="none" stroke="black" stroke-width="15"/>
</g>
<g><path d="M334.19 27.57L85.94 27.57"
fill="none" stroke="black" stroke-width="15"/>
</g>
<g><path d="M112.78 7.44L112.78 27.57"
fill="none" stroke="black" stroke-width="15"/>
</g>
<g><path d="M260.38 27.57L260.38 7.44"
fill="none" stroke="black" stroke-width="15"/>
</g>
<g><path d="M273.8 7.44L273.8 27.57"
fill="none" stroke="black" stroke-width="15"/>
</g>
<g><path d="M334.19 372.43L85.94 372.43"
fill="none" stroke="black" stroke-width="15"/>
</g>
<g><path d="M112.78 27.57L112.78 372.43"
fill="none" stroke="black" stroke-width="15"/>
</g>
<g><path d="M260.38 27.57L260.38 372.43"
fill="none" stroke="black" stroke-width="15"/>
</g>
<g><path d="M273.8 27.57L273.8 372.43"
fill="none" stroke="black" stroke-width="15"/>
</g>
<g><path d="M95.33 372.43L95.33 392.56"
fill="none" stroke="black" stroke-width="15"/>
</g>
<g><path d="M108.75 372.43L108.75 392.56"
fill="none" stroke="black" stroke-width="15"/>
</g>
<g><path d="M139.62 372.43L139.62 392.56"
fill="none" stroke="black" stroke-width="15"/>
</g>
<g><path d="M159.74 372.43L159.74 392.56"
fill="none" stroke="black" stroke-width="15"/>
</g>
<g><path d="M173.16 372.43L173.16 392.56"
fill="none" stroke="black" stroke-width="15"/>
</g>
<g><path d="M320.77 372.43L320.77 392.56"
fill="none" stroke="black" stroke-width="15"/>
</g>
<g><path d="M173.16 385.85L85.94 385.85"
fill="none" stroke="black" stroke-width="15"/>
</g>
<g><path d="M320.77 381.82L334.19 381.82"
fill="none" stroke="black" stroke-width="15"/>
</g>
<g><path d="M85.94 379.14L173.16 379.14"
fill="none" stroke="black" stroke-width="6"/>
</g>
<g><path d="M112.78 27.57L260.38 27.57"
fill="none" stroke="black" stroke-width="6"/>
</g>
<g><path d="M334.19 40.99L85.94 40.99"
fill="none" stroke="black" stroke-width="6"/>
</g>
<g><path d="M334.19 54.41L85.94 54.41"
fill="none" stroke="black" stroke-width="6"/>
</g>
<g><path d="M334.19 67.83L85.94 67.83"
fill="none" stroke="black" stroke-width="6"/>
</g>
<g><path d="M334.19 81.25L85.94 81.25"
fill="none" stroke="black" stroke-width="6"/>
</g>
<g><path d="M334.19 94.66L85.94 94.66"
fill="none" stroke="black" stroke-width="6"/>
</g>
<g><path d="M334.19 108.08L85.94 108.08"
fill="none" stroke="black" stroke-width="6"/>
</g>
<g><path d="M334.19 121.5L85.94 121.5"
fill="none" stroke="black" stroke-width="6"/>
</g>
<g><path d="M334.19 134.92L85.94 134.92"
fill="none" stroke="black" stroke-width="6"/>
</g>
<g><path d="M334.19 148.34L85.94 148.34"
fill="none" stroke="black" stroke-width="6"/>
</g>
<g><path d="M334.19 161.76L85.94 161.76"
fill="none" stroke="black" stroke-width="6"/>
</g>
<g><path d="M334.19 175.18L85.94 175.18"
fill="none" stroke="black" stroke-width="6"/>
</g>
<g><path d="M334.19 188.59L85.94 188.59"
fill="none" stroke="black" stroke-width="6"/>
</g>
<g><path d="M334.19 202.01L85.94 202.01"
fill="none" stroke="black" stroke-width="6"/>
</g>
<g><path d="M334.19 215.43L85.94 215.43"
fill="none" stroke="black" stroke-width="6"/>
</g>
<g><path d="M334.19 228.85L85.94 228.85"
fill="none" stroke="black" stroke-width="6"/>
</g>
<g><path d="M334.19 242.27L85.94 242.27"
fill="none" stroke="black" stroke-width="6"/>
</g>
<g><path d="M334.19 255.69L85.94 255.69"
fill="none" stroke="black" stroke-width="6"/>
</g>
<g><path d="M334.19 269.11L85.94 269.11"
fill="none" stroke="black" stroke-width="6"/>
</g>
<g><path d="M334.19 282.52L85.94 282.52"
fill="none" stroke="black" stroke-width="6"/>
</g>
<g><path d="M334.19 295.94L85.94 295.94"
fill="none" stroke="black" stroke-width="6"/>
</g>
<g><path d="M334.19 309.36L85.94 309.36"
fill="none" stroke="black" stroke-width="6"/>
</g>
<g><path d="M334.19 322.78L85.94 322.78"
fill="none" stroke="black" stroke-width="6"/>
</g>
<g><path d="M334.19 336.2L85.94 336.2"
fill="none" stroke="black" stroke-width="6"/>
</g>
<g><path d="M334.19 349.62L85.94 349.62"
fill="none" stroke="black" stroke-width="6"/>
</g>
<g><path d="M334.19 363.04L85.94 363.04"
fill="none" stroke="black" stroke-width="6"/>
</g>
</g>
</svg>
