<?xml version="1.0" standalone="no"?><svg xmlns="http://www.w3.org/2000/svg" width="400.000" height="400.000" viewBox="0.0 0.0 400.000 400.000" version="1.1">
  <title>Produce by Acme CAD Converter</title>
  <desc>Produce by Acme CAD Converter</desc>
<g id="0" display="visible">
<g><path d="M0.73 110.06L76.65 185.98"
fill="none" stroke="black" stroke-width="12"/>
</g>
<g><path d="M28.78 158.29L76.65 185.98"
fill="none" stroke="black" stroke-width="12"/>
</g>
<g><path d="M76.65 185.98L48.79 137.92"
fill="none" stroke="black" stroke-width="12"/>
</g>
<g><path d="M38.6 72.19L114.52 148.11"
fill="none" stroke="black" stroke-width="12"/>
</g>
<g><path d="M86.84 100.23L114.52 148.11"
fill="none" stroke="black" stroke-width="12"/>
</g>
<g><path d="M114.52 148.11L66.47 120.24"
fill="none" stroke="black" stroke-width="12"/>
</g>
<g><path d="M399.27 256.36L327.81 256.36"
fill="none" stroke="black" stroke-width="12"/>
</g>
<g><path d="M327.81 327.81L327.81 184.91"
fill="none" stroke="black" stroke-width="12"/>
</g>
<g><path d="M292.09 220.63L292.09 292.09"
fill="none" stroke="black" stroke-width="12"/>
</g>
<g><path d="M292.09 256.36L265.29 256.36"
fill="none" stroke="black" stroke-width="12"/>
</g>
<g><path d="M238.5 256.36L211.7 256.36"
fill="none" stroke="black" stroke-width="12"/>
</g>
<g><path d="M184.91 256.36L149.18 256.36"
fill="none" stroke="black" stroke-width="12"/>
</g>
<g><path d="M149.18 327.81L149.18 184.91"
fill="none" stroke="black" stroke-width="12"/>
</g>
<g><path d="M113.45 220.63L113.45 292.09"
fill="none" stroke="black" stroke-width="12"/>
</g>
<g><path d="M113.45 256.36L42 256.36"
fill="none" stroke="black" stroke-width="12"/>
</g>
<g><path d="M42 256.36L42 256.36"
fill="none" stroke="black" stroke-width=".5"/>
</g>
<g><path d="M399.27 256.36L399.27 256.36"
fill="none" stroke="black" stroke-width=".5"/>
</g>
</g>
</svg>
