<?xml version="1.0" standalone="no"?><svg xmlns="http://www.w3.org/2000/svg" width="400.000" height="400.000" viewBox="0.0 0.0 400.000 400.000" version="1.1">
  <title>Produce by Acme CAD Converter</title>
  <desc>Produce by Acme CAD Converter</desc>
<g id="0" display="visible">
<g><path d="M360.12 219.63L360.12 204.11 359.88 204.31 360.12 219.63Z"
fill-rule="evenodd" fill="black"/>
<path d="M360.12 219.63L371.76 228.54 360.12 204.11 360.12 219.63Z"
fill-rule="evenodd" fill="black"/>
<path d="M371.76 228.54L371.76 194.62 360.12 204.11 371.76 228.54Z"
fill-rule="evenodd" fill="black"/>
<path d="M371.76 228.54L372.29 228.95 371.76 194.62 371.76 228.54Z"
fill-rule="evenodd" fill="black"/>
<path d="M372.29 228.95L372.29 194.73 371.76 194.62 372.29 228.95Z"
fill-rule="evenodd" fill="black"/>
<path d="M372.29 228.95L386.72 225.28 372.29 194.73 372.29 228.95Z"
fill-rule="evenodd" fill="black"/>
<path d="M386.72 225.28L386.72 197.93 372.29 194.73 386.72 225.28Z"
fill-rule="evenodd" fill="black"/>
<path d="M386.72 225.28L387.15 225.17 386.72 197.93 386.72 225.28Z"
fill-rule="evenodd" fill="black"/>
<path d="M387.15 225.17L387.15 198.8 386.72 197.93 387.15 225.17Z"
fill-rule="evenodd" fill="black"/>
<path d="M387.15 225.17L393.41 211.72 387.15 198.8 387.15 225.17Z"
fill-rule="evenodd" fill="black"/>
</g>
<g><path d="M0.73 328.94L117.95 328.94"
fill="none" stroke="black" stroke-width="12"/>
</g>
<g><path d="M117.95 328.94L375.82 211.72"
fill="none" stroke="black" stroke-width="12"/>
</g>
<g><path d="M358.24 211.72L359.98 204.09M359.98 204.09L364.86 197.98M364.86 197.98L371.91 194.58M371.91 194.58L379.74 194.58M379.74 194.58L386.79 197.98M386.79 197.98L391.66 204.09M391.66 204.09L393.41 211.72M393.41 211.72L391.66 219.35M391.66 219.35L386.79 225.47M386.79 225.47L379.74 228.86M379.74 228.86L371.91 228.86M371.91 228.86L364.86 225.47M364.86 225.47L359.98 219.35M359.98 219.35L358.24 211.72"
fill="none" stroke="black" stroke-width="12"/>
</g>
<g><path d="M375.82 211.72L117.95 94.51"
fill="none" stroke="black" stroke-width="12"/>
</g>
<g><path d="M352.38 94.51L399.27 94.51"
fill="none" stroke="black" stroke-width="12"/>
</g>
<g><path d="M117.95 94.51L0.73 94.51"
fill="none" stroke="black" stroke-width="12"/>
</g>
<g><path d="M0.73 94.51L0.73 94.51"
fill="none" stroke="black" stroke-width=".5"/>
</g>
<g><path d="M0.73 328.94L0.73 328.94"
fill="none" stroke="black" stroke-width=".5"/>
</g>
<g><path d="M375.82 117.95L375.82 71.06"
fill="none" stroke="black" stroke-width="12"/>
</g>
</g>
</svg>
