<?xml version="1.0" standalone="no"?><svg xmlns="http://www.w3.org/2000/svg" width="400.000" height="400.000" viewBox="0.0 0.0 400.000 400.000" version="1.1">
  <title>Produce by Acme CAD Converter</title>
  <desc>Produce by Acme CAD Converter</desc>
<g id="0" display="visible">
<g><path d="M245.12 213.35L245.12 202.79 244.95 202.93 245.12 213.35Z"
fill-rule="evenodd" fill="black"/>
<path d="M245.12 213.35L253.03 219.4 245.12 202.79 245.12 213.35Z"
fill-rule="evenodd" fill="black"/>
<path d="M253.03 219.4L253.03 196.34 245.12 202.79 253.03 219.4Z"
fill-rule="evenodd" fill="black"/>
<path d="M253.03 219.4L253.39 219.68 253.03 196.34 253.03 219.4Z"
fill-rule="evenodd" fill="black"/>
<path d="M253.39 219.68L253.39 196.42 253.03 196.34 253.39 219.68Z"
fill-rule="evenodd" fill="black"/>
<path d="M253.39 219.68L263.21 217.19 253.39 196.42 253.39 219.68Z"
fill-rule="evenodd" fill="black"/>
<path d="M263.21 217.19L263.21 198.59 253.39 196.42 263.21 217.19Z"
fill-rule="evenodd" fill="black"/>
<path d="M263.21 217.19L263.5 217.12 263.21 198.59 263.21 217.19Z"
fill-rule="evenodd" fill="black"/>
<path d="M263.5 217.12L263.5 199.19 263.21 198.59 263.5 217.12Z"
fill-rule="evenodd" fill="black"/>
<path d="M263.5 217.12L267.75 207.97 263.5 199.19 263.5 217.12Z"
fill-rule="evenodd" fill="black"/>
</g>
<g><path d="M399.27 128.26L335.5 128.26"
fill="none" stroke="black" stroke-width="12"/>
</g>
<g><path d="M335.5 128.26L318.93 130.01M318.93 130.01L303.08 135.15M303.08 135.15L288.65 143.49M288.65 143.49L276.27 154.64M276.27 154.64L266.47 168.12M266.47 168.12L259.7 183.34M259.7 183.34L256.23 199.64M256.23 199.64L256.23 216.3M256.23 216.3L259.7 232.6M259.7 232.6L266.47 247.82M266.47 247.82L276.27 261.3M276.27 261.3L288.65 272.45M288.65 272.45L303.08 280.79M303.08 280.79L318.93 285.94M318.93 285.94L335.5 287.68"
fill="none" stroke="black" stroke-width="12"/>
</g>
<g><path d="M335.5 287.68L399.27 287.68"
fill="none" stroke="black" stroke-width="12"/>
</g>
<g><path d="M0.73 287.68L80.44 287.68"
fill="none" stroke="black" stroke-width="12"/>
</g>
<g><path d="M80.44 287.68L255.79 207.97"
fill="none" stroke="black" stroke-width="12"/>
</g>
<g><path d="M243.84 207.97L245.74 201.51M245.74 201.51L250.83 197.1M250.83 197.1L257.5 196.14M257.5 196.14L263.62 198.93M263.62 198.93L267.27 204.6M267.27 204.6L267.27 211.34M267.27 211.34L263.62 217.01M263.62 217.01L257.5 219.8M257.5 219.8L250.83 218.85M250.83 218.85L245.74 214.43M245.74 214.43L243.84 207.97"
fill="none" stroke="black" stroke-width="12"/>
</g>
<g><path d="M255.79 207.97L80.44 128.26"
fill="none" stroke="black" stroke-width="12"/>
</g>
<g><path d="M239.85 128.26L271.74 128.26"
fill="none" stroke="black" stroke-width="12"/>
</g>
<g><path d="M80.44 128.26L0.73 128.26"
fill="none" stroke="black" stroke-width="12"/>
</g>
<g><path d="M0.73 128.26L0.73 128.26"
fill="none" stroke="black" stroke-width=".5"/>
</g>
<g><path d="M0.73 287.68L0.73 287.68"
fill="none" stroke="black" stroke-width=".5"/>
</g>
<g><path d="M255.79 144.21L255.79 112.32"
fill="none" stroke="black" stroke-width="12"/>
</g>
</g>
</svg>
