<?xml version="1.0" standalone="no"?><svg xmlns="http://www.w3.org/2000/svg" width="400.000" height="400.000" viewBox="0.0 0.0 400.000 400.000" version="1.1">
  <title>Produce by Acme CAD Converter</title>
  <desc>Produce by Acme CAD Converter</desc>
<g id="0" display="visible">
<g><path d="M0.73 108.03L2.6 95.08M2.6 95.08L8.03 83.17M8.03 83.17L16.6 73.28M16.6 73.28L27.62 66.2M27.62 66.2L40.17 62.51M40.17 62.51L53.26 62.51M53.26 62.51L65.82 66.2M65.82 66.2L76.83 73.28M76.83 73.28L85.4 83.17M85.4 83.17L90.84 95.08M90.84 95.08L92.7 108.03M92.7 108.03L90.84 120.99M90.84 120.99L85.4 132.89M85.4 132.89L76.83 142.78M76.83 142.78L65.82 149.86M65.82 149.86L53.26 153.55M53.26 153.55L40.17 153.55M40.17 153.55L27.62 149.86M27.62 149.86L16.6 142.78M16.6 142.78L8.03 132.89M8.03 132.89L2.6 120.99M2.6 120.99L0.73 108.03"
fill="none" stroke="black" stroke-width="9"/>
</g>
<g><path d="M307.3 108.03L309.16 95.08M309.16 95.08L314.6 83.17M314.6 83.17L323.17 73.28M323.17 73.28L334.18 66.2M334.18 66.2L346.74 62.51M346.74 62.51L359.83 62.51M359.83 62.51L372.38 66.2M372.38 66.2L383.4 73.28M383.4 73.28L391.97 83.17M391.97 83.17L397.4 95.08M397.4 95.08L399.27 108.03M399.27 108.03L397.4 120.99M397.4 120.99L391.97 132.89M391.97 132.89L383.4 142.78M383.4 142.78L372.38 149.86M372.38 149.86L359.83 153.55M359.83 153.55L346.74 153.55M346.74 153.55L334.18 149.86M334.18 149.86L323.17 142.78M323.17 142.78L314.6 132.89M314.6 132.89L309.16 120.99M309.16 120.99L307.3 108.03"
fill="none" stroke="black" stroke-width="9"/>
</g>
<g><path d="M154.02 291.97L155.88 279.01M155.88 279.01L161.32 267.11M161.32 267.11L169.89 257.22M169.89 257.22L180.9 250.14M180.9 250.14L193.46 246.45M193.46 246.45L206.54 246.45M206.54 246.45L219.1 250.14M219.1 250.14L230.11 257.22M230.11 257.22L238.68 267.11M238.68 267.11L244.12 279.01M244.12 279.01L245.98 291.97M245.98 291.97L244.12 304.92M244.12 304.92L238.68 316.83M238.68 316.83L230.11 326.72M230.11 326.72L219.1 333.8M219.1 333.8L206.54 337.49M206.54 337.49L193.46 337.49M193.46 337.49L180.9 333.8M180.9 333.8L169.89 326.72M169.89 326.72L161.32 316.83M161.32 316.83L155.88 304.92M155.88 304.92L154.02 291.97"
fill="none" stroke="black" stroke-width="9"/>
</g>
<g><path d="M76.16 143.36L76.16 143.36"
fill="none" stroke="black" stroke-width=".5"/>
</g>
<g><path d="M170.56 256.64L170.56 256.64"
fill="none" stroke="black" stroke-width=".5"/>
</g>
<g><path d="M229.44 256.64L229.44 256.64"
fill="none" stroke="black" stroke-width=".5"/>
</g>
<g><path d="M323.84 143.36L323.84 143.36"
fill="none" stroke="black" stroke-width=".5"/>
</g>
<g><path d="M76.16 143.36L170.56 256.64"
fill="none" stroke="black" stroke-width="9"/>
</g>
<g><path d="M229.44 256.64L323.84 143.36"
fill="none" stroke="black" stroke-width="9"/>
</g>
</g>
</svg>
