<?xml version="1.0" standalone="no"?><svg xmlns="http://www.w3.org/2000/svg" width="400.000" height="400.000" viewBox="0.0 0.0 400.000 400.000" version="1.1">
  <title>Produce by Acme CAD Converter</title>
  <desc>Produce by Acme CAD Converter</desc>
<g id="0" display="visible">
<g><path d="M0.73 200L2.59 185.93M2.59 185.93L8.01 172.83M8.01 172.83L16.65 161.57M16.65 161.57L27.91 152.94M27.91 152.94L41.01 147.51M41.01 147.51L55.08 145.65M55.08 145.65L69.14 147.51M69.14 147.51L82.25 152.94M82.25 152.94L93.51 161.57M93.51 161.57L102.14 172.83M102.14 172.83L107.57 185.93M107.57 185.93L109.42 200M109.42 200L107.57 214.07M107.57 214.07L102.14 227.17M102.14 227.17L93.51 238.43M93.51 238.43L82.25 247.06M82.25 247.06L69.14 252.49M69.14 252.49L55.08 254.35M55.08 254.35L41.01 252.49M41.01 252.49L27.91 247.06M27.91 247.06L16.65 238.43M16.65 238.43L8.01 227.17M8.01 227.17L2.59 214.07M2.59 214.07L0.73 200"
fill="none" stroke="black" stroke-width="9"/>
</g>
<g><path d="M109.42 200L109.42 200"
fill="none" stroke="black" stroke-width=".5"/>
</g>
<g><path d="M290.58 200L290.58 200"
fill="none" stroke="black" stroke-width=".5"/>
</g>
<g><path d="M290.58 200L292.43 185.93M292.43 185.93L297.86 172.83M297.86 172.83L306.49 161.57M306.49 161.57L317.75 152.94M317.75 152.94L330.86 147.51M330.86 147.51L344.92 145.65M344.92 145.65L358.99 147.51M358.99 147.51L372.09 152.94M372.09 152.94L383.35 161.57M383.35 161.57L391.99 172.83M391.99 172.83L397.41 185.93M397.41 185.93L399.27 200M399.27 200L397.41 214.07M397.41 214.07L391.99 227.17M391.99 227.17L383.35 238.43M383.35 238.43L372.09 247.06M372.09 247.06L358.99 252.49M358.99 252.49L344.92 254.35M344.92 254.35L330.86 252.49M330.86 252.49L317.75 247.06M317.75 247.06L306.49 238.43M306.49 238.43L297.86 227.17M297.86 227.17L292.43 214.07M292.43 214.07L290.58 200"
fill="none" stroke="black" stroke-width="9"/>
</g>
<g><path d="M109.42 200L290.58 200"
fill="none" stroke="black" stroke-width="9"/>
</g>
</g>
</svg>
