<?xml version="1.0" standalone="no"?><svg xmlns="http://www.w3.org/2000/svg" width="400.000" height="400.000" viewBox="0.0 0.0 400.000 400.000" version="1.1">
  <title>Produce by Acme CAD Converter</title>
  <desc>Produce by Acme CAD Converter</desc>
<g id="0" display="visible">
<g><path d="M75.46 200L77.29 188.45M77.29 188.45L82.59 178.04M82.59 178.04L90.86 169.77M90.86 169.77L101.28 164.47M101.28 164.47L112.82 162.64M112.82 162.64L124.37 164.47M124.37 164.47L134.78 169.77M134.78 169.77L143.05 178.04M143.05 178.04L148.35 188.45M148.35 188.45L150.18 200M150.18 200L148.35 211.55M148.35 211.55L143.05 221.96M143.05 221.96L134.78 230.23M134.78 230.23L124.37 235.53M124.37 235.53L112.82 237.36M112.82 237.36L101.28 235.53M101.28 235.53L90.86 230.23M90.86 230.23L82.59 221.96M82.59 221.96L77.29 211.55M77.29 211.55L75.46 200"
fill="none" stroke="black" stroke-width="9"/>
</g>
<g><path d="M249.82 200L251.65 188.45M251.65 188.45L256.95 178.04M256.95 178.04L265.22 169.77M265.22 169.77L275.63 164.47M275.63 164.47L287.18 162.64M287.18 162.64L298.72 164.47M298.72 164.47L309.14 169.77M309.14 169.77L317.41 178.04M317.41 178.04L322.71 188.45M322.71 188.45L324.54 200M324.54 200L322.71 211.55M322.71 211.55L317.41 221.96M317.41 221.96L309.14 230.23M309.14 230.23L298.72 235.53M298.72 235.53L287.18 237.36M287.18 237.36L275.63 235.53M275.63 235.53L265.22 230.23M265.22 230.23L256.95 221.96M256.95 221.96L251.65 211.55M251.65 211.55L249.82 200"
fill="none" stroke="black" stroke-width="9"/>
</g>
<g><path d="M75.46 200L0.73 200"
fill="none" stroke="black" stroke-width="9"/>
</g>
<g><path d="M399.27 200L324.54 200"
fill="none" stroke="black" stroke-width="9"/>
</g>
<g><path d="M112.82 162.64L287.18 162.64"
fill="none" stroke="black" stroke-width="9"/>
</g>
<g><path d="M112.82 237.36L287.18 237.36"
fill="none" stroke="black" stroke-width="9"/>
</g>
</g>
</svg>
