<?xml version="1.0" standalone="no"?><svg xmlns="http://www.w3.org/2000/svg" width="400.000" height="400.000" viewBox="0.0 0.0 400.000 400.000" version="1.1">
  <title>Produce by Acme CAD Converter</title>
  <desc>Produce by Acme CAD Converter</desc>
<g id="0" display="visible">
<g><path d="M75.46 139.47L77.29 127.93M77.29 127.93L82.59 117.51M82.59 117.51L90.86 109.25M90.86 109.25L101.28 103.94M101.28 103.94L112.82 102.11M112.82 102.11L124.37 103.94M124.37 103.94L134.78 109.25M134.78 109.25L143.05 117.51M143.05 117.51L148.35 127.93M148.35 127.93L150.18 139.47M150.18 139.47L148.35 151.02M148.35 151.02L143.05 161.43M143.05 161.43L134.78 169.7M134.78 169.7L124.37 175.01M124.37 175.01L112.82 176.84M112.82 176.84L101.28 175.01M101.28 175.01L90.86 169.7M90.86 169.7L82.59 161.43M82.59 161.43L77.29 151.02M77.29 151.02L75.46 139.47"
fill="none" stroke="black" stroke-width="9"/>
</g>
<g><path d="M249.82 139.47L251.65 127.93M251.65 127.93L256.95 117.51M256.95 117.51L265.22 109.25M265.22 109.25L275.63 103.94M275.63 103.94L287.18 102.11M287.18 102.11L298.72 103.94M298.72 103.94L309.14 109.25M309.14 109.25L317.41 117.51M317.41 117.51L322.71 127.93M322.71 127.93L324.54 139.47M324.54 139.47L322.71 151.02M322.71 151.02L317.41 161.43M317.41 161.43L309.14 169.7M309.14 169.7L298.72 175.01M298.72 175.01L287.18 176.84M287.18 176.84L275.63 175.01M275.63 175.01L265.22 169.7M265.22 169.7L256.95 161.43M256.95 161.43L251.65 151.02M251.65 151.02L249.82 139.47"
fill="none" stroke="black" stroke-width="9"/>
</g>
<g><path d="M195.78 260.53L197.6 248.98M197.6 248.98L202.91 238.57M202.91 238.57L211.18 230.3M211.18 230.3L221.59 224.99M221.59 224.99L233.14 223.16M233.14 223.16L244.68 224.99M244.68 224.99L255.1 230.3M255.1 230.3L263.37 238.57M263.37 238.57L268.67 248.98M268.67 248.98L270.5 260.53M270.5 260.53L268.67 272.07M268.67 272.07L263.37 282.49M263.37 282.49L255.1 290.75M255.1 290.75L244.68 296.06M244.68 296.06L233.14 297.89M233.14 297.89L221.59 296.06M221.59 296.06L211.18 290.75M211.18 290.75L202.91 282.49M202.91 282.49L197.6 272.07M197.6 272.07L195.78 260.53"
fill="none" stroke="black" stroke-width="9"/>
</g>
<g><path d="M75.46 139.47L0.73 139.47"
fill="none" stroke="black" stroke-width="9"/>
</g>
<g><path d="M399.27 139.47L324.54 139.47"
fill="none" stroke="black" stroke-width="9"/>
</g>
<g><path d="M399.27 264.01L270.34 263.98"
fill="none" stroke="black" stroke-width="9"/>
</g>
<g><path d="M112.82 102.11L287.18 102.11"
fill="none" stroke="black" stroke-width="9"/>
</g>
<g><path d="M112.82 176.84L287.18 176.84"
fill="none" stroke="black" stroke-width="9"/>
</g>
<g><path d="M136.27 110.82L259.56 234.11"
fill="none" stroke="black" stroke-width="9"/>
</g>
<g><path d="M83.43 163.66L206.72 286.95"
fill="none" stroke="black" stroke-width="9"/>
</g>
</g>
</svg>
