<?xml version="1.0" standalone="no"?><svg xmlns="http://www.w3.org/2000/svg" width="400.000" height="400.000" viewBox="0.0 0.0 400.000 400.000" version="1.1">
  <title>Produce by Acme CAD Converter</title>
  <desc>Produce by Acme CAD Converter</desc>
<g id="0" display="visible">
<g><path d="M200 71.14L200.04 127.98"
fill="none" stroke="black" stroke-width="9"/>
</g>
<g><path d="M170.11 298.97L171.91 288.75M171.91 288.75L177.1 279.76M177.1 279.76L185.05 273.08M185.05 273.08L194.81 269.53M194.81 269.53L205.19 269.53M205.19 269.53L214.95 273.08M214.95 273.08L222.9 279.76M222.9 279.76L228.09 288.75M228.09 288.75L229.89 298.97M229.89 298.97L228.09 309.19M228.09 309.19L222.9 318.18M222.9 318.18L214.95 324.85M214.95 324.85L205.19 328.41M205.19 328.41L194.81 328.41M194.81 328.41L185.05 324.85M185.05 324.85L177.1 318.18M177.1 318.18L171.91 309.19M171.91 309.19L170.11 298.97"
fill="none" stroke="black" stroke-width="9"/>
</g>
<g><path d="M0.73 250.48L63.71 250.31"
fill="none" stroke="black" stroke-width="9"/>
</g>
<g><path d="M399.27 250.48L333.39 250.53"
fill="none" stroke="black" stroke-width="9"/>
</g>
<g><path d="M219.1 180.82L115.28 273.97"
fill="none" stroke="black" stroke-width="9"/>
</g>
<g><path d="M63.66 251.92L65.46 241.7M65.46 241.7L70.65 232.71M70.65 232.71L78.61 226.04M78.61 226.04L88.36 222.49M88.36 222.49L98.74 222.49M98.74 222.49L108.5 226.04M108.5 226.04L116.45 232.71M116.45 232.71L121.64 241.7M121.64 241.7L123.44 251.92M123.44 251.92L121.64 262.14M121.64 262.14L116.45 271.13M116.45 271.13L108.5 277.81M108.5 277.81L98.74 281.36M98.74 281.36L88.36 281.36M88.36 281.36L78.61 277.81M78.61 277.81L70.65 271.13M70.65 271.13L65.46 262.14M65.46 262.14L63.66 251.92"
fill="none" stroke="black" stroke-width="9"/>
</g>
<g><path d="M168.54 157.82L170.34 147.6M170.34 147.6L175.53 138.61M175.53 138.61L183.48 131.94M183.48 131.94L193.24 128.39M193.24 128.39L203.62 128.39M203.62 128.39L213.37 131.94M213.37 131.94L221.32 138.61M221.32 138.61L226.51 147.6M226.51 147.6L228.32 157.82M228.32 157.82L226.51 168.05M226.51 168.05L221.32 177.04M221.32 177.04L213.37 183.71M213.37 183.71L203.62 187.26M203.62 187.26L193.24 187.26M193.24 187.26L183.48 183.71M183.48 183.71L175.53 177.04M175.53 177.04L170.34 168.05M170.34 168.05L168.54 157.82"
fill="none" stroke="black" stroke-width="9"/>
</g>
<g><path d="M273.66 252.14L275.46 241.92M275.46 241.92L280.65 232.93M280.65 232.93L288.6 226.26M288.6 226.26L298.36 222.71M298.36 222.71L308.74 222.71M308.74 222.71L318.49 226.26M318.49 226.26L326.44 232.93M326.44 232.93L331.63 241.92M331.63 241.92L333.44 252.14M333.44 252.14L331.63 262.36M331.63 262.36L326.44 271.35M326.44 271.35L318.49 278.03M318.49 278.03L308.74 281.58M308.74 281.58L298.36 281.58M298.36 281.58L288.6 278.03M288.6 278.03L280.65 271.35M280.65 271.35L275.46 262.36M275.46 262.36L273.66 252.14"
fill="none" stroke="black" stroke-width="9"/>
</g>
<g><path d="M168.78 158.04L170.58 147.82M170.58 147.82L175.77 138.83M175.77 138.83L183.73 132.16M183.73 132.16L193.48 128.61M193.48 128.61L203.86 128.61M203.86 128.61L213.62 132.16M213.62 132.16L221.57 138.83M221.57 138.83L226.76 147.82M226.76 147.82L228.56 158.04M228.56 158.04L226.76 168.26M226.76 168.26L221.57 177.25M221.57 177.25L213.62 183.93M213.62 183.93L203.86 187.48M203.86 187.48L193.48 187.48M193.48 187.48L183.73 183.93M183.73 183.93L175.77 177.25M175.77 177.25L170.58 168.26M170.58 168.26L168.78 158.04"
fill="none" stroke="black" stroke-width="9"/>
</g>
<g><path d="M170.11 298.97L170.11 159.48"
fill="none" stroke="black" stroke-width="9"/>
</g>
<g><path d="M229.89 298.97L229.89 159.48"
fill="none" stroke="black" stroke-width="9"/>
</g>
<g><path d="M179.18 136.32L75.36 229.47"
fill="none" stroke="black" stroke-width="9"/>
</g>
<g><path d="M177.99 181.04L281.82 274.19"
fill="none" stroke="black" stroke-width="9"/>
</g>
<g><path d="M217.92 136.54L321.74 229.69"
fill="none" stroke="black" stroke-width="9"/>
</g>
</g>
</svg>
