<?xml version="1.0" standalone="no"?><svg xmlns="http://www.w3.org/2000/svg" width="400.000" height="400.000" viewBox="0.0 0.0 400.000 400.000" version="1.1">
  <title>Produce by Acme CAD Converter</title>
  <desc>Produce by Acme CAD Converter</desc>
<g id="0" display="visible">
<g><path d="M399.27 87.08L332.38 87.08"
fill="none" stroke="black" stroke-width="9"/>
</g>
<g><path d="M292.99 232.33L280.82 234.28M280.82 234.28L269.84 239.94M269.84 239.94L261.12 248.75M261.12 248.75L255.53 259.86M255.53 259.86L253.6 272.18M253.6 272.18L255.53 284.49M255.53 284.49L261.12 295.6M261.12 295.6L269.84 304.42M269.84 304.42L280.82 310.08M280.82 310.08L292.99 312.03M292.99 312.03L305.16 310.08M305.16 310.08L316.14 304.42M316.14 304.42L324.86 295.6M324.86 295.6L330.45 284.49M330.45 284.49L332.38 272.18M332.38 272.18L330.45 259.86M330.45 259.86L324.86 248.75M324.86 248.75L316.14 239.94M316.14 239.94L305.16 234.28M305.16 234.28L292.99 232.33"
fill="none" stroke="black" stroke-width="9"/>
</g>
<g><path d="M292.99 47.23L280.82 49.18M280.82 49.18L269.84 54.84M269.84 54.84L261.12 63.66M261.12 63.66L255.53 74.77M255.53 74.77L253.6 87.08M253.6 87.08L255.53 99.4M255.53 99.4L261.12 110.51M261.12 110.51L269.84 119.32M269.84 119.32L280.82 124.98M280.82 124.98L292.99 126.94M292.99 126.94L305.16 124.98M305.16 124.98L316.14 119.32M316.14 119.32L324.86 110.51M324.86 110.51L330.45 99.4M330.45 99.4L332.38 87.08M332.38 87.08L330.45 74.77M330.45 74.77L324.86 63.66M324.86 63.66L316.14 54.84M316.14 54.84L305.16 49.18M305.16 49.18L292.99 47.23"
fill="none" stroke="black" stroke-width="9"/>
</g>
<g><path d="M107.01 47.23L94.84 49.18M94.84 49.18L83.86 54.84M83.86 54.84L75.14 63.66M75.14 63.66L69.55 74.77M69.55 74.77L67.62 87.08M67.62 87.08L69.55 99.4M69.55 99.4L75.14 110.51M75.14 110.51L83.86 119.32M83.86 119.32L94.84 124.98M94.84 124.98L107.01 126.94M107.01 126.94L119.18 124.98M119.18 124.98L130.16 119.32M130.16 119.32L138.88 110.51M138.88 110.51L144.47 99.4M144.47 99.4L146.4 87.08M146.4 87.08L144.47 74.77M144.47 74.77L138.88 63.66M138.88 63.66L130.16 54.84M130.16 54.84L119.18 49.18M119.18 49.18L107.01 47.23"
fill="none" stroke="black" stroke-width="9"/>
</g>
<g><path d="M0.73 87.08L66.23 87.08"
fill="none" stroke="black" stroke-width="9"/>
</g>
<g><path d="M292.99 352.77L292.99 312.03"
fill="none" stroke="black" stroke-width="9"/>
</g>
<g><path d="M253.6 272.18L253.6 86.2"
fill="none" stroke="black" stroke-width="9"/>
</g>
<g><path d="M332.38 272.18L332.38 86.2"
fill="none" stroke="black" stroke-width="9"/>
</g>
<g><path d="M289.44 47.23L105.62 47.23"
fill="none" stroke="black" stroke-width="9"/>
</g>
<g><path d="M289.44 126.94L105.62 126.94"
fill="none" stroke="black" stroke-width="9"/>
</g>
</g>
</svg>
