<?xml version="1.0" standalone="no"?><svg xmlns="http://www.w3.org/2000/svg" width="400.000" height="400.000" viewBox="0.0 0.0 400.000 400.000" version="1.1">
  <title>Produce by Acme CAD Converter</title>
  <desc>Produce by Acme CAD Converter</desc>
<g id="0" display="visible">
<g><path d="M266.42 152.03L310.7 188.93"
fill="none" stroke="black" stroke-width="9"/>
</g>
<g><path d="M222.14 152.03L266.42 188.93"
fill="none" stroke="black" stroke-width="9"/>
</g>
<g><path d="M310.7 188.93L266.42 225.83"
fill="none" stroke="black" stroke-width="9"/>
</g>
<g><path d="M266.42 188.93L222.14 225.83"
fill="none" stroke="black" stroke-width="9"/>
</g>
<g><path d="M177.86 152.03L133.58 188.93"
fill="none" stroke="black" stroke-width="9"/>
</g>
<g><path d="M133.58 152.03L89.3 188.93"
fill="none" stroke="black" stroke-width="9"/>
</g>
<g><path d="M133.58 188.93L177.86 225.83"
fill="none" stroke="black" stroke-width="9"/>
</g>
<g><path d="M89.3 188.93L133.58 225.83"
fill="none" stroke="black" stroke-width="9"/>
</g>
<g><path d="M133.58 188.93L266.42 188.93"
fill="none" stroke="black" stroke-width="9"/>
</g>
<g><path d="M0.73 188.93L89.3 188.93"
fill="none" stroke="black" stroke-width="9"/>
</g>
<g><path d="M399.27 188.93L310.7 188.93"
fill="none" stroke="black" stroke-width="9"/>
</g>
<g><path d="M45.01 100.37L45.01 299.63"
fill="none" stroke="black" stroke-width="9"/>
</g>
<g><path d="M45.01 299.63L354.99 299.63"
fill="none" stroke="black" stroke-width="9"/>
</g>
<g><path d="M354.99 299.63L354.99 100.37"
fill="none" stroke="black" stroke-width="9"/>
</g>
<g><path d="M354.99 100.37L45.01 100.37"
fill="none" stroke="black" stroke-width="9"/>
</g>
</g>
</svg>
