<?xml version="1.0" standalone="no"?><svg xmlns="http://www.w3.org/2000/svg" width="400.000" height="400.000" viewBox="0.0 0.0 400.000 400.000" version="1.1">
  <title>Produce by Acme CAD Converter</title>
  <desc>Produce by Acme CAD Converter</desc>
<g id="0" display="visible">
<g><path d="M163.1 133.58L200 89.3"
fill="none" stroke="black" stroke-width="9"/>
</g>
<g><path d="M163.1 177.86L200 133.58"
fill="none" stroke="black" stroke-width="9"/>
</g>
<g><path d="M200 89.3L236.9 133.58"
fill="none" stroke="black" stroke-width="9"/>
</g>
<g><path d="M200 133.58L236.9 177.86"
fill="none" stroke="black" stroke-width="9"/>
</g>
<g><path d="M163.1 222.14L200 266.42"
fill="none" stroke="black" stroke-width="9"/>
</g>
<g><path d="M163.1 266.42L200 310.7"
fill="none" stroke="black" stroke-width="9"/>
</g>
<g><path d="M200 266.42L236.9 222.14"
fill="none" stroke="black" stroke-width="9"/>
</g>
<g><path d="M200 310.7L236.9 266.42"
fill="none" stroke="black" stroke-width="9"/>
</g>
<g><path d="M200 266.42L200 133.58"
fill="none" stroke="black" stroke-width="9"/>
</g>
<g><path d="M200 399.27L200 310.7"
fill="none" stroke="black" stroke-width="9"/>
</g>
<g><path d="M200 0.73L200 89.3"
fill="none" stroke="black" stroke-width="9"/>
</g>
<g><path d="M89.3 354.99L310.7 354.99"
fill="none" stroke="black" stroke-width="9"/>
</g>
<g><path d="M310.7 354.99L310.7 45.01"
fill="none" stroke="black" stroke-width="9"/>
</g>
<g><path d="M310.7 45.01L89.3 45.01"
fill="none" stroke="black" stroke-width="9"/>
</g>
<g><path d="M89.3 45.01L89.3 354.99"
fill="none" stroke="black" stroke-width="9"/>
</g>
</g>
</svg>
