<?xml version="1.0" standalone="no"?><svg xmlns="http://www.w3.org/2000/svg" width="400.000" height="400.000" viewBox="0.0 0.0 400.000 400.000" version="1.1">
  <title>Produce by Acme CAD Converter</title>
  <desc>Produce by Acme CAD Converter</desc>
<g id="0" display="visible">
<g><path d="M285.4 157.3L313.87 128.83"
fill="none" stroke="black" stroke-width="9"/>
</g>
<g><path d="M285.4 185.77L313.87 157.3"
fill="none" stroke="black" stroke-width="9"/>
</g>
<g><path d="M313.87 128.83L342.33 157.3"
fill="none" stroke="black" stroke-width="9"/>
</g>
<g><path d="M313.87 157.3L342.33 185.77"
fill="none" stroke="black" stroke-width="9"/>
</g>
<g><path d="M285.4 214.23L313.87 242.7"
fill="none" stroke="black" stroke-width="9"/>
</g>
<g><path d="M285.4 242.7L313.87 271.17"
fill="none" stroke="black" stroke-width="9"/>
</g>
<g><path d="M313.87 242.7L342.33 214.23"
fill="none" stroke="black" stroke-width="9"/>
</g>
<g><path d="M313.87 271.17L342.33 242.7"
fill="none" stroke="black" stroke-width="9"/>
</g>
<g><path d="M313.87 242.7L313.87 157.3"
fill="none" stroke="black" stroke-width="9"/>
</g>
<g><path d="M313.87 328.1L313.87 271.17"
fill="none" stroke="black" stroke-width="9"/>
</g>
<g><path d="M313.87 71.9L313.87 128.83"
fill="none" stroke="black" stroke-width="9"/>
</g>
<g><path d="M171.53 157.3L200 128.83"
fill="none" stroke="black" stroke-width="9"/>
</g>
<g><path d="M171.53 185.77L200 157.3"
fill="none" stroke="black" stroke-width="9"/>
</g>
<g><path d="M200 128.83L228.47 157.3"
fill="none" stroke="black" stroke-width="9"/>
</g>
<g><path d="M200 157.3L228.47 185.77"
fill="none" stroke="black" stroke-width="9"/>
</g>
<g><path d="M171.53 214.23L200 242.7"
fill="none" stroke="black" stroke-width="9"/>
</g>
<g><path d="M171.53 242.7L200 271.17"
fill="none" stroke="black" stroke-width="9"/>
</g>
<g><path d="M200 242.7L228.47 214.23"
fill="none" stroke="black" stroke-width="9"/>
</g>
<g><path d="M200 271.17L228.47 242.7"
fill="none" stroke="black" stroke-width="9"/>
</g>
<g><path d="M200 242.7L200 157.3"
fill="none" stroke="black" stroke-width="9"/>
</g>
<g><path d="M200 328.1L200 271.17"
fill="none" stroke="black" stroke-width="9"/>
</g>
<g><path d="M200 71.9L200 128.83"
fill="none" stroke="black" stroke-width="9"/>
</g>
<g><path d="M57.67 157.3L86.13 128.83"
fill="none" stroke="black" stroke-width="9"/>
</g>
<g><path d="M57.67 185.77L86.13 157.3"
fill="none" stroke="black" stroke-width="9"/>
</g>
<g><path d="M86.13 128.83L114.6 157.3"
fill="none" stroke="black" stroke-width="9"/>
</g>
<g><path d="M86.13 157.3L114.6 185.77"
fill="none" stroke="black" stroke-width="9"/>
</g>
<g><path d="M57.67 214.23L86.13 242.7"
fill="none" stroke="black" stroke-width="9"/>
</g>
<g><path d="M57.67 242.7L86.13 271.17"
fill="none" stroke="black" stroke-width="9"/>
</g>
<g><path d="M86.13 242.7L114.6 214.23"
fill="none" stroke="black" stroke-width="9"/>
</g>
<g><path d="M86.13 271.17L114.6 242.7"
fill="none" stroke="black" stroke-width="9"/>
</g>
<g><path d="M86.13 242.7L86.13 157.3"
fill="none" stroke="black" stroke-width="9"/>
</g>
<g><path d="M86.13 328.1L86.13 271.17"
fill="none" stroke="black" stroke-width="9"/>
</g>
<g><path d="M86.13 71.9L86.13 128.83"
fill="none" stroke="black" stroke-width="9"/>
</g>
<g><path d="M0.73 299.63L399.27 299.63"
fill="none" stroke="black" stroke-width="9"/>
</g>
<g><path d="M399.27 299.63L399.27 100.37"
fill="none" stroke="black" stroke-width="9"/>
</g>
<g><path d="M399.27 100.37L0.73 100.37"
fill="none" stroke="black" stroke-width="9"/>
</g>
<g><path d="M0.73 100.37L0.73 299.63"
fill="none" stroke="black" stroke-width="9"/>
</g>
</g>
</svg>
