<?xml version="1.0" standalone="no"?><svg xmlns="http://www.w3.org/2000/svg" width="400.000" height="400.000" viewBox="0.0 0.0 400.000 400.000" version="1.1">
  <title>Produce by Acme CAD Converter</title>
  <desc>Produce by Acme CAD Converter</desc>
<g id="0" display="visible">
<g><path d="M206.04 163.77L230.19 139.62"
fill="none" stroke="black" stroke-width="9"/>
</g>
<g><path d="M206.04 187.92L230.19 163.77"
fill="none" stroke="black" stroke-width="9"/>
</g>
<g><path d="M230.19 139.62L254.35 163.77"
fill="none" stroke="black" stroke-width="9"/>
</g>
<g><path d="M230.19 163.77L254.35 187.92"
fill="none" stroke="black" stroke-width="9"/>
</g>
<g><path d="M206.04 212.08L230.19 236.23"
fill="none" stroke="black" stroke-width="9"/>
</g>
<g><path d="M206.04 236.23L230.19 260.38"
fill="none" stroke="black" stroke-width="9"/>
</g>
<g><path d="M230.19 236.23L254.35 212.08"
fill="none" stroke="black" stroke-width="9"/>
</g>
<g><path d="M230.19 260.38L254.35 236.23"
fill="none" stroke="black" stroke-width="9"/>
</g>
<g><path d="M230.19 236.23L230.19 163.77"
fill="none" stroke="black" stroke-width="9"/>
</g>
<g><path d="M230.19 308.69L230.19 260.38"
fill="none" stroke="black" stroke-width="9"/>
</g>
<g><path d="M230.19 91.31L230.19 139.62"
fill="none" stroke="black" stroke-width="9"/>
</g>
<g><path d="M109.42 163.77L133.58 139.62"
fill="none" stroke="black" stroke-width="9"/>
</g>
<g><path d="M109.42 187.92L133.58 163.77"
fill="none" stroke="black" stroke-width="9"/>
</g>
<g><path d="M133.58 139.62L157.73 163.77"
fill="none" stroke="black" stroke-width="9"/>
</g>
<g><path d="M133.58 163.77L157.73 187.92"
fill="none" stroke="black" stroke-width="9"/>
</g>
<g><path d="M109.42 212.08L133.58 236.23"
fill="none" stroke="black" stroke-width="9"/>
</g>
<g><path d="M109.42 236.23L133.58 260.38"
fill="none" stroke="black" stroke-width="9"/>
</g>
<g><path d="M133.58 236.23L157.73 212.08"
fill="none" stroke="black" stroke-width="9"/>
</g>
<g><path d="M133.58 260.38L157.73 236.23"
fill="none" stroke="black" stroke-width="9"/>
</g>
<g><path d="M133.58 236.23L133.58 163.77"
fill="none" stroke="black" stroke-width="9"/>
</g>
<g><path d="M133.58 308.69L133.58 260.38"
fill="none" stroke="black" stroke-width="9"/>
</g>
<g><path d="M133.58 91.31L133.58 139.62"
fill="none" stroke="black" stroke-width="9"/>
</g>
<g><path d="M12.81 163.77L36.96 139.62"
fill="none" stroke="black" stroke-width="9"/>
</g>
<g><path d="M12.81 187.92L36.96 163.77"
fill="none" stroke="black" stroke-width="9"/>
</g>
<g><path d="M36.96 139.62L61.12 163.77"
fill="none" stroke="black" stroke-width="9"/>
</g>
<g><path d="M36.96 163.77L61.12 187.92"
fill="none" stroke="black" stroke-width="9"/>
</g>
<g><path d="M12.81 212.08L36.96 236.23"
fill="none" stroke="black" stroke-width="9"/>
</g>
<g><path d="M12.81 236.23L36.96 260.38"
fill="none" stroke="black" stroke-width="9"/>
</g>
<g><path d="M36.96 236.23L61.12 212.08"
fill="none" stroke="black" stroke-width="9"/>
</g>
<g><path d="M36.96 260.38L61.12 236.23"
fill="none" stroke="black" stroke-width="9"/>
</g>
<g><path d="M36.96 236.23L36.96 163.77"
fill="none" stroke="black" stroke-width="9"/>
</g>
<g><path d="M36.96 308.69L36.96 260.38"
fill="none" stroke="black" stroke-width="9"/>
</g>
<g><path d="M36.96 91.31L36.96 139.62"
fill="none" stroke="black" stroke-width="9"/>
</g>
<g><path d="M302.65 163.77L326.81 139.62"
fill="none" stroke="black" stroke-width="9"/>
</g>
<g><path d="M302.65 187.92L326.81 163.77"
fill="none" stroke="black" stroke-width="9"/>
</g>
<g><path d="M326.81 139.62L350.96 163.77"
fill="none" stroke="black" stroke-width="9"/>
</g>
<g><path d="M326.81 163.77L350.96 187.92"
fill="none" stroke="black" stroke-width="9"/>
</g>
<g><path d="M302.65 212.08L326.81 236.23"
fill="none" stroke="black" stroke-width="9"/>
</g>
<g><path d="M302.65 236.23L326.81 260.38"
fill="none" stroke="black" stroke-width="9"/>
</g>
<g><path d="M326.81 236.23L350.96 212.08"
fill="none" stroke="black" stroke-width="9"/>
</g>
<g><path d="M326.81 260.38L350.96 236.23"
fill="none" stroke="black" stroke-width="9"/>
</g>
<g><path d="M326.81 236.23L326.81 163.77"
fill="none" stroke="black" stroke-width="9"/>
</g>
<g><path d="M326.81 308.69L326.81 260.38"
fill="none" stroke="black" stroke-width="9"/>
</g>
<g><path d="M326.81 91.31L326.81 139.62"
fill="none" stroke="black" stroke-width="9"/>
</g>
<g><path d="M0.73 279.71L399.27 279.71"
fill="none" stroke="black" stroke-width="9"/>
</g>
<g><path d="M399.27 279.71L399.27 110.63"
fill="none" stroke="black" stroke-width="9"/>
</g>
<g><path d="M399.27 110.63L0.73 110.63"
fill="none" stroke="black" stroke-width="9"/>
</g>
<g><path d="M0.73 110.63L0.73 279.71"
fill="none" stroke="black" stroke-width="9"/>
</g>
</g>
</svg>
