<?xml version="1.0" standalone="no"?><svg xmlns="http://www.w3.org/2000/svg" width="400.000" height="400.000" viewBox="0.0 0.0 400.000 400.000" version="1.1">
  <title>Produce by Acme CAD Converter</title>
  <desc>Produce by Acme CAD Converter</desc>
<g id="0" display="visible">
<g><path d="M269.13 175.6L285.4 159.33"
fill="none" stroke="black" stroke-width="9"/>
</g>
<g><path d="M269.13 191.87L285.4 175.6"
fill="none" stroke="black" stroke-width="9"/>
</g>
<g><path d="M285.4 159.33L301.67 175.6"
fill="none" stroke="black" stroke-width="9"/>
</g>
<g><path d="M285.4 175.6L301.67 191.87"
fill="none" stroke="black" stroke-width="9"/>
</g>
<g><path d="M269.13 208.13L285.4 224.4"
fill="none" stroke="black" stroke-width="9"/>
</g>
<g><path d="M269.13 224.4L285.4 240.67"
fill="none" stroke="black" stroke-width="9"/>
</g>
<g><path d="M285.4 224.4L301.67 208.13"
fill="none" stroke="black" stroke-width="9"/>
</g>
<g><path d="M285.4 240.67L301.67 224.4"
fill="none" stroke="black" stroke-width="9"/>
</g>
<g><path d="M285.4 224.4L285.4 175.6"
fill="none" stroke="black" stroke-width="9"/>
</g>
<g><path d="M285.4 273.2L285.4 240.67"
fill="none" stroke="black" stroke-width="9"/>
</g>
<g><path d="M285.4 126.8L285.4 159.33"
fill="none" stroke="black" stroke-width="9"/>
</g>
<g><path d="M334.2 175.6L350.47 159.33"
fill="none" stroke="black" stroke-width="9"/>
</g>
<g><path d="M334.2 191.87L350.47 175.6"
fill="none" stroke="black" stroke-width="9"/>
</g>
<g><path d="M350.47 159.33L366.73 175.6"
fill="none" stroke="black" stroke-width="9"/>
</g>
<g><path d="M350.47 175.6L366.73 191.87"
fill="none" stroke="black" stroke-width="9"/>
</g>
<g><path d="M334.2 208.13L350.47 224.4"
fill="none" stroke="black" stroke-width="9"/>
</g>
<g><path d="M334.2 224.4L350.47 240.67"
fill="none" stroke="black" stroke-width="9"/>
</g>
<g><path d="M350.47 224.4L366.73 208.13"
fill="none" stroke="black" stroke-width="9"/>
</g>
<g><path d="M350.47 240.67L366.73 224.4"
fill="none" stroke="black" stroke-width="9"/>
</g>
<g><path d="M350.47 224.4L350.47 175.6"
fill="none" stroke="black" stroke-width="9"/>
</g>
<g><path d="M350.47 273.2L350.47 240.67"
fill="none" stroke="black" stroke-width="9"/>
</g>
<g><path d="M350.47 126.8L350.47 159.33"
fill="none" stroke="black" stroke-width="9"/>
</g>
<g><path d="M139 175.6L155.27 159.33"
fill="none" stroke="black" stroke-width="9"/>
</g>
<g><path d="M139 191.87L155.27 175.6"
fill="none" stroke="black" stroke-width="9"/>
</g>
<g><path d="M155.27 159.33L171.53 175.6"
fill="none" stroke="black" stroke-width="9"/>
</g>
<g><path d="M155.27 175.6L171.53 191.87"
fill="none" stroke="black" stroke-width="9"/>
</g>
<g><path d="M139 208.13L155.27 224.4"
fill="none" stroke="black" stroke-width="9"/>
</g>
<g><path d="M139 224.4L155.27 240.67"
fill="none" stroke="black" stroke-width="9"/>
</g>
<g><path d="M155.27 224.4L171.53 208.13"
fill="none" stroke="black" stroke-width="9"/>
</g>
<g><path d="M155.27 240.67L171.53 224.4"
fill="none" stroke="black" stroke-width="9"/>
</g>
<g><path d="M155.27 224.4L155.27 175.6"
fill="none" stroke="black" stroke-width="9"/>
</g>
<g><path d="M155.27 273.2L155.27 240.67"
fill="none" stroke="black" stroke-width="9"/>
</g>
<g><path d="M155.27 126.8L155.27 159.33"
fill="none" stroke="black" stroke-width="9"/>
</g>
<g><path d="M73.93 175.6L90.2 159.33"
fill="none" stroke="black" stroke-width="9"/>
</g>
<g><path d="M73.93 191.87L90.2 175.6"
fill="none" stroke="black" stroke-width="9"/>
</g>
<g><path d="M90.2 159.33L106.47 175.6"
fill="none" stroke="black" stroke-width="9"/>
</g>
<g><path d="M90.2 175.6L106.47 191.87"
fill="none" stroke="black" stroke-width="9"/>
</g>
<g><path d="M73.93 208.13L90.2 224.4"
fill="none" stroke="black" stroke-width="9"/>
</g>
<g><path d="M73.93 224.4L90.2 240.67"
fill="none" stroke="black" stroke-width="9"/>
</g>
<g><path d="M90.2 224.4L106.47 208.13"
fill="none" stroke="black" stroke-width="9"/>
</g>
<g><path d="M90.2 240.67L106.47 224.4"
fill="none" stroke="black" stroke-width="9"/>
</g>
<g><path d="M90.2 224.4L90.2 175.6"
fill="none" stroke="black" stroke-width="9"/>
</g>
<g><path d="M90.2 273.2L90.2 240.67"
fill="none" stroke="black" stroke-width="9"/>
</g>
<g><path d="M90.2 126.8L90.2 159.33"
fill="none" stroke="black" stroke-width="9"/>
</g>
<g><path d="M8.87 175.6L25.13 159.33"
fill="none" stroke="black" stroke-width="9"/>
</g>
<g><path d="M8.87 191.87L25.13 175.6"
fill="none" stroke="black" stroke-width="9"/>
</g>
<g><path d="M25.13 159.33L41.4 175.6"
fill="none" stroke="black" stroke-width="9"/>
</g>
<g><path d="M25.13 175.6L41.4 191.87"
fill="none" stroke="black" stroke-width="9"/>
</g>
<g><path d="M8.87 208.13L25.13 224.4"
fill="none" stroke="black" stroke-width="9"/>
</g>
<g><path d="M8.87 224.4L25.13 240.67"
fill="none" stroke="black" stroke-width="9"/>
</g>
<g><path d="M25.13 224.4L41.4 208.13"
fill="none" stroke="black" stroke-width="9"/>
</g>
<g><path d="M25.13 240.67L41.4 224.4"
fill="none" stroke="black" stroke-width="9"/>
</g>
<g><path d="M25.13 224.4L25.13 175.6"
fill="none" stroke="black" stroke-width="9"/>
</g>
<g><path d="M25.13 273.2L25.13 240.67"
fill="none" stroke="black" stroke-width="9"/>
</g>
<g><path d="M25.13 126.8L25.13 159.33"
fill="none" stroke="black" stroke-width="9"/>
</g>
<g><path d="M204.07 175.6L220.33 159.33"
fill="none" stroke="black" stroke-width="9"/>
</g>
<g><path d="M204.07 191.87L220.33 175.6"
fill="none" stroke="black" stroke-width="9"/>
</g>
<g><path d="M220.33 159.33L236.6 175.6"
fill="none" stroke="black" stroke-width="9"/>
</g>
<g><path d="M220.33 175.6L236.6 191.87"
fill="none" stroke="black" stroke-width="9"/>
</g>
<g><path d="M204.07 208.13L220.33 224.4"
fill="none" stroke="black" stroke-width="9"/>
</g>
<g><path d="M204.07 224.4L220.33 240.67"
fill="none" stroke="black" stroke-width="9"/>
</g>
<g><path d="M220.33 224.4L236.6 208.13"
fill="none" stroke="black" stroke-width="9"/>
</g>
<g><path d="M220.33 240.67L236.6 224.4"
fill="none" stroke="black" stroke-width="9"/>
</g>
<g><path d="M220.33 224.4L220.33 175.6"
fill="none" stroke="black" stroke-width="9"/>
</g>
<g><path d="M220.33 273.2L220.33 240.67"
fill="none" stroke="black" stroke-width="9"/>
</g>
<g><path d="M220.33 126.8L220.33 159.33"
fill="none" stroke="black" stroke-width="9"/>
</g>
<g><path d="M0.73 253.68L399.27 253.68"
fill="none" stroke="black" stroke-width="9"/>
</g>
<g><path d="M399.27 253.68L399.27 139.81"
fill="none" stroke="black" stroke-width="9"/>
</g>
<g><path d="M399.27 139.81L0.73 139.81"
fill="none" stroke="black" stroke-width="9"/>
</g>
<g><path d="M0.73 139.81L0.73 253.68"
fill="none" stroke="black" stroke-width="9"/>
</g>
</g>
</svg>
