<?xml version="1.0" standalone="no"?><svg xmlns="http://www.w3.org/2000/svg" width="400.000" height="400.000" viewBox="0.0 0.0 400.000 400.000" version="1.1">
  <title>Produce by Acme CAD Converter</title>
  <desc>Produce by Acme CAD Converter</desc>
<g id="0" display="visible">
<g><path d="M113.98 165.04L113.98 157.38 112.82 162.64 113.98 165.04Z"
fill-rule="evenodd" fill="black"/>
<path d="M113.98 165.04L117.55 172.41 113.98 157.38 113.98 165.04Z"
fill-rule="evenodd" fill="black"/>
<path d="M117.55 172.41L117.55 154.47 113.98 157.38 117.55 172.41Z"
fill-rule="evenodd" fill="black"/>
<path d="M117.55 172.41L122.4 173.48 117.55 154.47 117.55 172.41Z"
fill-rule="evenodd" fill="black"/>
<path d="M122.4 173.48L122.4 150.52 117.55 154.47 122.4 173.48Z"
fill-rule="evenodd" fill="black"/>
<path d="M122.4 173.48L128.15 174.75 122.4 150.52 122.4 173.48Z"
fill-rule="evenodd" fill="black"/>
<path d="M128.15 174.75L128.15 151.79 122.4 150.52 128.15 174.75Z"
fill-rule="evenodd" fill="black"/>
<path d="M128.15 174.75L133 170.8 128.15 151.79 128.15 174.75Z"
fill-rule="evenodd" fill="black"/>
<path d="M133 170.8L133 152.87 128.15 151.79 133 170.8Z"
fill-rule="evenodd" fill="black"/>
<path d="M133 170.8L136.57 167.89 133 152.87 133 170.8Z"
fill-rule="evenodd" fill="black"/>
<path d="M136.57 167.89L136.57 160.24 133 152.87 136.57 167.89Z"
fill-rule="evenodd" fill="black"/>
<path d="M136.57 167.89L137.73 162.64 136.57 160.24 136.57 167.89Z"
fill-rule="evenodd" fill="black"/>
</g>
<g><path d="M263.43 289.58L263.43 281.93 262.27 287.18 263.43 289.58Z"
fill-rule="evenodd" fill="black"/>
<path d="M263.43 289.58L267 296.95 263.43 281.93 263.43 289.58Z"
fill-rule="evenodd" fill="black"/>
<path d="M267 296.95L267 279.01 263.43 281.93 267 296.95Z"
fill-rule="evenodd" fill="black"/>
<path d="M267 296.95L271.85 298.02 267 279.01 267 296.95Z"
fill-rule="evenodd" fill="black"/>
<path d="M271.85 298.02L271.85 275.06 267 279.01 271.85 298.02Z"
fill-rule="evenodd" fill="black"/>
<path d="M271.85 298.02L277.6 299.3 271.85 275.06 271.85 298.02Z"
fill-rule="evenodd" fill="black"/>
<path d="M277.6 299.3L277.6 276.34 271.85 275.06 277.6 299.3Z"
fill-rule="evenodd" fill="black"/>
<path d="M277.6 299.3L282.45 295.35 277.6 276.34 277.6 299.3Z"
fill-rule="evenodd" fill="black"/>
<path d="M282.45 295.35L282.45 277.41 277.6 276.34 282.45 295.35Z"
fill-rule="evenodd" fill="black"/>
<path d="M282.45 295.35L286.02 292.43 282.45 277.41 282.45 295.35Z"
fill-rule="evenodd" fill="black"/>
<path d="M286.02 292.43L286.02 284.78 282.45 277.41 286.02 292.43Z"
fill-rule="evenodd" fill="black"/>
<path d="M286.02 292.43L287.18 287.18 286.02 284.78 286.02 292.43Z"
fill-rule="evenodd" fill="black"/>
</g>
<g><path d="M0.73 162.64L75.46 162.64"
fill="none" stroke="black" stroke-width="9"/>
</g>
<g><path d="M0.73 287.18L75.46 287.18"
fill="none" stroke="black" stroke-width="9"/>
</g>
<g><path d="M324.54 162.64L399.27 162.64"
fill="none" stroke="black" stroke-width="9"/>
</g>
<g><path d="M324.54 287.18L399.27 287.18"
fill="none" stroke="black" stroke-width="9"/>
</g>
<g><path d="M137.73 162.64L136.06 156.41M136.06 156.41L131.5 151.85M131.5 151.85L125.27 150.18M125.27 150.18L119.05 151.85M119.05 151.85L114.49 156.41M114.49 156.41L112.82 162.64"
fill="none" stroke="black" stroke-width="9"/>
</g>
<g><path d="M112.82 162.64L114.49 168.86M114.49 168.86L119.05 173.42M119.05 173.42L125.27 175.09M125.27 175.09L131.5 173.42M131.5 173.42L136.06 168.86M136.06 168.86L137.73 162.64"
fill="none" stroke="black" stroke-width="9"/>
</g>
<g><path d="M287.18 287.18L285.51 280.95M285.51 280.95L280.95 276.39M280.95 276.39L274.73 274.73M274.73 274.73L268.5 276.39M268.5 276.39L263.94 280.95M263.94 280.95L262.27 287.18"
fill="none" stroke="black" stroke-width="9"/>
</g>
<g><path d="M262.27 287.18L263.94 293.41M263.94 293.41L268.5 297.96M268.5 297.96L274.73 299.63M274.73 299.63L280.95 297.96M280.95 297.96L285.51 293.41M285.51 293.41L287.18 287.18"
fill="none" stroke="black" stroke-width="9"/>
</g>
<g><path d="M75.46 386.81L324.54 386.81"
fill="none" stroke="black" stroke-width="9"/>
</g>
<g><path d="M324.54 386.81L324.54 13.19"
fill="none" stroke="black" stroke-width="9"/>
</g>
<g><path d="M324.54 13.19L75.46 13.19"
fill="none" stroke="black" stroke-width="9"/>
</g>
<g><path d="M75.46 13.19L75.46 386.81"
fill="none" stroke="black" stroke-width="9"/>
</g>
<g><path d="M125.27 125.27L125.27 324.54"
fill="none" stroke="black" stroke-width="9"/>
</g>
<g><path d="M274.73 125.27L274.73 324.54"
fill="none" stroke="black" stroke-width="9"/>
</g>
</g>
</svg>
