<?xml version="1.0" standalone="no"?><svg xmlns="http://www.w3.org/2000/svg" width="400.000" height="400.000" viewBox="0.0 0.0 400.000 400.000" version="1.1">
  <title>Produce by Acme CAD Converter</title>
  <desc>Produce by Acme CAD Converter</desc>
<g id="0" display="visible">
<g><path d="M380.87 316.36L380.87 313.04 380.82 313.09 380.87 316.36Z"
fill-rule="evenodd" fill="black"/>
<path d="M380.87 316.36L383.36 318.27 380.87 313.04 380.87 316.36Z"
fill-rule="evenodd" fill="black"/>
<path d="M383.36 318.27L383.36 311.01 380.87 313.04 383.36 318.27Z"
fill-rule="evenodd" fill="black"/>
<path d="M383.36 318.27L383.47 318.36 383.36 311.01 383.36 318.27Z"
fill-rule="evenodd" fill="black"/>
<path d="M383.47 318.36L383.47 311.04 383.36 311.01 383.47 318.36Z"
fill-rule="evenodd" fill="black"/>
<path d="M383.47 318.36L386.56 317.57 383.47 311.04 383.47 318.36Z"
fill-rule="evenodd" fill="black"/>
<path d="M386.56 317.57L386.56 311.72 383.47 311.04 386.56 317.57Z"
fill-rule="evenodd" fill="black"/>
<path d="M386.56 317.57L386.65 317.55 386.56 311.72 386.56 317.57Z"
fill-rule="evenodd" fill="black"/>
<path d="M386.65 317.55L386.65 311.91 386.56 311.72 386.65 317.55Z"
fill-rule="evenodd" fill="black"/>
<path d="M386.65 317.55L387.99 314.67 386.65 311.91 386.65 317.55Z"
fill-rule="evenodd" fill="black"/>
</g>
<g><path d="M380.87 384.04L380.87 380.72 380.82 380.76 380.87 384.04Z"
fill-rule="evenodd" fill="black"/>
<path d="M380.87 384.04L383.36 385.94 380.87 380.72 380.87 384.04Z"
fill-rule="evenodd" fill="black"/>
<path d="M383.36 385.94L383.36 378.69 380.87 380.72 383.36 385.94Z"
fill-rule="evenodd" fill="black"/>
<path d="M383.36 385.94L383.47 386.03 383.36 378.69 383.36 385.94Z"
fill-rule="evenodd" fill="black"/>
<path d="M383.47 386.03L383.47 378.72 383.36 378.69 383.47 386.03Z"
fill-rule="evenodd" fill="black"/>
<path d="M383.47 386.03L386.56 385.25 383.47 378.72 383.47 386.03Z"
fill-rule="evenodd" fill="black"/>
<path d="M386.56 385.25L386.56 379.4 383.47 378.72 386.56 385.25Z"
fill-rule="evenodd" fill="black"/>
<path d="M386.56 385.25L386.65 385.22 386.56 379.4 386.56 385.25Z"
fill-rule="evenodd" fill="black"/>
<path d="M386.65 385.22L386.65 379.59 386.56 379.4 386.65 385.22Z"
fill-rule="evenodd" fill="black"/>
<path d="M386.65 385.22L387.99 382.35 386.65 379.59 386.65 385.22Z"
fill-rule="evenodd" fill="black"/>
</g>
<g><path d="M207.92 75.74L207.92 72.42 207.87 72.46 207.92 75.74Z"
fill-rule="evenodd" fill="black"/>
<path d="M207.92 75.74L210.41 77.64 207.92 72.42 207.92 75.74Z"
fill-rule="evenodd" fill="black"/>
<path d="M210.41 77.64L210.41 70.39 207.92 72.42 210.41 77.64Z"
fill-rule="evenodd" fill="black"/>
<path d="M210.41 77.64L210.52 77.73 210.41 70.39 210.41 77.64Z"
fill-rule="evenodd" fill="black"/>
<path d="M210.52 77.73L210.52 70.42 210.41 70.39 210.52 77.73Z"
fill-rule="evenodd" fill="black"/>
<path d="M210.52 77.73L213.61 76.95 210.52 70.42 210.52 77.73Z"
fill-rule="evenodd" fill="black"/>
<path d="M213.61 76.95L213.61 71.1 210.52 70.42 213.61 76.95Z"
fill-rule="evenodd" fill="black"/>
<path d="M213.61 76.95L213.7 76.92 213.61 71.1 213.61 76.95Z"
fill-rule="evenodd" fill="black"/>
<path d="M213.7 76.92L213.7 71.29 213.61 71.1 213.7 76.92Z"
fill-rule="evenodd" fill="black"/>
<path d="M213.7 76.92L215.04 74.05 213.7 71.29 213.7 76.92Z"
fill-rule="evenodd" fill="black"/>
</g>
<g><path d="M207.92 135.9L207.92 132.58 207.87 132.62 207.92 135.9Z"
fill-rule="evenodd" fill="black"/>
<path d="M207.92 135.9L210.41 137.8 207.92 132.58 207.92 135.9Z"
fill-rule="evenodd" fill="black"/>
<path d="M210.41 137.8L210.41 130.55 207.92 132.58 210.41 137.8Z"
fill-rule="evenodd" fill="black"/>
<path d="M210.41 137.8L210.52 137.89 210.41 130.55 210.41 137.8Z"
fill-rule="evenodd" fill="black"/>
<path d="M210.52 137.89L210.52 130.57 210.41 130.55 210.52 137.89Z"
fill-rule="evenodd" fill="black"/>
<path d="M210.52 137.89L213.61 137.1 210.52 130.57 210.52 137.89Z"
fill-rule="evenodd" fill="black"/>
<path d="M213.61 137.1L213.61 131.25 210.52 130.57 213.61 137.1Z"
fill-rule="evenodd" fill="black"/>
<path d="M213.61 137.1L213.7 137.08 213.61 131.25 213.61 137.1Z"
fill-rule="evenodd" fill="black"/>
<path d="M213.7 137.08L213.7 131.44 213.61 131.25 213.7 137.08Z"
fill-rule="evenodd" fill="black"/>
<path d="M213.7 137.08L215.04 134.2 213.7 131.44 213.7 137.08Z"
fill-rule="evenodd" fill="black"/>
</g>
<g><path d="M155.28 226.13L155.28 222.81 155.23 222.85 155.28 226.13Z"
fill-rule="evenodd" fill="black"/>
<path d="M155.28 226.13L157.77 228.03 155.28 222.81 155.28 226.13Z"
fill-rule="evenodd" fill="black"/>
<path d="M157.77 228.03L157.77 220.78 155.28 222.81 157.77 228.03Z"
fill-rule="evenodd" fill="black"/>
<path d="M157.77 228.03L157.89 228.12 157.77 220.78 157.77 228.03Z"
fill-rule="evenodd" fill="black"/>
<path d="M157.89 228.12L157.89 220.81 157.77 220.78 157.89 228.12Z"
fill-rule="evenodd" fill="black"/>
<path d="M157.89 228.12L160.97 227.34 157.89 220.81 157.89 228.12Z"
fill-rule="evenodd" fill="black"/>
<path d="M160.97 227.34L160.97 221.49 157.89 220.81 160.97 227.34Z"
fill-rule="evenodd" fill="black"/>
<path d="M160.97 227.34L161.06 227.31 160.97 221.49 160.97 227.34Z"
fill-rule="evenodd" fill="black"/>
<path d="M161.06 227.31L161.06 221.68 160.97 221.49 161.06 227.31Z"
fill-rule="evenodd" fill="black"/>
<path d="M161.06 227.31L162.4 224.44 161.06 221.68 161.06 227.31Z"
fill-rule="evenodd" fill="black"/>
</g>
<g><path d="M155.28 286.29L155.28 282.97 155.23 283.01 155.28 286.29Z"
fill-rule="evenodd" fill="black"/>
<path d="M155.28 286.29L157.77 288.19 155.28 282.97 155.28 286.29Z"
fill-rule="evenodd" fill="black"/>
<path d="M157.77 288.19L157.77 280.94 155.28 282.97 157.77 288.19Z"
fill-rule="evenodd" fill="black"/>
<path d="M157.77 288.19L157.89 288.28 157.77 280.94 157.77 288.19Z"
fill-rule="evenodd" fill="black"/>
<path d="M157.89 288.28L157.89 280.96 157.77 280.94 157.89 288.28Z"
fill-rule="evenodd" fill="black"/>
<path d="M157.89 288.28L160.97 287.49 157.89 280.96 157.89 288.28Z"
fill-rule="evenodd" fill="black"/>
<path d="M160.97 287.49L160.97 281.64 157.89 280.96 160.97 287.49Z"
fill-rule="evenodd" fill="black"/>
<path d="M160.97 287.49L161.06 287.47 160.97 281.64 160.97 287.49Z"
fill-rule="evenodd" fill="black"/>
<path d="M161.06 287.47L161.06 281.83 160.97 281.64 161.06 287.47Z"
fill-rule="evenodd" fill="black"/>
<path d="M161.06 287.47L162.4 284.59 161.06 281.83 161.06 287.47Z"
fill-rule="evenodd" fill="black"/>
</g>
<g><path d="M380.87 241.17L380.87 237.85 380.82 237.89 380.87 241.17Z"
fill-rule="evenodd" fill="black"/>
<path d="M380.87 241.17L383.36 243.07 380.87 237.85 380.87 241.17Z"
fill-rule="evenodd" fill="black"/>
<path d="M383.36 243.07L383.36 235.82 380.87 237.85 383.36 243.07Z"
fill-rule="evenodd" fill="black"/>
<path d="M383.36 243.07L383.47 243.16 383.36 235.82 383.36 243.07Z"
fill-rule="evenodd" fill="black"/>
<path d="M383.47 243.16L383.47 235.84 383.36 235.82 383.47 243.16Z"
fill-rule="evenodd" fill="black"/>
<path d="M383.47 243.16L386.56 242.38 383.47 235.84 383.47 243.16Z"
fill-rule="evenodd" fill="black"/>
<path d="M386.56 242.38L386.56 236.53 383.47 235.84 386.56 242.38Z"
fill-rule="evenodd" fill="black"/>
<path d="M386.56 242.38L386.65 242.35 386.56 236.53 386.56 242.38Z"
fill-rule="evenodd" fill="black"/>
<path d="M386.65 242.35L386.65 236.72 386.56 236.53 386.65 242.35Z"
fill-rule="evenodd" fill="black"/>
<path d="M386.65 242.35L387.99 239.48 386.65 236.72 386.65 242.35Z"
fill-rule="evenodd" fill="black"/>
</g>
<g><path d="M293.99 13.89L292.48 8.25M292.48 8.25L288.35 4.12M288.35 4.12L282.71 2.61M282.71 2.61L277.07 4.12M277.07 4.12L272.95 8.25M272.95 8.25L271.44 13.89"
fill="none" stroke="black" stroke-width="9"/>
</g>
<g><path d="M316.55 13.89L315.04 8.25M315.04 8.25L310.91 4.12M310.91 4.12L305.27 2.61M305.27 2.61L299.63 4.12M299.63 4.12L295.5 8.25M295.5 8.25L293.99 13.89"
fill="none" stroke="black" stroke-width="9"/>
</g>
<g><path d="M339.11 13.89L337.6 8.25M337.6 8.25L333.47 4.12M333.47 4.12L327.83 2.61M327.83 2.61L322.19 4.12M322.19 4.12L318.06 8.25M318.06 8.25L316.55 13.89"
fill="none" stroke="black" stroke-width="9"/>
</g>
<g><path d="M339.11 13.89L354.15 13.89"
fill="none" stroke="black" stroke-width="9"/>
</g>
<g><path d="M271.44 13.89L256.4 13.89"
fill="none" stroke="black" stroke-width="9"/>
</g>
<g><path d="M293.99 74.05L292.48 68.41M292.48 68.41L288.35 64.28M288.35 64.28L282.71 62.77M282.71 62.77L277.07 64.28M277.07 64.28L272.95 68.41M272.95 68.41L271.44 74.05"
fill="none" stroke="black" stroke-width="9"/>
</g>
<g><path d="M316.55 74.05L315.04 68.41M315.04 68.41L310.91 64.28M310.91 64.28L305.27 62.77M305.27 62.77L299.63 64.28M299.63 64.28L295.5 68.41M295.5 68.41L293.99 74.05"
fill="none" stroke="black" stroke-width="9"/>
</g>
<g><path d="M339.11 74.05L337.6 68.41M337.6 68.41L333.47 64.28M333.47 64.28L327.83 62.77M327.83 62.77L322.19 64.28M322.19 64.28L318.06 68.41M318.06 68.41L316.55 74.05"
fill="none" stroke="black" stroke-width="9"/>
</g>
<g><path d="M339.11 74.05L354.15 74.05"
fill="none" stroke="black" stroke-width="9"/>
</g>
<g><path d="M271.44 74.05L256.4 74.05"
fill="none" stroke="black" stroke-width="9"/>
</g>
<g><path d="M293.99 134.2L292.48 128.56M292.48 128.56L288.35 124.44M288.35 124.44L282.71 122.93M282.71 122.93L277.07 124.44M277.07 124.44L272.95 128.56M272.95 128.56L271.44 134.2"
fill="none" stroke="black" stroke-width="9"/>
</g>
<g><path d="M316.55 134.2L315.04 128.56M315.04 128.56L310.91 124.44M310.91 124.44L305.27 122.93M305.27 122.93L299.63 124.44M299.63 124.44L295.5 128.56M295.5 128.56L293.99 134.2"
fill="none" stroke="black" stroke-width="9"/>
</g>
<g><path d="M339.11 134.2L337.6 128.56M337.6 128.56L333.47 124.44M333.47 124.44L327.83 122.93M327.83 122.93L322.19 124.44M322.19 124.44L318.06 128.56M318.06 128.56L316.55 134.2"
fill="none" stroke="black" stroke-width="9"/>
</g>
<g><path d="M339.11 134.2L354.15 134.2"
fill="none" stroke="black" stroke-width="9"/>
</g>
<g><path d="M271.44 134.2L256.4 134.2"
fill="none" stroke="black" stroke-width="9"/>
</g>
<g><path d="M68.41 164.28L66.9 158.64M66.9 158.64L62.77 154.51M62.77 154.51L57.13 153M57.13 153L51.49 154.51M51.49 154.51L47.36 158.64M47.36 158.64L45.85 164.28"
fill="none" stroke="black" stroke-width="9"/>
</g>
<g><path d="M90.97 164.28L89.46 158.64M89.46 158.64L85.33 154.51M85.33 154.51L79.69 153M79.69 153L74.05 154.51M74.05 154.51L69.92 158.64M69.92 158.64L68.41 164.28"
fill="none" stroke="black" stroke-width="9"/>
</g>
<g><path d="M113.53 164.28L112.01 158.64M112.01 158.64L107.89 154.51M107.89 154.51L102.25 153M102.25 153L96.61 154.51M96.61 154.51L92.48 158.64M92.48 158.64L90.97 164.28"
fill="none" stroke="black" stroke-width="9"/>
</g>
<g><path d="M113.53 164.28L128.56 164.28"
fill="none" stroke="black" stroke-width="9"/>
</g>
<g><path d="M45.85 164.28L30.81 164.28"
fill="none" stroke="black" stroke-width="9"/>
</g>
<g><path d="M68.41 224.44L66.9 218.8M66.9 218.8L62.77 214.67M62.77 214.67L57.13 213.16M57.13 213.16L51.49 214.67M51.49 214.67L47.36 218.8M47.36 218.8L45.85 224.44"
fill="none" stroke="black" stroke-width="9"/>
</g>
<g><path d="M90.97 224.44L89.46 218.8M89.46 218.8L85.33 214.67M85.33 214.67L79.69 213.16M79.69 213.16L74.05 214.67M74.05 214.67L69.92 218.8M69.92 218.8L68.41 224.44"
fill="none" stroke="black" stroke-width="9"/>
</g>
<g><path d="M113.53 224.44L112.01 218.8M112.01 218.8L107.89 214.67M107.89 214.67L102.25 213.16M102.25 213.16L96.61 214.67M96.61 214.67L92.48 218.8M92.48 218.8L90.97 224.44"
fill="none" stroke="black" stroke-width="9"/>
</g>
<g><path d="M113.53 224.44L128.56 224.44"
fill="none" stroke="black" stroke-width="9"/>
</g>
<g><path d="M45.85 224.44L30.81 224.44"
fill="none" stroke="black" stroke-width="9"/>
</g>
<g><path d="M68.41 284.59L66.9 278.95M66.9 278.95L62.77 274.83M62.77 274.83L57.13 273.32M57.13 273.32L51.49 274.83M51.49 274.83L47.36 278.95M47.36 278.95L45.85 284.59"
fill="none" stroke="black" stroke-width="9"/>
</g>
<g><path d="M90.97 284.59L89.46 278.95M89.46 278.95L85.33 274.83M85.33 274.83L79.69 273.32M79.69 273.32L74.05 274.83M74.05 274.83L69.92 278.95M69.92 278.95L68.41 284.59"
fill="none" stroke="black" stroke-width="9"/>
</g>
<g><path d="M113.53 284.59L112.01 278.95M112.01 278.95L107.89 274.83M107.89 274.83L102.25 273.32M102.25 273.32L96.61 274.83M96.61 274.83L92.48 278.95M92.48 278.95L90.97 284.59"
fill="none" stroke="black" stroke-width="9"/>
</g>
<g><path d="M113.53 284.59L128.56 284.59"
fill="none" stroke="black" stroke-width="9"/>
</g>
<g><path d="M45.85 284.59L30.81 284.59"
fill="none" stroke="black" stroke-width="9"/>
</g>
<g><path d="M256.4 13.89L211.28 13.89"
fill="none" stroke="black" stroke-width="9"/>
</g>
<g><path d="M256.4 74.05L211.28 74.05"
fill="none" stroke="black" stroke-width="9"/>
</g>
<g><path d="M256.4 134.2L211.28 134.2"
fill="none" stroke="black" stroke-width="9"/>
</g>
<g><path d="M211.28 13.89L211.28 134.2"
fill="none" stroke="black" stroke-width="9"/>
</g>
<g><path d="M188.72 397.39L188.72 6.37"
fill="none" stroke="black" stroke-width="9"/>
</g>
<g><path d="M293.99 239.48L292.48 233.84M292.48 233.84L288.35 229.71M288.35 229.71L282.71 228.2M282.71 228.2L277.07 229.71M277.07 229.71L272.95 233.84M272.95 233.84L271.44 239.48"
fill="none" stroke="black" stroke-width="9"/>
</g>
<g><path d="M316.55 239.48L315.04 233.84M315.04 233.84L310.91 229.71M310.91 229.71L305.27 228.2M305.27 228.2L299.63 229.71M299.63 229.71L295.5 233.84M295.5 233.84L293.99 239.48"
fill="none" stroke="black" stroke-width="9"/>
</g>
<g><path d="M339.11 239.48L337.6 233.84M337.6 233.84L333.47 229.71M333.47 229.71L327.83 228.2M327.83 228.2L322.19 229.71M322.19 229.71L318.06 233.84M318.06 233.84L316.55 239.48"
fill="none" stroke="black" stroke-width="9"/>
</g>
<g><path d="M339.11 239.48L354.15 239.48"
fill="none" stroke="black" stroke-width="9"/>
</g>
<g><path d="M271.44 239.48L256.4 239.48"
fill="none" stroke="black" stroke-width="9"/>
</g>
<g><path d="M293.99 314.67L292.48 309.03M292.48 309.03L288.35 304.9M288.35 304.9L282.71 303.39M282.71 303.39L277.07 304.9M277.07 304.9L272.95 309.03M272.95 309.03L271.44 314.67"
fill="none" stroke="black" stroke-width="9"/>
</g>
<g><path d="M316.55 314.67L315.04 309.03M315.04 309.03L310.91 304.9M310.91 304.9L305.27 303.39M305.27 303.39L299.63 304.9M299.63 304.9L295.5 309.03M295.5 309.03L293.99 314.67"
fill="none" stroke="black" stroke-width="9"/>
</g>
<g><path d="M339.11 314.67L337.6 309.03M337.6 309.03L333.47 304.9M333.47 304.9L327.83 303.39M327.83 303.39L322.19 304.9M322.19 304.9L318.06 309.03M318.06 309.03L316.55 314.67"
fill="none" stroke="black" stroke-width="9"/>
</g>
<g><path d="M339.11 314.67L354.15 314.67"
fill="none" stroke="black" stroke-width="9"/>
</g>
<g><path d="M271.44 314.67L256.4 314.67"
fill="none" stroke="black" stroke-width="9"/>
</g>
<g><path d="M293.99 382.35L292.48 376.71M292.48 376.71L288.35 372.58M288.35 372.58L282.71 371.07M282.71 371.07L277.07 372.58M277.07 372.58L272.95 376.71M272.95 376.71L271.44 382.35"
fill="none" stroke="black" stroke-width="9"/>
</g>
<g><path d="M316.55 382.35L315.04 376.71M315.04 376.71L310.91 372.58M310.91 372.58L305.27 371.07M305.27 371.07L299.63 372.58M299.63 372.58L295.5 376.71M295.5 376.71L293.99 382.35"
fill="none" stroke="black" stroke-width="9"/>
</g>
<g><path d="M339.11 382.35L337.6 376.71M337.6 376.71L333.47 372.58M333.47 372.58L327.83 371.07M327.83 371.07L322.19 372.58M322.19 372.58L318.06 376.71M318.06 376.71L316.55 382.35"
fill="none" stroke="black" stroke-width="9"/>
</g>
<g><path d="M339.11 382.35L354.15 382.35"
fill="none" stroke="black" stroke-width="9"/>
</g>
<g><path d="M271.44 382.35L256.4 382.35"
fill="none" stroke="black" stroke-width="9"/>
</g>
<g><path d="M354.15 239.48L399.27 239.48"
fill="none" stroke="black" stroke-width="9"/>
</g>
<g><path d="M384.23 314.67L399.27 314.67"
fill="none" stroke="black" stroke-width="9"/>
</g>
<g><path d="M384.23 382.35L399.27 382.35"
fill="none" stroke="black" stroke-width="9"/>
</g>
<g><path d="M380.47 314.67L381.57 312.01M381.57 312.01L384.23 310.91M384.23 310.91L386.89 312.01M386.89 312.01L387.99 314.67M387.99 314.67L386.89 317.33M386.89 317.33L384.23 318.43M384.23 318.43L381.57 317.33M381.57 317.33L380.47 314.67"
fill="none" stroke="black" stroke-width="9"/>
</g>
<g><path d="M380.47 382.35L381.57 379.69M381.57 379.69L384.23 378.59M384.23 378.59L386.89 379.69M386.89 379.69L387.99 382.35M387.99 382.35L386.89 385.01M386.89 385.01L384.23 386.11M384.23 386.11L381.57 385.01M381.57 385.01L380.47 382.35"
fill="none" stroke="black" stroke-width="9"/>
</g>
<g><path d="M354.15 13.89L399.27 13.89"
fill="none" stroke="black" stroke-width="9"/>
</g>
<g><path d="M354.15 74.05L399.27 74.05"
fill="none" stroke="black" stroke-width="9"/>
</g>
<g><path d="M354.15 134.2L399.27 134.2"
fill="none" stroke="black" stroke-width="9"/>
</g>
<g><path d="M207.52 74.05L208.62 71.39M208.62 71.39L211.28 70.29M211.28 70.29L213.94 71.39M213.94 71.39L215.04 74.05M215.04 74.05L213.94 76.71M213.94 76.71L211.28 77.81M211.28 77.81L208.62 76.71M208.62 76.71L207.52 74.05"
fill="none" stroke="black" stroke-width="9"/>
</g>
<g><path d="M207.52 134.2L208.62 131.55M208.62 131.55L211.28 130.44M211.28 130.44L213.94 131.55M213.94 131.55L215.04 134.2M215.04 134.2L213.94 136.86M213.94 136.86L211.28 137.96M211.28 137.96L208.62 136.86M208.62 136.86L207.52 134.2"
fill="none" stroke="black" stroke-width="9"/>
</g>
<g><path d="M139.84 322.19L177.44 322.19"
fill="none" stroke="black" stroke-width="9"/>
</g>
<g><path d="M147.36 329.71L169.92 329.71"
fill="none" stroke="black" stroke-width="9"/>
</g>
<g><path d="M154.88 337.23L162.4 337.23"
fill="none" stroke="black" stroke-width="9"/>
</g>
<g><path d="M158.64 307.15L158.64 322.19"
fill="none" stroke="black" stroke-width="9"/>
</g>
<g><path d="M128.56 164.28L158.64 164.28"
fill="none" stroke="black" stroke-width="9"/>
</g>
<g><path d="M128.56 224.44L158.64 224.44"
fill="none" stroke="black" stroke-width="9"/>
</g>
<g><path d="M128.56 284.59L158.64 284.59"
fill="none" stroke="black" stroke-width="9"/>
</g>
<g><path d="M158.64 164.28L158.64 307.15"
fill="none" stroke="black" stroke-width="9"/>
</g>
<g><path d="M154.88 224.44L155.98 221.78M155.98 221.78L158.64 220.68M158.64 220.68L161.3 221.78M161.3 221.78L162.4 224.44M162.4 224.44L161.3 227.1M161.3 227.1L158.64 228.2M158.64 228.2L155.98 227.1M155.98 227.1L154.88 224.44"
fill="none" stroke="black" stroke-width="9"/>
</g>
<g><path d="M154.88 284.59L155.98 281.94M155.98 281.94L158.64 280.83M158.64 280.83L161.3 281.94M161.3 281.94L162.4 284.59M162.4 284.59L161.3 287.25M161.3 287.25L158.64 288.35M158.64 288.35L155.98 287.25M155.98 287.25L154.88 284.59"
fill="none" stroke="black" stroke-width="9"/>
</g>
<g><path d="M0.73 164.28L30.81 164.28"
fill="none" stroke="black" stroke-width="9"/>
</g>
<g><path d="M0.73 224.44L30.81 224.44"
fill="none" stroke="black" stroke-width="9"/>
</g>
<g><path d="M0.73 284.59L30.81 284.59"
fill="none" stroke="black" stroke-width="9"/>
</g>
<g><path d="M256.4 314.67L226.32 314.67"
fill="none" stroke="black" stroke-width="9"/>
</g>
<g><path d="M226.32 314.67L226.32 269.56"
fill="none" stroke="black" stroke-width="9"/>
</g>
<g><path d="M226.32 269.56L384.23 269.56"
fill="none" stroke="black" stroke-width="9"/>
</g>
<g><path d="M354.15 314.67L384.23 314.67"
fill="none" stroke="black" stroke-width="9"/>
</g>
<g><path d="M384.23 314.67L384.23 329.71"
fill="none" stroke="black" stroke-width="9"/>
</g>
<g><path d="M384.23 329.71L226.32 329.71"
fill="none" stroke="black" stroke-width="9"/>
</g>
<g><path d="M226.32 329.71L226.32 382.35"
fill="none" stroke="black" stroke-width="9"/>
</g>
<g><path d="M226.32 382.35L256.4 382.35"
fill="none" stroke="black" stroke-width="9"/>
</g>
<g><path d="M354.15 382.35L384.23 382.35"
fill="none" stroke="black" stroke-width="9"/>
</g>
<g><path d="M384.23 382.35L384.23 397.39"
fill="none" stroke="black" stroke-width="9"/>
</g>
<g><path d="M384.23 397.39L211.28 397.39"
fill="none" stroke="black" stroke-width="9"/>
</g>
<g><path d="M211.28 397.39L211.28 239.48"
fill="none" stroke="black" stroke-width="9"/>
</g>
<g><path d="M211.28 239.48L256.4 239.48"
fill="none" stroke="black" stroke-width="9"/>
</g>
<g><path d="M211.28 134.2L211.28 179.32"
fill="none" stroke="black" stroke-width="9"/>
</g>
<g><path d="M211.28 179.32L399.27 179.32"
fill="none" stroke="black" stroke-width="9"/>
</g>
<g><path d="M384.23 269.56L384.23 239.48"
fill="none" stroke="black" stroke-width="9"/>
</g>
<g><path d="M380.47 239.48L381.57 236.82M381.57 236.82L384.23 235.72M384.23 235.72L386.89 236.82M386.89 236.82L387.99 239.48M387.99 239.48L386.89 242.14M386.89 242.14L384.23 243.24M384.23 243.24L381.57 242.14M381.57 242.14L380.47 239.48"
fill="none" stroke="black" stroke-width="9"/>
</g>
</g>
</svg>
