<?xml version="1.0" standalone="no"?><svg xmlns="http://www.w3.org/2000/svg" width="400.000" height="400.000" viewBox="0.0 0.0 400.000 400.000" version="1.1">
  <title>Produce by Acme CAD Converter</title>
  <desc>Produce by Acme CAD Converter</desc>
<g id="0" display="visible">
<g><path d="M207.92 181.01L207.92 177.69 207.87 177.74 207.92 181.01Z"
fill-rule="evenodd" fill="black"/>
<path d="M207.92 181.01L210.41 182.92 207.92 177.69 207.92 181.01Z"
fill-rule="evenodd" fill="black"/>
<path d="M210.41 182.92L210.41 175.66 207.92 177.69 210.41 182.92Z"
fill-rule="evenodd" fill="black"/>
<path d="M210.41 182.92L210.52 183 210.41 175.66 210.41 182.92Z"
fill-rule="evenodd" fill="black"/>
<path d="M210.52 183L210.52 175.69 210.41 175.66 210.52 183Z"
fill-rule="evenodd" fill="black"/>
<path d="M210.52 183L213.61 182.22 210.52 175.69 210.52 183Z"
fill-rule="evenodd" fill="black"/>
<path d="M213.61 182.22L213.61 176.37 210.52 175.69 213.61 182.22Z"
fill-rule="evenodd" fill="black"/>
<path d="M213.61 182.22L213.7 182.2 213.61 176.37 213.61 182.22Z"
fill-rule="evenodd" fill="black"/>
<path d="M213.7 182.2L213.7 176.56 213.61 176.37 213.7 182.2Z"
fill-rule="evenodd" fill="black"/>
<path d="M213.7 182.2L215.04 179.32 213.7 176.56 213.7 182.2Z"
fill-rule="evenodd" fill="black"/>
</g>
<g><path d="M207.92 241.17L207.92 237.85 207.87 237.89 207.92 241.17Z"
fill-rule="evenodd" fill="black"/>
<path d="M207.92 241.17L210.41 243.07 207.92 237.85 207.92 241.17Z"
fill-rule="evenodd" fill="black"/>
<path d="M210.41 243.07L210.41 235.82 207.92 237.85 210.41 243.07Z"
fill-rule="evenodd" fill="black"/>
<path d="M210.41 243.07L210.52 243.16 210.41 235.82 210.41 243.07Z"
fill-rule="evenodd" fill="black"/>
<path d="M210.52 243.16L210.52 235.84 210.41 235.82 210.52 243.16Z"
fill-rule="evenodd" fill="black"/>
<path d="M210.52 243.16L213.61 242.38 210.52 235.84 210.52 243.16Z"
fill-rule="evenodd" fill="black"/>
<path d="M213.61 242.38L213.61 236.53 210.52 235.84 213.61 242.38Z"
fill-rule="evenodd" fill="black"/>
<path d="M213.61 242.38L213.7 242.35 213.61 236.53 213.61 242.38Z"
fill-rule="evenodd" fill="black"/>
<path d="M213.7 242.35L213.7 236.72 213.61 236.53 213.7 242.35Z"
fill-rule="evenodd" fill="black"/>
<path d="M213.7 242.35L215.04 239.48 213.7 236.72 213.7 242.35Z"
fill-rule="evenodd" fill="black"/>
</g>
<g><path d="M155.28 181.01L155.28 177.69 155.23 177.74 155.28 181.01Z"
fill-rule="evenodd" fill="black"/>
<path d="M155.28 181.01L157.77 182.92 155.28 177.69 155.28 181.01Z"
fill-rule="evenodd" fill="black"/>
<path d="M157.77 182.92L157.77 175.66 155.28 177.69 157.77 182.92Z"
fill-rule="evenodd" fill="black"/>
<path d="M157.77 182.92L157.89 183 157.77 175.66 157.77 182.92Z"
fill-rule="evenodd" fill="black"/>
<path d="M157.89 183L157.89 175.69 157.77 175.66 157.89 183Z"
fill-rule="evenodd" fill="black"/>
<path d="M157.89 183L160.97 182.22 157.89 175.69 157.89 183Z"
fill-rule="evenodd" fill="black"/>
<path d="M160.97 182.22L160.97 176.37 157.89 175.69 160.97 182.22Z"
fill-rule="evenodd" fill="black"/>
<path d="M160.97 182.22L161.06 182.2 160.97 176.37 160.97 182.22Z"
fill-rule="evenodd" fill="black"/>
<path d="M161.06 182.2L161.06 176.56 160.97 176.37 161.06 182.2Z"
fill-rule="evenodd" fill="black"/>
<path d="M161.06 182.2L162.4 179.32 161.06 176.56 161.06 182.2Z"
fill-rule="evenodd" fill="black"/>
</g>
<g><path d="M155.28 241.17L155.28 237.85 155.23 237.89 155.28 241.17Z"
fill-rule="evenodd" fill="black"/>
<path d="M155.28 241.17L157.77 243.07 155.28 237.85 155.28 241.17Z"
fill-rule="evenodd" fill="black"/>
<path d="M157.77 243.07L157.77 235.82 155.28 237.85 157.77 243.07Z"
fill-rule="evenodd" fill="black"/>
<path d="M157.77 243.07L157.89 243.16 157.77 235.82 157.77 243.07Z"
fill-rule="evenodd" fill="black"/>
<path d="M157.89 243.16L157.89 235.84 157.77 235.82 157.89 243.16Z"
fill-rule="evenodd" fill="black"/>
<path d="M157.89 243.16L160.97 242.38 157.89 235.84 157.89 243.16Z"
fill-rule="evenodd" fill="black"/>
<path d="M160.97 242.38L160.97 236.53 157.89 235.84 160.97 242.38Z"
fill-rule="evenodd" fill="black"/>
<path d="M160.97 242.38L161.06 242.35 160.97 236.53 160.97 242.38Z"
fill-rule="evenodd" fill="black"/>
<path d="M161.06 242.35L161.06 236.72 160.97 236.53 161.06 242.35Z"
fill-rule="evenodd" fill="black"/>
<path d="M161.06 242.35L162.4 239.48 161.06 236.72 161.06 242.35Z"
fill-rule="evenodd" fill="black"/>
</g>
<g><path d="M293.99 119.17L292.48 113.53M292.48 113.53L288.35 109.4M288.35 109.4L282.71 107.89M282.71 107.89L277.07 109.4M277.07 109.4L272.95 113.53M272.95 113.53L271.44 119.17"
fill="none" stroke="black" stroke-width="9"/>
</g>
<g><path d="M316.55 119.17L315.04 113.53M315.04 113.53L310.91 109.4M310.91 109.4L305.27 107.89M305.27 107.89L299.63 109.4M299.63 109.4L295.5 113.53M295.5 113.53L293.99 119.17"
fill="none" stroke="black" stroke-width="9"/>
</g>
<g><path d="M339.11 119.17L337.6 113.53M337.6 113.53L333.47 109.4M333.47 109.4L327.83 107.89M327.83 107.89L322.19 109.4M322.19 109.4L318.06 113.53M318.06 113.53L316.55 119.17"
fill="none" stroke="black" stroke-width="9"/>
</g>
<g><path d="M339.11 119.17L354.15 119.17"
fill="none" stroke="black" stroke-width="9"/>
</g>
<g><path d="M271.44 119.17L256.4 119.17"
fill="none" stroke="black" stroke-width="9"/>
</g>
<g><path d="M293.99 179.32L292.48 173.68M292.48 173.68L288.35 169.55M288.35 169.55L282.71 168.04M282.71 168.04L277.07 169.55M277.07 169.55L272.95 173.68M272.95 173.68L271.44 179.32"
fill="none" stroke="black" stroke-width="9"/>
</g>
<g><path d="M316.55 179.32L315.04 173.68M315.04 173.68L310.91 169.55M310.91 169.55L305.27 168.04M305.27 168.04L299.63 169.55M299.63 169.55L295.5 173.68M295.5 173.68L293.99 179.32"
fill="none" stroke="black" stroke-width="9"/>
</g>
<g><path d="M339.11 179.32L337.6 173.68M337.6 173.68L333.47 169.55M333.47 169.55L327.83 168.04M327.83 168.04L322.19 169.55M322.19 169.55L318.06 173.68M318.06 173.68L316.55 179.32"
fill="none" stroke="black" stroke-width="9"/>
</g>
<g><path d="M339.11 179.32L354.15 179.32"
fill="none" stroke="black" stroke-width="9"/>
</g>
<g><path d="M271.44 179.32L256.4 179.32"
fill="none" stroke="black" stroke-width="9"/>
</g>
<g><path d="M293.99 239.48L292.48 233.84M292.48 233.84L288.35 229.71M288.35 229.71L282.71 228.2M282.71 228.2L277.07 229.71M277.07 229.71L272.95 233.84M272.95 233.84L271.44 239.48"
fill="none" stroke="black" stroke-width="9"/>
</g>
<g><path d="M316.55 239.48L315.04 233.84M315.04 233.84L310.91 229.71M310.91 229.71L305.27 228.2M305.27 228.2L299.63 229.71M299.63 229.71L295.5 233.84M295.5 233.84L293.99 239.48"
fill="none" stroke="black" stroke-width="9"/>
</g>
<g><path d="M339.11 239.48L337.6 233.84M337.6 233.84L333.47 229.71M333.47 229.71L327.83 228.2M327.83 228.2L322.19 229.71M322.19 229.71L318.06 233.84M318.06 233.84L316.55 239.48"
fill="none" stroke="black" stroke-width="9"/>
</g>
<g><path d="M339.11 239.48L354.15 239.48"
fill="none" stroke="black" stroke-width="9"/>
</g>
<g><path d="M271.44 239.48L256.4 239.48"
fill="none" stroke="black" stroke-width="9"/>
</g>
<g><path d="M68.41 119.17L66.9 113.53M66.9 113.53L62.77 109.4M62.77 109.4L57.13 107.89M57.13 107.89L51.49 109.4M51.49 109.4L47.36 113.53M47.36 113.53L45.85 119.17"
fill="none" stroke="black" stroke-width="9"/>
</g>
<g><path d="M90.97 119.17L89.46 113.53M89.46 113.53L85.33 109.4M85.33 109.4L79.69 107.89M79.69 107.89L74.05 109.4M74.05 109.4L69.92 113.53M69.92 113.53L68.41 119.17"
fill="none" stroke="black" stroke-width="9"/>
</g>
<g><path d="M113.53 119.17L112.01 113.53M112.01 113.53L107.89 109.4M107.89 109.4L102.25 107.89M102.25 107.89L96.61 109.4M96.61 109.4L92.48 113.53M92.48 113.53L90.97 119.17"
fill="none" stroke="black" stroke-width="9"/>
</g>
<g><path d="M113.53 119.17L128.56 119.17"
fill="none" stroke="black" stroke-width="9"/>
</g>
<g><path d="M45.85 119.17L30.81 119.17"
fill="none" stroke="black" stroke-width="9"/>
</g>
<g><path d="M68.41 179.32L66.9 173.68M66.9 173.68L62.77 169.55M62.77 169.55L57.13 168.04M57.13 168.04L51.49 169.55M51.49 169.55L47.36 173.68M47.36 173.68L45.85 179.32"
fill="none" stroke="black" stroke-width="9"/>
</g>
<g><path d="M90.97 179.32L89.46 173.68M89.46 173.68L85.33 169.55M85.33 169.55L79.69 168.04M79.69 168.04L74.05 169.55M74.05 169.55L69.92 173.68M69.92 173.68L68.41 179.32"
fill="none" stroke="black" stroke-width="9"/>
</g>
<g><path d="M113.53 179.32L112.01 173.68M112.01 173.68L107.89 169.55M107.89 169.55L102.25 168.04M102.25 168.04L96.61 169.55M96.61 169.55L92.48 173.68M92.48 173.68L90.97 179.32"
fill="none" stroke="black" stroke-width="9"/>
</g>
<g><path d="M113.53 179.32L128.56 179.32"
fill="none" stroke="black" stroke-width="9"/>
</g>
<g><path d="M45.85 179.32L30.81 179.32"
fill="none" stroke="black" stroke-width="9"/>
</g>
<g><path d="M68.41 239.48L66.9 233.84M66.9 233.84L62.77 229.71M62.77 229.71L57.13 228.2M57.13 228.2L51.49 229.71M51.49 229.71L47.36 233.84M47.36 233.84L45.85 239.48"
fill="none" stroke="black" stroke-width="9"/>
</g>
<g><path d="M90.97 239.48L89.46 233.84M89.46 233.84L85.33 229.71M85.33 229.71L79.69 228.2M79.69 228.2L74.05 229.71M74.05 229.71L69.92 233.84M69.92 233.84L68.41 239.48"
fill="none" stroke="black" stroke-width="9"/>
</g>
<g><path d="M113.53 239.48L112.01 233.84M112.01 233.84L107.89 229.71M107.89 229.71L102.25 228.2M102.25 228.2L96.61 229.71M96.61 229.71L92.48 233.84M92.48 233.84L90.97 239.48"
fill="none" stroke="black" stroke-width="9"/>
</g>
<g><path d="M113.53 239.48L128.56 239.48"
fill="none" stroke="black" stroke-width="9"/>
</g>
<g><path d="M45.85 239.48L30.81 239.48"
fill="none" stroke="black" stroke-width="9"/>
</g>
<g><path d="M256.4 119.17L211.28 119.17"
fill="none" stroke="black" stroke-width="9"/>
</g>
<g><path d="M256.4 179.32L211.28 179.32"
fill="none" stroke="black" stroke-width="9"/>
</g>
<g><path d="M256.4 239.48L211.28 239.48"
fill="none" stroke="black" stroke-width="9"/>
</g>
<g><path d="M211.28 119.17L211.28 239.48"
fill="none" stroke="black" stroke-width="9"/>
</g>
<g><path d="M188.72 269.56L188.72 119.17"
fill="none" stroke="black" stroke-width="9"/>
</g>
<g><path d="M354.15 119.17L399.27 119.17"
fill="none" stroke="black" stroke-width="9"/>
</g>
<g><path d="M354.15 179.32L399.27 179.32"
fill="none" stroke="black" stroke-width="9"/>
</g>
<g><path d="M354.15 239.48L399.27 239.48"
fill="none" stroke="black" stroke-width="9"/>
</g>
<g><path d="M207.52 179.32L208.62 176.66M208.62 176.66L211.28 175.56M211.28 175.56L213.94 176.66M213.94 176.66L215.04 179.32M215.04 179.32L213.94 181.98M213.94 181.98L211.28 183.08M211.28 183.08L208.62 181.98M208.62 181.98L207.52 179.32"
fill="none" stroke="black" stroke-width="9"/>
</g>
<g><path d="M207.52 239.48L208.62 236.82M208.62 236.82L211.28 235.72M211.28 235.72L213.94 236.82M213.94 236.82L215.04 239.48M215.04 239.48L213.94 242.14M213.94 242.14L211.28 243.24M211.28 243.24L208.62 242.14M208.62 242.14L207.52 239.48"
fill="none" stroke="black" stroke-width="9"/>
</g>
<g><path d="M139.84 277.07L177.44 277.07"
fill="none" stroke="black" stroke-width="9"/>
</g>
<g><path d="M147.36 284.59L169.92 284.59"
fill="none" stroke="black" stroke-width="9"/>
</g>
<g><path d="M154.88 292.11L162.4 292.11"
fill="none" stroke="black" stroke-width="9"/>
</g>
<g><path d="M158.64 262.04L158.64 277.07"
fill="none" stroke="black" stroke-width="9"/>
</g>
<g><path d="M128.56 119.17L158.64 119.17"
fill="none" stroke="black" stroke-width="9"/>
</g>
<g><path d="M128.56 179.32L158.64 179.32"
fill="none" stroke="black" stroke-width="9"/>
</g>
<g><path d="M128.56 239.48L158.64 239.48"
fill="none" stroke="black" stroke-width="9"/>
</g>
<g><path d="M158.64 119.17L158.64 262.04"
fill="none" stroke="black" stroke-width="9"/>
</g>
<g><path d="M154.88 179.32L155.98 176.66M155.98 176.66L158.64 175.56M158.64 175.56L161.3 176.66M161.3 176.66L162.4 179.32M162.4 179.32L161.3 181.98M161.3 181.98L158.64 183.08M158.64 183.08L155.98 181.98M155.98 181.98L154.88 179.32"
fill="none" stroke="black" stroke-width="9"/>
</g>
<g><path d="M154.88 239.48L155.98 236.82M155.98 236.82L158.64 235.72M158.64 235.72L161.3 236.82M161.3 236.82L162.4 239.48M162.4 239.48L161.3 242.14M161.3 242.14L158.64 243.24M158.64 243.24L155.98 242.14M155.98 242.14L154.88 239.48"
fill="none" stroke="black" stroke-width="9"/>
</g>
<g><path d="M0.73 119.17L30.81 119.17"
fill="none" stroke="black" stroke-width="9"/>
</g>
<g><path d="M0.73 179.32L30.81 179.32"
fill="none" stroke="black" stroke-width="9"/>
</g>
<g><path d="M0.73 239.48L30.81 239.48"
fill="none" stroke="black" stroke-width="9"/>
</g>
<g><path d="M211.28 239.48L211.28 284.59"
fill="none" stroke="black" stroke-width="9"/>
</g>
<g><path d="M211.28 284.59L399.27 284.59"
fill="none" stroke="black" stroke-width="9"/>
</g>
</g>
</svg>
