<?xml version="1.0" standalone="no"?><svg xmlns="http://www.w3.org/2000/svg" width="400.000" height="400.000" viewBox="0.0 0.0 400.000 400.000" version="1.1">
  <title>Produce by Acme CAD Converter</title>
  <desc>Produce by Acme CAD Converter</desc>
<g id="0" display="visible">
<g><path d="M349.45 279.71L349.45 120.29"
fill="none" stroke="black" stroke-width="12"/>
</g>
<g><path d="M349.45 120.29L50.55 120.29"
fill="none" stroke="black" stroke-width="12"/>
</g>
<g><path d="M50.55 120.29L50.55 279.71"
fill="none" stroke="black" stroke-width="12"/>
</g>
<g><path d="M399.27 239.85L239.85 239.85"
fill="none" stroke="black" stroke-width="12"/>
</g>
<g><path d="M50.55 279.71L349.45 279.71"
fill="none" stroke="black" stroke-width="12"/>
</g>
<g><path d="M239.85 200L239.85 239.85"
fill="none" stroke="black" stroke-width="12"/>
</g>
<g><path d="M160.15 239.85L160.15 200"
fill="none" stroke="black" stroke-width="12"/>
</g>
<g><path d="M239.85 200L237.9 187.68M237.9 187.68L232.24 176.57M232.24 176.57L223.43 167.76M223.43 167.76L212.32 162.1M212.32 162.1L200 160.15M200 160.15L187.68 162.1M187.68 162.1L176.57 167.76M176.57 167.76L167.76 176.57M167.76 176.57L162.1 187.68M162.1 187.68L160.15 200"
fill="none" stroke="black" stroke-width="12"/>
</g>
<g><path d="M160.15 239.85L0.73 239.85"
fill="none" stroke="black" stroke-width="12"/>
</g>
</g>
</svg>
