<?xml version="1.0" standalone="no"?><svg xmlns="http://www.w3.org/2000/svg" width="400.000" height="400.000" viewBox="0.0 0.0 400.000 400.000" version="1.1">
  <title>Produce by Acme CAD Converter</title>
  <desc>Produce by Acme CAD Converter</desc>
<g id="0" display="visible">
<g><path d="M399.27 190.04L239.85 190.04"
fill="none" stroke="black" stroke-width="12"/>
</g>
<g><path d="M239.85 150.18L239.85 190.04"
fill="none" stroke="black" stroke-width="12"/>
</g>
<g><path d="M160.15 190.04L160.15 150.18"
fill="none" stroke="black" stroke-width="12"/>
</g>
<g><path d="M239.85 150.18L237.9 137.87M237.9 137.87L232.24 126.76M232.24 126.76L223.43 117.94M223.43 117.94L212.32 112.28M212.32 112.28L200 110.33M200 110.33L187.68 112.28M187.68 112.28L176.57 117.94M176.57 117.94L167.76 126.76M167.76 126.76L162.1 137.87M162.1 137.87L160.15 150.18"
fill="none" stroke="black" stroke-width="12"/>
</g>
<g><path d="M160.15 190.04L0.73 190.04"
fill="none" stroke="black" stroke-width="12"/>
</g>
<g><path d="M349.45 329.52L349.45 70.48"
fill="none" stroke="black" stroke-width="12"/>
</g>
<g><path d="M349.45 70.48L50.55 70.48"
fill="none" stroke="black" stroke-width="12"/>
</g>
<g><path d="M50.55 70.48L50.55 329.52"
fill="none" stroke="black" stroke-width="12"/>
</g>
<g><path d="M399.27 289.67L239.85 289.67"
fill="none" stroke="black" stroke-width="12"/>
</g>
<g><path d="M50.55 329.52L349.45 329.52"
fill="none" stroke="black" stroke-width="12"/>
</g>
<g><path d="M239.85 249.82L239.85 289.67"
fill="none" stroke="black" stroke-width="12"/>
</g>
<g><path d="M160.15 289.67L160.15 249.82"
fill="none" stroke="black" stroke-width="12"/>
</g>
<g><path d="M239.85 249.82L237.9 237.5M237.9 237.5L232.24 226.39M232.24 226.39L223.43 217.57M223.43 217.57L212.32 211.91M212.32 211.91L200 209.96M200 209.96L187.68 211.91M187.68 211.91L176.57 217.57M176.57 217.57L167.76 226.39M167.76 226.39L162.1 237.5M162.1 237.5L160.15 249.82"
fill="none" stroke="black" stroke-width="12"/>
</g>
<g><path d="M160.15 289.67L0.73 289.67"
fill="none" stroke="black" stroke-width="12"/>
</g>
</g>
</svg>
