<?xml version="1.0" standalone="no"?><svg xmlns="http://www.w3.org/2000/svg" width="400.000" height="400.000" viewBox="0.0 0.0 400.000 400.000" version="1.1">
  <title>Produce by Acme CAD Converter</title>
  <desc>Produce by Acme CAD Converter</desc>
<g id="0" display="visible">
<g><path d="M40.59 399.27L40.59 160.15"
fill="none" stroke="black" stroke-width="12"/>
</g>
<g><path d="M359.41 399.27L359.41 160.15"
fill="none" stroke="black" stroke-width="12"/>
</g>
<g><path d="M359.41 160.15L357.45 135.21M357.45 135.21L351.61 110.89M351.61 110.89L342.04 87.77M342.04 87.77L328.97 66.45M328.97 66.45L312.72 47.42M312.72 47.42L293.7 31.18M293.7 31.18L272.37 18.11M272.37 18.11L249.26 8.54M249.26 8.54L224.94 2.7M224.94 2.7L200 0.73M200 0.73L175.06 2.7M175.06 2.7L150.74 8.54M150.74 8.54L127.63 18.11M127.63 18.11L106.3 31.18M106.3 31.18L87.28 47.42M87.28 47.42L71.03 66.45M71.03 66.45L57.96 87.77M57.96 87.77L48.39 110.89M48.39 110.89L42.55 135.21M42.55 135.21L40.59 160.15"
fill="none" stroke="black" stroke-width="12"/>
</g>
</g>
</svg>
