<?xml version="1.0" standalone="no"?><svg xmlns="http://www.w3.org/2000/svg" width="400.000" height="400.000" viewBox="0.0 0.0 400.000 400.000" version="1.1">
  <title>Produce by Acme CAD Converter</title>
  <desc>Produce by Acme CAD Converter</desc>
<g id="0" display="visible">
<g><path d="M115.31 100.37L106.67 102.34M106.67 102.34L99.73 107.87M99.73 107.87L95.88 115.86M95.88 115.86L95.88 124.73M95.88 124.73L99.73 132.72M99.73 132.72L106.67 138.25M106.67 138.25L115.31 140.22"
fill="none" stroke="black" stroke-width="9"/>
</g>
<g><path d="M115.31 60.51L106.67 62.49M106.67 62.49L99.73 68.02M99.73 68.02L95.88 76.01M95.88 76.01L95.88 84.87M95.88 84.87L99.73 92.86M99.73 92.86L106.67 98.39M106.67 98.39L115.31 100.37"
fill="none" stroke="black" stroke-width="9"/>
</g>
<g><path d="M115.31 60.51L145.2 60.51"
fill="none" stroke="black" stroke-width="9"/>
</g>
<g><path d="M115.31 140.22L145.2 140.22"
fill="none" stroke="black" stroke-width="9"/>
</g>
<g><path d="M115.31 0.73L115.31 200"
fill="none" stroke="black" stroke-width="9"/>
</g>
<g><path d="M195.02 100.37L186.37 102.34M186.37 102.34L179.44 107.87M179.44 107.87L175.59 115.86M175.59 115.86L175.59 124.73M175.59 124.73L179.44 132.72M179.44 132.72L186.37 138.25M186.37 138.25L195.02 140.22"
fill="none" stroke="black" stroke-width="9"/>
</g>
<g><path d="M195.02 60.51L186.37 62.49M186.37 62.49L179.44 68.02M179.44 68.02L175.59 76.01M175.59 76.01L175.59 84.87M175.59 84.87L179.44 92.86M179.44 92.86L186.37 98.39M186.37 98.39L195.02 100.37"
fill="none" stroke="black" stroke-width="9"/>
</g>
<g><path d="M195.02 60.51L224.91 60.51"
fill="none" stroke="black" stroke-width="9"/>
</g>
<g><path d="M195.02 140.22L224.91 140.22"
fill="none" stroke="black" stroke-width="9"/>
</g>
<g><path d="M195.02 0.73L195.02 200"
fill="none" stroke="black" stroke-width="9"/>
</g>
<g><path d="M274.73 100.37L266.08 102.34M266.08 102.34L259.15 107.87M259.15 107.87L255.3 115.86M255.3 115.86L255.3 124.73M255.3 124.73L259.15 132.72M259.15 132.72L266.08 138.25M266.08 138.25L274.73 140.22"
fill="none" stroke="black" stroke-width="9"/>
</g>
<g><path d="M274.73 60.51L266.08 62.49M266.08 62.49L259.15 68.02M259.15 68.02L255.3 76.01M255.3 76.01L255.3 84.87M255.3 84.87L259.15 92.86M259.15 92.86L266.08 98.39M266.08 98.39L274.73 100.37"
fill="none" stroke="black" stroke-width="9"/>
</g>
<g><path d="M274.73 60.51L304.62 60.51"
fill="none" stroke="black" stroke-width="9"/>
</g>
<g><path d="M274.73 140.22L304.62 140.22"
fill="none" stroke="black" stroke-width="9"/>
</g>
<g><path d="M274.73 0.73L274.73 200"
fill="none" stroke="black" stroke-width="9"/>
</g>
<g><path d="M115.31 299.63L106.67 301.61M106.67 301.61L99.73 307.14M99.73 307.14L95.88 315.13M95.88 315.13L95.88 323.99M95.88 323.99L99.73 331.98M99.73 331.98L106.67 337.51M106.67 337.51L115.31 339.49"
fill="none" stroke="black" stroke-width="9"/>
</g>
<g><path d="M115.31 259.78L106.67 261.75M106.67 261.75L99.73 267.28M99.73 267.28L95.88 275.27M95.88 275.27L95.88 284.14M95.88 284.14L99.73 292.13M99.73 292.13L106.67 297.66M106.67 297.66L115.31 299.63"
fill="none" stroke="black" stroke-width="9"/>
</g>
<g><path d="M115.31 259.78L145.2 259.78"
fill="none" stroke="black" stroke-width="9"/>
</g>
<g><path d="M115.31 339.49L145.2 339.49"
fill="none" stroke="black" stroke-width="9"/>
</g>
<g><path d="M115.31 200L115.31 399.27"
fill="none" stroke="black" stroke-width="9"/>
</g>
<g><path d="M195.02 299.63L186.37 301.61M186.37 301.61L179.44 307.14M179.44 307.14L175.59 315.13M175.59 315.13L175.59 323.99M175.59 323.99L179.44 331.98M179.44 331.98L186.37 337.51M186.37 337.51L195.02 339.49"
fill="none" stroke="black" stroke-width="9"/>
</g>
<g><path d="M195.02 259.78L186.37 261.75M186.37 261.75L179.44 267.28M179.44 267.28L175.59 275.27M175.59 275.27L175.59 284.14M175.59 284.14L179.44 292.13M179.44 292.13L186.37 297.66M186.37 297.66L195.02 299.63"
fill="none" stroke="black" stroke-width="9"/>
</g>
<g><path d="M195.02 259.78L224.91 259.78"
fill="none" stroke="black" stroke-width="9"/>
</g>
<g><path d="M195.02 339.49L224.91 339.49"
fill="none" stroke="black" stroke-width="9"/>
</g>
<g><path d="M195.02 200L195.02 399.27"
fill="none" stroke="black" stroke-width="9"/>
</g>
<g><path d="M274.73 299.63L266.08 301.61M266.08 301.61L259.15 307.14M259.15 307.14L255.3 315.13M255.3 315.13L255.3 323.99M255.3 323.99L259.15 331.98M259.15 331.98L266.08 337.51M266.08 337.51L274.73 339.49"
fill="none" stroke="black" stroke-width="9"/>
</g>
<g><path d="M274.73 259.78L266.08 261.75M266.08 261.75L259.15 267.28M259.15 267.28L255.3 275.27M255.3 275.27L255.3 284.14M255.3 284.14L259.15 292.13M259.15 292.13L266.08 297.66M266.08 297.66L274.73 299.63"
fill="none" stroke="black" stroke-width="9"/>
</g>
<g><path d="M274.73 259.78L304.62 259.78"
fill="none" stroke="black" stroke-width="9"/>
</g>
<g><path d="M274.73 339.49L304.62 339.49"
fill="none" stroke="black" stroke-width="9"/>
</g>
<g><path d="M274.73 200L274.73 399.27"
fill="none" stroke="black" stroke-width="9"/>
</g>
</g>
</svg>
