<?xml version="1.0" standalone="no"?><svg xmlns="http://www.w3.org/2000/svg" width="400.000" height="400.000" viewBox="0.0 0.0 400.000 400.000" version="1.1">
  <title>Produce by Acme CAD Converter</title>
  <desc>Produce by Acme CAD Converter</desc>
<g id="0" display="visible">
<g><path d="M38.69 200L26.96 201.86M26.96 201.86L16.38 207.25M16.38 207.25L7.98 215.65M7.98 215.65L2.59 226.23M2.59 226.23L0.73 237.96M0.73 237.96L2.59 249.68M2.59 249.68L7.98 260.27M7.98 260.27L16.38 268.66M16.38 268.66L26.96 274.05M26.96 274.05L38.69 275.91"
fill="none" stroke="black" stroke-width="9"/>
</g>
<g><path d="M38.69 124.09L26.96 125.95M26.96 125.95L16.38 131.34M16.38 131.34L7.98 139.73M7.98 139.73L2.59 150.32M2.59 150.32L0.73 162.04M0.73 162.04L2.59 173.77M2.59 173.77L7.98 184.35M7.98 184.35L16.38 192.75M16.38 192.75L26.96 198.14M26.96 198.14L38.69 200"
fill="none" stroke="black" stroke-width="9"/>
</g>
<g><path d="M38.69 124.09L95.62 124.09"
fill="none" stroke="black" stroke-width="9"/>
</g>
<g><path d="M38.69 275.91L95.62 275.91"
fill="none" stroke="black" stroke-width="9"/>
</g>
<g><path d="M38.69 10.22L38.69 389.78"
fill="none" stroke="black" stroke-width="9"/>
</g>
<g><path d="M190.51 200L178.78 201.86M178.78 201.86L168.2 207.25M168.2 207.25L159.8 215.65M159.8 215.65L154.41 226.23M154.41 226.23L152.56 237.96M152.56 237.96L154.41 249.68M154.41 249.68L159.8 260.27M159.8 260.27L168.2 268.66M168.2 268.66L178.78 274.05M178.78 274.05L190.51 275.91"
fill="none" stroke="black" stroke-width="9"/>
</g>
<g><path d="M190.51 124.09L178.78 125.95M178.78 125.95L168.2 131.34M168.2 131.34L159.8 139.73M159.8 139.73L154.41 150.32M154.41 150.32L152.56 162.04M152.56 162.04L154.41 173.77M154.41 173.77L159.8 184.35M159.8 184.35L168.2 192.75M168.2 192.75L178.78 198.14M178.78 198.14L190.51 200"
fill="none" stroke="black" stroke-width="9"/>
</g>
<g><path d="M190.51 124.09L247.44 124.09"
fill="none" stroke="black" stroke-width="9"/>
</g>
<g><path d="M190.51 275.91L247.44 275.91"
fill="none" stroke="black" stroke-width="9"/>
</g>
<g><path d="M190.51 10.22L190.51 389.78"
fill="none" stroke="black" stroke-width="9"/>
</g>
<g><path d="M342.33 200L330.6 201.86M330.6 201.86L320.02 207.25M320.02 207.25L311.63 215.65M311.63 215.65L306.24 226.23M306.24 226.23L304.38 237.96M304.38 237.96L306.24 249.68M306.24 249.68L311.63 260.27M311.63 260.27L320.02 268.66M320.02 268.66L330.6 274.05M330.6 274.05L342.33 275.91"
fill="none" stroke="black" stroke-width="9"/>
</g>
<g><path d="M342.33 124.09L330.6 125.95M330.6 125.95L320.02 131.34M320.02 131.34L311.63 139.73M311.63 139.73L306.24 150.32M306.24 150.32L304.38 162.04M304.38 162.04L306.24 173.77M306.24 173.77L311.63 184.35M311.63 184.35L320.02 192.75M320.02 192.75L330.6 198.14M330.6 198.14L342.33 200"
fill="none" stroke="black" stroke-width="9"/>
</g>
<g><path d="M342.33 124.09L399.27 124.09"
fill="none" stroke="black" stroke-width="9"/>
</g>
<g><path d="M342.33 275.91L399.27 275.91"
fill="none" stroke="black" stroke-width="9"/>
</g>
<g><path d="M342.33 10.22L342.33 389.78"
fill="none" stroke="black" stroke-width="9"/>
</g>
</g>
</svg>
