<?xml version="1.0" standalone="no"?><svg xmlns="http://www.w3.org/2000/svg" width="400.000" height="400.000" viewBox="0.0 0.0 400.000 400.000" version="1.1">
  <title>Produce by Acme CAD Converter</title>
  <desc>Produce by Acme CAD Converter</desc>
<g id="0" display="visible">
<g><path d="M331.11 203.45L331.11 196.68 331 196.77 331.11 203.45Z"
fill-rule="evenodd" fill="black"/>
<path d="M331.11 203.45L336.18 207.33 331.11 196.68 331.11 203.45Z"
fill-rule="evenodd" fill="black"/>
<path d="M336.18 207.33L336.18 192.54 331.11 196.68 336.18 207.33Z"
fill-rule="evenodd" fill="black"/>
<path d="M336.18 207.33L336.42 207.51 336.18 192.54 336.18 207.33Z"
fill-rule="evenodd" fill="black"/>
<path d="M336.42 207.51L336.42 192.6 336.18 192.54 336.42 207.51Z"
fill-rule="evenodd" fill="black"/>
<path d="M336.42 207.51L342.71 205.91 336.42 192.6 336.42 207.51Z"
fill-rule="evenodd" fill="black"/>
<path d="M342.71 205.91L342.71 193.99 336.42 192.6 342.71 205.91Z"
fill-rule="evenodd" fill="black"/>
<path d="M342.71 205.91L342.89 205.86 342.71 193.99 342.71 205.91Z"
fill-rule="evenodd" fill="black"/>
<path d="M342.89 205.86L342.89 194.37 342.71 193.99 342.89 205.86Z"
fill-rule="evenodd" fill="black"/>
<path d="M342.89 205.86L345.62 200 342.89 194.37 342.89 205.86Z"
fill-rule="evenodd" fill="black"/>
</g>
<g><path d="M331.11 341.4L331.11 334.64 331 334.72 331.11 341.4Z"
fill-rule="evenodd" fill="black"/>
<path d="M331.11 341.4L336.18 345.28 331.11 334.64 331.11 341.4Z"
fill-rule="evenodd" fill="black"/>
<path d="M336.18 345.28L336.18 330.5 331.11 334.64 336.18 345.28Z"
fill-rule="evenodd" fill="black"/>
<path d="M336.18 345.28L336.42 345.46 336.18 330.5 336.18 345.28Z"
fill-rule="evenodd" fill="black"/>
<path d="M336.42 345.46L336.42 330.55 336.18 330.5 336.42 345.46Z"
fill-rule="evenodd" fill="black"/>
<path d="M336.42 345.46L342.71 343.86 336.42 330.55 336.42 345.46Z"
fill-rule="evenodd" fill="black"/>
<path d="M342.71 343.86L342.71 331.94 336.42 330.55 342.71 343.86Z"
fill-rule="evenodd" fill="black"/>
<path d="M342.71 343.86L342.89 343.82 342.71 331.94 342.71 343.86Z"
fill-rule="evenodd" fill="black"/>
<path d="M342.89 343.82L342.89 332.32 342.71 331.94 342.89 343.82Z"
fill-rule="evenodd" fill="black"/>
<path d="M342.89 343.82L345.62 337.95 342.89 332.32 342.89 343.82Z"
fill-rule="evenodd" fill="black"/>
</g>
<g><path d="M331.11 65.49L331.11 58.73 331 58.81 331.11 65.49Z"
fill-rule="evenodd" fill="black"/>
<path d="M331.11 65.49L336.18 69.38 331.11 58.73 331.11 65.49Z"
fill-rule="evenodd" fill="black"/>
<path d="M336.18 69.38L336.18 54.59 331.11 58.73 336.18 69.38Z"
fill-rule="evenodd" fill="black"/>
<path d="M336.18 69.38L336.42 69.55 336.18 54.59 336.18 69.38Z"
fill-rule="evenodd" fill="black"/>
<path d="M336.42 69.55L336.42 54.64 336.18 54.59 336.42 69.55Z"
fill-rule="evenodd" fill="black"/>
<path d="M336.42 69.55L342.71 67.96 336.42 54.64 336.42 69.55Z"
fill-rule="evenodd" fill="black"/>
<path d="M342.71 67.96L342.71 56.03 336.42 54.64 342.71 67.96Z"
fill-rule="evenodd" fill="black"/>
<path d="M342.71 67.96L342.89 67.91 342.71 56.03 342.71 67.96Z"
fill-rule="evenodd" fill="black"/>
<path d="M342.89 67.91L342.89 56.42 342.71 56.03 342.89 67.91Z"
fill-rule="evenodd" fill="black"/>
<path d="M342.89 67.91L345.62 62.05 342.89 56.42 342.89 67.91Z"
fill-rule="evenodd" fill="black"/>
</g>
<g><path d="M184.67 62.05L182.82 51.56M182.82 51.56L177.5 42.34M177.5 42.34L169.34 35.5M169.34 35.5L159.34 31.86M159.34 31.86L148.69 31.86M148.69 31.86L138.69 35.5M138.69 35.5L130.53 42.34M130.53 42.34L125.21 51.56M125.21 51.56L123.36 62.05"
fill="none" stroke="black" stroke-width="9"/>
</g>
<g><path d="M245.98 62.05L244.14 51.56M244.14 51.56L238.81 42.34M238.81 42.34L230.66 35.5M230.66 35.5L220.65 31.86M220.65 31.86L210 31.86M210 31.86L200 35.5M200 35.5L191.84 42.34M191.84 42.34L186.52 51.56M186.52 51.56L184.67 62.05"
fill="none" stroke="black" stroke-width="9"/>
</g>
<g><path d="M245.98 62.05L322.63 62.05"
fill="none" stroke="black" stroke-width="9"/>
</g>
<g><path d="M123.36 62.05L46.72 62.05"
fill="none" stroke="black" stroke-width="9"/>
</g>
<g><path d="M184.67 200L182.82 189.51M182.82 189.51L177.5 180.29M177.5 180.29L169.34 173.45M169.34 173.45L159.34 169.81M159.34 169.81L148.69 169.81M148.69 169.81L138.69 173.45M138.69 173.45L130.53 180.29M130.53 180.29L125.21 189.51M125.21 189.51L123.36 200"
fill="none" stroke="black" stroke-width="9"/>
</g>
<g><path d="M245.98 200L244.14 189.51M244.14 189.51L238.81 180.29M238.81 180.29L230.66 173.45M230.66 173.45L220.65 169.81M220.65 169.81L210 169.81M210 169.81L200 173.45M200 173.45L191.84 180.29M191.84 180.29L186.52 189.51M186.52 189.51L184.67 200"
fill="none" stroke="black" stroke-width="9"/>
</g>
<g><path d="M245.98 200L322.63 200"
fill="none" stroke="black" stroke-width="9"/>
</g>
<g><path d="M123.36 200L46.72 200"
fill="none" stroke="black" stroke-width="9"/>
</g>
<g><path d="M184.67 337.95L182.82 327.47M182.82 327.47L177.5 318.25M177.5 318.25L169.34 311.4M169.34 311.4L159.34 307.76M159.34 307.76L148.69 307.76M148.69 307.76L138.69 311.4M138.69 311.4L130.53 318.25M130.53 318.25L125.21 327.47M125.21 327.47L123.36 337.95"
fill="none" stroke="black" stroke-width="9"/>
</g>
<g><path d="M245.98 337.95L244.14 327.47M244.14 327.47L238.81 318.25M238.81 318.25L230.66 311.4M230.66 311.4L220.65 307.76M220.65 307.76L210 307.76M210 307.76L200 311.4M200 311.4L191.84 318.25M191.84 318.25L186.52 327.47M186.52 327.47L184.67 337.95"
fill="none" stroke="black" stroke-width="9"/>
</g>
<g><path d="M245.98 337.95L322.63 337.95"
fill="none" stroke="black" stroke-width="9"/>
</g>
<g><path d="M123.36 337.95L46.72 337.95"
fill="none" stroke="black" stroke-width="9"/>
</g>
<g><path d="M330.29 200L332.08 195.07M332.08 195.07L336.62 192.45M336.62 192.45L341.79 193.36M341.79 193.36L345.16 197.38M345.16 197.38L345.16 202.62M345.16 202.62L341.79 206.64M341.79 206.64L336.62 207.55M336.62 207.55L332.08 204.93M332.08 204.93L330.29 200"
fill="none" stroke="black" stroke-width="9"/>
</g>
<g><path d="M330.29 337.95L332.08 333.03M332.08 333.03L336.62 330.41M336.62 330.41L341.79 331.32M341.79 331.32L345.16 335.33M345.16 335.33L345.16 340.58M345.16 340.58L341.79 344.59M341.79 344.59L336.62 345.5M336.62 345.5L332.08 342.88M332.08 342.88L330.29 337.95"
fill="none" stroke="black" stroke-width="9"/>
</g>
<g><path d="M330.29 62.05L332.08 57.12M332.08 57.12L336.62 54.5M336.62 54.5L341.79 55.41M341.79 55.41L345.16 59.42M345.16 59.42L345.16 64.67M345.16 64.67L341.79 68.68M341.79 68.68L336.62 69.59M336.62 69.59L332.08 66.97M332.08 66.97L330.29 62.05"
fill="none" stroke="black" stroke-width="9"/>
</g>
<g><path d="M322.63 62.05L330.29 62.05"
fill="none" stroke="black" stroke-width="9"/>
</g>
<g><path d="M322.63 200L330.29 200"
fill="none" stroke="black" stroke-width="9"/>
</g>
<g><path d="M322.63 337.95L330.29 337.95"
fill="none" stroke="black" stroke-width="9"/>
</g>
<g><path d="M46.72 337.95L31.39 337.95"
fill="none" stroke="black" stroke-width="9"/>
</g>
<g><path d="M46.72 200L31.39 200"
fill="none" stroke="black" stroke-width="9"/>
</g>
<g><path d="M345.62 62.05L399.27 62.05"
fill="none" stroke="black" stroke-width="9"/>
</g>
<g><path d="M345.62 200L399.27 200"
fill="none" stroke="black" stroke-width="9"/>
</g>
<g><path d="M345.62 337.95L399.27 337.95"
fill="none" stroke="black" stroke-width="9"/>
</g>
<g><path d="M337.95 69.71L337.95 92.7"
fill="none" stroke="black" stroke-width="9"/>
</g>
<g><path d="M337.95 92.7L31.39 92.7"
fill="none" stroke="black" stroke-width="9"/>
</g>
<g><path d="M31.39 92.7L31.39 200"
fill="none" stroke="black" stroke-width="9"/>
</g>
<g><path d="M337.95 207.66L337.95 230.66"
fill="none" stroke="black" stroke-width="9"/>
</g>
<g><path d="M337.95 230.66L31.39 230.66"
fill="none" stroke="black" stroke-width="9"/>
</g>
<g><path d="M31.39 230.66L31.39 337.95"
fill="none" stroke="black" stroke-width="9"/>
</g>
<g><path d="M337.95 345.62L337.95 368.61"
fill="none" stroke="black" stroke-width="9"/>
</g>
<g><path d="M337.95 368.61L0.73 368.61"
fill="none" stroke="black" stroke-width="9"/>
</g>
<g><path d="M0.73 368.61L0.73 62.05"
fill="none" stroke="black" stroke-width="9"/>
</g>
<g><path d="M0.73 62.05L46.72 62.05"
fill="none" stroke="black" stroke-width="9"/>
</g>
</g>
</svg>
