<?xml version="1.0" standalone="no"?><svg xmlns="http://www.w3.org/2000/svg" width="400.000" height="400.000" viewBox="0.0 0.0 400.000 400.000" version="1.1">
  <title>Produce by Acme CAD Converter</title>
  <desc>Produce by Acme CAD Converter</desc>
<g id="0" display="visible">
<g><path d="M80.49 127.51L80.49 121.44 80.39 121.52 80.49 127.51Z"
fill-rule="evenodd" fill="black"/>
<path d="M80.49 127.51L85.04 130.99 80.49 121.44 80.49 127.51Z"
fill-rule="evenodd" fill="black"/>
<path d="M85.04 130.99L85.04 117.73 80.49 121.44 85.04 130.99Z"
fill-rule="evenodd" fill="black"/>
<path d="M85.04 130.99L85.24 131.15 85.04 117.73 85.04 130.99Z"
fill-rule="evenodd" fill="black"/>
<path d="M85.24 131.15L85.24 117.78 85.04 117.73 85.24 131.15Z"
fill-rule="evenodd" fill="black"/>
<path d="M85.24 131.15L90.88 129.71 85.24 117.78 85.24 131.15Z"
fill-rule="evenodd" fill="black"/>
<path d="M90.88 129.71L90.88 119.02 85.24 117.78 90.88 129.71Z"
fill-rule="evenodd" fill="black"/>
<path d="M90.88 129.71L91.05 129.67 90.88 119.02 90.88 129.71Z"
fill-rule="evenodd" fill="black"/>
<path d="M91.05 129.67L91.05 119.37 90.88 119.02 91.05 129.67Z"
fill-rule="evenodd" fill="black"/>
<path d="M91.05 129.67L93.5 124.42 91.05 119.37 91.05 129.67Z"
fill-rule="evenodd" fill="black"/>
</g>
<g><path d="M80.49 223.7L80.49 217.64 80.39 217.72 80.49 223.7Z"
fill-rule="evenodd" fill="black"/>
<path d="M80.49 223.7L85.04 227.19 80.49 217.64 80.49 223.7Z"
fill-rule="evenodd" fill="black"/>
<path d="M85.04 227.19L85.04 213.93 80.49 217.64 85.04 227.19Z"
fill-rule="evenodd" fill="black"/>
<path d="M85.04 227.19L85.24 227.35 85.04 213.93 85.04 227.19Z"
fill-rule="evenodd" fill="black"/>
<path d="M85.24 227.35L85.24 213.97 85.04 213.93 85.24 227.35Z"
fill-rule="evenodd" fill="black"/>
<path d="M85.24 227.35L90.88 225.91 85.24 213.97 85.24 227.35Z"
fill-rule="evenodd" fill="black"/>
<path d="M90.88 225.91L90.88 215.22 85.24 213.97 90.88 225.91Z"
fill-rule="evenodd" fill="black"/>
<path d="M90.88 225.91L91.05 225.87 90.88 215.22 90.88 225.91Z"
fill-rule="evenodd" fill="black"/>
<path d="M91.05 225.87L91.05 215.57 90.88 215.22 91.05 225.87Z"
fill-rule="evenodd" fill="black"/>
<path d="M91.05 225.87L93.5 220.61 91.05 215.57 91.05 225.87Z"
fill-rule="evenodd" fill="black"/>
</g>
<g><path d="M80.49 292.42L80.49 286.35 80.39 286.43 80.49 292.42Z"
fill-rule="evenodd" fill="black"/>
<path d="M80.49 292.42L85.04 295.9 80.49 286.35 80.49 292.42Z"
fill-rule="evenodd" fill="black"/>
<path d="M85.04 295.9L85.04 282.64 80.49 286.35 85.04 295.9Z"
fill-rule="evenodd" fill="black"/>
<path d="M85.04 295.9L85.24 296.06 85.04 282.64 85.04 295.9Z"
fill-rule="evenodd" fill="black"/>
<path d="M85.24 296.06L85.24 282.69 85.04 282.64 85.24 296.06Z"
fill-rule="evenodd" fill="black"/>
<path d="M85.24 296.06L90.88 294.62 85.24 282.69 85.24 296.06Z"
fill-rule="evenodd" fill="black"/>
<path d="M90.88 294.62L90.88 283.94 85.24 282.69 90.88 294.62Z"
fill-rule="evenodd" fill="black"/>
<path d="M90.88 294.62L91.05 294.58 90.88 283.94 90.88 294.62Z"
fill-rule="evenodd" fill="black"/>
<path d="M91.05 294.58L91.05 284.28 90.88 283.94 91.05 294.58Z"
fill-rule="evenodd" fill="black"/>
<path d="M91.05 294.58L93.5 289.33 91.05 284.28 91.05 294.58Z"
fill-rule="evenodd" fill="black"/>
</g>
<g><path d="M224.05 28.22L222.39 18.82M222.39 18.82L217.62 10.55M217.62 10.55L210.31 4.42M210.31 4.42L201.34 1.15M201.34 1.15L191.79 1.15M191.79 1.15L182.82 4.42M182.82 4.42L175.51 10.55M175.51 10.55L170.74 18.82M170.74 18.82L169.08 28.22"
fill="none" stroke="black" stroke-width="9"/>
</g>
<g><path d="M279.02 28.22L277.36 18.82M277.36 18.82L272.59 10.55M272.59 10.55L265.28 4.42M265.28 4.42L256.31 1.15M256.31 1.15L246.76 1.15M246.76 1.15L237.79 4.42M237.79 4.42L230.48 10.55M230.48 10.55L225.71 18.82M225.71 18.82L224.05 28.22"
fill="none" stroke="black" stroke-width="9"/>
</g>
<g><path d="M279.02 28.22L347.73 28.22"
fill="none" stroke="black" stroke-width="9"/>
</g>
<g><path d="M169.08 28.22L100.37 28.22"
fill="none" stroke="black" stroke-width="9"/>
</g>
<g><path d="M224.05 124.42L222.39 115.02M222.39 115.02L217.62 106.75M217.62 106.75L210.31 100.61M210.31 100.61L201.34 97.35M201.34 97.35L191.79 97.35M191.79 97.35L182.82 100.61M182.82 100.61L175.51 106.75M175.51 106.75L170.74 115.02M170.74 115.02L169.08 124.42"
fill="none" stroke="black" stroke-width="9"/>
</g>
<g><path d="M279.02 124.42L277.36 115.02M277.36 115.02L272.59 106.75M272.59 106.75L265.28 100.61M265.28 100.61L256.31 97.35M256.31 97.35L246.76 97.35M246.76 97.35L237.79 100.61M237.79 100.61L230.48 106.75M230.48 106.75L225.71 115.02M225.71 115.02L224.05 124.42"
fill="none" stroke="black" stroke-width="9"/>
</g>
<g><path d="M279.02 124.42L347.73 124.42"
fill="none" stroke="black" stroke-width="9"/>
</g>
<g><path d="M169.08 124.42L100.37 124.42"
fill="none" stroke="black" stroke-width="9"/>
</g>
<g><path d="M224.05 220.61L222.39 211.21M222.39 211.21L217.62 202.95M217.62 202.95L210.31 196.81M210.31 196.81L201.34 193.55M201.34 193.55L191.79 193.55M191.79 193.55L182.82 196.81M182.82 196.81L175.51 202.95M175.51 202.95L170.74 211.21M170.74 211.21L169.08 220.61"
fill="none" stroke="black" stroke-width="9"/>
</g>
<g><path d="M279.02 220.61L277.36 211.21M277.36 211.21L272.59 202.95M272.59 202.95L265.28 196.81M265.28 196.81L256.31 193.55M256.31 193.55L246.76 193.55M246.76 193.55L237.79 196.81M237.79 196.81L230.48 202.95M230.48 202.95L225.71 211.21M225.71 211.21L224.05 220.61"
fill="none" stroke="black" stroke-width="9"/>
</g>
<g><path d="M279.02 220.61L347.73 220.61"
fill="none" stroke="black" stroke-width="9"/>
</g>
<g><path d="M169.08 220.61L100.37 220.61"
fill="none" stroke="black" stroke-width="9"/>
</g>
<g><path d="M79.75 124.42L81.36 120M81.36 120L85.43 117.65M85.43 117.65L90.06 118.47M90.06 118.47L93.08 122.07M93.08 122.07L93.08 126.77M93.08 126.77L90.06 130.37M90.06 130.37L85.43 131.18M85.43 131.18L81.36 128.83M81.36 128.83L79.75 124.42"
fill="none" stroke="black" stroke-width="9"/>
</g>
<g><path d="M100.37 124.42L93.5 124.42"
fill="none" stroke="black" stroke-width="9"/>
</g>
<g><path d="M79.75 220.61L81.36 216.2M81.36 216.2L85.43 213.85M85.43 213.85L90.06 214.66M90.06 214.66L93.08 218.26M93.08 218.26L93.08 222.96M93.08 222.96L90.06 226.56M90.06 226.56L85.43 227.38M85.43 227.38L81.36 225.03M81.36 225.03L79.75 220.61"
fill="none" stroke="black" stroke-width="9"/>
</g>
<g><path d="M86.62 131.29L86.62 213.74"
fill="none" stroke="black" stroke-width="9"/>
</g>
<g><path d="M100.37 220.61L93.5 220.61"
fill="none" stroke="black" stroke-width="9"/>
</g>
<g><path d="M79.75 289.33L81.36 284.91M81.36 284.91L85.43 282.56M85.43 282.56L90.06 283.38M90.06 283.38L93.08 286.98M93.08 286.98L93.08 291.68M93.08 291.68L90.06 295.28M90.06 295.28L85.43 296.09M85.43 296.09L81.36 293.74M81.36 293.74L79.75 289.33"
fill="none" stroke="black" stroke-width="9"/>
</g>
<g><path d="M86.62 227.49L86.62 282.46"
fill="none" stroke="black" stroke-width="9"/>
</g>
<g><path d="M93.5 289.33L347.73 289.33"
fill="none" stroke="black" stroke-width="9"/>
</g>
<g><path d="M52.27 371.78L120.98 371.78"
fill="none" stroke="black" stroke-width="9"/>
</g>
<g><path d="M66.01 385.52L107.24 385.52"
fill="none" stroke="black" stroke-width="9"/>
</g>
<g><path d="M79.75 399.27L93.5 399.27"
fill="none" stroke="black" stroke-width="9"/>
</g>
<g><path d="M86.62 344.3L86.62 371.78"
fill="none" stroke="black" stroke-width="9"/>
</g>
<g><path d="M86.62 296.2L86.62 344.3"
fill="none" stroke="black" stroke-width="9"/>
</g>
<g><path d="M100.37 28.22L86.62 28.22"
fill="none" stroke="black" stroke-width="9"/>
</g>
<g><path d="M86.62 28.22L86.62 117.54"
fill="none" stroke="black" stroke-width="9"/>
</g>
</g>
</svg>
