<?xml version="1.0" standalone="no"?><svg xmlns="http://www.w3.org/2000/svg" width="400.000" height="400.000" viewBox="0.0 0.0 400.000 400.000" version="1.1">
  <title>Produce by Acme CAD Converter</title>
  <desc>Produce by Acme CAD Converter</desc>
<g id="0" display="visible">
<g><path d="M228.8 281.09L278.33 324.87"
fill="none" stroke="black" stroke-width="12"/>
</g>
<g><path d="M278.33 324.87L213.71 311.48"
fill="none" stroke="black" stroke-width="12"/>
</g>
<g><path d="M150.79 91.07L60.46 0.73"
fill="none" stroke="black" stroke-width="12"/>
</g>
<g><path d="M150.79 91.07L117.64 33.89"
fill="none" stroke="black" stroke-width="12"/>
</g>
<g><path d="M150.79 91.07L93.62 57.91"
fill="none" stroke="black" stroke-width="12"/>
</g>
<g><path d="M105.73 136.13L15.4 45.79"
fill="none" stroke="black" stroke-width="12"/>
</g>
<g><path d="M105.73 136.13L72.58 78.95"
fill="none" stroke="black" stroke-width="12"/>
</g>
<g><path d="M105.73 136.13L48.56 103.18"
fill="none" stroke="black" stroke-width="12"/>
</g>
<g><path d="M150.79 133.58L278.33 133.58"
fill="none" stroke="black" stroke-width="12"/>
</g>
<g><path d="M278.33 346.13L297.85 344.32M297.85 344.32L316.72 338.95M316.72 338.95L334.27 330.21M334.27 330.21L349.92 318.39M349.92 318.39L363.13 303.9M363.13 303.9L373.46 287.22M373.46 287.22L380.54 268.94M380.54 268.94L384.15 249.66M384.15 249.66L384.15 230.05M384.15 230.05L380.54 210.77M380.54 210.77L373.46 192.48M373.46 192.48L363.13 175.81M363.13 175.81L349.92 161.31M349.92 161.31L334.27 149.5M334.27 149.5L316.72 140.75M316.72 140.75L297.85 135.39M297.85 135.39L278.33 133.58"
fill="none" stroke="black" stroke-width="12"/>
</g>
<g><path d="M278.33 346.13L150.79 346.13"
fill="none" stroke="black" stroke-width="12"/>
</g>
<g><path d="M278.33 399.27L278.33 324.87"
fill="none" stroke="black" stroke-width="12"/>
</g>
<g><path d="M278.33 324.87L172.05 271.74"
fill="none" stroke="black" stroke-width="12"/>
</g>
<g><path d="M172.05 303.62L172.05 176.09"
fill="none" stroke="black" stroke-width="12"/>
</g>
<g><path d="M172.05 207.97L278.33 154.83"
fill="none" stroke="black" stroke-width="12"/>
</g>
<g><path d="M278.33 154.83L278.33 80.44"
fill="none" stroke="black" stroke-width="12"/>
</g>
<g><path d="M278.33 80.44L278.33 80.44"
fill="none" stroke="black" stroke-width=".5"/>
</g>
<g><path d="M278.33 399.27L278.33 399.27"
fill="none" stroke="black" stroke-width=".5"/>
</g>
</g>
</svg>
