<?xml version="1.0" standalone="no"?><svg xmlns="http://www.w3.org/2000/svg" width="400.000" height="400.000" viewBox="0.0 0.0 400.000 400.000" version="1.1">
  <title>Produce by Acme CAD Converter</title>
  <desc>Produce by Acme CAD Converter</desc>
<g id="0" display="visible">
<g><path d="M266.42 155.72L399.27 155.72"
fill="none" stroke="black" stroke-width="12"/>
</g>
<g><path d="M332.84 138.01L399.27 155.72"
fill="none" stroke="black" stroke-width="12"/>
</g>
<g><path d="M399.27 155.72L332.84 173.43"
fill="none" stroke="black" stroke-width="12"/>
</g>
<g><path d="M332.84 204.43L399.27 222.14"
fill="none" stroke="black" stroke-width="12"/>
</g>
<g><path d="M399.27 222.14L332.84 239.85"
fill="none" stroke="black" stroke-width="12"/>
</g>
<g><path d="M399.27 222.14L266.42 222.14"
fill="none" stroke="black" stroke-width="12"/>
</g>
<g><path d="M200 89.3L111.44 89.3"
fill="none" stroke="black" stroke-width="12"/>
</g>
<g><path d="M111.44 89.3L91.1 91.18M91.1 91.18L71.45 96.77M71.45 96.77L53.16 105.88M53.16 105.88L36.86 118.19M36.86 118.19L23.09 133.29M23.09 133.29L12.34 150.66M12.34 150.66L4.96 169.7M4.96 169.7L1.21 189.79M1.21 189.79L1.21 210.21M1.21 210.21L4.96 230.3M4.96 230.3L12.34 249.34M12.34 249.34L23.09 266.71M23.09 266.71L36.86 281.81M36.86 281.81L53.16 294.12M53.16 294.12L71.45 303.23M71.45 303.23L91.1 308.82M91.1 308.82L111.44 310.7"
fill="none" stroke="black" stroke-width="12"/>
</g>
<g><path d="M111.44 310.7L200 310.7"
fill="none" stroke="black" stroke-width="12"/>
</g>
<g><path d="M67.16 155.72L155.72 155.72"
fill="none" stroke="black" stroke-width="12"/>
</g>
<g><path d="M155.72 244.28L67.16 244.28"
fill="none" stroke="black" stroke-width="12"/>
</g>
<g><path d="M111.44 244.28L67.16 155.72"
fill="none" stroke="black" stroke-width="12"/>
</g>
<g><path d="M155.72 155.72L111.44 244.28"
fill="none" stroke="black" stroke-width="12"/>
</g>
<g><path d="M111.44 366.06L111.44 33.94"
fill="none" stroke="black" stroke-width="12"/>
</g>
</g>
</svg>
