<?xml version="1.0" standalone="no"?><svg xmlns="http://www.w3.org/2000/svg" width="400.000" height="400.000" viewBox="0.0 0.0 400.000 400.000" version="1.1">
  <title>Produce by Acme CAD Converter</title>
  <desc>Produce by Acme CAD Converter</desc>
<g id="0" display="visible">
<g><path d="M303.07 62.57L303.07 131.29"
fill="none" stroke="black" stroke-width="12"/>
</g>
<g><path d="M275.58 131.29L330.55 131.29"
fill="none" stroke="black" stroke-width="12"/>
</g>
<g><path d="M330.55 131.29L330.55 268.71"
fill="none" stroke="black" stroke-width="12"/>
</g>
<g><path d="M330.55 268.71L275.58 268.71"
fill="none" stroke="black" stroke-width="12"/>
</g>
<g><path d="M275.58 268.71L275.58 131.29"
fill="none" stroke="black" stroke-width="12"/>
</g>
<g><path d="M303.07 337.43L303.07 268.71"
fill="none" stroke="black" stroke-width="12"/>
</g>
<g><path d="M303.07 296.2L321.84 294.35M321.84 294.35L339.88 288.88M339.88 288.88L356.51 279.99M356.51 279.99L371.09 268.02M371.09 268.02L383.05 253.44M383.05 253.44L391.94 236.81M391.94 236.81L397.42 218.77M397.42 218.77L399.27 200M399.27 200L397.42 181.23M397.42 181.23L391.94 163.19M391.94 163.19L383.05 146.56M383.05 146.56L371.09 131.98M371.09 131.98L356.51 120.01M356.51 120.01L339.88 111.12M339.88 111.12L321.84 105.65M321.84 105.65L303.07 103.8"
fill="none" stroke="black" stroke-width="12"/>
</g>
<g><path d="M303.07 103.8L96.93 103.8"
fill="none" stroke="black" stroke-width="12"/>
</g>
<g><path d="M96.93 103.8L78.16 105.65M78.16 105.65L60.12 111.12M60.12 111.12L43.49 120.01M43.49 120.01L28.91 131.98M28.91 131.98L16.95 146.56M16.95 146.56L8.06 163.19M8.06 163.19L2.58 181.23M2.58 181.23L0.73 200M0.73 200L2.58 218.77M2.58 218.77L8.06 236.81M8.06 236.81L16.95 253.44M16.95 253.44L28.91 268.02M28.91 268.02L43.49 279.99M43.49 279.99L60.12 288.88M60.12 288.88L78.16 294.35M78.16 294.35L96.93 296.2"
fill="none" stroke="black" stroke-width="12"/>
</g>
<g><path d="M96.93 296.2L303.07 296.2"
fill="none" stroke="black" stroke-width="12"/>
</g>
<g><path d="M158.77 179.39L241.23 179.39"
fill="none" stroke="black" stroke-width="12"/>
</g>
<g><path d="M200 168.39L241.23 179.39"
fill="none" stroke="black" stroke-width="12"/>
</g>
<g><path d="M241.23 179.39L200 190.38"
fill="none" stroke="black" stroke-width="12"/>
</g>
<g><path d="M200 209.62L241.23 220.61"
fill="none" stroke="black" stroke-width="12"/>
</g>
<g><path d="M241.23 220.61L200 231.61"
fill="none" stroke="black" stroke-width="12"/>
</g>
<g><path d="M241.23 220.61L158.77 220.61"
fill="none" stroke="black" stroke-width="12"/>
</g>
<g><path d="M69.45 172.51L124.42 172.51"
fill="none" stroke="black" stroke-width="12"/>
</g>
<g><path d="M124.42 227.49L69.45 227.49"
fill="none" stroke="black" stroke-width="12"/>
</g>
<g><path d="M96.93 227.49L69.45 172.51"
fill="none" stroke="black" stroke-width="12"/>
</g>
<g><path d="M124.42 172.51L96.93 227.49"
fill="none" stroke="black" stroke-width="12"/>
</g>
<g><path d="M96.93 337.43L96.93 62.57"
fill="none" stroke="black" stroke-width="12"/>
</g>
<g><path d="M96.93 62.57L96.93 62.57"
fill="none" stroke="black" stroke-width=".5"/>
</g>
<g><path d="M96.93 337.43L96.93 337.43"
fill="none" stroke="black" stroke-width=".5"/>
</g>
<g><path d="M303.07 62.57L303.07 62.57"
fill="none" stroke="black" stroke-width=".5"/>
</g>
<g><path d="M303.07 337.43L303.07 337.43"
fill="none" stroke="black" stroke-width=".5"/>
</g>
</g>
</svg>
