<?xml version="1.0" standalone="no"?><svg xmlns="http://www.w3.org/2000/svg" width="400.000" height="400.000" viewBox="0.0 0.0 400.000 400.000" version="1.1">
  <title>Produce by Acme CAD Converter</title>
  <desc>Produce by Acme CAD Converter</desc>
<g id="0" display="visible">
<g><path d="M303.07 303.07L303.07 227.49"
fill="none" stroke="black" stroke-width="12"/>
</g>
<g><path d="M248.1 227.49L358.04 227.49"
fill="none" stroke="black" stroke-width="12"/>
</g>
<g><path d="M358.04 227.49L330.55 172.51"
fill="none" stroke="black" stroke-width="12"/>
</g>
<g><path d="M330.55 172.51L303.07 227.49"
fill="none" stroke="black" stroke-width="12"/>
</g>
<g><path d="M303.07 172.51L275.58 227.49"
fill="none" stroke="black" stroke-width="12"/>
</g>
<g><path d="M275.58 227.49L248.1 172.51"
fill="none" stroke="black" stroke-width="12"/>
</g>
<g><path d="M248.1 172.51L358.04 172.51"
fill="none" stroke="black" stroke-width="12"/>
</g>
<g><path d="M303.07 172.51L303.07 96.93"
fill="none" stroke="black" stroke-width="12"/>
</g>
<g><path d="M330.55 268.71L345.84 266.99M345.84 266.99L360.37 261.91M360.37 261.91L373.4 253.72M373.4 253.72L384.28 242.84M384.28 242.84L392.46 229.81M392.46 229.81L397.54 215.29M397.54 215.29L399.27 200M399.27 200L397.54 184.71M397.54 184.71L392.46 170.19M392.46 170.19L384.28 157.16M384.28 157.16L373.4 146.28M373.4 146.28L360.37 138.09M360.37 138.09L345.84 133.01M345.84 133.01L330.55 131.29"
fill="none" stroke="black" stroke-width="12"/>
</g>
<g><path d="M330.55 131.29L69.45 131.29"
fill="none" stroke="black" stroke-width="12"/>
</g>
<g><path d="M69.45 131.29L54.16 133.01M54.16 133.01L39.63 138.09M39.63 138.09L26.6 146.28M26.6 146.28L15.72 157.16M15.72 157.16L7.54 170.19M7.54 170.19L2.46 184.71M2.46 184.71L0.73 200M0.73 200L2.46 215.29M2.46 215.29L7.54 229.81M7.54 229.81L15.72 242.84M15.72 242.84L26.6 253.72M26.6 253.72L39.63 261.91M39.63 261.91L54.16 266.99M54.16 266.99L69.45 268.71"
fill="none" stroke="black" stroke-width="12"/>
</g>
<g><path d="M69.45 268.71L330.55 268.71"
fill="none" stroke="black" stroke-width="12"/>
</g>
<g><path d="M131.29 179.39L213.74 179.39"
fill="none" stroke="black" stroke-width="12"/>
</g>
<g><path d="M172.51 168.39L213.74 179.39"
fill="none" stroke="black" stroke-width="12"/>
</g>
<g><path d="M213.74 179.39L172.51 190.38"
fill="none" stroke="black" stroke-width="12"/>
</g>
<g><path d="M172.51 209.62L213.74 220.61"
fill="none" stroke="black" stroke-width="12"/>
</g>
<g><path d="M213.74 220.61L172.51 231.61"
fill="none" stroke="black" stroke-width="12"/>
</g>
<g><path d="M213.74 220.61L131.29 220.61"
fill="none" stroke="black" stroke-width="12"/>
</g>
<g><path d="M41.96 172.51L96.93 172.51"
fill="none" stroke="black" stroke-width="12"/>
</g>
<g><path d="M96.93 227.49L41.96 227.49"
fill="none" stroke="black" stroke-width="12"/>
</g>
<g><path d="M69.45 227.49L41.96 172.51"
fill="none" stroke="black" stroke-width="12"/>
</g>
<g><path d="M96.93 172.51L69.45 227.49"
fill="none" stroke="black" stroke-width="12"/>
</g>
<g><path d="M69.45 303.07L69.45 96.93"
fill="none" stroke="black" stroke-width="12"/>
</g>
<g><path d="M69.45 96.93L69.45 96.93"
fill="none" stroke="black" stroke-width=".5"/>
</g>
<g><path d="M69.45 303.07L69.45 303.07"
fill="none" stroke="black" stroke-width=".5"/>
</g>
<g><path d="M303.07 96.93L303.07 96.93"
fill="none" stroke="black" stroke-width=".5"/>
</g>
<g><path d="M303.07 303.07L303.07 303.07"
fill="none" stroke="black" stroke-width=".5"/>
</g>
</g>
</svg>
