<?xml version="1.0" standalone="no"?><svg xmlns="http://www.w3.org/2000/svg" width="400.000" height="400.000" viewBox="0.0 0.0 400.000 400.000" version="1.1">
  <title>Produce by Acme CAD Converter</title>
  <desc>Produce by Acme CAD Converter</desc>
<g id="0" display="visible">
<g><path d="M336.14 233.96L287.68 223.91"
fill="none" stroke="black" stroke-width="12"/>
</g>
<g><path d="M287.68 223.91L324.82 256.75"
fill="none" stroke="black" stroke-width="12"/>
</g>
<g><path d="M367.38 319.56L367.38 263.77"
fill="none" stroke="black" stroke-width="12"/>
</g>
<g><path d="M367.38 263.77L287.68 223.91"
fill="none" stroke="black" stroke-width="12"/>
</g>
<g><path d="M287.68 247.82L287.68 152.18"
fill="none" stroke="black" stroke-width="12"/>
</g>
<g><path d="M287.68 176.09L367.38 136.23"
fill="none" stroke="black" stroke-width="12"/>
</g>
<g><path d="M367.38 136.23L367.38 80.44"
fill="none" stroke="black" stroke-width="12"/>
</g>
<g><path d="M319.56 279.71L336.13 277.96M336.13 277.96L351.98 272.82M351.98 272.82L366.41 264.48M366.41 264.48L378.79 253.33M378.79 253.33L388.59 239.85M388.59 239.85L395.37 224.63M395.37 224.63L398.83 208.33M398.83 208.33L398.83 191.67M398.83 191.67L395.37 175.37M395.37 175.37L388.59 160.15M388.59 160.15L378.79 146.67M378.79 146.67L366.41 135.52M366.41 135.52L351.98 127.18M351.98 127.18L336.13 122.04M336.13 122.04L319.56 120.29"
fill="none" stroke="black" stroke-width="12"/>
</g>
<g><path d="M319.56 120.29L80.44 120.29"
fill="none" stroke="black" stroke-width="12"/>
</g>
<g><path d="M80.44 120.29L63.87 122.04M63.87 122.04L48.02 127.18M48.02 127.18L33.59 135.52M33.59 135.52L21.21 146.67M21.21 146.67L11.41 160.15M11.41 160.15L4.63 175.37M4.63 175.37L1.17 191.67M1.17 191.67L1.17 208.33M1.17 208.33L4.63 224.63M4.63 224.63L11.41 239.85M11.41 239.85L21.21 253.33M21.21 253.33L33.59 264.48M33.59 264.48L48.02 272.82M48.02 272.82L63.87 277.96M63.87 277.96L80.44 279.71"
fill="none" stroke="black" stroke-width="12"/>
</g>
<g><path d="M80.44 279.71L319.56 279.71"
fill="none" stroke="black" stroke-width="12"/>
</g>
<g><path d="M152.18 176.09L247.82 176.09"
fill="none" stroke="black" stroke-width="12"/>
</g>
<g><path d="M200 163.33L247.82 176.09"
fill="none" stroke="black" stroke-width="12"/>
</g>
<g><path d="M247.82 176.09L200 188.84"
fill="none" stroke="black" stroke-width="12"/>
</g>
<g><path d="M200 211.16L247.82 223.91"
fill="none" stroke="black" stroke-width="12"/>
</g>
<g><path d="M247.82 223.91L200 236.67"
fill="none" stroke="black" stroke-width="12"/>
</g>
<g><path d="M247.82 223.91L152.18 223.91"
fill="none" stroke="black" stroke-width="12"/>
</g>
<g><path d="M48.56 168.12L112.32 168.12"
fill="none" stroke="black" stroke-width="12"/>
</g>
<g><path d="M112.32 231.88L48.56 231.88"
fill="none" stroke="black" stroke-width="12"/>
</g>
<g><path d="M80.44 231.88L48.56 168.12"
fill="none" stroke="black" stroke-width="12"/>
</g>
<g><path d="M112.32 168.12L80.44 231.88"
fill="none" stroke="black" stroke-width="12"/>
</g>
<g><path d="M80.44 319.56L80.44 80.44"
fill="none" stroke="black" stroke-width="12"/>
</g>
<g><path d="M80.44 80.44L80.44 80.44"
fill="none" stroke="black" stroke-width=".5"/>
</g>
<g><path d="M80.44 319.56L80.44 319.56"
fill="none" stroke="black" stroke-width=".5"/>
</g>
<g><path d="M367.38 80.44L367.38 80.44"
fill="none" stroke="black" stroke-width=".5"/>
</g>
<g><path d="M367.38 319.56L367.38 319.56"
fill="none" stroke="black" stroke-width=".5"/>
</g>
</g>
</svg>
