<?xml version="1.0" standalone="no"?><svg xmlns="http://www.w3.org/2000/svg" width="400.000" height="400.000" viewBox="0.0 0.0 400.000 400.000" version="1.1">
  <title>Produce by Acme CAD Converter</title>
  <desc>Produce by Acme CAD Converter</desc>
<g id="0" display="visible">
<g><path d="M249.47 89.41L340.29 0.73"
fill="none" stroke="black" stroke-width="12"/>
</g>
<g><path d="M340.29 0.73L281.52 30.65"
fill="none" stroke="black" stroke-width="12"/>
</g>
<g><path d="M340.29 0.73L305.67 54.8"
fill="none" stroke="black" stroke-width="12"/>
</g>
<g><path d="M294.77 134.72L385.59 43.9"
fill="none" stroke="black" stroke-width="12"/>
</g>
<g><path d="M385.59 43.9L326.83 75.95"
fill="none" stroke="black" stroke-width="12"/>
</g>
<g><path d="M385.59 43.9L350.97 100.1"
fill="none" stroke="black" stroke-width="12"/>
</g>
<g><path d="M206.73 132.15L121.25 132.15"
fill="none" stroke="black" stroke-width="12"/>
</g>
<g><path d="M121.25 132.15L101.62 133.97M101.62 133.97L82.66 139.37M82.66 139.37L65.01 148.16M65.01 148.16L49.27 160.04M49.27 160.04L35.99 174.61M35.99 174.61L25.61 191.37M25.61 191.37L18.49 209.76M18.49 209.76L14.87 229.14M14.87 229.14L14.87 248.86M14.87 248.86L18.49 268.24M18.49 268.24L25.61 286.62M25.61 286.62L35.99 303.39M35.99 303.39L49.27 317.96M49.27 317.96L65.01 329.84M65.01 329.84L82.66 338.63M82.66 338.63L101.62 344.02M101.62 344.02L121.25 345.84"
fill="none" stroke="black" stroke-width="12"/>
</g>
<g><path d="M121.25 345.84L206.73 345.84"
fill="none" stroke="black" stroke-width="12"/>
</g>
<g><path d="M78.52 196.26L163.99 196.26"
fill="none" stroke="black" stroke-width="12"/>
</g>
<g><path d="M163.99 281.74L78.52 281.74"
fill="none" stroke="black" stroke-width="12"/>
</g>
<g><path d="M121.25 281.74L78.52 196.26"
fill="none" stroke="black" stroke-width="12"/>
</g>
<g><path d="M163.99 196.26L121.25 281.74"
fill="none" stroke="black" stroke-width="12"/>
</g>
<g><path d="M121.25 399.27L121.25 78.73"
fill="none" stroke="black" stroke-width="12"/>
</g>
<g><path d="M121.25 78.73L121.25 78.73"
fill="none" stroke="black" stroke-width=".5"/>
</g>
<g><path d="M121.25 399.27L121.25 399.27"
fill="none" stroke="black" stroke-width=".5"/>
</g>
</g>
</svg>
