<?xml version="1.0" standalone="no"?><svg xmlns="http://www.w3.org/2000/svg" width="400.000" height="400.000" viewBox="0.0 0.0 400.000 400.000" version="1.1">
  <title>Produce by Acme CAD Converter</title>
  <desc>Produce by Acme CAD Converter</desc>
<g id="0" display="visible">
<g><path d="M131.79 94.55L44.35 7.11"
fill="none" stroke="black" stroke-width="12"/>
</g>
<g><path d="M131.79 94.55L99.7 39.21"
fill="none" stroke="black" stroke-width="12"/>
</g>
<g><path d="M131.79 94.55L76.45 62.46"
fill="none" stroke="black" stroke-width="12"/>
</g>
<g><path d="M88.18 138.17L0.73 50.73"
fill="none" stroke="black" stroke-width="12"/>
</g>
<g><path d="M88.18 138.17L56.08 82.83"
fill="none" stroke="black" stroke-width="12"/>
</g>
<g><path d="M88.18 138.17L32.83 106.28"
fill="none" stroke="black" stroke-width="12"/>
</g>
<g><path d="M172.94 135.7L296.39 135.7"
fill="none" stroke="black" stroke-width="12"/>
</g>
<g><path d="M296.39 341.45L316.46 339.47M316.46 339.47L335.76 333.62M335.76 333.62L353.55 324.11M353.55 324.11L369.14 311.32M369.14 311.32L381.93 295.73M381.93 295.73L391.44 277.95M391.44 277.95L397.29 258.65M397.29 258.65L399.27 238.58M399.27 238.58L397.29 218.51M397.29 218.51L391.44 199.21M391.44 199.21L381.93 181.42M381.93 181.42L369.14 165.83M369.14 165.83L353.55 153.04M353.55 153.04L335.76 143.53M335.76 143.53L316.46 137.68M316.46 137.68L296.39 135.7"
fill="none" stroke="black" stroke-width="12"/>
</g>
<g><path d="M296.39 341.45L172.94 341.45"
fill="none" stroke="black" stroke-width="12"/>
</g>
<g><path d="M255.24 392.89L255.24 279.73"
fill="none" stroke="black" stroke-width="12"/>
</g>
<g><path d="M172.94 279.73L337.54 279.73"
fill="none" stroke="black" stroke-width="12"/>
</g>
<g><path d="M337.54 279.73L296.39 197.43"
fill="none" stroke="black" stroke-width="12"/>
</g>
<g><path d="M296.39 197.43L255.24 279.73"
fill="none" stroke="black" stroke-width="12"/>
</g>
<g><path d="M255.24 197.43L214.09 279.73"
fill="none" stroke="black" stroke-width="12"/>
</g>
<g><path d="M214.09 279.73L172.94 197.43"
fill="none" stroke="black" stroke-width="12"/>
</g>
<g><path d="M172.94 197.43L337.54 197.43"
fill="none" stroke="black" stroke-width="12"/>
</g>
<g><path d="M255.24 197.43L255.24 84.27"
fill="none" stroke="black" stroke-width="12"/>
</g>
<g><path d="M255.24 84.27L255.24 84.27"
fill="none" stroke="black" stroke-width=".5"/>
</g>
<g><path d="M255.24 392.89L255.24 392.89"
fill="none" stroke="black" stroke-width=".5"/>
</g>
</g>
</svg>
