<?xml version="1.0" standalone="no"?><svg xmlns="http://www.w3.org/2000/svg" width="400.000" height="400.000" viewBox="0.0 0.0 400.000 400.000" version="1.1">
  <title>Produce by Acme CAD Converter</title>
  <desc>Produce by Acme CAD Converter</desc>
<g id="0" display="visible">
<g><path d="M173.1 120.29L173.1 279.71"
fill="none" stroke="black" stroke-width="12"/>
</g>
<g><path d="M305.94 93.72L305.94 0.73"
fill="none" stroke="black" stroke-width="12"/>
</g>
<g><path d="M305.94 93.72L173.1 160.15"
fill="none" stroke="black" stroke-width="12"/>
</g>
<g><path d="M173.1 239.85L305.94 306.28"
fill="none" stroke="black" stroke-width="12"/>
</g>
<g><path d="M305.94 306.28L305.94 399.27"
fill="none" stroke="black" stroke-width="12"/>
</g>
<g><path d="M253.87 256.59L173.1 239.85"
fill="none" stroke="black" stroke-width="12"/>
</g>
<g><path d="M173.1 239.85L235 294.59"
fill="none" stroke="black" stroke-width="12"/>
</g>
<g><path d="M95.45 200L97.36 177.55M97.36 177.55L103.04 155.74M103.04 155.74L112.32 135.21M112.32 135.21L124.94 116.54M124.94 116.54L140.53 100.28M140.53 100.28L158.64 86.88M158.64 86.88L178.76 76.74M178.76 76.74L200.31 70.14M200.31 70.14L222.66 67.28M222.66 67.28L245.17 68.23M245.17 68.23L267.19 72.98M267.19 72.98L288.1 81.38M288.1 81.38L307.29 93.19M307.29 93.19L324.2 108.08M324.2 108.08L338.36 125.61M338.36 125.61L349.35 145.28M349.35 145.28L356.85 166.53M356.85 166.53L360.66 188.73M360.66 188.73L360.66 211.27M360.66 211.27L356.85 233.47M356.85 233.47L349.35 254.72M349.35 254.72L338.36 274.39M338.36 274.39L324.2 291.92M324.2 291.92L307.29 306.81M307.29 306.81L288.1 318.62M288.1 318.62L267.19 327.02M267.19 327.02L245.17 331.77M245.17 331.77L222.66 332.72M222.66 332.72L200.31 329.86M200.31 329.86L178.76 323.26M178.76 323.26L158.64 313.12M158.64 313.12L140.53 299.72M140.53 299.72L124.94 283.46M124.94 283.46L112.32 264.79M112.32 264.79L103.04 244.26M103.04 244.26L97.36 222.45M97.36 222.45L95.45 200"
fill="none" stroke="black" stroke-width="12"/>
</g>
<g><path d="M135.94 249.61L38.86 249.61"
fill="none" stroke="black" stroke-width="12"/>
</g>
<g><path d="M135.94 149.31L135.94 249.61"
fill="none" stroke="black" stroke-width="12"/>
</g>
</g>
</svg>
