<?xml version="1.0" standalone="no"?><svg xmlns="http://www.w3.org/2000/svg" width="400.000" height="400.000" viewBox="0.0 0.0 400.000 400.000" version="1.1">
  <title>Produce by Acme CAD Converter</title>
  <desc>Produce by Acme CAD Converter</desc>
<g id="0" display="visible">
<g><path d="M174.13 120.29L174.13 279.71"
fill="none" stroke="black" stroke-width="12"/>
</g>
<g><path d="M306.97 93.72L306.97 0.73"
fill="none" stroke="black" stroke-width="12"/>
</g>
<g><path d="M306.97 93.72L174.13 160.15"
fill="none" stroke="black" stroke-width="12"/>
</g>
<g><path d="M174.13 239.85L306.97 306.28"
fill="none" stroke="black" stroke-width="12"/>
</g>
<g><path d="M306.97 306.28L306.97 399.27"
fill="none" stroke="black" stroke-width="12"/>
</g>
<g><path d="M245.07 251.54L306.97 306.28"
fill="none" stroke="black" stroke-width="12"/>
</g>
<g><path d="M306.97 306.28L226.2 289.54"
fill="none" stroke="black" stroke-width="12"/>
</g>
<g><path d="M94.42 200L96.33 177.55M96.33 177.55L102.01 155.74M102.01 155.74L111.29 135.21M111.29 135.21L123.91 116.54M123.91 116.54L139.5 100.28M139.5 100.28L157.61 86.88M157.61 86.88L177.73 76.74M177.73 76.74L199.28 70.14M199.28 70.14L221.63 67.28M221.63 67.28L244.14 68.23M244.14 68.23L266.17 72.98M266.17 72.98L287.07 81.38M287.07 81.38L306.26 93.19M306.26 93.19L323.17 108.08M323.17 108.08L337.33 125.61M337.33 125.61L348.32 145.28M348.32 145.28L355.82 166.53M355.82 166.53L359.63 188.73M359.63 188.73L359.63 211.27M359.63 211.27L355.82 233.47M355.82 233.47L348.32 254.72M348.32 254.72L337.33 274.39M337.33 274.39L323.17 291.92M323.17 291.92L306.26 306.81M306.26 306.81L287.07 318.62M287.07 318.62L266.17 327.02M266.17 327.02L244.14 331.77M244.14 331.77L221.63 332.72M221.63 332.72L199.28 329.86M199.28 329.86L177.73 323.26M177.73 323.26L157.61 313.12M157.61 313.12L139.5 299.72M139.5 299.72L123.91 283.46M123.91 283.46L111.29 264.79M111.29 264.79L102.01 244.26M102.01 244.26L96.33 222.45M96.33 222.45L94.42 200"
fill="none" stroke="black" stroke-width="12"/>
</g>
<g><path d="M136.96 249.61L39.89 249.61"
fill="none" stroke="black" stroke-width="12"/>
</g>
<g><path d="M136.96 149.31L136.96 249.61"
fill="none" stroke="black" stroke-width="12"/>
</g>
</g>
</svg>
