<?xml version="1.0" standalone="no"?><svg xmlns="http://www.w3.org/2000/svg" width="400.000" height="400.000" viewBox="0.0 0.0 400.000 400.000" version="1.1">
  <title>Produce by Acme CAD Converter</title>
  <desc>Produce by Acme CAD Converter</desc>
<g id="0" display="visible">
<g><path d="M94.74 154.82L94.74 137.23 94.47 137.45 94.74 154.82Z"
fill-rule="evenodd" fill="black"/>
<path d="M94.74 154.82L107.93 164.91 94.74 137.23 94.74 154.82Z"
fill-rule="evenodd" fill="black"/>
<path d="M107.93 164.91L107.93 126.47 94.74 137.23 107.93 164.91Z"
fill-rule="evenodd" fill="black"/>
<path d="M107.93 164.91L108.53 165.37 107.93 126.47 107.93 164.91Z"
fill-rule="evenodd" fill="black"/>
<path d="M108.53 165.37L108.53 126.6 107.93 126.47 108.53 165.37Z"
fill-rule="evenodd" fill="black"/>
<path d="M108.53 165.37L124.89 161.22 108.53 126.6 108.53 165.37Z"
fill-rule="evenodd" fill="black"/>
<path d="M124.89 161.22L124.89 130.22 108.53 126.6 124.89 161.22Z"
fill-rule="evenodd" fill="black"/>
<path d="M124.89 161.22L125.37 161.09 124.89 130.22 124.89 161.22Z"
fill-rule="evenodd" fill="black"/>
<path d="M125.37 161.09L125.37 131.21 124.89 130.22 125.37 161.09Z"
fill-rule="evenodd" fill="black"/>
<path d="M125.37 161.09L132.46 145.85 125.37 131.21 125.37 161.09Z"
fill-rule="evenodd" fill="black"/>
</g>
<g><path d="M177.42 120.29L177.42 279.71"
fill="none" stroke="black" stroke-width="12"/>
</g>
<g><path d="M310.26 93.72L310.26 0.73"
fill="none" stroke="black" stroke-width="12"/>
</g>
<g><path d="M310.26 93.72L177.42 160.15"
fill="none" stroke="black" stroke-width="12"/>
</g>
<g><path d="M177.42 239.85L310.26 306.28"
fill="none" stroke="black" stroke-width="12"/>
</g>
<g><path d="M310.26 306.28L310.26 399.27"
fill="none" stroke="black" stroke-width="12"/>
</g>
<g><path d="M248.36 251.54L310.26 306.28"
fill="none" stroke="black" stroke-width="12"/>
</g>
<g><path d="M310.26 306.28L229.49 289.54"
fill="none" stroke="black" stroke-width="12"/>
</g>
<g><path d="M177.42 200L44.57 200"
fill="none" stroke="black" stroke-width="12"/>
</g>
<g><path d="M52.54 200L54.5 175.71M54.5 175.71L60.34 152.04M60.34 152.04L69.89 129.62M69.89 129.62L82.92 109.02M82.92 109.02L99.08 90.78M99.08 90.78L117.96 75.37M117.96 75.37L139.06 63.18M139.06 63.18L161.85 54.54M161.85 54.54L185.73 49.66M185.73 49.66L210.08 48.68M210.08 48.68L234.28 51.62M234.28 51.62L257.69 58.4M257.69 58.4L279.71 68.85M279.71 68.85L299.76 82.69M299.76 82.69L317.34 99.57M317.34 99.57L331.98 119.06M331.98 119.06L343.31 140.64M343.31 140.64L351.03 163.76M351.03 163.76L354.94 187.81M354.94 187.81L354.94 212.19M354.94 212.19L351.03 236.24M351.03 236.24L343.31 259.36M343.31 259.36L331.98 280.94M331.98 280.94L317.34 300.43M317.34 300.43L299.76 317.31M299.76 317.31L279.71 331.15M279.71 331.15L257.69 341.6M257.69 341.6L234.28 348.38M234.28 348.38L210.08 351.32M210.08 351.32L185.73 350.34M185.73 350.34L161.85 345.46M161.85 345.46L139.06 336.82M139.06 336.82L117.96 324.63M117.96 324.63L99.08 309.22M99.08 309.22L82.92 290.98M82.92 290.98L69.89 270.38M69.89 270.38L60.34 247.96M60.34 247.96L54.5 224.29M54.5 224.29L52.54 200"
fill="none" stroke="black" stroke-width="12"/>
</g>
<g><path d="M139.88 284.77L155.58 294.61M155.58 294.61L172.74 301.58M172.74 301.58L190.86 305.46"
fill="none" stroke="black" stroke-width="12"/>
</g>
<g><path d="M98.72 214.61L102.86 232.67M102.86 232.67L110.06 249.73M110.06 249.73L120.13 265.29"
fill="none" stroke="black" stroke-width="12"/>
</g>
<g><path d="M120.13 134.71L110.06 150.27M110.06 150.27L102.86 167.33M102.86 167.33L98.72 185.39"
fill="none" stroke="black" stroke-width="12"/>
</g>
<g><path d="M190.86 94.54L172.74 98.42M172.74 98.42L155.58 105.39M155.58 105.39L139.88 115.23"
fill="none" stroke="black" stroke-width="12"/>
</g>
<g><path d="M44.57 107.01L112.54 145.85"
fill="none" stroke="black" stroke-width="12"/>
</g>
<g><path d="M92.61 145.85L94.58 137.21M94.58 137.21L100.11 130.27M100.11 130.27L108.1 126.43M108.1 126.43L116.97 126.43M116.97 126.43L124.96 130.27M124.96 130.27L130.49 137.21M130.49 137.21L132.46 145.85M132.46 145.85L130.49 154.5M130.49 154.5L124.96 161.43M124.96 161.43L116.97 165.28M116.97 165.28L108.1 165.28M108.1 165.28L100.11 161.43M100.11 161.43L94.58 154.5M94.58 154.5L92.61 145.85"
fill="none" stroke="black" stroke-width="12"/>
</g>
<g><path d="M44.57 200L44.57 200"
fill="none" stroke="black" stroke-width=".5"/>
</g>
<g><path d="M310.26 0.73L310.26 0.73"
fill="none" stroke="black" stroke-width=".5"/>
</g>
<g><path d="M310.26 399.27L310.26 399.27"
fill="none" stroke="black" stroke-width=".5"/>
</g>
</g>
</svg>
