<?xml version="1.0" standalone="no"?><svg xmlns="http://www.w3.org/2000/svg" width="400.000" height="400.000" viewBox="0.0 0.0 400.000 400.000" version="1.1">
  <title>Produce by Acme CAD Converter</title>
  <desc>Produce by Acme CAD Converter</desc>
<g id="0" display="visible">
<g><path d="M292.46 102.69L292.46 85.1 292.19 85.32 292.46 102.69Z"
fill-rule="evenodd" fill="black"/>
<path d="M292.46 102.69L305.65 112.78 292.46 85.1 292.46 102.69Z"
fill-rule="evenodd" fill="black"/>
<path d="M305.65 112.78L305.65 74.34 292.46 85.1 305.65 112.78Z"
fill-rule="evenodd" fill="black"/>
<path d="M305.65 112.78L306.26 113.25 305.65 74.34 305.65 112.78Z"
fill-rule="evenodd" fill="black"/>
<path d="M306.26 113.25L306.26 74.47 305.65 74.34 306.26 113.25Z"
fill-rule="evenodd" fill="black"/>
<path d="M306.26 113.25L322.62 109.09 306.26 74.47 306.26 113.25Z"
fill-rule="evenodd" fill="black"/>
<path d="M322.62 109.09L322.62 78.09 306.26 74.47 322.62 109.09Z"
fill-rule="evenodd" fill="black"/>
<path d="M322.62 109.09L323.1 108.97 322.62 78.09 322.62 109.09Z"
fill-rule="evenodd" fill="black"/>
<path d="M323.1 108.97L323.1 79.08 322.62 78.09 323.1 108.97Z"
fill-rule="evenodd" fill="black"/>
<path d="M323.1 108.97L330.19 93.72 323.1 79.08 323.1 108.97Z"
fill-rule="evenodd" fill="black"/>
</g>
<g><path d="M177.42 120.29L177.42 279.71"
fill="none" stroke="black" stroke-width="12"/>
</g>
<g><path d="M310.26 93.72L310.26 0.73"
fill="none" stroke="black" stroke-width="12"/>
</g>
<g><path d="M310.26 93.72L177.42 160.15"
fill="none" stroke="black" stroke-width="12"/>
</g>
<g><path d="M177.42 239.85L310.26 306.28"
fill="none" stroke="black" stroke-width="12"/>
</g>
<g><path d="M310.26 306.28L310.26 399.27"
fill="none" stroke="black" stroke-width="12"/>
</g>
<g><path d="M258.19 256.59L177.42 239.85"
fill="none" stroke="black" stroke-width="12"/>
</g>
<g><path d="M177.42 239.85L239.32 294.59"
fill="none" stroke="black" stroke-width="12"/>
</g>
<g><path d="M177.42 200L44.57 200"
fill="none" stroke="black" stroke-width="12"/>
</g>
<g><path d="M52.54 200L54.5 175.71M54.5 175.71L60.34 152.04M60.34 152.04L69.89 129.62M69.89 129.62L82.92 109.02M82.92 109.02L99.08 90.78M99.08 90.78L117.96 75.37M117.96 75.37L139.06 63.18M139.06 63.18L161.85 54.54M161.85 54.54L185.73 49.66M185.73 49.66L210.08 48.68M210.08 48.68L234.28 51.62M234.28 51.62L257.69 58.4M257.69 58.4L279.71 68.85M279.71 68.85L299.76 82.69M299.76 82.69L317.34 99.57M317.34 99.57L331.98 119.06M331.98 119.06L343.31 140.64M343.31 140.64L351.03 163.76M351.03 163.76L354.94 187.81M354.94 187.81L354.94 212.19M354.94 212.19L351.03 236.24M351.03 236.24L343.31 259.36M343.31 259.36L331.98 280.94M331.98 280.94L317.34 300.43M317.34 300.43L299.76 317.31M299.76 317.31L279.71 331.15M279.71 331.15L257.69 341.6M257.69 341.6L234.28 348.38M234.28 348.38L210.08 351.32M210.08 351.32L185.73 350.34M185.73 350.34L161.85 345.46M161.85 345.46L139.06 336.82M139.06 336.82L117.96 324.63M117.96 324.63L99.08 309.22M99.08 309.22L82.92 290.98M82.92 290.98L69.89 270.38M69.89 270.38L60.34 247.96M60.34 247.96L54.5 224.29M54.5 224.29L52.54 200"
fill="none" stroke="black" stroke-width="12"/>
</g>
<g><path d="M290.33 93.72L292.31 85.08M292.31 85.08L297.84 78.15M297.84 78.15L305.83 74.3M305.83 74.3L314.7 74.3M314.7 74.3L322.68 78.15M322.68 78.15L328.21 85.08M328.21 85.08L330.19 93.72M330.19 93.72L328.21 102.37M328.21 102.37L322.68 109.3M322.68 109.3L314.7 113.15M314.7 113.15L305.83 113.15M305.83 113.15L297.84 109.3M297.84 109.3L292.31 102.37M292.31 102.37L290.33 93.72"
fill="none" stroke="black" stroke-width="12"/>
</g>
<g><path d="M44.57 200L44.57 200"
fill="none" stroke="black" stroke-width=".5"/>
</g>
<g><path d="M310.26 0.73L310.26 0.73"
fill="none" stroke="black" stroke-width=".5"/>
</g>
<g><path d="M310.26 399.27L310.26 399.27"
fill="none" stroke="black" stroke-width=".5"/>
</g>
</g>
</svg>
