<?xml version="1.0" standalone="no"?><svg xmlns="http://www.w3.org/2000/svg" width="400.000" height="400.000" viewBox="0.0 0.0 400.000 400.000" version="1.1">
  <title>Produce by Acme CAD Converter</title>
  <desc>Produce by Acme CAD Converter</desc>
<g id="0" display="visible">
<g><path d="M173.43 120.29L173.43 279.71"
fill="none" stroke="black" stroke-width="12"/>
</g>
<g><path d="M306.28 93.72L306.28 0.73"
fill="none" stroke="black" stroke-width="12"/>
</g>
<g><path d="M306.28 93.72L173.43 160.15"
fill="none" stroke="black" stroke-width="12"/>
</g>
<g><path d="M173.43 239.85L306.28 306.28"
fill="none" stroke="black" stroke-width="12"/>
</g>
<g><path d="M306.28 306.28L306.28 399.27"
fill="none" stroke="black" stroke-width="12"/>
</g>
<g><path d="M244.37 251.54L306.28 306.28"
fill="none" stroke="black" stroke-width="12"/>
</g>
<g><path d="M306.28 306.28L225.51 289.54"
fill="none" stroke="black" stroke-width="12"/>
</g>
<g><path d="M173.43 200L40.59 200"
fill="none" stroke="black" stroke-width="12"/>
</g>
<g><path d="M40.59 200L40.59 200"
fill="none" stroke="black" stroke-width=".5"/>
</g>
<g><path d="M306.28 0.73L306.28 0.73"
fill="none" stroke="black" stroke-width=".5"/>
</g>
<g><path d="M306.28 399.27L306.28 399.27"
fill="none" stroke="black" stroke-width=".5"/>
</g>
<g><path d="M93.72 200L95.64 177.55M95.64 177.55L101.31 155.74M101.31 155.74L110.59 135.21M110.59 135.21L123.21 116.54M123.21 116.54L138.8 100.28M138.8 100.28L156.92 86.88M156.92 86.88L177.04 76.74M177.04 76.74L198.58 70.14M198.58 70.14L220.93 67.28M220.93 67.28L243.44 68.23M243.44 68.23L265.47 72.98M265.47 72.98L286.38 81.38M286.38 81.38L305.56 93.19M305.56 93.19L322.48 108.08M322.48 108.08L336.63 125.61M336.63 125.61L347.62 145.28M347.62 145.28L355.13 166.53M355.13 166.53L358.93 188.73M358.93 188.73L358.93 211.27M358.93 211.27L355.13 233.47M355.13 233.47L347.62 254.72M347.62 254.72L336.63 274.39M336.63 274.39L322.48 291.92M322.48 291.92L305.56 306.81M305.56 306.81L286.38 318.62M286.38 318.62L265.47 327.02M265.47 327.02L243.44 331.77M243.44 331.77L220.93 332.72M220.93 332.72L198.58 329.86M198.58 329.86L177.04 323.26M177.04 323.26L156.92 313.12M156.92 313.12L138.8 299.72M138.8 299.72L123.21 283.46M123.21 283.46L110.59 264.79M110.59 264.79L101.31 244.26M101.31 244.26L95.64 222.45M95.64 222.45L93.72 200"
fill="none" stroke="black" stroke-width="12"/>
</g>
<g><path d="M40.59 200L40.59 200"
fill="none" stroke="black" stroke-width=".5"/>
</g>
</g>
</svg>
