<?xml version="1.0" standalone="no"?><svg xmlns="http://www.w3.org/2000/svg" width="400.000" height="400.000" viewBox="0.0 0.0 400.000 400.000" version="1.1">
  <title>Produce by Acme CAD Converter</title>
  <desc>Produce by Acme CAD Converter</desc>
<g id="0" display="visible">
<g><path d="M172.4 120.29L172.4 279.71"
fill="none" stroke="black" stroke-width="12"/>
</g>
<g><path d="M305.25 93.72L305.25 0.73"
fill="none" stroke="black" stroke-width="12"/>
</g>
<g><path d="M305.25 93.72L172.4 160.15"
fill="none" stroke="black" stroke-width="12"/>
</g>
<g><path d="M172.4 239.85L305.25 306.28"
fill="none" stroke="black" stroke-width="12"/>
</g>
<g><path d="M305.25 306.28L305.25 399.27"
fill="none" stroke="black" stroke-width="12"/>
</g>
<g><path d="M253.17 256.59L172.4 239.85"
fill="none" stroke="black" stroke-width="12"/>
</g>
<g><path d="M172.4 239.85L234.31 294.59"
fill="none" stroke="black" stroke-width="12"/>
</g>
<g><path d="M172.4 200L39.56 200"
fill="none" stroke="black" stroke-width="12"/>
</g>
<g><path d="M39.56 200L39.56 200"
fill="none" stroke="black" stroke-width=".5"/>
</g>
<g><path d="M305.25 0.73L305.25 0.73"
fill="none" stroke="black" stroke-width=".5"/>
</g>
<g><path d="M305.25 399.27L305.25 399.27"
fill="none" stroke="black" stroke-width=".5"/>
</g>
<g><path d="M94.75 200L96.66 177.55M96.66 177.55L102.34 155.74M102.34 155.74L111.62 135.21M111.62 135.21L124.24 116.54M124.24 116.54L139.83 100.28M139.83 100.28L157.95 86.88M157.95 86.88L178.07 76.74M178.07 76.74L199.61 70.14M199.61 70.14L221.96 67.28M221.96 67.28L244.47 68.23M244.47 68.23L266.5 72.98M266.5 72.98L287.4 81.38M287.4 81.38L306.59 93.19M306.59 93.19L323.51 108.08M323.51 108.08L337.66 125.61M337.66 125.61L348.65 145.28M348.65 145.28L356.16 166.53M356.16 166.53L359.96 188.73M359.96 188.73L359.96 211.27M359.96 211.27L356.16 233.47M356.16 233.47L348.65 254.72M348.65 254.72L337.66 274.39M337.66 274.39L323.51 291.92M323.51 291.92L306.59 306.81M306.59 306.81L287.4 318.62M287.4 318.62L266.5 327.02M266.5 327.02L244.47 331.77M244.47 331.77L221.96 332.72M221.96 332.72L199.61 329.86M199.61 329.86L178.07 323.26M178.07 323.26L157.95 313.12M157.95 313.12L139.83 299.72M139.83 299.72L124.24 283.46M124.24 283.46L111.62 264.79M111.62 264.79L102.34 244.26M102.34 244.26L96.66 222.45M96.66 222.45L94.75 200"
fill="none" stroke="black" stroke-width="12"/>
</g>
</g>
</svg>
