<?xml version="1.0" standalone="no"?><svg xmlns="http://www.w3.org/2000/svg" width="400.000" height="400.000" viewBox="0.0 0.0 400.000 400.000" version="1.1">
  <title>Produce by Acme CAD Converter</title>
  <desc>Produce by Acme CAD Converter</desc>
<g id="0" display="visible">
<g><path d="M218.12 91.31L218.12 308.69"
fill="none" stroke="black" stroke-width="12"/>
</g>
<g><path d="M399.27 127.54L218.12 127.54"
fill="none" stroke="black" stroke-width="12"/>
</g>
<g><path d="M399.27 272.46L36.96 272.46"
fill="none" stroke="black" stroke-width="12"/>
</g>
<g><path d="M145.65 243.48L36.96 272.46"
fill="none" stroke="black" stroke-width="12"/>
</g>
<g><path d="M36.96 272.46L145.65 301.44"
fill="none" stroke="black" stroke-width="12"/>
</g>
<g><path d="M36.96 272.46L36.96 272.46"
fill="none" stroke="black" stroke-width=".5"/>
</g>
<g><path d="M399.27 272.46L399.27 272.46"
fill="none" stroke="black" stroke-width=".5"/>
</g>
<g><path d="M399.27 127.54L399.27 127.54"
fill="none" stroke="black" stroke-width=".5"/>
</g>
<g><path d="M0.73 200L2.66 173.62M2.66 173.62L8.41 147.81M8.41 147.81L17.86 123.11M17.86 123.11L30.8 100.05M30.8 100.05L46.97 79.11M46.97 79.11L66.01 60.76M66.01 60.76L87.52 45.37M87.52 45.37L111.04 33.28M111.04 33.28L136.07 24.74M136.07 24.74L162.07 19.94M162.07 19.94L188.5 18.97M188.5 18.97L214.79 21.86M214.79 21.86L240.38 28.55M240.38 28.55L264.71 38.89M264.71 38.89L287.29 52.67M287.29 52.67L307.62 69.59M307.62 69.59L325.27 89.28M325.27 89.28L339.86 111.34M339.86 111.34L351.08 135.29M351.08 135.29L358.7 160.61M358.7 160.61L362.55 186.78M362.55 186.78L362.55 213.22M362.55 213.22L358.7 239.39M358.7 239.39L351.08 264.71M351.08 264.71L339.86 288.66M339.86 288.66L325.27 310.72M325.27 310.72L307.62 330.41M307.62 330.41L287.29 347.33M287.29 347.33L264.71 361.11M264.71 361.11L240.38 371.45M240.38 371.45L214.79 378.14M214.79 378.14L188.5 381.03M188.5 381.03L162.07 380.06M162.07 380.06L136.07 375.26M136.07 375.26L111.04 366.72M111.04 366.72L87.52 354.63M87.52 354.63L66.01 339.24M66.01 339.24L46.97 320.89M46.97 320.89L30.8 299.95M30.8 299.95L17.86 276.89M17.86 276.89L8.41 252.19M8.41 252.19L2.66 226.38M2.66 226.38L0.73 200"
fill="none" stroke="black" stroke-width="12"/>
</g>
</g>
</svg>
