<?xml version="1.0" standalone="no"?><svg xmlns="http://www.w3.org/2000/svg" width="400.000" height="400.000" viewBox="0.0 0.0 400.000 400.000" version="1.1">
  <title>Produce by Acme CAD Converter</title>
  <desc>Produce by Acme CAD Converter</desc>
<g id="0" display="visible">
<g><path d="M399.27 106.01L211.28 106.01"
fill="none" stroke="black" stroke-width="12"/>
</g>
<g><path d="M211.28 200L324.07 200"
fill="none" stroke="black" stroke-width="12"/>
</g>
<g><path d="M399.27 293.99L211.28 293.99"
fill="none" stroke="black" stroke-width="12"/>
</g>
<g><path d="M286.47 181.2L211.28 200"
fill="none" stroke="black" stroke-width="12"/>
</g>
<g><path d="M211.28 200L286.47 218.8"
fill="none" stroke="black" stroke-width="12"/>
</g>
<g><path d="M211.28 262.04L211.28 325.95"
fill="none" stroke="black" stroke-width="12"/>
</g>
<g><path d="M211.28 168.04L211.28 231.96"
fill="none" stroke="black" stroke-width="12"/>
</g>
<g><path d="M211.28 74.05L211.28 137.96"
fill="none" stroke="black" stroke-width="12"/>
</g>
<g><path d="M151.12 293.99L0.73 293.99"
fill="none" stroke="black" stroke-width="12"/>
</g>
<g><path d="M151.12 106.01L151.12 293.99"
fill="none" stroke="black" stroke-width="12"/>
</g>
<g><path d="M23.29 200L25.21 173.25M25.21 173.25L30.91 147.04M30.91 147.04L40.28 121.91M40.28 121.91L53.13 98.37M53.13 98.37L69.21 76.89M69.21 76.89L88.17 57.93M88.17 57.93L109.65 41.85M109.65 41.85L133.19 29M133.19 29L158.32 19.63M158.32 19.63L184.53 13.93M184.53 13.93L211.28 12.01M211.28 12.01L238.03 13.93M238.03 13.93L264.24 19.63M264.24 19.63L289.37 29M289.37 29L312.91 41.85M312.91 41.85L334.38 57.93M334.38 57.93L353.35 76.89M353.35 76.89L369.42 98.37M369.42 98.37L382.28 121.91M382.28 121.91L391.65 147.04M391.65 147.04L397.35 173.25M397.35 173.25L399.27 200M399.27 200L397.35 226.75M397.35 226.75L391.65 252.96M391.65 252.96L382.28 278.09M382.28 278.09L369.42 301.63M369.42 301.63L353.35 323.11M353.35 323.11L334.38 342.07M334.38 342.07L312.91 358.15M312.91 358.15L289.37 371M289.37 371L264.24 380.37M264.24 380.37L238.03 386.07M238.03 386.07L211.28 387.99M211.28 387.99L184.53 386.07M184.53 386.07L158.32 380.37M158.32 380.37L133.19 371M133.19 371L109.65 358.15M109.65 358.15L88.17 342.07M88.17 342.07L69.21 323.11M69.21 323.11L53.13 301.63M53.13 301.63L40.28 278.09M40.28 278.09L30.91 252.96M30.91 252.96L25.21 226.75M25.21 226.75L23.29 200"
fill="none" stroke="black" stroke-width="12"/>
</g>
<g><path d="M324.07 200L324.07 293.99"
fill="none" stroke="black" stroke-width="12"/>
</g>
</g>
</svg>
