<?xml version="1.0" standalone="no"?><svg xmlns="http://www.w3.org/2000/svg" width="400.000" height="400.000" viewBox="0.0 0.0 400.000 400.000" version="1.1">
  <title>Produce by Acme CAD Converter</title>
  <desc>Produce by Acme CAD Converter</desc>
<g id="0" display="visible">
<g><path d="M389.63 399.27L399.27 389.63"
fill="none" stroke="black" stroke-width="3"/>
</g>
<g><path d="M372.72 399.27L399.27 372.72"
fill="none" stroke="black" stroke-width="3"/>
</g>
<g><path d="M355.81 399.27L375.74 379.34"
fill="none" stroke="black" stroke-width="3"/>
</g>
<g><path d="M379.34 375.74L399.27 355.81"
fill="none" stroke="black" stroke-width="3"/>
</g>
<g><path d="M379.34 358.83L399.27 338.9"
fill="none" stroke="black" stroke-width="3"/>
</g>
<g><path d="M338.9 399.27L358.83 379.34"
fill="none" stroke="black" stroke-width="3"/>
</g>
<g><path d="M321.99 399.27L341.92 379.34"
fill="none" stroke="black" stroke-width="3"/>
</g>
<g><path d="M379.34 341.92L399.27 321.99"
fill="none" stroke="black" stroke-width="3"/>
</g>
<g><path d="M379.34 325.01L399.27 305.08"
fill="none" stroke="black" stroke-width="3"/>
</g>
<g><path d="M305.08 399.27L325.01 379.34"
fill="none" stroke="black" stroke-width="3"/>
</g>
<g><path d="M288.18 399.27L308.1 379.34"
fill="none" stroke="black" stroke-width="3"/>
</g>
<g><path d="M379.34 308.1L399.27 288.18"
fill="none" stroke="black" stroke-width="3"/>
</g>
<g><path d="M379.34 291.19L399.27 271.27"
fill="none" stroke="black" stroke-width="3"/>
</g>
<g><path d="M271.27 399.27L291.19 379.34"
fill="none" stroke="black" stroke-width="3"/>
</g>
<g><path d="M254.36 399.27L274.29 379.34"
fill="none" stroke="black" stroke-width="3"/>
</g>
<g><path d="M379.34 274.29L399.27 254.36"
fill="none" stroke="black" stroke-width="3"/>
</g>
<g><path d="M379.34 257.38L399.27 237.45"
fill="none" stroke="black" stroke-width="3"/>
</g>
<g><path d="M237.45 399.27L257.38 379.34"
fill="none" stroke="black" stroke-width="3"/>
</g>
<g><path d="M220.54 399.27L240.47 379.34"
fill="none" stroke="black" stroke-width="3"/>
</g>
<g><path d="M379.34 240.47L399.27 220.54"
fill="none" stroke="black" stroke-width="3"/>
</g>
<g><path d="M379.34 223.56L399.27 203.63"
fill="none" stroke="black" stroke-width="3"/>
</g>
<g><path d="M203.63 399.27L223.56 379.34"
fill="none" stroke="black" stroke-width="3"/>
</g>
<g><path d="M186.73 399.27L206.65 379.34"
fill="none" stroke="black" stroke-width="3"/>
</g>
<g><path d="M379.34 206.65L399.27 186.73"
fill="none" stroke="black" stroke-width="3"/>
</g>
<g><path d="M379.34 189.74L399.27 169.82"
fill="none" stroke="black" stroke-width="3"/>
</g>
<g><path d="M169.82 399.27L189.74 379.34"
fill="none" stroke="black" stroke-width="3"/>
</g>
<g><path d="M152.91 399.27L172.84 379.34"
fill="none" stroke="black" stroke-width="3"/>
</g>
<g><path d="M379.34 172.84L399.27 152.91"
fill="none" stroke="black" stroke-width="3"/>
</g>
<g><path d="M379.34 155.93L399.27 136"
fill="none" stroke="black" stroke-width="3"/>
</g>
<g><path d="M136 399.27L155.93 379.34"
fill="none" stroke="black" stroke-width="3"/>
</g>
<g><path d="M119.09 399.27L139.02 379.34"
fill="none" stroke="black" stroke-width="3"/>
</g>
<g><path d="M379.34 139.02L399.27 119.09"
fill="none" stroke="black" stroke-width="3"/>
</g>
<g><path d="M379.34 122.11L399.27 102.18"
fill="none" stroke="black" stroke-width="3"/>
</g>
<g><path d="M102.18 399.27L122.11 379.34"
fill="none" stroke="black" stroke-width="3"/>
</g>
<g><path d="M85.28 399.27L105.2 379.34"
fill="none" stroke="black" stroke-width="3"/>
</g>
<g><path d="M379.34 105.2L399.27 85.28"
fill="none" stroke="black" stroke-width="3"/>
</g>
<g><path d="M379.34 88.29L399.27 68.37"
fill="none" stroke="black" stroke-width="3"/>
</g>
<g><path d="M68.37 399.27L88.29 379.34"
fill="none" stroke="black" stroke-width="3"/>
</g>
<g><path d="M51.46 399.27L71.38 379.34"
fill="none" stroke="black" stroke-width="3"/>
</g>
<g><path d="M379.34 71.38L399.27 51.46"
fill="none" stroke="black" stroke-width="3"/>
</g>
<g><path d="M379.34 54.48L399.27 34.55"
fill="none" stroke="black" stroke-width="3"/>
</g>
<g><path d="M34.55 399.27L54.48 379.34"
fill="none" stroke="black" stroke-width="3"/>
</g>
<g><path d="M17.64 399.27L37.57 379.34"
fill="none" stroke="black" stroke-width="3"/>
</g>
<g><path d="M379.34 37.57L399.27 17.64"
fill="none" stroke="black" stroke-width="3"/>
</g>
<g><path d="M379.34 20.66L399.27 0.73"
fill="none" stroke="black" stroke-width="3"/>
</g>
<g><path d="M0.73 399.27L20.66 379.34"
fill="none" stroke="black" stroke-width="3"/>
</g>
<g><path d="M0.73 382.36L20.66 362.43"
fill="none" stroke="black" stroke-width="3"/>
</g>
<g><path d="M362.43 20.66L382.36 0.73"
fill="none" stroke="black" stroke-width="3"/>
</g>
<g><path d="M345.52 20.66L365.45 0.73"
fill="none" stroke="black" stroke-width="3"/>
</g>
<g><path d="M0.73 365.45L20.66 345.52"
fill="none" stroke="black" stroke-width="3"/>
</g>
<g><path d="M0.73 348.54L20.66 328.62"
fill="none" stroke="black" stroke-width="3"/>
</g>
<g><path d="M328.62 20.66L348.54 0.73"
fill="none" stroke="black" stroke-width="3"/>
</g>
<g><path d="M311.71 20.66L331.63 0.73"
fill="none" stroke="black" stroke-width="3"/>
</g>
<g><path d="M0.73 331.63L20.66 311.71"
fill="none" stroke="black" stroke-width="3"/>
</g>
<g><path d="M0.73 314.72L20.66 294.8"
fill="none" stroke="black" stroke-width="3"/>
</g>
<g><path d="M294.8 20.66L314.72 0.73"
fill="none" stroke="black" stroke-width="3"/>
</g>
<g><path d="M277.89 20.66L297.82 0.73"
fill="none" stroke="black" stroke-width="3"/>
</g>
<g><path d="M0.73 297.82L20.66 277.89"
fill="none" stroke="black" stroke-width="3"/>
</g>
<g><path d="M0.73 280.91L20.66 260.98"
fill="none" stroke="black" stroke-width="3"/>
</g>
<g><path d="M260.98 20.66L280.91 0.73"
fill="none" stroke="black" stroke-width="3"/>
</g>
<g><path d="M244.07 20.66L264 0.73"
fill="none" stroke="black" stroke-width="3"/>
</g>
<g><path d="M0.73 264L20.66 244.07"
fill="none" stroke="black" stroke-width="3"/>
</g>
<g><path d="M0.73 247.09L20.66 227.16"
fill="none" stroke="black" stroke-width="3"/>
</g>
<g><path d="M227.16 20.66L247.09 0.73"
fill="none" stroke="black" stroke-width="3"/>
</g>
<g><path d="M210.26 20.66L230.18 0.73"
fill="none" stroke="black" stroke-width="3"/>
</g>
<g><path d="M0.73 230.18L20.66 210.26"
fill="none" stroke="black" stroke-width="3"/>
</g>
<g><path d="M0.73 213.27L20.66 193.35"
fill="none" stroke="black" stroke-width="3"/>
</g>
<g><path d="M193.35 20.66L213.27 0.73"
fill="none" stroke="black" stroke-width="3"/>
</g>
<g><path d="M176.44 20.66L196.37 0.73"
fill="none" stroke="black" stroke-width="3"/>
</g>
<g><path d="M0.73 196.37L20.66 176.44"
fill="none" stroke="black" stroke-width="3"/>
</g>
<g><path d="M0.73 179.46L20.66 159.53"
fill="none" stroke="black" stroke-width="3"/>
</g>
<g><path d="M159.53 20.66L179.46 0.73"
fill="none" stroke="black" stroke-width="3"/>
</g>
<g><path d="M142.62 20.66L162.55 0.73"
fill="none" stroke="black" stroke-width="3"/>
</g>
<g><path d="M0.73 162.55L20.66 142.62"
fill="none" stroke="black" stroke-width="3"/>
</g>
<g><path d="M0.73 145.64L20.66 125.71"
fill="none" stroke="black" stroke-width="3"/>
</g>
<g><path d="M125.71 20.66L145.64 0.73"
fill="none" stroke="black" stroke-width="3"/>
</g>
<g><path d="M108.81 20.66L128.73 0.73"
fill="none" stroke="black" stroke-width="3"/>
</g>
<g><path d="M0.73 128.73L20.66 108.81"
fill="none" stroke="black" stroke-width="3"/>
</g>
<g><path d="M0.73 111.82L20.66 91.9"
fill="none" stroke="black" stroke-width="3"/>
</g>
<g><path d="M91.9 20.66L111.82 0.73"
fill="none" stroke="black" stroke-width="3"/>
</g>
<g><path d="M74.99 20.66L94.92 0.73"
fill="none" stroke="black" stroke-width="3"/>
</g>
<g><path d="M0.73 94.92L20.66 74.99"
fill="none" stroke="black" stroke-width="3"/>
</g>
<g><path d="M0.73 78.01L20.66 58.08"
fill="none" stroke="black" stroke-width="3"/>
</g>
<g><path d="M58.08 20.66L78.01 0.73"
fill="none" stroke="black" stroke-width="3"/>
</g>
<g><path d="M41.17 20.66L61.1 0.73"
fill="none" stroke="black" stroke-width="3"/>
</g>
<g><path d="M0.73 61.1L20.66 41.17"
fill="none" stroke="black" stroke-width="3"/>
</g>
<g><path d="M0.73 44.19L20.66 24.26"
fill="none" stroke="black" stroke-width="3"/>
</g>
<g><path d="M24.26 20.66L44.19 0.73"
fill="none" stroke="black" stroke-width="3"/>
</g>
<g><path d="M0.73 27.28L27.28 0.73"
fill="none" stroke="black" stroke-width="3"/>
</g>
<g><path d="M0.73 10.37L10.37 0.73"
fill="none" stroke="black" stroke-width="3"/>
</g>
<g><path d="M385.4 399.27L399.27 385.4"
fill="none" stroke="black" stroke-width="3"/>
</g>
<g><path d="M368.49 399.27L399.27 368.49"
fill="none" stroke="black" stroke-width="3"/>
</g>
<g><path d="M379.34 371.51L399.27 351.58"
fill="none" stroke="black" stroke-width="3"/>
</g>
<g><path d="M351.58 399.27L371.51 379.34"
fill="none" stroke="black" stroke-width="3"/>
</g>
<g><path d="M334.67 399.27L354.6 379.34"
fill="none" stroke="black" stroke-width="3"/>
</g>
<g><path d="M379.34 354.6L399.27 334.67"
fill="none" stroke="black" stroke-width="3"/>
</g>
<g><path d="M379.34 337.69L399.27 317.76"
fill="none" stroke="black" stroke-width="3"/>
</g>
<g><path d="M317.76 399.27L337.69 379.34"
fill="none" stroke="black" stroke-width="3"/>
</g>
<g><path d="M300.86 399.27L320.78 379.34"
fill="none" stroke="black" stroke-width="3"/>
</g>
<g><path d="M379.34 320.78L399.27 300.86"
fill="none" stroke="black" stroke-width="3"/>
</g>
<g><path d="M379.34 303.87L399.27 283.95"
fill="none" stroke="black" stroke-width="3"/>
</g>
<g><path d="M283.95 399.27L303.87 379.34"
fill="none" stroke="black" stroke-width="3"/>
</g>
<g><path d="M267.04 399.27L286.97 379.34"
fill="none" stroke="black" stroke-width="3"/>
</g>
<g><path d="M379.34 286.97L399.27 267.04"
fill="none" stroke="black" stroke-width="3"/>
</g>
<g><path d="M379.34 270.06L399.27 250.13"
fill="none" stroke="black" stroke-width="3"/>
</g>
<g><path d="M250.13 399.27L270.06 379.34"
fill="none" stroke="black" stroke-width="3"/>
</g>
<g><path d="M233.22 399.27L253.15 379.34"
fill="none" stroke="black" stroke-width="3"/>
</g>
<g><path d="M379.34 253.15L399.27 233.22"
fill="none" stroke="black" stroke-width="3"/>
</g>
<g><path d="M379.34 236.24L399.27 216.31"
fill="none" stroke="black" stroke-width="3"/>
</g>
<g><path d="M216.31 399.27L236.24 379.34"
fill="none" stroke="black" stroke-width="3"/>
</g>
<g><path d="M199.41 399.27L219.33 379.34"
fill="none" stroke="black" stroke-width="3"/>
</g>
<g><path d="M379.34 219.33L399.27 199.41"
fill="none" stroke="black" stroke-width="3"/>
</g>
<g><path d="M379.34 202.42L399.27 182.5"
fill="none" stroke="black" stroke-width="3"/>
</g>
<g><path d="M182.5 399.27L202.42 379.34"
fill="none" stroke="black" stroke-width="3"/>
</g>
<g><path d="M165.59 399.27L185.52 379.34"
fill="none" stroke="black" stroke-width="3"/>
</g>
<g><path d="M379.34 185.52L399.27 165.59"
fill="none" stroke="black" stroke-width="3"/>
</g>
<g><path d="M379.34 168.61L399.27 148.68"
fill="none" stroke="black" stroke-width="3"/>
</g>
<g><path d="M148.68 399.27L168.61 379.34"
fill="none" stroke="black" stroke-width="3"/>
</g>
<g><path d="M131.77 399.27L151.7 379.34"
fill="none" stroke="black" stroke-width="3"/>
</g>
<g><path d="M379.34 151.7L399.27 131.77"
fill="none" stroke="black" stroke-width="3"/>
</g>
<g><path d="M379.34 134.79L399.27 114.86"
fill="none" stroke="black" stroke-width="3"/>
</g>
<g><path d="M114.86 399.27L134.79 379.34"
fill="none" stroke="black" stroke-width="3"/>
</g>
<g><path d="M97.96 399.27L117.88 379.34"
fill="none" stroke="black" stroke-width="3"/>
</g>
<g><path d="M379.34 117.88L399.27 97.96"
fill="none" stroke="black" stroke-width="3"/>
</g>
<g><path d="M379.34 100.97L399.27 81.05"
fill="none" stroke="black" stroke-width="3"/>
</g>
<g><path d="M81.05 399.27L100.97 379.34"
fill="none" stroke="black" stroke-width="3"/>
</g>
<g><path d="M64.14 399.27L84.07 379.34"
fill="none" stroke="black" stroke-width="3"/>
</g>
<g><path d="M379.34 84.07L399.27 64.14"
fill="none" stroke="black" stroke-width="3"/>
</g>
<g><path d="M379.34 67.16L399.27 47.23"
fill="none" stroke="black" stroke-width="3"/>
</g>
<g><path d="M47.23 399.27L67.16 379.34"
fill="none" stroke="black" stroke-width="3"/>
</g>
<g><path d="M30.32 399.27L50.25 379.34"
fill="none" stroke="black" stroke-width="3"/>
</g>
<g><path d="M379.34 50.25L399.27 30.32"
fill="none" stroke="black" stroke-width="3"/>
</g>
<g><path d="M379.34 33.34L399.27 13.41"
fill="none" stroke="black" stroke-width="3"/>
</g>
<g><path d="M13.41 399.27L33.34 379.34"
fill="none" stroke="black" stroke-width="3"/>
</g>
<g><path d="M0.73 395.04L20.66 375.11"
fill="none" stroke="black" stroke-width="3"/>
</g>
<g><path d="M375.11 20.66L395.04 0.73"
fill="none" stroke="black" stroke-width="3"/>
</g>
<g><path d="M358.2 20.66L378.13 0.73"
fill="none" stroke="black" stroke-width="3"/>
</g>
<g><path d="M0.73 378.13L20.66 358.2"
fill="none" stroke="black" stroke-width="3"/>
</g>
<g><path d="M0.73 361.22L20.66 341.3"
fill="none" stroke="black" stroke-width="3"/>
</g>
<g><path d="M341.3 20.66L361.22 0.73"
fill="none" stroke="black" stroke-width="3"/>
</g>
<g><path d="M324.39 20.66L344.31 0.73"
fill="none" stroke="black" stroke-width="3"/>
</g>
<g><path d="M0.73 344.31L20.66 324.39"
fill="none" stroke="black" stroke-width="3"/>
</g>
<g><path d="M0.73 327.41L20.66 307.48"
fill="none" stroke="black" stroke-width="3"/>
</g>
<g><path d="M307.48 20.66L327.41 0.73"
fill="none" stroke="black" stroke-width="3"/>
</g>
<g><path d="M290.57 20.66L310.5 0.73"
fill="none" stroke="black" stroke-width="3"/>
</g>
<g><path d="M0.73 310.5L20.66 290.57"
fill="none" stroke="black" stroke-width="3"/>
</g>
<g><path d="M0.73 293.59L20.66 273.66"
fill="none" stroke="black" stroke-width="3"/>
</g>
<g><path d="M273.66 20.66L293.59 0.73"
fill="none" stroke="black" stroke-width="3"/>
</g>
<g><path d="M256.75 20.66L276.68 0.73"
fill="none" stroke="black" stroke-width="3"/>
</g>
<g><path d="M0.73 276.68L20.66 256.75"
fill="none" stroke="black" stroke-width="3"/>
</g>
<g><path d="M0.73 259.77L20.66 239.85"
fill="none" stroke="black" stroke-width="3"/>
</g>
<g><path d="M239.85 20.66L259.77 0.73"
fill="none" stroke="black" stroke-width="3"/>
</g>
<g><path d="M222.94 20.66L242.86 0.73"
fill="none" stroke="black" stroke-width="3"/>
</g>
<g><path d="M0.73 242.86L20.66 222.94"
fill="none" stroke="black" stroke-width="3"/>
</g>
<g><path d="M0.73 225.96L20.66 206.03"
fill="none" stroke="black" stroke-width="3"/>
</g>
<g><path d="M206.03 20.66L225.96 0.73"
fill="none" stroke="black" stroke-width="3"/>
</g>
<g><path d="M189.12 20.66L209.05 0.73"
fill="none" stroke="black" stroke-width="3"/>
</g>
<g><path d="M0.73 209.05L20.66 189.12"
fill="none" stroke="black" stroke-width="3"/>
</g>
<g><path d="M0.73 192.14L20.66 172.21"
fill="none" stroke="black" stroke-width="3"/>
</g>
<g><path d="M172.21 20.66L192.14 0.73"
fill="none" stroke="black" stroke-width="3"/>
</g>
<g><path d="M155.3 20.66L175.23 0.73"
fill="none" stroke="black" stroke-width="3"/>
</g>
<g><path d="M0.73 175.23L20.66 155.3"
fill="none" stroke="black" stroke-width="3"/>
</g>
<g><path d="M0.73 158.32L20.66 138.4"
fill="none" stroke="black" stroke-width="3"/>
</g>
<g><path d="M138.4 20.66L158.32 0.73"
fill="none" stroke="black" stroke-width="3"/>
</g>
<g><path d="M121.49 20.66L141.41 0.73"
fill="none" stroke="black" stroke-width="3"/>
</g>
<g><path d="M0.73 141.41L20.66 121.49"
fill="none" stroke="black" stroke-width="3"/>
</g>
<g><path d="M0.73 124.51L20.66 104.58"
fill="none" stroke="black" stroke-width="3"/>
</g>
<g><path d="M104.58 20.66L124.51 0.73"
fill="none" stroke="black" stroke-width="3"/>
</g>
<g><path d="M87.67 20.66L107.6 0.73"
fill="none" stroke="black" stroke-width="3"/>
</g>
<g><path d="M0.73 107.6L20.66 87.67"
fill="none" stroke="black" stroke-width="3"/>
</g>
<g><path d="M0.73 90.69L20.66 70.76"
fill="none" stroke="black" stroke-width="3"/>
</g>
<g><path d="M70.76 20.66L90.69 0.73"
fill="none" stroke="black" stroke-width="3"/>
</g>
<g><path d="M53.85 20.66L73.78 0.73"
fill="none" stroke="black" stroke-width="3"/>
</g>
<g><path d="M0.73 73.78L20.66 53.85"
fill="none" stroke="black" stroke-width="3"/>
</g>
<g><path d="M0.73 56.87L20.66 36.95"
fill="none" stroke="black" stroke-width="3"/>
</g>
<g><path d="M36.95 20.66L56.87 0.73"
fill="none" stroke="black" stroke-width="3"/>
</g>
<g><path d="M0.73 39.96L39.96 0.73"
fill="none" stroke="black" stroke-width="3"/>
</g>
<g><path d="M0.73 23.06L23.06 0.73"
fill="none" stroke="black" stroke-width="3"/>
</g>
<g><path d="M0.73 6.15L6.15 0.73"
fill="none" stroke="black" stroke-width="3"/>
</g>
<g><path d="M398.08 399.27L399.27 398.08"
fill="none" stroke="black" stroke-width="3"/>
</g>
<g><path d="M381.17 399.27L399.27 381.17"
fill="none" stroke="black" stroke-width="3"/>
</g>
<g><path d="M364.26 399.27L399.27 364.26"
fill="none" stroke="black" stroke-width="3"/>
</g>
<g><path d="M379.34 367.28L399.27 347.35"
fill="none" stroke="black" stroke-width="3"/>
</g>
<g><path d="M347.35 399.27L367.28 379.34"
fill="none" stroke="black" stroke-width="3"/>
</g>
<g><path d="M330.45 399.27L350.37 379.34"
fill="none" stroke="black" stroke-width="3"/>
</g>
<g><path d="M379.34 350.37L399.27 330.45"
fill="none" stroke="black" stroke-width="3"/>
</g>
<g><path d="M379.34 333.46L399.27 313.54"
fill="none" stroke="black" stroke-width="3"/>
</g>
<g><path d="M313.54 399.27L333.46 379.34"
fill="none" stroke="black" stroke-width="3"/>
</g>
<g><path d="M296.63 399.27L316.56 379.34"
fill="none" stroke="black" stroke-width="3"/>
</g>
<g><path d="M379.34 316.56L399.27 296.63"
fill="none" stroke="black" stroke-width="3"/>
</g>
<g><path d="M379.34 299.65L399.27 279.72"
fill="none" stroke="black" stroke-width="3"/>
</g>
<g><path d="M279.72 399.27L299.65 379.34"
fill="none" stroke="black" stroke-width="3"/>
</g>
<g><path d="M262.81 399.27L282.74 379.34"
fill="none" stroke="black" stroke-width="3"/>
</g>
<g><path d="M379.34 282.74L399.27 262.81"
fill="none" stroke="black" stroke-width="3"/>
</g>
<g><path d="M379.34 265.83L399.27 245.9"
fill="none" stroke="black" stroke-width="3"/>
</g>
<g><path d="M245.9 399.27L265.83 379.34"
fill="none" stroke="black" stroke-width="3"/>
</g>
<g><path d="M229 399.27L248.92 379.34"
fill="none" stroke="black" stroke-width="3"/>
</g>
<g><path d="M379.34 248.92L399.27 229"
fill="none" stroke="black" stroke-width="3"/>
</g>
<g><path d="M379.34 232.01L399.27 212.09"
fill="none" stroke="black" stroke-width="3"/>
</g>
<g><path d="M212.09 399.27L232.01 379.34"
fill="none" stroke="black" stroke-width="3"/>
</g>
<g><path d="M195.18 399.27L215.11 379.34"
fill="none" stroke="black" stroke-width="3"/>
</g>
<g><path d="M379.34 215.11L399.27 195.18"
fill="none" stroke="black" stroke-width="3"/>
</g>
<g><path d="M379.34 198.2L399.27 178.27"
fill="none" stroke="black" stroke-width="3"/>
</g>
<g><path d="M178.27 399.27L198.2 379.34"
fill="none" stroke="black" stroke-width="3"/>
</g>
<g><path d="M161.36 399.27L181.29 379.34"
fill="none" stroke="black" stroke-width="3"/>
</g>
<g><path d="M379.34 181.29L399.27 161.36"
fill="none" stroke="black" stroke-width="3"/>
</g>
<g><path d="M379.34 164.38L399.27 144.45"
fill="none" stroke="black" stroke-width="3"/>
</g>
<g><path d="M144.45 399.27L164.38 379.34"
fill="none" stroke="black" stroke-width="3"/>
</g>
<g><path d="M127.55 399.27L147.47 379.34"
fill="none" stroke="black" stroke-width="3"/>
</g>
<g><path d="M379.34 147.47L399.27 127.55"
fill="none" stroke="black" stroke-width="3"/>
</g>
<g><path d="M379.34 130.56L399.27 110.64"
fill="none" stroke="black" stroke-width="3"/>
</g>
<g><path d="M110.64 399.27L130.56 379.34"
fill="none" stroke="black" stroke-width="3"/>
</g>
<g><path d="M93.73 399.27L113.66 379.34"
fill="none" stroke="black" stroke-width="3"/>
</g>
<g><path d="M379.34 113.66L399.27 93.73"
fill="none" stroke="black" stroke-width="3"/>
</g>
<g><path d="M379.34 96.75L399.27 76.82"
fill="none" stroke="black" stroke-width="3"/>
</g>
<g><path d="M76.82 399.27L96.75 379.34"
fill="none" stroke="black" stroke-width="3"/>
</g>
<g><path d="M59.91 399.27L79.84 379.34"
fill="none" stroke="black" stroke-width="3"/>
</g>
<g><path d="M379.34 79.84L399.27 59.91"
fill="none" stroke="black" stroke-width="3"/>
</g>
<g><path d="M379.34 62.93L399.27 43"
fill="none" stroke="black" stroke-width="3"/>
</g>
<g><path d="M43 399.27L62.93 379.34"
fill="none" stroke="black" stroke-width="3"/>
</g>
<g><path d="M26.1 399.27L46.02 379.34"
fill="none" stroke="black" stroke-width="3"/>
</g>
<g><path d="M379.34 46.02L399.27 26.1"
fill="none" stroke="black" stroke-width="3"/>
</g>
<g><path d="M379.34 29.11L399.27 9.19"
fill="none" stroke="black" stroke-width="3"/>
</g>
<g><path d="M9.19 399.27L29.11 379.34"
fill="none" stroke="black" stroke-width="3"/>
</g>
<g><path d="M0.73 390.81L20.66 370.89"
fill="none" stroke="black" stroke-width="3"/>
</g>
<g><path d="M370.89 20.66L390.81 0.73"
fill="none" stroke="black" stroke-width="3"/>
</g>
<g><path d="M353.98 20.66L373.9 0.73"
fill="none" stroke="black" stroke-width="3"/>
</g>
<g><path d="M0.73 373.9L20.66 353.98"
fill="none" stroke="black" stroke-width="3"/>
</g>
<g><path d="M0.73 357L20.66 337.07"
fill="none" stroke="black" stroke-width="3"/>
</g>
<g><path d="M337.07 20.66L357 0.73"
fill="none" stroke="black" stroke-width="3"/>
</g>
<g><path d="M320.16 20.66L340.09 0.73"
fill="none" stroke="black" stroke-width="3"/>
</g>
<g><path d="M0.73 340.09L20.66 320.16"
fill="none" stroke="black" stroke-width="3"/>
</g>
<g><path d="M0.73 323.18L20.66 303.25"
fill="none" stroke="black" stroke-width="3"/>
</g>
<g><path d="M303.25 20.66L323.18 0.73"
fill="none" stroke="black" stroke-width="3"/>
</g>
<g><path d="M286.34 20.66L306.27 0.73"
fill="none" stroke="black" stroke-width="3"/>
</g>
<g><path d="M0.73 306.27L20.66 286.34"
fill="none" stroke="black" stroke-width="3"/>
</g>
<g><path d="M0.73 289.36L20.66 269.44"
fill="none" stroke="black" stroke-width="3"/>
</g>
<g><path d="M269.44 20.66L289.36 0.73"
fill="none" stroke="black" stroke-width="3"/>
</g>
<g><path d="M252.53 20.66L272.45 0.73"
fill="none" stroke="black" stroke-width="3"/>
</g>
<g><path d="M0.73 272.45L20.66 252.53"
fill="none" stroke="black" stroke-width="3"/>
</g>
<g><path d="M0.73 255.55L20.66 235.62"
fill="none" stroke="black" stroke-width="3"/>
</g>
<g><path d="M235.62 20.66L255.55 0.73"
fill="none" stroke="black" stroke-width="3"/>
</g>
<g><path d="M218.71 20.66L238.64 0.73"
fill="none" stroke="black" stroke-width="3"/>
</g>
<g><path d="M0.73 238.64L20.66 218.71"
fill="none" stroke="black" stroke-width="3"/>
</g>
<g><path d="M0.73 221.73L20.66 201.8"
fill="none" stroke="black" stroke-width="3"/>
</g>
<g><path d="M201.8 20.66L221.73 0.73"
fill="none" stroke="black" stroke-width="3"/>
</g>
<g><path d="M184.89 20.66L204.82 0.73"
fill="none" stroke="black" stroke-width="3"/>
</g>
<g><path d="M0.73 204.82L20.66 184.89"
fill="none" stroke="black" stroke-width="3"/>
</g>
<g><path d="M0.73 187.91L20.66 167.99"
fill="none" stroke="black" stroke-width="3"/>
</g>
<g><path d="M167.99 20.66L187.91 0.73"
fill="none" stroke="black" stroke-width="3"/>
</g>
<g><path d="M151.08 20.66L171 0.73"
fill="none" stroke="black" stroke-width="3"/>
</g>
<g><path d="M0.73 171L20.66 151.08"
fill="none" stroke="black" stroke-width="3"/>
</g>
<g><path d="M0.73 154.1L20.66 134.17"
fill="none" stroke="black" stroke-width="3"/>
</g>
<g><path d="M134.17 20.66L154.1 0.73"
fill="none" stroke="black" stroke-width="3"/>
</g>
<g><path d="M117.26 20.66L137.19 0.73"
fill="none" stroke="black" stroke-width="3"/>
</g>
<g><path d="M0.73 137.19L20.66 117.26"
fill="none" stroke="black" stroke-width="3"/>
</g>
<g><path d="M0.73 120.28L20.66 100.35"
fill="none" stroke="black" stroke-width="3"/>
</g>
<g><path d="M100.35 20.66L120.28 0.73"
fill="none" stroke="black" stroke-width="3"/>
</g>
<g><path d="M83.44 20.66L103.37 0.73"
fill="none" stroke="black" stroke-width="3"/>
</g>
<g><path d="M0.73 103.37L20.66 83.44"
fill="none" stroke="black" stroke-width="3"/>
</g>
<g><path d="M0.73 86.46L20.66 66.54"
fill="none" stroke="black" stroke-width="3"/>
</g>
<g><path d="M66.54 20.66L86.46 0.73"
fill="none" stroke="black" stroke-width="3"/>
</g>
<g><path d="M49.63 20.66L69.55 0.73"
fill="none" stroke="black" stroke-width="3"/>
</g>
<g><path d="M0.73 69.55L20.66 49.63"
fill="none" stroke="black" stroke-width="3"/>
</g>
<g><path d="M0.73 52.65L20.66 32.72"
fill="none" stroke="black" stroke-width="3"/>
</g>
<g><path d="M32.72 20.66L52.65 0.73"
fill="none" stroke="black" stroke-width="3"/>
</g>
<g><path d="M0.73 35.74L35.74 0.73"
fill="none" stroke="black" stroke-width="3"/>
</g>
<g><path d="M0.73 18.83L18.83 0.73"
fill="none" stroke="black" stroke-width="3"/>
</g>
<g><path d="M0.73 1.92L1.92 0.73"
fill="none" stroke="black" stroke-width="3"/>
</g>
</g>
</svg>
