<?xml version="1.0" standalone="no"?><svg xmlns="http://www.w3.org/2000/svg" width="400.000" height="400.000" viewBox="0.0 0.0 400.000 400.000" version="1.1">
  <title>Produce by Acme CAD Converter</title>
  <desc>Produce by Acme CAD Converter</desc>
<g id="0" display="visible">
<g><path d="M20.66 399.27L19.14 391.64M19.14 391.64L14.82 385.18M14.82 385.18L8.36 380.86M8.36 380.86L0.73 379.34"
fill="none" stroke="black" stroke-width="3"/>
</g>
<g><path d="M40.59 399.27L38.64 386.95M38.64 386.95L32.98 375.84M32.98 375.84L24.16 367.02M24.16 367.02L13.05 361.36M13.05 361.36L0.73 359.41"
fill="none" stroke="black" stroke-width="3"/>
</g>
<g><path d="M60.51 399.27L59.01 385.96M59.01 385.96L54.59 373.33M54.59 373.33L47.47 361.99M47.47 361.99L38.01 352.53M38.01 352.53L26.67 345.41M26.67 345.41L14.04 340.99M14.04 340.99L0.73 339.49"
fill="none" stroke="black" stroke-width="3"/>
</g>
<g><path d="M80.44 399.27L78.91 383.72M78.91 383.72L74.37 368.76M74.37 368.76L67.01 354.98M67.01 354.98L57.09 342.91M57.09 342.91L45.02 332.99M45.02 332.99L31.24 325.63M31.24 325.63L16.28 321.09M16.28 321.09L0.73 319.56"
fill="none" stroke="black" stroke-width="3"/>
</g>
<g><path d="M100.37 399.27L98.45 379.83M98.45 379.83L92.78 361.14M92.78 361.14L83.58 343.91M83.58 343.91L71.18 328.82M71.18 328.82L56.09 316.42M56.09 316.42L38.86 307.22M38.86 307.22L20.17 301.55M20.17 301.55L0.73 299.63"
fill="none" stroke="black" stroke-width="3"/>
</g>
<g><path d="M120.29 399.27L118.48 378.51M118.48 378.51L113.08 358.37M113.08 358.37L104.28 339.49M104.28 339.49L92.32 322.41M92.32 322.41L77.59 307.68M77.59 307.68L60.51 295.72M60.51 295.72L41.63 286.92M41.63 286.92L21.49 281.52M21.49 281.52L0.73 279.71"
fill="none" stroke="black" stroke-width="3"/>
</g>
<g><path d="M140.22 399.27L138.5 377.45M138.5 377.45L133.39 356.16M133.39 356.16L125.02 335.94M125.02 335.94L113.58 317.28M113.58 317.28L99.37 300.63M99.37 300.63L82.72 286.42M82.72 286.42L64.06 274.98M64.06 274.98L43.84 266.61M43.84 266.61L22.55 261.5M22.55 261.5L0.73 259.78"
fill="none" stroke="black" stroke-width="3"/>
</g>
<g><path d="M160.15 399.27L158.18 374.33M158.18 374.33L152.34 350.01M152.34 350.01L142.77 326.89M142.77 326.89L129.7 305.57M129.7 305.57L113.46 286.54M113.46 286.54L94.43 270.3M94.43 270.3L73.11 257.23M73.11 257.23L49.99 247.66M49.99 247.66L25.67 241.82M25.67 241.82L0.73 239.85"
fill="none" stroke="black" stroke-width="3"/>
</g>
<g><path d="M180.07 399.27L178.25 373.74M178.25 373.74L172.81 348.74M172.81 348.74L163.87 324.77M163.87 324.77L151.6 302.31M151.6 302.31L136.27 281.82M136.27 281.82L118.18 263.73M118.18 263.73L97.69 248.4M97.69 248.4L75.23 236.13M75.23 236.13L51.26 227.19M51.26 227.19L26.26 221.75M26.26 221.75L0.73 219.93"
fill="none" stroke="black" stroke-width="3"/>
</g>
<g><path d="M200 399.27L198.3 373.26M198.3 373.26L193.21 347.69M193.21 347.69L184.83 323.01M184.83 323.01L173.3 299.63M173.3 299.63L158.82 277.96M158.82 277.96L141.64 258.36M141.64 258.36L122.04 241.18M122.04 241.18L100.37 226.7M100.37 226.7L76.99 215.17M76.99 215.17L52.31 206.79M52.31 206.79L26.74 201.7M26.74 201.7L0.73 200"
fill="none" stroke="black" stroke-width="3"/>
</g>
<g><path d="M219.93 399.27L218.05 370.66M218.05 370.66L212.46 342.54M212.46 342.54L203.24 315.39M203.24 315.39L190.56 289.67M190.56 289.67L174.63 265.83M174.63 265.83L155.73 244.27M155.73 244.27L134.17 225.37M134.17 225.37L110.33 209.44M110.33 209.44L84.61 196.76M84.61 196.76L57.46 187.54M57.46 187.54L29.34 181.95M29.34 181.95L0.73 180.07"
fill="none" stroke="black" stroke-width="3"/>
</g>
<g><path d="M239.85 399.27L238.11 370.44M238.11 370.44L232.9 342.04M232.9 342.04L224.31 314.47M224.31 314.47L212.46 288.14M212.46 288.14L197.53 263.43M197.53 263.43L179.72 240.7M179.72 240.7L159.3 220.28M159.3 220.28L136.57 202.47M136.57 202.47L111.86 187.54M111.86 187.54L85.53 175.69M85.53 175.69L57.96 167.1M57.96 167.1L29.56 161.89M29.56 161.89L0.73 160.15"
fill="none" stroke="black" stroke-width="3"/>
</g>
<g><path d="M259.78 399.27L257.89 368.04M257.89 368.04L252.25 337.27M252.25 337.27L242.95 307.41M242.95 307.41L230.11 278.88M230.11 278.88L213.92 252.11M213.92 252.11L194.63 227.49M194.63 227.49L172.51 205.37M172.51 205.37L147.89 186.08M147.89 186.08L121.12 169.89M121.12 169.89L92.59 157.05M92.59 157.05L62.73 147.75M62.73 147.75L31.96 142.11M31.96 142.11L0.73 140.22"
fill="none" stroke="black" stroke-width="3"/>
</g>
<g><path d="M279.71 399.27L277.95 368.03M277.95 368.03L272.71 337.19M272.71 337.19L264.05 307.13M264.05 307.13L252.08 278.22M252.08 278.22L236.95 250.84M236.95 250.84L218.84 225.33M218.84 225.33L198 202M198 202L174.67 181.16M174.67 181.16L149.16 163.05M149.16 163.05L121.78 147.92M121.78 147.92L92.87 135.95M92.87 135.95L62.81 127.29M62.81 127.29L31.97 122.05M31.97 122.05L0.73 120.29"
fill="none" stroke="black" stroke-width="3"/>
</g>
<g><path d="M299.63 399.27L297.75 365.8M297.75 365.8L292.14 332.76M292.14 332.76L282.86 300.55M282.86 300.55L270.03 269.58M270.03 269.58L253.82 240.24M253.82 240.24L234.42 212.91M234.42 212.91L212.09 187.91M212.09 187.91L187.09 165.58M187.09 165.58L159.76 146.18M159.76 146.18L130.42 129.97M130.42 129.97L99.45 117.14M99.45 117.14L67.24 107.86M67.24 107.86L34.2 102.25M34.2 102.25L0.73 100.37"
fill="none" stroke="black" stroke-width="3"/>
</g>
<g><path d="M319.56 399.27L317.81 365.94M317.81 365.94L312.59 332.98M312.59 332.98L303.96 300.74M303.96 300.74L292 269.59M292 269.59L276.85 239.85M276.85 239.85L258.67 211.87M258.67 211.87L237.67 185.93M237.67 185.93L214.07 162.33M214.07 162.33L188.13 141.33M188.13 141.33L160.15 123.15M160.15 123.15L130.41 108M130.41 108L99.26 96.04M99.26 96.04L67.02 87.41M67.02 87.41L34.06 82.19M34.06 82.19L0.73 80.44"
fill="none" stroke="black" stroke-width="3"/>
</g>
<g><path d="M339.49 399.27L337.63 363.86M337.63 363.86L332.08 328.84M332.08 328.84L322.91 294.59M322.91 294.59L310.2 261.48M310.2 261.48L294.1 229.89M294.1 229.89L274.79 200.15M274.79 200.15L252.48 172.6M252.48 172.6L227.4 147.52M227.4 147.52L199.85 125.21M199.85 125.21L170.11 105.9M170.11 105.9L138.52 89.8M138.52 89.8L105.41 77.09M105.41 77.09L71.16 67.92M71.16 67.92L36.14 62.37M36.14 62.37L0.73 60.51"
fill="none" stroke="black" stroke-width="3"/>
</g>
<g><path d="M359.41 399.27L357.45 361.77M357.45 361.77L351.58 324.69M351.58 324.69L341.86 288.43M341.86 288.43L328.4 253.38M328.4 253.38L311.36 219.93M311.36 219.93L290.91 188.44M290.91 188.44L267.28 159.26M267.28 159.26L240.74 132.72M240.74 132.72L211.56 109.09M211.56 109.09L180.07 88.64M180.07 88.64L146.62 71.6M146.62 71.6L111.57 58.14M111.57 58.14L75.31 48.42M75.31 48.42L38.23 42.55M38.23 42.55L0.73 40.59"
fill="none" stroke="black" stroke-width="3"/>
</g>
<g><path d="M379.34 399.27L377.52 362.16M377.52 362.16L372.07 325.4M372.07 325.4L363.04 289.36M363.04 289.36L350.52 254.38M350.52 254.38L334.63 220.79M334.63 220.79L315.53 188.92M315.53 188.92L293.4 159.08M293.4 159.08L268.45 131.55M268.45 131.55L240.92 106.6M240.92 106.6L211.08 84.47M211.08 84.47L179.21 65.37M179.21 65.37L145.62 49.48M145.62 49.48L110.64 36.96M110.64 36.96L74.6 27.93M74.6 27.93L37.84 22.48M37.84 22.48L0.73 20.66"
fill="none" stroke="black" stroke-width="3"/>
</g>
<g><path d="M399.27 399.27L397.35 360.2M397.35 360.2L391.61 321.52M391.61 321.52L382.11 283.58M382.11 283.58L368.93 246.75M368.93 246.75L352.21 211.4M352.21 211.4L332.1 177.85M332.1 177.85L308.8 146.44M308.8 146.44L282.54 117.46M282.54 117.46L253.56 91.2M253.56 91.2L222.15 67.9M222.15 67.9L188.6 47.79M188.6 47.79L153.25 31.07M153.25 31.07L116.42 17.89M116.42 17.89L78.48 8.39M78.48 8.39L39.8 2.65M39.8 2.65L0.73 0.73"
fill="none" stroke="black" stroke-width="3"/>
</g>
<g><path d="M399.27 271.67L385.35 234.4M385.35 234.4L367.95 198.62M367.95 198.62L347.24 164.65M347.24 164.65L323.39 132.81M323.39 132.81L296.63 103.37M296.63 103.37L267.19 76.61M267.19 76.61L235.35 52.76M235.35 52.76L201.38 32.05M201.38 32.05L165.6 14.65M165.6 14.65L128.33 0.73"
fill="none" stroke="black" stroke-width="3"/>
</g>
<g><path d="M399.27 216.64L381.47 181.96M381.47 181.96L360.67 149.01M360.67 149.01L337.02 118.03M337.02 118.03L310.72 89.28M310.72 89.28L281.97 62.98M281.97 62.98L250.99 39.33M250.99 39.33L218.04 18.53M218.04 18.53L183.36 0.73"
fill="none" stroke="black" stroke-width="3"/>
</g>
<g><path d="M399.27 172.94L377.41 138.17M377.41 138.17L352.52 105.5M352.52 105.5L324.81 75.19M324.81 75.19L294.5 47.48M294.5 47.48L261.83 22.59M261.83 22.59L227.06 0.73"
fill="none" stroke="black" stroke-width="3"/>
</g>
<g><path d="M399.27 134.91L376.9 103.95M376.9 103.95L352.13 74.87M352.13 74.87L325.13 47.87M325.13 47.87L296.05 23.1M296.05 23.1L265.09 0.73"
fill="none" stroke="black" stroke-width="3"/>
</g>
<g><path d="M399.27 100.37L377.08 72.87M377.08 72.87L352.99 47.01M352.99 47.01L327.13 22.92M327.13 22.92L299.63 0.73"
fill="none" stroke="black" stroke-width="3"/>
</g>
<g><path d="M399.27 68.22L378.17 44.35M378.17 44.35L355.65 21.83M355.65 21.83L331.78 0.73"
fill="none" stroke="black" stroke-width="3"/>
</g>
<g><path d="M399.27 37.83L381.17 18.83M381.17 18.83L362.17 0.73"
fill="none" stroke="black" stroke-width="3"/>
</g>
<g><path d="M399.27 8.79L391.21 0.73"
fill="none" stroke="black" stroke-width="3"/>
</g>
</g>
</svg>
