<?xml version="1.0" standalone="no"?><svg xmlns="http://www.w3.org/2000/svg" width="400.000" height="400.000" viewBox="0.0 0.0 400.000 400.000" version="1.1">
  <title>Produce by Acme CAD Converter</title>
  <desc>Produce by Acme CAD Converter</desc>
<g id="0" display="visible">
<g><path d="M395.26 399.27L399.27 395.26"
fill="none" stroke="black" stroke-width="3"/>
</g>
<g><path d="M367.08 399.27L399.27 367.08"
fill="none" stroke="black" stroke-width="3"/>
</g>
<g><path d="M338.9 399.27L399.27 338.9"
fill="none" stroke="black" stroke-width="3"/>
</g>
<g><path d="M310.72 399.27L399.27 310.72"
fill="none" stroke="black" stroke-width="3"/>
</g>
<g><path d="M282.54 399.27L399.27 282.54"
fill="none" stroke="black" stroke-width="3"/>
</g>
<g><path d="M254.36 399.27L399.27 254.36"
fill="none" stroke="black" stroke-width="3"/>
</g>
<g><path d="M226.18 399.27L399.27 226.18"
fill="none" stroke="black" stroke-width="3"/>
</g>
<g><path d="M198 399.27L399.27 198"
fill="none" stroke="black" stroke-width="3"/>
</g>
<g><path d="M169.82 399.27L399.27 169.82"
fill="none" stroke="black" stroke-width="3"/>
</g>
<g><path d="M141.64 399.27L399.27 141.64"
fill="none" stroke="black" stroke-width="3"/>
</g>
<g><path d="M113.46 399.27L399.27 113.46"
fill="none" stroke="black" stroke-width="3"/>
</g>
<g><path d="M85.28 399.27L399.27 85.28"
fill="none" stroke="black" stroke-width="3"/>
</g>
<g><path d="M57.09 399.27L399.27 57.09"
fill="none" stroke="black" stroke-width="3"/>
</g>
<g><path d="M28.91 399.27L399.27 28.91"
fill="none" stroke="black" stroke-width="3"/>
</g>
<g><path d="M0.73 399.27L399.27 0.73"
fill="none" stroke="black" stroke-width="3"/>
</g>
<g><path d="M0.73 371.09L371.09 0.73"
fill="none" stroke="black" stroke-width="3"/>
</g>
<g><path d="M0.73 342.91L342.91 0.73"
fill="none" stroke="black" stroke-width="3"/>
</g>
<g><path d="M0.73 314.72L314.72 0.73"
fill="none" stroke="black" stroke-width="3"/>
</g>
<g><path d="M0.73 286.54L286.54 0.73"
fill="none" stroke="black" stroke-width="3"/>
</g>
<g><path d="M0.73 258.36L258.36 0.73"
fill="none" stroke="black" stroke-width="3"/>
</g>
<g><path d="M0.73 230.18L230.18 0.73"
fill="none" stroke="black" stroke-width="3"/>
</g>
<g><path d="M0.73 202L202 0.73"
fill="none" stroke="black" stroke-width="3"/>
</g>
<g><path d="M0.73 173.82L173.82 0.73"
fill="none" stroke="black" stroke-width="3"/>
</g>
<g><path d="M0.73 145.64L145.64 0.73"
fill="none" stroke="black" stroke-width="3"/>
</g>
<g><path d="M0.73 117.46L117.46 0.73"
fill="none" stroke="black" stroke-width="3"/>
</g>
<g><path d="M0.73 89.28L89.28 0.73"
fill="none" stroke="black" stroke-width="3"/>
</g>
<g><path d="M0.73 61.1L61.1 0.73"
fill="none" stroke="black" stroke-width="3"/>
</g>
<g><path d="M0.73 32.92L32.92 0.73"
fill="none" stroke="black" stroke-width="3"/>
</g>
<g><path d="M0.73 4.74L4.74 0.73"
fill="none" stroke="black" stroke-width="3"/>
</g>
<g><path d="M389.63 399.27L399.27 389.63"
fill="none" stroke="black" stroke-width="3"/>
</g>
<g><path d="M361.44 399.27L399.27 361.44"
fill="none" stroke="black" stroke-width="3"/>
</g>
<g><path d="M333.26 399.27L399.27 333.26"
fill="none" stroke="black" stroke-width="3"/>
</g>
<g><path d="M305.08 399.27L399.27 305.08"
fill="none" stroke="black" stroke-width="3"/>
</g>
<g><path d="M276.9 399.27L399.27 276.9"
fill="none" stroke="black" stroke-width="3"/>
</g>
<g><path d="M248.72 399.27L399.27 248.72"
fill="none" stroke="black" stroke-width="3"/>
</g>
<g><path d="M220.54 399.27L399.27 220.54"
fill="none" stroke="black" stroke-width="3"/>
</g>
<g><path d="M192.36 399.27L399.27 192.36"
fill="none" stroke="black" stroke-width="3"/>
</g>
<g><path d="M164.18 399.27L399.27 164.18"
fill="none" stroke="black" stroke-width="3"/>
</g>
<g><path d="M136 399.27L399.27 136"
fill="none" stroke="black" stroke-width="3"/>
</g>
<g><path d="M107.82 399.27L399.27 107.82"
fill="none" stroke="black" stroke-width="3"/>
</g>
<g><path d="M79.64 399.27L399.27 79.64"
fill="none" stroke="black" stroke-width="3"/>
</g>
<g><path d="M51.46 399.27L399.27 51.46"
fill="none" stroke="black" stroke-width="3"/>
</g>
<g><path d="M23.28 399.27L399.27 23.28"
fill="none" stroke="black" stroke-width="3"/>
</g>
<g><path d="M0.73 393.63L393.63 0.73"
fill="none" stroke="black" stroke-width="3"/>
</g>
<g><path d="M0.73 365.45L365.45 0.73"
fill="none" stroke="black" stroke-width="3"/>
</g>
<g><path d="M0.73 337.27L337.27 0.73"
fill="none" stroke="black" stroke-width="3"/>
</g>
<g><path d="M0.73 309.09L309.09 0.73"
fill="none" stroke="black" stroke-width="3"/>
</g>
<g><path d="M0.73 280.91L280.91 0.73"
fill="none" stroke="black" stroke-width="3"/>
</g>
<g><path d="M0.73 252.73L252.73 0.73"
fill="none" stroke="black" stroke-width="3"/>
</g>
<g><path d="M0.73 224.55L224.55 0.73"
fill="none" stroke="black" stroke-width="3"/>
</g>
<g><path d="M0.73 196.37L196.37 0.73"
fill="none" stroke="black" stroke-width="3"/>
</g>
<g><path d="M0.73 168.19L168.19 0.73"
fill="none" stroke="black" stroke-width="3"/>
</g>
<g><path d="M0.73 140.01L140.01 0.73"
fill="none" stroke="black" stroke-width="3"/>
</g>
<g><path d="M0.73 111.82L111.82 0.73"
fill="none" stroke="black" stroke-width="3"/>
</g>
<g><path d="M0.73 83.64L83.64 0.73"
fill="none" stroke="black" stroke-width="3"/>
</g>
<g><path d="M0.73 55.46L55.46 0.73"
fill="none" stroke="black" stroke-width="3"/>
</g>
<g><path d="M0.73 27.28L27.28 0.73"
fill="none" stroke="black" stroke-width="3"/>
</g>
<g><path d="M378.35 399.27L386.81 390.81"
fill="none" stroke="black" stroke-width="3"/>
</g>
<g><path d="M392.44 385.18L395.26 382.36"
fill="none" stroke="black" stroke-width="3"/>
</g>
<g><path d="M350.17 399.27L372.72 376.72"
fill="none" stroke="black" stroke-width="3"/>
</g>
<g><path d="M378.35 371.09L381.17 368.27"
fill="none" stroke="black" stroke-width="3"/>
</g>
<g><path d="M386.81 362.63L399.27 350.17"
fill="none" stroke="black" stroke-width="3"/>
</g>
<g><path d="M321.99 399.27L324.81 396.45"
fill="none" stroke="black" stroke-width="3"/>
</g>
<g><path d="M330.45 390.81L358.63 362.63"
fill="none" stroke="black" stroke-width="3"/>
</g>
<g><path d="M364.26 357L367.08 354.18"
fill="none" stroke="black" stroke-width="3"/>
</g>
<g><path d="M372.72 348.54L399.27 321.99"
fill="none" stroke="black" stroke-width="3"/>
</g>
<g><path d="M293.81 399.27L302.27 390.81"
fill="none" stroke="black" stroke-width="3"/>
</g>
<g><path d="M307.9 385.18L310.72 382.36"
fill="none" stroke="black" stroke-width="3"/>
</g>
<g><path d="M316.36 376.72L344.54 348.54"
fill="none" stroke="black" stroke-width="3"/>
</g>
<g><path d="M350.17 342.91L352.99 340.09"
fill="none" stroke="black" stroke-width="3"/>
</g>
<g><path d="M358.63 334.45L386.81 306.27"
fill="none" stroke="black" stroke-width="3"/>
</g>
<g><path d="M392.44 300.63L395.26 297.82"
fill="none" stroke="black" stroke-width="3"/>
</g>
<g><path d="M265.63 399.27L288.18 376.72"
fill="none" stroke="black" stroke-width="3"/>
</g>
<g><path d="M293.81 371.09L296.63 368.27"
fill="none" stroke="black" stroke-width="3"/>
</g>
<g><path d="M302.27 362.63L330.45 334.45"
fill="none" stroke="black" stroke-width="3"/>
</g>
<g><path d="M336.08 328.82L338.9 326"
fill="none" stroke="black" stroke-width="3"/>
</g>
<g><path d="M344.54 320.36L372.72 292.18"
fill="none" stroke="black" stroke-width="3"/>
</g>
<g><path d="M378.35 286.54L381.17 283.73"
fill="none" stroke="black" stroke-width="3"/>
</g>
<g><path d="M386.81 278.09L399.27 265.63"
fill="none" stroke="black" stroke-width="3"/>
</g>
<g><path d="M237.45 399.27L240.27 396.45"
fill="none" stroke="black" stroke-width="3"/>
</g>
<g><path d="M245.9 390.81L274.08 362.63"
fill="none" stroke="black" stroke-width="3"/>
</g>
<g><path d="M279.72 357L282.54 354.18"
fill="none" stroke="black" stroke-width="3"/>
</g>
<g><path d="M288.18 348.54L316.36 320.36"
fill="none" stroke="black" stroke-width="3"/>
</g>
<g><path d="M321.99 314.72L324.81 311.91"
fill="none" stroke="black" stroke-width="3"/>
</g>
<g><path d="M330.45 306.27L358.63 278.09"
fill="none" stroke="black" stroke-width="3"/>
</g>
<g><path d="M364.26 272.45L367.08 269.64"
fill="none" stroke="black" stroke-width="3"/>
</g>
<g><path d="M372.72 264L399.27 237.45"
fill="none" stroke="black" stroke-width="3"/>
</g>
<g><path d="M209.27 399.27L217.72 390.81"
fill="none" stroke="black" stroke-width="3"/>
</g>
<g><path d="M223.36 385.18L226.18 382.36"
fill="none" stroke="black" stroke-width="3"/>
</g>
<g><path d="M231.81 376.72L259.99 348.54"
fill="none" stroke="black" stroke-width="3"/>
</g>
<g><path d="M265.63 342.91L268.45 340.09"
fill="none" stroke="black" stroke-width="3"/>
</g>
<g><path d="M274.08 334.45L302.27 306.27"
fill="none" stroke="black" stroke-width="3"/>
</g>
<g><path d="M307.9 300.63L310.72 297.82"
fill="none" stroke="black" stroke-width="3"/>
</g>
<g><path d="M316.36 292.18L344.54 264"
fill="none" stroke="black" stroke-width="3"/>
</g>
<g><path d="M350.17 258.36L352.99 255.55"
fill="none" stroke="black" stroke-width="3"/>
</g>
<g><path d="M358.63 249.91L386.81 221.73"
fill="none" stroke="black" stroke-width="3"/>
</g>
<g><path d="M392.44 216.09L395.26 213.27"
fill="none" stroke="black" stroke-width="3"/>
</g>
<g><path d="M181.09 399.27L203.63 376.72"
fill="none" stroke="black" stroke-width="3"/>
</g>
<g><path d="M209.27 371.09L212.09 368.27"
fill="none" stroke="black" stroke-width="3"/>
</g>
<g><path d="M217.72 362.63L245.9 334.45"
fill="none" stroke="black" stroke-width="3"/>
</g>
<g><path d="M251.54 328.82L254.36 326"
fill="none" stroke="black" stroke-width="3"/>
</g>
<g><path d="M259.99 320.36L288.18 292.18"
fill="none" stroke="black" stroke-width="3"/>
</g>
<g><path d="M293.81 286.54L296.63 283.73"
fill="none" stroke="black" stroke-width="3"/>
</g>
<g><path d="M302.27 278.09L330.45 249.91"
fill="none" stroke="black" stroke-width="3"/>
</g>
<g><path d="M336.08 244.27L338.9 241.46"
fill="none" stroke="black" stroke-width="3"/>
</g>
<g><path d="M344.54 235.82L372.72 207.64"
fill="none" stroke="black" stroke-width="3"/>
</g>
<g><path d="M378.35 202L381.17 199.18"
fill="none" stroke="black" stroke-width="3"/>
</g>
<g><path d="M386.81 193.55L399.27 181.09"
fill="none" stroke="black" stroke-width="3"/>
</g>
<g><path d="M152.91 399.27L155.73 396.45"
fill="none" stroke="black" stroke-width="3"/>
</g>
<g><path d="M161.36 390.81L189.54 362.63"
fill="none" stroke="black" stroke-width="3"/>
</g>
<g><path d="M195.18 357L198 354.18"
fill="none" stroke="black" stroke-width="3"/>
</g>
<g><path d="M203.63 348.54L231.81 320.36"
fill="none" stroke="black" stroke-width="3"/>
</g>
<g><path d="M237.45 314.72L240.27 311.91"
fill="none" stroke="black" stroke-width="3"/>
</g>
<g><path d="M245.9 306.27L274.08 278.09"
fill="none" stroke="black" stroke-width="3"/>
</g>
<g><path d="M279.72 272.45L282.54 269.64"
fill="none" stroke="black" stroke-width="3"/>
</g>
<g><path d="M288.18 264L316.36 235.82"
fill="none" stroke="black" stroke-width="3"/>
</g>
<g><path d="M321.99 230.18L324.81 227.37"
fill="none" stroke="black" stroke-width="3"/>
</g>
<g><path d="M330.45 221.73L358.63 193.55"
fill="none" stroke="black" stroke-width="3"/>
</g>
<g><path d="M364.26 187.91L367.08 185.09"
fill="none" stroke="black" stroke-width="3"/>
</g>
<g><path d="M372.72 179.46L399.27 152.91"
fill="none" stroke="black" stroke-width="3"/>
</g>
<g><path d="M124.73 399.27L133.18 390.81"
fill="none" stroke="black" stroke-width="3"/>
</g>
<g><path d="M138.82 385.18L141.64 382.36"
fill="none" stroke="black" stroke-width="3"/>
</g>
<g><path d="M147.27 376.72L175.45 348.54"
fill="none" stroke="black" stroke-width="3"/>
</g>
<g><path d="M181.09 342.91L183.91 340.09"
fill="none" stroke="black" stroke-width="3"/>
</g>
<g><path d="M189.54 334.45L217.72 306.27"
fill="none" stroke="black" stroke-width="3"/>
</g>
<g><path d="M223.36 300.63L226.18 297.82"
fill="none" stroke="black" stroke-width="3"/>
</g>
<g><path d="M231.81 292.18L259.99 264"
fill="none" stroke="black" stroke-width="3"/>
</g>
<g><path d="M265.63 258.36L268.45 255.55"
fill="none" stroke="black" stroke-width="3"/>
</g>
<g><path d="M274.08 249.91L302.27 221.73"
fill="none" stroke="black" stroke-width="3"/>
</g>
<g><path d="M307.9 216.09L310.72 213.27"
fill="none" stroke="black" stroke-width="3"/>
</g>
<g><path d="M316.36 207.64L344.54 179.46"
fill="none" stroke="black" stroke-width="3"/>
</g>
<g><path d="M350.17 173.82L352.99 171"
fill="none" stroke="black" stroke-width="3"/>
</g>
<g><path d="M358.63 165.37L386.81 137.19"
fill="none" stroke="black" stroke-width="3"/>
</g>
<g><path d="M392.44 131.55L395.26 128.73"
fill="none" stroke="black" stroke-width="3"/>
</g>
<g><path d="M96.55 399.27L119.09 376.72"
fill="none" stroke="black" stroke-width="3"/>
</g>
<g><path d="M124.73 371.09L127.55 368.27"
fill="none" stroke="black" stroke-width="3"/>
</g>
<g><path d="M133.18 362.63L161.36 334.45"
fill="none" stroke="black" stroke-width="3"/>
</g>
<g><path d="M167 328.82L169.82 326"
fill="none" stroke="black" stroke-width="3"/>
</g>
<g><path d="M175.45 320.36L203.63 292.18"
fill="none" stroke="black" stroke-width="3"/>
</g>
<g><path d="M209.27 286.54L212.09 283.73"
fill="none" stroke="black" stroke-width="3"/>
</g>
<g><path d="M217.72 278.09L245.9 249.91"
fill="none" stroke="black" stroke-width="3"/>
</g>
<g><path d="M251.54 244.27L254.36 241.46"
fill="none" stroke="black" stroke-width="3"/>
</g>
<g><path d="M259.99 235.82L288.18 207.64"
fill="none" stroke="black" stroke-width="3"/>
</g>
<g><path d="M293.81 202L296.63 199.18"
fill="none" stroke="black" stroke-width="3"/>
</g>
<g><path d="M302.27 193.55L330.45 165.37"
fill="none" stroke="black" stroke-width="3"/>
</g>
<g><path d="M336.08 159.73L338.9 156.91"
fill="none" stroke="black" stroke-width="3"/>
</g>
<g><path d="M344.54 151.28L372.72 123.1"
fill="none" stroke="black" stroke-width="3"/>
</g>
<g><path d="M378.35 117.46L381.17 114.64"
fill="none" stroke="black" stroke-width="3"/>
</g>
<g><path d="M386.81 109.01L399.27 96.55"
fill="none" stroke="black" stroke-width="3"/>
</g>
<g><path d="M68.37 399.27L71.18 396.45"
fill="none" stroke="black" stroke-width="3"/>
</g>
<g><path d="M76.82 390.81L105 362.63"
fill="none" stroke="black" stroke-width="3"/>
</g>
<g><path d="M110.64 357L113.46 354.18"
fill="none" stroke="black" stroke-width="3"/>
</g>
<g><path d="M119.09 348.54L147.27 320.36"
fill="none" stroke="black" stroke-width="3"/>
</g>
<g><path d="M152.91 314.72L155.73 311.91"
fill="none" stroke="black" stroke-width="3"/>
</g>
<g><path d="M161.36 306.27L189.54 278.09"
fill="none" stroke="black" stroke-width="3"/>
</g>
<g><path d="M195.18 272.45L198 269.64"
fill="none" stroke="black" stroke-width="3"/>
</g>
<g><path d="M203.63 264L231.81 235.82"
fill="none" stroke="black" stroke-width="3"/>
</g>
<g><path d="M237.45 230.18L240.27 227.37"
fill="none" stroke="black" stroke-width="3"/>
</g>
<g><path d="M245.9 221.73L274.08 193.55"
fill="none" stroke="black" stroke-width="3"/>
</g>
<g><path d="M279.72 187.91L282.54 185.09"
fill="none" stroke="black" stroke-width="3"/>
</g>
<g><path d="M288.18 179.46L316.36 151.28"
fill="none" stroke="black" stroke-width="3"/>
</g>
<g><path d="M321.99 145.64L324.81 142.82"
fill="none" stroke="black" stroke-width="3"/>
</g>
<g><path d="M330.45 137.19L358.63 109.01"
fill="none" stroke="black" stroke-width="3"/>
</g>
<g><path d="M364.26 103.37L367.08 100.55"
fill="none" stroke="black" stroke-width="3"/>
</g>
<g><path d="M372.72 94.92L399.27 68.37"
fill="none" stroke="black" stroke-width="3"/>
</g>
<g><path d="M40.19 399.27L48.64 390.81"
fill="none" stroke="black" stroke-width="3"/>
</g>
<g><path d="M54.28 385.18L57.09 382.36"
fill="none" stroke="black" stroke-width="3"/>
</g>
<g><path d="M62.73 376.72L90.91 348.54"
fill="none" stroke="black" stroke-width="3"/>
</g>
<g><path d="M96.55 342.91L99.37 340.09"
fill="none" stroke="black" stroke-width="3"/>
</g>
<g><path d="M105 334.45L133.18 306.27"
fill="none" stroke="black" stroke-width="3"/>
</g>
<g><path d="M138.82 300.63L141.64 297.82"
fill="none" stroke="black" stroke-width="3"/>
</g>
<g><path d="M147.27 292.18L175.45 264"
fill="none" stroke="black" stroke-width="3"/>
</g>
<g><path d="M181.09 258.36L183.91 255.55"
fill="none" stroke="black" stroke-width="3"/>
</g>
<g><path d="M189.54 249.91L217.72 221.73"
fill="none" stroke="black" stroke-width="3"/>
</g>
<g><path d="M223.36 216.09L226.18 213.27"
fill="none" stroke="black" stroke-width="3"/>
</g>
<g><path d="M231.81 207.64L259.99 179.46"
fill="none" stroke="black" stroke-width="3"/>
</g>
<g><path d="M265.63 173.82L268.45 171"
fill="none" stroke="black" stroke-width="3"/>
</g>
<g><path d="M274.08 165.37L302.27 137.19"
fill="none" stroke="black" stroke-width="3"/>
</g>
<g><path d="M307.9 131.55L310.72 128.73"
fill="none" stroke="black" stroke-width="3"/>
</g>
<g><path d="M316.36 123.1L344.54 94.92"
fill="none" stroke="black" stroke-width="3"/>
</g>
<g><path d="M350.17 89.28L352.99 86.46"
fill="none" stroke="black" stroke-width="3"/>
</g>
<g><path d="M358.63 80.83L386.81 52.65"
fill="none" stroke="black" stroke-width="3"/>
</g>
<g><path d="M392.44 47.01L395.26 44.19"
fill="none" stroke="black" stroke-width="3"/>
</g>
<g><path d="M12.01 399.27L34.55 376.72"
fill="none" stroke="black" stroke-width="3"/>
</g>
<g><path d="M40.19 371.09L43 368.27"
fill="none" stroke="black" stroke-width="3"/>
</g>
<g><path d="M48.64 362.63L76.82 334.45"
fill="none" stroke="black" stroke-width="3"/>
</g>
<g><path d="M82.46 328.82L85.28 326"
fill="none" stroke="black" stroke-width="3"/>
</g>
<g><path d="M90.91 320.36L119.09 292.18"
fill="none" stroke="black" stroke-width="3"/>
</g>
<g><path d="M124.73 286.54L127.55 283.73"
fill="none" stroke="black" stroke-width="3"/>
</g>
<g><path d="M133.18 278.09L161.36 249.91"
fill="none" stroke="black" stroke-width="3"/>
</g>
<g><path d="M167 244.27L169.82 241.46"
fill="none" stroke="black" stroke-width="3"/>
</g>
<g><path d="M175.45 235.82L203.63 207.64"
fill="none" stroke="black" stroke-width="3"/>
</g>
<g><path d="M209.27 202L212.09 199.18"
fill="none" stroke="black" stroke-width="3"/>
</g>
<g><path d="M217.72 193.55L245.9 165.37"
fill="none" stroke="black" stroke-width="3"/>
</g>
<g><path d="M251.54 159.73L254.36 156.91"
fill="none" stroke="black" stroke-width="3"/>
</g>
<g><path d="M259.99 151.28L288.18 123.1"
fill="none" stroke="black" stroke-width="3"/>
</g>
<g><path d="M293.81 117.46L296.63 114.64"
fill="none" stroke="black" stroke-width="3"/>
</g>
<g><path d="M302.27 109.01L330.45 80.83"
fill="none" stroke="black" stroke-width="3"/>
</g>
<g><path d="M336.08 75.19L338.9 72.37"
fill="none" stroke="black" stroke-width="3"/>
</g>
<g><path d="M344.54 66.74L372.72 38.56"
fill="none" stroke="black" stroke-width="3"/>
</g>
<g><path d="M378.35 32.92L381.17 30.1"
fill="none" stroke="black" stroke-width="3"/>
</g>
<g><path d="M386.81 24.47L399.27 12.01"
fill="none" stroke="black" stroke-width="3"/>
</g>
<g><path d="M0.73 382.36L20.46 362.63"
fill="none" stroke="black" stroke-width="3"/>
</g>
<g><path d="M26.1 357L28.91 354.18"
fill="none" stroke="black" stroke-width="3"/>
</g>
<g><path d="M34.55 348.54L62.73 320.36"
fill="none" stroke="black" stroke-width="3"/>
</g>
<g><path d="M68.37 314.72L71.18 311.91"
fill="none" stroke="black" stroke-width="3"/>
</g>
<g><path d="M76.82 306.27L105 278.09"
fill="none" stroke="black" stroke-width="3"/>
</g>
<g><path d="M110.64 272.45L113.46 269.64"
fill="none" stroke="black" stroke-width="3"/>
</g>
<g><path d="M119.09 264L147.27 235.82"
fill="none" stroke="black" stroke-width="3"/>
</g>
<g><path d="M152.91 230.18L155.73 227.37"
fill="none" stroke="black" stroke-width="3"/>
</g>
<g><path d="M161.36 221.73L189.54 193.55"
fill="none" stroke="black" stroke-width="3"/>
</g>
<g><path d="M195.18 187.91L198 185.09"
fill="none" stroke="black" stroke-width="3"/>
</g>
<g><path d="M203.63 179.46L231.81 151.28"
fill="none" stroke="black" stroke-width="3"/>
</g>
<g><path d="M237.45 145.64L240.27 142.82"
fill="none" stroke="black" stroke-width="3"/>
</g>
<g><path d="M245.9 137.19L274.08 109.01"
fill="none" stroke="black" stroke-width="3"/>
</g>
<g><path d="M279.72 103.37L282.54 100.55"
fill="none" stroke="black" stroke-width="3"/>
</g>
<g><path d="M288.18 94.92L316.36 66.74"
fill="none" stroke="black" stroke-width="3"/>
</g>
<g><path d="M321.99 61.1L324.81 58.28"
fill="none" stroke="black" stroke-width="3"/>
</g>
<g><path d="M330.45 52.65L358.63 24.47"
fill="none" stroke="black" stroke-width="3"/>
</g>
<g><path d="M364.26 18.83L367.08 16.01"
fill="none" stroke="black" stroke-width="3"/>
</g>
<g><path d="M372.72 10.37L382.36 0.73"
fill="none" stroke="black" stroke-width="3"/>
</g>
<g><path d="M0.73 354.18L6.37 348.54"
fill="none" stroke="black" stroke-width="3"/>
</g>
<g><path d="M12.01 342.91L14.82 340.09"
fill="none" stroke="black" stroke-width="3"/>
</g>
<g><path d="M20.46 334.45L48.64 306.27"
fill="none" stroke="black" stroke-width="3"/>
</g>
<g><path d="M54.28 300.63L57.09 297.82"
fill="none" stroke="black" stroke-width="3"/>
</g>
<g><path d="M62.73 292.18L90.91 264"
fill="none" stroke="black" stroke-width="3"/>
</g>
<g><path d="M96.55 258.36L99.37 255.55"
fill="none" stroke="black" stroke-width="3"/>
</g>
<g><path d="M105 249.91L133.18 221.73"
fill="none" stroke="black" stroke-width="3"/>
</g>
<g><path d="M138.82 216.09L141.64 213.27"
fill="none" stroke="black" stroke-width="3"/>
</g>
<g><path d="M147.27 207.64L175.45 179.46"
fill="none" stroke="black" stroke-width="3"/>
</g>
<g><path d="M181.09 173.82L183.91 171"
fill="none" stroke="black" stroke-width="3"/>
</g>
<g><path d="M189.54 165.37L217.72 137.19"
fill="none" stroke="black" stroke-width="3"/>
</g>
<g><path d="M223.36 131.55L226.18 128.73"
fill="none" stroke="black" stroke-width="3"/>
</g>
<g><path d="M231.81 123.1L259.99 94.92"
fill="none" stroke="black" stroke-width="3"/>
</g>
<g><path d="M265.63 89.28L268.45 86.46"
fill="none" stroke="black" stroke-width="3"/>
</g>
<g><path d="M274.08 80.83L302.27 52.65"
fill="none" stroke="black" stroke-width="3"/>
</g>
<g><path d="M307.9 47.01L310.72 44.19"
fill="none" stroke="black" stroke-width="3"/>
</g>
<g><path d="M316.36 38.56L344.54 10.37"
fill="none" stroke="black" stroke-width="3"/>
</g>
<g><path d="M350.17 4.74L352.99 1.92"
fill="none" stroke="black" stroke-width="3"/>
</g>
<g><path d="M6.37 320.36L34.55 292.18"
fill="none" stroke="black" stroke-width="3"/>
</g>
<g><path d="M40.19 286.54L43 283.73"
fill="none" stroke="black" stroke-width="3"/>
</g>
<g><path d="M48.64 278.09L76.82 249.91"
fill="none" stroke="black" stroke-width="3"/>
</g>
<g><path d="M82.46 244.27L85.28 241.46"
fill="none" stroke="black" stroke-width="3"/>
</g>
<g><path d="M90.91 235.82L119.09 207.64"
fill="none" stroke="black" stroke-width="3"/>
</g>
<g><path d="M124.73 202L127.55 199.18"
fill="none" stroke="black" stroke-width="3"/>
</g>
<g><path d="M133.18 193.55L161.36 165.37"
fill="none" stroke="black" stroke-width="3"/>
</g>
<g><path d="M167 159.73L169.82 156.91"
fill="none" stroke="black" stroke-width="3"/>
</g>
<g><path d="M175.45 151.28L203.63 123.1"
fill="none" stroke="black" stroke-width="3"/>
</g>
<g><path d="M209.27 117.46L212.09 114.64"
fill="none" stroke="black" stroke-width="3"/>
</g>
<g><path d="M217.72 109.01L245.9 80.83"
fill="none" stroke="black" stroke-width="3"/>
</g>
<g><path d="M251.54 75.19L254.36 72.37"
fill="none" stroke="black" stroke-width="3"/>
</g>
<g><path d="M259.99 66.74L288.18 38.56"
fill="none" stroke="black" stroke-width="3"/>
</g>
<g><path d="M293.81 32.92L296.63 30.1"
fill="none" stroke="black" stroke-width="3"/>
</g>
<g><path d="M302.27 24.47L326 0.73"
fill="none" stroke="black" stroke-width="3"/>
</g>
<g><path d="M0.73 297.82L20.46 278.09"
fill="none" stroke="black" stroke-width="3"/>
</g>
<g><path d="M26.1 272.45L28.91 269.64"
fill="none" stroke="black" stroke-width="3"/>
</g>
<g><path d="M34.55 264L62.73 235.82"
fill="none" stroke="black" stroke-width="3"/>
</g>
<g><path d="M68.37 230.18L71.18 227.37"
fill="none" stroke="black" stroke-width="3"/>
</g>
<g><path d="M76.82 221.73L105 193.55"
fill="none" stroke="black" stroke-width="3"/>
</g>
<g><path d="M110.64 187.91L113.46 185.09"
fill="none" stroke="black" stroke-width="3"/>
</g>
<g><path d="M119.09 179.46L147.27 151.28"
fill="none" stroke="black" stroke-width="3"/>
</g>
<g><path d="M152.91 145.64L155.73 142.82"
fill="none" stroke="black" stroke-width="3"/>
</g>
<g><path d="M161.36 137.19L189.54 109.01"
fill="none" stroke="black" stroke-width="3"/>
</g>
<g><path d="M195.18 103.37L198 100.55"
fill="none" stroke="black" stroke-width="3"/>
</g>
<g><path d="M203.63 94.92L231.81 66.74"
fill="none" stroke="black" stroke-width="3"/>
</g>
<g><path d="M237.45 61.1L240.27 58.28"
fill="none" stroke="black" stroke-width="3"/>
</g>
<g><path d="M245.9 52.65L274.08 24.47"
fill="none" stroke="black" stroke-width="3"/>
</g>
<g><path d="M279.72 18.83L282.54 16.01"
fill="none" stroke="black" stroke-width="3"/>
</g>
<g><path d="M288.18 10.37L297.82 0.73"
fill="none" stroke="black" stroke-width="3"/>
</g>
<g><path d="M0.73 269.64L6.37 264"
fill="none" stroke="black" stroke-width="3"/>
</g>
<g><path d="M12.01 258.36L14.82 255.55"
fill="none" stroke="black" stroke-width="3"/>
</g>
<g><path d="M20.46 249.91L48.64 221.73"
fill="none" stroke="black" stroke-width="3"/>
</g>
<g><path d="M54.28 216.09L57.09 213.27"
fill="none" stroke="black" stroke-width="3"/>
</g>
<g><path d="M62.73 207.64L90.91 179.46"
fill="none" stroke="black" stroke-width="3"/>
</g>
<g><path d="M96.55 173.82L99.37 171"
fill="none" stroke="black" stroke-width="3"/>
</g>
<g><path d="M105 165.37L133.18 137.19"
fill="none" stroke="black" stroke-width="3"/>
</g>
<g><path d="M138.82 131.55L141.64 128.73"
fill="none" stroke="black" stroke-width="3"/>
</g>
<g><path d="M147.27 123.1L175.45 94.92"
fill="none" stroke="black" stroke-width="3"/>
</g>
<g><path d="M181.09 89.28L183.91 86.46"
fill="none" stroke="black" stroke-width="3"/>
</g>
<g><path d="M189.54 80.83L217.72 52.65"
fill="none" stroke="black" stroke-width="3"/>
</g>
<g><path d="M223.36 47.01L226.18 44.19"
fill="none" stroke="black" stroke-width="3"/>
</g>
<g><path d="M231.81 38.56L259.99 10.37"
fill="none" stroke="black" stroke-width="3"/>
</g>
<g><path d="M265.63 4.74L268.45 1.92"
fill="none" stroke="black" stroke-width="3"/>
</g>
<g><path d="M6.37 235.82L34.55 207.64"
fill="none" stroke="black" stroke-width="3"/>
</g>
<g><path d="M40.19 202L43 199.18"
fill="none" stroke="black" stroke-width="3"/>
</g>
<g><path d="M48.64 193.55L76.82 165.37"
fill="none" stroke="black" stroke-width="3"/>
</g>
<g><path d="M82.46 159.73L85.28 156.91"
fill="none" stroke="black" stroke-width="3"/>
</g>
<g><path d="M90.91 151.28L119.09 123.1"
fill="none" stroke="black" stroke-width="3"/>
</g>
<g><path d="M124.73 117.46L127.55 114.64"
fill="none" stroke="black" stroke-width="3"/>
</g>
<g><path d="M133.18 109.01L161.36 80.83"
fill="none" stroke="black" stroke-width="3"/>
</g>
<g><path d="M167 75.19L169.82 72.37"
fill="none" stroke="black" stroke-width="3"/>
</g>
<g><path d="M175.45 66.74L203.63 38.56"
fill="none" stroke="black" stroke-width="3"/>
</g>
<g><path d="M209.27 32.92L212.09 30.1"
fill="none" stroke="black" stroke-width="3"/>
</g>
<g><path d="M217.72 24.47L241.46 0.73"
fill="none" stroke="black" stroke-width="3"/>
</g>
<g><path d="M0.73 213.27L20.46 193.55"
fill="none" stroke="black" stroke-width="3"/>
</g>
<g><path d="M26.1 187.91L28.91 185.09"
fill="none" stroke="black" stroke-width="3"/>
</g>
<g><path d="M34.55 179.46L62.73 151.28"
fill="none" stroke="black" stroke-width="3"/>
</g>
<g><path d="M68.37 145.64L71.18 142.82"
fill="none" stroke="black" stroke-width="3"/>
</g>
<g><path d="M76.82 137.19L105 109.01"
fill="none" stroke="black" stroke-width="3"/>
</g>
<g><path d="M110.64 103.37L113.46 100.55"
fill="none" stroke="black" stroke-width="3"/>
</g>
<g><path d="M119.09 94.92L147.27 66.74"
fill="none" stroke="black" stroke-width="3"/>
</g>
<g><path d="M152.91 61.1L155.73 58.28"
fill="none" stroke="black" stroke-width="3"/>
</g>
<g><path d="M161.36 52.65L189.54 24.47"
fill="none" stroke="black" stroke-width="3"/>
</g>
<g><path d="M195.18 18.83L198 16.01"
fill="none" stroke="black" stroke-width="3"/>
</g>
<g><path d="M203.63 10.37L213.27 0.73"
fill="none" stroke="black" stroke-width="3"/>
</g>
<g><path d="M0.73 185.09L6.37 179.46"
fill="none" stroke="black" stroke-width="3"/>
</g>
<g><path d="M12.01 173.82L14.82 171"
fill="none" stroke="black" stroke-width="3"/>
</g>
<g><path d="M20.46 165.37L48.64 137.19"
fill="none" stroke="black" stroke-width="3"/>
</g>
<g><path d="M54.28 131.55L57.09 128.73"
fill="none" stroke="black" stroke-width="3"/>
</g>
<g><path d="M62.73 123.1L90.91 94.92"
fill="none" stroke="black" stroke-width="3"/>
</g>
<g><path d="M96.55 89.28L99.37 86.46"
fill="none" stroke="black" stroke-width="3"/>
</g>
<g><path d="M105 80.83L133.18 52.65"
fill="none" stroke="black" stroke-width="3"/>
</g>
<g><path d="M138.82 47.01L141.64 44.19"
fill="none" stroke="black" stroke-width="3"/>
</g>
<g><path d="M147.27 38.56L175.45 10.37"
fill="none" stroke="black" stroke-width="3"/>
</g>
<g><path d="M181.09 4.74L183.91 1.92"
fill="none" stroke="black" stroke-width="3"/>
</g>
<g><path d="M6.37 151.28L34.55 123.1"
fill="none" stroke="black" stroke-width="3"/>
</g>
<g><path d="M40.19 117.46L43 114.64"
fill="none" stroke="black" stroke-width="3"/>
</g>
<g><path d="M48.64 109.01L76.82 80.83"
fill="none" stroke="black" stroke-width="3"/>
</g>
<g><path d="M82.46 75.19L85.28 72.37"
fill="none" stroke="black" stroke-width="3"/>
</g>
<g><path d="M90.91 66.74L119.09 38.56"
fill="none" stroke="black" stroke-width="3"/>
</g>
<g><path d="M124.73 32.92L127.55 30.1"
fill="none" stroke="black" stroke-width="3"/>
</g>
<g><path d="M133.18 24.47L156.91 0.73"
fill="none" stroke="black" stroke-width="3"/>
</g>
<g><path d="M0.73 128.73L20.46 109.01"
fill="none" stroke="black" stroke-width="3"/>
</g>
<g><path d="M26.1 103.37L28.91 100.55"
fill="none" stroke="black" stroke-width="3"/>
</g>
<g><path d="M34.55 94.92L62.73 66.74"
fill="none" stroke="black" stroke-width="3"/>
</g>
<g><path d="M68.37 61.1L71.18 58.28"
fill="none" stroke="black" stroke-width="3"/>
</g>
<g><path d="M76.82 52.65L105 24.47"
fill="none" stroke="black" stroke-width="3"/>
</g>
<g><path d="M110.64 18.83L113.46 16.01"
fill="none" stroke="black" stroke-width="3"/>
</g>
<g><path d="M119.09 10.37L128.73 0.73"
fill="none" stroke="black" stroke-width="3"/>
</g>
<g><path d="M0.73 100.55L6.37 94.92"
fill="none" stroke="black" stroke-width="3"/>
</g>
<g><path d="M12.01 89.28L14.82 86.46"
fill="none" stroke="black" stroke-width="3"/>
</g>
<g><path d="M20.46 80.83L48.64 52.65"
fill="none" stroke="black" stroke-width="3"/>
</g>
<g><path d="M54.28 47.01L57.09 44.19"
fill="none" stroke="black" stroke-width="3"/>
</g>
<g><path d="M62.73 38.56L90.91 10.37"
fill="none" stroke="black" stroke-width="3"/>
</g>
<g><path d="M96.55 4.74L99.37 1.92"
fill="none" stroke="black" stroke-width="3"/>
</g>
<g><path d="M6.37 66.74L34.55 38.56"
fill="none" stroke="black" stroke-width="3"/>
</g>
<g><path d="M40.19 32.92L43 30.1"
fill="none" stroke="black" stroke-width="3"/>
</g>
<g><path d="M48.64 24.47L72.37 0.73"
fill="none" stroke="black" stroke-width="3"/>
</g>
<g><path d="M0.73 44.19L20.46 24.47"
fill="none" stroke="black" stroke-width="3"/>
</g>
<g><path d="M26.1 18.83L28.91 16.01"
fill="none" stroke="black" stroke-width="3"/>
</g>
<g><path d="M34.55 10.37L44.19 0.73"
fill="none" stroke="black" stroke-width="3"/>
</g>
<g><path d="M0.73 16.01L6.37 10.37"
fill="none" stroke="black" stroke-width="3"/>
</g>
<g><path d="M12.01 4.74L14.82 1.92"
fill="none" stroke="black" stroke-width="3"/>
</g>
</g>
</svg>
