<?xml version="1.0" standalone="no"?><svg xmlns="http://www.w3.org/2000/svg" width="400.000" height="400.000" viewBox="0.0 0.0 400.000 400.000" version="1.1">
  <title>Produce by Acme CAD Converter</title>
  <desc>Produce by Acme CAD Converter</desc>
<g id="0" display="visible">
<g><path d="M395.26 399.27L399.27 395.26"
fill="none" stroke="black" stroke-width="3"/>
</g>
<g><path d="M367.08 399.27L399.27 367.08"
fill="none" stroke="black" stroke-width="3"/>
</g>
<g><path d="M338.9 399.27L399.27 338.9"
fill="none" stroke="black" stroke-width="3"/>
</g>
<g><path d="M310.72 399.27L399.27 310.72"
fill="none" stroke="black" stroke-width="3"/>
</g>
<g><path d="M282.54 399.27L399.27 282.54"
fill="none" stroke="black" stroke-width="3"/>
</g>
<g><path d="M254.36 399.27L399.27 254.36"
fill="none" stroke="black" stroke-width="3"/>
</g>
<g><path d="M226.18 399.27L399.27 226.18"
fill="none" stroke="black" stroke-width="3"/>
</g>
<g><path d="M198 399.27L399.27 198"
fill="none" stroke="black" stroke-width="3"/>
</g>
<g><path d="M169.82 399.27L399.27 169.82"
fill="none" stroke="black" stroke-width="3"/>
</g>
<g><path d="M141.64 399.27L399.27 141.64"
fill="none" stroke="black" stroke-width="3"/>
</g>
<g><path d="M113.46 399.27L399.27 113.46"
fill="none" stroke="black" stroke-width="3"/>
</g>
<g><path d="M85.28 399.27L399.27 85.28"
fill="none" stroke="black" stroke-width="3"/>
</g>
<g><path d="M57.09 399.27L399.27 57.09"
fill="none" stroke="black" stroke-width="3"/>
</g>
<g><path d="M28.91 399.27L399.27 28.91"
fill="none" stroke="black" stroke-width="3"/>
</g>
<g><path d="M0.73 399.27L399.27 0.73"
fill="none" stroke="black" stroke-width="3"/>
</g>
<g><path d="M0.73 371.09L371.09 0.73"
fill="none" stroke="black" stroke-width="3"/>
</g>
<g><path d="M0.73 342.91L342.91 0.73"
fill="none" stroke="black" stroke-width="3"/>
</g>
<g><path d="M0.73 314.72L314.72 0.73"
fill="none" stroke="black" stroke-width="3"/>
</g>
<g><path d="M0.73 286.54L286.54 0.73"
fill="none" stroke="black" stroke-width="3"/>
</g>
<g><path d="M0.73 258.36L258.36 0.73"
fill="none" stroke="black" stroke-width="3"/>
</g>
<g><path d="M0.73 230.18L230.18 0.73"
fill="none" stroke="black" stroke-width="3"/>
</g>
<g><path d="M0.73 202L202 0.73"
fill="none" stroke="black" stroke-width="3"/>
</g>
<g><path d="M0.73 173.82L173.82 0.73"
fill="none" stroke="black" stroke-width="3"/>
</g>
<g><path d="M0.73 145.64L145.64 0.73"
fill="none" stroke="black" stroke-width="3"/>
</g>
<g><path d="M0.73 117.46L117.46 0.73"
fill="none" stroke="black" stroke-width="3"/>
</g>
<g><path d="M0.73 89.28L89.28 0.73"
fill="none" stroke="black" stroke-width="3"/>
</g>
<g><path d="M0.73 61.1L61.1 0.73"
fill="none" stroke="black" stroke-width="3"/>
</g>
<g><path d="M0.73 32.92L32.92 0.73"
fill="none" stroke="black" stroke-width="3"/>
</g>
<g><path d="M0.73 4.74L4.74 0.73"
fill="none" stroke="black" stroke-width="3"/>
</g>
<g><path d="M381.17 399.27L388.22 392.22"
fill="none" stroke="black" stroke-width="3"/>
</g>
<g><path d="M393.85 386.59L396.67 383.77"
fill="none" stroke="black" stroke-width="3"/>
</g>
<g><path d="M352.99 399.27L374.13 378.13"
fill="none" stroke="black" stroke-width="3"/>
</g>
<g><path d="M379.76 372.5L382.58 369.68"
fill="none" stroke="black" stroke-width="3"/>
</g>
<g><path d="M388.22 364.04L399.27 352.99"
fill="none" stroke="black" stroke-width="3"/>
</g>
<g><path d="M324.81 399.27L326.22 397.86"
fill="none" stroke="black" stroke-width="3"/>
</g>
<g><path d="M331.85 392.22L360.04 364.04"
fill="none" stroke="black" stroke-width="3"/>
</g>
<g><path d="M365.67 358.4L368.49 355.59"
fill="none" stroke="black" stroke-width="3"/>
</g>
<g><path d="M374.13 349.95L399.27 324.81"
fill="none" stroke="black" stroke-width="3"/>
</g>
<g><path d="M296.63 399.27L303.67 392.22"
fill="none" stroke="black" stroke-width="3"/>
</g>
<g><path d="M309.31 386.59L312.13 383.77"
fill="none" stroke="black" stroke-width="3"/>
</g>
<g><path d="M317.76 378.13L345.95 349.95"
fill="none" stroke="black" stroke-width="3"/>
</g>
<g><path d="M351.58 344.31L354.4 341.5"
fill="none" stroke="black" stroke-width="3"/>
</g>
<g><path d="M360.04 335.86L388.22 307.68"
fill="none" stroke="black" stroke-width="3"/>
</g>
<g><path d="M393.85 302.04L396.67 299.23"
fill="none" stroke="black" stroke-width="3"/>
</g>
<g><path d="M268.45 399.27L289.58 378.13"
fill="none" stroke="black" stroke-width="3"/>
</g>
<g><path d="M295.22 372.5L298.04 369.68"
fill="none" stroke="black" stroke-width="3"/>
</g>
<g><path d="M303.67 364.04L331.85 335.86"
fill="none" stroke="black" stroke-width="3"/>
</g>
<g><path d="M337.49 330.22L340.31 327.41"
fill="none" stroke="black" stroke-width="3"/>
</g>
<g><path d="M345.95 321.77L374.13 293.59"
fill="none" stroke="black" stroke-width="3"/>
</g>
<g><path d="M379.76 287.95L382.58 285.14"
fill="none" stroke="black" stroke-width="3"/>
</g>
<g><path d="M388.22 279.5L399.27 268.45"
fill="none" stroke="black" stroke-width="3"/>
</g>
<g><path d="M240.27 399.27L241.68 397.86"
fill="none" stroke="black" stroke-width="3"/>
</g>
<g><path d="M247.31 392.22L275.49 364.04"
fill="none" stroke="black" stroke-width="3"/>
</g>
<g><path d="M281.13 358.4L283.95 355.59"
fill="none" stroke="black" stroke-width="3"/>
</g>
<g><path d="M289.58 349.95L317.76 321.77"
fill="none" stroke="black" stroke-width="3"/>
</g>
<g><path d="M323.4 316.13L326.22 313.32"
fill="none" stroke="black" stroke-width="3"/>
</g>
<g><path d="M331.85 307.68L360.04 279.5"
fill="none" stroke="black" stroke-width="3"/>
</g>
<g><path d="M365.67 273.86L368.49 271.05"
fill="none" stroke="black" stroke-width="3"/>
</g>
<g><path d="M374.13 265.41L399.27 240.27"
fill="none" stroke="black" stroke-width="3"/>
</g>
<g><path d="M212.09 399.27L219.13 392.22"
fill="none" stroke="black" stroke-width="3"/>
</g>
<g><path d="M224.77 386.59L227.59 383.77"
fill="none" stroke="black" stroke-width="3"/>
</g>
<g><path d="M233.22 378.13L261.4 349.95"
fill="none" stroke="black" stroke-width="3"/>
</g>
<g><path d="M267.04 344.31L269.86 341.5"
fill="none" stroke="black" stroke-width="3"/>
</g>
<g><path d="M275.49 335.86L303.67 307.68"
fill="none" stroke="black" stroke-width="3"/>
</g>
<g><path d="M309.31 302.04L312.13 299.23"
fill="none" stroke="black" stroke-width="3"/>
</g>
<g><path d="M317.76 293.59L345.95 265.41"
fill="none" stroke="black" stroke-width="3"/>
</g>
<g><path d="M351.58 259.77L354.4 256.95"
fill="none" stroke="black" stroke-width="3"/>
</g>
<g><path d="M360.04 251.32L388.22 223.14"
fill="none" stroke="black" stroke-width="3"/>
</g>
<g><path d="M393.85 217.5L396.67 214.68"
fill="none" stroke="black" stroke-width="3"/>
</g>
<g><path d="M183.91 399.27L205.04 378.13"
fill="none" stroke="black" stroke-width="3"/>
</g>
<g><path d="M210.68 372.5L213.5 369.68"
fill="none" stroke="black" stroke-width="3"/>
</g>
<g><path d="M219.13 364.04L247.31 335.86"
fill="none" stroke="black" stroke-width="3"/>
</g>
<g><path d="M252.95 330.22L255.77 327.41"
fill="none" stroke="black" stroke-width="3"/>
</g>
<g><path d="M261.4 321.77L289.58 293.59"
fill="none" stroke="black" stroke-width="3"/>
</g>
<g><path d="M295.22 287.95L298.04 285.14"
fill="none" stroke="black" stroke-width="3"/>
</g>
<g><path d="M303.67 279.5L331.85 251.32"
fill="none" stroke="black" stroke-width="3"/>
</g>
<g><path d="M337.49 245.68L340.31 242.86"
fill="none" stroke="black" stroke-width="3"/>
</g>
<g><path d="M345.95 237.23L374.13 209.05"
fill="none" stroke="black" stroke-width="3"/>
</g>
<g><path d="M379.76 203.41L382.58 200.59"
fill="none" stroke="black" stroke-width="3"/>
</g>
<g><path d="M388.22 194.96L399.27 183.91"
fill="none" stroke="black" stroke-width="3"/>
</g>
<g><path d="M155.73 399.27L157.14 397.86"
fill="none" stroke="black" stroke-width="3"/>
</g>
<g><path d="M162.77 392.22L190.95 364.04"
fill="none" stroke="black" stroke-width="3"/>
</g>
<g><path d="M196.59 358.4L199.41 355.59"
fill="none" stroke="black" stroke-width="3"/>
</g>
<g><path d="M205.04 349.95L233.22 321.77"
fill="none" stroke="black" stroke-width="3"/>
</g>
<g><path d="M238.86 316.13L241.68 313.32"
fill="none" stroke="black" stroke-width="3"/>
</g>
<g><path d="M247.31 307.68L275.49 279.5"
fill="none" stroke="black" stroke-width="3"/>
</g>
<g><path d="M281.13 273.86L283.95 271.05"
fill="none" stroke="black" stroke-width="3"/>
</g>
<g><path d="M289.58 265.41L317.76 237.23"
fill="none" stroke="black" stroke-width="3"/>
</g>
<g><path d="M323.4 231.59L326.22 228.77"
fill="none" stroke="black" stroke-width="3"/>
</g>
<g><path d="M331.85 223.14L360.04 194.96"
fill="none" stroke="black" stroke-width="3"/>
</g>
<g><path d="M365.67 189.32L368.49 186.5"
fill="none" stroke="black" stroke-width="3"/>
</g>
<g><path d="M374.13 180.87L399.27 155.73"
fill="none" stroke="black" stroke-width="3"/>
</g>
<g><path d="M127.55 399.27L134.59 392.22"
fill="none" stroke="black" stroke-width="3"/>
</g>
<g><path d="M140.23 386.59L143.05 383.77"
fill="none" stroke="black" stroke-width="3"/>
</g>
<g><path d="M148.68 378.13L176.86 349.95"
fill="none" stroke="black" stroke-width="3"/>
</g>
<g><path d="M182.5 344.31L185.32 341.5"
fill="none" stroke="black" stroke-width="3"/>
</g>
<g><path d="M190.95 335.86L219.13 307.68"
fill="none" stroke="black" stroke-width="3"/>
</g>
<g><path d="M224.77 302.04L227.59 299.23"
fill="none" stroke="black" stroke-width="3"/>
</g>
<g><path d="M233.22 293.59L261.4 265.41"
fill="none" stroke="black" stroke-width="3"/>
</g>
<g><path d="M267.04 259.77L269.86 256.95"
fill="none" stroke="black" stroke-width="3"/>
</g>
<g><path d="M275.49 251.32L303.67 223.14"
fill="none" stroke="black" stroke-width="3"/>
</g>
<g><path d="M309.31 217.5L312.13 214.68"
fill="none" stroke="black" stroke-width="3"/>
</g>
<g><path d="M317.76 209.05L345.95 180.87"
fill="none" stroke="black" stroke-width="3"/>
</g>
<g><path d="M351.58 175.23L354.4 172.41"
fill="none" stroke="black" stroke-width="3"/>
</g>
<g><path d="M360.04 166.78L388.22 138.6"
fill="none" stroke="black" stroke-width="3"/>
</g>
<g><path d="M393.85 132.96L396.67 130.14"
fill="none" stroke="black" stroke-width="3"/>
</g>
<g><path d="M99.37 399.27L120.5 378.13"
fill="none" stroke="black" stroke-width="3"/>
</g>
<g><path d="M126.14 372.5L128.95 369.68"
fill="none" stroke="black" stroke-width="3"/>
</g>
<g><path d="M134.59 364.04L162.77 335.86"
fill="none" stroke="black" stroke-width="3"/>
</g>
<g><path d="M168.41 330.22L171.23 327.41"
fill="none" stroke="black" stroke-width="3"/>
</g>
<g><path d="M176.86 321.77L205.04 293.59"
fill="none" stroke="black" stroke-width="3"/>
</g>
<g><path d="M210.68 287.95L213.5 285.14"
fill="none" stroke="black" stroke-width="3"/>
</g>
<g><path d="M219.13 279.5L247.31 251.32"
fill="none" stroke="black" stroke-width="3"/>
</g>
<g><path d="M252.95 245.68L255.77 242.86"
fill="none" stroke="black" stroke-width="3"/>
</g>
<g><path d="M261.4 237.23L289.58 209.05"
fill="none" stroke="black" stroke-width="3"/>
</g>
<g><path d="M295.22 203.41L298.04 200.59"
fill="none" stroke="black" stroke-width="3"/>
</g>
<g><path d="M303.67 194.96L331.85 166.78"
fill="none" stroke="black" stroke-width="3"/>
</g>
<g><path d="M337.49 161.14L340.31 158.32"
fill="none" stroke="black" stroke-width="3"/>
</g>
<g><path d="M345.95 152.69L374.13 124.51"
fill="none" stroke="black" stroke-width="3"/>
</g>
<g><path d="M379.76 118.87L382.58 116.05"
fill="none" stroke="black" stroke-width="3"/>
</g>
<g><path d="M388.22 110.42L399.27 99.37"
fill="none" stroke="black" stroke-width="3"/>
</g>
<g><path d="M71.18 399.27L72.59 397.86"
fill="none" stroke="black" stroke-width="3"/>
</g>
<g><path d="M78.23 392.22L106.41 364.04"
fill="none" stroke="black" stroke-width="3"/>
</g>
<g><path d="M112.05 358.4L114.86 355.59"
fill="none" stroke="black" stroke-width="3"/>
</g>
<g><path d="M120.5 349.95L148.68 321.77"
fill="none" stroke="black" stroke-width="3"/>
</g>
<g><path d="M154.32 316.13L157.14 313.32"
fill="none" stroke="black" stroke-width="3"/>
</g>
<g><path d="M162.77 307.68L190.95 279.5"
fill="none" stroke="black" stroke-width="3"/>
</g>
<g><path d="M196.59 273.86L199.41 271.05"
fill="none" stroke="black" stroke-width="3"/>
</g>
<g><path d="M205.04 265.41L233.22 237.23"
fill="none" stroke="black" stroke-width="3"/>
</g>
<g><path d="M238.86 231.59L241.68 228.77"
fill="none" stroke="black" stroke-width="3"/>
</g>
<g><path d="M247.31 223.14L275.49 194.96"
fill="none" stroke="black" stroke-width="3"/>
</g>
<g><path d="M281.13 189.32L283.95 186.5"
fill="none" stroke="black" stroke-width="3"/>
</g>
<g><path d="M289.58 180.87L317.76 152.69"
fill="none" stroke="black" stroke-width="3"/>
</g>
<g><path d="M323.4 147.05L326.22 144.23"
fill="none" stroke="black" stroke-width="3"/>
</g>
<g><path d="M331.85 138.6L360.04 110.42"
fill="none" stroke="black" stroke-width="3"/>
</g>
<g><path d="M365.67 104.78L368.49 101.96"
fill="none" stroke="black" stroke-width="3"/>
</g>
<g><path d="M374.13 96.33L399.27 71.18"
fill="none" stroke="black" stroke-width="3"/>
</g>
<g><path d="M43 399.27L50.05 392.22"
fill="none" stroke="black" stroke-width="3"/>
</g>
<g><path d="M55.69 386.59L58.5 383.77"
fill="none" stroke="black" stroke-width="3"/>
</g>
<g><path d="M64.14 378.13L92.32 349.95"
fill="none" stroke="black" stroke-width="3"/>
</g>
<g><path d="M97.96 344.31L100.77 341.5"
fill="none" stroke="black" stroke-width="3"/>
</g>
<g><path d="M106.41 335.86L134.59 307.68"
fill="none" stroke="black" stroke-width="3"/>
</g>
<g><path d="M140.23 302.04L143.05 299.23"
fill="none" stroke="black" stroke-width="3"/>
</g>
<g><path d="M148.68 293.59L176.86 265.41"
fill="none" stroke="black" stroke-width="3"/>
</g>
<g><path d="M182.5 259.77L185.32 256.95"
fill="none" stroke="black" stroke-width="3"/>
</g>
<g><path d="M190.95 251.32L219.13 223.14"
fill="none" stroke="black" stroke-width="3"/>
</g>
<g><path d="M224.77 217.5L227.59 214.68"
fill="none" stroke="black" stroke-width="3"/>
</g>
<g><path d="M233.22 209.05L261.4 180.87"
fill="none" stroke="black" stroke-width="3"/>
</g>
<g><path d="M267.04 175.23L269.86 172.41"
fill="none" stroke="black" stroke-width="3"/>
</g>
<g><path d="M275.49 166.78L303.67 138.6"
fill="none" stroke="black" stroke-width="3"/>
</g>
<g><path d="M309.31 132.96L312.13 130.14"
fill="none" stroke="black" stroke-width="3"/>
</g>
<g><path d="M317.76 124.51L345.95 96.33"
fill="none" stroke="black" stroke-width="3"/>
</g>
<g><path d="M351.58 90.69L354.4 87.87"
fill="none" stroke="black" stroke-width="3"/>
</g>
<g><path d="M360.04 82.24L388.22 54.05"
fill="none" stroke="black" stroke-width="3"/>
</g>
<g><path d="M393.85 48.42L396.67 45.6"
fill="none" stroke="black" stroke-width="3"/>
</g>
<g><path d="M14.82 399.27L35.96 378.13"
fill="none" stroke="black" stroke-width="3"/>
</g>
<g><path d="M41.6 372.5L44.41 369.68"
fill="none" stroke="black" stroke-width="3"/>
</g>
<g><path d="M50.05 364.04L78.23 335.86"
fill="none" stroke="black" stroke-width="3"/>
</g>
<g><path d="M83.87 330.22L86.68 327.41"
fill="none" stroke="black" stroke-width="3"/>
</g>
<g><path d="M92.32 321.77L120.5 293.59"
fill="none" stroke="black" stroke-width="3"/>
</g>
<g><path d="M126.14 287.95L128.95 285.14"
fill="none" stroke="black" stroke-width="3"/>
</g>
<g><path d="M134.59 279.5L162.77 251.32"
fill="none" stroke="black" stroke-width="3"/>
</g>
<g><path d="M168.41 245.68L171.23 242.86"
fill="none" stroke="black" stroke-width="3"/>
</g>
<g><path d="M176.86 237.23L205.04 209.05"
fill="none" stroke="black" stroke-width="3"/>
</g>
<g><path d="M210.68 203.41L213.5 200.59"
fill="none" stroke="black" stroke-width="3"/>
</g>
<g><path d="M219.13 194.96L247.31 166.78"
fill="none" stroke="black" stroke-width="3"/>
</g>
<g><path d="M252.95 161.14L255.77 158.32"
fill="none" stroke="black" stroke-width="3"/>
</g>
<g><path d="M261.4 152.69L289.58 124.51"
fill="none" stroke="black" stroke-width="3"/>
</g>
<g><path d="M295.22 118.87L298.04 116.05"
fill="none" stroke="black" stroke-width="3"/>
</g>
<g><path d="M303.67 110.42L331.85 82.24"
fill="none" stroke="black" stroke-width="3"/>
</g>
<g><path d="M337.49 76.6L340.31 73.78"
fill="none" stroke="black" stroke-width="3"/>
</g>
<g><path d="M345.95 68.15L374.13 39.96"
fill="none" stroke="black" stroke-width="3"/>
</g>
<g><path d="M379.76 34.33L382.58 31.51"
fill="none" stroke="black" stroke-width="3"/>
</g>
<g><path d="M388.22 25.87L399.27 14.82"
fill="none" stroke="black" stroke-width="3"/>
</g>
<g><path d="M0.73 385.18L21.87 364.04"
fill="none" stroke="black" stroke-width="3"/>
</g>
<g><path d="M27.5 358.4L30.32 355.59"
fill="none" stroke="black" stroke-width="3"/>
</g>
<g><path d="M35.96 349.95L64.14 321.77"
fill="none" stroke="black" stroke-width="3"/>
</g>
<g><path d="M69.78 316.13L72.59 313.32"
fill="none" stroke="black" stroke-width="3"/>
</g>
<g><path d="M78.23 307.68L106.41 279.5"
fill="none" stroke="black" stroke-width="3"/>
</g>
<g><path d="M112.05 273.86L114.86 271.05"
fill="none" stroke="black" stroke-width="3"/>
</g>
<g><path d="M120.5 265.41L148.68 237.23"
fill="none" stroke="black" stroke-width="3"/>
</g>
<g><path d="M154.32 231.59L157.14 228.77"
fill="none" stroke="black" stroke-width="3"/>
</g>
<g><path d="M162.77 223.14L190.95 194.96"
fill="none" stroke="black" stroke-width="3"/>
</g>
<g><path d="M196.59 189.32L199.41 186.5"
fill="none" stroke="black" stroke-width="3"/>
</g>
<g><path d="M205.04 180.87L233.22 152.69"
fill="none" stroke="black" stroke-width="3"/>
</g>
<g><path d="M238.86 147.05L241.68 144.23"
fill="none" stroke="black" stroke-width="3"/>
</g>
<g><path d="M247.31 138.6L275.49 110.42"
fill="none" stroke="black" stroke-width="3"/>
</g>
<g><path d="M281.13 104.78L283.95 101.96"
fill="none" stroke="black" stroke-width="3"/>
</g>
<g><path d="M289.58 96.33L317.76 68.15"
fill="none" stroke="black" stroke-width="3"/>
</g>
<g><path d="M323.4 62.51L326.22 59.69"
fill="none" stroke="black" stroke-width="3"/>
</g>
<g><path d="M331.85 54.05L360.04 25.87"
fill="none" stroke="black" stroke-width="3"/>
</g>
<g><path d="M365.67 20.24L368.49 17.42"
fill="none" stroke="black" stroke-width="3"/>
</g>
<g><path d="M374.13 11.78L385.18 0.73"
fill="none" stroke="black" stroke-width="3"/>
</g>
<g><path d="M0.73 357L7.78 349.95"
fill="none" stroke="black" stroke-width="3"/>
</g>
<g><path d="M13.41 344.31L16.23 341.5"
fill="none" stroke="black" stroke-width="3"/>
</g>
<g><path d="M21.87 335.86L50.05 307.68"
fill="none" stroke="black" stroke-width="3"/>
</g>
<g><path d="M55.69 302.04L58.5 299.23"
fill="none" stroke="black" stroke-width="3"/>
</g>
<g><path d="M64.14 293.59L92.32 265.41"
fill="none" stroke="black" stroke-width="3"/>
</g>
<g><path d="M97.96 259.77L100.77 256.95"
fill="none" stroke="black" stroke-width="3"/>
</g>
<g><path d="M106.41 251.32L134.59 223.14"
fill="none" stroke="black" stroke-width="3"/>
</g>
<g><path d="M140.23 217.5L143.05 214.68"
fill="none" stroke="black" stroke-width="3"/>
</g>
<g><path d="M148.68 209.05L176.86 180.87"
fill="none" stroke="black" stroke-width="3"/>
</g>
<g><path d="M182.5 175.23L185.32 172.41"
fill="none" stroke="black" stroke-width="3"/>
</g>
<g><path d="M190.95 166.78L219.13 138.6"
fill="none" stroke="black" stroke-width="3"/>
</g>
<g><path d="M224.77 132.96L227.59 130.14"
fill="none" stroke="black" stroke-width="3"/>
</g>
<g><path d="M233.22 124.51L261.4 96.33"
fill="none" stroke="black" stroke-width="3"/>
</g>
<g><path d="M267.04 90.69L269.86 87.87"
fill="none" stroke="black" stroke-width="3"/>
</g>
<g><path d="M275.49 82.24L303.67 54.05"
fill="none" stroke="black" stroke-width="3"/>
</g>
<g><path d="M309.31 48.42L312.13 45.6"
fill="none" stroke="black" stroke-width="3"/>
</g>
<g><path d="M317.76 39.96L345.95 11.78"
fill="none" stroke="black" stroke-width="3"/>
</g>
<g><path d="M351.58 6.15L354.4 3.33"
fill="none" stroke="black" stroke-width="3"/>
</g>
<g><path d="M0.73 328.82L2.14 327.41"
fill="none" stroke="black" stroke-width="3"/>
</g>
<g><path d="M7.78 321.77L35.96 293.59"
fill="none" stroke="black" stroke-width="3"/>
</g>
<g><path d="M41.6 287.95L44.41 285.14"
fill="none" stroke="black" stroke-width="3"/>
</g>
<g><path d="M50.05 279.5L78.23 251.32"
fill="none" stroke="black" stroke-width="3"/>
</g>
<g><path d="M83.87 245.68L86.68 242.86"
fill="none" stroke="black" stroke-width="3"/>
</g>
<g><path d="M92.32 237.23L120.5 209.05"
fill="none" stroke="black" stroke-width="3"/>
</g>
<g><path d="M126.14 203.41L128.95 200.59"
fill="none" stroke="black" stroke-width="3"/>
</g>
<g><path d="M134.59 194.96L162.77 166.78"
fill="none" stroke="black" stroke-width="3"/>
</g>
<g><path d="M168.41 161.14L171.23 158.32"
fill="none" stroke="black" stroke-width="3"/>
</g>
<g><path d="M176.86 152.69L205.04 124.51"
fill="none" stroke="black" stroke-width="3"/>
</g>
<g><path d="M210.68 118.87L213.5 116.05"
fill="none" stroke="black" stroke-width="3"/>
</g>
<g><path d="M219.13 110.42L247.31 82.24"
fill="none" stroke="black" stroke-width="3"/>
</g>
<g><path d="M252.95 76.6L255.77 73.78"
fill="none" stroke="black" stroke-width="3"/>
</g>
<g><path d="M261.4 68.15L289.58 39.96"
fill="none" stroke="black" stroke-width="3"/>
</g>
<g><path d="M295.22 34.33L298.04 31.51"
fill="none" stroke="black" stroke-width="3"/>
</g>
<g><path d="M303.67 25.87L328.82 0.73"
fill="none" stroke="black" stroke-width="3"/>
</g>
<g><path d="M0.73 300.63L21.87 279.5"
fill="none" stroke="black" stroke-width="3"/>
</g>
<g><path d="M27.5 273.86L30.32 271.05"
fill="none" stroke="black" stroke-width="3"/>
</g>
<g><path d="M35.96 265.41L64.14 237.23"
fill="none" stroke="black" stroke-width="3"/>
</g>
<g><path d="M69.78 231.59L72.59 228.77"
fill="none" stroke="black" stroke-width="3"/>
</g>
<g><path d="M78.23 223.14L106.41 194.96"
fill="none" stroke="black" stroke-width="3"/>
</g>
<g><path d="M112.05 189.32L114.86 186.5"
fill="none" stroke="black" stroke-width="3"/>
</g>
<g><path d="M120.5 180.87L148.68 152.69"
fill="none" stroke="black" stroke-width="3"/>
</g>
<g><path d="M154.32 147.05L157.14 144.23"
fill="none" stroke="black" stroke-width="3"/>
</g>
<g><path d="M162.77 138.6L190.95 110.42"
fill="none" stroke="black" stroke-width="3"/>
</g>
<g><path d="M196.59 104.78L199.41 101.96"
fill="none" stroke="black" stroke-width="3"/>
</g>
<g><path d="M205.04 96.33L233.22 68.15"
fill="none" stroke="black" stroke-width="3"/>
</g>
<g><path d="M238.86 62.51L241.68 59.69"
fill="none" stroke="black" stroke-width="3"/>
</g>
<g><path d="M247.31 54.05L275.49 25.87"
fill="none" stroke="black" stroke-width="3"/>
</g>
<g><path d="M281.13 20.24L283.95 17.42"
fill="none" stroke="black" stroke-width="3"/>
</g>
<g><path d="M289.58 11.78L300.63 0.73"
fill="none" stroke="black" stroke-width="3"/>
</g>
<g><path d="M0.73 272.45L7.78 265.41"
fill="none" stroke="black" stroke-width="3"/>
</g>
<g><path d="M13.41 259.77L16.23 256.95"
fill="none" stroke="black" stroke-width="3"/>
</g>
<g><path d="M21.87 251.32L50.05 223.14"
fill="none" stroke="black" stroke-width="3"/>
</g>
<g><path d="M55.69 217.5L58.5 214.68"
fill="none" stroke="black" stroke-width="3"/>
</g>
<g><path d="M64.14 209.05L92.32 180.87"
fill="none" stroke="black" stroke-width="3"/>
</g>
<g><path d="M97.96 175.23L100.77 172.41"
fill="none" stroke="black" stroke-width="3"/>
</g>
<g><path d="M106.41 166.78L134.59 138.6"
fill="none" stroke="black" stroke-width="3"/>
</g>
<g><path d="M140.23 132.96L143.05 130.14"
fill="none" stroke="black" stroke-width="3"/>
</g>
<g><path d="M148.68 124.51L176.86 96.33"
fill="none" stroke="black" stroke-width="3"/>
</g>
<g><path d="M182.5 90.69L185.32 87.87"
fill="none" stroke="black" stroke-width="3"/>
</g>
<g><path d="M190.95 82.24L219.13 54.05"
fill="none" stroke="black" stroke-width="3"/>
</g>
<g><path d="M224.77 48.42L227.59 45.6"
fill="none" stroke="black" stroke-width="3"/>
</g>
<g><path d="M233.22 39.96L261.4 11.78"
fill="none" stroke="black" stroke-width="3"/>
</g>
<g><path d="M267.04 6.15L269.86 3.33"
fill="none" stroke="black" stroke-width="3"/>
</g>
<g><path d="M0.73 244.27L2.14 242.86"
fill="none" stroke="black" stroke-width="3"/>
</g>
<g><path d="M7.78 237.23L35.96 209.05"
fill="none" stroke="black" stroke-width="3"/>
</g>
<g><path d="M41.6 203.41L44.41 200.59"
fill="none" stroke="black" stroke-width="3"/>
</g>
<g><path d="M50.05 194.96L78.23 166.78"
fill="none" stroke="black" stroke-width="3"/>
</g>
<g><path d="M83.87 161.14L86.68 158.32"
fill="none" stroke="black" stroke-width="3"/>
</g>
<g><path d="M92.32 152.69L120.5 124.51"
fill="none" stroke="black" stroke-width="3"/>
</g>
<g><path d="M126.14 118.87L128.95 116.05"
fill="none" stroke="black" stroke-width="3"/>
</g>
<g><path d="M134.59 110.42L162.77 82.24"
fill="none" stroke="black" stroke-width="3"/>
</g>
<g><path d="M168.41 76.6L171.23 73.78"
fill="none" stroke="black" stroke-width="3"/>
</g>
<g><path d="M176.86 68.15L205.04 39.96"
fill="none" stroke="black" stroke-width="3"/>
</g>
<g><path d="M210.68 34.33L213.5 31.51"
fill="none" stroke="black" stroke-width="3"/>
</g>
<g><path d="M219.13 25.87L244.27 0.73"
fill="none" stroke="black" stroke-width="3"/>
</g>
<g><path d="M0.73 216.09L21.87 194.96"
fill="none" stroke="black" stroke-width="3"/>
</g>
<g><path d="M27.5 189.32L30.32 186.5"
fill="none" stroke="black" stroke-width="3"/>
</g>
<g><path d="M35.96 180.87L64.14 152.69"
fill="none" stroke="black" stroke-width="3"/>
</g>
<g><path d="M69.78 147.05L72.59 144.23"
fill="none" stroke="black" stroke-width="3"/>
</g>
<g><path d="M78.23 138.6L106.41 110.42"
fill="none" stroke="black" stroke-width="3"/>
</g>
<g><path d="M112.05 104.78L114.86 101.96"
fill="none" stroke="black" stroke-width="3"/>
</g>
<g><path d="M120.5 96.33L148.68 68.15"
fill="none" stroke="black" stroke-width="3"/>
</g>
<g><path d="M154.32 62.51L157.14 59.69"
fill="none" stroke="black" stroke-width="3"/>
</g>
<g><path d="M162.77 54.05L190.95 25.87"
fill="none" stroke="black" stroke-width="3"/>
</g>
<g><path d="M196.59 20.24L199.41 17.42"
fill="none" stroke="black" stroke-width="3"/>
</g>
<g><path d="M205.04 11.78L216.09 0.73"
fill="none" stroke="black" stroke-width="3"/>
</g>
<g><path d="M0.73 187.91L7.78 180.87"
fill="none" stroke="black" stroke-width="3"/>
</g>
<g><path d="M13.41 175.23L16.23 172.41"
fill="none" stroke="black" stroke-width="3"/>
</g>
<g><path d="M21.87 166.78L50.05 138.6"
fill="none" stroke="black" stroke-width="3"/>
</g>
<g><path d="M55.69 132.96L58.5 130.14"
fill="none" stroke="black" stroke-width="3"/>
</g>
<g><path d="M64.14 124.51L92.32 96.33"
fill="none" stroke="black" stroke-width="3"/>
</g>
<g><path d="M97.96 90.69L100.77 87.87"
fill="none" stroke="black" stroke-width="3"/>
</g>
<g><path d="M106.41 82.24L134.59 54.05"
fill="none" stroke="black" stroke-width="3"/>
</g>
<g><path d="M140.23 48.42L143.05 45.6"
fill="none" stroke="black" stroke-width="3"/>
</g>
<g><path d="M148.68 39.96L176.86 11.78"
fill="none" stroke="black" stroke-width="3"/>
</g>
<g><path d="M182.5 6.15L185.32 3.33"
fill="none" stroke="black" stroke-width="3"/>
</g>
<g><path d="M0.73 159.73L2.14 158.32"
fill="none" stroke="black" stroke-width="3"/>
</g>
<g><path d="M7.78 152.69L35.96 124.51"
fill="none" stroke="black" stroke-width="3"/>
</g>
<g><path d="M41.6 118.87L44.41 116.05"
fill="none" stroke="black" stroke-width="3"/>
</g>
<g><path d="M50.05 110.42L78.23 82.24"
fill="none" stroke="black" stroke-width="3"/>
</g>
<g><path d="M83.87 76.6L86.68 73.78"
fill="none" stroke="black" stroke-width="3"/>
</g>
<g><path d="M92.32 68.15L120.5 39.96"
fill="none" stroke="black" stroke-width="3"/>
</g>
<g><path d="M126.14 34.33L128.95 31.51"
fill="none" stroke="black" stroke-width="3"/>
</g>
<g><path d="M134.59 25.87L159.73 0.73"
fill="none" stroke="black" stroke-width="3"/>
</g>
<g><path d="M0.73 131.55L21.87 110.42"
fill="none" stroke="black" stroke-width="3"/>
</g>
<g><path d="M27.5 104.78L30.32 101.96"
fill="none" stroke="black" stroke-width="3"/>
</g>
<g><path d="M35.96 96.33L64.14 68.15"
fill="none" stroke="black" stroke-width="3"/>
</g>
<g><path d="M69.78 62.51L72.59 59.69"
fill="none" stroke="black" stroke-width="3"/>
</g>
<g><path d="M78.23 54.05L106.41 25.87"
fill="none" stroke="black" stroke-width="3"/>
</g>
<g><path d="M112.05 20.24L114.86 17.42"
fill="none" stroke="black" stroke-width="3"/>
</g>
<g><path d="M120.5 11.78L131.55 0.73"
fill="none" stroke="black" stroke-width="3"/>
</g>
<g><path d="M0.73 103.37L7.78 96.33"
fill="none" stroke="black" stroke-width="3"/>
</g>
<g><path d="M13.41 90.69L16.23 87.87"
fill="none" stroke="black" stroke-width="3"/>
</g>
<g><path d="M21.87 82.24L50.05 54.05"
fill="none" stroke="black" stroke-width="3"/>
</g>
<g><path d="M55.69 48.42L58.5 45.6"
fill="none" stroke="black" stroke-width="3"/>
</g>
<g><path d="M64.14 39.96L92.32 11.78"
fill="none" stroke="black" stroke-width="3"/>
</g>
<g><path d="M97.96 6.15L100.77 3.33"
fill="none" stroke="black" stroke-width="3"/>
</g>
<g><path d="M0.73 75.19L2.14 73.78"
fill="none" stroke="black" stroke-width="3"/>
</g>
<g><path d="M7.78 68.15L35.96 39.96"
fill="none" stroke="black" stroke-width="3"/>
</g>
<g><path d="M41.6 34.33L44.41 31.51"
fill="none" stroke="black" stroke-width="3"/>
</g>
<g><path d="M50.05 25.87L75.19 0.73"
fill="none" stroke="black" stroke-width="3"/>
</g>
<g><path d="M0.73 47.01L21.87 25.87"
fill="none" stroke="black" stroke-width="3"/>
</g>
<g><path d="M27.5 20.24L30.32 17.42"
fill="none" stroke="black" stroke-width="3"/>
</g>
<g><path d="M35.96 11.78L47.01 0.73"
fill="none" stroke="black" stroke-width="3"/>
</g>
<g><path d="M0.73 18.83L7.78 11.78"
fill="none" stroke="black" stroke-width="3"/>
</g>
<g><path d="M13.41 6.15L16.23 3.33"
fill="none" stroke="black" stroke-width="3"/>
</g>
</g>
</svg>
