<?xml version="1.0" standalone="no"?><svg xmlns="http://www.w3.org/2000/svg" width="400.000" height="400.000" viewBox="0.0 0.0 400.000 400.000" version="1.1">
  <title>Produce by Acme CAD Converter</title>
  <desc>Produce by Acme CAD Converter</desc>
<g id="0" display="visible">
<g><path d="M389.63 399.27L399.27 389.63"
fill="none" stroke="black" stroke-width="3"/>
</g>
<g><path d="M372.72 399.27L399.27 372.72"
fill="none" stroke="black" stroke-width="3"/>
</g>
<g><path d="M355.81 399.27L399.27 355.81"
fill="none" stroke="black" stroke-width="3"/>
</g>
<g><path d="M338.9 399.27L399.27 338.9"
fill="none" stroke="black" stroke-width="3"/>
</g>
<g><path d="M321.99 399.27L399.27 321.99"
fill="none" stroke="black" stroke-width="3"/>
</g>
<g><path d="M305.08 399.27L399.27 305.08"
fill="none" stroke="black" stroke-width="3"/>
</g>
<g><path d="M288.18 399.27L399.27 288.18"
fill="none" stroke="black" stroke-width="3"/>
</g>
<g><path d="M271.27 399.27L399.27 271.27"
fill="none" stroke="black" stroke-width="3"/>
</g>
<g><path d="M254.36 399.27L399.27 254.36"
fill="none" stroke="black" stroke-width="3"/>
</g>
<g><path d="M237.45 399.27L399.27 237.45"
fill="none" stroke="black" stroke-width="3"/>
</g>
<g><path d="M220.54 399.27L399.27 220.54"
fill="none" stroke="black" stroke-width="3"/>
</g>
<g><path d="M203.63 399.27L399.27 203.63"
fill="none" stroke="black" stroke-width="3"/>
</g>
<g><path d="M186.73 399.27L399.27 186.73"
fill="none" stroke="black" stroke-width="3"/>
</g>
<g><path d="M169.82 399.27L399.27 169.82"
fill="none" stroke="black" stroke-width="3"/>
</g>
<g><path d="M152.91 399.27L399.27 152.91"
fill="none" stroke="black" stroke-width="3"/>
</g>
<g><path d="M136 399.27L399.27 136"
fill="none" stroke="black" stroke-width="3"/>
</g>
<g><path d="M119.09 399.27L399.27 119.09"
fill="none" stroke="black" stroke-width="3"/>
</g>
<g><path d="M102.18 399.27L399.27 102.18"
fill="none" stroke="black" stroke-width="3"/>
</g>
<g><path d="M85.28 399.27L399.27 85.28"
fill="none" stroke="black" stroke-width="3"/>
</g>
<g><path d="M68.37 399.27L399.27 68.37"
fill="none" stroke="black" stroke-width="3"/>
</g>
<g><path d="M51.46 399.27L399.27 51.46"
fill="none" stroke="black" stroke-width="3"/>
</g>
<g><path d="M34.55 399.27L399.27 34.55"
fill="none" stroke="black" stroke-width="3"/>
</g>
<g><path d="M17.64 399.27L399.27 17.64"
fill="none" stroke="black" stroke-width="3"/>
</g>
<g><path d="M0.73 399.27L399.27 0.73"
fill="none" stroke="black" stroke-width="3"/>
</g>
<g><path d="M0.73 382.36L382.36 0.73"
fill="none" stroke="black" stroke-width="3"/>
</g>
<g><path d="M0.73 365.45L365.45 0.73"
fill="none" stroke="black" stroke-width="3"/>
</g>
<g><path d="M0.73 348.54L348.54 0.73"
fill="none" stroke="black" stroke-width="3"/>
</g>
<g><path d="M0.73 331.63L331.63 0.73"
fill="none" stroke="black" stroke-width="3"/>
</g>
<g><path d="M0.73 314.72L314.72 0.73"
fill="none" stroke="black" stroke-width="3"/>
</g>
<g><path d="M0.73 297.82L297.82 0.73"
fill="none" stroke="black" stroke-width="3"/>
</g>
<g><path d="M0.73 280.91L280.91 0.73"
fill="none" stroke="black" stroke-width="3"/>
</g>
<g><path d="M0.73 264L264 0.73"
fill="none" stroke="black" stroke-width="3"/>
</g>
<g><path d="M0.73 247.09L247.09 0.73"
fill="none" stroke="black" stroke-width="3"/>
</g>
<g><path d="M0.73 230.18L230.18 0.73"
fill="none" stroke="black" stroke-width="3"/>
</g>
<g><path d="M0.73 213.27L213.27 0.73"
fill="none" stroke="black" stroke-width="3"/>
</g>
<g><path d="M0.73 196.37L196.37 0.73"
fill="none" stroke="black" stroke-width="3"/>
</g>
<g><path d="M0.73 179.46L179.46 0.73"
fill="none" stroke="black" stroke-width="3"/>
</g>
<g><path d="M0.73 162.55L162.55 0.73"
fill="none" stroke="black" stroke-width="3"/>
</g>
<g><path d="M0.73 145.64L145.64 0.73"
fill="none" stroke="black" stroke-width="3"/>
</g>
<g><path d="M0.73 128.73L128.73 0.73"
fill="none" stroke="black" stroke-width="3"/>
</g>
<g><path d="M0.73 111.82L111.82 0.73"
fill="none" stroke="black" stroke-width="3"/>
</g>
<g><path d="M0.73 94.92L94.92 0.73"
fill="none" stroke="black" stroke-width="3"/>
</g>
<g><path d="M0.73 78.01L78.01 0.73"
fill="none" stroke="black" stroke-width="3"/>
</g>
<g><path d="M0.73 61.1L61.1 0.73"
fill="none" stroke="black" stroke-width="3"/>
</g>
<g><path d="M0.73 44.19L44.19 0.73"
fill="none" stroke="black" stroke-width="3"/>
</g>
<g><path d="M0.73 27.28L27.28 0.73"
fill="none" stroke="black" stroke-width="3"/>
</g>
<g><path d="M0.73 10.37L10.37 0.73"
fill="none" stroke="black" stroke-width="3"/>
</g>
<g><path d="M399.27 3.11L396.89 0.73"
fill="none" stroke="black" stroke-width="3"/>
</g>
<g><path d="M399.27 20.02L379.98 0.73"
fill="none" stroke="black" stroke-width="3"/>
</g>
<g><path d="M399.27 36.92L363.08 0.73"
fill="none" stroke="black" stroke-width="3"/>
</g>
<g><path d="M399.27 53.83L346.17 0.73"
fill="none" stroke="black" stroke-width="3"/>
</g>
<g><path d="M399.27 70.74L329.26 0.73"
fill="none" stroke="black" stroke-width="3"/>
</g>
<g><path d="M399.27 87.65L312.35 0.73"
fill="none" stroke="black" stroke-width="3"/>
</g>
<g><path d="M399.27 104.56L295.44 0.73"
fill="none" stroke="black" stroke-width="3"/>
</g>
<g><path d="M399.27 121.47L278.53 0.73"
fill="none" stroke="black" stroke-width="3"/>
</g>
<g><path d="M399.27 138.37L261.63 0.73"
fill="none" stroke="black" stroke-width="3"/>
</g>
<g><path d="M399.27 155.28L244.72 0.73"
fill="none" stroke="black" stroke-width="3"/>
</g>
<g><path d="M399.27 172.19L227.81 0.73"
fill="none" stroke="black" stroke-width="3"/>
</g>
<g><path d="M399.27 189.1L210.9 0.73"
fill="none" stroke="black" stroke-width="3"/>
</g>
<g><path d="M399.27 206.01L193.99 0.73"
fill="none" stroke="black" stroke-width="3"/>
</g>
<g><path d="M399.27 222.92L177.08 0.73"
fill="none" stroke="black" stroke-width="3"/>
</g>
<g><path d="M399.27 239.82L160.18 0.73"
fill="none" stroke="black" stroke-width="3"/>
</g>
<g><path d="M399.27 256.73L143.27 0.73"
fill="none" stroke="black" stroke-width="3"/>
</g>
<g><path d="M399.27 273.64L126.36 0.73"
fill="none" stroke="black" stroke-width="3"/>
</g>
<g><path d="M399.27 290.55L109.45 0.73"
fill="none" stroke="black" stroke-width="3"/>
</g>
<g><path d="M399.27 307.46L92.54 0.73"
fill="none" stroke="black" stroke-width="3"/>
</g>
<g><path d="M399.27 324.37L75.63 0.73"
fill="none" stroke="black" stroke-width="3"/>
</g>
<g><path d="M399.27 341.27L58.73 0.73"
fill="none" stroke="black" stroke-width="3"/>
</g>
<g><path d="M399.27 358.18L41.82 0.73"
fill="none" stroke="black" stroke-width="3"/>
</g>
<g><path d="M399.27 375.09L24.91 0.73"
fill="none" stroke="black" stroke-width="3"/>
</g>
<g><path d="M399.27 392L8 0.73"
fill="none" stroke="black" stroke-width="3"/>
</g>
<g><path d="M389.63 399.27L0.73 10.37"
fill="none" stroke="black" stroke-width="3"/>
</g>
<g><path d="M372.72 399.27L0.73 27.28"
fill="none" stroke="black" stroke-width="3"/>
</g>
<g><path d="M355.81 399.27L0.73 44.19"
fill="none" stroke="black" stroke-width="3"/>
</g>
<g><path d="M338.9 399.27L0.73 61.1"
fill="none" stroke="black" stroke-width="3"/>
</g>
<g><path d="M321.99 399.27L0.73 78.01"
fill="none" stroke="black" stroke-width="3"/>
</g>
<g><path d="M305.08 399.27L0.73 94.92"
fill="none" stroke="black" stroke-width="3"/>
</g>
<g><path d="M288.18 399.27L0.73 111.82"
fill="none" stroke="black" stroke-width="3"/>
</g>
<g><path d="M271.27 399.27L0.73 128.73"
fill="none" stroke="black" stroke-width="3"/>
</g>
<g><path d="M254.36 399.27L0.73 145.64"
fill="none" stroke="black" stroke-width="3"/>
</g>
<g><path d="M237.45 399.27L0.73 162.55"
fill="none" stroke="black" stroke-width="3"/>
</g>
<g><path d="M220.54 399.27L0.73 179.46"
fill="none" stroke="black" stroke-width="3"/>
</g>
<g><path d="M203.63 399.27L0.73 196.37"
fill="none" stroke="black" stroke-width="3"/>
</g>
<g><path d="M186.73 399.27L0.73 213.27"
fill="none" stroke="black" stroke-width="3"/>
</g>
<g><path d="M169.82 399.27L0.73 230.18"
fill="none" stroke="black" stroke-width="3"/>
</g>
<g><path d="M152.91 399.27L0.73 247.09"
fill="none" stroke="black" stroke-width="3"/>
</g>
<g><path d="M136 399.27L0.73 264"
fill="none" stroke="black" stroke-width="3"/>
</g>
<g><path d="M119.09 399.27L0.73 280.91"
fill="none" stroke="black" stroke-width="3"/>
</g>
<g><path d="M102.18 399.27L0.73 297.82"
fill="none" stroke="black" stroke-width="3"/>
</g>
<g><path d="M85.28 399.27L0.73 314.72"
fill="none" stroke="black" stroke-width="3"/>
</g>
<g><path d="M68.37 399.27L0.73 331.63"
fill="none" stroke="black" stroke-width="3"/>
</g>
<g><path d="M51.46 399.27L0.73 348.54"
fill="none" stroke="black" stroke-width="3"/>
</g>
<g><path d="M34.55 399.27L0.73 365.45"
fill="none" stroke="black" stroke-width="3"/>
</g>
<g><path d="M17.64 399.27L0.73 382.36"
fill="none" stroke="black" stroke-width="3"/>
</g>
</g>
</svg>
