<?xml version="1.0" standalone="no"?><svg xmlns="http://www.w3.org/2000/svg" width="400.000" height="400.000" viewBox="0.0 0.0 400.000 400.000" version="1.1">
  <title>Produce by Acme CAD Converter</title>
  <desc>Produce by Acme CAD Converter</desc>
<g id="0" display="visible">
<g><path d="M395.26 399.27L399.27 395.26"
fill="none" stroke="black" stroke-width="3"/>
</g>
<g><path d="M367.08 399.27L399.27 367.08"
fill="none" stroke="black" stroke-width="3"/>
</g>
<g><path d="M338.9 399.27L399.27 338.9"
fill="none" stroke="black" stroke-width="3"/>
</g>
<g><path d="M310.72 399.27L399.27 310.72"
fill="none" stroke="black" stroke-width="3"/>
</g>
<g><path d="M282.54 399.27L399.27 282.54"
fill="none" stroke="black" stroke-width="3"/>
</g>
<g><path d="M254.36 399.27L399.27 254.36"
fill="none" stroke="black" stroke-width="3"/>
</g>
<g><path d="M226.18 399.27L399.27 226.18"
fill="none" stroke="black" stroke-width="3"/>
</g>
<g><path d="M198 399.27L399.27 198"
fill="none" stroke="black" stroke-width="3"/>
</g>
<g><path d="M169.82 399.27L399.27 169.82"
fill="none" stroke="black" stroke-width="3"/>
</g>
<g><path d="M141.64 399.27L399.27 141.64"
fill="none" stroke="black" stroke-width="3"/>
</g>
<g><path d="M113.46 399.27L399.27 113.46"
fill="none" stroke="black" stroke-width="3"/>
</g>
<g><path d="M85.28 399.27L399.27 85.28"
fill="none" stroke="black" stroke-width="3"/>
</g>
<g><path d="M57.09 399.27L399.27 57.09"
fill="none" stroke="black" stroke-width="3"/>
</g>
<g><path d="M28.91 399.27L399.27 28.91"
fill="none" stroke="black" stroke-width="3"/>
</g>
<g><path d="M0.73 399.27L399.27 0.73"
fill="none" stroke="black" stroke-width="3"/>
</g>
<g><path d="M0.73 371.09L371.09 0.73"
fill="none" stroke="black" stroke-width="3"/>
</g>
<g><path d="M0.73 342.91L342.91 0.73"
fill="none" stroke="black" stroke-width="3"/>
</g>
<g><path d="M0.73 314.72L314.72 0.73"
fill="none" stroke="black" stroke-width="3"/>
</g>
<g><path d="M0.73 286.54L286.54 0.73"
fill="none" stroke="black" stroke-width="3"/>
</g>
<g><path d="M0.73 258.36L258.36 0.73"
fill="none" stroke="black" stroke-width="3"/>
</g>
<g><path d="M0.73 230.18L230.18 0.73"
fill="none" stroke="black" stroke-width="3"/>
</g>
<g><path d="M0.73 202L202 0.73"
fill="none" stroke="black" stroke-width="3"/>
</g>
<g><path d="M0.73 173.82L173.82 0.73"
fill="none" stroke="black" stroke-width="3"/>
</g>
<g><path d="M0.73 145.64L145.64 0.73"
fill="none" stroke="black" stroke-width="3"/>
</g>
<g><path d="M0.73 117.46L117.46 0.73"
fill="none" stroke="black" stroke-width="3"/>
</g>
<g><path d="M0.73 89.28L89.28 0.73"
fill="none" stroke="black" stroke-width="3"/>
</g>
<g><path d="M0.73 61.1L61.1 0.73"
fill="none" stroke="black" stroke-width="3"/>
</g>
<g><path d="M0.73 32.92L32.92 0.73"
fill="none" stroke="black" stroke-width="3"/>
</g>
<g><path d="M0.73 4.74L4.74 0.73"
fill="none" stroke="black" stroke-width="3"/>
</g>
<g><path d="M385.96 399.27L399.27 385.96"
fill="none" stroke="black" stroke-width="3"/>
</g>
<g><path d="M357.78 399.27L399.27 357.78"
fill="none" stroke="black" stroke-width="3"/>
</g>
<g><path d="M329.6 399.27L399.27 329.6"
fill="none" stroke="black" stroke-width="3"/>
</g>
<g><path d="M301.42 399.27L399.27 301.42"
fill="none" stroke="black" stroke-width="3"/>
</g>
<g><path d="M273.24 399.27L399.27 273.24"
fill="none" stroke="black" stroke-width="3"/>
</g>
<g><path d="M245.06 399.27L399.27 245.06"
fill="none" stroke="black" stroke-width="3"/>
</g>
<g><path d="M216.88 399.27L399.27 216.88"
fill="none" stroke="black" stroke-width="3"/>
</g>
<g><path d="M188.7 399.27L399.27 188.7"
fill="none" stroke="black" stroke-width="3"/>
</g>
<g><path d="M160.52 399.27L399.27 160.52"
fill="none" stroke="black" stroke-width="3"/>
</g>
<g><path d="M132.34 399.27L399.27 132.34"
fill="none" stroke="black" stroke-width="3"/>
</g>
<g><path d="M104.16 399.27L399.27 104.16"
fill="none" stroke="black" stroke-width="3"/>
</g>
<g><path d="M75.98 399.27L399.27 75.98"
fill="none" stroke="black" stroke-width="3"/>
</g>
<g><path d="M47.79 399.27L399.27 47.79"
fill="none" stroke="black" stroke-width="3"/>
</g>
<g><path d="M19.61 399.27L399.27 19.61"
fill="none" stroke="black" stroke-width="3"/>
</g>
<g><path d="M0.73 389.97L389.97 0.73"
fill="none" stroke="black" stroke-width="3"/>
</g>
<g><path d="M0.73 361.79L361.79 0.73"
fill="none" stroke="black" stroke-width="3"/>
</g>
<g><path d="M0.73 333.61L333.61 0.73"
fill="none" stroke="black" stroke-width="3"/>
</g>
<g><path d="M0.73 305.43L305.43 0.73"
fill="none" stroke="black" stroke-width="3"/>
</g>
<g><path d="M0.73 277.24L277.24 0.73"
fill="none" stroke="black" stroke-width="3"/>
</g>
<g><path d="M0.73 249.06L249.06 0.73"
fill="none" stroke="black" stroke-width="3"/>
</g>
<g><path d="M0.73 220.88L220.88 0.73"
fill="none" stroke="black" stroke-width="3"/>
</g>
<g><path d="M0.73 192.7L192.7 0.73"
fill="none" stroke="black" stroke-width="3"/>
</g>
<g><path d="M0.73 164.52L164.52 0.73"
fill="none" stroke="black" stroke-width="3"/>
</g>
<g><path d="M0.73 136.34L136.34 0.73"
fill="none" stroke="black" stroke-width="3"/>
</g>
<g><path d="M0.73 108.16L108.16 0.73"
fill="none" stroke="black" stroke-width="3"/>
</g>
<g><path d="M0.73 79.98L79.98 0.73"
fill="none" stroke="black" stroke-width="3"/>
</g>
<g><path d="M0.73 51.8L51.8 0.73"
fill="none" stroke="black" stroke-width="3"/>
</g>
<g><path d="M0.73 23.62L23.62 0.73"
fill="none" stroke="black" stroke-width="3"/>
</g>
</g>
</svg>
