<?xml version="1.0" standalone="no"?><svg xmlns="http://www.w3.org/2000/svg" width="400.000" height="400.000" viewBox="0.0 0.0 400.000 400.000" version="1.1">
  <title>Produce by Acme CAD Converter</title>
  <desc>Produce by Acme CAD Converter</desc>
<g id="0" display="visible">
<g><path d="M377.65 388.7L398.78 367.56"
fill="none" stroke="black" stroke-width="3"/>
</g>
<g><path d="M345.95 392.22L367.08 371.09"
fill="none" stroke="black" stroke-width="3"/>
</g>
<g><path d="M381.17 357L399.27 338.9"
fill="none" stroke="black" stroke-width="3"/>
</g>
<g><path d="M314.24 395.74L335.38 374.61"
fill="none" stroke="black" stroke-width="3"/>
</g>
<g><path d="M349.47 360.52L370.6 339.38"
fill="none" stroke="black" stroke-width="3"/>
</g>
<g><path d="M384.69 325.29L399.27 310.72"
fill="none" stroke="black" stroke-width="3"/>
</g>
<g><path d="M282.54 399.27L303.67 378.13"
fill="none" stroke="black" stroke-width="3"/>
</g>
<g><path d="M317.76 364.04L338.9 342.91"
fill="none" stroke="black" stroke-width="3"/>
</g>
<g><path d="M352.99 328.82L374.13 307.68"
fill="none" stroke="black" stroke-width="3"/>
</g>
<g><path d="M388.22 293.59L399.27 282.54"
fill="none" stroke="black" stroke-width="3"/>
</g>
<g><path d="M254.36 399.27L271.97 381.65"
fill="none" stroke="black" stroke-width="3"/>
</g>
<g><path d="M286.06 367.56L307.2 346.43"
fill="none" stroke="black" stroke-width="3"/>
</g>
<g><path d="M321.29 332.34L342.42 311.2"
fill="none" stroke="black" stroke-width="3"/>
</g>
<g><path d="M356.51 297.11L377.65 275.98"
fill="none" stroke="black" stroke-width="3"/>
</g>
<g><path d="M391.74 261.89L399.27 254.36"
fill="none" stroke="black" stroke-width="3"/>
</g>
<g><path d="M226.18 399.27L240.27 385.18"
fill="none" stroke="black" stroke-width="3"/>
</g>
<g><path d="M254.36 371.09L275.49 349.95"
fill="none" stroke="black" stroke-width="3"/>
</g>
<g><path d="M289.58 335.86L310.72 314.72"
fill="none" stroke="black" stroke-width="3"/>
</g>
<g><path d="M324.81 300.63L345.95 279.5"
fill="none" stroke="black" stroke-width="3"/>
</g>
<g><path d="M360.04 265.41L381.17 244.27"
fill="none" stroke="black" stroke-width="3"/>
</g>
<g><path d="M395.26 230.18L399.27 226.18"
fill="none" stroke="black" stroke-width="3"/>
</g>
<g><path d="M198 399.27L208.56 388.7"
fill="none" stroke="black" stroke-width="3"/>
</g>
<g><path d="M222.66 374.61L243.79 353.47"
fill="none" stroke="black" stroke-width="3"/>
</g>
<g><path d="M257.88 339.38L279.02 318.25"
fill="none" stroke="black" stroke-width="3"/>
</g>
<g><path d="M293.11 304.16L314.24 283.02"
fill="none" stroke="black" stroke-width="3"/>
</g>
<g><path d="M328.33 268.93L349.47 247.8"
fill="none" stroke="black" stroke-width="3"/>
</g>
<g><path d="M363.56 233.71L384.69 212.57"
fill="none" stroke="black" stroke-width="3"/>
</g>
<g><path d="M398.78 198.48L399.27 198"
fill="none" stroke="black" stroke-width="3"/>
</g>
<g><path d="M169.82 399.27L176.86 392.22"
fill="none" stroke="black" stroke-width="3"/>
</g>
<g><path d="M190.95 378.13L212.09 357"
fill="none" stroke="black" stroke-width="3"/>
</g>
<g><path d="M226.18 342.91L247.31 321.77"
fill="none" stroke="black" stroke-width="3"/>
</g>
<g><path d="M261.4 307.68L282.54 286.54"
fill="none" stroke="black" stroke-width="3"/>
</g>
<g><path d="M296.63 272.45L317.76 251.32"
fill="none" stroke="black" stroke-width="3"/>
</g>
<g><path d="M331.85 237.23L352.99 216.09"
fill="none" stroke="black" stroke-width="3"/>
</g>
<g><path d="M367.08 202L388.22 180.87"
fill="none" stroke="black" stroke-width="3"/>
</g>
<g><path d="M141.64 399.27L145.16 395.74"
fill="none" stroke="black" stroke-width="3"/>
</g>
<g><path d="M159.25 381.65L180.38 360.52"
fill="none" stroke="black" stroke-width="3"/>
</g>
<g><path d="M194.47 346.43L215.61 325.29"
fill="none" stroke="black" stroke-width="3"/>
</g>
<g><path d="M229.7 311.2L250.84 290.07"
fill="none" stroke="black" stroke-width="3"/>
</g>
<g><path d="M264.93 275.98L286.06 254.84"
fill="none" stroke="black" stroke-width="3"/>
</g>
<g><path d="M300.15 240.75L321.29 219.62"
fill="none" stroke="black" stroke-width="3"/>
</g>
<g><path d="M335.38 205.53L356.51 184.39"
fill="none" stroke="black" stroke-width="3"/>
</g>
<g><path d="M370.6 170.3L391.74 149.16"
fill="none" stroke="black" stroke-width="3"/>
</g>
<g><path d="M127.55 385.18L148.68 364.04"
fill="none" stroke="black" stroke-width="3"/>
</g>
<g><path d="M162.77 349.95L183.91 328.82"
fill="none" stroke="black" stroke-width="3"/>
</g>
<g><path d="M198 314.72L219.13 293.59"
fill="none" stroke="black" stroke-width="3"/>
</g>
<g><path d="M233.22 279.5L254.36 258.36"
fill="none" stroke="black" stroke-width="3"/>
</g>
<g><path d="M268.45 244.27L289.58 223.14"
fill="none" stroke="black" stroke-width="3"/>
</g>
<g><path d="M303.67 209.05L324.81 187.91"
fill="none" stroke="black" stroke-width="3"/>
</g>
<g><path d="M338.9 173.82L360.04 152.69"
fill="none" stroke="black" stroke-width="3"/>
</g>
<g><path d="M374.13 138.6L395.26 117.46"
fill="none" stroke="black" stroke-width="3"/>
</g>
<g><path d="M95.84 388.7L116.98 367.56"
fill="none" stroke="black" stroke-width="3"/>
</g>
<g><path d="M131.07 353.47L152.2 332.34"
fill="none" stroke="black" stroke-width="3"/>
</g>
<g><path d="M166.29 318.25L187.43 297.11"
fill="none" stroke="black" stroke-width="3"/>
</g>
<g><path d="M201.52 283.02L222.66 261.89"
fill="none" stroke="black" stroke-width="3"/>
</g>
<g><path d="M236.75 247.8L257.88 226.66"
fill="none" stroke="black" stroke-width="3"/>
</g>
<g><path d="M271.97 212.57L293.11 191.44"
fill="none" stroke="black" stroke-width="3"/>
</g>
<g><path d="M307.2 177.34L328.33 156.21"
fill="none" stroke="black" stroke-width="3"/>
</g>
<g><path d="M342.42 142.12L363.56 120.98"
fill="none" stroke="black" stroke-width="3"/>
</g>
<g><path d="M377.65 106.89L398.78 85.76"
fill="none" stroke="black" stroke-width="3"/>
</g>
<g><path d="M64.14 392.22L85.28 371.09"
fill="none" stroke="black" stroke-width="3"/>
</g>
<g><path d="M99.37 357L120.5 335.86"
fill="none" stroke="black" stroke-width="3"/>
</g>
<g><path d="M134.59 321.77L155.73 300.63"
fill="none" stroke="black" stroke-width="3"/>
</g>
<g><path d="M169.82 286.54L190.95 265.41"
fill="none" stroke="black" stroke-width="3"/>
</g>
<g><path d="M205.04 251.32L226.18 230.18"
fill="none" stroke="black" stroke-width="3"/>
</g>
<g><path d="M240.27 216.09L261.4 194.96"
fill="none" stroke="black" stroke-width="3"/>
</g>
<g><path d="M275.49 180.87L296.63 159.73"
fill="none" stroke="black" stroke-width="3"/>
</g>
<g><path d="M310.72 145.64L331.85 124.51"
fill="none" stroke="black" stroke-width="3"/>
</g>
<g><path d="M345.95 110.42L367.08 89.28"
fill="none" stroke="black" stroke-width="3"/>
</g>
<g><path d="M381.17 75.19L399.27 57.09"
fill="none" stroke="black" stroke-width="3"/>
</g>
<g><path d="M32.44 395.74L53.57 374.61"
fill="none" stroke="black" stroke-width="3"/>
</g>
<g><path d="M67.66 360.52L88.8 339.38"
fill="none" stroke="black" stroke-width="3"/>
</g>
<g><path d="M102.89 325.29L124.02 304.16"
fill="none" stroke="black" stroke-width="3"/>
</g>
<g><path d="M138.11 290.07L159.25 268.93"
fill="none" stroke="black" stroke-width="3"/>
</g>
<g><path d="M173.34 254.84L194.47 233.71"
fill="none" stroke="black" stroke-width="3"/>
</g>
<g><path d="M208.56 219.62L229.7 198.48"
fill="none" stroke="black" stroke-width="3"/>
</g>
<g><path d="M243.79 184.39L264.93 163.25"
fill="none" stroke="black" stroke-width="3"/>
</g>
<g><path d="M279.02 149.16L300.15 128.03"
fill="none" stroke="black" stroke-width="3"/>
</g>
<g><path d="M314.24 113.94L335.38 92.8"
fill="none" stroke="black" stroke-width="3"/>
</g>
<g><path d="M349.47 78.71L370.6 57.58"
fill="none" stroke="black" stroke-width="3"/>
</g>
<g><path d="M384.69 43.49L399.27 28.91"
fill="none" stroke="black" stroke-width="3"/>
</g>
<g><path d="M14.82 385.18L35.96 364.04"
fill="none" stroke="black" stroke-width="3"/>
</g>
<g><path d="M50.05 349.95L71.18 328.82"
fill="none" stroke="black" stroke-width="3"/>
</g>
<g><path d="M85.28 314.72L106.41 293.59"
fill="none" stroke="black" stroke-width="3"/>
</g>
<g><path d="M120.5 279.5L141.64 258.36"
fill="none" stroke="black" stroke-width="3"/>
</g>
<g><path d="M155.73 244.27L176.86 223.14"
fill="none" stroke="black" stroke-width="3"/>
</g>
<g><path d="M190.95 209.05L212.09 187.91"
fill="none" stroke="black" stroke-width="3"/>
</g>
<g><path d="M226.18 173.82L247.31 152.69"
fill="none" stroke="black" stroke-width="3"/>
</g>
<g><path d="M261.4 138.6L282.54 117.46"
fill="none" stroke="black" stroke-width="3"/>
</g>
<g><path d="M296.63 103.37L317.76 82.24"
fill="none" stroke="black" stroke-width="3"/>
</g>
<g><path d="M331.85 68.15L352.99 47.01"
fill="none" stroke="black" stroke-width="3"/>
</g>
<g><path d="M367.08 32.92L388.22 11.78"
fill="none" stroke="black" stroke-width="3"/>
</g>
<g><path d="M4.26 367.56L25.39 346.43"
fill="none" stroke="black" stroke-width="3"/>
</g>
<g><path d="M39.48 332.34L60.62 311.2"
fill="none" stroke="black" stroke-width="3"/>
</g>
<g><path d="M74.71 297.11L95.84 275.98"
fill="none" stroke="black" stroke-width="3"/>
</g>
<g><path d="M109.93 261.89L131.07 240.75"
fill="none" stroke="black" stroke-width="3"/>
</g>
<g><path d="M145.16 226.66L166.29 205.53"
fill="none" stroke="black" stroke-width="3"/>
</g>
<g><path d="M180.38 191.44L201.52 170.3"
fill="none" stroke="black" stroke-width="3"/>
</g>
<g><path d="M215.61 156.21L236.75 135.07"
fill="none" stroke="black" stroke-width="3"/>
</g>
<g><path d="M250.84 120.98L271.97 99.85"
fill="none" stroke="black" stroke-width="3"/>
</g>
<g><path d="M286.06 85.76L307.2 64.62"
fill="none" stroke="black" stroke-width="3"/>
</g>
<g><path d="M321.29 50.53L342.42 29.4"
fill="none" stroke="black" stroke-width="3"/>
</g>
<g><path d="M356.51 15.31L371.09 0.73"
fill="none" stroke="black" stroke-width="3"/>
</g>
<g><path d="M7.78 335.86L28.91 314.72"
fill="none" stroke="black" stroke-width="3"/>
</g>
<g><path d="M43 300.63L64.14 279.5"
fill="none" stroke="black" stroke-width="3"/>
</g>
<g><path d="M78.23 265.41L99.37 244.27"
fill="none" stroke="black" stroke-width="3"/>
</g>
<g><path d="M113.46 230.18L134.59 209.05"
fill="none" stroke="black" stroke-width="3"/>
</g>
<g><path d="M148.68 194.96L169.82 173.82"
fill="none" stroke="black" stroke-width="3"/>
</g>
<g><path d="M183.91 159.73L205.04 138.6"
fill="none" stroke="black" stroke-width="3"/>
</g>
<g><path d="M219.13 124.51L240.27 103.37"
fill="none" stroke="black" stroke-width="3"/>
</g>
<g><path d="M254.36 89.28L275.49 68.15"
fill="none" stroke="black" stroke-width="3"/>
</g>
<g><path d="M289.58 54.05L310.72 32.92"
fill="none" stroke="black" stroke-width="3"/>
</g>
<g><path d="M324.81 18.83L342.91 0.73"
fill="none" stroke="black" stroke-width="3"/>
</g>
<g><path d="M11.3 304.16L32.44 283.02"
fill="none" stroke="black" stroke-width="3"/>
</g>
<g><path d="M46.53 268.93L67.66 247.8"
fill="none" stroke="black" stroke-width="3"/>
</g>
<g><path d="M81.75 233.71L102.89 212.57"
fill="none" stroke="black" stroke-width="3"/>
</g>
<g><path d="M116.98 198.48L138.11 177.34"
fill="none" stroke="black" stroke-width="3"/>
</g>
<g><path d="M152.2 163.25L173.34 142.12"
fill="none" stroke="black" stroke-width="3"/>
</g>
<g><path d="M187.43 128.03L208.56 106.89"
fill="none" stroke="black" stroke-width="3"/>
</g>
<g><path d="M222.66 92.8L243.79 71.67"
fill="none" stroke="black" stroke-width="3"/>
</g>
<g><path d="M257.88 57.58L279.02 36.44"
fill="none" stroke="black" stroke-width="3"/>
</g>
<g><path d="M293.11 22.35L314.24 1.22"
fill="none" stroke="black" stroke-width="3"/>
</g>
<g><path d="M14.82 272.45L35.96 251.32"
fill="none" stroke="black" stroke-width="3"/>
</g>
<g><path d="M50.05 237.23L71.18 216.09"
fill="none" stroke="black" stroke-width="3"/>
</g>
<g><path d="M85.28 202L106.41 180.87"
fill="none" stroke="black" stroke-width="3"/>
</g>
<g><path d="M120.5 166.78L141.64 145.64"
fill="none" stroke="black" stroke-width="3"/>
</g>
<g><path d="M155.73 131.55L176.86 110.42"
fill="none" stroke="black" stroke-width="3"/>
</g>
<g><path d="M190.95 96.33L212.09 75.19"
fill="none" stroke="black" stroke-width="3"/>
</g>
<g><path d="M226.18 61.1L247.31 39.96"
fill="none" stroke="black" stroke-width="3"/>
</g>
<g><path d="M261.4 25.87L282.54 4.74"
fill="none" stroke="black" stroke-width="3"/>
</g>
<g><path d="M0.73 258.36L4.26 254.84"
fill="none" stroke="black" stroke-width="3"/>
</g>
<g><path d="M18.35 240.75L39.48 219.62"
fill="none" stroke="black" stroke-width="3"/>
</g>
<g><path d="M53.57 205.53L74.71 184.39"
fill="none" stroke="black" stroke-width="3"/>
</g>
<g><path d="M88.8 170.3L109.93 149.16"
fill="none" stroke="black" stroke-width="3"/>
</g>
<g><path d="M124.02 135.07L145.16 113.94"
fill="none" stroke="black" stroke-width="3"/>
</g>
<g><path d="M159.25 99.85L180.38 78.71"
fill="none" stroke="black" stroke-width="3"/>
</g>
<g><path d="M194.47 64.62L215.61 43.49"
fill="none" stroke="black" stroke-width="3"/>
</g>
<g><path d="M229.7 29.4L250.84 8.26"
fill="none" stroke="black" stroke-width="3"/>
</g>
<g><path d="M0.73 230.18L7.78 223.14"
fill="none" stroke="black" stroke-width="3"/>
</g>
<g><path d="M21.87 209.05L43 187.91"
fill="none" stroke="black" stroke-width="3"/>
</g>
<g><path d="M57.09 173.82L78.23 152.69"
fill="none" stroke="black" stroke-width="3"/>
</g>
<g><path d="M92.32 138.6L113.46 117.46"
fill="none" stroke="black" stroke-width="3"/>
</g>
<g><path d="M127.55 103.37L148.68 82.24"
fill="none" stroke="black" stroke-width="3"/>
</g>
<g><path d="M162.77 68.15L183.91 47.01"
fill="none" stroke="black" stroke-width="3"/>
</g>
<g><path d="M198 32.92L219.13 11.78"
fill="none" stroke="black" stroke-width="3"/>
</g>
<g><path d="M0.73 202L11.3 191.44"
fill="none" stroke="black" stroke-width="3"/>
</g>
<g><path d="M25.39 177.34L46.53 156.21"
fill="none" stroke="black" stroke-width="3"/>
</g>
<g><path d="M60.62 142.12L81.75 120.98"
fill="none" stroke="black" stroke-width="3"/>
</g>
<g><path d="M95.84 106.89L116.98 85.76"
fill="none" stroke="black" stroke-width="3"/>
</g>
<g><path d="M131.07 71.67L152.2 50.53"
fill="none" stroke="black" stroke-width="3"/>
</g>
<g><path d="M166.29 36.44L187.43 15.31"
fill="none" stroke="black" stroke-width="3"/>
</g>
<g><path d="M201.52 1.22L202 0.73"
fill="none" stroke="black" stroke-width="3"/>
</g>
<g><path d="M0.73 173.82L14.82 159.73"
fill="none" stroke="black" stroke-width="3"/>
</g>
<g><path d="M28.91 145.64L50.05 124.51"
fill="none" stroke="black" stroke-width="3"/>
</g>
<g><path d="M64.14 110.42L85.28 89.28"
fill="none" stroke="black" stroke-width="3"/>
</g>
<g><path d="M99.37 75.19L120.5 54.05"
fill="none" stroke="black" stroke-width="3"/>
</g>
<g><path d="M134.59 39.96L155.73 18.83"
fill="none" stroke="black" stroke-width="3"/>
</g>
<g><path d="M169.82 4.74L173.82 0.73"
fill="none" stroke="black" stroke-width="3"/>
</g>
<g><path d="M0.73 145.64L18.35 128.03"
fill="none" stroke="black" stroke-width="3"/>
</g>
<g><path d="M32.44 113.94L53.57 92.8"
fill="none" stroke="black" stroke-width="3"/>
</g>
<g><path d="M67.66 78.71L88.8 57.58"
fill="none" stroke="black" stroke-width="3"/>
</g>
<g><path d="M102.89 43.49L124.02 22.35"
fill="none" stroke="black" stroke-width="3"/>
</g>
<g><path d="M138.11 8.26L145.64 0.73"
fill="none" stroke="black" stroke-width="3"/>
</g>
<g><path d="M0.73 117.46L21.87 96.33"
fill="none" stroke="black" stroke-width="3"/>
</g>
<g><path d="M35.96 82.24L57.09 61.1"
fill="none" stroke="black" stroke-width="3"/>
</g>
<g><path d="M71.18 47.01L92.32 25.87"
fill="none" stroke="black" stroke-width="3"/>
</g>
<g><path d="M106.41 11.78L117.46 0.73"
fill="none" stroke="black" stroke-width="3"/>
</g>
<g><path d="M4.26 85.76L25.39 64.62"
fill="none" stroke="black" stroke-width="3"/>
</g>
<g><path d="M39.48 50.53L60.62 29.4"
fill="none" stroke="black" stroke-width="3"/>
</g>
<g><path d="M74.71 15.31L89.28 0.73"
fill="none" stroke="black" stroke-width="3"/>
</g>
<g><path d="M7.78 54.05L28.91 32.92"
fill="none" stroke="black" stroke-width="3"/>
</g>
<g><path d="M43 18.83L61.1 0.73"
fill="none" stroke="black" stroke-width="3"/>
</g>
<g><path d="M11.3 22.35L32.44 1.22"
fill="none" stroke="black" stroke-width="3"/>
</g>
</g>
</svg>
