<?xml version="1.0" standalone="no"?><svg xmlns="http://www.w3.org/2000/svg" width="400.000" height="400.000" viewBox="0.0 0.0 400.000 400.000" version="1.1">
  <title>Produce by Acme CAD Converter</title>
  <desc>Produce by Acme CAD Converter</desc>
<g id="0" display="visible">
<g><path d="M12.69 397.27L30.62 397.27"
fill="none" stroke="black" stroke-width="3"/>
</g>
<g><path d="M42.58 397.27L60.51 397.27"
fill="none" stroke="black" stroke-width="3"/>
</g>
<g><path d="M72.47 397.27L90.4 397.27"
fill="none" stroke="black" stroke-width="3"/>
</g>
<g><path d="M102.36 397.27L120.29 397.27"
fill="none" stroke="black" stroke-width="3"/>
</g>
<g><path d="M132.25 397.27L150.18 397.27"
fill="none" stroke="black" stroke-width="3"/>
</g>
<g><path d="M162.14 397.27L180.07 397.27"
fill="none" stroke="black" stroke-width="3"/>
</g>
<g><path d="M192.03 397.27L209.96 397.27"
fill="none" stroke="black" stroke-width="3"/>
</g>
<g><path d="M221.92 397.27L239.85 397.27"
fill="none" stroke="black" stroke-width="3"/>
</g>
<g><path d="M251.81 397.27L269.74 397.27"
fill="none" stroke="black" stroke-width="3"/>
</g>
<g><path d="M281.7 397.27L299.63 397.27"
fill="none" stroke="black" stroke-width="3"/>
</g>
<g><path d="M311.59 397.27L329.52 397.27"
fill="none" stroke="black" stroke-width="3"/>
</g>
<g><path d="M341.48 397.27L359.41 397.27"
fill="none" stroke="black" stroke-width="3"/>
</g>
<g><path d="M371.37 397.27L389.3 397.27"
fill="none" stroke="black" stroke-width="3"/>
</g>
<g><path d="M0.73 385.32L3.72 385.32"
fill="none" stroke="black" stroke-width="3"/>
</g>
<g><path d="M15.68 385.32L33.61 385.32"
fill="none" stroke="black" stroke-width="3"/>
</g>
<g><path d="M45.57 385.32L63.5 385.32"
fill="none" stroke="black" stroke-width="3"/>
</g>
<g><path d="M75.46 385.32L93.39 385.32"
fill="none" stroke="black" stroke-width="3"/>
</g>
<g><path d="M105.35 385.32L123.28 385.32"
fill="none" stroke="black" stroke-width="3"/>
</g>
<g><path d="M135.24 385.32L153.17 385.32"
fill="none" stroke="black" stroke-width="3"/>
</g>
<g><path d="M165.13 385.32L183.06 385.32"
fill="none" stroke="black" stroke-width="3"/>
</g>
<g><path d="M195.02 385.32L212.95 385.32"
fill="none" stroke="black" stroke-width="3"/>
</g>
<g><path d="M224.91 385.32L242.84 385.32"
fill="none" stroke="black" stroke-width="3"/>
</g>
<g><path d="M254.8 385.32L272.73 385.32"
fill="none" stroke="black" stroke-width="3"/>
</g>
<g><path d="M284.69 385.32L302.62 385.32"
fill="none" stroke="black" stroke-width="3"/>
</g>
<g><path d="M314.58 385.32L332.51 385.32"
fill="none" stroke="black" stroke-width="3"/>
</g>
<g><path d="M344.47 385.32L362.4 385.32"
fill="none" stroke="black" stroke-width="3"/>
</g>
<g><path d="M374.36 385.32L392.29 385.32"
fill="none" stroke="black" stroke-width="3"/>
</g>
<g><path d="M0.73 373.36L18.67 373.36"
fill="none" stroke="black" stroke-width="3"/>
</g>
<g><path d="M30.62 373.36L48.56 373.36"
fill="none" stroke="black" stroke-width="3"/>
</g>
<g><path d="M60.51 373.36L78.45 373.36"
fill="none" stroke="black" stroke-width="3"/>
</g>
<g><path d="M90.4 373.36L108.34 373.36"
fill="none" stroke="black" stroke-width="3"/>
</g>
<g><path d="M120.29 373.36L138.23 373.36"
fill="none" stroke="black" stroke-width="3"/>
</g>
<g><path d="M150.18 373.36L168.12 373.36"
fill="none" stroke="black" stroke-width="3"/>
</g>
<g><path d="M180.07 373.36L198.01 373.36"
fill="none" stroke="black" stroke-width="3"/>
</g>
<g><path d="M209.96 373.36L227.9 373.36"
fill="none" stroke="black" stroke-width="3"/>
</g>
<g><path d="M239.85 373.36L257.79 373.36"
fill="none" stroke="black" stroke-width="3"/>
</g>
<g><path d="M269.74 373.36L287.68 373.36"
fill="none" stroke="black" stroke-width="3"/>
</g>
<g><path d="M299.63 373.36L317.57 373.36"
fill="none" stroke="black" stroke-width="3"/>
</g>
<g><path d="M329.52 373.36L347.46 373.36"
fill="none" stroke="black" stroke-width="3"/>
</g>
<g><path d="M359.41 373.36L377.35 373.36"
fill="none" stroke="black" stroke-width="3"/>
</g>
<g><path d="M389.3 373.36L399.27 373.36"
fill="none" stroke="black" stroke-width="3"/>
</g>
<g><path d="M0.73 361.41L3.72 361.41"
fill="none" stroke="black" stroke-width="3"/>
</g>
<g><path d="M15.68 361.41L33.61 361.41"
fill="none" stroke="black" stroke-width="3"/>
</g>
<g><path d="M45.57 361.41L63.5 361.41"
fill="none" stroke="black" stroke-width="3"/>
</g>
<g><path d="M75.46 361.41L93.39 361.41"
fill="none" stroke="black" stroke-width="3"/>
</g>
<g><path d="M105.35 361.41L123.28 361.41"
fill="none" stroke="black" stroke-width="3"/>
</g>
<g><path d="M135.24 361.41L153.17 361.41"
fill="none" stroke="black" stroke-width="3"/>
</g>
<g><path d="M165.13 361.41L183.06 361.41"
fill="none" stroke="black" stroke-width="3"/>
</g>
<g><path d="M195.02 361.41L212.95 361.41"
fill="none" stroke="black" stroke-width="3"/>
</g>
<g><path d="M224.91 361.41L242.84 361.41"
fill="none" stroke="black" stroke-width="3"/>
</g>
<g><path d="M254.8 361.41L272.73 361.41"
fill="none" stroke="black" stroke-width="3"/>
</g>
<g><path d="M284.69 361.41L302.62 361.41"
fill="none" stroke="black" stroke-width="3"/>
</g>
<g><path d="M314.58 361.41L332.51 361.41"
fill="none" stroke="black" stroke-width="3"/>
</g>
<g><path d="M344.47 361.41L362.4 361.41"
fill="none" stroke="black" stroke-width="3"/>
</g>
<g><path d="M374.36 361.41L392.29 361.41"
fill="none" stroke="black" stroke-width="3"/>
</g>
<g><path d="M0.73 349.45L18.67 349.45"
fill="none" stroke="black" stroke-width="3"/>
</g>
<g><path d="M30.62 349.45L48.56 349.45"
fill="none" stroke="black" stroke-width="3"/>
</g>
<g><path d="M60.51 349.45L78.45 349.45"
fill="none" stroke="black" stroke-width="3"/>
</g>
<g><path d="M90.4 349.45L108.34 349.45"
fill="none" stroke="black" stroke-width="3"/>
</g>
<g><path d="M120.29 349.45L138.23 349.45"
fill="none" stroke="black" stroke-width="3"/>
</g>
<g><path d="M150.18 349.45L168.12 349.45"
fill="none" stroke="black" stroke-width="3"/>
</g>
<g><path d="M180.07 349.45L198.01 349.45"
fill="none" stroke="black" stroke-width="3"/>
</g>
<g><path d="M209.96 349.45L227.9 349.45"
fill="none" stroke="black" stroke-width="3"/>
</g>
<g><path d="M239.85 349.45L257.79 349.45"
fill="none" stroke="black" stroke-width="3"/>
</g>
<g><path d="M269.74 349.45L287.68 349.45"
fill="none" stroke="black" stroke-width="3"/>
</g>
<g><path d="M299.63 349.45L317.57 349.45"
fill="none" stroke="black" stroke-width="3"/>
</g>
<g><path d="M329.52 349.45L347.46 349.45"
fill="none" stroke="black" stroke-width="3"/>
</g>
<g><path d="M359.41 349.45L377.35 349.45"
fill="none" stroke="black" stroke-width="3"/>
</g>
<g><path d="M389.3 349.45L399.27 349.45"
fill="none" stroke="black" stroke-width="3"/>
</g>
<g><path d="M0.73 337.49L3.72 337.49"
fill="none" stroke="black" stroke-width="3"/>
</g>
<g><path d="M15.68 337.49L33.61 337.49"
fill="none" stroke="black" stroke-width="3"/>
</g>
<g><path d="M45.57 337.49L63.5 337.49"
fill="none" stroke="black" stroke-width="3"/>
</g>
<g><path d="M75.46 337.49L93.39 337.49"
fill="none" stroke="black" stroke-width="3"/>
</g>
<g><path d="M105.35 337.49L123.28 337.49"
fill="none" stroke="black" stroke-width="3"/>
</g>
<g><path d="M135.24 337.49L153.17 337.49"
fill="none" stroke="black" stroke-width="3"/>
</g>
<g><path d="M165.13 337.49L183.06 337.49"
fill="none" stroke="black" stroke-width="3"/>
</g>
<g><path d="M195.02 337.49L212.95 337.49"
fill="none" stroke="black" stroke-width="3"/>
</g>
<g><path d="M224.91 337.49L242.84 337.49"
fill="none" stroke="black" stroke-width="3"/>
</g>
<g><path d="M254.8 337.49L272.73 337.49"
fill="none" stroke="black" stroke-width="3"/>
</g>
<g><path d="M284.69 337.49L302.62 337.49"
fill="none" stroke="black" stroke-width="3"/>
</g>
<g><path d="M314.58 337.49L332.51 337.49"
fill="none" stroke="black" stroke-width="3"/>
</g>
<g><path d="M344.47 337.49L362.4 337.49"
fill="none" stroke="black" stroke-width="3"/>
</g>
<g><path d="M374.36 337.49L392.29 337.49"
fill="none" stroke="black" stroke-width="3"/>
</g>
<g><path d="M0.73 325.54L18.67 325.54"
fill="none" stroke="black" stroke-width="3"/>
</g>
<g><path d="M30.62 325.54L48.56 325.54"
fill="none" stroke="black" stroke-width="3"/>
</g>
<g><path d="M60.51 325.54L78.45 325.54"
fill="none" stroke="black" stroke-width="3"/>
</g>
<g><path d="M90.4 325.54L108.34 325.54"
fill="none" stroke="black" stroke-width="3"/>
</g>
<g><path d="M120.29 325.54L138.23 325.54"
fill="none" stroke="black" stroke-width="3"/>
</g>
<g><path d="M150.18 325.54L168.12 325.54"
fill="none" stroke="black" stroke-width="3"/>
</g>
<g><path d="M180.07 325.54L198.01 325.54"
fill="none" stroke="black" stroke-width="3"/>
</g>
<g><path d="M209.96 325.54L227.9 325.54"
fill="none" stroke="black" stroke-width="3"/>
</g>
<g><path d="M239.85 325.54L257.79 325.54"
fill="none" stroke="black" stroke-width="3"/>
</g>
<g><path d="M269.74 325.54L287.68 325.54"
fill="none" stroke="black" stroke-width="3"/>
</g>
<g><path d="M299.63 325.54L317.57 325.54"
fill="none" stroke="black" stroke-width="3"/>
</g>
<g><path d="M329.52 325.54L347.46 325.54"
fill="none" stroke="black" stroke-width="3"/>
</g>
<g><path d="M359.41 325.54L377.35 325.54"
fill="none" stroke="black" stroke-width="3"/>
</g>
<g><path d="M389.3 325.54L399.27 325.54"
fill="none" stroke="black" stroke-width="3"/>
</g>
<g><path d="M0.73 313.58L3.72 313.58"
fill="none" stroke="black" stroke-width="3"/>
</g>
<g><path d="M15.68 313.58L33.61 313.58"
fill="none" stroke="black" stroke-width="3"/>
</g>
<g><path d="M45.57 313.58L63.5 313.58"
fill="none" stroke="black" stroke-width="3"/>
</g>
<g><path d="M75.46 313.58L93.39 313.58"
fill="none" stroke="black" stroke-width="3"/>
</g>
<g><path d="M105.35 313.58L123.28 313.58"
fill="none" stroke="black" stroke-width="3"/>
</g>
<g><path d="M135.24 313.58L153.17 313.58"
fill="none" stroke="black" stroke-width="3"/>
</g>
<g><path d="M165.13 313.58L183.06 313.58"
fill="none" stroke="black" stroke-width="3"/>
</g>
<g><path d="M195.02 313.58L212.95 313.58"
fill="none" stroke="black" stroke-width="3"/>
</g>
<g><path d="M224.91 313.58L242.84 313.58"
fill="none" stroke="black" stroke-width="3"/>
</g>
<g><path d="M254.8 313.58L272.73 313.58"
fill="none" stroke="black" stroke-width="3"/>
</g>
<g><path d="M284.69 313.58L302.62 313.58"
fill="none" stroke="black" stroke-width="3"/>
</g>
<g><path d="M314.58 313.58L332.51 313.58"
fill="none" stroke="black" stroke-width="3"/>
</g>
<g><path d="M344.47 313.58L362.4 313.58"
fill="none" stroke="black" stroke-width="3"/>
</g>
<g><path d="M374.36 313.58L392.29 313.58"
fill="none" stroke="black" stroke-width="3"/>
</g>
<g><path d="M0.73 301.63L18.67 301.63"
fill="none" stroke="black" stroke-width="3"/>
</g>
<g><path d="M30.62 301.63L48.56 301.63"
fill="none" stroke="black" stroke-width="3"/>
</g>
<g><path d="M60.51 301.63L78.45 301.63"
fill="none" stroke="black" stroke-width="3"/>
</g>
<g><path d="M90.4 301.63L108.34 301.63"
fill="none" stroke="black" stroke-width="3"/>
</g>
<g><path d="M120.29 301.63L138.23 301.63"
fill="none" stroke="black" stroke-width="3"/>
</g>
<g><path d="M150.18 301.63L168.12 301.63"
fill="none" stroke="black" stroke-width="3"/>
</g>
<g><path d="M180.07 301.63L198.01 301.63"
fill="none" stroke="black" stroke-width="3"/>
</g>
<g><path d="M209.96 301.63L227.9 301.63"
fill="none" stroke="black" stroke-width="3"/>
</g>
<g><path d="M239.85 301.63L257.79 301.63"
fill="none" stroke="black" stroke-width="3"/>
</g>
<g><path d="M269.74 301.63L287.68 301.63"
fill="none" stroke="black" stroke-width="3"/>
</g>
<g><path d="M299.63 301.63L317.57 301.63"
fill="none" stroke="black" stroke-width="3"/>
</g>
<g><path d="M329.52 301.63L347.46 301.63"
fill="none" stroke="black" stroke-width="3"/>
</g>
<g><path d="M359.41 301.63L377.35 301.63"
fill="none" stroke="black" stroke-width="3"/>
</g>
<g><path d="M389.3 301.63L399.27 301.63"
fill="none" stroke="black" stroke-width="3"/>
</g>
<g><path d="M0.73 289.67L3.72 289.67"
fill="none" stroke="black" stroke-width="3"/>
</g>
<g><path d="M15.68 289.67L33.61 289.67"
fill="none" stroke="black" stroke-width="3"/>
</g>
<g><path d="M45.57 289.67L63.5 289.67"
fill="none" stroke="black" stroke-width="3"/>
</g>
<g><path d="M75.46 289.67L93.39 289.67"
fill="none" stroke="black" stroke-width="3"/>
</g>
<g><path d="M105.35 289.67L123.28 289.67"
fill="none" stroke="black" stroke-width="3"/>
</g>
<g><path d="M135.24 289.67L153.17 289.67"
fill="none" stroke="black" stroke-width="3"/>
</g>
<g><path d="M165.13 289.67L183.06 289.67"
fill="none" stroke="black" stroke-width="3"/>
</g>
<g><path d="M195.02 289.67L212.95 289.67"
fill="none" stroke="black" stroke-width="3"/>
</g>
<g><path d="M224.91 289.67L242.84 289.67"
fill="none" stroke="black" stroke-width="3"/>
</g>
<g><path d="M254.8 289.67L272.73 289.67"
fill="none" stroke="black" stroke-width="3"/>
</g>
<g><path d="M284.69 289.67L302.62 289.67"
fill="none" stroke="black" stroke-width="3"/>
</g>
<g><path d="M314.58 289.67L332.51 289.67"
fill="none" stroke="black" stroke-width="3"/>
</g>
<g><path d="M344.47 289.67L362.4 289.67"
fill="none" stroke="black" stroke-width="3"/>
</g>
<g><path d="M374.36 289.67L392.29 289.67"
fill="none" stroke="black" stroke-width="3"/>
</g>
<g><path d="M0.73 277.71L18.67 277.71"
fill="none" stroke="black" stroke-width="3"/>
</g>
<g><path d="M30.62 277.71L48.56 277.71"
fill="none" stroke="black" stroke-width="3"/>
</g>
<g><path d="M60.51 277.71L78.45 277.71"
fill="none" stroke="black" stroke-width="3"/>
</g>
<g><path d="M90.4 277.71L108.34 277.71"
fill="none" stroke="black" stroke-width="3"/>
</g>
<g><path d="M120.29 277.71L138.23 277.71"
fill="none" stroke="black" stroke-width="3"/>
</g>
<g><path d="M150.18 277.71L168.12 277.71"
fill="none" stroke="black" stroke-width="3"/>
</g>
<g><path d="M180.07 277.71L198.01 277.71"
fill="none" stroke="black" stroke-width="3"/>
</g>
<g><path d="M209.96 277.71L227.9 277.71"
fill="none" stroke="black" stroke-width="3"/>
</g>
<g><path d="M239.85 277.71L257.79 277.71"
fill="none" stroke="black" stroke-width="3"/>
</g>
<g><path d="M269.74 277.71L287.68 277.71"
fill="none" stroke="black" stroke-width="3"/>
</g>
<g><path d="M299.63 277.71L317.57 277.71"
fill="none" stroke="black" stroke-width="3"/>
</g>
<g><path d="M329.52 277.71L347.46 277.71"
fill="none" stroke="black" stroke-width="3"/>
</g>
<g><path d="M359.41 277.71L377.35 277.71"
fill="none" stroke="black" stroke-width="3"/>
</g>
<g><path d="M389.3 277.71L399.27 277.71"
fill="none" stroke="black" stroke-width="3"/>
</g>
<g><path d="M0.73 265.76L3.72 265.76"
fill="none" stroke="black" stroke-width="3"/>
</g>
<g><path d="M15.68 265.76L33.61 265.76"
fill="none" stroke="black" stroke-width="3"/>
</g>
<g><path d="M45.57 265.76L63.5 265.76"
fill="none" stroke="black" stroke-width="3"/>
</g>
<g><path d="M75.46 265.76L93.39 265.76"
fill="none" stroke="black" stroke-width="3"/>
</g>
<g><path d="M105.35 265.76L123.28 265.76"
fill="none" stroke="black" stroke-width="3"/>
</g>
<g><path d="M135.24 265.76L153.17 265.76"
fill="none" stroke="black" stroke-width="3"/>
</g>
<g><path d="M165.13 265.76L183.06 265.76"
fill="none" stroke="black" stroke-width="3"/>
</g>
<g><path d="M195.02 265.76L212.95 265.76"
fill="none" stroke="black" stroke-width="3"/>
</g>
<g><path d="M224.91 265.76L242.84 265.76"
fill="none" stroke="black" stroke-width="3"/>
</g>
<g><path d="M254.8 265.76L272.73 265.76"
fill="none" stroke="black" stroke-width="3"/>
</g>
<g><path d="M284.69 265.76L302.62 265.76"
fill="none" stroke="black" stroke-width="3"/>
</g>
<g><path d="M314.58 265.76L332.51 265.76"
fill="none" stroke="black" stroke-width="3"/>
</g>
<g><path d="M344.47 265.76L362.4 265.76"
fill="none" stroke="black" stroke-width="3"/>
</g>
<g><path d="M374.36 265.76L392.29 265.76"
fill="none" stroke="black" stroke-width="3"/>
</g>
<g><path d="M0.73 253.8L18.67 253.8"
fill="none" stroke="black" stroke-width="3"/>
</g>
<g><path d="M30.62 253.8L48.56 253.8"
fill="none" stroke="black" stroke-width="3"/>
</g>
<g><path d="M60.51 253.8L78.45 253.8"
fill="none" stroke="black" stroke-width="3"/>
</g>
<g><path d="M90.4 253.8L108.34 253.8"
fill="none" stroke="black" stroke-width="3"/>
</g>
<g><path d="M120.29 253.8L138.23 253.8"
fill="none" stroke="black" stroke-width="3"/>
</g>
<g><path d="M150.18 253.8L168.12 253.8"
fill="none" stroke="black" stroke-width="3"/>
</g>
<g><path d="M180.07 253.8L198.01 253.8"
fill="none" stroke="black" stroke-width="3"/>
</g>
<g><path d="M209.96 253.8L227.9 253.8"
fill="none" stroke="black" stroke-width="3"/>
</g>
<g><path d="M239.85 253.8L257.79 253.8"
fill="none" stroke="black" stroke-width="3"/>
</g>
<g><path d="M269.74 253.8L287.68 253.8"
fill="none" stroke="black" stroke-width="3"/>
</g>
<g><path d="M299.63 253.8L317.57 253.8"
fill="none" stroke="black" stroke-width="3"/>
</g>
<g><path d="M329.52 253.8L347.46 253.8"
fill="none" stroke="black" stroke-width="3"/>
</g>
<g><path d="M359.41 253.8L377.35 253.8"
fill="none" stroke="black" stroke-width="3"/>
</g>
<g><path d="M389.3 253.8L399.27 253.8"
fill="none" stroke="black" stroke-width="3"/>
</g>
<g><path d="M0.73 241.85L3.72 241.85"
fill="none" stroke="black" stroke-width="3"/>
</g>
<g><path d="M15.68 241.85L33.61 241.85"
fill="none" stroke="black" stroke-width="3"/>
</g>
<g><path d="M45.57 241.85L63.5 241.85"
fill="none" stroke="black" stroke-width="3"/>
</g>
<g><path d="M75.46 241.85L93.39 241.85"
fill="none" stroke="black" stroke-width="3"/>
</g>
<g><path d="M105.35 241.85L123.28 241.85"
fill="none" stroke="black" stroke-width="3"/>
</g>
<g><path d="M135.24 241.85L153.17 241.85"
fill="none" stroke="black" stroke-width="3"/>
</g>
<g><path d="M165.13 241.85L183.06 241.85"
fill="none" stroke="black" stroke-width="3"/>
</g>
<g><path d="M195.02 241.85L212.95 241.85"
fill="none" stroke="black" stroke-width="3"/>
</g>
<g><path d="M224.91 241.85L242.84 241.85"
fill="none" stroke="black" stroke-width="3"/>
</g>
<g><path d="M254.8 241.85L272.73 241.85"
fill="none" stroke="black" stroke-width="3"/>
</g>
<g><path d="M284.69 241.85L302.62 241.85"
fill="none" stroke="black" stroke-width="3"/>
</g>
<g><path d="M314.58 241.85L332.51 241.85"
fill="none" stroke="black" stroke-width="3"/>
</g>
<g><path d="M344.47 241.85L362.4 241.85"
fill="none" stroke="black" stroke-width="3"/>
</g>
<g><path d="M374.36 241.85L392.29 241.85"
fill="none" stroke="black" stroke-width="3"/>
</g>
<g><path d="M0.73 229.89L18.67 229.89"
fill="none" stroke="black" stroke-width="3"/>
</g>
<g><path d="M30.62 229.89L48.56 229.89"
fill="none" stroke="black" stroke-width="3"/>
</g>
<g><path d="M60.51 229.89L78.45 229.89"
fill="none" stroke="black" stroke-width="3"/>
</g>
<g><path d="M90.4 229.89L108.34 229.89"
fill="none" stroke="black" stroke-width="3"/>
</g>
<g><path d="M120.29 229.89L138.23 229.89"
fill="none" stroke="black" stroke-width="3"/>
</g>
<g><path d="M150.18 229.89L168.12 229.89"
fill="none" stroke="black" stroke-width="3"/>
</g>
<g><path d="M180.07 229.89L198.01 229.89"
fill="none" stroke="black" stroke-width="3"/>
</g>
<g><path d="M209.96 229.89L227.9 229.89"
fill="none" stroke="black" stroke-width="3"/>
</g>
<g><path d="M239.85 229.89L257.79 229.89"
fill="none" stroke="black" stroke-width="3"/>
</g>
<g><path d="M269.74 229.89L287.68 229.89"
fill="none" stroke="black" stroke-width="3"/>
</g>
<g><path d="M299.63 229.89L317.57 229.89"
fill="none" stroke="black" stroke-width="3"/>
</g>
<g><path d="M329.52 229.89L347.46 229.89"
fill="none" stroke="black" stroke-width="3"/>
</g>
<g><path d="M359.41 229.89L377.35 229.89"
fill="none" stroke="black" stroke-width="3"/>
</g>
<g><path d="M389.3 229.89L399.27 229.89"
fill="none" stroke="black" stroke-width="3"/>
</g>
<g><path d="M0.73 217.93L3.72 217.93"
fill="none" stroke="black" stroke-width="3"/>
</g>
<g><path d="M15.68 217.93L33.61 217.93"
fill="none" stroke="black" stroke-width="3"/>
</g>
<g><path d="M45.57 217.93L63.5 217.93"
fill="none" stroke="black" stroke-width="3"/>
</g>
<g><path d="M75.46 217.93L93.39 217.93"
fill="none" stroke="black" stroke-width="3"/>
</g>
<g><path d="M105.35 217.93L123.28 217.93"
fill="none" stroke="black" stroke-width="3"/>
</g>
<g><path d="M135.24 217.93L153.17 217.93"
fill="none" stroke="black" stroke-width="3"/>
</g>
<g><path d="M165.13 217.93L183.06 217.93"
fill="none" stroke="black" stroke-width="3"/>
</g>
<g><path d="M195.02 217.93L212.95 217.93"
fill="none" stroke="black" stroke-width="3"/>
</g>
<g><path d="M224.91 217.93L242.84 217.93"
fill="none" stroke="black" stroke-width="3"/>
</g>
<g><path d="M254.8 217.93L272.73 217.93"
fill="none" stroke="black" stroke-width="3"/>
</g>
<g><path d="M284.69 217.93L302.62 217.93"
fill="none" stroke="black" stroke-width="3"/>
</g>
<g><path d="M314.58 217.93L332.51 217.93"
fill="none" stroke="black" stroke-width="3"/>
</g>
<g><path d="M344.47 217.93L362.4 217.93"
fill="none" stroke="black" stroke-width="3"/>
</g>
<g><path d="M374.36 217.93L392.29 217.93"
fill="none" stroke="black" stroke-width="3"/>
</g>
<g><path d="M0.73 205.98L18.67 205.98"
fill="none" stroke="black" stroke-width="3"/>
</g>
<g><path d="M30.62 205.98L48.56 205.98"
fill="none" stroke="black" stroke-width="3"/>
</g>
<g><path d="M60.51 205.98L78.45 205.98"
fill="none" stroke="black" stroke-width="3"/>
</g>
<g><path d="M90.4 205.98L108.34 205.98"
fill="none" stroke="black" stroke-width="3"/>
</g>
<g><path d="M120.29 205.98L138.23 205.98"
fill="none" stroke="black" stroke-width="3"/>
</g>
<g><path d="M150.18 205.98L168.12 205.98"
fill="none" stroke="black" stroke-width="3"/>
</g>
<g><path d="M180.07 205.98L198.01 205.98"
fill="none" stroke="black" stroke-width="3"/>
</g>
<g><path d="M209.96 205.98L227.9 205.98"
fill="none" stroke="black" stroke-width="3"/>
</g>
<g><path d="M239.85 205.98L257.79 205.98"
fill="none" stroke="black" stroke-width="3"/>
</g>
<g><path d="M269.74 205.98L287.68 205.98"
fill="none" stroke="black" stroke-width="3"/>
</g>
<g><path d="M299.63 205.98L317.57 205.98"
fill="none" stroke="black" stroke-width="3"/>
</g>
<g><path d="M329.52 205.98L347.46 205.98"
fill="none" stroke="black" stroke-width="3"/>
</g>
<g><path d="M359.41 205.98L377.35 205.98"
fill="none" stroke="black" stroke-width="3"/>
</g>
<g><path d="M389.3 205.98L399.27 205.98"
fill="none" stroke="black" stroke-width="3"/>
</g>
<g><path d="M0.73 194.02L3.72 194.02"
fill="none" stroke="black" stroke-width="3"/>
</g>
<g><path d="M15.68 194.02L33.61 194.02"
fill="none" stroke="black" stroke-width="3"/>
</g>
<g><path d="M45.57 194.02L63.5 194.02"
fill="none" stroke="black" stroke-width="3"/>
</g>
<g><path d="M75.46 194.02L93.39 194.02"
fill="none" stroke="black" stroke-width="3"/>
</g>
<g><path d="M105.35 194.02L123.28 194.02"
fill="none" stroke="black" stroke-width="3"/>
</g>
<g><path d="M135.24 194.02L153.17 194.02"
fill="none" stroke="black" stroke-width="3"/>
</g>
<g><path d="M165.13 194.02L183.06 194.02"
fill="none" stroke="black" stroke-width="3"/>
</g>
<g><path d="M195.02 194.02L212.95 194.02"
fill="none" stroke="black" stroke-width="3"/>
</g>
<g><path d="M224.91 194.02L242.84 194.02"
fill="none" stroke="black" stroke-width="3"/>
</g>
<g><path d="M254.8 194.02L272.73 194.02"
fill="none" stroke="black" stroke-width="3"/>
</g>
<g><path d="M284.69 194.02L302.62 194.02"
fill="none" stroke="black" stroke-width="3"/>
</g>
<g><path d="M314.58 194.02L332.51 194.02"
fill="none" stroke="black" stroke-width="3"/>
</g>
<g><path d="M344.47 194.02L362.4 194.02"
fill="none" stroke="black" stroke-width="3"/>
</g>
<g><path d="M374.36 194.02L392.29 194.02"
fill="none" stroke="black" stroke-width="3"/>
</g>
<g><path d="M0.73 182.07L18.67 182.07"
fill="none" stroke="black" stroke-width="3"/>
</g>
<g><path d="M30.62 182.07L48.56 182.07"
fill="none" stroke="black" stroke-width="3"/>
</g>
<g><path d="M60.51 182.07L78.45 182.07"
fill="none" stroke="black" stroke-width="3"/>
</g>
<g><path d="M90.4 182.07L108.34 182.07"
fill="none" stroke="black" stroke-width="3"/>
</g>
<g><path d="M120.29 182.07L138.23 182.07"
fill="none" stroke="black" stroke-width="3"/>
</g>
<g><path d="M150.18 182.07L168.12 182.07"
fill="none" stroke="black" stroke-width="3"/>
</g>
<g><path d="M180.07 182.07L198.01 182.07"
fill="none" stroke="black" stroke-width="3"/>
</g>
<g><path d="M209.96 182.07L227.9 182.07"
fill="none" stroke="black" stroke-width="3"/>
</g>
<g><path d="M239.85 182.07L257.79 182.07"
fill="none" stroke="black" stroke-width="3"/>
</g>
<g><path d="M269.74 182.07L287.68 182.07"
fill="none" stroke="black" stroke-width="3"/>
</g>
<g><path d="M299.63 182.07L317.57 182.07"
fill="none" stroke="black" stroke-width="3"/>
</g>
<g><path d="M329.52 182.07L347.46 182.07"
fill="none" stroke="black" stroke-width="3"/>
</g>
<g><path d="M359.41 182.07L377.35 182.07"
fill="none" stroke="black" stroke-width="3"/>
</g>
<g><path d="M389.3 182.07L399.27 182.07"
fill="none" stroke="black" stroke-width="3"/>
</g>
<g><path d="M0.73 170.11L3.72 170.11"
fill="none" stroke="black" stroke-width="3"/>
</g>
<g><path d="M15.68 170.11L33.61 170.11"
fill="none" stroke="black" stroke-width="3"/>
</g>
<g><path d="M45.57 170.11L63.5 170.11"
fill="none" stroke="black" stroke-width="3"/>
</g>
<g><path d="M75.46 170.11L93.39 170.11"
fill="none" stroke="black" stroke-width="3"/>
</g>
<g><path d="M105.35 170.11L123.28 170.11"
fill="none" stroke="black" stroke-width="3"/>
</g>
<g><path d="M135.24 170.11L153.17 170.11"
fill="none" stroke="black" stroke-width="3"/>
</g>
<g><path d="M165.13 170.11L183.06 170.11"
fill="none" stroke="black" stroke-width="3"/>
</g>
<g><path d="M195.02 170.11L212.95 170.11"
fill="none" stroke="black" stroke-width="3"/>
</g>
<g><path d="M224.91 170.11L242.84 170.11"
fill="none" stroke="black" stroke-width="3"/>
</g>
<g><path d="M254.8 170.11L272.73 170.11"
fill="none" stroke="black" stroke-width="3"/>
</g>
<g><path d="M284.69 170.11L302.62 170.11"
fill="none" stroke="black" stroke-width="3"/>
</g>
<g><path d="M314.58 170.11L332.51 170.11"
fill="none" stroke="black" stroke-width="3"/>
</g>
<g><path d="M344.47 170.11L362.4 170.11"
fill="none" stroke="black" stroke-width="3"/>
</g>
<g><path d="M374.36 170.11L392.29 170.11"
fill="none" stroke="black" stroke-width="3"/>
</g>
<g><path d="M0.73 158.15L18.67 158.15"
fill="none" stroke="black" stroke-width="3"/>
</g>
<g><path d="M30.62 158.15L48.56 158.15"
fill="none" stroke="black" stroke-width="3"/>
</g>
<g><path d="M60.51 158.15L78.45 158.15"
fill="none" stroke="black" stroke-width="3"/>
</g>
<g><path d="M90.4 158.15L108.34 158.15"
fill="none" stroke="black" stroke-width="3"/>
</g>
<g><path d="M120.29 158.15L138.23 158.15"
fill="none" stroke="black" stroke-width="3"/>
</g>
<g><path d="M150.18 158.15L168.12 158.15"
fill="none" stroke="black" stroke-width="3"/>
</g>
<g><path d="M180.07 158.15L198.01 158.15"
fill="none" stroke="black" stroke-width="3"/>
</g>
<g><path d="M209.96 158.15L227.9 158.15"
fill="none" stroke="black" stroke-width="3"/>
</g>
<g><path d="M239.85 158.15L257.79 158.15"
fill="none" stroke="black" stroke-width="3"/>
</g>
<g><path d="M269.74 158.15L287.68 158.15"
fill="none" stroke="black" stroke-width="3"/>
</g>
<g><path d="M299.63 158.15L317.57 158.15"
fill="none" stroke="black" stroke-width="3"/>
</g>
<g><path d="M329.52 158.15L347.46 158.15"
fill="none" stroke="black" stroke-width="3"/>
</g>
<g><path d="M359.41 158.15L377.35 158.15"
fill="none" stroke="black" stroke-width="3"/>
</g>
<g><path d="M389.3 158.15L399.27 158.15"
fill="none" stroke="black" stroke-width="3"/>
</g>
<g><path d="M0.73 146.2L3.72 146.2"
fill="none" stroke="black" stroke-width="3"/>
</g>
<g><path d="M15.68 146.2L33.61 146.2"
fill="none" stroke="black" stroke-width="3"/>
</g>
<g><path d="M45.57 146.2L63.5 146.2"
fill="none" stroke="black" stroke-width="3"/>
</g>
<g><path d="M75.46 146.2L93.39 146.2"
fill="none" stroke="black" stroke-width="3"/>
</g>
<g><path d="M105.35 146.2L123.28 146.2"
fill="none" stroke="black" stroke-width="3"/>
</g>
<g><path d="M135.24 146.2L153.17 146.2"
fill="none" stroke="black" stroke-width="3"/>
</g>
<g><path d="M165.13 146.2L183.06 146.2"
fill="none" stroke="black" stroke-width="3"/>
</g>
<g><path d="M195.02 146.2L212.95 146.2"
fill="none" stroke="black" stroke-width="3"/>
</g>
<g><path d="M224.91 146.2L242.84 146.2"
fill="none" stroke="black" stroke-width="3"/>
</g>
<g><path d="M254.8 146.2L272.73 146.2"
fill="none" stroke="black" stroke-width="3"/>
</g>
<g><path d="M284.69 146.2L302.62 146.2"
fill="none" stroke="black" stroke-width="3"/>
</g>
<g><path d="M314.58 146.2L332.51 146.2"
fill="none" stroke="black" stroke-width="3"/>
</g>
<g><path d="M344.47 146.2L362.4 146.2"
fill="none" stroke="black" stroke-width="3"/>
</g>
<g><path d="M374.36 146.2L392.29 146.2"
fill="none" stroke="black" stroke-width="3"/>
</g>
<g><path d="M0.73 134.24L18.67 134.24"
fill="none" stroke="black" stroke-width="3"/>
</g>
<g><path d="M30.62 134.24L48.56 134.24"
fill="none" stroke="black" stroke-width="3"/>
</g>
<g><path d="M60.51 134.24L78.45 134.24"
fill="none" stroke="black" stroke-width="3"/>
</g>
<g><path d="M90.4 134.24L108.34 134.24"
fill="none" stroke="black" stroke-width="3"/>
</g>
<g><path d="M120.29 134.24L138.23 134.24"
fill="none" stroke="black" stroke-width="3"/>
</g>
<g><path d="M150.18 134.24L168.12 134.24"
fill="none" stroke="black" stroke-width="3"/>
</g>
<g><path d="M180.07 134.24L198.01 134.24"
fill="none" stroke="black" stroke-width="3"/>
</g>
<g><path d="M209.96 134.24L227.9 134.24"
fill="none" stroke="black" stroke-width="3"/>
</g>
<g><path d="M239.85 134.24L257.79 134.24"
fill="none" stroke="black" stroke-width="3"/>
</g>
<g><path d="M269.74 134.24L287.68 134.24"
fill="none" stroke="black" stroke-width="3"/>
</g>
<g><path d="M299.63 134.24L317.57 134.24"
fill="none" stroke="black" stroke-width="3"/>
</g>
<g><path d="M329.52 134.24L347.46 134.24"
fill="none" stroke="black" stroke-width="3"/>
</g>
<g><path d="M359.41 134.24L377.35 134.24"
fill="none" stroke="black" stroke-width="3"/>
</g>
<g><path d="M389.3 134.24L399.27 134.24"
fill="none" stroke="black" stroke-width="3"/>
</g>
<g><path d="M0.73 122.29L3.72 122.29"
fill="none" stroke="black" stroke-width="3"/>
</g>
<g><path d="M15.68 122.29L33.61 122.29"
fill="none" stroke="black" stroke-width="3"/>
</g>
<g><path d="M45.57 122.29L63.5 122.29"
fill="none" stroke="black" stroke-width="3"/>
</g>
<g><path d="M75.46 122.29L93.39 122.29"
fill="none" stroke="black" stroke-width="3"/>
</g>
<g><path d="M105.35 122.29L123.28 122.29"
fill="none" stroke="black" stroke-width="3"/>
</g>
<g><path d="M135.24 122.29L153.17 122.29"
fill="none" stroke="black" stroke-width="3"/>
</g>
<g><path d="M165.13 122.29L183.06 122.29"
fill="none" stroke="black" stroke-width="3"/>
</g>
<g><path d="M195.02 122.29L212.95 122.29"
fill="none" stroke="black" stroke-width="3"/>
</g>
<g><path d="M224.91 122.29L242.84 122.29"
fill="none" stroke="black" stroke-width="3"/>
</g>
<g><path d="M254.8 122.29L272.73 122.29"
fill="none" stroke="black" stroke-width="3"/>
</g>
<g><path d="M284.69 122.29L302.62 122.29"
fill="none" stroke="black" stroke-width="3"/>
</g>
<g><path d="M314.58 122.29L332.51 122.29"
fill="none" stroke="black" stroke-width="3"/>
</g>
<g><path d="M344.47 122.29L362.4 122.29"
fill="none" stroke="black" stroke-width="3"/>
</g>
<g><path d="M374.36 122.29L392.29 122.29"
fill="none" stroke="black" stroke-width="3"/>
</g>
<g><path d="M0.73 110.33L18.67 110.33"
fill="none" stroke="black" stroke-width="3"/>
</g>
<g><path d="M30.62 110.33L48.56 110.33"
fill="none" stroke="black" stroke-width="3"/>
</g>
<g><path d="M60.51 110.33L78.45 110.33"
fill="none" stroke="black" stroke-width="3"/>
</g>
<g><path d="M90.4 110.33L108.34 110.33"
fill="none" stroke="black" stroke-width="3"/>
</g>
<g><path d="M120.29 110.33L138.23 110.33"
fill="none" stroke="black" stroke-width="3"/>
</g>
<g><path d="M150.18 110.33L168.12 110.33"
fill="none" stroke="black" stroke-width="3"/>
</g>
<g><path d="M180.07 110.33L198.01 110.33"
fill="none" stroke="black" stroke-width="3"/>
</g>
<g><path d="M209.96 110.33L227.9 110.33"
fill="none" stroke="black" stroke-width="3"/>
</g>
<g><path d="M239.85 110.33L257.79 110.33"
fill="none" stroke="black" stroke-width="3"/>
</g>
<g><path d="M269.74 110.33L287.68 110.33"
fill="none" stroke="black" stroke-width="3"/>
</g>
<g><path d="M299.63 110.33L317.57 110.33"
fill="none" stroke="black" stroke-width="3"/>
</g>
<g><path d="M329.52 110.33L347.46 110.33"
fill="none" stroke="black" stroke-width="3"/>
</g>
<g><path d="M359.41 110.33L377.35 110.33"
fill="none" stroke="black" stroke-width="3"/>
</g>
<g><path d="M389.3 110.33L399.27 110.33"
fill="none" stroke="black" stroke-width="3"/>
</g>
<g><path d="M0.73 98.37L3.72 98.37"
fill="none" stroke="black" stroke-width="3"/>
</g>
<g><path d="M15.68 98.37L33.61 98.37"
fill="none" stroke="black" stroke-width="3"/>
</g>
<g><path d="M45.57 98.37L63.5 98.37"
fill="none" stroke="black" stroke-width="3"/>
</g>
<g><path d="M75.46 98.37L93.39 98.37"
fill="none" stroke="black" stroke-width="3"/>
</g>
<g><path d="M105.35 98.37L123.28 98.37"
fill="none" stroke="black" stroke-width="3"/>
</g>
<g><path d="M135.24 98.37L153.17 98.37"
fill="none" stroke="black" stroke-width="3"/>
</g>
<g><path d="M165.13 98.37L183.06 98.37"
fill="none" stroke="black" stroke-width="3"/>
</g>
<g><path d="M195.02 98.37L212.95 98.37"
fill="none" stroke="black" stroke-width="3"/>
</g>
<g><path d="M224.91 98.37L242.84 98.37"
fill="none" stroke="black" stroke-width="3"/>
</g>
<g><path d="M254.8 98.37L272.73 98.37"
fill="none" stroke="black" stroke-width="3"/>
</g>
<g><path d="M284.69 98.37L302.62 98.37"
fill="none" stroke="black" stroke-width="3"/>
</g>
<g><path d="M314.58 98.37L332.51 98.37"
fill="none" stroke="black" stroke-width="3"/>
</g>
<g><path d="M344.47 98.37L362.4 98.37"
fill="none" stroke="black" stroke-width="3"/>
</g>
<g><path d="M374.36 98.37L392.29 98.37"
fill="none" stroke="black" stroke-width="3"/>
</g>
<g><path d="M0.73 86.42L18.67 86.42"
fill="none" stroke="black" stroke-width="3"/>
</g>
<g><path d="M30.62 86.42L48.56 86.42"
fill="none" stroke="black" stroke-width="3"/>
</g>
<g><path d="M60.51 86.42L78.45 86.42"
fill="none" stroke="black" stroke-width="3"/>
</g>
<g><path d="M90.4 86.42L108.34 86.42"
fill="none" stroke="black" stroke-width="3"/>
</g>
<g><path d="M120.29 86.42L138.23 86.42"
fill="none" stroke="black" stroke-width="3"/>
</g>
<g><path d="M150.18 86.42L168.12 86.42"
fill="none" stroke="black" stroke-width="3"/>
</g>
<g><path d="M180.07 86.42L198.01 86.42"
fill="none" stroke="black" stroke-width="3"/>
</g>
<g><path d="M209.96 86.42L227.9 86.42"
fill="none" stroke="black" stroke-width="3"/>
</g>
<g><path d="M239.85 86.42L257.79 86.42"
fill="none" stroke="black" stroke-width="3"/>
</g>
<g><path d="M269.74 86.42L287.68 86.42"
fill="none" stroke="black" stroke-width="3"/>
</g>
<g><path d="M299.63 86.42L317.57 86.42"
fill="none" stroke="black" stroke-width="3"/>
</g>
<g><path d="M329.52 86.42L347.46 86.42"
fill="none" stroke="black" stroke-width="3"/>
</g>
<g><path d="M359.41 86.42L377.35 86.42"
fill="none" stroke="black" stroke-width="3"/>
</g>
<g><path d="M389.3 86.42L399.27 86.42"
fill="none" stroke="black" stroke-width="3"/>
</g>
<g><path d="M0.73 74.46L3.72 74.46"
fill="none" stroke="black" stroke-width="3"/>
</g>
<g><path d="M15.68 74.46L33.61 74.46"
fill="none" stroke="black" stroke-width="3"/>
</g>
<g><path d="M45.57 74.46L63.5 74.46"
fill="none" stroke="black" stroke-width="3"/>
</g>
<g><path d="M75.46 74.46L93.39 74.46"
fill="none" stroke="black" stroke-width="3"/>
</g>
<g><path d="M105.35 74.46L123.28 74.46"
fill="none" stroke="black" stroke-width="3"/>
</g>
<g><path d="M135.24 74.46L153.17 74.46"
fill="none" stroke="black" stroke-width="3"/>
</g>
<g><path d="M165.13 74.46L183.06 74.46"
fill="none" stroke="black" stroke-width="3"/>
</g>
<g><path d="M195.02 74.46L212.95 74.46"
fill="none" stroke="black" stroke-width="3"/>
</g>
<g><path d="M224.91 74.46L242.84 74.46"
fill="none" stroke="black" stroke-width="3"/>
</g>
<g><path d="M254.8 74.46L272.73 74.46"
fill="none" stroke="black" stroke-width="3"/>
</g>
<g><path d="M284.69 74.46L302.62 74.46"
fill="none" stroke="black" stroke-width="3"/>
</g>
<g><path d="M314.58 74.46L332.51 74.46"
fill="none" stroke="black" stroke-width="3"/>
</g>
<g><path d="M344.47 74.46L362.4 74.46"
fill="none" stroke="black" stroke-width="3"/>
</g>
<g><path d="M374.36 74.46L392.29 74.46"
fill="none" stroke="black" stroke-width="3"/>
</g>
<g><path d="M0.73 62.51L18.67 62.51"
fill="none" stroke="black" stroke-width="3"/>
</g>
<g><path d="M30.62 62.51L48.56 62.51"
fill="none" stroke="black" stroke-width="3"/>
</g>
<g><path d="M60.51 62.51L78.45 62.51"
fill="none" stroke="black" stroke-width="3"/>
</g>
<g><path d="M90.4 62.51L108.34 62.51"
fill="none" stroke="black" stroke-width="3"/>
</g>
<g><path d="M120.29 62.51L138.23 62.51"
fill="none" stroke="black" stroke-width="3"/>
</g>
<g><path d="M150.18 62.51L168.12 62.51"
fill="none" stroke="black" stroke-width="3"/>
</g>
<g><path d="M180.07 62.51L198.01 62.51"
fill="none" stroke="black" stroke-width="3"/>
</g>
<g><path d="M209.96 62.51L227.9 62.51"
fill="none" stroke="black" stroke-width="3"/>
</g>
<g><path d="M239.85 62.51L257.79 62.51"
fill="none" stroke="black" stroke-width="3"/>
</g>
<g><path d="M269.74 62.51L287.68 62.51"
fill="none" stroke="black" stroke-width="3"/>
</g>
<g><path d="M299.63 62.51L317.57 62.51"
fill="none" stroke="black" stroke-width="3"/>
</g>
<g><path d="M329.52 62.51L347.46 62.51"
fill="none" stroke="black" stroke-width="3"/>
</g>
<g><path d="M359.41 62.51L377.35 62.51"
fill="none" stroke="black" stroke-width="3"/>
</g>
<g><path d="M389.3 62.51L399.27 62.51"
fill="none" stroke="black" stroke-width="3"/>
</g>
<g><path d="M0.73 50.55L3.72 50.55"
fill="none" stroke="black" stroke-width="3"/>
</g>
<g><path d="M15.68 50.55L33.61 50.55"
fill="none" stroke="black" stroke-width="3"/>
</g>
<g><path d="M45.57 50.55L63.5 50.55"
fill="none" stroke="black" stroke-width="3"/>
</g>
<g><path d="M75.46 50.55L93.39 50.55"
fill="none" stroke="black" stroke-width="3"/>
</g>
<g><path d="M105.35 50.55L123.28 50.55"
fill="none" stroke="black" stroke-width="3"/>
</g>
<g><path d="M135.24 50.55L153.17 50.55"
fill="none" stroke="black" stroke-width="3"/>
</g>
<g><path d="M165.13 50.55L183.06 50.55"
fill="none" stroke="black" stroke-width="3"/>
</g>
<g><path d="M195.02 50.55L212.95 50.55"
fill="none" stroke="black" stroke-width="3"/>
</g>
<g><path d="M224.91 50.55L242.84 50.55"
fill="none" stroke="black" stroke-width="3"/>
</g>
<g><path d="M254.8 50.55L272.73 50.55"
fill="none" stroke="black" stroke-width="3"/>
</g>
<g><path d="M284.69 50.55L302.62 50.55"
fill="none" stroke="black" stroke-width="3"/>
</g>
<g><path d="M314.58 50.55L332.51 50.55"
fill="none" stroke="black" stroke-width="3"/>
</g>
<g><path d="M344.47 50.55L362.4 50.55"
fill="none" stroke="black" stroke-width="3"/>
</g>
<g><path d="M374.36 50.55L392.29 50.55"
fill="none" stroke="black" stroke-width="3"/>
</g>
<g><path d="M0.73 38.59L18.67 38.59"
fill="none" stroke="black" stroke-width="3"/>
</g>
<g><path d="M30.62 38.59L48.56 38.59"
fill="none" stroke="black" stroke-width="3"/>
</g>
<g><path d="M60.51 38.59L78.45 38.59"
fill="none" stroke="black" stroke-width="3"/>
</g>
<g><path d="M90.4 38.59L108.34 38.59"
fill="none" stroke="black" stroke-width="3"/>
</g>
<g><path d="M120.29 38.59L138.23 38.59"
fill="none" stroke="black" stroke-width="3"/>
</g>
<g><path d="M150.18 38.59L168.12 38.59"
fill="none" stroke="black" stroke-width="3"/>
</g>
<g><path d="M180.07 38.59L198.01 38.59"
fill="none" stroke="black" stroke-width="3"/>
</g>
<g><path d="M209.96 38.59L227.9 38.59"
fill="none" stroke="black" stroke-width="3"/>
</g>
<g><path d="M239.85 38.59L257.79 38.59"
fill="none" stroke="black" stroke-width="3"/>
</g>
<g><path d="M269.74 38.59L287.68 38.59"
fill="none" stroke="black" stroke-width="3"/>
</g>
<g><path d="M299.63 38.59L317.57 38.59"
fill="none" stroke="black" stroke-width="3"/>
</g>
<g><path d="M329.52 38.59L347.46 38.59"
fill="none" stroke="black" stroke-width="3"/>
</g>
<g><path d="M359.41 38.59L377.35 38.59"
fill="none" stroke="black" stroke-width="3"/>
</g>
<g><path d="M389.3 38.59L399.27 38.59"
fill="none" stroke="black" stroke-width="3"/>
</g>
<g><path d="M0.73 26.64L3.72 26.64"
fill="none" stroke="black" stroke-width="3"/>
</g>
<g><path d="M15.68 26.64L33.61 26.64"
fill="none" stroke="black" stroke-width="3"/>
</g>
<g><path d="M45.57 26.64L63.5 26.64"
fill="none" stroke="black" stroke-width="3"/>
</g>
<g><path d="M75.46 26.64L93.39 26.64"
fill="none" stroke="black" stroke-width="3"/>
</g>
<g><path d="M105.35 26.64L123.28 26.64"
fill="none" stroke="black" stroke-width="3"/>
</g>
<g><path d="M135.24 26.64L153.17 26.64"
fill="none" stroke="black" stroke-width="3"/>
</g>
<g><path d="M165.13 26.64L183.06 26.64"
fill="none" stroke="black" stroke-width="3"/>
</g>
<g><path d="M195.02 26.64L212.95 26.64"
fill="none" stroke="black" stroke-width="3"/>
</g>
<g><path d="M224.91 26.64L242.84 26.64"
fill="none" stroke="black" stroke-width="3"/>
</g>
<g><path d="M254.8 26.64L272.73 26.64"
fill="none" stroke="black" stroke-width="3"/>
</g>
<g><path d="M284.69 26.64L302.62 26.64"
fill="none" stroke="black" stroke-width="3"/>
</g>
<g><path d="M314.58 26.64L332.51 26.64"
fill="none" stroke="black" stroke-width="3"/>
</g>
<g><path d="M344.47 26.64L362.4 26.64"
fill="none" stroke="black" stroke-width="3"/>
</g>
<g><path d="M374.36 26.64L392.29 26.64"
fill="none" stroke="black" stroke-width="3"/>
</g>
<g><path d="M0.73 14.68L18.67 14.68"
fill="none" stroke="black" stroke-width="3"/>
</g>
<g><path d="M30.62 14.68L48.56 14.68"
fill="none" stroke="black" stroke-width="3"/>
</g>
<g><path d="M60.51 14.68L78.45 14.68"
fill="none" stroke="black" stroke-width="3"/>
</g>
<g><path d="M90.4 14.68L108.34 14.68"
fill="none" stroke="black" stroke-width="3"/>
</g>
<g><path d="M120.29 14.68L138.23 14.68"
fill="none" stroke="black" stroke-width="3"/>
</g>
<g><path d="M150.18 14.68L168.12 14.68"
fill="none" stroke="black" stroke-width="3"/>
</g>
<g><path d="M180.07 14.68L198.01 14.68"
fill="none" stroke="black" stroke-width="3"/>
</g>
<g><path d="M209.96 14.68L227.9 14.68"
fill="none" stroke="black" stroke-width="3"/>
</g>
<g><path d="M239.85 14.68L257.79 14.68"
fill="none" stroke="black" stroke-width="3"/>
</g>
<g><path d="M269.74 14.68L287.68 14.68"
fill="none" stroke="black" stroke-width="3"/>
</g>
<g><path d="M299.63 14.68L317.57 14.68"
fill="none" stroke="black" stroke-width="3"/>
</g>
<g><path d="M329.52 14.68L347.46 14.68"
fill="none" stroke="black" stroke-width="3"/>
</g>
<g><path d="M359.41 14.68L377.35 14.68"
fill="none" stroke="black" stroke-width="3"/>
</g>
<g><path d="M389.3 14.68L399.27 14.68"
fill="none" stroke="black" stroke-width="3"/>
</g>
<g><path d="M0.73 2.73L3.72 2.73"
fill="none" stroke="black" stroke-width="3"/>
</g>
<g><path d="M15.68 2.73L33.61 2.73"
fill="none" stroke="black" stroke-width="3"/>
</g>
<g><path d="M45.57 2.73L63.5 2.73"
fill="none" stroke="black" stroke-width="3"/>
</g>
<g><path d="M75.46 2.73L93.39 2.73"
fill="none" stroke="black" stroke-width="3"/>
</g>
<g><path d="M105.35 2.73L123.28 2.73"
fill="none" stroke="black" stroke-width="3"/>
</g>
<g><path d="M135.24 2.73L153.17 2.73"
fill="none" stroke="black" stroke-width="3"/>
</g>
<g><path d="M165.13 2.73L183.06 2.73"
fill="none" stroke="black" stroke-width="3"/>
</g>
<g><path d="M195.02 2.73L212.95 2.73"
fill="none" stroke="black" stroke-width="3"/>
</g>
<g><path d="M224.91 2.73L242.84 2.73"
fill="none" stroke="black" stroke-width="3"/>
</g>
<g><path d="M254.8 2.73L272.73 2.73"
fill="none" stroke="black" stroke-width="3"/>
</g>
<g><path d="M284.69 2.73L302.62 2.73"
fill="none" stroke="black" stroke-width="3"/>
</g>
<g><path d="M314.58 2.73L332.51 2.73"
fill="none" stroke="black" stroke-width="3"/>
</g>
<g><path d="M344.47 2.73L362.4 2.73"
fill="none" stroke="black" stroke-width="3"/>
</g>
<g><path d="M374.36 2.73L392.29 2.73"
fill="none" stroke="black" stroke-width="3"/>
</g>
</g>
</svg>
