<?xml version="1.0" standalone="no"?><svg xmlns="http://www.w3.org/2000/svg" width="400.000" height="400.000" viewBox="0.0 0.0 400.000 400.000" version="1.1">
  <title>Produce by Acme CAD Converter</title>
  <desc>Produce by Acme CAD Converter</desc>
<g id="0" display="visible">
<g><path d="M319.56 399.27L399.27 319.56"
fill="none" stroke="black" stroke-width=".5"/>
</g>
<g><path d="M0.73 80.44L80.44 0.73"
fill="none" stroke="black" stroke-width=".5"/>
</g>
<g><path d="M40.59 68.77L68.77 40.59"
fill="none" stroke="black" stroke-width=".5"/>
</g>
<g><path d="M12.41 40.59L40.59 12.41"
fill="none" stroke="black" stroke-width=".5"/>
</g>
<g><path d="M331.23 359.41L359.41 331.23"
fill="none" stroke="black" stroke-width=".5"/>
</g>
<g><path d="M359.41 387.59L387.59 359.41"
fill="none" stroke="black" stroke-width=".5"/>
</g>
<g><path d="M33.33 366.67L113.04 286.96"
fill="none" stroke="black" stroke-width=".5"/>
</g>
<g><path d="M45.01 326.81L73.19 298.63"
fill="none" stroke="black" stroke-width=".5"/>
</g>
<g><path d="M73.19 354.99L101.37 326.81"
fill="none" stroke="black" stroke-width=".5"/>
</g>
<g><path d="M160.15 239.85L239.85 160.15"
fill="none" stroke="black" stroke-width=".5"/>
</g>
<g><path d="M171.82 200L200 171.82"
fill="none" stroke="black" stroke-width=".5"/>
</g>
<g><path d="M200 228.18L228.18 200"
fill="none" stroke="black" stroke-width=".5"/>
</g>
<g><path d="M286.96 113.04L366.67 33.33"
fill="none" stroke="black" stroke-width=".5"/>
</g>
<g><path d="M298.63 73.19L326.81 45.01"
fill="none" stroke="black" stroke-width=".5"/>
</g>
<g><path d="M326.81 101.37L354.99 73.19"
fill="none" stroke="black" stroke-width=".5"/>
</g>
<g><path d="M296.21 263.2L375.92 183.49"
fill="none" stroke="black" stroke-width=".5"/>
</g>
<g><path d="M307.89 223.35L336.07 195.16"
fill="none" stroke="black" stroke-width=".5"/>
</g>
<g><path d="M336.07 251.53L364.25 223.35"
fill="none" stroke="black" stroke-width=".5"/>
</g>
<g><path d="M183.49 375.92L263.2 296.21"
fill="none" stroke="black" stroke-width=".5"/>
</g>
<g><path d="M195.16 336.07L223.35 307.89"
fill="none" stroke="black" stroke-width=".5"/>
</g>
<g><path d="M223.35 364.25L251.53 336.07"
fill="none" stroke="black" stroke-width=".5"/>
</g>
<g><path d="M24.08 216.51L103.79 136.8"
fill="none" stroke="black" stroke-width=".5"/>
</g>
<g><path d="M35.75 176.65L63.93 148.47"
fill="none" stroke="black" stroke-width=".5"/>
</g>
<g><path d="M63.93 204.84L92.11 176.65"
fill="none" stroke="black" stroke-width=".5"/>
</g>
<g><path d="M136.8 103.79L216.51 24.08"
fill="none" stroke="black" stroke-width=".5"/>
</g>
<g><path d="M148.47 63.93L176.65 35.75"
fill="none" stroke="black" stroke-width=".5"/>
</g>
<g><path d="M176.65 92.11L204.84 63.93"
fill="none" stroke="black" stroke-width=".5"/>
</g>
</g>
</svg>
