<?xml version="1.0" standalone="no"?><svg xmlns="http://www.w3.org/2000/svg" width="400.000" height="400.000" viewBox="0.0 0.0 400.000 400.000" version="1.1">
  <title>Produce by Acme CAD Converter</title>
  <desc>Produce by Acme CAD Converter</desc>
<g id="0" display="visible">
<g><path d="M0.73 389.3L399.27 389.3"
fill="none" stroke="black" stroke-width="3"/>
</g>
<g><path d="M0.73 369.38L399.27 369.38"
fill="none" stroke="black" stroke-width="3"/>
</g>
<g><path d="M0.73 349.45L399.27 349.45"
fill="none" stroke="black" stroke-width="3"/>
</g>
<g><path d="M0.73 329.52L399.27 329.52"
fill="none" stroke="black" stroke-width="3"/>
</g>
<g><path d="M0.73 309.6L399.27 309.6"
fill="none" stroke="black" stroke-width="3"/>
</g>
<g><path d="M0.73 289.67L399.27 289.67"
fill="none" stroke="black" stroke-width="3"/>
</g>
<g><path d="M0.73 269.74L399.27 269.74"
fill="none" stroke="black" stroke-width="3"/>
</g>
<g><path d="M0.73 249.82L399.27 249.82"
fill="none" stroke="black" stroke-width="3"/>
</g>
<g><path d="M0.73 229.89L399.27 229.89"
fill="none" stroke="black" stroke-width="3"/>
</g>
<g><path d="M0.73 209.96L399.27 209.96"
fill="none" stroke="black" stroke-width="3"/>
</g>
<g><path d="M0.73 190.04L399.27 190.04"
fill="none" stroke="black" stroke-width="3"/>
</g>
<g><path d="M0.73 170.11L399.27 170.11"
fill="none" stroke="black" stroke-width="3"/>
</g>
<g><path d="M0.73 150.18L399.27 150.18"
fill="none" stroke="black" stroke-width="3"/>
</g>
<g><path d="M0.73 130.26L399.27 130.26"
fill="none" stroke="black" stroke-width="3"/>
</g>
<g><path d="M0.73 110.33L399.27 110.33"
fill="none" stroke="black" stroke-width="3"/>
</g>
<g><path d="M0.73 90.4L399.27 90.4"
fill="none" stroke="black" stroke-width="3"/>
</g>
<g><path d="M0.73 70.48L399.27 70.48"
fill="none" stroke="black" stroke-width="3"/>
</g>
<g><path d="M0.73 50.55L399.27 50.55"
fill="none" stroke="black" stroke-width="3"/>
</g>
<g><path d="M0.73 30.62L399.27 30.62"
fill="none" stroke="black" stroke-width="3"/>
</g>
<g><path d="M0.73 10.7L399.27 10.7"
fill="none" stroke="black" stroke-width="3"/>
</g>
</g>
</svg>
