<?xml version="1.0" standalone="no"?><svg xmlns="http://www.w3.org/2000/svg" width="400.000" height="400.000" viewBox="0.0 0.0 400.000 400.000" version="1.1">
  <title>Produce by Acme CAD Converter</title>
  <desc>Produce by Acme CAD Converter</desc>
<g id="0" display="visible">
<g><path d="M395.26 399.27L399.27 395.26"
fill="none" stroke="black" stroke-width="3"/>
</g>
<g><path d="M350.17 387.99L381.17 357"
fill="none" stroke="black" stroke-width="3"/>
</g>
<g><path d="M395.26 342.91L399.27 338.9"
fill="none" stroke="black" stroke-width="3"/>
</g>
<g><path d="M282.54 399.27L307.9 373.9"
fill="none" stroke="black" stroke-width="3"/>
</g>
<g><path d="M321.99 359.81L352.99 328.82"
fill="none" stroke="black" stroke-width="3"/>
</g>
<g><path d="M367.08 314.72L398.08 283.73"
fill="none" stroke="black" stroke-width="3"/>
</g>
<g><path d="M226.18 399.27L234.63 390.81"
fill="none" stroke="black" stroke-width="3"/>
</g>
<g><path d="M248.72 376.72L279.72 345.72"
fill="none" stroke="black" stroke-width="3"/>
</g>
<g><path d="M293.81 331.63L324.81 300.63"
fill="none" stroke="black" stroke-width="3"/>
</g>
<g><path d="M338.9 286.54L369.9 255.55"
fill="none" stroke="black" stroke-width="3"/>
</g>
<g><path d="M383.99 241.46L399.27 226.18"
fill="none" stroke="black" stroke-width="3"/>
</g>
<g><path d="M175.45 393.63L206.45 362.63"
fill="none" stroke="black" stroke-width="3"/>
</g>
<g><path d="M220.54 348.54L251.54 317.54"
fill="none" stroke="black" stroke-width="3"/>
</g>
<g><path d="M265.63 303.45L296.63 272.45"
fill="none" stroke="black" stroke-width="3"/>
</g>
<g><path d="M310.72 258.36L341.72 227.37"
fill="none" stroke="black" stroke-width="3"/>
</g>
<g><path d="M355.81 213.27L386.81 182.28"
fill="none" stroke="black" stroke-width="3"/>
</g>
<g><path d="M113.46 399.27L133.18 379.54"
fill="none" stroke="black" stroke-width="3"/>
</g>
<g><path d="M147.27 365.45L178.27 334.45"
fill="none" stroke="black" stroke-width="3"/>
</g>
<g><path d="M192.36 320.36L223.36 289.36"
fill="none" stroke="black" stroke-width="3"/>
</g>
<g><path d="M237.45 275.27L268.45 244.27"
fill="none" stroke="black" stroke-width="3"/>
</g>
<g><path d="M282.54 230.18L313.54 199.18"
fill="none" stroke="black" stroke-width="3"/>
</g>
<g><path d="M327.63 185.09L358.63 154.1"
fill="none" stroke="black" stroke-width="3"/>
</g>
<g><path d="M372.72 140.01L399.27 113.46"
fill="none" stroke="black" stroke-width="3"/>
</g>
<g><path d="M57.09 399.27L59.91 396.45"
fill="none" stroke="black" stroke-width="3"/>
</g>
<g><path d="M74 382.36L105 351.36"
fill="none" stroke="black" stroke-width="3"/>
</g>
<g><path d="M119.09 337.27L150.09 306.27"
fill="none" stroke="black" stroke-width="3"/>
</g>
<g><path d="M164.18 292.18L195.18 261.18"
fill="none" stroke="black" stroke-width="3"/>
</g>
<g><path d="M209.27 247.09L240.27 216.09"
fill="none" stroke="black" stroke-width="3"/>
</g>
<g><path d="M254.36 202L285.36 171"
fill="none" stroke="black" stroke-width="3"/>
</g>
<g><path d="M299.45 156.91L330.45 125.92"
fill="none" stroke="black" stroke-width="3"/>
</g>
<g><path d="M344.54 111.82L375.53 80.83"
fill="none" stroke="black" stroke-width="3"/>
</g>
<g><path d="M389.63 66.74L399.27 57.09"
fill="none" stroke="black" stroke-width="3"/>
</g>
<g><path d="M14.82 385.18L45.82 354.18"
fill="none" stroke="black" stroke-width="3"/>
</g>
<g><path d="M59.91 340.09L90.91 309.09"
fill="none" stroke="black" stroke-width="3"/>
</g>
<g><path d="M105 295L136 264"
fill="none" stroke="black" stroke-width="3"/>
</g>
<g><path d="M150.09 249.91L181.09 218.91"
fill="none" stroke="black" stroke-width="3"/>
</g>
<g><path d="M195.18 204.82L226.18 173.82"
fill="none" stroke="black" stroke-width="3"/>
</g>
<g><path d="M240.27 159.73L271.27 128.73"
fill="none" stroke="black" stroke-width="3"/>
</g>
<g><path d="M285.36 114.64L316.36 83.64"
fill="none" stroke="black" stroke-width="3"/>
</g>
<g><path d="M330.45 69.55L361.44 38.56"
fill="none" stroke="black" stroke-width="3"/>
</g>
<g><path d="M375.53 24.47L399.27 0.73"
fill="none" stroke="black" stroke-width="3"/>
</g>
<g><path d="M0.73 342.91L3.55 340.09"
fill="none" stroke="black" stroke-width="3"/>
</g>
<g><path d="M17.64 326L48.64 295"
fill="none" stroke="black" stroke-width="3"/>
</g>
<g><path d="M62.73 280.91L93.73 249.91"
fill="none" stroke="black" stroke-width="3"/>
</g>
<g><path d="M107.82 235.82L138.82 204.82"
fill="none" stroke="black" stroke-width="3"/>
</g>
<g><path d="M152.91 190.73L183.91 159.73"
fill="none" stroke="black" stroke-width="3"/>
</g>
<g><path d="M198 145.64L229 114.64"
fill="none" stroke="black" stroke-width="3"/>
</g>
<g><path d="M243.09 100.55L274.08 69.55"
fill="none" stroke="black" stroke-width="3"/>
</g>
<g><path d="M288.18 55.46L319.17 24.47"
fill="none" stroke="black" stroke-width="3"/>
</g>
<g><path d="M333.26 10.37L342.91 0.73"
fill="none" stroke="black" stroke-width="3"/>
</g>
<g><path d="M0.73 286.54L20.46 266.82"
fill="none" stroke="black" stroke-width="3"/>
</g>
<g><path d="M34.55 252.73L65.55 221.73"
fill="none" stroke="black" stroke-width="3"/>
</g>
<g><path d="M79.64 207.64L110.64 176.64"
fill="none" stroke="black" stroke-width="3"/>
</g>
<g><path d="M124.73 162.55L155.73 131.55"
fill="none" stroke="black" stroke-width="3"/>
</g>
<g><path d="M169.82 117.46L200.82 86.46"
fill="none" stroke="black" stroke-width="3"/>
</g>
<g><path d="M214.91 72.37L245.9 41.37"
fill="none" stroke="black" stroke-width="3"/>
</g>
<g><path d="M259.99 27.28L286.54 0.73"
fill="none" stroke="black" stroke-width="3"/>
</g>
<g><path d="M6.37 224.55L37.37 193.55"
fill="none" stroke="black" stroke-width="3"/>
</g>
<g><path d="M51.46 179.46L82.46 148.46"
fill="none" stroke="black" stroke-width="3"/>
</g>
<g><path d="M96.55 134.37L127.55 103.37"
fill="none" stroke="black" stroke-width="3"/>
</g>
<g><path d="M141.64 89.28L172.63 58.28"
fill="none" stroke="black" stroke-width="3"/>
</g>
<g><path d="M186.73 44.19L217.72 13.19"
fill="none" stroke="black" stroke-width="3"/>
</g>
<g><path d="M0.73 173.82L9.19 165.37"
fill="none" stroke="black" stroke-width="3"/>
</g>
<g><path d="M23.28 151.28L54.28 120.28"
fill="none" stroke="black" stroke-width="3"/>
</g>
<g><path d="M68.37 106.19L99.37 75.19"
fill="none" stroke="black" stroke-width="3"/>
</g>
<g><path d="M113.46 61.1L144.45 30.1"
fill="none" stroke="black" stroke-width="3"/>
</g>
<g><path d="M158.54 16.01L173.82 0.73"
fill="none" stroke="black" stroke-width="3"/>
</g>
<g><path d="M0.73 117.46L26.1 92.1"
fill="none" stroke="black" stroke-width="3"/>
</g>
<g><path d="M40.19 78.01L71.18 47.01"
fill="none" stroke="black" stroke-width="3"/>
</g>
<g><path d="M85.28 32.92L116.27 1.92"
fill="none" stroke="black" stroke-width="3"/>
</g>
<g><path d="M12.01 49.83L43 18.83"
fill="none" stroke="black" stroke-width="3"/>
</g>
<g><path d="M57.09 4.74L61.1 0.73"
fill="none" stroke="black" stroke-width="3"/>
</g>
<g><path d="M0.73 4.74L4.74 0.73"
fill="none" stroke="black" stroke-width="3"/>
</g>
<g><path d="M341.72 396.45L344.54 393.63"
fill="none" stroke="black" stroke-width="3"/>
</g>
<g><path d="M386.81 351.36L389.63 348.54"
fill="none" stroke="black" stroke-width="3"/>
</g>
<g><path d="M313.54 368.27L316.36 365.45"
fill="none" stroke="black" stroke-width="3"/>
</g>
<g><path d="M358.63 323.18L361.44 320.36"
fill="none" stroke="black" stroke-width="3"/>
</g>
<g><path d="M240.27 385.18L243.09 382.36"
fill="none" stroke="black" stroke-width="3"/>
</g>
<g><path d="M285.36 340.09L288.18 337.27"
fill="none" stroke="black" stroke-width="3"/>
</g>
<g><path d="M330.45 295L333.26 292.18"
fill="none" stroke="black" stroke-width="3"/>
</g>
<g><path d="M375.53 249.91L378.35 247.09"
fill="none" stroke="black" stroke-width="3"/>
</g>
<g><path d="M212.09 357L214.91 354.18"
fill="none" stroke="black" stroke-width="3"/>
</g>
<g><path d="M257.18 311.91L259.99 309.09"
fill="none" stroke="black" stroke-width="3"/>
</g>
<g><path d="M302.27 266.82L305.08 264"
fill="none" stroke="black" stroke-width="3"/>
</g>
<g><path d="M347.35 221.73L350.17 218.91"
fill="none" stroke="black" stroke-width="3"/>
</g>
<g><path d="M392.44 176.64L395.26 173.82"
fill="none" stroke="black" stroke-width="3"/>
</g>
<g><path d="M138.82 373.9L141.64 371.09"
fill="none" stroke="black" stroke-width="3"/>
</g>
<g><path d="M183.91 328.82L186.73 326"
fill="none" stroke="black" stroke-width="3"/>
</g>
<g><path d="M229 283.73L231.81 280.91"
fill="none" stroke="black" stroke-width="3"/>
</g>
<g><path d="M274.08 238.64L276.9 235.82"
fill="none" stroke="black" stroke-width="3"/>
</g>
<g><path d="M319.17 193.55L321.99 190.73"
fill="none" stroke="black" stroke-width="3"/>
</g>
<g><path d="M364.26 148.46L367.08 145.64"
fill="none" stroke="black" stroke-width="3"/>
</g>
<g><path d="M65.55 390.81L68.37 387.99"
fill="none" stroke="black" stroke-width="3"/>
</g>
<g><path d="M110.64 345.72L113.46 342.91"
fill="none" stroke="black" stroke-width="3"/>
</g>
<g><path d="M155.73 300.63L158.54 297.82"
fill="none" stroke="black" stroke-width="3"/>
</g>
<g><path d="M200.82 255.55L203.63 252.73"
fill="none" stroke="black" stroke-width="3"/>
</g>
<g><path d="M245.9 210.46L248.72 207.64"
fill="none" stroke="black" stroke-width="3"/>
</g>
<g><path d="M290.99 165.37L293.81 162.55"
fill="none" stroke="black" stroke-width="3"/>
</g>
<g><path d="M336.08 120.28L338.9 117.46"
fill="none" stroke="black" stroke-width="3"/>
</g>
<g><path d="M381.17 75.19L383.99 72.37"
fill="none" stroke="black" stroke-width="3"/>
</g>
<g><path d="M37.37 362.63L40.19 359.81"
fill="none" stroke="black" stroke-width="3"/>
</g>
<g><path d="M82.46 317.54L85.28 314.72"
fill="none" stroke="black" stroke-width="3"/>
</g>
<g><path d="M127.55 272.45L130.36 269.64"
fill="none" stroke="black" stroke-width="3"/>
</g>
<g><path d="M172.63 227.37L175.45 224.55"
fill="none" stroke="black" stroke-width="3"/>
</g>
<g><path d="M217.72 182.28L220.54 179.46"
fill="none" stroke="black" stroke-width="3"/>
</g>
<g><path d="M262.81 137.19L265.63 134.37"
fill="none" stroke="black" stroke-width="3"/>
</g>
<g><path d="M307.9 92.1L310.72 89.28"
fill="none" stroke="black" stroke-width="3"/>
</g>
<g><path d="M352.99 47.01L355.81 44.19"
fill="none" stroke="black" stroke-width="3"/>
</g>
<g><path d="M398.08 1.92L399.27 0.73"
fill="none" stroke="black" stroke-width="3"/>
</g>
<g><path d="M9.19 334.45L12.01 331.63"
fill="none" stroke="black" stroke-width="3"/>
</g>
<g><path d="M54.28 289.36L57.09 286.54"
fill="none" stroke="black" stroke-width="3"/>
</g>
<g><path d="M99.37 244.27L102.18 241.46"
fill="none" stroke="black" stroke-width="3"/>
</g>
<g><path d="M144.45 199.18L147.27 196.37"
fill="none" stroke="black" stroke-width="3"/>
</g>
<g><path d="M189.54 154.1L192.36 151.28"
fill="none" stroke="black" stroke-width="3"/>
</g>
<g><path d="M234.63 109.01L237.45 106.19"
fill="none" stroke="black" stroke-width="3"/>
</g>
<g><path d="M279.72 63.92L282.54 61.1"
fill="none" stroke="black" stroke-width="3"/>
</g>
<g><path d="M324.81 18.83L327.63 16.01"
fill="none" stroke="black" stroke-width="3"/>
</g>
<g><path d="M26.1 261.18L28.91 258.36"
fill="none" stroke="black" stroke-width="3"/>
</g>
<g><path d="M71.18 216.09L74 213.27"
fill="none" stroke="black" stroke-width="3"/>
</g>
<g><path d="M116.27 171L119.09 168.19"
fill="none" stroke="black" stroke-width="3"/>
</g>
<g><path d="M161.36 125.92L164.18 123.1"
fill="none" stroke="black" stroke-width="3"/>
</g>
<g><path d="M206.45 80.83L209.27 78.01"
fill="none" stroke="black" stroke-width="3"/>
</g>
<g><path d="M251.54 35.74L254.36 32.92"
fill="none" stroke="black" stroke-width="3"/>
</g>
<g><path d="M43 187.91L45.82 185.09"
fill="none" stroke="black" stroke-width="3"/>
</g>
<g><path d="M88.09 142.82L90.91 140.01"
fill="none" stroke="black" stroke-width="3"/>
</g>
<g><path d="M133.18 97.73L136 94.92"
fill="none" stroke="black" stroke-width="3"/>
</g>
<g><path d="M178.27 52.65L181.09 49.83"
fill="none" stroke="black" stroke-width="3"/>
</g>
<g><path d="M223.36 7.56L226.18 4.74"
fill="none" stroke="black" stroke-width="3"/>
</g>
<g><path d="M14.82 159.73L17.64 156.91"
fill="none" stroke="black" stroke-width="3"/>
</g>
<g><path d="M59.91 114.64L62.73 111.82"
fill="none" stroke="black" stroke-width="3"/>
</g>
<g><path d="M105 69.55L107.82 66.74"
fill="none" stroke="black" stroke-width="3"/>
</g>
<g><path d="M150.09 24.47L152.91 21.65"
fill="none" stroke="black" stroke-width="3"/>
</g>
<g><path d="M31.73 86.46L34.55 83.64"
fill="none" stroke="black" stroke-width="3"/>
</g>
<g><path d="M76.82 41.37L79.64 38.56"
fill="none" stroke="black" stroke-width="3"/>
</g>
<g><path d="M3.55 58.28L6.37 55.46"
fill="none" stroke="black" stroke-width="3"/>
</g>
<g><path d="M48.64 13.19L51.46 10.37"
fill="none" stroke="black" stroke-width="3"/>
</g>
<g><path d="M367.08 399.27L372.72 393.63"
fill="none" stroke="black" stroke-width="3"/>
</g>
<g><path d="M386.81 379.54L399.27 367.08"
fill="none" stroke="black" stroke-width="3"/>
</g>
<g><path d="M313.54 396.45L344.54 365.45"
fill="none" stroke="black" stroke-width="3"/>
</g>
<g><path d="M358.63 351.36L389.63 320.36"
fill="none" stroke="black" stroke-width="3"/>
</g>
<g><path d="M254.36 399.27L271.27 382.36"
fill="none" stroke="black" stroke-width="3"/>
</g>
<g><path d="M285.36 368.27L316.36 337.27"
fill="none" stroke="black" stroke-width="3"/>
</g>
<g><path d="M330.45 323.18L361.44 292.18"
fill="none" stroke="black" stroke-width="3"/>
</g>
<g><path d="M375.53 278.09L399.27 254.36"
fill="none" stroke="black" stroke-width="3"/>
</g>
<g><path d="M212.09 385.18L243.09 354.18"
fill="none" stroke="black" stroke-width="3"/>
</g>
<g><path d="M257.18 340.09L288.18 309.09"
fill="none" stroke="black" stroke-width="3"/>
</g>
<g><path d="M302.27 295L333.26 264"
fill="none" stroke="black" stroke-width="3"/>
</g>
<g><path d="M347.35 249.91L378.35 218.91"
fill="none" stroke="black" stroke-width="3"/>
</g>
<g><path d="M392.44 204.82L399.27 198"
fill="none" stroke="black" stroke-width="3"/>
</g>
<g><path d="M141.64 399.27L169.82 371.09"
fill="none" stroke="black" stroke-width="3"/>
</g>
<g><path d="M183.91 357L214.91 326"
fill="none" stroke="black" stroke-width="3"/>
</g>
<g><path d="M229 311.91L259.99 280.91"
fill="none" stroke="black" stroke-width="3"/>
</g>
<g><path d="M274.08 266.82L305.08 235.82"
fill="none" stroke="black" stroke-width="3"/>
</g>
<g><path d="M319.17 221.73L350.17 190.73"
fill="none" stroke="black" stroke-width="3"/>
</g>
<g><path d="M364.26 176.64L395.26 145.64"
fill="none" stroke="black" stroke-width="3"/>
</g>
<g><path d="M85.28 399.27L96.55 387.99"
fill="none" stroke="black" stroke-width="3"/>
</g>
<g><path d="M110.64 373.9L141.64 342.91"
fill="none" stroke="black" stroke-width="3"/>
</g>
<g><path d="M155.73 328.82L186.73 297.82"
fill="none" stroke="black" stroke-width="3"/>
</g>
<g><path d="M200.82 283.73L231.81 252.73"
fill="none" stroke="black" stroke-width="3"/>
</g>
<g><path d="M245.9 238.64L276.9 207.64"
fill="none" stroke="black" stroke-width="3"/>
</g>
<g><path d="M290.99 193.55L321.99 162.55"
fill="none" stroke="black" stroke-width="3"/>
</g>
<g><path d="M336.08 148.46L367.08 117.46"
fill="none" stroke="black" stroke-width="3"/>
</g>
<g><path d="M381.17 103.37L399.27 85.28"
fill="none" stroke="black" stroke-width="3"/>
</g>
<g><path d="M37.37 390.81L68.37 359.81"
fill="none" stroke="black" stroke-width="3"/>
</g>
<g><path d="M82.46 345.72L113.46 314.72"
fill="none" stroke="black" stroke-width="3"/>
</g>
<g><path d="M127.55 300.63L158.54 269.64"
fill="none" stroke="black" stroke-width="3"/>
</g>
<g><path d="M172.63 255.55L203.63 224.55"
fill="none" stroke="black" stroke-width="3"/>
</g>
<g><path d="M217.72 210.46L248.72 179.46"
fill="none" stroke="black" stroke-width="3"/>
</g>
<g><path d="M262.81 165.37L293.81 134.37"
fill="none" stroke="black" stroke-width="3"/>
</g>
<g><path d="M307.9 120.28L338.9 89.28"
fill="none" stroke="black" stroke-width="3"/>
</g>
<g><path d="M352.99 75.19L383.99 44.19"
fill="none" stroke="black" stroke-width="3"/>
</g>
<g><path d="M398.08 30.1L399.27 28.91"
fill="none" stroke="black" stroke-width="3"/>
</g>
<g><path d="M9.19 362.63L40.19 331.63"
fill="none" stroke="black" stroke-width="3"/>
</g>
<g><path d="M54.28 317.54L85.28 286.54"
fill="none" stroke="black" stroke-width="3"/>
</g>
<g><path d="M99.37 272.45L130.36 241.46"
fill="none" stroke="black" stroke-width="3"/>
</g>
<g><path d="M144.45 227.37L175.45 196.37"
fill="none" stroke="black" stroke-width="3"/>
</g>
<g><path d="M189.54 182.28L220.54 151.28"
fill="none" stroke="black" stroke-width="3"/>
</g>
<g><path d="M234.63 137.19L265.63 106.19"
fill="none" stroke="black" stroke-width="3"/>
</g>
<g><path d="M279.72 92.1L310.72 61.1"
fill="none" stroke="black" stroke-width="3"/>
</g>
<g><path d="M324.81 47.01L355.81 16.01"
fill="none" stroke="black" stroke-width="3"/>
</g>
<g><path d="M369.9 1.92L371.09 0.73"
fill="none" stroke="black" stroke-width="3"/>
</g>
<g><path d="M0.73 314.72L12.01 303.45"
fill="none" stroke="black" stroke-width="3"/>
</g>
<g><path d="M26.1 289.36L57.09 258.36"
fill="none" stroke="black" stroke-width="3"/>
</g>
<g><path d="M71.18 244.27L102.18 213.27"
fill="none" stroke="black" stroke-width="3"/>
</g>
<g><path d="M116.27 199.18L147.27 168.19"
fill="none" stroke="black" stroke-width="3"/>
</g>
<g><path d="M161.36 154.1L192.36 123.1"
fill="none" stroke="black" stroke-width="3"/>
</g>
<g><path d="M206.45 109.01L237.45 78.01"
fill="none" stroke="black" stroke-width="3"/>
</g>
<g><path d="M251.54 63.92L282.54 32.92"
fill="none" stroke="black" stroke-width="3"/>
</g>
<g><path d="M296.63 18.83L314.72 0.73"
fill="none" stroke="black" stroke-width="3"/>
</g>
<g><path d="M0.73 258.36L28.91 230.18"
fill="none" stroke="black" stroke-width="3"/>
</g>
<g><path d="M43 216.09L74 185.09"
fill="none" stroke="black" stroke-width="3"/>
</g>
<g><path d="M88.09 171L119.09 140.01"
fill="none" stroke="black" stroke-width="3"/>
</g>
<g><path d="M133.18 125.92L164.18 94.92"
fill="none" stroke="black" stroke-width="3"/>
</g>
<g><path d="M178.27 80.83L209.27 49.83"
fill="none" stroke="black" stroke-width="3"/>
</g>
<g><path d="M223.36 35.74L254.36 4.74"
fill="none" stroke="black" stroke-width="3"/>
</g>
<g><path d="M14.82 187.91L45.82 156.91"
fill="none" stroke="black" stroke-width="3"/>
</g>
<g><path d="M59.91 142.82L90.91 111.82"
fill="none" stroke="black" stroke-width="3"/>
</g>
<g><path d="M105 97.73L136 66.74"
fill="none" stroke="black" stroke-width="3"/>
</g>
<g><path d="M150.09 52.65L181.09 21.65"
fill="none" stroke="black" stroke-width="3"/>
</g>
<g><path d="M195.18 7.56L202 0.73"
fill="none" stroke="black" stroke-width="3"/>
</g>
<g><path d="M0.73 145.64L17.64 128.73"
fill="none" stroke="black" stroke-width="3"/>
</g>
<g><path d="M31.73 114.64L62.73 83.64"
fill="none" stroke="black" stroke-width="3"/>
</g>
<g><path d="M76.82 69.55L107.82 38.56"
fill="none" stroke="black" stroke-width="3"/>
</g>
<g><path d="M121.91 24.47L145.64 0.73"
fill="none" stroke="black" stroke-width="3"/>
</g>
<g><path d="M3.55 86.46L34.55 55.46"
fill="none" stroke="black" stroke-width="3"/>
</g>
<g><path d="M48.64 41.37L79.64 10.37"
fill="none" stroke="black" stroke-width="3"/>
</g>
<g><path d="M0.73 32.92L6.37 27.28"
fill="none" stroke="black" stroke-width="3"/>
</g>
<g><path d="M20.46 13.19L32.92 0.73"
fill="none" stroke="black" stroke-width="3"/>
</g>
<g><path d="M378.35 387.99L381.17 385.18"
fill="none" stroke="black" stroke-width="3"/>
</g>
<g><path d="M350.17 359.81L352.99 357"
fill="none" stroke="black" stroke-width="3"/>
</g>
<g><path d="M395.26 314.72L398.08 311.91"
fill="none" stroke="black" stroke-width="3"/>
</g>
<g><path d="M276.9 376.72L279.72 373.9"
fill="none" stroke="black" stroke-width="3"/>
</g>
<g><path d="M321.99 331.63L324.81 328.82"
fill="none" stroke="black" stroke-width="3"/>
</g>
<g><path d="M367.08 286.54L369.9 283.73"
fill="none" stroke="black" stroke-width="3"/>
</g>
<g><path d="M203.63 393.63L206.45 390.81"
fill="none" stroke="black" stroke-width="3"/>
</g>
<g><path d="M248.72 348.54L251.54 345.72"
fill="none" stroke="black" stroke-width="3"/>
</g>
<g><path d="M293.81 303.45L296.63 300.63"
fill="none" stroke="black" stroke-width="3"/>
</g>
<g><path d="M338.9 258.36L341.72 255.55"
fill="none" stroke="black" stroke-width="3"/>
</g>
<g><path d="M383.99 213.27L386.81 210.46"
fill="none" stroke="black" stroke-width="3"/>
</g>
<g><path d="M175.45 365.45L178.27 362.63"
fill="none" stroke="black" stroke-width="3"/>
</g>
<g><path d="M220.54 320.36L223.36 317.54"
fill="none" stroke="black" stroke-width="3"/>
</g>
<g><path d="M265.63 275.27L268.45 272.45"
fill="none" stroke="black" stroke-width="3"/>
</g>
<g><path d="M310.72 230.18L313.54 227.37"
fill="none" stroke="black" stroke-width="3"/>
</g>
<g><path d="M355.81 185.09L358.63 182.28"
fill="none" stroke="black" stroke-width="3"/>
</g>
<g><path d="M102.18 382.36L105 379.54"
fill="none" stroke="black" stroke-width="3"/>
</g>
<g><path d="M147.27 337.27L150.09 334.45"
fill="none" stroke="black" stroke-width="3"/>
</g>
<g><path d="M192.36 292.18L195.18 289.36"
fill="none" stroke="black" stroke-width="3"/>
</g>
<g><path d="M237.45 247.09L240.27 244.27"
fill="none" stroke="black" stroke-width="3"/>
</g>
<g><path d="M282.54 202L285.36 199.18"
fill="none" stroke="black" stroke-width="3"/>
</g>
<g><path d="M327.63 156.91L330.45 154.1"
fill="none" stroke="black" stroke-width="3"/>
</g>
<g><path d="M372.72 111.82L375.53 109.01"
fill="none" stroke="black" stroke-width="3"/>
</g>
<g><path d="M28.91 399.27L31.73 396.45"
fill="none" stroke="black" stroke-width="3"/>
</g>
<g><path d="M74 354.18L76.82 351.36"
fill="none" stroke="black" stroke-width="3"/>
</g>
<g><path d="M119.09 309.09L121.91 306.27"
fill="none" stroke="black" stroke-width="3"/>
</g>
<g><path d="M164.18 264L167 261.18"
fill="none" stroke="black" stroke-width="3"/>
</g>
<g><path d="M209.27 218.91L212.09 216.09"
fill="none" stroke="black" stroke-width="3"/>
</g>
<g><path d="M254.36 173.82L257.18 171"
fill="none" stroke="black" stroke-width="3"/>
</g>
<g><path d="M299.45 128.73L302.27 125.92"
fill="none" stroke="black" stroke-width="3"/>
</g>
<g><path d="M344.54 83.64L347.35 80.83"
fill="none" stroke="black" stroke-width="3"/>
</g>
<g><path d="M389.63 38.56L392.44 35.74"
fill="none" stroke="black" stroke-width="3"/>
</g>
<g><path d="M0.73 371.09L3.55 368.27"
fill="none" stroke="black" stroke-width="3"/>
</g>
<g><path d="M45.82 326L48.64 323.18"
fill="none" stroke="black" stroke-width="3"/>
</g>
<g><path d="M90.91 280.91L93.73 278.09"
fill="none" stroke="black" stroke-width="3"/>
</g>
<g><path d="M136 235.82L138.82 233"
fill="none" stroke="black" stroke-width="3"/>
</g>
<g><path d="M181.09 190.73L183.91 187.91"
fill="none" stroke="black" stroke-width="3"/>
</g>
<g><path d="M226.18 145.64L229 142.82"
fill="none" stroke="black" stroke-width="3"/>
</g>
<g><path d="M271.27 100.55L274.08 97.73"
fill="none" stroke="black" stroke-width="3"/>
</g>
<g><path d="M316.36 55.46L319.17 52.65"
fill="none" stroke="black" stroke-width="3"/>
</g>
<g><path d="M361.44 10.37L364.26 7.56"
fill="none" stroke="black" stroke-width="3"/>
</g>
<g><path d="M17.64 297.82L20.46 295"
fill="none" stroke="black" stroke-width="3"/>
</g>
<g><path d="M62.73 252.73L65.55 249.91"
fill="none" stroke="black" stroke-width="3"/>
</g>
<g><path d="M107.82 207.64L110.64 204.82"
fill="none" stroke="black" stroke-width="3"/>
</g>
<g><path d="M152.91 162.55L155.73 159.73"
fill="none" stroke="black" stroke-width="3"/>
</g>
<g><path d="M198 117.46L200.82 114.64"
fill="none" stroke="black" stroke-width="3"/>
</g>
<g><path d="M243.09 72.37L245.9 69.55"
fill="none" stroke="black" stroke-width="3"/>
</g>
<g><path d="M288.18 27.28L290.99 24.47"
fill="none" stroke="black" stroke-width="3"/>
</g>
<g><path d="M34.55 224.55L37.37 221.73"
fill="none" stroke="black" stroke-width="3"/>
</g>
<g><path d="M79.64 179.46L82.46 176.64"
fill="none" stroke="black" stroke-width="3"/>
</g>
<g><path d="M124.73 134.37L127.55 131.55"
fill="none" stroke="black" stroke-width="3"/>
</g>
<g><path d="M169.82 89.28L172.63 86.46"
fill="none" stroke="black" stroke-width="3"/>
</g>
<g><path d="M214.91 44.19L217.72 41.37"
fill="none" stroke="black" stroke-width="3"/>
</g>
<g><path d="M6.37 196.37L9.19 193.55"
fill="none" stroke="black" stroke-width="3"/>
</g>
<g><path d="M51.46 151.28L54.28 148.46"
fill="none" stroke="black" stroke-width="3"/>
</g>
<g><path d="M96.55 106.19L99.37 103.37"
fill="none" stroke="black" stroke-width="3"/>
</g>
<g><path d="M141.64 61.1L144.45 58.28"
fill="none" stroke="black" stroke-width="3"/>
</g>
<g><path d="M186.73 16.01L189.54 13.19"
fill="none" stroke="black" stroke-width="3"/>
</g>
<g><path d="M23.28 123.1L26.1 120.28"
fill="none" stroke="black" stroke-width="3"/>
</g>
<g><path d="M68.37 78.01L71.18 75.19"
fill="none" stroke="black" stroke-width="3"/>
</g>
<g><path d="M113.46 32.92L116.27 30.1"
fill="none" stroke="black" stroke-width="3"/>
</g>
<g><path d="M40.19 49.83L43 47.01"
fill="none" stroke="black" stroke-width="3"/>
</g>
<g><path d="M85.28 4.74L88.09 1.92"
fill="none" stroke="black" stroke-width="3"/>
</g>
<g><path d="M12.01 21.65L14.82 18.83"
fill="none" stroke="black" stroke-width="3"/>
</g>
</g>
</svg>
