<?xml version="1.0" standalone="no"?><svg xmlns="http://www.w3.org/2000/svg" width="400.000" height="400.000" viewBox="0.0 0.0 400.000 400.000" version="1.1">
  <title>Produce by Acme CAD Converter</title>
  <desc>Produce by Acme CAD Converter</desc>
<g id="0" display="visible">
<g><path d="M395.26 399.27L399.27 395.26"
fill="none" stroke="black" stroke-width="3"/>
</g>
<g><path d="M367.08 399.27L399.27 367.08"
fill="none" stroke="black" stroke-width="3"/>
</g>
<g><path d="M338.9 399.27L399.27 338.9"
fill="none" stroke="black" stroke-width="3"/>
</g>
<g><path d="M310.72 399.27L399.27 310.72"
fill="none" stroke="black" stroke-width="3"/>
</g>
<g><path d="M282.54 399.27L399.27 282.54"
fill="none" stroke="black" stroke-width="3"/>
</g>
<g><path d="M254.36 399.27L399.27 254.36"
fill="none" stroke="black" stroke-width="3"/>
</g>
<g><path d="M226.18 399.27L399.27 226.18"
fill="none" stroke="black" stroke-width="3"/>
</g>
<g><path d="M198 399.27L399.27 198"
fill="none" stroke="black" stroke-width="3"/>
</g>
<g><path d="M169.82 399.27L399.27 169.82"
fill="none" stroke="black" stroke-width="3"/>
</g>
<g><path d="M141.64 399.27L399.27 141.64"
fill="none" stroke="black" stroke-width="3"/>
</g>
<g><path d="M113.46 399.27L399.27 113.46"
fill="none" stroke="black" stroke-width="3"/>
</g>
<g><path d="M85.28 399.27L399.27 85.28"
fill="none" stroke="black" stroke-width="3"/>
</g>
<g><path d="M57.09 399.27L399.27 57.09"
fill="none" stroke="black" stroke-width="3"/>
</g>
<g><path d="M28.91 399.27L399.27 28.91"
fill="none" stroke="black" stroke-width="3"/>
</g>
<g><path d="M0.73 399.27L399.27 0.73"
fill="none" stroke="black" stroke-width="3"/>
</g>
<g><path d="M0.73 371.09L371.09 0.73"
fill="none" stroke="black" stroke-width="3"/>
</g>
<g><path d="M0.73 342.91L342.91 0.73"
fill="none" stroke="black" stroke-width="3"/>
</g>
<g><path d="M0.73 314.72L314.72 0.73"
fill="none" stroke="black" stroke-width="3"/>
</g>
<g><path d="M0.73 286.54L286.54 0.73"
fill="none" stroke="black" stroke-width="3"/>
</g>
<g><path d="M0.73 258.36L258.36 0.73"
fill="none" stroke="black" stroke-width="3"/>
</g>
<g><path d="M0.73 230.18L230.18 0.73"
fill="none" stroke="black" stroke-width="3"/>
</g>
<g><path d="M0.73 202L202 0.73"
fill="none" stroke="black" stroke-width="3"/>
</g>
<g><path d="M0.73 173.82L173.82 0.73"
fill="none" stroke="black" stroke-width="3"/>
</g>
<g><path d="M0.73 145.64L145.64 0.73"
fill="none" stroke="black" stroke-width="3"/>
</g>
<g><path d="M0.73 117.46L117.46 0.73"
fill="none" stroke="black" stroke-width="3"/>
</g>
<g><path d="M0.73 89.28L89.28 0.73"
fill="none" stroke="black" stroke-width="3"/>
</g>
<g><path d="M0.73 61.1L61.1 0.73"
fill="none" stroke="black" stroke-width="3"/>
</g>
<g><path d="M0.73 32.92L32.92 0.73"
fill="none" stroke="black" stroke-width="3"/>
</g>
<g><path d="M0.73 4.74L4.74 0.73"
fill="none" stroke="black" stroke-width="3"/>
</g>
</g>
</svg>
