<?xml version="1.0" standalone="no"?><svg xmlns="http://www.w3.org/2000/svg" width="400.000" height="400.000" viewBox="0.0 0.0 400.000 400.000" version="1.1">
  <title>Produce by Acme CAD Converter</title>
  <desc>Produce by Acme CAD Converter</desc>
<g id="0" display="visible">
<g><path d="M6.51 120.14L6.51 97.32"
fill="none" stroke="black" stroke-width="12"/>
</g>
<g><path d="M6.51 97.32L20.2 97.32"
fill="none" stroke="black" stroke-width="12"/>
</g>
<g><path d="M20.2 97.32L20.2 107.36"
fill="none" stroke="black" stroke-width="12"/>
</g>
<g><path d="M20.2 107.36L16.55 107.36"
fill="none" stroke="black" stroke-width="12"/>
</g>
<g><path d="M16.55 107.36L16.55 119.53"
fill="none" stroke="black" stroke-width="12"/>
</g>
<g><path d="M15.94 120.14L6.51 120.14"
fill="none" stroke="black" stroke-width="12"/>
</g>
<g><path d="M17.16 302.68L43.14 300.82M43.14 300.82L68.59 295.28M68.59 295.28L92.99 286.18M92.99 286.18L115.85 273.7M115.85 273.7L136.7 258.09M136.7 258.09L155.11 239.68M155.11 239.68L170.72 218.83M170.72 218.83L183.2 195.97M183.2 195.97L192.3 171.57M192.3 171.57L197.84 146.12M197.84 146.12L199.7 120.14"
fill="none" stroke="black" stroke-width="12"/>
</g>
<g><path d="M393.49 120.14L393.49 97.32"
fill="none" stroke="black" stroke-width="12"/>
</g>
<g><path d="M393.49 97.32L379.8 97.32"
fill="none" stroke="black" stroke-width="12"/>
</g>
<g><path d="M379.8 97.32L379.8 107.36"
fill="none" stroke="black" stroke-width="12"/>
</g>
<g><path d="M379.8 107.36L383.45 107.36"
fill="none" stroke="black" stroke-width="12"/>
</g>
<g><path d="M383.45 107.36L383.45 119.53"
fill="none" stroke="black" stroke-width="12"/>
</g>
<g><path d="M384.06 120.14L393.49 120.14"
fill="none" stroke="black" stroke-width="12"/>
</g>
<g><path d="M200.3 120.14L202.16 146.12M202.16 146.12L207.7 171.57M207.7 171.57L216.8 195.97M216.8 195.97L229.28 218.83M229.28 218.83L244.89 239.68M244.89 239.68L263.3 258.09M263.3 258.09L284.15 273.7M284.15 273.7L307.01 286.18M307.01 286.18L331.41 295.28M331.41 295.28L356.86 300.82M356.86 300.82L382.84 302.68"
fill="none" stroke="black" stroke-width="12"/>
</g>
<g><path d="M6.51 97.32L0.73 97.32"
fill="none" stroke="black" stroke-width="12"/>
</g>
<g><path d="M0.73 97.32L0.73 120.14"
fill="none" stroke="black" stroke-width="12"/>
</g>
<g><path d="M0.73 120.14L6.51 120.14"
fill="none" stroke="black" stroke-width="12"/>
</g>
<g><path d="M6.51 120.14L6.51 97.32"
fill="none" stroke="black" stroke-width="12"/>
</g>
<g><path d="M16.55 302.68L16.55 120.75"
fill="none" stroke="black" stroke-width="12"/>
</g>
<g><path d="M16.55 120.75L28.72 120.75"
fill="none" stroke="black" stroke-width="12"/>
</g>
<g><path d="M28.72 120.75L28.72 302.68"
fill="none" stroke="black" stroke-width="12"/>
</g>
<g><path d="M28.72 302.68L16.55 302.68"
fill="none" stroke="black" stroke-width="12"/>
</g>
<g><path d="M393.49 97.32L399.27 97.32"
fill="none" stroke="black" stroke-width="12"/>
</g>
<g><path d="M399.27 97.32L399.27 120.14"
fill="none" stroke="black" stroke-width="12"/>
</g>
<g><path d="M399.27 120.14L393.49 120.14"
fill="none" stroke="black" stroke-width="12"/>
</g>
<g><path d="M393.49 120.14L393.49 97.32"
fill="none" stroke="black" stroke-width="12"/>
</g>
<g><path d="M383.45 302.68L383.45 120.75"
fill="none" stroke="black" stroke-width="12"/>
</g>
<g><path d="M383.45 120.75L371.28 120.75"
fill="none" stroke="black" stroke-width="12"/>
</g>
<g><path d="M371.28 120.75L371.28 302.68"
fill="none" stroke="black" stroke-width="12"/>
</g>
<g><path d="M371.28 302.68L383.45 302.68"
fill="none" stroke="black" stroke-width="12"/>
</g>
<g><path d="M383.45 269.52L371.28 269.52"
fill="none" stroke="black" stroke-width="12"/>
</g>
<g><path d="M371.28 269.52L371.28 153.91"
fill="none" stroke="black" stroke-width="12"/>
</g>
<g><path d="M371.28 153.91L383.45 153.91"
fill="none" stroke="black" stroke-width="12"/>
</g>
<g><path d="M383.45 153.91L383.45 269.52"
fill="none" stroke="black" stroke-width="12"/>
</g>
<g><path d="M16.55 269.52L28.72 269.52"
fill="none" stroke="black" stroke-width="12"/>
</g>
<g><path d="M28.72 269.52L28.72 153.91"
fill="none" stroke="black" stroke-width="12"/>
</g>
<g><path d="M28.72 153.91L16.55 153.91"
fill="none" stroke="black" stroke-width="12"/>
</g>
<g><path d="M16.55 153.91L16.55 269.52"
fill="none" stroke="black" stroke-width="12"/>
</g>
</g>
</svg>
