<?xml version="1.0" standalone="no"?><svg xmlns="http://www.w3.org/2000/svg" width="400.000" height="400.000" viewBox="0.0 0.0 400.000 400.000" version="1.1">
  <title>Produce by Acme CAD Converter</title>
  <desc>Produce by Acme CAD Converter</desc>
<g id="0" display="visible">
<g><path d="M11.96 52.65L11.96 10.56"
fill="none" stroke="black" stroke-width="12"/>
</g>
<g><path d="M11.96 10.56L37.22 10.56"
fill="none" stroke="black" stroke-width="12"/>
</g>
<g><path d="M37.22 10.56L37.22 29.08"
fill="none" stroke="black" stroke-width="12"/>
</g>
<g><path d="M37.22 29.08L30.48 29.08"
fill="none" stroke="black" stroke-width="12"/>
</g>
<g><path d="M30.48 29.08L30.48 51.53"
fill="none" stroke="black" stroke-width="12"/>
</g>
<g><path d="M29.36 52.65L11.96 52.65"
fill="none" stroke="black" stroke-width="12"/>
</g>
<g><path d="M388.04 52.65L388.04 10.56"
fill="none" stroke="black" stroke-width="12"/>
</g>
<g><path d="M388.04 10.56L362.78 10.56"
fill="none" stroke="black" stroke-width="12"/>
</g>
<g><path d="M362.78 10.56L362.78 29.08"
fill="none" stroke="black" stroke-width="12"/>
</g>
<g><path d="M362.78 29.08L369.52 29.08"
fill="none" stroke="black" stroke-width="12"/>
</g>
<g><path d="M369.52 29.08L369.52 52.65"
fill="none" stroke="black" stroke-width="12"/>
</g>
<g><path d="M369.52 52.65L388.04 52.65"
fill="none" stroke="black" stroke-width="12"/>
</g>
<g><path d="M31.61 389.44L66.81 387.6M66.81 387.6L101.63 382.08M101.63 382.08L135.68 372.96M135.68 372.96L168.59 360.33M168.59 360.33L200 344.32M200 344.32L229.57 325.12M229.57 325.12L256.96 302.94M256.96 302.94L281.89 278.01M281.89 278.01L304.07 250.61M304.07 250.61L323.27 221.05M323.27 221.05L339.28 189.64M339.28 189.64L351.91 156.73M351.91 156.73L361.03 122.68M361.03 122.68L366.55 87.86M366.55 87.86L368.39 52.65"
fill="none" stroke="black" stroke-width="12"/>
</g>
<g><path d="M11.96 10.56L0.73 10.56"
fill="none" stroke="black" stroke-width="12"/>
</g>
<g><path d="M0.73 10.56L0.73 52.65"
fill="none" stroke="black" stroke-width="12"/>
</g>
<g><path d="M0.73 52.65L11.96 52.65"
fill="none" stroke="black" stroke-width="12"/>
</g>
<g><path d="M11.96 52.65L11.96 10.56"
fill="none" stroke="black" stroke-width="12"/>
</g>
<g><path d="M388.04 10.56L399.27 10.56"
fill="none" stroke="black" stroke-width="12"/>
</g>
<g><path d="M399.27 10.56L399.27 52.65"
fill="none" stroke="black" stroke-width="12"/>
</g>
<g><path d="M399.27 52.65L388.04 52.65"
fill="none" stroke="black" stroke-width="12"/>
</g>
<g><path d="M388.04 52.65L388.04 10.56"
fill="none" stroke="black" stroke-width="12"/>
</g>
<g><path d="M30.48 389.44L30.48 53.78"
fill="none" stroke="black" stroke-width="12"/>
</g>
<g><path d="M30.48 53.78L52.94 53.78"
fill="none" stroke="black" stroke-width="12"/>
</g>
<g><path d="M52.94 53.78L52.94 389.44"
fill="none" stroke="black" stroke-width="12"/>
</g>
<g><path d="M52.94 389.44L30.48 389.44"
fill="none" stroke="black" stroke-width="12"/>
</g>
</g>
</svg>
