<?xml version="1.0" standalone="no"?><svg xmlns="http://www.w3.org/2000/svg" width="400.000" height="400.000" viewBox="0.0 0.0 400.000 400.000" version="1.1">
  <title>Produce by Acme CAD Converter</title>
  <desc>Produce by Acme CAD Converter</desc>
<g id="0" display="visible">
<g><path d="M10.57 46.24L10.57 9.34"
fill="none" stroke="black" stroke-width="12"/>
</g>
<g><path d="M10.57 9.34L32.71 9.34"
fill="none" stroke="black" stroke-width="12"/>
</g>
<g><path d="M32.71 9.34L32.71 25.58"
fill="none" stroke="black" stroke-width="12"/>
</g>
<g><path d="M32.71 25.58L26.81 25.58"
fill="none" stroke="black" stroke-width="12"/>
</g>
<g><path d="M26.81 25.58L26.81 45.26"
fill="none" stroke="black" stroke-width="12"/>
</g>
<g><path d="M25.83 46.24L10.57 46.24"
fill="none" stroke="black" stroke-width="12"/>
</g>
<g><path d="M389.43 46.24L389.43 9.34"
fill="none" stroke="black" stroke-width="12"/>
</g>
<g><path d="M389.43 9.34L367.29 9.34"
fill="none" stroke="black" stroke-width="12"/>
</g>
<g><path d="M367.29 9.34L367.29 25.58"
fill="none" stroke="black" stroke-width="12"/>
</g>
<g><path d="M367.29 25.58L373.19 25.58"
fill="none" stroke="black" stroke-width="12"/>
</g>
<g><path d="M373.19 25.58L373.19 46.24"
fill="none" stroke="black" stroke-width="12"/>
</g>
<g><path d="M373.19 46.24L389.43 46.24"
fill="none" stroke="black" stroke-width="12"/>
</g>
<g><path d="M46.49 100.86L26.81 100.86"
fill="none" stroke="black" stroke-width="12"/>
</g>
<g><path d="M46.49 337.03L26.81 337.03"
fill="none" stroke="black" stroke-width="12"/>
</g>
<g><path d="M27.79 390.66L63.8 388.77M63.8 388.77L99.4 383.13M99.4 383.13L134.22 373.8M134.22 373.8L167.88 360.88M167.88 360.88L200 344.51M200 344.51L230.23 324.88M230.23 324.88L258.25 302.19M258.25 302.19L283.74 276.7M283.74 276.7L306.43 248.68M306.43 248.68L326.06 218.45M326.06 218.45L342.43 186.33M342.43 186.33L355.35 152.67M355.35 152.67L364.68 117.85M364.68 117.85L370.32 82.25M370.32 82.25L372.21 46.24"
fill="none" stroke="black" stroke-width="12"/>
</g>
<g><path d="M10.57 9.34L0.73 9.34"
fill="none" stroke="black" stroke-width="12"/>
</g>
<g><path d="M0.73 9.34L0.73 46.24"
fill="none" stroke="black" stroke-width="12"/>
</g>
<g><path d="M0.73 46.24L10.57 46.24"
fill="none" stroke="black" stroke-width="12"/>
</g>
<g><path d="M10.57 46.24L10.57 9.34"
fill="none" stroke="black" stroke-width="12"/>
</g>
<g><path d="M389.43 9.34L399.27 9.34"
fill="none" stroke="black" stroke-width="12"/>
</g>
<g><path d="M399.27 9.34L399.27 46.24"
fill="none" stroke="black" stroke-width="12"/>
</g>
<g><path d="M399.27 46.24L389.43 46.24"
fill="none" stroke="black" stroke-width="12"/>
</g>
<g><path d="M389.43 46.24L389.43 9.34"
fill="none" stroke="black" stroke-width="12"/>
</g>
<g><path d="M26.81 390.66L26.81 47.23"
fill="none" stroke="black" stroke-width="12"/>
</g>
<g><path d="M26.81 47.23L46.49 47.23"
fill="none" stroke="black" stroke-width="12"/>
</g>
<g><path d="M46.49 47.23L46.49 390.66"
fill="none" stroke="black" stroke-width="12"/>
</g>
<g><path d="M46.49 390.66L26.81 390.66"
fill="none" stroke="black" stroke-width="12"/>
</g>
</g>
</svg>
