<?xml version="1.0" standalone="no"?><svg xmlns="http://www.w3.org/2000/svg" width="400.000" height="400.000" viewBox="0.0 0.0 400.000 400.000" version="1.1">
  <title>Produce by Acme CAD Converter</title>
  <desc>Produce by Acme CAD Converter</desc>
<g id="0" display="visible">
<g><path d="M219.93 279.71L207.61 281.66M207.61 281.66L196.5 287.32M196.5 287.32L187.68 296.13M187.68 296.13L182.02 307.24M182.02 307.24L180.07 319.56M180.07 319.56L182.02 331.88M182.02 331.88L187.68 342.99M187.68 342.99L196.5 351.8M196.5 351.8L207.61 357.46M207.61 357.46L219.93 359.41"
fill="none" stroke="black" stroke-width="12"/>
</g>
<g><path d="M219.93 200L207.61 201.95M207.61 201.95L196.5 207.61M196.5 207.61L187.68 216.43M187.68 216.43L182.02 227.54M182.02 227.54L180.07 239.85M180.07 239.85L182.02 252.17M182.02 252.17L187.68 263.28M187.68 263.28L196.5 272.1M196.5 272.1L207.61 277.76M207.61 277.76L219.93 279.71"
fill="none" stroke="black" stroke-width="12"/>
</g>
<g><path d="M219.93 120.29L207.61 122.24M207.61 122.24L196.5 127.9M196.5 127.9L187.68 136.72M187.68 136.72L182.02 147.83M182.02 147.83L180.07 160.15M180.07 160.15L182.02 172.46M182.02 172.46L187.68 183.57M187.68 183.57L196.5 192.39M196.5 192.39L207.61 198.05M207.61 198.05L219.93 200"
fill="none" stroke="black" stroke-width="12"/>
</g>
<g><path d="M219.93 40.59L207.61 42.54M207.61 42.54L196.5 48.2M196.5 48.2L187.68 57.01M187.68 57.01L182.02 68.12M182.02 68.12L180.07 80.44M180.07 80.44L182.02 92.76M182.02 92.76L187.68 103.87M187.68 103.87L196.5 112.68M196.5 112.68L207.61 118.34M207.61 118.34L219.93 120.29"
fill="none" stroke="black" stroke-width="12"/>
</g>
<g><path d="M219.93 40.59L219.93 0.73"
fill="none" stroke="black" stroke-width="12"/>
</g>
<g><path d="M219.93 359.41L219.93 399.27"
fill="none" stroke="black" stroke-width="12"/>
</g>
</g>
</svg>
