<?xml version="1.0" standalone="no"?><svg xmlns="http://www.w3.org/2000/svg" width="400.000" height="400.000" viewBox="0.0 0.0 400.000 400.000" version="1.1">
  <title>Produce by Acme CAD Converter</title>
  <desc>Produce by Acme CAD Converter</desc>
<g id="0" display="visible">
<g><path d="M120.29 219.93L118.34 207.61M118.34 207.61L112.68 196.5M112.68 196.5L103.87 187.68M103.87 187.68L92.76 182.02M92.76 182.02L80.44 180.07M80.44 180.07L68.12 182.02M68.12 182.02L57.01 187.68M57.01 187.68L48.2 196.5M48.2 196.5L42.54 207.61M42.54 207.61L40.59 219.93"
fill="none" stroke="black" stroke-width="12"/>
</g>
<g><path d="M200 219.93L198.05 207.61M198.05 207.61L192.39 196.5M192.39 196.5L183.57 187.68M183.57 187.68L172.46 182.02M172.46 182.02L160.15 180.07M160.15 180.07L147.83 182.02M147.83 182.02L136.72 187.68M136.72 187.68L127.9 196.5M127.9 196.5L122.24 207.61M122.24 207.61L120.29 219.93"
fill="none" stroke="black" stroke-width="12"/>
</g>
<g><path d="M279.71 219.93L277.76 207.61M277.76 207.61L272.1 196.5M272.1 196.5L263.28 187.68M263.28 187.68L252.17 182.02M252.17 182.02L239.85 180.07M239.85 180.07L227.54 182.02M227.54 182.02L216.43 187.68M216.43 187.68L207.61 196.5M207.61 196.5L201.95 207.61M201.95 207.61L200 219.93"
fill="none" stroke="black" stroke-width="12"/>
</g>
<g><path d="M359.41 219.93L357.46 207.61M357.46 207.61L351.8 196.5M351.8 196.5L342.99 187.68M342.99 187.68L331.88 182.02M331.88 182.02L319.56 180.07M319.56 180.07L307.24 182.02M307.24 182.02L296.13 187.68M296.13 187.68L287.32 196.5M287.32 196.5L281.66 207.61M281.66 207.61L279.71 219.93"
fill="none" stroke="black" stroke-width="12"/>
</g>
<g><path d="M359.41 219.93L399.27 219.93"
fill="none" stroke="black" stroke-width="12"/>
</g>
<g><path d="M40.59 219.93L0.73 219.93"
fill="none" stroke="black" stroke-width="12"/>
</g>
<g><path d="M0.73 219.93L0.73 219.93"
fill="none" stroke="black" stroke-width=".5"/>
</g>
<g><path d="M399.27 219.93L399.27 219.93"
fill="none" stroke="black" stroke-width=".5"/>
</g>
</g>
</svg>
