<?xml version="1.0" standalone="no"?><svg xmlns="http://www.w3.org/2000/svg" width="400.000" height="400.000" viewBox="0.0 0.0 400.000 400.000" version="1.1">
  <title>Produce by Acme CAD Converter</title>
  <desc>Produce by Acme CAD Converter</desc>
<g id="0" display="visible">
<g><path d="M165.13 40.59L165.13 105.35"
fill="none" stroke="black" stroke-width="12"/>
</g>
<g><path d="M165.13 135.24L165.13 185.05"
fill="none" stroke="black" stroke-width="12"/>
</g>
<g><path d="M165.13 214.95L165.13 264.76"
fill="none" stroke="black" stroke-width="12"/>
</g>
<g><path d="M165.13 294.65L165.13 359.41"
fill="none" stroke="black" stroke-width="12"/>
</g>
<g><path d="M234.87 279.71L222.56 281.66M222.56 281.66L211.45 287.32M211.45 287.32L202.63 296.13M202.63 296.13L196.97 307.24M196.97 307.24L195.02 319.56M195.02 319.56L196.97 331.88M196.97 331.88L202.63 342.99M202.63 342.99L211.45 351.8M211.45 351.8L222.56 357.46M222.56 357.46L234.87 359.41"
fill="none" stroke="black" stroke-width="12"/>
</g>
<g><path d="M234.87 200L222.56 201.95M222.56 201.95L211.45 207.61M211.45 207.61L202.63 216.43M202.63 216.43L196.97 227.54M196.97 227.54L195.02 239.85M195.02 239.85L196.97 252.17M196.97 252.17L202.63 263.28M202.63 263.28L211.45 272.1M211.45 272.1L222.56 277.76M222.56 277.76L234.87 279.71"
fill="none" stroke="black" stroke-width="12"/>
</g>
<g><path d="M234.87 120.29L222.56 122.24M222.56 122.24L211.45 127.9M211.45 127.9L202.63 136.72M202.63 136.72L196.97 147.83M196.97 147.83L195.02 160.15M195.02 160.15L196.97 172.46M196.97 172.46L202.63 183.57M202.63 183.57L211.45 192.39M211.45 192.39L222.56 198.05M222.56 198.05L234.87 200"
fill="none" stroke="black" stroke-width="12"/>
</g>
<g><path d="M234.87 40.59L222.56 42.54M222.56 42.54L211.45 48.2M211.45 48.2L202.63 57.01M202.63 57.01L196.97 68.12M196.97 68.12L195.02 80.44M195.02 80.44L196.97 92.76M196.97 92.76L202.63 103.87M202.63 103.87L211.45 112.68M211.45 112.68L222.56 118.34M222.56 118.34L234.87 120.29"
fill="none" stroke="black" stroke-width="12"/>
</g>
<g><path d="M234.87 40.59L234.87 0.73"
fill="none" stroke="black" stroke-width="12"/>
</g>
<g><path d="M234.87 359.41L234.87 399.27"
fill="none" stroke="black" stroke-width="12"/>
</g>
</g>
</svg>
