<?xml version="1.0" standalone="no"?><svg xmlns="http://www.w3.org/2000/svg" width="400.000" height="400.000" viewBox="0.0 0.0 400.000 400.000" version="1.1">
  <title>Produce by Acme CAD Converter</title>
  <desc>Produce by Acme CAD Converter</desc>
<g id="0" display="visible">
<g><path d="M359.41 165.13L40.59 165.13"
fill="none" stroke="black" stroke-width="12"/>
</g>
<g><path d="M120.29 234.87L118.34 222.56M118.34 222.56L112.68 211.45M112.68 211.45L103.87 202.63M103.87 202.63L92.76 196.97M92.76 196.97L80.44 195.02M80.44 195.02L68.12 196.97M68.12 196.97L57.01 202.63M57.01 202.63L48.2 211.45M48.2 211.45L42.54 222.56M42.54 222.56L40.59 234.87"
fill="none" stroke="black" stroke-width="12"/>
</g>
<g><path d="M200 234.87L198.05 222.56M198.05 222.56L192.39 211.45M192.39 211.45L183.57 202.63M183.57 202.63L172.46 196.97M172.46 196.97L160.15 195.02M160.15 195.02L147.83 196.97M147.83 196.97L136.72 202.63M136.72 202.63L127.9 211.45M127.9 211.45L122.24 222.56M122.24 222.56L120.29 234.87"
fill="none" stroke="black" stroke-width="12"/>
</g>
<g><path d="M279.71 234.87L277.76 222.56M277.76 222.56L272.1 211.45M272.1 211.45L263.28 202.63M263.28 202.63L252.17 196.97M252.17 196.97L239.85 195.02M239.85 195.02L227.54 196.97M227.54 196.97L216.43 202.63M216.43 202.63L207.61 211.45M207.61 211.45L201.95 222.56M201.95 222.56L200 234.87"
fill="none" stroke="black" stroke-width="12"/>
</g>
<g><path d="M359.41 234.87L357.46 222.56M357.46 222.56L351.8 211.45M351.8 211.45L342.99 202.63M342.99 202.63L331.88 196.97M331.88 196.97L319.56 195.02M319.56 195.02L307.24 196.97M307.24 196.97L296.13 202.63M296.13 202.63L287.32 211.45M287.32 211.45L281.66 222.56M281.66 222.56L279.71 234.87"
fill="none" stroke="black" stroke-width="12"/>
</g>
<g><path d="M359.41 234.87L399.27 234.87"
fill="none" stroke="black" stroke-width="12"/>
</g>
<g><path d="M40.59 234.87L0.73 234.87"
fill="none" stroke="black" stroke-width="12"/>
</g>
</g>
</svg>
