<?xml version="1.0" standalone="no"?><svg xmlns="http://www.w3.org/2000/svg" width="400.000" height="400.000" viewBox="0.0 0.0 400.000 400.000" version="1.1">
  <title>Produce by Acme CAD Converter</title>
  <desc>Produce by Acme CAD Converter</desc>
<g id="0" display="visible">
<g><path d="M224.91 249.82L212.01 251.51M212.01 251.51L200 256.49M200 256.49L189.68 264.41M189.68 264.41L181.77 274.73M181.77 274.73L176.79 286.74M176.79 286.74L175.09 299.63M175.09 299.63L176.79 312.53M176.79 312.53L181.77 324.54M181.77 324.54L189.68 334.86M189.68 334.86L200 342.78M200 342.78L212.01 347.75M212.01 347.75L224.91 349.45"
fill="none" stroke="black" stroke-width="12"/>
</g>
<g><path d="M224.91 150.18L212.01 151.88M212.01 151.88L200 156.86M200 156.86L189.68 164.77M189.68 164.77L181.77 175.09M181.77 175.09L176.79 187.11M176.79 187.11L175.09 200M175.09 200L176.79 212.89M176.79 212.89L181.77 224.91M181.77 224.91L189.68 235.23M189.68 235.23L200 243.14M200 243.14L212.01 248.12M212.01 248.12L224.91 249.82"
fill="none" stroke="black" stroke-width="12"/>
</g>
<g><path d="M224.91 50.55L212.01 52.25M212.01 52.25L200 57.22M200 57.22L189.68 65.14M189.68 65.14L181.77 75.46M181.77 75.46L176.79 87.47M176.79 87.47L175.09 100.37M175.09 100.37L176.79 113.26M176.79 113.26L181.77 125.27M181.77 125.27L189.68 135.59M189.68 135.59L200 143.51M200 143.51L212.01 148.49M212.01 148.49L224.91 150.18"
fill="none" stroke="black" stroke-width="12"/>
</g>
<g><path d="M224.91 349.45L224.91 399.27"
fill="none" stroke="black" stroke-width="12"/>
</g>
<g><path d="M224.91 50.55L224.91 0.73"
fill="none" stroke="black" stroke-width="12"/>
</g>
</g>
</svg>
