<?xml version="1.0" standalone="no"?><svg xmlns="http://www.w3.org/2000/svg" width="400.000" height="400.000" viewBox="0.0 0.0 400.000 400.000" version="1.1">
  <title>Produce by Acme CAD Converter</title>
  <desc>Produce by Acme CAD Converter</desc>
<g id="0" display="visible">
<g><path d="M150.18 224.91L148.49 212.01M148.49 212.01L143.51 200M143.51 200L135.59 189.68M135.59 189.68L125.27 181.77M125.27 181.77L113.26 176.79M113.26 176.79L100.37 175.09M100.37 175.09L87.47 176.79M87.47 176.79L75.46 181.77M75.46 181.77L65.14 189.68M65.14 189.68L57.22 200M57.22 200L52.25 212.01M52.25 212.01L50.55 224.91"
fill="none" stroke="black" stroke-width="12"/>
</g>
<g><path d="M249.82 224.91L248.12 212.01M248.12 212.01L243.14 200M243.14 200L235.23 189.68M235.23 189.68L224.91 181.77M224.91 181.77L212.89 176.79M212.89 176.79L200 175.09M200 175.09L187.11 176.79M187.11 176.79L175.09 181.77M175.09 181.77L164.77 189.68M164.77 189.68L156.86 200M156.86 200L151.88 212.01M151.88 212.01L150.18 224.91"
fill="none" stroke="black" stroke-width="12"/>
</g>
<g><path d="M349.45 224.91L347.75 212.01M347.75 212.01L342.78 200M342.78 200L334.86 189.68M334.86 189.68L324.54 181.77M324.54 181.77L312.53 176.79M312.53 176.79L299.63 175.09M299.63 175.09L286.74 176.79M286.74 176.79L274.73 181.77M274.73 181.77L264.41 189.68M264.41 189.68L256.49 200M256.49 200L251.51 212.01M251.51 212.01L249.82 224.91"
fill="none" stroke="black" stroke-width="12"/>
</g>
<g><path d="M50.55 224.91L0.73 224.91"
fill="none" stroke="black" stroke-width="12"/>
</g>
<g><path d="M349.45 224.91L399.27 224.91"
fill="none" stroke="black" stroke-width="12"/>
</g>
</g>
</svg>
