<?xml version="1.0" standalone="no"?><svg xmlns="http://www.w3.org/2000/svg" width="400.000" height="400.000" viewBox="0.0 0.0 400.000 400.000" version="1.1">
  <title>Produce by Acme CAD Converter</title>
  <desc>Produce by Acme CAD Converter</desc>
<g id="0" display="visible">
<g><path d="M120.29 140.22L118.34 127.9M118.34 127.9L112.68 116.79M112.68 116.79L103.87 107.98M103.87 107.98L92.76 102.32M92.76 102.32L80.44 100.37M80.44 100.37L68.12 102.32M68.12 102.32L57.01 107.98M57.01 107.98L48.2 116.79M48.2 116.79L42.54 127.9M42.54 127.9L40.59 140.22"
fill="none" stroke="black" stroke-width="12"/>
</g>
<g><path d="M200 140.22L198.05 127.9M198.05 127.9L192.39 116.79M192.39 116.79L183.57 107.98M183.57 107.98L172.46 102.32M172.46 102.32L160.15 100.37M160.15 100.37L147.83 102.32M147.83 102.32L136.72 107.98M136.72 107.98L127.9 116.79M127.9 116.79L122.24 127.9M122.24 127.9L120.29 140.22"
fill="none" stroke="black" stroke-width="12"/>
</g>
<g><path d="M279.71 140.22L277.76 127.9M277.76 127.9L272.1 116.79M272.1 116.79L263.28 107.98M263.28 107.98L252.17 102.32M252.17 102.32L239.85 100.37M239.85 100.37L227.54 102.32M227.54 102.32L216.43 107.98M216.43 107.98L207.61 116.79M207.61 116.79L201.95 127.9M201.95 127.9L200 140.22"
fill="none" stroke="black" stroke-width="12"/>
</g>
<g><path d="M359.41 140.22L357.46 127.9M357.46 127.9L351.8 116.79M351.8 116.79L342.99 107.98M342.99 107.98L331.88 102.32M331.88 102.32L319.56 100.37M319.56 100.37L307.24 102.32M307.24 102.32L296.13 107.98M296.13 107.98L287.32 116.79M287.32 116.79L281.66 127.9M281.66 127.9L279.71 140.22"
fill="none" stroke="black" stroke-width="12"/>
</g>
<g><path d="M359.41 140.22L399.27 140.22"
fill="none" stroke="black" stroke-width="12"/>
</g>
<g><path d="M40.59 140.22L0.73 140.22"
fill="none" stroke="black" stroke-width="12"/>
</g>
<g><path d="M0.73 140.22L0.73 140.22"
fill="none" stroke="black" stroke-width=".5"/>
</g>
<g><path d="M399.27 140.22L399.27 140.22"
fill="none" stroke="black" stroke-width=".5"/>
</g>
<g><path d="M200 140.22L200 299.63"
fill="none" stroke="black" stroke-width="12"/>
</g>
<g><path d="M200 140.22L184.06 200"
fill="none" stroke="black" stroke-width="12"/>
</g>
<g><path d="M200 140.22L215.94 200"
fill="none" stroke="black" stroke-width="12"/>
</g>
</g>
</svg>
