<?xml version="1.0" standalone="no"?><svg xmlns="http://www.w3.org/2000/svg" width="400.000" height="400.000" viewBox="0.0 0.0 400.000 400.000" version="1.1">
  <title>Produce by Acme CAD Converter</title>
  <desc>Produce by Acme CAD Converter</desc>
<g id="0" display="visible">
<g><path d="M200 233.21L198.07 217.32M198.07 217.32L192.39 202.34M192.39 202.34L183.3 189.17M183.3 189.17L171.31 178.55M171.31 178.55L157.13 171.11M157.13 171.11L141.58 167.27M141.58 167.27L125.57 167.27M125.57 167.27L110.02 171.11M110.02 171.11L95.85 178.55M95.85 178.55L83.86 189.17M83.86 189.17L74.76 202.34M74.76 202.34L69.09 217.32M69.09 217.32L67.16 233.21"
fill="none" stroke="black" stroke-width="12"/>
</g>
<g><path d="M332.84 233.21L330.91 217.32M330.91 217.32L325.24 202.34M325.24 202.34L316.14 189.17M316.14 189.17L304.15 178.55M304.15 178.55L289.98 171.11M289.98 171.11L274.43 167.27M274.43 167.27L258.42 167.27M258.42 167.27L242.87 171.11M242.87 171.11L228.69 178.55M228.69 178.55L216.7 189.17M216.7 189.17L207.61 202.34M207.61 202.34L201.93 217.32M201.93 217.32L200 233.21"
fill="none" stroke="black" stroke-width="12"/>
</g>
<g><path d="M67.16 233.21L0.73 233.21"
fill="none" stroke="black" stroke-width="12"/>
</g>
<g><path d="M332.84 233.21L399.27 233.21"
fill="none" stroke="black" stroke-width="12"/>
</g>
</g>
</svg>
