<?xml version="1.0" standalone="no"?><svg xmlns="http://www.w3.org/2000/svg" width="400.000" height="400.000" viewBox="0.0 0.0 400.000 400.000" version="1.1">
  <title>Produce by Acme CAD Converter</title>
  <desc>Produce by Acme CAD Converter</desc>
<g id="0" display="visible">
<g><path d="M233.21 200L217.32 201.93M217.32 201.93L202.34 207.61M202.34 207.61L189.17 216.7M189.17 216.7L178.55 228.69M178.55 228.69L171.11 242.87M171.11 242.87L167.27 258.42M167.27 258.42L167.27 274.43M167.27 274.43L171.11 289.98M171.11 289.98L178.55 304.15M178.55 304.15L189.17 316.14M189.17 316.14L202.34 325.24M202.34 325.24L217.32 330.91M217.32 330.91L233.21 332.84"
fill="none" stroke="black" stroke-width="12"/>
</g>
<g><path d="M233.21 67.16L217.32 69.09M217.32 69.09L202.34 74.76M202.34 74.76L189.17 83.86M189.17 83.86L178.55 95.85M178.55 95.85L171.11 110.02M171.11 110.02L167.27 125.57M167.27 125.57L167.27 141.58M167.27 141.58L171.11 157.13M171.11 157.13L178.55 171.31M178.55 171.31L189.17 183.3M189.17 183.3L202.34 192.39M202.34 192.39L217.32 198.07M217.32 198.07L233.21 200"
fill="none" stroke="black" stroke-width="12"/>
</g>
<g><path d="M233.21 332.84L233.21 399.27"
fill="none" stroke="black" stroke-width="12"/>
</g>
<g><path d="M233.21 67.16L233.21 0.73"
fill="none" stroke="black" stroke-width="12"/>
</g>
</g>
</svg>
