<?xml version="1.0" standalone="no"?><svg xmlns="http://www.w3.org/2000/svg" width="400.000" height="400.000" viewBox="0.0 0.0 400.000 400.000" version="1.1">
  <title>Produce by Acme CAD Converter</title>
  <desc>Produce by Acme CAD Converter</desc>
<g id="0" display="visible">
<g><path d="M249.82 249.82L236.92 251.51M236.92 251.51L224.91 256.49M224.91 256.49L214.59 264.41M214.59 264.41L206.67 274.73M206.67 274.73L201.7 286.74M201.7 286.74L200 299.63M200 299.63L201.7 312.53M201.7 312.53L206.67 324.54M206.67 324.54L214.59 334.86M214.59 334.86L224.91 342.78M224.91 342.78L236.92 347.75M236.92 347.75L249.82 349.45"
fill="none" stroke="black" stroke-width="12"/>
</g>
<g><path d="M249.82 150.18L236.92 151.88M236.92 151.88L224.91 156.86M224.91 156.86L214.59 164.77M214.59 164.77L206.67 175.09M206.67 175.09L201.7 187.11M201.7 187.11L200 200M200 200L201.7 212.89M201.7 212.89L206.67 224.91M206.67 224.91L214.59 235.23M214.59 235.23L224.91 243.14M224.91 243.14L236.92 248.12M236.92 248.12L249.82 249.82"
fill="none" stroke="black" stroke-width="12"/>
</g>
<g><path d="M249.82 50.55L236.92 52.25M236.92 52.25L224.91 57.22M224.91 57.22L214.59 65.14M214.59 65.14L206.67 75.46M206.67 75.46L201.7 87.47M201.7 87.47L200 100.37M200 100.37L201.7 113.26M201.7 113.26L206.67 125.27M206.67 125.27L214.59 135.59M214.59 135.59L224.91 143.51M224.91 143.51L236.92 148.49M236.92 148.49L249.82 150.18"
fill="none" stroke="black" stroke-width="12"/>
</g>
<g><path d="M249.82 349.45L249.82 399.27"
fill="none" stroke="black" stroke-width="12"/>
</g>
<g><path d="M249.82 50.55L249.82 0.73"
fill="none" stroke="black" stroke-width="12"/>
</g>
<g><path d="M150.18 374.36L150.18 25.64"
fill="none" stroke="black" stroke-width="12"/>
</g>
</g>
</svg>
