<?xml version="1.0" standalone="no"?><svg xmlns="http://www.w3.org/2000/svg" width="400.000" height="400.000" viewBox="0.0 0.0 400.000 400.000" version="1.1">
  <title>Produce by Acme CAD Converter</title>
  <desc>Produce by Acme CAD Converter</desc>
<g id="0" display="visible">
<g><path d="M150.18 249.82L148.49 236.92M148.49 236.92L143.51 224.91M143.51 224.91L135.59 214.59M135.59 214.59L125.27 206.67M125.27 206.67L113.26 201.7M113.26 201.7L100.37 200M100.37 200L87.47 201.7M87.47 201.7L75.46 206.67M75.46 206.67L65.14 214.59M65.14 214.59L57.22 224.91M57.22 224.91L52.25 236.92M52.25 236.92L50.55 249.82"
fill="none" stroke="black" stroke-width="12"/>
</g>
<g><path d="M249.82 249.82L248.12 236.92M248.12 236.92L243.14 224.91M243.14 224.91L235.23 214.59M235.23 214.59L224.91 206.67M224.91 206.67L212.89 201.7M212.89 201.7L200 200M200 200L187.11 201.7M187.11 201.7L175.09 206.67M175.09 206.67L164.77 214.59M164.77 214.59L156.86 224.91M156.86 224.91L151.88 236.92M151.88 236.92L150.18 249.82"
fill="none" stroke="black" stroke-width="12"/>
</g>
<g><path d="M349.45 249.82L347.75 236.92M347.75 236.92L342.78 224.91M342.78 224.91L334.86 214.59M334.86 214.59L324.54 206.67M324.54 206.67L312.53 201.7M312.53 201.7L299.63 200M299.63 200L286.74 201.7M286.74 201.7L274.73 206.67M274.73 206.67L264.41 214.59M264.41 214.59L256.49 224.91M256.49 224.91L251.51 236.92M251.51 236.92L249.82 249.82"
fill="none" stroke="black" stroke-width="12"/>
</g>
<g><path d="M50.55 249.82L0.73 249.82"
fill="none" stroke="black" stroke-width="12"/>
</g>
<g><path d="M349.45 249.82L399.27 249.82"
fill="none" stroke="black" stroke-width="12"/>
</g>
<g><path d="M25.64 150.18L374.36 150.18"
fill="none" stroke="black" stroke-width="12"/>
</g>
</g>
</svg>
