<?xml version="1.0" standalone="no"?><svg xmlns="http://www.w3.org/2000/svg" width="400.000" height="400.000" viewBox="0.0 0.0 400.000 400.000" version="1.1">
  <title>Produce by Acme CAD Converter</title>
  <desc>Produce by Acme CAD Converter</desc>
<g id="0" display="visible">
<g><path d="M200 75.46L200 0.73"
fill="none" stroke="black" stroke-width="9"/>
</g>
<g><path d="M75.46 200L77.35 221.63M77.35 221.63L82.97 242.6M82.97 242.6L92.14 262.27M92.14 262.27L104.6 280.05M104.6 280.05L119.95 295.4M119.95 295.4L137.73 307.86M137.73 307.86L157.4 317.03M157.4 317.03L178.37 322.65M178.37 322.65L200 324.54M200 324.54L221.63 322.65M221.63 322.65L242.6 317.03M242.6 317.03L262.27 307.86M262.27 307.86L280.05 295.4M280.05 295.4L295.4 280.05M295.4 280.05L307.86 262.27M307.86 262.27L317.03 242.6M317.03 242.6L322.65 221.63M322.65 221.63L324.54 200M324.54 200L322.65 178.37M322.65 178.37L317.03 157.4M317.03 157.4L307.86 137.73M307.86 137.73L295.4 119.95M295.4 119.95L280.05 104.6M280.05 104.6L262.27 92.14M262.27 92.14L242.6 82.97M242.6 82.97L221.63 77.35M221.63 77.35L200 75.46"
fill="none" stroke="black" stroke-width="9"/>
</g>
<g><path d="M75.46 200L200 200"
fill="none" stroke="black" stroke-width="9"/>
</g>
<g><path d="M200 200L200 399.27"
fill="none" stroke="black" stroke-width="9"/>
</g>
</g>
</svg>
