<?xml version="1.0" standalone="no"?><svg xmlns="http://www.w3.org/2000/svg" width="400.000" height="400.000" viewBox="0.0 0.0 400.000 400.000" version="1.1">
  <title>Produce by Acme CAD Converter</title>
  <desc>Produce by Acme CAD Converter</desc>
<g id="0" display="visible">
<g><path d="M200 114.08L200 39.35"
fill="none" stroke="black" stroke-width="9"/>
</g>
<g><path d="M224.91 360.65L246.14 354.3M246.14 354.3L265.92 344.29M265.92 344.29L283.6 330.93M283.6 330.93L298.64 314.65M298.64 314.65L310.56 295.96M310.56 295.96L318.97 275.46M318.97 275.46L323.61 253.79M323.61 253.79L324.35 231.63M324.35 231.63L321.14 209.7M321.14 209.7L314.09 188.69M314.09 188.69L303.44 169.26M303.44 169.26L289.5 152.02M289.5 152.02L272.74 137.53M272.74 137.53L253.67 126.23M253.67 126.23L232.89 118.5M232.89 118.5L211.08 114.57M211.08 114.57L188.92 114.57M188.92 114.57L167.11 118.5M167.11 118.5L146.33 126.23M146.33 126.23L127.26 137.53M127.26 137.53L110.5 152.02M110.5 152.02L96.56 169.26M96.56 169.26L85.91 188.69M85.91 188.69L78.86 209.7M78.86 209.7L75.65 231.63M75.65 231.63L76.39 253.79M76.39 253.79L81.03 275.46M81.03 275.46L89.44 295.96M89.44 295.96L101.36 314.65M101.36 314.65L116.4 330.93M116.4 330.93L134.08 344.29M134.08 344.29L153.86 354.3M153.86 354.3L175.09 360.65"
fill="none" stroke="black" stroke-width="9"/>
</g>
<g><path d="M175.09 360.65L175.09 238.62"
fill="none" stroke="black" stroke-width="9"/>
</g>
<g><path d="M175.09 238.62L0.73 238.62"
fill="none" stroke="black" stroke-width="9"/>
</g>
<g><path d="M224.91 360.65L224.91 238.62"
fill="none" stroke="black" stroke-width="9"/>
</g>
<g><path d="M224.91 238.62L399.27 238.62"
fill="none" stroke="black" stroke-width="9"/>
</g>
</g>
</svg>
