<?xml version="1.0" standalone="no"?><svg xmlns="http://www.w3.org/2000/svg" width="400.000" height="400.000" viewBox="0.0 0.0 400.000 400.000" version="1.1">
  <title>Produce by Acme CAD Converter</title>
  <desc>Produce by Acme CAD Converter</desc>
<g id="0" display="visible">
<g><path d="M215.39 121.18L201.74 129.34"
fill="none" stroke="black" stroke-width="12"/>
</g>
<g><path d="M229.03 129.34L215.39 121.18"
fill="none" stroke="black" stroke-width="12"/>
</g>
<g><path d="M215.39 121.18L215.39 107.58"
fill="none" stroke="black" stroke-width="12"/>
</g>
<g><path d="M215.39 120.4L223.57 120.4"
fill="none" stroke="black" stroke-width="12"/>
</g>
<g><path d="M62.36 131.28L62.36 120.41"
fill="none" stroke="black" stroke-width="12"/>
</g>
<g><path d="M68.08 136.71L68.08 116.79"
fill="none" stroke="black" stroke-width="12"/>
</g>
<g><path d="M73.81 113.17L73.81 138.57"
fill="none" stroke="black" stroke-width="12"/>
</g>
<g><path d="M73.81 125.85L89.08 125.85"
fill="none" stroke="black" stroke-width="12"/>
</g>
<g><path d="M252.95 168.77L266.59 190.53"
fill="none" stroke="black" stroke-width="12"/>
</g>
<g><path d="M239.3 190.53L266.59 190.53"
fill="none" stroke="black" stroke-width="12"/>
</g>
<g><path d="M252.95 168.77L239.3 190.53"
fill="none" stroke="black" stroke-width="12"/>
</g>
<g><path d="M256.32 123.74L254.38 110.91M254.38 110.91L248.74 99.22M248.74 99.22L239.88 89.71M239.88 89.71L228.61 83.23M228.61 83.23L215.92 80.34M215.92 80.34L202.94 81.31M202.94 81.31L190.82 86.05M190.82 86.05L180.65 94.14M180.65 94.14L173.31 104.86M173.31 104.86L169.48 117.25M169.48 117.25L169.48 130.23M169.48 130.23L173.31 142.62M173.31 142.62L180.65 153.34M180.65 153.34L190.82 161.43M190.82 161.43L202.94 166.17M202.94 166.17L215.92 167.14M215.92 167.14L228.61 164.25M228.61 164.25L239.88 157.76M239.88 157.76L248.74 148.26M248.74 148.26L254.38 136.57M254.38 136.57L256.32 123.74"
fill="none" stroke="black" stroke-width="12"/>
</g>
<g><path d="M291.8 180.95L289.86 168.13M289.86 168.13L284.21 156.44M284.21 156.44L275.36 146.93M275.36 146.93L264.09 140.44M264.09 140.44L251.4 137.56M251.4 137.56L238.42 138.53M238.42 138.53L226.3 143.27M226.3 143.27L216.12 151.35M216.12 151.35L208.79 162.07M208.79 162.07L204.95 174.47M204.95 174.47L204.95 187.44M204.95 187.44L208.79 199.84M208.79 199.84L216.12 210.56M216.12 210.56L226.3 218.64M226.3 218.64L238.42 223.38M238.42 223.38L251.4 224.35M251.4 224.35L264.09 221.47M264.09 221.47L275.36 214.98M275.36 214.98L284.21 205.47M284.21 205.47L289.86 193.78M289.86 193.78L291.8 180.95"
fill="none" stroke="black" stroke-width="12"/>
</g>
<g><path d="M178.7 168.77L192.35 190.53"
fill="none" stroke="black" stroke-width="12"/>
</g>
<g><path d="M165.06 190.53L192.35 190.53"
fill="none" stroke="black" stroke-width="12"/>
</g>
<g><path d="M178.7 168.77L165.06 190.53"
fill="none" stroke="black" stroke-width="12"/>
</g>
<g><path d="M224.7 180.72L222.76 167.89M222.76 167.89L217.11 156.2M217.11 156.2L208.26 146.69M208.26 146.69L196.99 140.21M196.99 140.21L184.3 137.32M184.3 137.32L171.32 138.29M171.32 138.29L159.2 143.03M159.2 143.03L149.02 151.12M149.02 151.12L141.69 161.84M141.69 161.84L137.85 174.23M137.85 174.23L137.85 187.2M137.85 187.2L141.69 199.6M141.69 199.6L149.02 210.32M149.02 210.32L159.2 218.41M159.2 218.41L171.32 223.15M171.32 223.15L184.3 224.12M184.3 224.12L196.99 221.23M196.99 221.23L208.26 214.74M208.26 214.74L217.11 205.23M217.11 205.23L222.76 193.55M222.76 193.55L224.7 180.72"
fill="none" stroke="black" stroke-width="12"/>
</g>
<g><path d="M316.83 236.64L286.04 202.56"
fill="none" stroke="black" stroke-width="12"/>
</g>
<g><path d="M126.7 236.64L148.33 209.56"
fill="none" stroke="black" stroke-width="12"/>
</g>
<g><path d="M89.3 125.87L166.71 125.87"
fill="none" stroke="black" stroke-width="12"/>
</g>
<g><path d="M137.57 154.31L289.48 80.98"
fill="none" stroke="black" stroke-width="12"/>
</g>
<g><path d="M214.91 80.41L215.17 0.73"
fill="none" stroke="black" stroke-width="12"/>
</g>
<g><path d="M127.28 290.42L119.05 292.3M119.05 292.3L112.24 297.6M112.24 297.6L108.04 305.41M108.04 305.41L107.16 314.38M107.16 314.38L109.76 322.95M109.76 322.95L115.39 329.66M115.39 329.66L123.07 333.33M123.07 333.33L131.49 333.33M131.49 333.33L139.17 329.66M139.17 329.66L144.8 322.95M144.8 322.95L147.4 314.38M147.4 314.38L146.52 305.41M146.52 305.41L142.31 297.6M142.31 297.6L135.51 292.3M135.51 292.3L127.28 290.42"
fill="none" stroke="black" stroke-width="12"/>
</g>
<g><path d="M126.62 399.27L126.7 235.64"
fill="none" stroke="black" stroke-width="12"/>
</g>
<g><path d="M317.41 290.42L309.18 292.3M309.18 292.3L302.38 297.6M302.38 297.6L298.17 305.41M298.17 305.41L297.29 314.38M297.29 314.38L299.89 322.95M299.89 322.95L305.52 329.66M305.52 329.66L313.21 333.33M313.21 333.33L321.62 333.33M321.62 333.33L329.3 329.66M329.3 329.66L334.93 322.95M334.93 322.95L337.53 314.38M337.53 314.38L336.65 305.41M336.65 305.41L332.45 297.6M332.45 297.6L325.64 292.3M325.64 292.3L317.41 290.42"
fill="none" stroke="black" stroke-width="12"/>
</g>
<g><path d="M316.75 399.27L316.83 235.64"
fill="none" stroke="black" stroke-width="12"/>
</g>
<g><path d="M262.81 85.11L289.48 80.98"
fill="none" stroke="black" stroke-width="12"/>
</g>
<g><path d="M273.24 98.2L289.48 80.98"
fill="none" stroke="black" stroke-width="12"/>
</g>
</g>
</svg>
