<?xml version="1.0" standalone="no"?><svg xmlns="http://www.w3.org/2000/svg" width="400.000" height="400.000" viewBox="0.0 0.0 400.000 400.000" version="1.1">
  <title>Produce by Acme CAD Converter</title>
  <desc>Produce by Acme CAD Converter</desc>
<g id="0" display="visible">
<g><path d="M150.06 63L200 112.82M200 112.82L249.94 63"
fill="none" stroke="black" stroke-width="12"/>
</g>
<g><path d="M200 112.82L200 167.62"
fill="none" stroke="black" stroke-width="12"/>
</g>
<g><path d="M324.84 125.27L322.95 103.65M322.95 103.65L317.31 82.68M317.31 82.68L308.12 63M308.12 63L295.63 45.22M295.63 45.22L280.25 29.87M280.25 29.87L262.42 17.42M262.42 17.42L242.7 8.24M242.7 8.24L221.68 2.63M221.68 2.63L200 0.73M200 0.73L178.32 2.63M178.32 2.63L157.3 8.24M157.3 8.24L137.58 17.42M137.58 17.42L119.75 29.87M119.75 29.87L104.37 45.22M104.37 45.22L91.88 63M91.88 63L82.69 82.68M82.69 82.68L77.05 103.65M77.05 103.65L75.16 125.27M75.16 125.27L77.05 146.9M77.05 146.9L82.69 167.87M82.69 167.87L91.88 187.55M91.88 187.55L104.37 205.33M104.37 205.33L119.75 220.68M119.75 220.68L137.58 233.13M137.58 233.13L157.3 242.31M157.3 242.31L178.32 247.92M178.32 247.92L200 249.82M200 249.82L221.68 247.92M221.68 247.92L242.7 242.31M242.7 242.31L262.42 233.13M262.42 233.13L280.25 220.68M280.25 220.68L295.63 205.33M295.63 205.33L308.12 187.55M308.12 187.55L317.31 167.87M317.31 167.87L322.95 146.9M322.95 146.9L324.84 125.27"
fill="none" stroke="black" stroke-width="12"/>
</g>
<g><path d="M324.84 274.73L322.95 253.1M322.95 253.1L317.31 232.13M317.31 232.13L308.12 212.45M308.12 212.45L295.63 194.67M295.63 194.67L280.25 179.32M280.25 179.32L262.42 166.87M262.42 166.87L242.7 157.69M242.7 157.69L221.68 152.08M221.68 152.08L200 150.18M200 150.18L178.32 152.08M178.32 152.08L157.3 157.69M157.3 157.69L137.58 166.87M137.58 166.87L119.75 179.32M119.75 179.32L104.37 194.67M104.37 194.67L91.88 212.45M91.88 212.45L82.69 232.13M82.69 232.13L77.05 253.1M77.05 253.1L75.16 274.73M75.16 274.73L77.05 296.35M77.05 296.35L82.69 317.32M82.69 317.32L91.88 337M91.88 337L104.37 354.78M104.37 354.78L119.75 370.13M119.75 370.13L137.58 382.58M137.58 382.58L157.3 391.76M157.3 391.76L178.32 397.37M178.32 397.37L200 399.27M200 399.27L221.68 397.37M221.68 397.37L242.7 391.76M242.7 391.76L262.42 382.58M262.42 382.58L280.25 370.13M280.25 370.13L295.63 354.78M295.63 354.78L308.12 337M308.12 337L317.31 317.32M317.31 317.32L322.95 296.35M322.95 296.35L324.84 274.73"
fill="none" stroke="black" stroke-width="12"/>
</g>
<g><path d="M200 262.27L150.06 337M150.06 337L249.94 337M249.94 337L200 262.27"
fill="none" stroke="black" stroke-width="12"/>
</g>
</g>
</svg>
