<?xml version="1.0" standalone="no"?><svg xmlns="http://www.w3.org/2000/svg" width="400.000" height="400.000" viewBox="0.0 0.0 400.000 400.000" version="1.1">
  <title>Produce by Acme CAD Converter</title>
  <desc>Produce by Acme CAD Converter</desc>
<g id="0" display="visible">
<g><path d="M185.56 88.58L185.56 87.52 185.52 88.05 185.56 88.58Z"
fill-rule="evenodd" fill="black"/>
<path d="M185.56 88.58L185.67 89.09 185.56 87.52 185.56 88.58Z"
fill-rule="evenodd" fill="black"/>
<path d="M185.67 89.09L185.67 87 185.56 87.52 185.67 89.09Z"
fill-rule="evenodd" fill="black"/>
<path d="M185.67 89.09L185.87 89.58 185.67 87 185.67 89.09Z"
fill-rule="evenodd" fill="black"/>
<path d="M185.87 89.58L185.87 86.51 185.67 87 185.87 89.58Z"
fill-rule="evenodd" fill="black"/>
<path d="M185.87 89.58L186.13 90.04 185.87 86.51 185.87 89.58Z"
fill-rule="evenodd" fill="black"/>
<path d="M186.13 90.04L186.13 86.06 185.87 86.51 186.13 90.04Z"
fill-rule="evenodd" fill="black"/>
<path d="M186.13 90.04L186.45 90.44 186.13 86.06 186.13 90.04Z"
fill-rule="evenodd" fill="black"/>
<path d="M186.45 90.44L186.45 85.65 186.13 86.06 186.45 90.44Z"
fill-rule="evenodd" fill="black"/>
<path d="M186.45 90.44L186.83 90.79 186.45 85.65 186.45 90.44Z"
fill-rule="evenodd" fill="black"/>
<path d="M186.83 90.79L186.83 85.31 186.45 85.65 186.83 90.79Z"
fill-rule="evenodd" fill="black"/>
<path d="M186.83 90.79L187.26 91.06 186.83 85.31 186.83 90.79Z"
fill-rule="evenodd" fill="black"/>
<path d="M187.26 91.06L187.26 85.03 186.83 85.31 187.26 91.06Z"
fill-rule="evenodd" fill="black"/>
<path d="M187.26 91.06L187.72 91.27 187.26 85.03 187.26 91.06Z"
fill-rule="evenodd" fill="black"/>
<path d="M187.72 91.27L187.72 84.83 187.26 85.03 187.72 91.27Z"
fill-rule="evenodd" fill="black"/>
<path d="M187.72 91.27L188.21 91.39 187.72 84.83 187.72 91.27Z"
fill-rule="evenodd" fill="black"/>
<path d="M188.21 91.39L188.21 84.7 187.72 84.83 188.21 91.39Z"
fill-rule="evenodd" fill="black"/>
<path d="M188.21 91.39L188.71 91.43 188.21 84.7 188.21 91.39Z"
fill-rule="evenodd" fill="black"/>
<path d="M188.71 91.43L188.71 84.66 188.21 84.7 188.71 91.43Z"
fill-rule="evenodd" fill="black"/>
<path d="M188.71 91.43L189.21 91.39 188.71 84.66 188.71 91.43Z"
fill-rule="evenodd" fill="black"/>
<path d="M189.21 91.39L189.21 84.7 188.71 84.66 189.21 91.39Z"
fill-rule="evenodd" fill="black"/>
<path d="M189.21 91.39L189.7 91.27 189.21 84.7 189.21 91.39Z"
fill-rule="evenodd" fill="black"/>
<path d="M189.7 91.27L189.7 84.83 189.21 84.7 189.7 91.27Z"
fill-rule="evenodd" fill="black"/>
<path d="M189.7 91.27L190.16 91.06 189.7 84.83 189.7 91.27Z"
fill-rule="evenodd" fill="black"/>
<path d="M190.16 91.06L190.16 85.03 189.7 84.83 190.16 91.06Z"
fill-rule="evenodd" fill="black"/>
<path d="M190.16 91.06L190.59 90.79 190.16 85.03 190.16 91.06Z"
fill-rule="evenodd" fill="black"/>
<path d="M190.59 90.79L190.59 85.31 190.16 85.03 190.59 90.79Z"
fill-rule="evenodd" fill="black"/>
<path d="M190.59 90.79L190.97 90.44 190.59 85.31 190.59 90.79Z"
fill-rule="evenodd" fill="black"/>
<path d="M190.97 90.44L190.97 85.65 190.59 85.31 190.97 90.44Z"
fill-rule="evenodd" fill="black"/>
<path d="M190.97 90.44L191.29 90.04 190.97 85.65 190.97 90.44Z"
fill-rule="evenodd" fill="black"/>
<path d="M191.29 90.04L191.29 86.06 190.97 85.65 191.29 90.04Z"
fill-rule="evenodd" fill="black"/>
<path d="M191.29 90.04L191.55 89.58 191.29 86.06 191.29 90.04Z"
fill-rule="evenodd" fill="black"/>
<path d="M191.55 89.58L191.55 86.51 191.29 86.06 191.55 89.58Z"
fill-rule="evenodd" fill="black"/>
<path d="M191.55 89.58L191.75 89.09 191.55 86.51 191.55 89.58Z"
fill-rule="evenodd" fill="black"/>
<path d="M191.75 89.09L191.75 87 191.55 86.51 191.75 89.09Z"
fill-rule="evenodd" fill="black"/>
<path d="M191.75 89.09L191.86 88.58 191.75 87 191.75 89.09Z"
fill-rule="evenodd" fill="black"/>
<path d="M191.86 88.58L191.86 87.52 191.75 87 191.86 88.58Z"
fill-rule="evenodd" fill="black"/>
<path d="M191.86 88.58L191.9 88.05 191.86 87.52 191.86 88.58Z"
fill-rule="evenodd" fill="black"/>
</g>
<g><path d="M185.33 61.37L185.33 60.31 185.29 60.84 185.33 61.37Z"
fill-rule="evenodd" fill="black"/>
<path d="M185.33 61.37L185.45 61.89 185.33 60.31 185.33 61.37Z"
fill-rule="evenodd" fill="black"/>
<path d="M185.45 61.89L185.45 59.8 185.33 60.31 185.45 61.89Z"
fill-rule="evenodd" fill="black"/>
<path d="M185.45 61.89L185.64 62.38 185.45 59.8 185.45 61.89Z"
fill-rule="evenodd" fill="black"/>
<path d="M185.64 62.38L185.64 59.3 185.45 59.8 185.64 62.38Z"
fill-rule="evenodd" fill="black"/>
<path d="M185.64 62.38L185.9 62.83 185.64 59.3 185.64 62.38Z"
fill-rule="evenodd" fill="black"/>
<path d="M185.9 62.83L185.9 58.85 185.64 59.3 185.9 62.83Z"
fill-rule="evenodd" fill="black"/>
<path d="M185.9 62.83L186.23 63.24 185.9 58.85 185.9 62.83Z"
fill-rule="evenodd" fill="black"/>
<path d="M186.23 63.24L186.23 58.45 185.9 58.85 186.23 63.24Z"
fill-rule="evenodd" fill="black"/>
<path d="M186.23 63.24L186.61 63.58 186.23 58.45 186.23 63.24Z"
fill-rule="evenodd" fill="black"/>
<path d="M186.61 63.58L186.61 58.1 186.23 58.45 186.61 63.58Z"
fill-rule="evenodd" fill="black"/>
<path d="M186.61 63.58L187.04 63.86 186.61 58.1 186.61 63.58Z"
fill-rule="evenodd" fill="black"/>
<path d="M187.04 63.86L187.04 57.83 186.61 58.1 187.04 63.86Z"
fill-rule="evenodd" fill="black"/>
<path d="M187.04 63.86L187.5 64.06 187.04 57.83 187.04 63.86Z"
fill-rule="evenodd" fill="black"/>
<path d="M187.5 64.06L187.5 57.62 187.04 57.83 187.5 64.06Z"
fill-rule="evenodd" fill="black"/>
<path d="M187.5 64.06L187.99 64.19 187.5 57.62 187.5 64.06Z"
fill-rule="evenodd" fill="black"/>
<path d="M187.99 64.19L187.99 57.5 187.5 57.62 187.99 64.19Z"
fill-rule="evenodd" fill="black"/>
<path d="M187.99 64.19L188.49 64.23 187.99 57.5 187.99 64.19Z"
fill-rule="evenodd" fill="black"/>
<path d="M188.49 64.23L188.49 57.46 187.99 57.5 188.49 64.23Z"
fill-rule="evenodd" fill="black"/>
<path d="M188.49 64.23L188.99 64.19 188.49 57.46 188.49 64.23Z"
fill-rule="evenodd" fill="black"/>
<path d="M188.99 64.19L188.99 57.5 188.49 57.46 188.99 64.19Z"
fill-rule="evenodd" fill="black"/>
<path d="M188.99 64.19L189.47 64.06 188.99 57.5 188.99 64.19Z"
fill-rule="evenodd" fill="black"/>
<path d="M189.47 64.06L189.47 57.62 188.99 57.5 189.47 64.06Z"
fill-rule="evenodd" fill="black"/>
<path d="M189.47 64.06L189.94 63.86 189.47 57.62 189.47 64.06Z"
fill-rule="evenodd" fill="black"/>
<path d="M189.94 63.86L189.94 57.83 189.47 57.62 189.94 63.86Z"
fill-rule="evenodd" fill="black"/>
<path d="M189.94 63.86L190.36 63.58 189.94 57.83 189.94 63.86Z"
fill-rule="evenodd" fill="black"/>
<path d="M190.36 63.58L190.36 58.1 189.94 57.83 190.36 63.58Z"
fill-rule="evenodd" fill="black"/>
<path d="M190.36 63.58L190.74 63.24 190.36 58.1 190.36 63.58Z"
fill-rule="evenodd" fill="black"/>
<path d="M190.74 63.24L190.74 58.45 190.36 58.1 190.74 63.24Z"
fill-rule="evenodd" fill="black"/>
<path d="M190.74 63.24L191.07 62.83 190.74 58.45 190.74 63.24Z"
fill-rule="evenodd" fill="black"/>
<path d="M191.07 62.83L191.07 58.85 190.74 58.45 191.07 62.83Z"
fill-rule="evenodd" fill="black"/>
<path d="M191.07 62.83L191.33 62.38 191.07 58.85 191.07 62.83Z"
fill-rule="evenodd" fill="black"/>
<path d="M191.33 62.38L191.33 59.3 191.07 58.85 191.33 62.38Z"
fill-rule="evenodd" fill="black"/>
<path d="M191.33 62.38L191.52 61.89 191.33 59.3 191.33 62.38Z"
fill-rule="evenodd" fill="black"/>
<path d="M191.52 61.89L191.52 59.8 191.33 59.3 191.52 61.89Z"
fill-rule="evenodd" fill="black"/>
<path d="M191.52 61.89L191.64 61.37 191.52 59.8 191.52 61.89Z"
fill-rule="evenodd" fill="black"/>
<path d="M191.64 61.37L191.64 60.31 191.52 59.8 191.64 61.37Z"
fill-rule="evenodd" fill="black"/>
<path d="M191.64 61.37L191.68 60.84 191.64 60.31 191.64 61.37Z"
fill-rule="evenodd" fill="black"/>
</g>
<g><path d="M230.86 59.23L230.86 0.73"
fill="none" stroke="black" stroke-width="12"/>
</g>
<g><path d="M230.86 73.34L241.84 61.7"
fill="none" stroke="black" stroke-width="12"/>
</g>
<g><path d="M190.97 87.45L230.86 87.45M230.86 87.45L230.86 72.64"
fill="none" stroke="black" stroke-width="12"/>
</g>
<g><path d="M189.27 399.27L189.27 371.05"
fill="none" stroke="black" stroke-width="12"/>
</g>
<g><path d="M175.39 219.43L175.39 247.64M175.39 247.64L201.99 247.64M201.99 247.64L201.99 219.43M201.99 219.43L175.39 219.43"
fill="none" stroke="black" stroke-width="12"/>
</g>
<g><path d="M188.49 64.23L190.54 63.44M190.54 63.44L191.63 61.43M191.63 61.43L191.25 59.15M191.25 59.15L189.58 57.66M189.58 57.66L187.39 57.66M187.39 57.66L185.72 59.15M185.72 59.15L185.34 61.43M185.34 61.43L186.43 63.44M186.43 63.44L188.49 64.23"
fill="none" stroke="black" stroke-width="12"/>
</g>
<g><path d="M170.4 49.56L170.4 72.13"
fill="none" stroke="black" stroke-width="12"/>
</g>
<g><path d="M175.72 49.56L175.72 72.13"
fill="none" stroke="black" stroke-width="12"/>
</g>
<g><path d="M175.72 60.84L188.69 60.84"
fill="none" stroke="black" stroke-width="12"/>
</g>
<g><path d="M170.4 60.84L158.16 60.84"
fill="none" stroke="black" stroke-width="12"/>
</g>
<g><path d="M188.69 106.55L188.69 21.9"
fill="none" stroke="black" stroke-width="12"/>
</g>
<g><path d="M189.27 247.97L189.27 338.27"
fill="none" stroke="black" stroke-width="12"/>
</g>
<g><path d="M188.69 219.43L188.69 120.66"
fill="none" stroke="black" stroke-width="12"/>
</g>
<g><path d="M188.69 120.66L201.99 106.55"
fill="none" stroke="black" stroke-width="12"/>
</g>
<g><path d="M188.71 91.43L190.76 90.64M190.76 90.64L191.85 88.63M191.85 88.63L191.47 86.35M191.47 86.35L189.8 84.86M189.8 84.86L187.62 84.86M187.62 84.86L185.95 86.35M185.95 86.35L185.57 88.63M185.57 88.63L186.66 90.64M186.66 90.64L188.71 91.43"
fill="none" stroke="black" stroke-width="12"/>
</g>
<g><path d="M189.02 329.15L194.41 327.47M194.41 327.47L198.09 322.97M198.09 322.97L198.89 317.07M198.89 317.07L196.56 311.64M196.56 311.64L191.83 308.42M191.83 308.42L186.21 308.42M186.21 308.42L181.48 311.64M181.48 311.64L179.15 317.07M179.15 317.07L179.94 322.97M179.94 322.97L183.63 327.47M183.63 327.47L189.02 329.15"
fill="none" stroke="black" stroke-width="12"/>
</g>
<g><path d="M189.02 299.63L194.41 297.95M194.41 297.95L198.09 293.45M198.09 293.45L198.89 287.55M198.89 287.55L196.56 282.12M196.56 282.12L191.83 278.9M191.83 278.9L186.21 278.9M186.21 278.9L181.48 282.12M181.48 282.12L179.15 287.55M179.15 287.55L179.94 293.45M179.94 293.45L183.63 297.95M183.63 297.95L189.02 299.63"
fill="none" stroke="black" stroke-width="12"/>
</g>
<g><path d="M189.27 369.75L204.03 346.3"
fill="none" stroke="black" stroke-width="12"/>
</g>
<g><path d="M187.33 106.55L190.04 106.55"
fill="none" stroke="black" stroke-width="12"/>
</g>
<g><path d="M229.51 59.23L232.22 59.23"
fill="none" stroke="black" stroke-width="12"/>
</g>
<g><path d="M187.91 338.27L190.63 338.27"
fill="none" stroke="black" stroke-width="12"/>
</g>
</g>
</svg>
