<?xml version="1.0" standalone="no"?><svg xmlns="http://www.w3.org/2000/svg" width="400.000" height="400.000" viewBox="0.0 0.0 400.000 400.000" version="1.1">
  <title>Produce by Acme CAD Converter</title>
  <desc>Produce by Acme CAD Converter</desc>
<g id="0" display="visible">
<g><path d="M187.69 260.77L187.69 259.86 187.66 260.31 187.69 260.77Z"
fill-rule="evenodd" fill="black"/>
<path d="M187.69 260.77L187.79 261.21 187.69 259.86 187.69 260.77Z"
fill-rule="evenodd" fill="black"/>
<path d="M187.79 261.21L187.79 259.41 187.69 259.86 187.79 261.21Z"
fill-rule="evenodd" fill="black"/>
<path d="M187.79 261.21L187.95 261.63 187.79 259.41 187.79 261.21Z"
fill-rule="evenodd" fill="black"/>
<path d="M187.95 261.63L187.95 258.99 187.79 259.41 187.95 261.63Z"
fill-rule="evenodd" fill="black"/>
<path d="M187.95 261.63L188.17 262.02 187.95 258.99 187.95 261.63Z"
fill-rule="evenodd" fill="black"/>
<path d="M188.17 262.02L188.17 258.6 187.95 258.99 188.17 262.02Z"
fill-rule="evenodd" fill="black"/>
<path d="M188.17 262.02L188.44 262.37 188.17 258.6 188.17 262.02Z"
fill-rule="evenodd" fill="black"/>
<path d="M188.44 262.37L188.44 258.26 188.17 258.6 188.44 262.37Z"
fill-rule="evenodd" fill="black"/>
<path d="M188.44 262.37L188.76 262.66 188.44 258.26 188.44 262.37Z"
fill-rule="evenodd" fill="black"/>
<path d="M188.76 262.66L188.76 257.96 188.44 258.26 188.76 262.66Z"
fill-rule="evenodd" fill="black"/>
<path d="M188.76 262.66L189.12 262.9 188.76 257.96 188.76 262.66Z"
fill-rule="evenodd" fill="black"/>
<path d="M189.12 262.9L189.12 257.72 188.76 257.96 189.12 262.9Z"
fill-rule="evenodd" fill="black"/>
<path d="M189.12 262.9L189.51 263.08 189.12 257.72 189.12 262.9Z"
fill-rule="evenodd" fill="black"/>
<path d="M189.51 263.08L189.51 257.55 189.12 257.72 189.51 263.08Z"
fill-rule="evenodd" fill="black"/>
<path d="M189.51 263.08L189.92 263.18 189.51 257.55 189.51 263.08Z"
fill-rule="evenodd" fill="black"/>
<path d="M189.92 263.18L189.92 257.44 189.51 257.55 189.92 263.18Z"
fill-rule="evenodd" fill="black"/>
<path d="M189.92 263.18L190.35 263.22 189.92 257.44 189.92 263.18Z"
fill-rule="evenodd" fill="black"/>
<path d="M190.35 263.22L190.35 257.41 189.92 257.44 190.35 263.22Z"
fill-rule="evenodd" fill="black"/>
<path d="M190.35 263.22L190.77 263.18 190.35 257.41 190.35 263.22Z"
fill-rule="evenodd" fill="black"/>
<path d="M190.77 263.18L190.77 257.44 190.35 257.41 190.77 263.18Z"
fill-rule="evenodd" fill="black"/>
<path d="M190.77 263.18L191.18 263.08 190.77 257.44 190.77 263.18Z"
fill-rule="evenodd" fill="black"/>
<path d="M191.18 263.08L191.18 257.55 190.77 257.44 191.18 263.08Z"
fill-rule="evenodd" fill="black"/>
<path d="M191.18 263.08L191.57 262.9 191.18 257.55 191.18 263.08Z"
fill-rule="evenodd" fill="black"/>
<path d="M191.57 262.9L191.57 257.72 191.18 257.55 191.57 262.9Z"
fill-rule="evenodd" fill="black"/>
<path d="M191.57 262.9L191.93 262.66 191.57 257.72 191.57 262.9Z"
fill-rule="evenodd" fill="black"/>
<path d="M191.93 262.66L191.93 257.96 191.57 257.72 191.93 262.66Z"
fill-rule="evenodd" fill="black"/>
<path d="M191.93 262.66L192.25 262.37 191.93 257.96 191.93 262.66Z"
fill-rule="evenodd" fill="black"/>
<path d="M192.25 262.37L192.25 258.26 191.93 257.96 192.25 262.37Z"
fill-rule="evenodd" fill="black"/>
<path d="M192.25 262.37L192.52 262.02 192.25 258.26 192.25 262.37Z"
fill-rule="evenodd" fill="black"/>
<path d="M192.52 262.02L192.52 258.6 192.25 258.26 192.52 262.02Z"
fill-rule="evenodd" fill="black"/>
<path d="M192.52 262.02L192.74 261.63 192.52 258.6 192.52 262.02Z"
fill-rule="evenodd" fill="black"/>
<path d="M192.74 261.63L192.74 258.99 192.52 258.6 192.74 261.63Z"
fill-rule="evenodd" fill="black"/>
<path d="M192.74 261.63L192.9 261.21 192.74 258.99 192.74 261.63Z"
fill-rule="evenodd" fill="black"/>
<path d="M192.9 261.21L192.9 259.41 192.74 258.99 192.9 261.21Z"
fill-rule="evenodd" fill="black"/>
<path d="M192.9 261.21L193 260.77 192.9 259.41 192.9 261.21Z"
fill-rule="evenodd" fill="black"/>
<path d="M193 260.77L193 259.86 192.9 259.41 193 260.77Z"
fill-rule="evenodd" fill="black"/>
<path d="M193 260.77L193.04 260.31 193 259.86 193 260.77Z"
fill-rule="evenodd" fill="black"/>
</g>
<g><path d="M188.14 103.37L188.14 102.46 188.1 102.92 188.14 103.37Z"
fill-rule="evenodd" fill="black"/>
<path d="M188.14 103.37L188.24 103.82 188.14 102.46 188.14 103.37Z"
fill-rule="evenodd" fill="black"/>
<path d="M188.24 103.82L188.24 102.02 188.14 102.46 188.24 103.82Z"
fill-rule="evenodd" fill="black"/>
<path d="M188.24 103.82L188.4 104.24 188.24 102.02 188.24 103.82Z"
fill-rule="evenodd" fill="black"/>
<path d="M188.4 104.24L188.4 101.6 188.24 102.02 188.4 104.24Z"
fill-rule="evenodd" fill="black"/>
<path d="M188.4 104.24L188.62 104.63 188.4 101.6 188.4 104.24Z"
fill-rule="evenodd" fill="black"/>
<path d="M188.62 104.63L188.62 101.21 188.4 101.6 188.62 104.63Z"
fill-rule="evenodd" fill="black"/>
<path d="M188.62 104.63L188.89 104.97 188.62 101.21 188.62 104.63Z"
fill-rule="evenodd" fill="black"/>
<path d="M188.89 104.97L188.89 100.86 188.62 101.21 188.89 104.97Z"
fill-rule="evenodd" fill="black"/>
<path d="M188.89 104.97L189.21 105.27 188.89 100.86 188.89 104.97Z"
fill-rule="evenodd" fill="black"/>
<path d="M189.21 105.27L189.21 100.57 188.89 100.86 189.21 105.27Z"
fill-rule="evenodd" fill="black"/>
<path d="M189.21 105.27L189.57 105.51 189.21 100.57 189.21 105.27Z"
fill-rule="evenodd" fill="black"/>
<path d="M189.57 105.51L189.57 100.33 189.21 100.57 189.57 105.51Z"
fill-rule="evenodd" fill="black"/>
<path d="M189.57 105.51L189.96 105.68 189.57 100.33 189.57 105.51Z"
fill-rule="evenodd" fill="black"/>
<path d="M189.96 105.68L189.96 100.15 189.57 100.33 189.96 105.68Z"
fill-rule="evenodd" fill="black"/>
<path d="M189.96 105.68L190.37 105.79 189.96 100.15 189.96 105.68Z"
fill-rule="evenodd" fill="black"/>
<path d="M190.37 105.79L190.37 100.05 189.96 100.15 190.37 105.79Z"
fill-rule="evenodd" fill="black"/>
<path d="M190.37 105.79L190.79 105.82 190.37 100.05 190.37 105.79Z"
fill-rule="evenodd" fill="black"/>
<path d="M190.79 105.82L190.79 100.01 190.37 100.05 190.79 105.82Z"
fill-rule="evenodd" fill="black"/>
<path d="M190.79 105.82L191.21 105.79 190.79 100.01 190.79 105.82Z"
fill-rule="evenodd" fill="black"/>
<path d="M191.21 105.79L191.21 100.05 190.79 100.01 191.21 105.79Z"
fill-rule="evenodd" fill="black"/>
<path d="M191.21 105.79L191.63 105.68 191.21 100.05 191.21 105.79Z"
fill-rule="evenodd" fill="black"/>
<path d="M191.63 105.68L191.63 100.15 191.21 100.05 191.63 105.68Z"
fill-rule="evenodd" fill="black"/>
<path d="M191.63 105.68L192.02 105.51 191.63 100.15 191.63 105.68Z"
fill-rule="evenodd" fill="black"/>
<path d="M192.02 105.51L192.02 100.33 191.63 100.15 192.02 105.51Z"
fill-rule="evenodd" fill="black"/>
<path d="M192.02 105.51L192.37 105.27 192.02 100.33 192.02 105.51Z"
fill-rule="evenodd" fill="black"/>
<path d="M192.37 105.27L192.37 100.57 192.02 100.33 192.37 105.27Z"
fill-rule="evenodd" fill="black"/>
<path d="M192.37 105.27L192.7 104.97 192.37 100.57 192.37 105.27Z"
fill-rule="evenodd" fill="black"/>
<path d="M192.7 104.97L192.7 100.86 192.37 100.57 192.7 104.97Z"
fill-rule="evenodd" fill="black"/>
<path d="M192.7 104.97L192.97 104.63 192.7 100.86 192.7 104.97Z"
fill-rule="evenodd" fill="black"/>
<path d="M192.97 104.63L192.97 101.21 192.7 100.86 192.97 104.63Z"
fill-rule="evenodd" fill="black"/>
<path d="M192.97 104.63L193.19 104.24 192.97 101.21 192.97 104.63Z"
fill-rule="evenodd" fill="black"/>
<path d="M193.19 104.24L193.19 101.6 192.97 101.21 193.19 104.24Z"
fill-rule="evenodd" fill="black"/>
<path d="M193.19 104.24L193.35 103.82 193.19 101.6 193.19 104.24Z"
fill-rule="evenodd" fill="black"/>
<path d="M193.35 103.82L193.35 102.02 193.19 101.6 193.35 103.82Z"
fill-rule="evenodd" fill="black"/>
<path d="M193.35 103.82L193.45 103.37 193.35 102.02 193.35 103.82Z"
fill-rule="evenodd" fill="black"/>
<path d="M193.45 103.37L193.45 102.46 193.35 102.02 193.45 103.37Z"
fill-rule="evenodd" fill="black"/>
<path d="M193.45 103.37L193.48 102.92 193.45 102.46 193.45 103.37Z"
fill-rule="evenodd" fill="black"/>
</g>
<g><path d="M167.93 49.16L167.93 78.22"
fill="none" stroke="black" stroke-width="12"/>
</g>
<g><path d="M167.93 90.33L167.93 102.43M167.93 102.43L190.35 102.43M190.35 102.43L212.76 102.43M212.76 102.43L212.76 91.54"
fill="none" stroke="black" stroke-width="12"/>
</g>
<g><path d="M212.76 78.22L212.76 0.73"
fill="none" stroke="black" stroke-width="12"/>
</g>
<g><path d="M190.35 102.43L190.35 126.65"
fill="none" stroke="black" stroke-width="12"/>
</g>
<g><path d="M179.14 150.86L179.14 126.65M179.14 126.65L201.55 126.65M201.55 126.65L201.55 150.86M201.55 150.86L179.14 150.86"
fill="none" stroke="black" stroke-width="12"/>
</g>
<g><path d="M190.35 247.72L189.3 399.27"
fill="none" stroke="black" stroke-width="12"/>
</g>
<g><path d="M167.93 78.22L178.58 89.72"
fill="none" stroke="black" stroke-width="12"/>
</g>
<g><path d="M212.76 78.22L223.97 90.33"
fill="none" stroke="black" stroke-width="12"/>
</g>
<g><path d="M190.35 150.86L190.35 235.61"
fill="none" stroke="black" stroke-width="12"/>
</g>
<g><path d="M190.35 259.83L223.97 259.83M223.97 259.83L223.97 272.54"
fill="none" stroke="black" stroke-width="12"/>
</g>
<g><path d="M223.97 284.04L223.97 332.47"
fill="none" stroke="black" stroke-width="12"/>
</g>
<g><path d="M190.35 235.61L201.55 247.72"
fill="none" stroke="black" stroke-width="12"/>
</g>
<g><path d="M223.97 271.94L233.21 281.92"
fill="none" stroke="black" stroke-width="12"/>
</g>
<g><path d="M190.79 105.82L192.52 105.14M192.52 105.14L193.44 103.42M193.44 103.42L193.12 101.47M193.12 101.47L191.71 100.19M191.71 100.19L189.87 100.19M189.87 100.19L188.46 101.47M188.46 101.47L188.15 103.42M188.15 103.42L189.07 105.14M189.07 105.14L190.79 105.82"
fill="none" stroke="black" stroke-width="12"/>
</g>
<g><path d="M190.35 263.22L192.07 262.54M192.07 262.54L192.99 260.82M192.99 260.82L192.68 258.86M192.68 258.86L191.27 257.58M191.27 257.58L189.43 257.58M189.43 257.58L188.02 258.86M188.02 258.86L187.7 260.82M187.7 260.82L188.62 262.54M188.62 262.54L190.35 263.22"
fill="none" stroke="black" stroke-width="12"/>
</g>
<g><path d="M190.63 202.8L195.57 201.07M195.57 201.07L198.62 196.53M198.62 196.53L198.62 190.92M198.62 190.92L195.57 186.38M195.57 186.38L190.63 184.64M190.63 184.64L185.69 186.38M185.69 186.38L182.63 190.92M182.63 190.92L182.63 196.53M182.63 196.53L185.69 201.07M185.69 201.07L190.63 202.8"
fill="none" stroke="black" stroke-width="12"/>
</g>
<g><path d="M166.79 90.33L169.08 90.33"
fill="none" stroke="black" stroke-width="12"/>
</g>
<g><path d="M211.62 91.54L213.9 91.54"
fill="none" stroke="black" stroke-width="12"/>
</g>
<g><path d="M189.2 247.72L191.49 247.72"
fill="none" stroke="black" stroke-width="12"/>
</g>
<g><path d="M222.82 284.04L225.11 284.04"
fill="none" stroke="black" stroke-width="12"/>
</g>
</g>
</svg>
