<?xml version="1.0" standalone="no"?><svg xmlns="http://www.w3.org/2000/svg" width="400.000" height="400.000" viewBox="0.0 0.0 400.000 400.000" version="1.1">
  <title>Produce by Acme CAD Converter</title>
  <desc>Produce by Acme CAD Converter</desc>
<g id="0" display="visible">
<g><path d="M171.36 0.73L171.36 40.75M171.36 40.75L209.09 40.75M209.09 40.75L209.09 0.73M209.09 0.73L171.36 0.73"
fill="none" stroke="black" stroke-width="12"/>
</g>
<g><path d="M7.31 234.4L7.31 399.27"
fill="none" stroke="black" stroke-width="12"/>
</g>
<g><path d="M25.63 216.09L7.31 234.4"
fill="none" stroke="black" stroke-width="12"/>
</g>
<g><path d="M7.31 176.83L7.31 216.09"
fill="none" stroke="black" stroke-width="12"/>
</g>
<g><path d="M7.31 19.82L7.31 110.64"
fill="none" stroke="black" stroke-width="12"/>
</g>
<g><path d="M394.61 216.09L373.68 237.02M373.68 237.02L373.68 398.8"
fill="none" stroke="black" stroke-width="12"/>
</g>
<g><path d="M7.31 19.82L171.36 19.82"
fill="none" stroke="black" stroke-width="12"/>
</g>
<g><path d="M209.09 19.82L373.4 19.82M373.4 19.82L373.4 203"
fill="none" stroke="black" stroke-width="12"/>
</g>
<g><path d="M7.31 98.33L7.31 176.83"
fill="none" stroke="black" stroke-width="12"/>
</g>
<g><path d="M72.5 19.82L70.68 13.21M70.68 13.21L65.71 8.37M65.71 8.37L58.91 6.6M58.91 6.6L52.11 8.37M52.11 8.37L47.13 13.21M47.13 13.21L45.31 19.82M45.31 19.82L47.13 26.43M47.13 26.43L52.11 31.27M52.11 31.27L58.91 33.04M58.91 33.04L65.71 31.27M65.71 31.27L70.68 26.43M70.68 26.43L72.5 19.82"
fill="none" stroke="black" stroke-width="12"/>
</g>
<g><path d="M125.31 19.35L123.49 12.74M123.49 12.74L118.51 7.9M118.51 7.9L111.72 6.13M111.72 6.13L104.92 7.9M104.92 7.9L99.94 12.74M99.94 12.74L98.12 19.35M98.12 19.35L99.94 25.96M99.94 25.96L104.92 30.8M104.92 30.8L111.72 32.57M111.72 32.57L118.51 30.8M118.51 30.8L123.49 25.96M123.49 25.96L125.31 19.35"
fill="none" stroke="black" stroke-width="12"/>
</g>
<g><path d="M282.32 19.82L280.5 13.21M280.5 13.21L275.53 8.37M275.53 8.37L268.73 6.6M268.73 6.6L261.93 8.37M261.93 8.37L256.96 13.21M256.96 13.21L255.13 19.82M255.13 19.82L256.96 26.43M256.96 26.43L261.93 31.27M261.93 31.27L268.73 33.04M268.73 33.04L275.53 31.27M275.53 31.27L280.5 26.43M280.5 26.43L282.32 19.82"
fill="none" stroke="black" stroke-width="12"/>
</g>
<g><path d="M334.66 19.82L332.84 13.21M332.84 13.21L327.86 8.37M327.86 8.37L321.07 6.6M321.07 6.6L314.27 8.37M314.27 8.37L309.29 13.21M309.29 13.21L307.47 19.82M307.47 19.82L309.29 26.43M309.29 26.43L314.27 31.27M314.27 31.27L321.07 33.04M321.07 33.04L327.86 31.27M327.86 31.27L332.84 26.43M332.84 26.43L334.66 19.82"
fill="none" stroke="black" stroke-width="12"/>
</g>
<g><path d="M5.39 216.09L9.24 216.09"
fill="none" stroke="black" stroke-width="12"/>
</g>
<g><path d="M371.48 203L375.33 203"
fill="none" stroke="black" stroke-width="12"/>
</g>
</g>
</svg>
