<?xml version="1.0" standalone="no"?><svg xmlns="http://www.w3.org/2000/svg" width="400.000" height="400.000" viewBox="0.0 0.0 400.000 400.000" version="1.1">
  <title>Produce by Acme CAD Converter</title>
  <desc>Produce by Acme CAD Converter</desc>
<g id="0" display="visible">
<g><path d="M86.92 330.1L86.92 382.8M86.92 382.8L320.36 382.8M320.36 382.8L320.36 330.1"
fill="none" stroke="black" stroke-width="12"/>
</g>
<g><path d="M86.92 84.46L86.92 190.51"
fill="none" stroke="black" stroke-width="12"/>
</g>
<g><path d="M86.92 241.9L86.92 312.38"
fill="none" stroke="black" stroke-width="12"/>
</g>
<g><path d="M63.18 240.29L63.18 190.51M63.18 190.51L110.66 190.51M110.66 190.51L110.66 240.29M110.66 240.29L63.18 240.29"
fill="none" stroke="black" stroke-width="12"/>
</g>
<g><path d="M187.17 382.8L189.05 375.15M189.05 375.15L194.28 369.25M194.28 369.25L201.65 366.45M201.65 366.45L209.48 367.4M209.48 367.4L215.96 371.88M215.96 371.88L219.63 378.86M219.63 378.86L219.63 386.74M219.63 386.74L215.96 393.72M215.96 393.72L209.48 398.2M209.48 398.2L201.65 399.15M201.65 399.15L194.28 396.35M194.28 396.35L189.05 390.45M189.05 390.45L187.17 382.8"
fill="none" stroke="black" stroke-width="12"/>
</g>
<g><path d="M87.74 0.73L87.74 66.61"
fill="none" stroke="black" stroke-width="12"/>
</g>
<g><path d="M101.49 79.86L87.33 65.7M87.33 65.7L73.17 79.86"
fill="none" stroke="black" stroke-width="12"/>
</g>
<g><path d="M100.83 93.04L87.66 79.86M87.66 79.86L74.48 93.04"
fill="none" stroke="black" stroke-width="12"/>
</g>
<g><path d="M70.45 312.38L86.92 328.85"
fill="none" stroke="black" stroke-width="12"/>
</g>
<g><path d="M103.39 312.38L86.92 328.85"
fill="none" stroke="black" stroke-width="12"/>
</g>
<g><path d="M70.45 295.91L86.92 312.38M86.92 312.38L103.39 295.91"
fill="none" stroke="black" stroke-width="12"/>
</g>
<g><path d="M320.36 85.71L320.36 177.27"
fill="none" stroke="black" stroke-width="12"/>
</g>
<g><path d="M320.36 177.27L320.36 313.63"
fill="none" stroke="black" stroke-width="12"/>
</g>
<g><path d="M321.18 1.98L321.18 67.86"
fill="none" stroke="black" stroke-width="12"/>
</g>
<g><path d="M334.93 81.12L320.77 66.95M320.77 66.95L306.6 81.12"
fill="none" stroke="black" stroke-width="12"/>
</g>
<g><path d="M334.27 94.29L321.1 81.12M321.1 81.12L307.92 94.29"
fill="none" stroke="black" stroke-width="12"/>
</g>
<g><path d="M303.89 313.63L320.36 330.1"
fill="none" stroke="black" stroke-width="12"/>
</g>
<g><path d="M336.82 313.63L320.36 330.1"
fill="none" stroke="black" stroke-width="12"/>
</g>
<g><path d="M303.89 297.16L320.36 313.63M320.36 313.63L336.82 297.16"
fill="none" stroke="black" stroke-width="12"/>
</g>
</g>
</svg>
