<?xml version="1.0" standalone="no"?><svg xmlns="http://www.w3.org/2000/svg" width="400.000" height="400.000" viewBox="0.0 0.0 400.000 400.000" version="1.1">
  <title>Produce by Acme CAD Converter</title>
  <desc>Produce by Acme CAD Converter</desc>
<g id="0" display="visible">
<g><path d="M262.87 352.52L262.87 351.29 262.83 351.9 262.87 352.52Z"
fill-rule="evenodd" fill="black"/>
<path d="M262.87 352.52L263.01 353.11 262.87 351.29 262.87 352.52Z"
fill-rule="evenodd" fill="black"/>
<path d="M263.01 353.11L263.01 350.69 262.87 351.29 263.01 353.11Z"
fill-rule="evenodd" fill="black"/>
<path d="M263.01 353.11L263.23 353.68 263.01 350.69 263.01 353.11Z"
fill-rule="evenodd" fill="black"/>
<path d="M263.23 353.68L263.23 350.12 263.01 350.69 263.23 353.68Z"
fill-rule="evenodd" fill="black"/>
<path d="M263.23 353.68L263.53 354.21 263.23 350.12 263.23 353.68Z"
fill-rule="evenodd" fill="black"/>
<path d="M263.53 354.21L263.53 349.6 263.23 350.12 263.53 354.21Z"
fill-rule="evenodd" fill="black"/>
<path d="M263.53 354.21L263.91 354.68 263.53 349.6 263.53 354.21Z"
fill-rule="evenodd" fill="black"/>
<path d="M263.91 354.68L263.91 349.13 263.53 349.6 263.91 354.68Z"
fill-rule="evenodd" fill="black"/>
<path d="M263.91 354.68L264.35 355.08 263.91 349.13 263.91 354.68Z"
fill-rule="evenodd" fill="black"/>
<path d="M264.35 355.08L264.35 348.73 263.91 349.13 264.35 355.08Z"
fill-rule="evenodd" fill="black"/>
<path d="M264.35 355.08L264.84 355.4 264.35 348.73 264.35 355.08Z"
fill-rule="evenodd" fill="black"/>
<path d="M264.84 355.4L264.84 348.41 264.35 348.73 264.84 355.4Z"
fill-rule="evenodd" fill="black"/>
<path d="M264.84 355.4L265.38 355.63 264.84 348.41 264.84 355.4Z"
fill-rule="evenodd" fill="black"/>
<path d="M265.38 355.63L265.38 348.17 264.84 348.41 265.38 355.63Z"
fill-rule="evenodd" fill="black"/>
<path d="M265.38 355.63L265.94 355.78 265.38 348.17 265.38 355.63Z"
fill-rule="evenodd" fill="black"/>
<path d="M265.94 355.78L265.94 348.03 265.38 348.17 265.94 355.78Z"
fill-rule="evenodd" fill="black"/>
<path d="M265.94 355.78L266.52 355.82 265.94 348.03 265.94 355.78Z"
fill-rule="evenodd" fill="black"/>
<path d="M266.52 355.82L266.52 347.98 265.94 348.03 266.52 355.82Z"
fill-rule="evenodd" fill="black"/>
<path d="M266.52 355.82L267.1 355.78 266.52 347.98 266.52 355.82Z"
fill-rule="evenodd" fill="black"/>
<path d="M267.1 355.78L267.1 348.03 266.52 347.98 267.1 355.78Z"
fill-rule="evenodd" fill="black"/>
<path d="M267.1 355.78L267.66 355.63 267.1 348.03 267.1 355.78Z"
fill-rule="evenodd" fill="black"/>
<path d="M267.66 355.63L267.66 348.17 267.1 348.03 267.66 355.63Z"
fill-rule="evenodd" fill="black"/>
<path d="M267.66 355.63L268.2 355.4 267.66 348.17 267.66 355.63Z"
fill-rule="evenodd" fill="black"/>
<path d="M268.2 355.4L268.2 348.41 267.66 348.17 268.2 355.4Z"
fill-rule="evenodd" fill="black"/>
<path d="M268.2 355.4L268.69 355.08 268.2 348.41 268.2 355.4Z"
fill-rule="evenodd" fill="black"/>
<path d="M268.69 355.08L268.69 348.73 268.2 348.41 268.69 355.08Z"
fill-rule="evenodd" fill="black"/>
<path d="M268.69 355.08L269.14 354.68 268.69 348.73 268.69 355.08Z"
fill-rule="evenodd" fill="black"/>
<path d="M269.14 354.68L269.14 349.13 268.69 348.73 269.14 354.68Z"
fill-rule="evenodd" fill="black"/>
<path d="M269.14 354.68L269.51 354.21 269.14 349.13 269.14 354.68Z"
fill-rule="evenodd" fill="black"/>
<path d="M269.51 354.21L269.51 349.6 269.14 349.13 269.51 354.21Z"
fill-rule="evenodd" fill="black"/>
<path d="M269.51 354.21L269.82 353.68 269.51 349.6 269.51 354.21Z"
fill-rule="evenodd" fill="black"/>
<path d="M269.82 353.68L269.82 350.12 269.51 349.6 269.82 353.68Z"
fill-rule="evenodd" fill="black"/>
<path d="M269.82 353.68L270.04 353.11 269.82 350.12 269.82 353.68Z"
fill-rule="evenodd" fill="black"/>
<path d="M270.04 353.11L270.04 350.69 269.82 350.12 270.04 353.11Z"
fill-rule="evenodd" fill="black"/>
<path d="M270.04 353.11L270.17 352.52 270.04 350.69 270.04 353.11Z"
fill-rule="evenodd" fill="black"/>
<path d="M270.17 352.52L270.17 351.29 270.04 350.69 270.17 352.52Z"
fill-rule="evenodd" fill="black"/>
<path d="M270.17 352.52L270.22 351.9 270.17 351.29 270.17 352.52Z"
fill-rule="evenodd" fill="black"/>
</g>
<g><path d="M190.79 352.52L190.79 351.29 190.75 351.9 190.79 352.52Z"
fill-rule="evenodd" fill="black"/>
<path d="M190.79 352.52L190.93 353.11 190.79 351.29 190.79 352.52Z"
fill-rule="evenodd" fill="black"/>
<path d="M190.93 353.11L190.93 350.69 190.79 351.29 190.93 353.11Z"
fill-rule="evenodd" fill="black"/>
<path d="M190.93 353.11L191.15 353.68 190.93 350.69 190.93 353.11Z"
fill-rule="evenodd" fill="black"/>
<path d="M191.15 353.68L191.15 350.12 190.93 350.69 191.15 353.68Z"
fill-rule="evenodd" fill="black"/>
<path d="M191.15 353.68L191.45 354.21 191.15 350.12 191.15 353.68Z"
fill-rule="evenodd" fill="black"/>
<path d="M191.45 354.21L191.45 349.6 191.15 350.12 191.45 354.21Z"
fill-rule="evenodd" fill="black"/>
<path d="M191.45 354.21L191.83 354.68 191.45 349.6 191.45 354.21Z"
fill-rule="evenodd" fill="black"/>
<path d="M191.83 354.68L191.83 349.13 191.45 349.6 191.83 354.68Z"
fill-rule="evenodd" fill="black"/>
<path d="M191.83 354.68L192.27 355.08 191.83 349.13 191.83 354.68Z"
fill-rule="evenodd" fill="black"/>
<path d="M192.27 355.08L192.27 348.73 191.83 349.13 192.27 355.08Z"
fill-rule="evenodd" fill="black"/>
<path d="M192.27 355.08L192.77 355.4 192.27 348.73 192.27 355.08Z"
fill-rule="evenodd" fill="black"/>
<path d="M192.77 355.4L192.77 348.41 192.27 348.73 192.77 355.4Z"
fill-rule="evenodd" fill="black"/>
<path d="M192.77 355.4L193.3 355.63 192.77 348.41 192.77 355.4Z"
fill-rule="evenodd" fill="black"/>
<path d="M193.3 355.63L193.3 348.17 192.77 348.41 193.3 355.63Z"
fill-rule="evenodd" fill="black"/>
<path d="M193.3 355.63L193.87 355.78 193.3 348.17 193.3 355.63Z"
fill-rule="evenodd" fill="black"/>
<path d="M193.87 355.78L193.87 348.03 193.3 348.17 193.87 355.78Z"
fill-rule="evenodd" fill="black"/>
<path d="M193.87 355.78L194.44 355.82 193.87 348.03 193.87 355.78Z"
fill-rule="evenodd" fill="black"/>
<path d="M194.44 355.82L194.44 347.98 193.87 348.03 194.44 355.82Z"
fill-rule="evenodd" fill="black"/>
<path d="M194.44 355.82L195.02 355.78 194.44 347.98 194.44 355.82Z"
fill-rule="evenodd" fill="black"/>
<path d="M195.02 355.78L195.02 348.03 194.44 347.98 195.02 355.78Z"
fill-rule="evenodd" fill="black"/>
<path d="M195.02 355.78L195.59 355.63 195.02 348.03 195.02 355.78Z"
fill-rule="evenodd" fill="black"/>
<path d="M195.59 355.63L195.59 348.17 195.02 348.03 195.59 355.63Z"
fill-rule="evenodd" fill="black"/>
<path d="M195.59 355.63L196.12 355.4 195.59 348.17 195.59 355.63Z"
fill-rule="evenodd" fill="black"/>
<path d="M196.12 355.4L196.12 348.41 195.59 348.17 196.12 355.4Z"
fill-rule="evenodd" fill="black"/>
<path d="M196.12 355.4L196.62 355.08 196.12 348.41 196.12 355.4Z"
fill-rule="evenodd" fill="black"/>
<path d="M196.62 355.08L196.62 348.73 196.12 348.41 196.62 355.08Z"
fill-rule="evenodd" fill="black"/>
<path d="M196.62 355.08L197.06 354.68 196.62 348.73 196.62 355.08Z"
fill-rule="evenodd" fill="black"/>
<path d="M197.06 354.68L197.06 349.13 196.62 348.73 197.06 354.68Z"
fill-rule="evenodd" fill="black"/>
<path d="M197.06 354.68L197.43 354.21 197.06 349.13 197.06 354.68Z"
fill-rule="evenodd" fill="black"/>
<path d="M197.43 354.21L197.43 349.6 197.06 349.13 197.43 354.21Z"
fill-rule="evenodd" fill="black"/>
<path d="M197.43 354.21L197.74 353.68 197.43 349.6 197.43 354.21Z"
fill-rule="evenodd" fill="black"/>
<path d="M197.74 353.68L197.74 350.12 197.43 349.6 197.74 353.68Z"
fill-rule="evenodd" fill="black"/>
<path d="M197.74 353.68L197.96 353.11 197.74 350.12 197.74 353.68Z"
fill-rule="evenodd" fill="black"/>
<path d="M197.96 353.11L197.96 350.69 197.74 350.12 197.96 353.11Z"
fill-rule="evenodd" fill="black"/>
<path d="M197.96 353.11L198.1 352.52 197.96 350.69 197.96 353.11Z"
fill-rule="evenodd" fill="black"/>
<path d="M198.1 352.52L198.1 351.29 197.96 350.69 198.1 352.52Z"
fill-rule="evenodd" fill="black"/>
<path d="M198.1 352.52L198.14 351.9 198.1 351.29 198.1 352.52Z"
fill-rule="evenodd" fill="black"/>
</g>
<g><path d="M262.87 286.27L262.87 285.04 262.83 285.66 262.87 286.27Z"
fill-rule="evenodd" fill="black"/>
<path d="M262.87 286.27L263.01 286.87 262.87 285.04 262.87 286.27Z"
fill-rule="evenodd" fill="black"/>
<path d="M263.01 286.87L263.01 284.45 262.87 285.04 263.01 286.87Z"
fill-rule="evenodd" fill="black"/>
<path d="M263.01 286.87L263.23 287.44 263.01 284.45 263.01 286.87Z"
fill-rule="evenodd" fill="black"/>
<path d="M263.23 287.44L263.23 283.88 263.01 284.45 263.23 287.44Z"
fill-rule="evenodd" fill="black"/>
<path d="M263.23 287.44L263.53 287.96 263.23 283.88 263.23 287.44Z"
fill-rule="evenodd" fill="black"/>
<path d="M263.53 287.96L263.53 283.35 263.23 283.88 263.53 287.96Z"
fill-rule="evenodd" fill="black"/>
<path d="M263.53 287.96L263.91 288.43 263.53 283.35 263.53 287.96Z"
fill-rule="evenodd" fill="black"/>
<path d="M263.91 288.43L263.91 282.89 263.53 283.35 263.91 288.43Z"
fill-rule="evenodd" fill="black"/>
<path d="M263.91 288.43L264.35 288.83 263.91 282.89 263.91 288.43Z"
fill-rule="evenodd" fill="black"/>
<path d="M264.35 288.83L264.35 282.49 263.91 282.89 264.35 288.83Z"
fill-rule="evenodd" fill="black"/>
<path d="M264.35 288.83L264.84 289.15 264.35 282.49 264.35 288.83Z"
fill-rule="evenodd" fill="black"/>
<path d="M264.84 289.15L264.84 282.16 264.35 282.49 264.84 289.15Z"
fill-rule="evenodd" fill="black"/>
<path d="M264.84 289.15L265.38 289.39 264.84 282.16 264.84 289.15Z"
fill-rule="evenodd" fill="black"/>
<path d="M265.38 289.39L265.38 281.93 264.84 282.16 265.38 289.39Z"
fill-rule="evenodd" fill="black"/>
<path d="M265.38 289.39L265.94 289.53 265.38 281.93 265.38 289.39Z"
fill-rule="evenodd" fill="black"/>
<path d="M265.94 289.53L265.94 281.79 265.38 281.93 265.94 289.53Z"
fill-rule="evenodd" fill="black"/>
<path d="M265.94 289.53L266.52 289.58 265.94 281.79 265.94 289.53Z"
fill-rule="evenodd" fill="black"/>
<path d="M266.52 289.58L266.52 281.74 265.94 281.79 266.52 289.58Z"
fill-rule="evenodd" fill="black"/>
<path d="M266.52 289.58L267.1 289.53 266.52 281.74 266.52 289.58Z"
fill-rule="evenodd" fill="black"/>
<path d="M267.1 289.53L267.1 281.79 266.52 281.74 267.1 289.53Z"
fill-rule="evenodd" fill="black"/>
<path d="M267.1 289.53L267.66 289.39 267.1 281.79 267.1 289.53Z"
fill-rule="evenodd" fill="black"/>
<path d="M267.66 289.39L267.66 281.93 267.1 281.79 267.66 289.39Z"
fill-rule="evenodd" fill="black"/>
<path d="M267.66 289.39L268.2 289.15 267.66 281.93 267.66 289.39Z"
fill-rule="evenodd" fill="black"/>
<path d="M268.2 289.15L268.2 282.16 267.66 281.93 268.2 289.15Z"
fill-rule="evenodd" fill="black"/>
<path d="M268.2 289.15L268.69 288.83 268.2 282.16 268.2 289.15Z"
fill-rule="evenodd" fill="black"/>
<path d="M268.69 288.83L268.69 282.49 268.2 282.16 268.69 288.83Z"
fill-rule="evenodd" fill="black"/>
<path d="M268.69 288.83L269.14 288.43 268.69 282.49 268.69 288.83Z"
fill-rule="evenodd" fill="black"/>
<path d="M269.14 288.43L269.14 282.89 268.69 282.49 269.14 288.43Z"
fill-rule="evenodd" fill="black"/>
<path d="M269.14 288.43L269.51 287.96 269.14 282.89 269.14 288.43Z"
fill-rule="evenodd" fill="black"/>
<path d="M269.51 287.96L269.51 283.35 269.14 282.89 269.51 287.96Z"
fill-rule="evenodd" fill="black"/>
<path d="M269.51 287.96L269.82 287.44 269.51 283.35 269.51 287.96Z"
fill-rule="evenodd" fill="black"/>
<path d="M269.82 287.44L269.82 283.88 269.51 283.35 269.82 287.44Z"
fill-rule="evenodd" fill="black"/>
<path d="M269.82 287.44L270.04 286.87 269.82 283.88 269.82 287.44Z"
fill-rule="evenodd" fill="black"/>
<path d="M270.04 286.87L270.04 284.45 269.82 283.88 270.04 286.87Z"
fill-rule="evenodd" fill="black"/>
<path d="M270.04 286.87L270.17 286.27 270.04 284.45 270.04 286.87Z"
fill-rule="evenodd" fill="black"/>
<path d="M270.17 286.27L270.17 285.04 270.04 284.45 270.17 286.27Z"
fill-rule="evenodd" fill="black"/>
<path d="M270.17 286.27L270.22 285.66 270.17 285.04 270.17 286.27Z"
fill-rule="evenodd" fill="black"/>
</g>
<g><path d="M189.23 97.51L189.23 96.28 189.19 96.89 189.23 97.51Z"
fill-rule="evenodd" fill="black"/>
<path d="M189.23 97.51L189.37 98.11 189.23 96.28 189.23 97.51Z"
fill-rule="evenodd" fill="black"/>
<path d="M189.37 98.11L189.37 95.68 189.23 96.28 189.37 98.11Z"
fill-rule="evenodd" fill="black"/>
<path d="M189.37 98.11L189.59 98.67 189.37 95.68 189.37 98.11Z"
fill-rule="evenodd" fill="black"/>
<path d="M189.59 98.67L189.59 95.11 189.37 95.68 189.59 98.67Z"
fill-rule="evenodd" fill="black"/>
<path d="M189.59 98.67L189.89 99.2 189.59 95.11 189.59 98.67Z"
fill-rule="evenodd" fill="black"/>
<path d="M189.89 99.2L189.89 94.59 189.59 95.11 189.89 99.2Z"
fill-rule="evenodd" fill="black"/>
<path d="M189.89 99.2L190.27 99.67 189.89 94.59 189.89 99.2Z"
fill-rule="evenodd" fill="black"/>
<path d="M190.27 99.67L190.27 94.12 189.89 94.59 190.27 99.67Z"
fill-rule="evenodd" fill="black"/>
<path d="M190.27 99.67L190.71 100.07 190.27 94.12 190.27 99.67Z"
fill-rule="evenodd" fill="black"/>
<path d="M190.71 100.07L190.71 93.72 190.27 94.12 190.71 100.07Z"
fill-rule="evenodd" fill="black"/>
<path d="M190.71 100.07L191.21 100.39 190.71 93.72 190.71 100.07Z"
fill-rule="evenodd" fill="black"/>
<path d="M191.21 100.39L191.21 93.4 190.71 93.72 191.21 100.39Z"
fill-rule="evenodd" fill="black"/>
<path d="M191.21 100.39L191.74 100.62 191.21 93.4 191.21 100.39Z"
fill-rule="evenodd" fill="black"/>
<path d="M191.74 100.62L191.74 93.16 191.21 93.4 191.74 100.62Z"
fill-rule="evenodd" fill="black"/>
<path d="M191.74 100.62L192.31 100.77 191.74 93.16 191.74 100.62Z"
fill-rule="evenodd" fill="black"/>
<path d="M192.31 100.77L192.31 93.02 191.74 93.16 192.31 100.77Z"
fill-rule="evenodd" fill="black"/>
<path d="M192.31 100.77L192.88 100.82 192.31 93.02 192.31 100.77Z"
fill-rule="evenodd" fill="black"/>
<path d="M192.88 100.82L192.88 92.97 192.31 93.02 192.88 100.82Z"
fill-rule="evenodd" fill="black"/>
<path d="M192.88 100.82L193.46 100.77 192.88 92.97 192.88 100.82Z"
fill-rule="evenodd" fill="black"/>
<path d="M193.46 100.77L193.46 93.02 192.88 92.97 193.46 100.77Z"
fill-rule="evenodd" fill="black"/>
<path d="M193.46 100.77L194.03 100.62 193.46 93.02 193.46 100.77Z"
fill-rule="evenodd" fill="black"/>
<path d="M194.03 100.62L194.03 93.16 193.46 93.02 194.03 100.62Z"
fill-rule="evenodd" fill="black"/>
<path d="M194.03 100.62L194.56 100.39 194.03 93.16 194.03 100.62Z"
fill-rule="evenodd" fill="black"/>
<path d="M194.56 100.39L194.56 93.4 194.03 93.16 194.56 100.39Z"
fill-rule="evenodd" fill="black"/>
<path d="M194.56 100.39L195.06 100.07 194.56 93.4 194.56 100.39Z"
fill-rule="evenodd" fill="black"/>
<path d="M195.06 100.07L195.06 93.72 194.56 93.4 195.06 100.07Z"
fill-rule="evenodd" fill="black"/>
<path d="M195.06 100.07L195.5 99.67 195.06 93.72 195.06 100.07Z"
fill-rule="evenodd" fill="black"/>
<path d="M195.5 99.67L195.5 94.12 195.06 93.72 195.5 99.67Z"
fill-rule="evenodd" fill="black"/>
<path d="M195.5 99.67L195.87 99.2 195.5 94.12 195.5 99.67Z"
fill-rule="evenodd" fill="black"/>
<path d="M195.87 99.2L195.87 94.59 195.5 94.12 195.87 99.2Z"
fill-rule="evenodd" fill="black"/>
<path d="M195.87 99.2L196.18 98.67 195.87 94.59 195.87 99.2Z"
fill-rule="evenodd" fill="black"/>
<path d="M196.18 98.67L196.18 95.11 195.87 94.59 196.18 98.67Z"
fill-rule="evenodd" fill="black"/>
<path d="M196.18 98.67L196.4 98.11 196.18 95.11 196.18 98.67Z"
fill-rule="evenodd" fill="black"/>
<path d="M196.4 98.11L196.4 95.68 196.18 95.11 196.4 98.11Z"
fill-rule="evenodd" fill="black"/>
<path d="M196.4 98.11L196.54 97.51 196.4 95.68 196.4 98.11Z"
fill-rule="evenodd" fill="black"/>
<path d="M196.54 97.51L196.54 96.28 196.4 95.68 196.54 97.51Z"
fill-rule="evenodd" fill="black"/>
<path d="M196.54 97.51L196.58 96.89 196.54 96.28 196.54 97.51Z"
fill-rule="evenodd" fill="black"/>
</g>
<g><path d="M171.79 267.8L173.64 276.47M173.64 276.47L178.86 283.64M178.86 283.64L186.56 288.07M186.56 288.07L195.4 289M195.4 289L203.85 286.26M203.85 286.26L210.45 280.33M210.45 280.33L214.06 272.23M214.06 272.23L214.06 263.36M214.06 263.36L210.45 255.27M210.45 255.27L203.85 249.33M203.85 249.33L195.4 246.59M195.4 246.59L186.56 247.52M186.56 247.52L178.86 251.95M178.86 251.95L173.64 259.12M173.64 259.12L171.79 267.8"
fill="none" stroke="black" stroke-width="12"/>
</g>
<g><path d="M141.88 287.03L143.72 295.7M143.72 295.7L148.95 302.87M148.95 302.87L156.64 307.3M156.64 307.3L165.48 308.23M165.48 308.23L173.93 305.49M173.93 305.49L180.53 299.56M180.53 299.56L184.15 291.46M184.15 291.46L184.15 282.6M184.15 282.6L180.53 274.5M180.53 274.5L173.93 268.57M173.93 268.57L165.48 265.83M165.48 265.83L156.64 266.75M156.64 266.75L148.95 271.19M148.95 271.19L143.72 278.36M143.72 278.36L141.88 287.03"
fill="none" stroke="black" stroke-width="12"/>
</g>
<g><path d="M201.71 287.03L203.56 295.7M203.56 295.7L208.78 302.87M208.78 302.87L216.48 307.3M216.48 307.3L225.31 308.23M225.31 308.23L233.76 305.49M233.76 305.49L240.37 299.56M240.37 299.56L243.98 291.46M243.98 291.46L243.98 282.6M243.98 282.6L240.37 274.5M240.37 274.5L233.76 268.57M233.76 268.57L225.31 265.83M225.31 265.83L216.48 266.75M216.48 266.75L208.78 271.19M208.78 271.19L203.56 278.36M203.56 278.36L201.71 287.03"
fill="none" stroke="black" stroke-width="12"/>
</g>
<g><path d="M223.36 279.85L223.36 288.37M223.36 288.37L228.49 293.49"
fill="none" stroke="black" stroke-width="12"/>
</g>
<g><path d="M223.36 288.37L218.8 292.92"
fill="none" stroke="black" stroke-width="12"/>
</g>
<g><path d="M193.45 254.15L193.45 262.68M193.45 262.68L198.58 267.8"
fill="none" stroke="black" stroke-width="12"/>
</g>
<g><path d="M193.45 262.68L188.89 267.23"
fill="none" stroke="black" stroke-width="12"/>
</g>
<g><path d="M163.25 284L170.94 291.68"
fill="none" stroke="black" stroke-width="12"/>
</g>
<g><path d="M158.97 284L150.42 292.53M150.42 292.53L171.79 292.53"
fill="none" stroke="black" stroke-width="12"/>
</g>
<g><path d="M193.16 68.26L193.16 246.52"
fill="none" stroke="black" stroke-width="12"/>
</g>
<g><path d="M202.14 66.98L192.95 57.79M192.95 57.79L183.76 66.98"
fill="none" stroke="black" stroke-width="12"/>
</g>
<g><path d="M193.22 0.73L193.22 58.38"
fill="none" stroke="black" stroke-width="12"/>
</g>
<g><path d="M201.71 75.53L193.16 66.98M193.16 66.98L184.61 75.53"
fill="none" stroke="black" stroke-width="12"/>
</g>
<g><path d="M172.65 306.36L174.5 315.03M174.5 315.03L179.72 322.2M179.72 322.2L187.41 326.64M187.41 326.64L196.25 327.56M196.25 327.56L204.7 324.82M204.7 324.82L211.3 318.89M211.3 318.89L214.92 310.79M214.92 310.79L214.92 301.93M214.92 301.93L211.3 293.83M211.3 293.83L204.7 287.9M204.7 287.9L196.25 285.16M196.25 285.16L187.41 286.09M187.41 286.09L179.72 290.52M179.72 290.52L174.5 297.69M174.5 297.69L172.65 306.36"
fill="none" stroke="black" stroke-width="12"/>
</g>
<g><path d="M194.3 299.18L194.3 307.71M194.3 307.71L199.43 312.82"
fill="none" stroke="black" stroke-width="12"/>
</g>
<g><path d="M194.3 307.71L189.74 312.26"
fill="none" stroke="black" stroke-width="12"/>
</g>
<g><path d="M250.9 96.89L194.44 96.89"
fill="none" stroke="black" stroke-width="12"/>
</g>
<g><path d="M251.29 149.89L263.99 136.41"
fill="none" stroke="black" stroke-width="12"/>
</g>
<g><path d="M251.29 192.16L251.29 149.89"
fill="none" stroke="black" stroke-width="12"/>
</g>
<g><path d="M238.46 192.16L264.11 192.16"
fill="none" stroke="black" stroke-width="12"/>
</g>
<g><path d="M242.74 196.13L259.83 196.13"
fill="none" stroke="black" stroke-width="12"/>
</g>
<g><path d="M247.01 200.11L255.56 200.11"
fill="none" stroke="black" stroke-width="12"/>
</g>
<g><path d="M250.9 135.36L250.9 96.89"
fill="none" stroke="black" stroke-width="12"/>
</g>
<g><path d="M182.48 178.1L203.85 178.1M203.85 178.1L203.85 135.36M203.85 135.36L182.48 135.36M182.48 135.36L182.48 178.1"
fill="none" stroke="black" stroke-width="12"/>
</g>
<g><path d="M123.93 122.54L141.02 122.54M141.02 122.54L141.02 165.28M141.02 165.28L123.93 165.28M123.93 165.28L123.93 122.54"
fill="none" stroke="black" stroke-width="12"/>
</g>
<g><path d="M132.47 165.28L132.47 184.93M132.47 184.93L132.47 165.28"
fill="none" stroke="black" stroke-width="12"/>
</g>
<g><path d="M132.47 96.89L132.47 122.54M132.47 122.54L132.47 96.89"
fill="none" stroke="black" stroke-width="12"/>
</g>
<g><path d="M123.93 161L141.02 161"
fill="none" stroke="black" stroke-width="12"/>
</g>
<g><path d="M123.93 156.73L141.02 156.73"
fill="none" stroke="black" stroke-width="12"/>
</g>
<g><path d="M132.47 137.92L132.47 122.54"
fill="none" stroke="black" stroke-width="12"/>
</g>
<g><path d="M132.47 96.89L193.16 96.89"
fill="none" stroke="black" stroke-width="12"/>
</g>
<g><path d="M132.47 190.92L132.47 173.82"
fill="none" stroke="black" stroke-width="12"/>
</g>
<g><path d="M119.65 191.77L145.3 191.77"
fill="none" stroke="black" stroke-width="12"/>
</g>
<g><path d="M123.93 195.62L141.02 195.62"
fill="none" stroke="black" stroke-width="12"/>
</g>
<g><path d="M128.2 199.47L136.75 199.47"
fill="none" stroke="black" stroke-width="12"/>
</g>
<g><path d="M192.88 100.82L195.26 99.9M195.26 99.9L196.52 97.58M196.52 97.58L196.09 94.93M196.09 94.93L194.15 93.21M194.15 93.21L191.62 93.21M191.62 93.21L189.68 94.93M189.68 94.93L189.24 97.58M189.24 97.58L190.51 99.9M190.51 99.9L192.88 100.82"
fill="none" stroke="black" stroke-width="12"/>
</g>
<g><path d="M267.1 256.84L211.49 256.84"
fill="none" stroke="black" stroke-width="12"/>
</g>
<g><path d="M267.1 285.46L244.39 285.46"
fill="none" stroke="black" stroke-width="12"/>
</g>
<g><path d="M194.32 327.68L194.32 352.51"
fill="none" stroke="black" stroke-width="12"/>
</g>
<g><path d="M162.49 308.33L162.49 352.25"
fill="none" stroke="black" stroke-width="12"/>
</g>
<g><path d="M267.1 256.84L267.1 352.25"
fill="none" stroke="black" stroke-width="12"/>
</g>
<g><path d="M267.1 352.25L162.49 352.25"
fill="none" stroke="black" stroke-width="12"/>
</g>
<g><path d="M267.53 391.32L267.1 352.25"
fill="none" stroke="black" stroke-width="12"/>
</g>
<g><path d="M254.7 391.32L280.35 391.32"
fill="none" stroke="black" stroke-width="12"/>
</g>
<g><path d="M258.98 395.29L276.07 395.29"
fill="none" stroke="black" stroke-width="12"/>
</g>
<g><path d="M263.25 399.27L271.8 399.27"
fill="none" stroke="black" stroke-width="12"/>
</g>
<g><path d="M266.52 289.58L268.9 288.66M268.9 288.66L270.16 286.34M270.16 286.34L269.72 283.7M269.72 283.7L267.79 281.97M267.79 281.97L265.26 281.97M265.26 281.97L263.32 283.7M263.32 283.7L262.88 286.34M262.88 286.34L264.15 288.66M264.15 288.66L266.52 289.58"
fill="none" stroke="black" stroke-width="12"/>
</g>
<g><path d="M194.44 355.82L196.82 354.91M196.82 354.91L198.08 352.58M198.08 352.58L197.65 349.94M197.65 349.94L195.71 348.22M195.71 348.22L193.18 348.22M193.18 348.22L191.24 349.94M191.24 349.94L190.8 352.58M190.8 352.58L192.07 354.91M192.07 354.91L194.44 355.82"
fill="none" stroke="black" stroke-width="12"/>
</g>
<g><path d="M266.52 355.82L268.9 354.91M268.9 354.91L270.16 352.58M270.16 352.58L269.72 349.94M269.72 349.94L267.79 348.22M267.79 348.22L265.26 348.22M265.26 348.22L263.32 349.94M263.32 349.94L262.88 352.58M262.88 352.58L264.15 354.91M264.15 354.91L266.52 355.82"
fill="none" stroke="black" stroke-width="12"/>
</g>
<g><path d="M249.33 135.36L252.47 135.36"
fill="none" stroke="black" stroke-width="12"/>
</g>
<g><path d="M132.31 137.92L135.24 130.27"
fill="none" stroke="black" stroke-width="12"/>
</g>
<g><path d="M132.47 137.92L129.38 130.11"
fill="none" stroke="black" stroke-width="12"/>
</g>
</g>
</svg>
