<?xml version="1.0" standalone="no"?><svg xmlns="http://www.w3.org/2000/svg" width="400.000" height="400.000" viewBox="0.0 0.0 400.000 400.000" version="1.1">
  <title>Produce by Acme CAD Converter</title>
  <desc>Produce by Acme CAD Converter</desc>
<g id="0" display="visible">
<g><path d="M116.97 158.49L118.91 140.64M118.91 140.64L124.65 123.62M124.65 123.62L133.9 108.24M133.9 108.24L146.25 95.21M146.25 95.21L161.11 85.13M161.11 85.13L177.79 78.48M177.79 78.48L195.5 75.58M195.5 75.58L213.43 76.55M213.43 76.55L230.73 81.36M230.73 81.36L246.59 89.76M246.59 89.76L260.28 101.39M260.28 101.39L271.14 115.68M271.14 115.68L278.68 131.98M278.68 131.98L282.54 149.51M282.54 149.51L282.54 167.46M282.54 167.46L278.68 185M278.68 185L271.14 201.29M271.14 201.29L260.28 215.58M260.28 215.58L246.59 227.21M246.59 227.21L230.73 235.62M230.73 235.62L213.43 240.42M213.43 240.42L195.5 241.39M195.5 241.39L177.79 238.49M177.79 238.49L161.11 231.84M161.11 231.84L146.25 221.77M146.25 221.77L133.9 208.73M133.9 208.73L124.65 193.35M124.65 193.35L118.91 176.33M118.91 176.33L116.97 158.49"
fill="none" stroke="black" stroke-width="12"/>
</g>
<g><path d="M116.97 283.03L118.91 265.18M118.91 265.18L124.65 248.17M124.65 248.17L133.9 232.78M133.9 232.78L146.25 219.75M146.25 219.75L161.11 209.67M161.11 209.67L177.79 203.03M177.79 203.03L195.5 200.12M195.5 200.12L213.43 201.09M213.43 201.09L230.73 205.9M230.73 205.9L246.59 214.31M246.59 214.31L260.28 225.93M260.28 225.93L271.14 240.22M271.14 240.22L278.68 256.52M278.68 256.52L282.54 274.05M282.54 274.05L282.54 292M282.54 292L278.68 309.54M278.68 309.54L271.14 325.83M271.14 325.83L260.28 340.13M260.28 340.13L246.59 351.75M246.59 351.75L230.73 360.16M230.73 360.16L213.43 364.96M213.43 364.96L195.5 365.93M195.5 365.93L177.79 363.03M177.79 363.03L161.11 356.38M161.11 356.38L146.25 346.31M146.25 346.31L133.9 333.27M133.9 333.27L124.65 317.89M124.65 317.89L118.91 300.88M118.91 300.88L116.97 283.03"
fill="none" stroke="black" stroke-width="12"/>
</g>
<g><path d="M203.32 258.12L203.32 291.33"
fill="none" stroke="black" stroke-width="12"/>
</g>
<g><path d="M170.11 324.54L203.32 291.33M203.32 291.33L236.53 324.54"
fill="none" stroke="black" stroke-width="12"/>
</g>
<g><path d="M203.32 258.12L203.32 247.05"
fill="none" stroke="black" stroke-width="12"/>
</g>
<g><path d="M200 107.56L200 140.77"
fill="none" stroke="black" stroke-width="12"/>
</g>
<g><path d="M166.79 173.98L200 140.77M200 140.77L233.21 173.98"
fill="none" stroke="black" stroke-width="12"/>
</g>
<g><path d="M200 107.56L200 96.49"
fill="none" stroke="black" stroke-width="12"/>
</g>
<g><path d="M200 140.77L216.61 140.77"
fill="none" stroke="black" stroke-width="12"/>
</g>
<g><path d="M332.84 0.73L67.16 399.27"
fill="none" stroke="black" stroke-width="12"/>
</g>
<g><path d="M299.63 17.34L332.84 0.73"
fill="none" stroke="black" stroke-width="12"/>
</g>
<g><path d="M332.84 33.94L332.84 0.73"
fill="none" stroke="black" stroke-width="12"/>
</g>
</g>
</svg>
