<?xml version="1.0" standalone="no"?><svg xmlns="http://www.w3.org/2000/svg" width="400.000" height="400.000" viewBox="0.0 0.0 400.000 400.000" version="1.1">
  <title>Produce by Acme CAD Converter</title>
  <desc>Produce by Acme CAD Converter</desc>
<g id="0" display="visible">
<g><path d="M110.41 130.6L110.41 128.95 110.35 129.78 110.41 130.6Z"
fill-rule="evenodd" fill="black"/>
<path d="M110.41 130.6L110.6 131.41 110.41 128.95 110.41 130.6Z"
fill-rule="evenodd" fill="black"/>
<path d="M110.6 131.41L110.6 128.14 110.41 128.95 110.6 131.41Z"
fill-rule="evenodd" fill="black"/>
<path d="M110.6 131.41L110.9 132.17 110.6 128.14 110.6 131.41Z"
fill-rule="evenodd" fill="black"/>
<path d="M110.9 132.17L110.9 127.38 110.6 128.14 110.9 132.17Z"
fill-rule="evenodd" fill="black"/>
<path d="M110.9 132.17L111.32 132.88 110.9 127.38 110.9 132.17Z"
fill-rule="evenodd" fill="black"/>
<path d="M111.32 132.88L111.32 126.67 110.9 127.38 111.32 132.88Z"
fill-rule="evenodd" fill="black"/>
<path d="M111.32 132.88L111.84 133.51 111.32 126.67 111.32 132.88Z"
fill-rule="evenodd" fill="black"/>
<path d="M111.84 133.51L111.84 126.04 111.32 126.67 111.84 133.51Z"
fill-rule="evenodd" fill="black"/>
<path d="M111.84 133.51L112.44 134.05 111.84 126.04 111.84 133.51Z"
fill-rule="evenodd" fill="black"/>
<path d="M112.44 134.05L112.44 125.5 111.84 126.04 112.44 134.05Z"
fill-rule="evenodd" fill="black"/>
<path d="M112.44 134.05L113.12 134.48 112.44 125.5 112.44 134.05Z"
fill-rule="evenodd" fill="black"/>
<path d="M113.12 134.48L113.12 125.07 112.44 125.5 113.12 134.48Z"
fill-rule="evenodd" fill="black"/>
<path d="M113.12 134.48L113.85 134.8 113.12 125.07 113.12 134.48Z"
fill-rule="evenodd" fill="black"/>
<path d="M113.85 134.8L113.85 124.75 113.12 125.07 113.85 134.8Z"
fill-rule="evenodd" fill="black"/>
<path d="M113.85 134.8L114.63 134.99 113.85 124.75 113.85 134.8Z"
fill-rule="evenodd" fill="black"/>
<path d="M114.63 134.99L114.63 124.56 113.85 124.75 114.63 134.99Z"
fill-rule="evenodd" fill="black"/>
<path d="M114.63 134.99L115.42 135.06 114.63 124.56 114.63 134.99Z"
fill-rule="evenodd" fill="black"/>
<path d="M115.42 135.06L115.42 124.5 114.63 124.56 115.42 135.06Z"
fill-rule="evenodd" fill="black"/>
<path d="M115.42 135.06L116.21 134.99 115.42 124.5 115.42 135.06Z"
fill-rule="evenodd" fill="black"/>
<path d="M116.21 134.99L116.21 124.56 115.42 124.5 116.21 134.99Z"
fill-rule="evenodd" fill="black"/>
<path d="M116.21 134.99L116.99 134.8 116.21 124.56 116.21 134.99Z"
fill-rule="evenodd" fill="black"/>
<path d="M116.99 134.8L116.99 124.75 116.21 124.56 116.99 134.8Z"
fill-rule="evenodd" fill="black"/>
<path d="M116.99 134.8L117.72 134.48 116.99 124.75 116.99 134.8Z"
fill-rule="evenodd" fill="black"/>
<path d="M117.72 134.48L117.72 125.07 116.99 124.75 117.72 134.48Z"
fill-rule="evenodd" fill="black"/>
<path d="M117.72 134.48L118.4 134.05 117.72 125.07 117.72 134.48Z"
fill-rule="evenodd" fill="black"/>
<path d="M118.4 134.05L118.4 125.5 117.72 125.07 118.4 134.05Z"
fill-rule="evenodd" fill="black"/>
<path d="M118.4 134.05L119.01 133.51 118.4 125.5 118.4 134.05Z"
fill-rule="evenodd" fill="black"/>
<path d="M119.01 133.51L119.01 126.04 118.4 125.5 119.01 133.51Z"
fill-rule="evenodd" fill="black"/>
<path d="M119.01 133.51L119.52 132.88 119.01 126.04 119.01 133.51Z"
fill-rule="evenodd" fill="black"/>
<path d="M119.52 132.88L119.52 126.67 119.01 126.04 119.52 132.88Z"
fill-rule="evenodd" fill="black"/>
<path d="M119.52 132.88L119.94 132.17 119.52 126.67 119.52 132.88Z"
fill-rule="evenodd" fill="black"/>
<path d="M119.94 132.17L119.94 127.38 119.52 126.67 119.94 132.17Z"
fill-rule="evenodd" fill="black"/>
<path d="M119.94 132.17L120.24 131.41 119.94 127.38 119.94 132.17Z"
fill-rule="evenodd" fill="black"/>
<path d="M120.24 131.41L120.24 128.14 119.94 127.38 120.24 131.41Z"
fill-rule="evenodd" fill="black"/>
<path d="M120.24 131.41L120.43 130.6 120.24 128.14 120.24 131.41Z"
fill-rule="evenodd" fill="black"/>
<path d="M120.43 130.6L120.43 128.95 120.24 128.14 120.43 130.6Z"
fill-rule="evenodd" fill="black"/>
<path d="M120.43 130.6L120.49 129.78 120.43 128.95 120.43 130.6Z"
fill-rule="evenodd" fill="black"/>
</g>
<g><path d="M182.09 367.44L182.09 362.31 181.03 364.88 182.09 367.44Z"
fill-rule="evenodd" fill="black"/>
<path d="M182.09 367.44L184.66 368.51 182.09 362.31 182.09 367.44Z"
fill-rule="evenodd" fill="black"/>
<path d="M184.66 368.51L184.66 361.25 182.09 362.31 184.66 368.51Z"
fill-rule="evenodd" fill="black"/>
<path d="M184.66 368.51L187.22 367.44 184.66 361.25 184.66 368.51Z"
fill-rule="evenodd" fill="black"/>
<path d="M187.22 367.44L187.22 362.31 184.66 361.25 187.22 367.44Z"
fill-rule="evenodd" fill="black"/>
<path d="M187.22 367.44L188.29 364.88 187.22 362.31 187.22 367.44Z"
fill-rule="evenodd" fill="black"/>
</g>
<g><path d="M173.71 391.66L196.52 391.66"
fill="none" stroke="black" stroke-width="12"/>
</g>
<g><path d="M176.56 395.47L193.67 395.47"
fill="none" stroke="black" stroke-width="12"/>
</g>
<g><path d="M180.84 399.27L189.39 399.27"
fill="none" stroke="black" stroke-width="12"/>
</g>
<g><path d="M185.12 391.31L185.12 331.47"
fill="none" stroke="black" stroke-width="12"/>
</g>
<g><path d="M115.42 331.47L185.12 331.47"
fill="none" stroke="black" stroke-width="12"/>
</g>
<g><path d="M91.51 337.28L93.31 346.3M93.31 346.3L98.43 353.94M98.43 353.94L106.09 359.05M106.09 359.05L115.12 360.84M115.12 360.84L124.16 359.05M124.16 359.05L131.82 353.94M131.82 353.94L136.94 346.3M136.94 346.3L138.73 337.28M138.73 337.28L136.94 328.27M136.94 328.27L131.82 320.63M131.82 320.63L124.16 315.52M124.16 315.52L115.12 313.73M115.12 313.73L106.09 315.52M106.09 315.52L98.43 320.63M98.43 320.63L93.31 328.27M93.31 328.27L91.51 337.28"
fill="none" stroke="black" stroke-width="12"/>
</g>
<g><path d="M67.9 360.84L69.7 369.85M69.7 369.85L74.82 377.49M74.82 377.49L82.48 382.6M82.48 382.6L91.51 384.39M91.51 384.39L100.55 382.6M100.55 382.6L108.21 377.49M108.21 377.49L113.33 369.85M113.33 369.85L115.12 360.84M115.12 360.84L113.33 351.83M113.33 351.83L108.21 344.18M108.21 344.18L100.55 339.08M100.55 339.08L91.51 337.28M91.51 337.28L82.48 339.08M82.48 339.08L74.82 344.18M74.82 344.18L69.7 351.83M69.7 351.83L67.9 360.84"
fill="none" stroke="black" stroke-width="12"/>
</g>
<g><path d="M115.12 360.84L116.92 369.85M116.92 369.85L122.04 377.49M122.04 377.49L129.7 382.6M129.7 382.6L138.73 384.39M138.73 384.39L147.77 382.6M147.77 382.6L155.43 377.49M155.43 377.49L160.55 369.85M160.55 369.85L162.34 360.84M162.34 360.84L160.55 351.83M160.55 351.83L155.43 344.18M155.43 344.18L147.77 339.08M147.77 339.08L138.73 337.28M138.73 337.28L129.7 339.08M129.7 339.08L122.04 344.18M122.04 344.18L116.92 351.83M116.92 351.83L115.12 360.84"
fill="none" stroke="black" stroke-width="12"/>
</g>
<g><path d="M139.05 356.13L139.05 365.55M139.05 365.55L144.72 371.2"
fill="none" stroke="black" stroke-width="12"/>
</g>
<g><path d="M139.05 365.55L134.01 370.57"
fill="none" stroke="black" stroke-width="12"/>
</g>
<g><path d="M115.44 322.21L115.44 331.63M115.44 331.63L121.1 337.28"
fill="none" stroke="black" stroke-width="12"/>
</g>
<g><path d="M115.44 331.63L110.4 336.66"
fill="none" stroke="black" stroke-width="12"/>
</g>
<g><path d="M91.51 360.84L100.01 369.32"
fill="none" stroke="black" stroke-width="12"/>
</g>
<g><path d="M86.79 360.84L77.35 370.26M77.35 370.26L100.96 370.26"
fill="none" stroke="black" stroke-width="12"/>
</g>
<g><path d="M115.42 293.56L115.39 313.8"
fill="none" stroke="black" stroke-width="12"/>
</g>
<g><path d="M102.75 235.23L128.09 235.23M128.09 235.23L128.09 176.91M128.09 176.91L102.75 176.91M102.75 176.91L102.75 235.23"
fill="none" stroke="black" stroke-width="12"/>
</g>
<g><path d="M115.42 235.23L115.42 176.91M115.42 176.91L115.42 235.23"
fill="none" stroke="black" stroke-width="12"/>
</g>
<g><path d="M115.42 176.91L115.42 131.22M115.42 131.22L115.42 176.91"
fill="none" stroke="black" stroke-width="12"/>
</g>
<g><path d="M115.42 293.56L115.42 235.23M115.42 235.23L115.42 293.56"
fill="none" stroke="black" stroke-width="12"/>
</g>
<g><path d="M188.91 116.96L188.91 142.31M188.91 142.31L252.27 142.31M252.27 142.31L252.27 116.96M252.27 116.96L188.91 116.96"
fill="none" stroke="black" stroke-width="12"/>
</g>
<g><path d="M254.8 129.64L315.63 129.64M315.63 129.64L254.8 129.64"
fill="none" stroke="black" stroke-width="12"/>
</g>
<g><path d="M115.42 129.64L188.91 129.64M188.91 129.64L115.42 129.64"
fill="none" stroke="black" stroke-width="12"/>
</g>
<g><path d="M245.93 116.96L245.93 142.31"
fill="none" stroke="black" stroke-width="12"/>
</g>
<g><path d="M239.59 116.96L239.59 142.31"
fill="none" stroke="black" stroke-width="12"/>
</g>
<g><path d="M211.71 129.64L188.91 129.64"
fill="none" stroke="black" stroke-width="12"/>
</g>
<g><path d="M319.43 129.64L268.74 129.64"
fill="none" stroke="black" stroke-width="12"/>
</g>
<g><path d="M319.43 110.63L319.43 148.64"
fill="none" stroke="black" stroke-width="12"/>
</g>
<g><path d="M325.76 116.96L325.76 142.31"
fill="none" stroke="black" stroke-width="12"/>
</g>
<g><path d="M332.1 123.3L332.1 135.97"
fill="none" stroke="black" stroke-width="12"/>
</g>
<g><path d="M115.42 93.24L115.42 129.64"
fill="none" stroke="black" stroke-width="12"/>
</g>
<g><path d="M115.42 0.73L115.42 77.56"
fill="none" stroke="black" stroke-width="12"/>
</g>
<g><path d="M139.18 365.05L186.7 365.05"
fill="none" stroke="black" stroke-width="12"/>
</g>
<g><path d="M181.03 364.88L182.09 362.31M182.09 362.31L184.66 361.25M184.66 361.25L187.22 362.31M187.22 362.31L188.29 364.88M188.29 364.88L187.22 367.44M187.22 367.44L184.66 368.51M184.66 368.51L182.09 367.44M182.09 367.44L181.03 364.88"
fill="none" stroke="black" stroke-width="12"/>
</g>
<g><path d="M115.42 135.06L118.68 133.82M118.68 133.82L120.41 130.69M120.41 130.69L119.81 127.14M119.81 127.14L117.15 124.81M117.15 124.81L113.69 124.81M113.69 124.81L111.03 127.14M111.03 127.14L110.43 130.69M110.43 130.69L112.16 133.82M112.16 133.82L115.42 135.06"
fill="none" stroke="black" stroke-width="12"/>
</g>
<g><path d="M128.65 90.31L115.03 76.69M115.03 76.69L101.4 90.31"
fill="none" stroke="black" stroke-width="12"/>
</g>
<g><path d="M128.01 102.98L115.34 90.31M115.34 90.31L102.67 102.98"
fill="none" stroke="black" stroke-width="12"/>
</g>
<g><path d="M211.71 129.88L200.52 125.13"
fill="none" stroke="black" stroke-width="12"/>
</g>
<g><path d="M211.71 129.64L199.97 133.8"
fill="none" stroke="black" stroke-width="12"/>
</g>
</g>
</svg>
