<?xml version="1.0" standalone="no"?><svg xmlns="http://www.w3.org/2000/svg" width="400.000" height="400.000" viewBox="0.0 0.0 400.000 400.000" version="1.1">
  <title>Produce by Acme CAD Converter</title>
  <desc>Produce by Acme CAD Converter</desc>
<g id="0" display="visible">
<g><path d="M200 0.73L200 27.3"
fill="none" stroke="black" stroke-width="12"/>
</g>
<g><path d="M200 177.44L211.55 165.89"
fill="none" stroke="black" stroke-width="12"/>
</g>
<g><path d="M200 177.44L188.45 165.89"
fill="none" stroke="black" stroke-width="12"/>
</g>
<g><path d="M200 177.44L200 119.69"
fill="none" stroke="black" stroke-width="12"/>
</g>
<g><path d="M211.55 96.59L188.45 96.59M188.45 96.59L188.45 119.69M188.45 119.69L211.55 119.69M211.55 119.69L211.55 96.59"
fill="none" stroke="black" stroke-width="12"/>
</g>
<g><path d="M200 96.59L200 38.85"
fill="none" stroke="black" stroke-width="12"/>
</g>
<g><path d="M211.55 50.4L200 38.85"
fill="none" stroke="black" stroke-width="12"/>
</g>
<g><path d="M188.45 50.4L200 38.85"
fill="none" stroke="black" stroke-width="12"/>
</g>
<g><path d="M211.55 38.85L200 27.3"
fill="none" stroke="black" stroke-width="12"/>
</g>
<g><path d="M188.45 38.85L200 27.3"
fill="none" stroke="black" stroke-width="12"/>
</g>
<g><path d="M189.37 176.8L200.06 187.48"
fill="none" stroke="black" stroke-width="12"/>
</g>
<g><path d="M212.47 176.8L200.06 187.48"
fill="none" stroke="black" stroke-width="12"/>
</g>
<g><path d="M200 221.41L188.45 209.86M188.45 209.86L211.55 209.86M211.55 209.86L200 221.41"
fill="none" stroke="black" stroke-width="12"/>
</g>
<g><path d="M200 221.41L200 290.7"
fill="none" stroke="black" stroke-width="12"/>
</g>
<g><path d="M200 290.7L211.55 302.25M211.55 302.25L188.45 302.25M188.45 302.25L200 290.7"
fill="none" stroke="black" stroke-width="12"/>
</g>
<g><path d="M200.06 187.48L200.06 209.14"
fill="none" stroke="black" stroke-width="12"/>
</g>
<g><path d="M176.9 343.83L178.66 334.99M178.66 334.99L183.67 327.5M183.67 327.5L191.16 322.49M191.16 322.49L200 320.73M200 320.73L208.84 322.49M208.84 322.49L216.33 327.5M216.33 327.5L221.34 334.99M221.34 334.99L223.1 343.83M223.1 343.83L221.34 352.67M221.34 352.67L216.33 360.16M216.33 360.16L208.84 365.17M208.84 365.17L200 366.93M200 366.93L191.16 365.17M191.16 365.17L183.67 360.16M183.67 360.16L178.66 352.67M178.66 352.67L176.9 343.83"
fill="none" stroke="black" stroke-width="12"/>
</g>
<g><path d="M176.9 376.17L178.66 367.33M178.66 367.33L183.67 359.84M183.67 359.84L191.16 354.83M191.16 354.83L200 353.07M200 353.07L208.84 354.83M208.84 354.83L216.33 359.84M216.33 359.84L221.34 367.33M221.34 367.33L223.1 376.17M223.1 376.17L221.34 385.01M221.34 385.01L216.33 392.5M216.33 392.5L208.84 397.51M208.84 397.51L200 399.27M200 399.27L191.16 397.51M191.16 397.51L183.67 392.5M183.67 392.5L178.66 385.01M178.66 385.01L176.9 376.17"
fill="none" stroke="black" stroke-width="12"/>
</g>
<g><path d="M200 301.01L200 319.58"
fill="none" stroke="black" stroke-width="12"/>
</g>
</g>
</svg>
