<?xml version="1.0" standalone="no"?><svg xmlns="http://www.w3.org/2000/svg" width="400.000" height="400.000" viewBox="0.0 0.0 400.000 400.000" version="1.1">
  <title>Produce by Acme CAD Converter</title>
  <desc>Produce by Acme CAD Converter</desc>
<g id="0" display="visible">
<g><path d="M190.73 185.74L190.73 185.05 190.7 185.39 190.73 185.74Z"
fill-rule="evenodd" fill="black"/>
<path d="M190.73 185.74L190.81 186.07 190.73 185.05 190.73 185.74Z"
fill-rule="evenodd" fill="black"/>
<path d="M190.81 186.07L190.81 184.72 190.73 185.05 190.81 186.07Z"
fill-rule="evenodd" fill="black"/>
<path d="M190.81 186.07L190.94 186.39 190.81 184.72 190.81 186.07Z"
fill-rule="evenodd" fill="black"/>
<path d="M190.94 186.39L190.94 184.4 190.81 184.72 190.94 186.39Z"
fill-rule="evenodd" fill="black"/>
<path d="M190.94 186.39L191.11 186.68 190.94 184.4 190.94 186.39Z"
fill-rule="evenodd" fill="black"/>
<path d="M191.11 186.68L191.11 184.11 190.94 184.4 191.11 186.68Z"
fill-rule="evenodd" fill="black"/>
<path d="M191.11 186.68L191.33 186.94 191.11 184.11 191.11 186.68Z"
fill-rule="evenodd" fill="black"/>
<path d="M191.33 186.94L191.33 183.85 191.11 184.11 191.33 186.94Z"
fill-rule="evenodd" fill="black"/>
<path d="M191.33 186.94L191.59 187.16 191.33 183.85 191.33 186.94Z"
fill-rule="evenodd" fill="black"/>
<path d="M191.59 187.16L191.59 183.62 191.33 183.85 191.59 187.16Z"
fill-rule="evenodd" fill="black"/>
<path d="M191.59 187.16L191.87 187.34 191.59 183.62 191.59 187.16Z"
fill-rule="evenodd" fill="black"/>
<path d="M191.87 187.34L191.87 183.44 191.59 183.62 191.87 187.34Z"
fill-rule="evenodd" fill="black"/>
<path d="M191.87 187.34L192.19 187.47 191.87 183.44 191.87 187.34Z"
fill-rule="evenodd" fill="black"/>
<path d="M192.19 187.47L192.19 183.31 191.87 183.44 192.19 187.47Z"
fill-rule="evenodd" fill="black"/>
<path d="M192.19 187.47L192.51 187.55 192.19 183.31 192.19 187.47Z"
fill-rule="evenodd" fill="black"/>
<path d="M192.51 187.55L192.51 183.23 192.19 183.31 192.51 187.55Z"
fill-rule="evenodd" fill="black"/>
<path d="M192.51 187.55L192.85 187.58 192.51 183.23 192.51 187.55Z"
fill-rule="evenodd" fill="black"/>
<path d="M192.85 187.58L192.85 183.21 192.51 183.23 192.85 187.58Z"
fill-rule="evenodd" fill="black"/>
<path d="M192.85 187.58L193.18 187.55 192.85 183.21 192.85 187.58Z"
fill-rule="evenodd" fill="black"/>
<path d="M193.18 187.55L193.18 183.23 192.85 183.21 193.18 187.55Z"
fill-rule="evenodd" fill="black"/>
<path d="M193.18 187.55L193.51 187.47 193.18 183.23 193.18 187.55Z"
fill-rule="evenodd" fill="black"/>
<path d="M193.51 187.47L193.51 183.31 193.18 183.23 193.51 187.47Z"
fill-rule="evenodd" fill="black"/>
<path d="M193.51 187.47L193.82 187.34 193.51 183.31 193.51 187.47Z"
fill-rule="evenodd" fill="black"/>
<path d="M193.82 187.34L193.82 183.44 193.51 183.31 193.82 187.34Z"
fill-rule="evenodd" fill="black"/>
<path d="M193.82 187.34L194.11 187.16 193.82 183.44 193.82 187.34Z"
fill-rule="evenodd" fill="black"/>
<path d="M194.11 187.16L194.11 183.62 193.82 183.44 194.11 187.16Z"
fill-rule="evenodd" fill="black"/>
<path d="M194.11 187.16L194.37 186.94 194.11 183.62 194.11 187.16Z"
fill-rule="evenodd" fill="black"/>
<path d="M194.37 186.94L194.37 183.85 194.11 183.62 194.37 186.94Z"
fill-rule="evenodd" fill="black"/>
<path d="M194.37 186.94L194.58 186.68 194.37 183.85 194.37 186.94Z"
fill-rule="evenodd" fill="black"/>
<path d="M194.58 186.68L194.58 184.11 194.37 183.85 194.58 186.68Z"
fill-rule="evenodd" fill="black"/>
<path d="M194.58 186.68L194.76 186.39 194.58 184.11 194.58 186.68Z"
fill-rule="evenodd" fill="black"/>
<path d="M194.76 186.39L194.76 184.4 194.58 184.11 194.76 186.39Z"
fill-rule="evenodd" fill="black"/>
<path d="M194.76 186.39L194.89 186.07 194.76 184.4 194.76 186.39Z"
fill-rule="evenodd" fill="black"/>
<path d="M194.89 186.07L194.89 184.72 194.76 184.4 194.89 186.07Z"
fill-rule="evenodd" fill="black"/>
<path d="M194.89 186.07L194.97 185.74 194.89 184.72 194.89 186.07Z"
fill-rule="evenodd" fill="black"/>
<path d="M194.97 185.74L194.97 185.05 194.89 184.72 194.97 185.74Z"
fill-rule="evenodd" fill="black"/>
<path d="M194.97 185.74L194.99 185.39 194.97 185.05 194.97 185.74Z"
fill-rule="evenodd" fill="black"/>
</g>
<g><path d="M192.77 0.73L192.77 31.57"
fill="none" stroke="black" stroke-width="12"/>
</g>
<g><path d="M192.85 37.89L192.85 67.48"
fill="none" stroke="black" stroke-width="12"/>
</g>
<g><path d="M192.85 111.03L192.85 84.17"
fill="none" stroke="black" stroke-width="12"/>
</g>
<g><path d="M184.26 84.17L184.26 66.15M184.26 66.15L201.44 66.15M201.44 66.15L201.44 84.17M201.44 84.17L184.26 84.17"
fill="none" stroke="black" stroke-width="12"/>
</g>
<g><path d="M192.91 218.86L192.91 116.7"
fill="none" stroke="black" stroke-width="12"/>
</g>
<g><path d="M185.71 146.6L187.37 151.11M187.37 151.11L191.56 153.51M191.56 153.51L196.34 152.67M196.34 152.67L199.45 149M199.45 149L199.45 144.21M199.45 144.21L196.34 140.53M196.34 140.53L191.56 139.7M191.56 139.7L187.37 142.1M187.37 142.1L185.71 146.6"
fill="none" stroke="black" stroke-width="12"/>
</g>
<g><path d="M192.85 337.4L192.85 347.87"
fill="none" stroke="black" stroke-width="12"/>
</g>
<g><path d="M216.69 337.34L214.87 328.24M214.87 328.24L209.7 320.53M209.7 320.53L201.97 315.37M201.97 315.37L192.85 313.56M192.85 313.56L183.73 315.37M183.73 315.37L175.99 320.53M175.99 320.53L170.82 328.24M170.82 328.24L169.01 337.34M169.01 337.34L170.82 346.44M170.82 346.44L175.99 354.16M175.99 354.16L183.73 359.31M183.73 359.31L192.85 361.13M192.85 361.13L201.97 359.31M201.97 359.31L209.7 354.16M209.7 354.16L214.87 346.44M214.87 346.44L216.69 337.34"
fill="none" stroke="black" stroke-width="12"/>
</g>
<g><path d="M183.31 327.87L192.85 337.38M192.85 337.38L202.38 327.87"
fill="none" stroke="black" stroke-width="12"/>
</g>
<g><path d="M192.85 375.54L192.85 386.01"
fill="none" stroke="black" stroke-width="12"/>
</g>
<g><path d="M216.69 375.49L214.87 366.39M214.87 366.39L209.7 358.67M209.7 358.67L201.97 353.51M201.97 353.51L192.85 351.7M192.85 351.7L183.73 353.51M183.73 353.51L175.99 358.67M175.99 358.67L170.82 366.39M170.82 366.39L169.01 375.49M169.01 375.49L170.82 384.59M170.82 384.59L175.99 392.3M175.99 392.3L183.73 397.46M183.73 397.46L192.85 399.27M192.85 399.27L201.97 397.46M201.97 397.46L209.7 392.3M209.7 392.3L214.87 384.59M214.87 384.59L216.69 375.49"
fill="none" stroke="black" stroke-width="12"/>
</g>
<g><path d="M183.31 366.01L192.85 375.52M192.85 375.52L202.38 366.01"
fill="none" stroke="black" stroke-width="12"/>
</g>
<g><path d="M192.85 229.91L198.38 218.86"
fill="none" stroke="black" stroke-width="12"/>
</g>
<g><path d="M192.85 229.91L187.32 218.86M187.32 218.86L198.38 218.86"
fill="none" stroke="black" stroke-width="12"/>
</g>
<g><path d="M192.85 256.13L192.85 229.91"
fill="none" stroke="black" stroke-width="12"/>
</g>
<g><path d="M192.85 256.13L187.32 267.19"
fill="none" stroke="black" stroke-width="12"/>
</g>
<g><path d="M192.85 256.13L198.38 267.19M198.38 267.19L187.32 267.19"
fill="none" stroke="black" stroke-width="12"/>
</g>
<g><path d="M192.85 313.56L192.85 267.29"
fill="none" stroke="black" stroke-width="12"/>
</g>
<g><path d="M224.34 185.48L192.85 185.48"
fill="none" stroke="black" stroke-width="12"/>
</g>
<g><path d="M223.84 206.94L230.93 199.42"
fill="none" stroke="black" stroke-width="12"/>
</g>
<g><path d="M223.84 224.67L223.84 206.94"
fill="none" stroke="black" stroke-width="12"/>
</g>
<g><path d="M216.69 224.67L230.99 224.67"
fill="none" stroke="black" stroke-width="12"/>
</g>
<g><path d="M219.07 226.89L228.61 226.89"
fill="none" stroke="black" stroke-width="12"/>
</g>
<g><path d="M221.45 229.11L226.22 229.11"
fill="none" stroke="black" stroke-width="12"/>
</g>
<g><path d="M224.34 197.4L224.34 185.48"
fill="none" stroke="black" stroke-width="12"/>
</g>
<g><path d="M192.85 187.58L194.23 187.07M194.23 187.07L194.96 185.77M194.96 185.77L194.71 184.3M194.71 184.3L193.58 183.34M193.58 183.34L192.11 183.34M192.11 183.34L190.99 184.3M190.99 184.3L190.74 185.77M190.74 185.77L191.47 187.07M191.47 187.07L192.85 187.58"
fill="none" stroke="black" stroke-width="12"/>
</g>
<g><path d="M223.46 197.4L225.22 197.4"
fill="none" stroke="black" stroke-width="12"/>
</g>
<g><path d="M192.85 37.89L186.89 43.85"
fill="none" stroke="black" stroke-width="12"/>
</g>
<g><path d="M192.85 37.89L198.81 43.85"
fill="none" stroke="black" stroke-width="12"/>
</g>
<g><path d="M192.85 31.93L186.89 37.89"
fill="none" stroke="black" stroke-width="12"/>
</g>
<g><path d="M192.85 31.93L198.81 37.89"
fill="none" stroke="black" stroke-width="12"/>
</g>
<g><path d="M192.85 111.03L198.81 105.07"
fill="none" stroke="black" stroke-width="12"/>
</g>
<g><path d="M192.85 111.03L186.89 105.07"
fill="none" stroke="black" stroke-width="12"/>
</g>
<g><path d="M187.37 110.7L192.88 116.21"
fill="none" stroke="black" stroke-width="12"/>
</g>
<g><path d="M199.28 110.7L192.88 116.21"
fill="none" stroke="black" stroke-width="12"/>
</g>
</g>
</svg>
