<?xml version="1.0" standalone="no"?><svg xmlns="http://www.w3.org/2000/svg" width="400.000" height="400.000" viewBox="0.0 0.0 400.000 400.000" version="1.1">
  <title>Produce by Acme CAD Converter</title>
  <desc>Produce by Acme CAD Converter</desc>
<g id="0" display="visible">
<g><path d="M215.03 0.73L215.03 26.38"
fill="none" stroke="black" stroke-width="12"/>
</g>
<g><path d="M215.03 31.09L215.03 66.69"
fill="none" stroke="black" stroke-width="12"/>
</g>
<g><path d="M215.57 119.23L215.57 86.77"
fill="none" stroke="black" stroke-width="12"/>
</g>
<g><path d="M205.83 86.13L205.83 64.46M205.83 64.46L226.5 64.46M226.5 64.46L226.5 86.13M226.5 86.13L205.83 86.13"
fill="none" stroke="black" stroke-width="12"/>
</g>
<g><path d="M215.03 31.09L207.86 38.26"
fill="none" stroke="black" stroke-width="12"/>
</g>
<g><path d="M215.03 31.09L222.2 38.26"
fill="none" stroke="black" stroke-width="12"/>
</g>
<g><path d="M215.03 23.92L207.86 31.09"
fill="none" stroke="black" stroke-width="12"/>
</g>
<g><path d="M215.03 23.92L222.2 31.09"
fill="none" stroke="black" stroke-width="12"/>
</g>
<g><path d="M215.57 119.23L222.74 112.06"
fill="none" stroke="black" stroke-width="12"/>
</g>
<g><path d="M215.57 119.23L208.4 112.06"
fill="none" stroke="black" stroke-width="12"/>
</g>
<g><path d="M208.98 118.83L215.61 125.46"
fill="none" stroke="black" stroke-width="12"/>
</g>
<g><path d="M223.32 118.83L215.61 125.46"
fill="none" stroke="black" stroke-width="12"/>
</g>
<g><path d="M215.61 296.53L215.61 125.46"
fill="none" stroke="black" stroke-width="12"/>
</g>
<g><path d="M224.12 269.76L222.49 265.18M222.49 265.18L218.23 262.35M218.23 262.35L212.96 262.35M212.96 262.35L208.7 265.18M208.7 265.18L207.08 269.76M207.08 269.76L208.7 274.33M208.7 274.33L212.96 277.16M212.96 277.16L218.23 277.16M218.23 277.16L222.49 274.33M222.49 274.33L224.12 269.76"
fill="none" stroke="black" stroke-width="12"/>
</g>
<g><path d="M224.12 249.75L222.49 245.18M222.49 245.18L218.23 242.35M218.23 242.35L212.96 242.35M212.96 242.35L208.7 245.18M208.7 245.18L207.08 249.75M207.08 249.75L208.7 254.33M208.7 254.33L212.96 257.16M212.96 257.16L218.23 257.16M218.23 257.16L222.49 254.33M222.49 254.33L224.12 249.75"
fill="none" stroke="black" stroke-width="12"/>
</g>
<g><path d="M186.38 393.93L186.38 372.6"
fill="none" stroke="black" stroke-width="12"/>
</g>
<g><path d="M177.77 393.93L194.98 393.93"
fill="none" stroke="black" stroke-width="12"/>
</g>
<g><path d="M180.64 396.6L192.11 396.6"
fill="none" stroke="black" stroke-width="12"/>
</g>
<g><path d="M183.51 399.27L189.25 399.27"
fill="none" stroke="black" stroke-width="12"/>
</g>
<g><path d="M186.38 310.51L215.06 310.51"
fill="none" stroke="black" stroke-width="12"/>
</g>
<g><path d="M200.72 312.3L202.64 305.13M202.64 305.13L207.89 299.88M207.89 299.88L215.06 297.96M215.06 297.96L222.23 299.88M222.23 299.88L227.47 305.13M227.47 305.13L229.39 312.3M229.39 312.3L227.47 319.47M227.47 319.47L222.23 324.72M222.23 324.72L215.06 326.64M215.06 326.64L207.89 324.72M207.89 324.72L202.64 319.47M202.64 319.47L200.72 312.3"
fill="none" stroke="black" stroke-width="12"/>
</g>
<g><path d="M215.06 316.03L215.06 310.29M215.06 310.29L218.78 306.57"
fill="none" stroke="black" stroke-width="12"/>
</g>
<g><path d="M215.06 310.29L211.33 306.57"
fill="none" stroke="black" stroke-width="12"/>
</g>
<g><path d="M186.38 329.58L181.67 329.99M181.67 329.99L178 332.69M178 332.69L176.63 336.75M176.63 336.75L178 340.81M178 340.81L181.67 343.51M181.67 343.51L186.38 343.92"
fill="none" stroke="black" stroke-width="12"/>
</g>
<g><path d="M186.38 343.92L181.67 344.33M181.67 344.33L178 347.02M178 347.02L176.63 351.09M176.63 351.09L178 355.15M178 355.15L181.67 357.85M181.67 357.85L186.38 358.26"
fill="none" stroke="black" stroke-width="12"/>
</g>
<g><path d="M186.38 358.26L181.67 358.67M181.67 358.67L178 361.36M178 361.36L176.63 365.43M176.63 365.43L178 369.49M178 369.49L181.67 372.18M181.67 372.18L186.38 372.6"
fill="none" stroke="black" stroke-width="12"/>
</g>
<g><path d="M170.61 365.43L194.98 332.93"
fill="none" stroke="black" stroke-width="12"/>
</g>
<g><path d="M186.38 329.58L186.38 310.51"
fill="none" stroke="black" stroke-width="12"/>
</g>
</g>
</svg>
