<?xml version="1.0" standalone="no"?><svg xmlns="http://www.w3.org/2000/svg" width="400.000" height="400.000" viewBox="0.0 0.0 400.000 400.000" version="1.1">
  <title>Produce by Acme CAD Converter</title>
  <desc>Produce by Acme CAD Converter</desc>
<g id="0" display="visible">
<g><path d="M265.56 302.87L265.56 301.75 265.52 302.31 265.56 302.87Z"
fill-rule="evenodd" fill="black"/>
<path d="M265.56 302.87L265.69 303.41 265.56 301.75 265.56 302.87Z"
fill-rule="evenodd" fill="black"/>
<path d="M265.69 303.41L265.69 301.21 265.56 301.75 265.69 303.41Z"
fill-rule="evenodd" fill="black"/>
<path d="M265.69 303.41L265.9 303.93 265.69 301.21 265.69 303.41Z"
fill-rule="evenodd" fill="black"/>
<path d="M265.9 303.93L265.9 300.69 265.69 301.21 265.9 303.93Z"
fill-rule="evenodd" fill="black"/>
<path d="M265.9 303.93L266.18 304.41 265.9 300.69 265.9 303.93Z"
fill-rule="evenodd" fill="black"/>
<path d="M266.18 304.41L266.18 300.21 265.9 300.69 266.18 304.41Z"
fill-rule="evenodd" fill="black"/>
<path d="M266.18 304.41L266.54 304.83 266.18 300.21 266.18 304.41Z"
fill-rule="evenodd" fill="black"/>
<path d="M266.54 304.83L266.54 299.79 266.18 300.21 266.54 304.83Z"
fill-rule="evenodd" fill="black"/>
<path d="M266.54 304.83L266.96 305.2 266.54 299.79 266.54 304.83Z"
fill-rule="evenodd" fill="black"/>
<path d="M266.96 305.2L266.96 299.42 266.54 299.79 266.96 305.2Z"
fill-rule="evenodd" fill="black"/>
<path d="M266.96 305.2L267.43 305.49 266.96 299.42 266.96 305.2Z"
fill-rule="evenodd" fill="black"/>
<path d="M267.43 305.49L267.43 299.13 266.96 299.42 267.43 305.49Z"
fill-rule="evenodd" fill="black"/>
<path d="M267.43 305.49L267.93 305.7 267.43 299.13 267.43 305.49Z"
fill-rule="evenodd" fill="black"/>
<path d="M267.93 305.7L267.93 298.92 267.43 299.13 267.93 305.7Z"
fill-rule="evenodd" fill="black"/>
<path d="M267.93 305.7L268.47 305.83 267.93 298.92 267.93 305.7Z"
fill-rule="evenodd" fill="black"/>
<path d="M268.47 305.83L268.47 298.79 267.93 298.92 268.47 305.83Z"
fill-rule="evenodd" fill="black"/>
<path d="M268.47 305.83L269.01 305.88 268.47 298.79 268.47 305.83Z"
fill-rule="evenodd" fill="black"/>
<path d="M269.01 305.88L269.01 298.74 268.47 298.79 269.01 305.88Z"
fill-rule="evenodd" fill="black"/>
<path d="M269.01 305.88L269.56 305.83 269.01 298.74 269.01 305.88Z"
fill-rule="evenodd" fill="black"/>
<path d="M269.56 305.83L269.56 298.79 269.01 298.74 269.56 305.83Z"
fill-rule="evenodd" fill="black"/>
<path d="M269.56 305.83L270.1 305.7 269.56 298.79 269.56 305.83Z"
fill-rule="evenodd" fill="black"/>
<path d="M270.1 305.7L270.1 298.92 269.56 298.79 270.1 305.7Z"
fill-rule="evenodd" fill="black"/>
<path d="M270.1 305.7L270.6 305.49 270.1 298.92 270.1 305.7Z"
fill-rule="evenodd" fill="black"/>
<path d="M270.6 305.49L270.6 299.13 270.1 298.92 270.6 305.49Z"
fill-rule="evenodd" fill="black"/>
<path d="M270.6 305.49L271.07 305.2 270.6 299.13 270.6 305.49Z"
fill-rule="evenodd" fill="black"/>
<path d="M271.07 305.2L271.07 299.42 270.6 299.13 271.07 305.2Z"
fill-rule="evenodd" fill="black"/>
<path d="M271.07 305.2L271.49 304.83 271.07 299.42 271.07 305.2Z"
fill-rule="evenodd" fill="black"/>
<path d="M271.49 304.83L271.49 299.79 271.07 299.42 271.49 304.83Z"
fill-rule="evenodd" fill="black"/>
<path d="M271.49 304.83L271.85 304.41 271.49 299.79 271.49 304.83Z"
fill-rule="evenodd" fill="black"/>
<path d="M271.85 304.41L271.85 300.21 271.49 299.79 271.85 304.41Z"
fill-rule="evenodd" fill="black"/>
<path d="M271.85 304.41L272.13 303.93 271.85 300.21 271.85 304.41Z"
fill-rule="evenodd" fill="black"/>
<path d="M272.13 303.93L272.13 300.69 271.85 300.21 272.13 303.93Z"
fill-rule="evenodd" fill="black"/>
<path d="M272.13 303.93L272.34 303.41 272.13 300.69 272.13 303.93Z"
fill-rule="evenodd" fill="black"/>
<path d="M272.34 303.41L272.34 301.21 272.13 300.69 272.34 303.41Z"
fill-rule="evenodd" fill="black"/>
<path d="M272.34 303.41L272.47 302.87 272.34 301.21 272.34 303.41Z"
fill-rule="evenodd" fill="black"/>
<path d="M272.47 302.87L272.47 301.75 272.34 301.21 272.47 302.87Z"
fill-rule="evenodd" fill="black"/>
<path d="M272.47 302.87L272.51 302.31 272.47 301.75 272.47 302.87Z"
fill-rule="evenodd" fill="black"/>
</g>
<g><path d="M78.37 0.73L78.37 51.03"
fill="none" stroke="black" stroke-width="12"/>
</g>
<g><path d="M78.5 61.33L78.5 109.6"
fill="none" stroke="black" stroke-width="12"/>
</g>
<g><path d="M78.5 180.63L78.5 109.6"
fill="none" stroke="black" stroke-width="12"/>
</g>
<g><path d="M78.59 399.27L78.59 189.88"
fill="none" stroke="black" stroke-width="12"/>
</g>
<g><path d="M268.89 1.12L268.89 51.42"
fill="none" stroke="black" stroke-width="12"/>
</g>
<g><path d="M269.01 61.72L269.01 109.99"
fill="none" stroke="black" stroke-width="12"/>
</g>
<g><path d="M269.01 181.02L269.01 137.21"
fill="none" stroke="black" stroke-width="12"/>
</g>
<g><path d="M255 137.21L255 107.83M255 107.83L283.03 107.83M283.03 107.83L283.03 137.21M283.03 137.21L255 137.21"
fill="none" stroke="black" stroke-width="12"/>
</g>
<g><path d="M269.11 399.27L269.11 190.27"
fill="none" stroke="black" stroke-width="12"/>
</g>
<g><path d="M269.56 231.18L263.31 233.04M263.31 233.04L259.05 238.03M259.05 238.03L258.12 244.57M258.12 244.57L260.83 250.58M260.83 250.58L266.3 254.15M266.3 254.15L272.81 254.15M272.81 254.15L278.29 250.58M278.29 250.58L281 244.57M281 244.57L280.07 238.03M280.07 238.03L275.81 233.04M275.81 233.04L269.56 231.18"
fill="none" stroke="black" stroke-width="12"/>
</g>
<g><path d="M320.38 302.45L269.01 302.45"
fill="none" stroke="black" stroke-width="12"/>
</g>
<g><path d="M319.56 337.45L331.12 325.18"
fill="none" stroke="black" stroke-width="12"/>
</g>
<g><path d="M319.56 366.37L319.56 337.45"
fill="none" stroke="black" stroke-width="12"/>
</g>
<g><path d="M307.9 366.37L331.22 366.37"
fill="none" stroke="black" stroke-width="12"/>
</g>
<g><path d="M311.78 369.99L327.34 369.99"
fill="none" stroke="black" stroke-width="12"/>
</g>
<g><path d="M315.67 373.61L323.45 373.61"
fill="none" stroke="black" stroke-width="12"/>
</g>
<g><path d="M320.38 321.89L320.38 302.45"
fill="none" stroke="black" stroke-width="12"/>
</g>
<g><path d="M269.01 305.88L271.26 305.04M271.26 305.04L272.46 302.93M272.46 302.93L272.04 300.53M272.04 300.53L270.21 298.96M270.21 298.96L267.82 298.96M267.82 298.96L265.98 300.53M265.98 300.53L265.57 302.93M265.57 302.93L266.77 305.04M266.77 305.04L269.01 305.88"
fill="none" stroke="black" stroke-width="12"/>
</g>
<g><path d="M269.11 399.27L78.59 399.27"
fill="none" stroke="black" stroke-width="12"/>
</g>
<g><path d="M318.95 321.89L321.81 321.89"
fill="none" stroke="black" stroke-width="12"/>
</g>
<g><path d="M78.5 61.33L68.78 71.05"
fill="none" stroke="black" stroke-width="12"/>
</g>
<g><path d="M78.5 61.33L88.22 71.05"
fill="none" stroke="black" stroke-width="12"/>
</g>
<g><path d="M78.5 51.61L68.78 61.33"
fill="none" stroke="black" stroke-width="12"/>
</g>
<g><path d="M78.5 51.61L88.22 61.33"
fill="none" stroke="black" stroke-width="12"/>
</g>
<g><path d="M269.01 61.72L259.29 71.44"
fill="none" stroke="black" stroke-width="12"/>
</g>
<g><path d="M269.01 61.72L278.73 71.44"
fill="none" stroke="black" stroke-width="12"/>
</g>
<g><path d="M269.01 52L259.29 61.72"
fill="none" stroke="black" stroke-width="12"/>
</g>
<g><path d="M269.01 52L278.73 61.72"
fill="none" stroke="black" stroke-width="12"/>
</g>
<g><path d="M78.5 180.63L88.22 170.91"
fill="none" stroke="black" stroke-width="12"/>
</g>
<g><path d="M78.5 180.63L68.78 170.91"
fill="none" stroke="black" stroke-width="12"/>
</g>
<g><path d="M69.55 180.09L78.54 189.08"
fill="none" stroke="black" stroke-width="12"/>
</g>
<g><path d="M88.99 180.09L78.54 189.08"
fill="none" stroke="black" stroke-width="12"/>
</g>
<g><path d="M269.01 181.02L278.73 171.3"
fill="none" stroke="black" stroke-width="12"/>
</g>
<g><path d="M269.01 181.02L259.29 171.3"
fill="none" stroke="black" stroke-width="12"/>
</g>
<g><path d="M260.07 180.48L269.06 189.47"
fill="none" stroke="black" stroke-width="12"/>
</g>
<g><path d="M279.51 180.48L269.06 189.47"
fill="none" stroke="black" stroke-width="12"/>
</g>
</g>
</svg>
