<?xml version="1.0" standalone="no"?><svg xmlns="http://www.w3.org/2000/svg" width="400.000" height="400.000" viewBox="0.0 0.0 400.000 400.000" version="1.1">
  <title>Produce by Acme CAD Converter</title>
  <desc>Produce by Acme CAD Converter</desc>
<g id="0" display="visible">
<g><path d="M51.1 91.4L51.1 80.23"
fill="none" stroke="black" stroke-width="12"/>
</g>
<g><path d="M47.38 91.4L47.38 80.23"
fill="none" stroke="black" stroke-width="12"/>
</g>
<g><path d="M47.38 85.81L24.04 85.81"
fill="none" stroke="black" stroke-width="12"/>
</g>
<g><path d="M362.93 113.76L362.93 271.08"
fill="none" stroke="black" stroke-width="12"/>
</g>
<g><path d="M340.59 124.12L340.59 243.1"
fill="none" stroke="black" stroke-width="12"/>
</g>
<g><path d="M362.79 147.36L362.94 147.25M362.94 147.25L363.01 146.99M363.01 146.99L362.98 146.7M362.98 146.7L362.87 146.5M362.87 146.5L362.72 146.5M362.72 146.5L362.6 146.7M362.6 146.7L362.58 146.99M362.58 146.99L362.65 147.25M362.65 147.25L362.79 147.36"
fill="none" stroke="black" stroke-width="12"/>
</g>
<g><path d="M42.67 124.6L42.56 247.81"
fill="none" stroke="black" stroke-width="12"/>
</g>
<g><path d="M42.67 222.56L109.13 222.56"
fill="none" stroke="black" stroke-width="12"/>
</g>
<g><path d="M43.94 329.16L43.64 328.44M43.64 328.44L42.9 328.05M42.9 328.05L42.05 328.19M42.05 328.19L41.49 328.78M41.49 328.78L41.49 329.55M41.49 329.55L42.05 330.14M42.05 330.14L42.9 330.27M42.9 330.27L43.64 329.89M43.64 329.89L43.94 329.16"
fill="none" stroke="black" stroke-width="12"/>
</g>
<g><path d="M62.47 302.91L62.17 302.19M62.17 302.19L61.43 301.8M61.43 301.8L60.58 301.94M60.58 301.94L60.02 302.53M60.02 302.53L60.02 303.3M60.02 303.3L60.58 303.89M60.58 303.89L61.43 304.02M61.43 304.02L62.17 303.64M62.17 303.64L62.47 302.91"
fill="none" stroke="black" stroke-width="12"/>
</g>
<g><path d="M340.44 222.9L340.58 222.8M340.58 222.8L340.66 222.54M340.66 222.54L340.63 222.24M340.63 222.24L340.52 222.05M340.52 222.05L340.37 222.05M340.37 222.05L340.25 222.24M340.25 222.24L340.23 222.54M340.23 222.54L340.3 222.8M340.3 222.8L340.44 222.9"
fill="none" stroke="black" stroke-width="12"/>
</g>
<g><path d="M364.22 328.98L363.93 328.26M363.93 328.26L363.18 327.87M363.18 327.87L362.34 328M362.34 328L361.78 328.59M361.78 328.59L361.78 329.37M361.78 329.37L362.34 329.96M362.34 329.96L363.18 330.09M363.18 330.09L363.93 329.71M363.93 329.71L364.22 328.98"
fill="none" stroke="black" stroke-width="12"/>
</g>
<g><path d="M341.77 302.73L341.48 302M341.48 302L340.73 301.62M340.73 301.62L339.88 301.75M339.88 301.75L339.33 302.34M339.33 302.34L339.33 303.12M339.33 303.12L339.88 303.71M339.88 303.71L340.73 303.84M340.73 303.84L341.48 303.45M341.48 303.45L341.77 302.73"
fill="none" stroke="black" stroke-width="12"/>
</g>
<g><path d="M340.54 157.37L340.69 157.27M340.69 157.27L340.76 157.01M340.76 157.01L340.73 156.71M340.73 156.71L340.62 156.52M340.62 156.52L340.47 156.52M340.47 156.52L340.35 156.71M340.35 156.71L340.33 157.01M340.33 157.01L340.4 157.27M340.4 157.27L340.54 157.37"
fill="none" stroke="black" stroke-width="12"/>
</g>
<g><path d="M363.01 180.65L363.15 180.55M363.15 180.55L363.22 180.29M363.22 180.29L363.2 179.99M363.2 179.99L363.08 179.8M363.08 179.8L362.93 179.8M362.93 179.8L362.82 179.99M362.82 179.99L362.79 180.29M362.79 180.29L362.87 180.55M362.87 180.55L363.01 180.65"
fill="none" stroke="black" stroke-width="12"/>
</g>
<g><path d="M340.76 190.67L340.9 190.57M340.9 190.57L340.97 190.31M340.97 190.31L340.95 190.01M340.95 190.01L340.83 189.82M340.83 189.82L340.68 189.82M340.68 189.82L340.57 190.01M340.57 190.01L340.54 190.31M340.54 190.31L340.61 190.57M340.61 190.57L340.76 190.67"
fill="none" stroke="black" stroke-width="12"/>
</g>
<g><path d="M61.46 146.73L61.32 146.83M61.32 146.83L61.24 147.09M61.24 147.09L61.27 147.39M61.27 147.39L61.38 147.58M61.38 147.58L61.53 147.58M61.53 147.58L61.65 147.39M61.65 147.39L61.68 147.09M61.68 147.09L61.6 146.83M61.6 146.83L61.46 146.73"
fill="none" stroke="black" stroke-width="12"/>
</g>
<g><path d="M42.81 157.09L42.67 157.19M42.67 157.19L42.59 157.45M42.59 157.45L42.62 157.75M42.62 157.75L42.73 157.94M42.73 157.94L42.88 157.94M42.88 157.94L43 157.75M43 157.75L43.02 157.45M43.02 157.45L42.95 157.19M42.95 157.19L42.81 157.09"
fill="none" stroke="black" stroke-width="12"/>
</g>
<g><path d="M61.6 181.02L61.46 181.12M61.46 181.12L61.39 181.38M61.39 181.38L61.41 181.68M61.41 181.68L61.53 181.87M61.53 181.87L61.68 181.87M61.68 181.87L61.79 181.68M61.79 181.68L61.82 181.38M61.82 181.38L61.75 181.12M61.75 181.12L61.6 181.02"
fill="none" stroke="black" stroke-width="12"/>
</g>
<g><path d="M287.01 222.58L340.04 222.58"
fill="none" stroke="black" stroke-width="12"/>
</g>
<g><path d="M173.81 222.56L223.8 222.56"
fill="none" stroke="black" stroke-width="12"/>
</g>
<g><path d="M27.96 304.02L399.27 303.39"
fill="none" stroke="black" stroke-width="12"/>
</g>
<g><path d="M26.23 329.53L397.54 328.89"
fill="none" stroke="black" stroke-width="12"/>
</g>
<g><path d="M248.32 222.58L261.03 216.23"
fill="none" stroke="black" stroke-width="12"/>
</g>
<g><path d="M261.03 222.58L287.01 222.58"
fill="none" stroke="black" stroke-width="12"/>
</g>
<g><path d="M222.33 222.58L248.32 222.58"
fill="none" stroke="black" stroke-width="12"/>
</g>
<g><path d="M261.03 221.31L261.03 223.86"
fill="none" stroke="black" stroke-width="12"/>
</g>
<g><path d="M340.55 258.44L334.19 245.73"
fill="none" stroke="black" stroke-width="12"/>
</g>
<g><path d="M339.28 245.73L341.82 245.73"
fill="none" stroke="black" stroke-width="12"/>
</g>
<g><path d="M363 285.13L356.64 272.42"
fill="none" stroke="black" stroke-width="12"/>
</g>
<g><path d="M361.73 272.42L364.27 272.42"
fill="none" stroke="black" stroke-width="12"/>
</g>
<g><path d="M363 286.22L363 328.95"
fill="none" stroke="black" stroke-width="12"/>
</g>
<g><path d="M360.43 328.2L361.18 326.38M361.18 326.38L363 325.63M363 325.63L364.82 326.38M364.82 326.38L365.57 328.2M365.57 328.2L364.82 330.02M364.82 330.02L363 330.78M363 330.78L361.18 330.02M361.18 330.02L360.43 328.2"
fill="none" stroke="black" stroke-width="12"/>
</g>
<g><path d="M340.55 260.75L340.55 303.49"
fill="none" stroke="black" stroke-width="12"/>
</g>
<g><path d="M337.97 303.15L338.73 301.32M338.73 301.32L340.55 300.57M340.55 300.57L342.37 301.32M342.37 301.32L343.12 303.15M343.12 303.15L342.37 304.97M342.37 304.97L340.55 305.72M340.55 305.72L338.73 304.97M338.73 304.97L337.97 303.15"
fill="none" stroke="black" stroke-width="12"/>
</g>
<g><path d="M43.78 330.36L43.49 329.64M43.49 329.64L42.74 329.25M42.74 329.25L41.89 329.38M41.89 329.38L41.34 329.98M41.34 329.98L41.34 330.75M41.34 330.75L41.89 331.34M41.89 331.34L42.74 331.47M42.74 331.47L43.49 331.09M43.49 331.09L43.78 330.36"
fill="none" stroke="black" stroke-width="12"/>
</g>
<g><path d="M62.55 303.86L62.26 303.13M62.26 303.13L61.51 302.75M61.51 302.75L60.66 302.88M60.66 302.88L60.11 303.47M60.11 303.47L60.11 304.24M60.11 304.24L60.66 304.83M60.66 304.83L61.51 304.97M61.51 304.97L62.26 304.58M62.26 304.58L62.55 303.86"
fill="none" stroke="black" stroke-width="12"/>
</g>
<g><path d="M61.33 259.57L54.97 246.86"
fill="none" stroke="black" stroke-width="12"/>
</g>
<g><path d="M60.05 246.86L62.6 246.86"
fill="none" stroke="black" stroke-width="12"/>
</g>
<g><path d="M42.56 286.51L36.2 273.8"
fill="none" stroke="black" stroke-width="12"/>
</g>
<g><path d="M42.56 273.8L42.56 247.81"
fill="none" stroke="black" stroke-width="12"/>
</g>
<g><path d="M41.28 273.8L43.83 273.8"
fill="none" stroke="black" stroke-width="12"/>
</g>
<g><path d="M42.56 287.6L42.56 330.33"
fill="none" stroke="black" stroke-width="12"/>
</g>
<g><path d="M61.33 261.88L61.33 304.61"
fill="none" stroke="black" stroke-width="12"/>
</g>
<g><path d="M135.11 222.56L147.82 216.2"
fill="none" stroke="black" stroke-width="12"/>
</g>
<g><path d="M147.82 222.56L173.81 222.56"
fill="none" stroke="black" stroke-width="12"/>
</g>
<g><path d="M109.13 222.56L135.11 222.56"
fill="none" stroke="black" stroke-width="12"/>
</g>
<g><path d="M147.82 221.29L147.82 223.83"
fill="none" stroke="black" stroke-width="12"/>
</g>
<g><path d="M203.16 288.59L198.14 288.59"
fill="none" stroke="black" stroke-width="12"/>
</g>
<g><path d="M205.66 285.95L196.47 285.95"
fill="none" stroke="black" stroke-width="12"/>
</g>
<g><path d="M194.8 283.31L206.52 283.31"
fill="none" stroke="black" stroke-width="12"/>
</g>
<g><path d="M200.65 262.65L200.65 255.61"
fill="none" stroke="black" stroke-width="12"/>
</g>
<g><path d="M200.65 283.14L200.66 222.56"
fill="none" stroke="black" stroke-width="12"/>
</g>
<g><path d="M200.32 227.91L194.83 229.82M194.83 229.82L191.44 234.82M191.44 234.82L191.44 241.01M191.44 241.01L194.83 246.01M194.83 246.01L200.32 247.93M200.32 247.93L205.8 246.01M205.8 246.01L209.19 241.01M209.19 241.01L209.19 234.82M209.19 234.82L205.8 229.82M205.8 229.82L200.32 227.91"
fill="none" stroke="black" stroke-width="12"/>
</g>
<g><path d="M200.65 256.24L195.16 258.16M195.16 258.16L191.77 263.16M191.77 263.16L191.77 269.35M191.77 269.35L195.16 274.35M195.16 274.35L200.65 276.26M200.65 276.26L206.14 274.35M206.14 274.35L209.53 269.35M209.53 269.35L209.53 263.16M209.53 263.16L206.14 258.16M206.14 258.16L200.65 256.24"
fill="none" stroke="black" stroke-width="12"/>
</g>
<g><path d="M59.08 304.02L59.83 302.2M59.83 302.2L61.65 301.45M61.65 301.45L63.47 302.2M63.47 302.2L64.23 304.02M64.23 304.02L63.47 305.85M63.47 305.85L61.65 306.6M61.65 306.6L59.83 305.85M59.83 305.85L59.08 304.02"
fill="none" stroke="black" stroke-width="12"/>
</g>
<g><path d="M40.05 330.28L40.8 328.46M40.8 328.46L42.62 327.7M42.62 327.7L44.44 328.46M44.44 328.46L45.2 330.28M45.2 330.28L44.44 332.1M44.44 332.1L42.62 332.85M42.62 332.85L40.8 332.1M40.8 332.1L40.05 330.28"
fill="none" stroke="black" stroke-width="12"/>
</g>
<g><path d="M17.73 92.46L21.47 90.99M21.47 90.99L23.46 87.29M23.46 87.29L22.77 83.08M22.77 83.08L19.72 80.33M19.72 80.33L15.75 80.33M15.75 80.33L12.7 83.08M12.7 83.08L12.01 87.29M12.01 87.29L14 90.99M14 90.99L17.73 92.46"
fill="none" stroke="black" stroke-width="12"/>
</g>
<g><path d="M12.99 88.3L16.72 86.84M16.72 86.84L18.71 83.14M18.71 83.14L18.02 78.92M18.02 78.92L14.98 76.18M14.98 76.18L11 76.18M11 76.18L7.96 78.92M7.96 78.92L7.27 83.14M7.27 83.14L9.26 86.84M9.26 86.84L12.99 88.3"
fill="none" stroke="black" stroke-width="12"/>
</g>
<g><path d="M12.18 95.53L15.92 94.07M15.92 94.07L17.9 90.36M17.9 90.36L17.21 86.15M17.21 86.15L14.17 83.4M14.17 83.4L10.19 83.4M10.19 83.4L7.15 86.15M7.15 86.15L6.46 90.36M6.46 90.36L8.45 94.07M8.45 94.07L12.18 95.53"
fill="none" stroke="black" stroke-width="12"/>
</g>
<g><path d="M43.93 222.56L43.64 221.83M43.64 221.83L42.89 221.45M42.89 221.45L42.04 221.58M42.04 221.58L41.49 222.17M41.49 222.17L41.49 222.94M41.49 222.94L42.04 223.54M42.04 223.54L42.89 223.67M42.89 223.67L43.64 223.28M43.64 223.28L43.93 222.56"
fill="none" stroke="black" stroke-width="12"/>
</g>
<g><path d="M40.13 222.97L40.89 221.15M40.89 221.15L42.71 220.4M42.71 220.4L44.53 221.15M44.53 221.15L45.28 222.97M45.28 222.97L44.53 224.79M44.53 224.79L42.71 225.55M42.71 225.55L40.89 224.79M40.89 224.79L40.13 222.97"
fill="none" stroke="black" stroke-width="12"/>
</g>
<g><path d="M43.97 191.93L43.67 191.2M43.67 191.2L42.93 190.82M42.93 190.82L42.08 190.95M42.08 190.95L41.52 191.54M41.52 191.54L41.52 192.31M41.52 192.31L42.08 192.9M42.08 192.9L42.93 193.04M42.93 193.04L43.67 192.65M43.67 192.65L43.97 191.93"
fill="none" stroke="black" stroke-width="12"/>
</g>
<g><path d="M40.17 192.34L40.92 190.52M40.92 190.52L42.74 189.77M42.74 189.77L44.56 190.52M44.56 190.52L45.32 192.34M45.32 192.34L44.56 194.16M44.56 194.16L42.74 194.92M42.74 194.92L40.92 194.16M40.92 194.16L40.17 192.34"
fill="none" stroke="black" stroke-width="12"/>
</g>
<g><path d="M43.79 157.62L43.5 156.9M43.5 156.9L42.75 156.51M42.75 156.51L41.9 156.65M41.9 156.65L41.35 157.24M41.35 157.24L41.35 158.01M41.35 158.01L41.9 158.6M41.9 158.6L42.75 158.73M42.75 158.73L43.5 158.35M43.5 158.35L43.79 157.62"
fill="none" stroke="black" stroke-width="12"/>
</g>
<g><path d="M40 158.04L40.75 156.22M40.75 156.22L42.57 155.46M42.57 155.46L44.39 156.22M44.39 156.22L45.14 158.04M45.14 158.04L44.39 159.86M44.39 159.86L42.57 160.61M42.57 160.61L40.75 159.86M40.75 159.86L40 158.04"
fill="none" stroke="black" stroke-width="12"/>
</g>
<g><path d="M364.38 180.21L364.09 179.49M364.09 179.49L363.34 179.1M363.34 179.1L362.5 179.24M362.5 179.24L361.94 179.83M361.94 179.83L361.94 180.6M361.94 180.6L362.5 181.19M362.5 181.19L363.34 181.32M363.34 181.32L364.09 180.94M364.09 180.94L364.38 180.21"
fill="none" stroke="black" stroke-width="12"/>
</g>
<g><path d="M360.59 180.63L361.34 178.81M361.34 178.81L363.16 178.05M363.16 178.05L364.98 178.81M364.98 178.81L365.73 180.63M365.73 180.63L364.98 182.45M364.98 182.45L363.16 183.2M363.16 183.2L361.34 182.45M361.34 182.45L360.59 180.63"
fill="none" stroke="black" stroke-width="12"/>
</g>
<g><path d="M364.05 147.36L363.76 146.63M363.76 146.63L363.01 146.24M363.01 146.24L362.16 146.38M362.16 146.38L361.61 146.97M361.61 146.97L361.61 147.74M361.61 147.74L362.16 148.33M362.16 148.33L363.01 148.47M363.01 148.47L363.76 148.08M363.76 148.08L364.05 147.36"
fill="none" stroke="black" stroke-width="12"/>
</g>
<g><path d="M360.25 147.77L361.01 145.95M361.01 145.95L362.83 145.2M362.83 145.2L364.65 145.95M364.65 145.95L365.4 147.77M365.4 147.77L364.65 149.59M364.65 149.59L362.83 150.35M362.83 150.35L361.01 149.59M361.01 149.59L360.25 147.77"
fill="none" stroke="black" stroke-width="12"/>
</g>
<g><path d="M341.84 156.5L341.55 155.77M341.55 155.77L340.8 155.39M340.8 155.39L339.96 155.52M339.96 155.52L339.4 156.11M339.4 156.11L339.4 156.89M339.4 156.89L339.96 157.48M339.96 157.48L340.8 157.61M340.8 157.61L341.55 157.22M341.55 157.22L341.84 156.5"
fill="none" stroke="black" stroke-width="12"/>
</g>
<g><path d="M338.05 156.92L338.8 155.09M338.8 155.09L340.62 154.34M340.62 154.34L342.44 155.09M342.44 155.09L343.19 156.92M343.19 156.92L342.44 158.74M342.44 158.74L340.62 159.49M340.62 159.49L338.8 158.74M338.8 158.74L338.05 156.92"
fill="none" stroke="black" stroke-width="12"/>
</g>
<g><path d="M342.09 190.3L341.79 189.57M341.79 189.57L341.05 189.19M341.05 189.19L340.2 189.32M340.2 189.32L339.65 189.91M339.65 189.91L339.65 190.68M339.65 190.68L340.2 191.27M340.2 191.27L341.05 191.41M341.05 191.41L341.79 191.02M341.79 191.02L342.09 190.3"
fill="none" stroke="black" stroke-width="12"/>
</g>
<g><path d="M338.29 190.71L339.04 188.89M339.04 188.89L340.86 188.14M340.86 188.14L342.68 188.89M342.68 188.89L343.44 190.71M343.44 190.71L342.68 192.53M342.68 192.53L340.86 193.29M340.86 193.29L339.04 192.53M339.04 192.53L338.29 190.71"
fill="none" stroke="black" stroke-width="12"/>
</g>
<g><path d="M62.86 181.02L62.57 180.29M62.57 180.29L61.82 179.9M61.82 179.9L60.97 180.04M60.97 180.04L60.42 180.63M60.42 180.63L60.42 181.4M60.42 181.4L60.97 181.99M60.97 181.99L61.82 182.13M61.82 182.13L62.57 181.74M62.57 181.74L62.86 181.02"
fill="none" stroke="black" stroke-width="12"/>
</g>
<g><path d="M59.06 181.43L59.82 179.61M59.82 179.61L61.64 178.86M61.64 178.86L63.46 179.61M63.46 179.61L64.21 181.43M64.21 181.43L63.46 183.25M63.46 183.25L61.64 184M61.64 184L59.82 183.25M59.82 183.25L59.06 181.43"
fill="none" stroke="black" stroke-width="12"/>
</g>
<g><path d="M62.37 147.26L62.08 146.54M62.08 146.54L61.33 146.15M61.33 146.15L60.48 146.28M60.48 146.28L59.93 146.87M59.93 146.87L59.93 147.65M59.93 147.65L60.48 148.24M60.48 148.24L61.33 148.37M61.33 148.37L62.08 147.99M62.08 147.99L62.37 147.26"
fill="none" stroke="black" stroke-width="12"/>
</g>
<g><path d="M58.57 147.68L59.33 145.86M59.33 145.86L61.15 145.1M61.15 145.1L62.97 145.86M62.97 145.86L63.72 147.68M63.72 147.68L62.97 149.5M62.97 149.5L61.15 150.25M61.15 150.25L59.33 149.5M59.33 149.5L58.57 147.68"
fill="none" stroke="black" stroke-width="12"/>
</g>
<g><path d="M201.92 222.56L201.63 221.83M201.63 221.83L200.88 221.45M200.88 221.45L200.03 221.58M200.03 221.58L199.48 222.17M199.48 222.17L199.48 222.94M199.48 222.94L200.03 223.54M200.03 223.54L200.88 223.67M200.88 223.67L201.63 223.28M201.63 223.28L201.92 222.56"
fill="none" stroke="black" stroke-width="12"/>
</g>
<g><path d="M198.12 222.97L198.88 221.15M198.88 221.15L200.7 220.4M200.7 220.4L202.52 221.15M202.52 221.15L203.27 222.97M203.27 222.97L202.52 224.79M202.52 224.79L200.7 225.55M200.7 225.55L198.88 224.79M198.88 224.79L198.12 222.97"
fill="none" stroke="black" stroke-width="12"/>
</g>
<g><path d="M61.4 114.24L61.4 246.86"
fill="none" stroke="black" stroke-width="12"/>
</g>
<g><path d="M132.63 85.82L143.49 85.82"
fill="none" stroke="black" stroke-width="12"/>
</g>
<g><path d="M148.51 80.54L143.49 85.82M143.49 85.82L148.51 91.11"
fill="none" stroke="black" stroke-width="12"/>
</g>
<g><path d="M153.52 80.54L148.51 85.82M148.51 85.82L153.52 91.11"
fill="none" stroke="black" stroke-width="12"/>
</g>
<g><path d="M148.51 85.82L161.88 85.82"
fill="none" stroke="black" stroke-width="12"/>
</g>
<g><path d="M105.89 82.4L122.6 82.4M122.6 82.4L122.6 89.45M122.6 89.45L105.89 89.45M105.89 89.45L105.89 82.4"
fill="none" stroke="black" stroke-width="12"/>
</g>
<g><path d="M132.63 85.92L122.6 85.92"
fill="none" stroke="black" stroke-width="12"/>
</g>
<g><path d="M95.87 85.92L105.89 85.92"
fill="none" stroke="black" stroke-width="12"/>
</g>
<g><path d="M105.89 85.81L123.5 85.81"
fill="none" stroke="black" stroke-width="12"/>
</g>
<g><path d="M180.23 85.81L162.42 85.81"
fill="none" stroke="black" stroke-width="12"/>
</g>
<g><path d="M68.65 82.4L85.37 82.4M85.37 82.4L85.37 89.45M85.37 89.45L68.65 89.45M68.65 89.45L68.65 82.4"
fill="none" stroke="black" stroke-width="12"/>
</g>
<g><path d="M95.39 85.92L85.37 85.92"
fill="none" stroke="black" stroke-width="12"/>
</g>
<g><path d="M152.88 128.03L157.32 126.84M157.32 126.84L160.56 123.6M160.56 123.6L161.75 119.16"
fill="none" stroke="black" stroke-width="12"/>
</g>
<g><path d="M144.02 118.42L145.2 123.23M145.2 123.23L148.45 126.74M148.45 126.74L152.88 128.03"
fill="none" stroke="black" stroke-width="12"/>
</g>
<g><path d="M152.88 110.29L148.45 111.38M148.45 111.38L145.2 114.36M145.2 114.36L144.02 118.42"
fill="none" stroke="black" stroke-width="12"/>
</g>
<g><path d="M152.88 110.29L152.88 119.16"
fill="none" stroke="black" stroke-width="12"/>
</g>
<g><path d="M152.88 119.16L138.97 119.17"
fill="none" stroke="black" stroke-width="12"/>
</g>
<g><path d="M180.06 119.16L162.37 119.16"
fill="none" stroke="black" stroke-width="12"/>
</g>
<g><path d="M101.72 128.06L101.72 109.96M101.72 109.96L73.8 109.96M73.8 109.96L73.8 128.06M73.8 128.06L101.72 128.06"
fill="none" stroke="black" stroke-width="12"/>
</g>
<g><path d="M85.39 119.47L90.63 115.75"
fill="none" stroke="black" stroke-width="12"/>
</g>
<g><path d="M90.63 123.2L90.63 115.75"
fill="none" stroke="black" stroke-width="12"/>
</g>
<g><path d="M85.39 119.47L90.63 123.2"
fill="none" stroke="black" stroke-width="12"/>
</g>
<g><path d="M93.6 119.47L82.43 119.47"
fill="none" stroke="black" stroke-width="12"/>
</g>
<g><path d="M86.15 115.12L86.15 123.73"
fill="none" stroke="black" stroke-width="12"/>
</g>
<g><path d="M105.54 119.21L101.81 119.21"
fill="none" stroke="black" stroke-width="12"/>
</g>
<g><path d="M152.74 161.05L157.18 159.86M157.18 159.86L160.42 156.62M160.42 156.62L161.61 152.18"
fill="none" stroke="black" stroke-width="12"/>
</g>
<g><path d="M143.88 151.44L145.06 156.25M145.06 156.25L148.31 159.76M148.31 159.76L152.74 161.05"
fill="none" stroke="black" stroke-width="12"/>
</g>
<g><path d="M152.74 143.31L148.31 144.4M148.31 144.4L145.06 147.38M145.06 147.38L143.88 151.44"
fill="none" stroke="black" stroke-width="12"/>
</g>
<g><path d="M152.74 143.31L152.74 152.18"
fill="none" stroke="black" stroke-width="12"/>
</g>
<g><path d="M152.74 152.18L138.83 152.19"
fill="none" stroke="black" stroke-width="12"/>
</g>
<g><path d="M179.92 152.18L162.23 152.18"
fill="none" stroke="black" stroke-width="12"/>
</g>
<g><path d="M101.59 161.08L101.59 142.98M101.59 142.98L73.66 142.98M73.66 142.98L73.66 161.08M73.66 161.08L101.59 161.08"
fill="none" stroke="black" stroke-width="12"/>
</g>
<g><path d="M85.25 152.49L90.49 148.77"
fill="none" stroke="black" stroke-width="12"/>
</g>
<g><path d="M90.49 156.22L90.49 148.77"
fill="none" stroke="black" stroke-width="12"/>
</g>
<g><path d="M85.25 152.49L90.49 156.22"
fill="none" stroke="black" stroke-width="12"/>
</g>
<g><path d="M93.46 152.49L82.29 152.49"
fill="none" stroke="black" stroke-width="12"/>
</g>
<g><path d="M86.01 148.14L86.01 156.75"
fill="none" stroke="black" stroke-width="12"/>
</g>
<g><path d="M105.4 152.23L101.68 152.23"
fill="none" stroke="black" stroke-width="12"/>
</g>
<g><path d="M152.92 195.35L157.35 194.16M157.35 194.16L160.6 190.92M160.6 190.92L161.78 186.49"
fill="none" stroke="black" stroke-width="12"/>
</g>
<g><path d="M144.05 185.75L145.24 190.55M145.24 190.55L148.48 194.07M148.48 194.07L152.92 195.35"
fill="none" stroke="black" stroke-width="12"/>
</g>
<g><path d="M152.92 177.62L148.48 178.71M148.48 178.71L145.24 181.68M145.24 181.68L144.05 185.75"
fill="none" stroke="black" stroke-width="12"/>
</g>
<g><path d="M152.92 177.62L152.92 186.49"
fill="none" stroke="black" stroke-width="12"/>
</g>
<g><path d="M152.92 186.49L139.01 186.49"
fill="none" stroke="black" stroke-width="12"/>
</g>
<g><path d="M180.09 186.49L162.4 186.49"
fill="none" stroke="black" stroke-width="12"/>
</g>
<g><path d="M101.76 195.38L101.76 177.28M101.76 177.28L73.83 177.28M73.83 177.28L73.83 195.38M73.83 195.38L101.76 195.38"
fill="none" stroke="black" stroke-width="12"/>
</g>
<g><path d="M85.42 186.8L90.66 183.07"
fill="none" stroke="black" stroke-width="12"/>
</g>
<g><path d="M90.66 190.52L90.66 183.07"
fill="none" stroke="black" stroke-width="12"/>
</g>
<g><path d="M85.42 186.8L90.66 190.52"
fill="none" stroke="black" stroke-width="12"/>
</g>
<g><path d="M93.64 186.8L82.46 186.8"
fill="none" stroke="black" stroke-width="12"/>
</g>
<g><path d="M86.19 182.44L86.19 191.05"
fill="none" stroke="black" stroke-width="12"/>
</g>
<g><path d="M105.57 186.53L101.85 186.53"
fill="none" stroke="black" stroke-width="12"/>
</g>
<g><path d="M138.96 186.53L105.57 186.53"
fill="none" stroke="black" stroke-width="12"/>
</g>
<g><path d="M138.08 152.23L104.69 152.23"
fill="none" stroke="black" stroke-width="12"/>
</g>
<g><path d="M139.23 119.21L105.84 119.21"
fill="none" stroke="black" stroke-width="12"/>
</g>
<g><path d="M122.06 108.74L116.57 110.65M116.57 110.65L113.18 115.66M113.18 115.66L113.18 121.85M113.18 121.85L116.57 126.85M116.57 126.85L122.06 128.76M122.06 128.76L127.55 126.85M127.55 126.85L130.94 121.85M130.94 121.85L130.94 115.66M130.94 115.66L127.55 110.65M127.55 110.65L122.06 108.74"
fill="none" stroke="black" stroke-width="12"/>
</g>
<g><path d="M120.66 141.56L115.17 143.47M115.17 143.47L111.78 148.47M111.78 148.47L111.78 154.66M111.78 154.66L115.17 159.66M115.17 159.66L120.66 161.57M120.66 161.57L126.15 159.66M126.15 159.66L129.54 154.66M129.54 154.66L129.54 148.47M129.54 148.47L126.15 143.47M126.15 143.47L120.66 141.56"
fill="none" stroke="black" stroke-width="12"/>
</g>
<g><path d="M120.66 176.1L115.17 178.01M115.17 178.01L111.78 183.01M111.78 183.01L111.78 189.2M111.78 189.2L115.17 194.2M115.17 194.2L120.66 196.11M120.66 196.11L126.15 194.2M126.15 194.2L129.54 189.2M129.54 189.2L129.54 183.01M129.54 183.01L126.15 178.01M126.15 178.01L120.66 176.1"
fill="none" stroke="black" stroke-width="12"/>
</g>
<g><path d="M180.23 67.73L180.23 186.36"
fill="none" stroke="black" stroke-width="12"/>
</g>
<g><path d="M181.49 85.81L181.2 85.09M181.2 85.09L180.45 84.7M180.45 84.7L179.6 84.84M179.6 84.84L179.05 85.43M179.05 85.43L179.05 86.2M179.05 86.2L179.6 86.79M179.6 86.79L180.45 86.93M180.45 86.93L181.2 86.54M181.2 86.54L181.49 85.81"
fill="none" stroke="black" stroke-width="12"/>
</g>
<g><path d="M177.69 86.23L178.45 84.41M178.45 84.41L180.27 83.66M180.27 83.66L182.09 84.41M182.09 84.41L182.84 86.23M182.84 86.23L182.09 88.05M182.09 88.05L180.27 88.8M180.27 88.8L178.45 88.05M178.45 88.05L177.69 86.23"
fill="none" stroke="black" stroke-width="12"/>
</g>
<g><path d="M181.32 119.16L181.02 118.44M181.02 118.44L180.28 118.05M180.28 118.05L179.43 118.19M179.43 118.19L178.88 118.78M178.88 118.78L178.88 119.55M178.88 119.55L179.43 120.14M179.43 120.14L180.28 120.27M180.28 120.27L181.02 119.89M181.02 119.89L181.32 119.16"
fill="none" stroke="black" stroke-width="12"/>
</g>
<g><path d="M177.52 119.58L178.27 117.76M178.27 117.76L180.09 117M180.09 117L181.91 117.76M181.91 117.76L182.67 119.58M182.67 119.58L181.91 121.4M181.91 121.4L180.09 122.15M180.09 122.15L178.27 121.4M178.27 121.4L177.52 119.58"
fill="none" stroke="black" stroke-width="12"/>
</g>
<g><path d="M181.18 152.18L180.88 151.46M180.88 151.46L180.14 151.07M180.14 151.07L179.29 151.2M179.29 151.2L178.74 151.8M178.74 151.8L178.74 152.57M178.74 152.57L179.29 153.16M179.29 153.16L180.14 153.29M180.14 153.29L180.88 152.91M180.88 152.91L181.18 152.18"
fill="none" stroke="black" stroke-width="12"/>
</g>
<g><path d="M177.38 152.6L178.13 150.78M178.13 150.78L179.95 150.02M179.95 150.02L181.77 150.78M181.77 150.78L182.53 152.6M182.53 152.6L181.77 154.42M181.77 154.42L179.95 155.17M179.95 155.17L178.13 154.42M178.13 154.42L177.38 152.6"
fill="none" stroke="black" stroke-width="12"/>
</g>
<g><path d="M73.8 124.6L42.67 124.6"
fill="none" stroke="black" stroke-width="12"/>
</g>
<g><path d="M73.66 147.26L61.11 147.26"
fill="none" stroke="black" stroke-width="12"/>
</g>
<g><path d="M73.66 157.62L42.53 157.62"
fill="none" stroke="black" stroke-width="12"/>
</g>
<g><path d="M73.83 181.56L61.28 181.56"
fill="none" stroke="black" stroke-width="12"/>
</g>
<g><path d="M73.83 191.93L42.71 191.93"
fill="none" stroke="black" stroke-width="12"/>
</g>
<g><path d="M73.8 114.24L61.25 114.24"
fill="none" stroke="black" stroke-width="12"/>
</g>
<g><path d="M51.58 85.92L68.65 85.92"
fill="none" stroke="black" stroke-width="12"/>
</g>
<g><path d="M0.73 100.87L131.99 100.87M131.99 100.87L131.99 69.78M131.99 69.78L0.73 69.78M0.73 69.78L0.73 100.87"
fill="none" stroke="black" stroke-width="12"/>
</g>
<g><path d="M267.44 86.25L256.58 86.25"
fill="none" stroke="black" stroke-width="12"/>
</g>
<g><path d="M251.56 91.53L256.58 86.25M256.58 86.25L251.56 80.96"
fill="none" stroke="black" stroke-width="12"/>
</g>
<g><path d="M246.55 91.53L251.56 86.25M251.56 86.25L246.55 80.96"
fill="none" stroke="black" stroke-width="12"/>
</g>
<g><path d="M251.56 86.25L238.19 86.25"
fill="none" stroke="black" stroke-width="12"/>
</g>
<g><path d="M294.18 89.67L277.47 89.67M277.47 89.67L277.47 82.62M277.47 82.62L294.18 82.62M294.18 82.62L294.18 89.67"
fill="none" stroke="black" stroke-width="12"/>
</g>
<g><path d="M267.44 86.15L277.47 86.15"
fill="none" stroke="black" stroke-width="12"/>
</g>
<g><path d="M304.21 86.15L294.18 86.15"
fill="none" stroke="black" stroke-width="12"/>
</g>
<g><path d="M294.18 86.26L276.57 86.26"
fill="none" stroke="black" stroke-width="12"/>
</g>
<g><path d="M219.03 86.26L237.65 86.26"
fill="none" stroke="black" stroke-width="12"/>
</g>
<g><path d="M341.92 80.67L341.92 91.84"
fill="none" stroke="black" stroke-width="12"/>
</g>
<g><path d="M345.64 80.67L345.64 91.84"
fill="none" stroke="black" stroke-width="12"/>
</g>
<g><path d="M346.06 86.13L369.4 86.13"
fill="none" stroke="black" stroke-width="12"/>
</g>
<g><path d="M331.42 89.67L314.71 89.67M314.71 89.67L314.71 82.62M314.71 82.62L331.42 82.62M331.42 82.62L331.42 89.67"
fill="none" stroke="black" stroke-width="12"/>
</g>
<g><path d="M304.68 86.15L314.71 86.15"
fill="none" stroke="black" stroke-width="12"/>
</g>
<g><path d="M341.44 86.15L331.42 86.15"
fill="none" stroke="black" stroke-width="12"/>
</g>
<g><path d="M246.03 110.74L241.6 111.93M241.6 111.93L238.35 115.17M238.35 115.17L237.17 119.6"
fill="none" stroke="black" stroke-width="12"/>
</g>
<g><path d="M254.9 120.34L253.71 115.54M253.71 115.54L250.47 112.02M250.47 112.02L246.03 110.74"
fill="none" stroke="black" stroke-width="12"/>
</g>
<g><path d="M246.03 128.47L250.47 127.38M250.47 127.38L253.71 124.41M253.71 124.41L254.9 120.34"
fill="none" stroke="black" stroke-width="12"/>
</g>
<g><path d="M246.03 128.47L246.03 119.6"
fill="none" stroke="black" stroke-width="12"/>
</g>
<g><path d="M246.03 119.6L259.94 119.6"
fill="none" stroke="black" stroke-width="12"/>
</g>
<g><path d="M218.86 119.6L236.55 119.6"
fill="none" stroke="black" stroke-width="12"/>
</g>
<g><path d="M297.15 110.75L297.15 128.84M297.15 128.84L325.08 128.84M325.08 128.84L325.08 110.75M325.08 110.75L297.15 110.75"
fill="none" stroke="black" stroke-width="12"/>
</g>
<g><path d="M313.48 119.33L308.25 123.06"
fill="none" stroke="black" stroke-width="12"/>
</g>
<g><path d="M308.25 115.6L308.25 123.06"
fill="none" stroke="black" stroke-width="12"/>
</g>
<g><path d="M313.48 119.33L308.25 115.6"
fill="none" stroke="black" stroke-width="12"/>
</g>
<g><path d="M305.27 119.33L316.44 119.33"
fill="none" stroke="black" stroke-width="12"/>
</g>
<g><path d="M312.72 123.69L312.72 115.07"
fill="none" stroke="black" stroke-width="12"/>
</g>
<g><path d="M293.33 119.6L297.06 119.6"
fill="none" stroke="black" stroke-width="12"/>
</g>
<g><path d="M246.06 143.62L241.63 144.81M241.63 144.81L238.38 148.05M238.38 148.05L237.2 152.49"
fill="none" stroke="black" stroke-width="12"/>
</g>
<g><path d="M254.93 153.22L253.74 148.42M253.74 148.42L250.5 144.91M250.5 144.91L246.06 143.62"
fill="none" stroke="black" stroke-width="12"/>
</g>
<g><path d="M246.06 161.35L250.5 160.26M250.5 160.26L253.74 157.29M253.74 157.29L254.93 153.22"
fill="none" stroke="black" stroke-width="12"/>
</g>
<g><path d="M246.06 161.35L246.06 152.49"
fill="none" stroke="black" stroke-width="12"/>
</g>
<g><path d="M246.06 152.49L259.97 152.48"
fill="none" stroke="black" stroke-width="12"/>
</g>
<g><path d="M218.89 152.49L236.58 152.49"
fill="none" stroke="black" stroke-width="12"/>
</g>
<g><path d="M297.18 143.63L297.18 161.73M297.18 161.73L325.11 161.73M325.11 161.73L325.11 143.63M325.11 143.63L297.18 143.63"
fill="none" stroke="black" stroke-width="12"/>
</g>
<g><path d="M313.51 152.21L308.28 155.94"
fill="none" stroke="black" stroke-width="12"/>
</g>
<g><path d="M308.28 148.48L308.28 155.94"
fill="none" stroke="black" stroke-width="12"/>
</g>
<g><path d="M313.51 152.21L308.28 148.48"
fill="none" stroke="black" stroke-width="12"/>
</g>
<g><path d="M305.3 152.21L316.47 152.21"
fill="none" stroke="black" stroke-width="12"/>
</g>
<g><path d="M312.75 156.57L312.75 147.96"
fill="none" stroke="black" stroke-width="12"/>
</g>
<g><path d="M293.37 152.48L297.09 152.48"
fill="none" stroke="black" stroke-width="12"/>
</g>
<g><path d="M246.28 176.92L241.84 178.1M241.84 178.1L238.6 181.35M238.6 181.35L237.41 185.78"
fill="none" stroke="black" stroke-width="12"/>
</g>
<g><path d="M255.14 186.52L253.96 181.72M253.96 181.72L250.71 178.2M250.71 178.2L246.28 176.92"
fill="none" stroke="black" stroke-width="12"/>
</g>
<g><path d="M246.28 194.65L250.71 193.56M250.71 193.56L253.96 190.59M253.96 190.59L255.14 186.52"
fill="none" stroke="black" stroke-width="12"/>
</g>
<g><path d="M246.28 194.65L246.28 185.78"
fill="none" stroke="black" stroke-width="12"/>
</g>
<g><path d="M246.28 185.78L260.19 185.78"
fill="none" stroke="black" stroke-width="12"/>
</g>
<g><path d="M219.1 185.78L236.79 185.78"
fill="none" stroke="black" stroke-width="12"/>
</g>
<g><path d="M297.39 176.92L297.39 195.02M297.39 195.02L325.32 195.02M325.32 195.02L325.32 176.92M325.32 176.92L297.39 176.92"
fill="none" stroke="black" stroke-width="12"/>
</g>
<g><path d="M313.73 185.51L308.49 189.23"
fill="none" stroke="black" stroke-width="12"/>
</g>
<g><path d="M308.49 181.78L308.49 189.23"
fill="none" stroke="black" stroke-width="12"/>
</g>
<g><path d="M313.73 185.51L308.49 181.78"
fill="none" stroke="black" stroke-width="12"/>
</g>
<g><path d="M305.51 185.51L316.69 185.51"
fill="none" stroke="black" stroke-width="12"/>
</g>
<g><path d="M312.96 189.86L312.96 181.25"
fill="none" stroke="black" stroke-width="12"/>
</g>
<g><path d="M293.58 185.78L297.3 185.78"
fill="none" stroke="black" stroke-width="12"/>
</g>
<g><path d="M260.1 185.78L293.49 185.78"
fill="none" stroke="black" stroke-width="12"/>
</g>
<g><path d="M260.33 152.48L293.72 152.48"
fill="none" stroke="black" stroke-width="12"/>
</g>
<g><path d="M260.33 119.6L293.72 119.6"
fill="none" stroke="black" stroke-width="12"/>
</g>
<g><path d="M277.38 109.19L271.89 111.1M271.89 111.1L268.5 116.1M268.5 116.1L268.5 122.29M268.5 122.29L271.89 127.29M271.89 127.29L277.38 129.2M277.38 129.2L282.86 127.29M282.86 127.29L286.26 122.29M286.26 122.29L286.26 116.1M286.26 116.1L282.86 111.1M282.86 111.1L277.38 109.19"
fill="none" stroke="black" stroke-width="12"/>
</g>
<g><path d="M275.97 142L270.49 143.91M270.49 143.91L267.09 148.92M267.09 148.92L267.09 155.1M267.09 155.1L270.49 160.11M270.49 160.11L275.97 162.02M275.97 162.02L281.46 160.11M281.46 160.11L284.85 155.1M284.85 155.1L284.85 148.92M284.85 148.92L281.46 143.91M281.46 143.91L275.97 142"
fill="none" stroke="black" stroke-width="12"/>
</g>
<g><path d="M275.97 176.54L270.49 178.45M270.49 178.45L267.09 183.46M267.09 183.46L267.09 189.64M267.09 189.64L270.49 194.65M270.49 194.65L275.97 196.56M275.97 196.56L281.46 194.65M281.46 194.65L284.85 189.64M284.85 189.64L284.85 183.46M284.85 183.46L281.46 178.45M281.46 178.45L275.97 176.54"
fill="none" stroke="black" stroke-width="12"/>
</g>
<g><path d="M375.21 79.95L371.47 81.42M371.47 81.42L369.49 85.12M369.49 85.12L370.18 89.33M370.18 89.33L373.22 92.08M373.22 92.08L377.2 92.08M377.2 92.08L380.24 89.33M380.24 89.33L380.93 85.12M380.93 85.12L378.94 81.42M378.94 81.42L375.21 79.95"
fill="none" stroke="black" stroke-width="12"/>
</g>
<g><path d="M379.95 84.11L376.22 85.57M376.22 85.57L374.23 89.27M374.23 89.27L374.92 93.49M374.92 93.49L377.97 96.23M377.97 96.23L381.94 96.23M381.94 96.23L384.98 93.49M384.98 93.49L385.67 89.27M385.67 89.27L383.69 85.57M383.69 85.57L379.95 84.11"
fill="none" stroke="black" stroke-width="12"/>
</g>
<g><path d="M380.76 76.88L377.03 78.35M377.03 78.35L375.04 82.05M375.04 82.05L375.73 86.26M375.73 86.26L378.77 89.01M378.77 89.01L382.75 89.01M382.75 89.01L385.79 86.26M385.79 86.26L386.48 82.05M386.48 82.05L384.5 78.35M384.5 78.35L380.76 76.88"
fill="none" stroke="black" stroke-width="12"/>
</g>
<g><path d="M219.1 67.15L219.1 185.78"
fill="none" stroke="black" stroke-width="12"/>
</g>
<g><path d="M220.29 86.26L219.99 85.53M219.99 85.53L219.25 85.15M219.25 85.15L218.4 85.28M218.4 85.28L217.85 85.87M217.85 85.87L217.85 86.64M217.85 86.64L218.4 87.23M218.4 87.23L219.25 87.37M219.25 87.37L219.99 86.98M219.99 86.98L220.29 86.26"
fill="none" stroke="black" stroke-width="12"/>
</g>
<g><path d="M216.49 86.67L217.24 84.85M217.24 84.85L219.06 84.1M219.06 84.1L220.88 84.85M220.88 84.85L221.64 86.67M221.64 86.67L220.88 88.49M220.88 88.49L219.06 89.25M219.06 89.25L217.24 88.49M217.24 88.49L216.49 86.67"
fill="none" stroke="black" stroke-width="12"/>
</g>
<g><path d="M220.12 119.6L219.82 118.88M219.82 118.88L219.08 118.49M219.08 118.49L218.23 118.63M218.23 118.63L217.67 119.22M217.67 119.22L217.67 119.99M217.67 119.99L218.23 120.58M218.23 120.58L219.08 120.72M219.08 120.72L219.82 120.33M219.82 120.33L220.12 119.6"
fill="none" stroke="black" stroke-width="12"/>
</g>
<g><path d="M216.32 120.02L217.07 118.2M217.07 118.2L218.89 117.45M218.89 117.45L220.71 118.2M220.71 118.2L221.47 120.02M221.47 120.02L220.71 121.84M220.71 121.84L218.89 122.59M218.89 122.59L217.07 121.84M217.07 121.84L216.32 120.02"
fill="none" stroke="black" stroke-width="12"/>
</g>
<g><path d="M220.36 152.49L220.06 151.76M220.06 151.76L219.32 151.37M219.32 151.37L218.47 151.51M218.47 151.51L217.92 152.1M217.92 152.1L217.92 152.87M217.92 152.87L218.47 153.46M218.47 153.46L219.32 153.6M219.32 153.6L220.06 153.21M220.06 153.21L220.36 152.49"
fill="none" stroke="black" stroke-width="12"/>
</g>
<g><path d="M216.56 152.9L217.31 151.08M217.31 151.08L219.13 150.33M219.13 150.33L220.96 151.08M220.96 151.08L221.71 152.9M221.71 152.9L220.96 154.72M220.96 154.72L219.13 155.48M219.13 155.48L217.31 154.72M217.31 154.72L216.56 152.9"
fill="none" stroke="black" stroke-width="12"/>
</g>
<g><path d="M265.51 102L396.76 102M396.76 102L396.76 70.92M396.76 70.92L265.51 70.92M265.51 70.92L265.51 102"
fill="none" stroke="black" stroke-width="12"/>
</g>
<g><path d="M325.08 113.76L362.93 113.76"
fill="none" stroke="black" stroke-width="12"/>
</g>
<g><path d="M325.08 123.43L340.59 123.43"
fill="none" stroke="black" stroke-width="12"/>
</g>
<g><path d="M325.11 146.92L362.91 146.92"
fill="none" stroke="black" stroke-width="12"/>
</g>
<g><path d="M325.11 157L340.62 157"
fill="none" stroke="black" stroke-width="12"/>
</g>
<g><path d="M325.32 180.21L363.12 180.21"
fill="none" stroke="black" stroke-width="12"/>
</g>
<g><path d="M325.32 190.3L340.83 190.3"
fill="none" stroke="black" stroke-width="12"/>
</g>
</g>
</svg>
