<?xml version="1.0" standalone="no"?><svg xmlns="http://www.w3.org/2000/svg" width="400.000" height="400.000" viewBox="0.0 0.0 400.000 400.000" version="1.1">
  <title>Produce by Acme CAD Converter</title>
  <desc>Produce by Acme CAD Converter</desc>
<g id="0" display="visible">
<g><path d="M146.81 293.14L148.78 307.46M148.78 307.46L154.55 320.71M154.55 320.71L163.7 331.92M163.7 331.92L175.53 340.26M175.53 340.26L189.18 345.1M189.18 345.1L203.63 346.08M203.63 346.08L217.81 343.14M217.81 343.14L230.67 336.49M230.67 336.49L241.26 326.63M241.26 326.63L248.79 314.28M248.79 314.28L252.69 300.37M252.69 300.37L252.69 285.92M252.69 285.92L248.79 272.01M248.79 272.01L241.26 259.66M241.26 259.66L230.67 249.8M230.67 249.8L217.81 243.15M217.81 243.15L203.63 240.21M203.63 240.21L189.18 241.19M189.18 241.19L175.53 246.03M175.53 246.03L163.7 254.37M163.7 254.37L154.55 265.58M154.55 265.58L148.78 278.83M148.78 278.83L146.81 293.14"
fill="none" stroke="black" stroke-width="12"/>
</g>
<g><path d="M93.62 346.21L95.59 360.52M95.59 360.52L101.37 373.78M101.37 373.78L110.51 384.98M110.51 384.98L122.34 393.32M122.34 393.32L135.99 398.16M135.99 398.16L150.44 399.14M150.44 399.14L164.62 396.2M164.62 396.2L177.48 389.55M177.48 389.55L188.07 379.69M188.07 379.69L195.6 367.35M195.6 367.35L199.5 353.43M199.5 353.43L199.5 338.98M199.5 338.98L195.6 325.07M195.6 325.07L188.07 312.72M188.07 312.72L177.48 302.86M177.48 302.86L164.62 296.21M164.62 296.21L150.44 293.27M150.44 293.27L135.99 294.25M135.99 294.25L122.34 299.09M122.34 299.09L110.51 307.43M110.51 307.43L101.37 318.64M101.37 318.64L95.59 331.89M95.59 331.89L93.62 346.21"
fill="none" stroke="black" stroke-width="12"/>
</g>
<g><path d="M200 346.21L201.97 360.52M201.97 360.52L207.74 373.78M207.74 373.78L216.88 384.98M216.88 384.98L228.72 393.32M228.72 393.32L242.37 398.16M242.37 398.16L256.82 399.14M256.82 399.14L271 396.2M271 396.2L283.86 389.55M283.86 389.55L294.45 379.69M294.45 379.69L301.97 367.35M301.97 367.35L305.88 353.43M305.88 353.43L305.88 338.98M305.88 338.98L301.97 325.07M301.97 325.07L294.45 312.72M294.45 312.72L283.86 302.86M283.86 302.86L271 296.21M271 296.21L256.82 293.27M256.82 293.27L242.37 294.25M242.37 294.25L228.72 299.09M228.72 299.09L216.88 307.43M216.88 307.43L207.74 318.64M207.74 318.64L201.97 331.89M201.97 331.89L200 346.21"
fill="none" stroke="black" stroke-width="12"/>
</g>
<g><path d="M253.9 335.59L253.9 356.82M253.9 356.82L266.66 369.55"
fill="none" stroke="black" stroke-width="12"/>
</g>
<g><path d="M253.9 356.82L242.55 368.14"
fill="none" stroke="black" stroke-width="12"/>
</g>
<g><path d="M200.71 259.19L200.71 280.41M200.71 280.41L213.47 293.14"
fill="none" stroke="black" stroke-width="12"/>
</g>
<g><path d="M200.71 280.41L189.36 291.73"
fill="none" stroke="black" stroke-width="12"/>
</g>
<g><path d="M200 80.52L200 240.08"
fill="none" stroke="black" stroke-width="12"/>
</g>
<g><path d="M226.59 107.11L200 80.52M200 80.52L173.41 107.11"
fill="none" stroke="black" stroke-width="12"/>
</g>
<g><path d="M226.59 80.52L200 53.92M200 53.92L173.41 80.52"
fill="none" stroke="black" stroke-width="12"/>
</g>
<g><path d="M200 0.73L200 53.92"
fill="none" stroke="black" stroke-width="12"/>
</g>
<g><path d="M141.49 337.57L120.22 369.48M120.22 369.48L162.77 369.48M162.77 369.48L141.49 337.57"
fill="none" stroke="black" stroke-width="12"/>
</g>
</g>
</svg>
