<?xml version="1.0" standalone="no"?><svg xmlns="http://www.w3.org/2000/svg" width="400.000" height="400.000" viewBox="0.0 0.0 400.000 400.000" version="1.1">
  <title>Produce by Acme CAD Converter</title>
  <desc>Produce by Acme CAD Converter</desc>
<g id="0" display="visible">
<g><path d="M183.3 92.8L183.3 128.24M183.3 128.24L216.7 128.24M216.7 128.24L216.7 92.8M216.7 92.8L183.3 92.8"
fill="none" stroke="black" stroke-width="12"/>
</g>
<g><path d="M199.52 58.66L199.52 92.8"
fill="none" stroke="black" stroke-width="12"/>
</g>
<g><path d="M199.52 58.66L187.93 70.24"
fill="none" stroke="black" stroke-width="12"/>
</g>
<g><path d="M199.52 58.66L211.1 70.24"
fill="none" stroke="black" stroke-width="12"/>
</g>
<g><path d="M199.52 128.24L199.52 162.93"
fill="none" stroke="black" stroke-width="12"/>
</g>
<g><path d="M187.93 151.34L199.52 162.93"
fill="none" stroke="black" stroke-width="12"/>
</g>
<g><path d="M211.1 151.34L199.52 162.93"
fill="none" stroke="black" stroke-width="12"/>
</g>
<g><path d="M199.52 47.07L187.93 58.66"
fill="none" stroke="black" stroke-width="12"/>
</g>
<g><path d="M199.52 47.07L211.1 58.66"
fill="none" stroke="black" stroke-width="12"/>
</g>
<g><path d="M187.93 161.77L199.52 173.35M199.52 173.35L211.1 161.77"
fill="none" stroke="black" stroke-width="12"/>
</g>
<g><path d="M199.52 173.35L199.52 196.52"
fill="none" stroke="black" stroke-width="12"/>
</g>
<g><path d="M200 0.73L200 47.07"
fill="none" stroke="black" stroke-width="12"/>
</g>
<g><path d="M187.93 232.44L199.52 244.02"
fill="none" stroke="black" stroke-width="12"/>
</g>
<g><path d="M188.22 232.73L211.1 232.73"
fill="none" stroke="black" stroke-width="12"/>
</g>
<g><path d="M211.1 232.73L199.52 244.02"
fill="none" stroke="black" stroke-width="12"/>
</g>
<g><path d="M199.52 196.52L200 232.73"
fill="none" stroke="black" stroke-width="12"/>
</g>
<g><path d="M199.52 244.02L199.52 277.62"
fill="none" stroke="black" stroke-width="12"/>
</g>
<g><path d="M199.52 343.66L187.93 355.24"
fill="none" stroke="black" stroke-width="12"/>
</g>
<g><path d="M199.52 343.66L211.1 355.24"
fill="none" stroke="black" stroke-width="12"/>
</g>
<g><path d="M187.93 355.24L211.1 355.24"
fill="none" stroke="black" stroke-width="12"/>
</g>
<g><path d="M200 355.24L200 391.16"
fill="none" stroke="black" stroke-width="12"/>
</g>
<g><path d="M193.05 376.1L200 399.27"
fill="none" stroke="black" stroke-width="12"/>
</g>
<g><path d="M206.95 376.1L199.81 398.63"
fill="none" stroke="black" stroke-width="12"/>
</g>
<g><path d="M199.52 277.62L199.52 343.66"
fill="none" stroke="black" stroke-width="12"/>
</g>
<g><path d="M211.74 210.19L209.83 203.86M209.83 203.86L204.7 199.54M204.7 199.54L197.99 198.6M197.99 198.6L191.82 201.34M191.82 201.34L188.15 206.89M188.15 206.89L188.15 213.49M188.15 213.49L191.82 219.03M191.82 219.03L197.99 221.77M197.99 221.77L204.7 220.84M204.7 220.84L209.83 216.52M209.83 216.52L211.74 210.19"
fill="none" stroke="black" stroke-width="12"/>
</g>
</g>
</svg>
