<?xml version="1.0" standalone="no"?><svg xmlns="http://www.w3.org/2000/svg" width="400.000" height="400.000" viewBox="0.0 0.0 400.000 400.000" version="1.1">
  <title>Produce by Acme CAD Converter</title>
  <desc>Produce by Acme CAD Converter</desc>
<g id="0" display="visible">
<g><path d="M188.73 76.78L211.27 76.78M211.27 76.78L211.27 133.11M211.27 133.11L188.73 133.11M188.73 133.11L188.73 76.78"
fill="none" stroke="black" stroke-width="12"/>
</g>
<g><path d="M200 76.78L200 133.11M200 133.11L200 76.78"
fill="none" stroke="black" stroke-width="12"/>
</g>
<g><path d="M200 20.45L200 76.78M200 76.78L200 20.45"
fill="none" stroke="black" stroke-width="12"/>
</g>
<g><path d="M200 20.45L200 0.73"
fill="none" stroke="black" stroke-width="12"/>
</g>
<g><path d="M228.16 343.07L226.26 332.92M226.26 332.92L220.81 324.14M220.81 324.14L212.55 317.92M212.55 317.92L202.6 315.1M202.6 315.1L192.29 316.05M192.29 316.05L183.03 320.65M183.03 320.65L176.05 328.28M176.05 328.28L172.31 337.91M172.31 337.91L172.31 348.24M172.31 348.24L176.05 357.86M176.05 357.86L183.03 365.49M183.03 365.49L192.29 370.1M192.29 370.1L202.6 371.05M202.6 371.05L212.55 368.22M212.55 368.22L220.81 362M220.81 362L226.26 353.22M226.26 353.22L228.16 343.07"
fill="none" stroke="black" stroke-width="12"/>
</g>
<g><path d="M256.33 371.17L254.43 361.02M254.43 361.02L248.98 352.24M248.98 352.24L240.72 346.02M240.72 346.02L230.76 343.19M230.76 343.19L220.46 344.15M220.46 344.15L211.19 348.75M211.19 348.75L204.22 356.38M204.22 356.38L200.48 366.01M200.48 366.01L200.48 376.33M200.48 376.33L204.22 385.96M204.22 385.96L211.19 393.59M211.19 393.59L220.46 398.19M220.46 398.19L230.76 399.15M230.76 399.15L240.72 396.32M240.72 396.32L248.98 390.1M248.98 390.1L254.43 381.32M254.43 381.32L256.33 371.17"
fill="none" stroke="black" stroke-width="12"/>
</g>
<g><path d="M200 371.17L198.1 361.02M198.1 361.02L192.65 352.24M192.65 352.24L184.39 346.02M184.39 346.02L174.43 343.19M174.43 343.19L164.13 344.15M164.13 344.15L154.86 348.75M154.86 348.75L147.89 356.38M147.89 356.38L144.15 366.01M144.15 366.01L144.15 376.33M144.15 376.33L147.89 385.96M147.89 385.96L154.86 393.59M154.86 393.59L164.13 398.19M164.13 398.19L174.43 399.15M174.43 399.15L184.39 396.32M184.39 396.32L192.65 390.1M192.65 390.1L198.1 381.32M198.1 381.32L200 371.17"
fill="none" stroke="black" stroke-width="12"/>
</g>
<g><path d="M171.46 365.55L171.46 376.79M171.46 376.79L164.7 383.53"
fill="none" stroke="black" stroke-width="12"/>
</g>
<g><path d="M171.46 376.79L177.47 382.78"
fill="none" stroke="black" stroke-width="12"/>
</g>
<g><path d="M199.62 325.09L199.62 336.33M199.62 336.33L192.86 343.07"
fill="none" stroke="black" stroke-width="12"/>
</g>
<g><path d="M199.62 336.33L205.63 342.32"
fill="none" stroke="black" stroke-width="12"/>
</g>
<g><path d="M228.16 371.17L218.03 381.28"
fill="none" stroke="black" stroke-width="12"/>
</g>
<g><path d="M233.8 371.17L245.06 382.41M245.06 382.41L216.9 382.41"
fill="none" stroke="black" stroke-width="12"/>
</g>
<g><path d="M200 267.45L200 314.77"
fill="none" stroke="black" stroke-width="12"/>
</g>
<g><path d="M185.92 240.7L200 254.78"
fill="none" stroke="black" stroke-width="12"/>
</g>
<g><path d="M214.08 240.7L200 254.78"
fill="none" stroke="black" stroke-width="12"/>
</g>
<g><path d="M185.92 253.37L200 267.45M200 267.45L214.08 253.37"
fill="none" stroke="black" stroke-width="12"/>
</g>
<g><path d="M200 133.11L200 254.78M200 254.78L200 133.11"
fill="none" stroke="black" stroke-width="12"/>
</g>
</g>
</svg>
