<?xml version="1.0" standalone="no"?><svg xmlns="http://www.w3.org/2000/svg" width="400.000" height="400.000" viewBox="0.0 0.0 400.000 400.000" version="1.1">
  <title>Produce by Acme CAD Converter</title>
  <desc>Produce by Acme CAD Converter</desc>
<g id="0" display="visible">
<g><path d="M176.47 335.75L178.26 326.74M178.26 326.74L183.36 319.11M183.36 319.11L191 314.01M191 314.01L200 312.22M200 312.22L209 314.01M209 314.01L216.64 319.11M216.64 319.11L221.74 326.74M221.74 326.74L223.53 335.75M223.53 335.75L221.74 344.75M221.74 344.75L216.64 352.38M216.64 352.38L209 357.48M209 357.48L200 359.27M200 359.27L191 357.48M191 357.48L183.36 352.38M183.36 352.38L178.26 344.75M178.26 344.75L176.47 335.75"
fill="none" stroke="black" stroke-width="12"/>
</g>
<g><path d="M176.47 375.74L178.26 366.74M178.26 366.74L183.36 359.11M183.36 359.11L191 354.01M191 354.01L200 352.21M200 352.21L209 354.01M209 354.01L216.64 359.11M216.64 359.11L221.74 366.74M221.74 366.74L223.53 375.74M223.53 375.74L221.74 384.74M221.74 384.74L216.64 392.38M216.64 392.38L209 397.48M209 397.48L200 399.27M200 399.27L191 397.48M191 397.48L183.36 392.38M183.36 392.38L178.26 384.74M178.26 384.74L176.47 375.74"
fill="none" stroke="black" stroke-width="12"/>
</g>
<g><path d="M190.59 111.78L209.41 111.78M209.41 111.78L209.41 56.26M209.41 56.26L190.59 56.26M190.59 56.26L190.59 111.78"
fill="none" stroke="black" stroke-width="12"/>
</g>
<g><path d="M200 111.78L200 56.26M200 56.26L200 111.78"
fill="none" stroke="black" stroke-width="12"/>
</g>
<g><path d="M200 56.26L200 0.73M200 0.73L200 56.26"
fill="none" stroke="black" stroke-width="12"/>
</g>
<g><path d="M200 312.3L200 111.78"
fill="none" stroke="black" stroke-width="12"/>
</g>
</g>
</svg>
