<?xml version="1.0" standalone="no"?><svg xmlns="http://www.w3.org/2000/svg" width="400.000" height="400.000" viewBox="0.0 0.0 400.000 400.000" version="1.1">
  <title>Produce by Acme CAD Converter</title>
  <desc>Produce by Acme CAD Converter</desc>
<g id="0" display="visible">
<g><path d="M160.38 223.77L162.32 211.53M162.32 211.53L167.95 200.48M167.95 200.48L176.71 191.72M176.71 191.72L187.76 186.09M187.76 186.09L200 184.15M200 184.15L212.24 186.09M212.24 186.09L223.29 191.72M223.29 191.72L232.05 200.48M232.05 200.48L237.68 211.53M237.68 211.53L239.62 223.77M239.62 223.77L237.68 236.01M237.68 236.01L232.05 247.06M232.05 247.06L223.29 255.82M223.29 255.82L212.24 261.45M212.24 261.45L200 263.39M200 263.39L187.76 261.45M187.76 261.45L176.71 255.82M176.71 255.82L167.95 247.06M167.95 247.06L162.32 236.01M162.32 236.01L160.38 223.77"
fill="none" stroke="black" stroke-width="12"/>
</g>
<g><path d="M231.15 199.37L230.05 188.62M230.05 188.62L226.92 178.61M226.92 178.61L221.97 170.01M221.97 170.01L215.53 163.4M215.53 163.4L208.04 159.21M208.04 159.21L200 157.74"
fill="none" stroke="black" stroke-width="12"/>
</g>
<g><path d="M186.79 236.98L200 210.56M200 210.56L213.21 236.98"
fill="none" stroke="black" stroke-width="12"/>
</g>
<g><path d="M187.06 236.98L212.94 236.98"
fill="none" stroke="black" stroke-width="12"/>
</g>
<g><path d="M200.6 0.73L200.6 161.56"
fill="none" stroke="black" stroke-width="12"/>
</g>
<g><path d="M200 267.21L200 399.27"
fill="none" stroke="black" stroke-width="12"/>
</g>
</g>
</svg>
