<?xml version="1.0" standalone="no"?><svg xmlns="http://www.w3.org/2000/svg" width="400.000" height="400.000" viewBox="0.0 0.0 400.000 400.000" version="1.1">
  <title>Produce by Acme CAD Converter</title>
  <desc>Produce by Acme CAD Converter</desc>
<g id="0" display="visible">
<g><path d="M185.64 126.65L185.64 113.65 183.9 120.15 185.64 126.65Z"
fill-rule="evenodd" fill="black"/>
<path d="M185.64 126.65L190.4 131.4 185.64 113.65 185.64 126.65Z"
fill-rule="evenodd" fill="black"/>
<path d="M190.4 131.4L190.4 108.89 185.64 113.65 190.4 131.4Z"
fill-rule="evenodd" fill="black"/>
<path d="M190.4 131.4L196.89 133.14 190.4 108.89 190.4 131.4Z"
fill-rule="evenodd" fill="black"/>
<path d="M196.89 133.14L196.89 107.15 190.4 108.89 196.89 133.14Z"
fill-rule="evenodd" fill="black"/>
<path d="M196.89 133.14L203.39 131.4 196.89 107.15 196.89 133.14Z"
fill-rule="evenodd" fill="black"/>
<path d="M203.39 131.4L203.39 108.89 196.89 107.15 203.39 131.4Z"
fill-rule="evenodd" fill="black"/>
<path d="M203.39 131.4L208.15 126.65 203.39 108.89 203.39 131.4Z"
fill-rule="evenodd" fill="black"/>
<path d="M208.15 126.65L208.15 113.65 203.39 108.89 208.15 126.65Z"
fill-rule="evenodd" fill="black"/>
<path d="M208.15 126.65L209.89 120.15 208.15 113.65 208.15 126.65Z"
fill-rule="evenodd" fill="black"/>
</g>
<g><path d="M197.4 174.22L197.4 104.91"
fill="none" stroke="black" stroke-width="12"/>
</g>
<g><path d="M197.4 52.92L198.27 0.73"
fill="none" stroke="black" stroke-width="12"/>
</g>
<g><path d="M188.74 58.12L206.06 58.12"
fill="none" stroke="black" stroke-width="12"/>
</g>
<g><path d="M183.54 44.26L197.4 104.91"
fill="none" stroke="black" stroke-width="12"/>
</g>
<g><path d="M154.08 256.73L156.01 269.47M156.01 269.47L161.61 281.08M161.61 281.08L170.39 290.52M170.39 290.52L181.57 296.96M181.57 296.96L194.16 299.83M194.16 299.83L207.04 298.86M207.04 298.86L219.06 294.16M219.06 294.16L229.16 286.13M229.16 286.13L236.43 275.48M236.43 275.48L240.24 263.17M240.24 263.17L240.24 250.29M240.24 250.29L236.43 237.98M236.43 237.98L229.16 227.34M229.16 227.34L219.06 219.31M219.06 219.31L207.04 214.6M207.04 214.6L194.16 213.64M194.16 213.64L181.57 216.5M181.57 216.5L170.39 222.95M170.39 222.95L161.61 232.39M161.61 232.39L156.01 243.99M156.01 243.99L154.08 256.73"
fill="none" stroke="black" stroke-width="12"/>
</g>
<g><path d="M110.76 299.95L112.69 312.68M112.69 312.68L118.29 324.29M118.29 324.29L127.07 333.73M127.07 333.73L138.26 340.17M138.26 340.17L150.84 343.04M150.84 343.04L163.72 342.08M163.72 342.08L175.74 337.37M175.74 337.37L185.84 329.34M185.84 329.34L193.11 318.7M193.11 318.7L196.92 306.39M196.92 306.39L196.92 293.51M196.92 293.51L193.11 281.2M193.11 281.2L185.84 270.55M185.84 270.55L175.74 262.52M175.74 262.52L163.72 257.82M163.72 257.82L150.84 256.85M150.84 256.85L138.26 259.72M138.26 259.72L127.07 266.16M127.07 266.16L118.29 275.6M118.29 275.6L112.69 287.21M112.69 287.21L110.76 299.95"
fill="none" stroke="black" stroke-width="12"/>
</g>
<g><path d="M197.4 299.95L199.33 312.68M199.33 312.68L204.93 324.29M204.93 324.29L213.71 333.73M213.71 333.73L224.89 340.17M224.89 340.17L237.48 343.04M237.48 343.04L250.36 342.08M250.36 342.08L262.38 337.37M262.38 337.37L272.47 329.34M272.47 329.34L279.75 318.7M279.75 318.7L283.55 306.39M283.55 306.39L283.55 293.51M283.55 293.51L279.75 281.2M279.75 281.2L272.47 270.55M272.47 270.55L262.38 262.52M262.38 262.52L250.36 257.82M250.36 257.82L237.48 256.85M237.48 256.85L224.89 259.72M224.89 259.72L213.71 266.16M213.71 266.16L204.93 275.6M204.93 275.6L199.33 287.21M199.33 287.21L197.4 299.95"
fill="none" stroke="black" stroke-width="12"/>
</g>
<g><path d="M241.3 291.3L241.3 308.59M241.3 308.59L251.69 318.96"
fill="none" stroke="black" stroke-width="12"/>
</g>
<g><path d="M241.3 308.59L232.06 317.81"
fill="none" stroke="black" stroke-width="12"/>
</g>
<g><path d="M197.98 229.07L197.98 246.36M197.98 246.36L208.37 256.73"
fill="none" stroke="black" stroke-width="12"/>
</g>
<g><path d="M197.98 246.36L188.74 255.58"
fill="none" stroke="black" stroke-width="12"/>
</g>
<g><path d="M154.08 299.95L169.68 315.5"
fill="none" stroke="black" stroke-width="12"/>
</g>
<g><path d="M145.42 299.95L128.09 317.23M128.09 317.23L171.41 317.23"
fill="none" stroke="black" stroke-width="12"/>
</g>
<g><path d="M197.4 143.89L197.4 213.2"
fill="none" stroke="black" stroke-width="12"/>
</g>
<g><path d="M315.23 173.35L349.88 173.35M349.88 173.35L349.88 259.99M349.88 259.99L315.23 259.99M315.23 259.99L315.23 173.35"
fill="none" stroke="black" stroke-width="12"/>
</g>
<g><path d="M332.56 263.45L332.56 346.63M332.56 346.63L332.56 263.45"
fill="none" stroke="black" stroke-width="12"/>
</g>
<g><path d="M315.23 251.33L349.88 251.33"
fill="none" stroke="black" stroke-width="12"/>
</g>
<g><path d="M315.23 242.66L349.88 242.66"
fill="none" stroke="black" stroke-width="12"/>
</g>
<g><path d="M332.56 204.54L332.56 173.35"
fill="none" stroke="black" stroke-width="12"/>
</g>
<g><path d="M332.56 351.82L332.56 282.51"
fill="none" stroke="black" stroke-width="12"/>
</g>
<g><path d="M306.56 351.82L358.55 351.82"
fill="none" stroke="black" stroke-width="12"/>
</g>
<g><path d="M315.23 360.49L349.88 360.49"
fill="none" stroke="black" stroke-width="12"/>
</g>
<g><path d="M323.89 369.15L341.22 369.15"
fill="none" stroke="black" stroke-width="12"/>
</g>
<g><path d="M197.4 122.23L332.56 122.23M332.56 122.23L332.56 173.35"
fill="none" stroke="black" stroke-width="12"/>
</g>
<g><path d="M154.08 356.05L156.01 368.79M156.01 368.79L161.61 380.4M161.61 380.4L170.39 389.84M170.39 389.84L181.57 396.28M181.57 396.28L194.16 399.15M194.16 399.15L207.04 398.18M207.04 398.18L219.06 393.48M219.06 393.48L229.16 385.45M229.16 385.45L236.43 374.8M236.43 374.8L240.24 362.49M240.24 362.49L240.24 349.61M240.24 349.61L236.43 337.3M236.43 337.3L229.16 326.66M229.16 326.66L219.06 318.63M219.06 318.63L207.04 313.92M207.04 313.92L194.16 312.96M194.16 312.96L181.57 315.83M181.57 315.83L170.39 322.27M170.39 322.27L161.61 331.71M161.61 331.71L156.01 343.31M156.01 343.31L154.08 356.05"
fill="none" stroke="black" stroke-width="12"/>
</g>
<g><path d="M197.98 345.83L197.98 363.11M197.98 363.11L208.37 373.48"
fill="none" stroke="black" stroke-width="12"/>
</g>
<g><path d="M197.98 363.11L188.74 372.33"
fill="none" stroke="black" stroke-width="12"/>
</g>
<g><path d="M67.44 350.96L67.44 281.65"
fill="none" stroke="black" stroke-width="12"/>
</g>
<g><path d="M41.45 350.96L93.44 350.96"
fill="none" stroke="black" stroke-width="12"/>
</g>
<g><path d="M50.12 359.62L84.77 359.62"
fill="none" stroke="black" stroke-width="12"/>
</g>
<g><path d="M58.78 368.29L76.11 368.29"
fill="none" stroke="black" stroke-width="12"/>
</g>
<g><path d="M67.44 252.19L84.77 252.19"
fill="none" stroke="black" stroke-width="12"/>
</g>
<g><path d="M102.1 252.19L119.43 252.19"
fill="none" stroke="black" stroke-width="12"/>
</g>
<g><path d="M136.75 252.19L154.32 252.19"
fill="none" stroke="black" stroke-width="12"/>
</g>
<g><path d="M67.44 260.86L67.44 268.94"
fill="none" stroke="black" stroke-width="12"/>
</g>
<g><path d="M183.9 120.15L185.64 113.65M185.64 113.65L190.4 108.89M190.4 108.89L196.89 107.15M196.89 107.15L203.39 108.89M203.39 108.89L208.15 113.65M208.15 113.65L209.89 120.15M209.89 120.15L208.15 126.65M208.15 126.65L203.39 131.4M203.39 131.4L196.89 133.14M196.89 133.14L190.4 131.4M190.4 131.4L185.64 126.65M185.64 126.65L183.9 120.15"
fill="none" stroke="black" stroke-width="12"/>
</g>
<g><path d="M332.27 204.93L338.21 189.41"
fill="none" stroke="black" stroke-width="12"/>
</g>
<g><path d="M332.6 204.93L326.33 189.08"
fill="none" stroke="black" stroke-width="12"/>
</g>
</g>
</svg>
