<?xml version="1.0" standalone="no"?><svg xmlns="http://www.w3.org/2000/svg" width="400.000" height="400.000" viewBox="0.0 0.0 400.000 400.000" version="1.1">
  <title>Produce by Acme CAD Converter</title>
  <desc>Produce by Acme CAD Converter</desc>
<g id="0" display="visible">
<g><path d="M200 62.02L181.38 63.65M181.38 63.65L163.33 68.49M163.33 68.49L146.39 76.39M146.39 76.39L131.07 87.12M131.07 87.12L117.86 100.33M117.86 100.33L107.13 115.65M107.13 115.65L99.23 132.59M99.23 132.59L94.39 150.65M94.39 150.65L92.75 169.27"
fill="none" stroke="black" stroke-width="3"/>
</g>
<g><path d="M307.25 169.27L305.62 150.65M305.62 150.65L300.78 132.59M300.78 132.59L292.88 115.65M292.88 115.65L282.15 100.33M282.15 100.33L268.93 87.12M268.93 87.12L253.62 76.39M253.62 76.39L236.68 68.49M236.68 68.49L218.63 63.65M218.63 63.65L200 62.02"
fill="none" stroke="black" stroke-width="3"/>
</g>
<g><path d="M200 337.81L218.62 336.18M218.62 336.18L236.67 331.34M236.67 331.34L253.61 323.44M253.61 323.44L268.93 312.72M268.93 312.72L282.14 299.5M282.14 299.5L292.87 284.19M292.87 284.19L300.77 267.24M300.77 267.24L305.61 249.18M305.61 249.18L307.25 230.56"
fill="none" stroke="black" stroke-width="3"/>
</g>
<g><path d="M92.75 230.56L94.38 249.18M94.38 249.18L99.22 267.24M99.22 267.24L107.12 284.19M107.12 284.19L117.85 299.5M117.85 299.5L131.07 312.72M131.07 312.72L146.38 323.44M146.38 323.44L163.32 331.34M163.32 331.34L181.37 336.18M181.37 336.18L200 337.81"
fill="none" stroke="black" stroke-width="3"/>
</g>
<g><path d="M92.75 169.27L92.75 231.56"
fill="none" stroke="black" stroke-width="3"/>
</g>
<g><path d="M307.25 169.27L307.25 230.56"
fill="none" stroke="black" stroke-width="3"/>
</g>
<g><path d="M169.36 107.99L230.64 107.99"
fill="none" stroke="black" stroke-width="3"/>
</g>
<g><path d="M200 0.73L200 107.99"
fill="none" stroke="black" stroke-width="3"/>
</g>
<g><path d="M245.97 318.26L241.37 307.17M241.37 307.17L234.07 297.65M234.07 297.65L224.55 290.35M224.55 290.35L213.46 285.75M213.46 285.75L201.57 284.19M201.57 284.19L189.67 285.75"
fill="none" stroke="black" stroke-width="3"/>
</g>
<g><path d="M200.93 284.35L189.03 285.92M189.03 285.92L177.95 290.51M177.95 290.51L168.43 297.82M168.43 297.82L161.12 307.34M161.12 307.34L156.53 318.42M156.53 318.42L154.96 330.32"
fill="none" stroke="black" stroke-width="3"/>
</g>
<g><path d="M200.41 304.27L191.1 305.77M191.1 305.77L182.7 310.12M182.7 310.12L176.04 316.9M176.04 316.9L171.76 325.44M171.76 325.44L170.28 334.91"
fill="none" stroke="black" stroke-width="3"/>
</g>
<g><path d="M231.57 334.91L230.05 325.49M230.05 325.49L225.63 316.98M225.63 316.98L218.74 310.21M218.74 310.21L210.06 305.83M210.06 305.83L200.41 304.27"
fill="none" stroke="black" stroke-width="3"/>
</g>
<g><path d="M170.28 334.91L170.28 399.27"
fill="none" stroke="black" stroke-width="3"/>
</g>
<g><path d="M231.57 334.91L231.57 399.27"
fill="none" stroke="black" stroke-width="3"/>
</g>
<g><path d="M155.04 327.67L154.96 399.27"
fill="none" stroke="black" stroke-width="3"/>
</g>
<g><path d="M31.46 153.95L108.07 153.95"
fill="none" stroke="black" stroke-width="3"/>
</g>
<g><path d="M184.68 153.95L215.32 153.95"
fill="none" stroke="black" stroke-width="3"/>
</g>
<g><path d="M131.05 153.95L161.7 153.95"
fill="none" stroke="black" stroke-width="3"/>
</g>
<g><path d="M238.3 153.95L268.95 153.95"
fill="none" stroke="black" stroke-width="3"/>
</g>
<g><path d="M368.54 199.92L291.93 199.92"
fill="none" stroke="black" stroke-width="3"/>
</g>
<g><path d="M215.32 199.92L184.68 199.92"
fill="none" stroke="black" stroke-width="3"/>
</g>
<g><path d="M268.95 199.92L238.3 199.92"
fill="none" stroke="black" stroke-width="3"/>
</g>
<g><path d="M161.7 199.92L131.05 199.92"
fill="none" stroke="black" stroke-width="3"/>
</g>
<g><path d="M31.46 245.88L108.07 245.88"
fill="none" stroke="black" stroke-width="3"/>
</g>
<g><path d="M184.68 245.88L215.32 245.88"
fill="none" stroke="black" stroke-width="3"/>
</g>
<g><path d="M131.05 245.88L161.7 245.88"
fill="none" stroke="black" stroke-width="3"/>
</g>
<g><path d="M238.3 245.88L268.95 245.88"
fill="none" stroke="black" stroke-width="3"/>
</g>
</g>
</svg>
