<?xml version="1.0" standalone="no"?><svg xmlns="http://www.w3.org/2000/svg" width="400.000" height="400.000" viewBox="0.0 0.0 400.000 400.000" version="1.1">
  <title>Produce by Acme CAD Converter</title>
  <desc>Produce by Acme CAD Converter</desc>
<g id="0" display="visible">
<g><path d="M198.09 61.88L179.46 63.51M179.46 63.51L161.4 68.35M161.4 68.35L144.45 76.26M144.45 76.26L129.13 86.99M129.13 86.99L115.91 100.21M115.91 100.21L105.18 115.53M105.18 115.53L97.27 132.48M97.27 132.48L92.43 150.55M92.43 150.55L90.79 169.18"
fill="none" stroke="black" stroke-width="3"/>
</g>
<g><path d="M305.38 169.18L303.75 150.55M303.75 150.55L298.9 132.48M298.9 132.48L291 115.53M291 115.53L280.27 100.21M280.27 100.21L267.05 86.99M267.05 86.99L251.73 76.26M251.73 76.26L234.78 68.35M234.78 68.35L216.72 63.51M216.72 63.51L198.09 61.88"
fill="none" stroke="black" stroke-width="3"/>
</g>
<g><path d="M198.08 337.79L216.71 336.16M216.71 336.16L234.77 331.31M234.77 331.31L251.72 323.41M251.72 323.41L267.04 312.68M267.04 312.68L280.26 299.46M280.26 299.46L290.99 284.14M290.99 284.14L298.9 267.19M298.9 267.19L303.74 249.12M303.74 249.12L305.38 230.49"
fill="none" stroke="black" stroke-width="3"/>
</g>
<g><path d="M90.79 230.49L92.42 249.12M92.42 249.12L97.26 267.19M97.26 267.19L105.17 284.14M105.17 284.14L115.9 299.46M115.9 299.46L129.12 312.68M129.12 312.68L144.44 323.41M144.44 323.41L161.39 331.31M161.39 331.31L179.45 336.16M179.45 336.16L198.08 337.79"
fill="none" stroke="black" stroke-width="3"/>
</g>
<g><path d="M90.79 169.18L90.79 231.49"
fill="none" stroke="black" stroke-width="3"/>
</g>
<g><path d="M305.38 169.18L305.38 230.49"
fill="none" stroke="black" stroke-width="3"/>
</g>
<g><path d="M244.07 318.22L239.47 307.13M239.47 307.13L232.17 297.61M232.17 297.61L222.64 290.3M222.64 290.3L211.55 285.71M211.55 285.71L199.65 284.14M199.65 284.14L187.75 285.71"
fill="none" stroke="black" stroke-width="3"/>
</g>
<g><path d="M199.01 284.31L187.11 285.87M187.11 285.87L176.02 290.47M176.02 290.47L166.5 297.77M166.5 297.77L159.19 307.3M159.19 307.3L154.59 318.39M154.59 318.39L153.03 330.29"
fill="none" stroke="black" stroke-width="3"/>
</g>
<g><path d="M198.49 304.23L189.18 305.73M189.18 305.73L180.78 310.09M180.78 310.09L174.11 316.87M174.11 316.87L169.83 325.41M169.83 325.41L168.36 334.88"
fill="none" stroke="black" stroke-width="3"/>
</g>
<g><path d="M229.67 334.88L228.15 325.46M228.15 325.46L223.73 316.94M223.73 316.94L216.84 310.17M216.84 310.17L208.14 305.79M208.14 305.79L198.49 304.23"
fill="none" stroke="black" stroke-width="3"/>
</g>
<g><path d="M168.36 334.88L168.36 399.27"
fill="none" stroke="black" stroke-width="3"/>
</g>
<g><path d="M229.67 334.88L229.67 399.27"
fill="none" stroke="black" stroke-width="3"/>
</g>
<g><path d="M153.1 327.64L153.03 399.27"
fill="none" stroke="black" stroke-width="3"/>
</g>
<g><path d="M205.75 154.02L236.4 154.02"
fill="none" stroke="black" stroke-width="3"/>
</g>
<g><path d="M251.73 153.85L282.39 153.85"
fill="none" stroke="black" stroke-width="3"/>
</g>
<g><path d="M228.74 184.67L198.08 184.67"
fill="none" stroke="black" stroke-width="3"/>
</g>
<g><path d="M228.74 245.98L198.08 245.98"
fill="none" stroke="black" stroke-width="3"/>
</g>
<g><path d="M33.31 215.33L109.95 215.33"
fill="none" stroke="black" stroke-width="3"/>
</g>
<g><path d="M167.43 215.33L198.08 215.33"
fill="none" stroke="black" stroke-width="3"/>
</g>
<g><path d="M121.44 215.33L152.1 215.33"
fill="none" stroke="black" stroke-width="3"/>
</g>
<g><path d="M244.07 318.22L290.05 245.82"
fill="none" stroke="black" stroke-width="3"/>
</g>
<g><path d="M282.39 153.85L290.05 169.18M290.05 169.18L290.05 245.82"
fill="none" stroke="black" stroke-width=".5"/>
</g>
<g><path d="M205.75 108.03L251.73 108.03"
fill="none" stroke="black" stroke-width="3"/>
</g>
<g><path d="M228.74 0.73L228.74 108.03"
fill="none" stroke="black" stroke-width="3"/>
</g>
<g><path d="M144.44 154.02L190.42 154.02"
fill="none" stroke="black" stroke-width="3"/>
</g>
<g><path d="M167.43 0.73L167.43 154.02"
fill="none" stroke="black" stroke-width="3"/>
</g>
<g><path d="M366.69 184.67L290.05 184.67"
fill="none" stroke="black" stroke-width="3"/>
</g>
<g><path d="M274.73 184.67L244.07 184.67"
fill="none" stroke="black" stroke-width="3"/>
</g>
<g><path d="M366.69 245.98L290.05 245.98"
fill="none" stroke="black" stroke-width="3"/>
</g>
<g><path d="M274.73 245.98L244.07 245.98"
fill="none" stroke="black" stroke-width="3"/>
</g>
</g>
</svg>
