<?xml version="1.0" standalone="no"?><svg xmlns="http://www.w3.org/2000/svg" width="400.000" height="400.000" viewBox="0.0 0.0 400.000 400.000" version="1.1">
  <title>Produce by Acme CAD Converter</title>
  <desc>Produce by Acme CAD Converter</desc>
<g id="0" display="visible">
<g><path d="M249.04 244.38L249.04 228.39 248.79 228.59 249.04 244.38Z"
fill-rule="evenodd" fill="black"/>
<path d="M249.04 244.38L261.03 253.55 249.04 228.39 249.04 244.38Z"
fill-rule="evenodd" fill="black"/>
<path d="M261.03 253.55L261.03 218.61 249.04 228.39 261.03 253.55Z"
fill-rule="evenodd" fill="black"/>
<path d="M261.03 253.55L261.58 253.98 261.03 218.61 261.03 253.55Z"
fill-rule="evenodd" fill="black"/>
<path d="M261.58 253.98L261.58 218.73 261.03 218.61 261.58 253.98Z"
fill-rule="evenodd" fill="black"/>
<path d="M261.58 253.98L276.45 250.2 261.58 218.73 261.58 253.98Z"
fill-rule="evenodd" fill="black"/>
<path d="M276.45 250.2L276.45 222.02 261.58 218.73 276.45 250.2Z"
fill-rule="evenodd" fill="black"/>
<path d="M276.45 250.2L276.88 250.09 276.45 222.02 276.45 250.2Z"
fill-rule="evenodd" fill="black"/>
<path d="M276.88 250.09L276.88 222.92 276.45 222.02 276.88 250.09Z"
fill-rule="evenodd" fill="black"/>
<path d="M276.88 250.09L283.33 236.23 276.88 222.92 276.88 250.09Z"
fill-rule="evenodd" fill="black"/>
</g>
<g><path d="M73.19 200L75.12 177.98M75.12 177.98L80.84 156.63M80.84 156.63L90.18 136.6M90.18 136.6L102.86 118.49M102.86 118.49L118.49 102.86M118.49 102.86L136.6 90.18M136.6 90.18L156.63 80.84M156.63 80.84L177.98 75.12M177.98 75.12L200 73.19M200 73.19L222.02 75.12M222.02 75.12L243.37 80.84M243.37 80.84L263.4 90.18M263.4 90.18L281.51 102.86M281.51 102.86L297.14 118.49M297.14 118.49L309.82 136.6M309.82 136.6L319.16 156.63M319.16 156.63L324.88 177.98M324.88 177.98L326.81 200M326.81 200L324.88 222.02M324.88 222.02L319.16 243.37M319.16 243.37L309.82 263.4M309.82 263.4L297.14 281.51M297.14 281.51L281.51 297.14M281.51 297.14L263.4 309.82M263.4 309.82L243.37 319.16M243.37 319.16L222.02 324.88M222.02 324.88L200 326.81M200 326.81L177.98 324.88M177.98 324.88L156.63 319.16M156.63 319.16L136.6 309.82M136.6 309.82L118.49 297.14M118.49 297.14L102.86 281.51M102.86 281.51L90.18 263.4M90.18 263.4L80.84 243.37M80.84 243.37L75.12 222.02M75.12 222.02L73.19 200"
fill="none" stroke="black" stroke-width="3"/>
</g>
<g><path d="M163.77 127.54L236.23 127.54"
fill="none" stroke="black" stroke-width="3"/>
</g>
<g><path d="M200 0.73L200 127.54"
fill="none" stroke="black" stroke-width="3"/>
</g>
<g><path d="M247.1 236.23L248.89 228.37M248.89 228.37L253.92 222.07M253.92 222.07L261.18 218.57M261.18 218.57L269.25 218.57M269.25 218.57L276.51 222.07M276.51 222.07L281.54 228.37M281.54 228.37L283.33 236.23M283.33 236.23L281.54 244.09M281.54 244.09L276.51 250.39M276.51 250.39L269.25 253.89M269.25 253.89L261.18 253.89M261.18 253.89L253.92 250.39M253.92 250.39L248.89 244.09M248.89 244.09L247.1 236.23"
fill="none" stroke="black" stroke-width="3"/>
</g>
<g><path d="M200 290.58L200 399.27"
fill="none" stroke="black" stroke-width="3"/>
</g>
<g><path d="M95.83 272.31L304.17 272.31"
fill="none" stroke="black" stroke-width="3"/>
</g>
</g>
</svg>
