<?xml version="1.0" standalone="no"?><svg xmlns="http://www.w3.org/2000/svg" width="400.000" height="400.000" viewBox="0.0 0.0 400.000 400.000" version="1.1">
  <title>Produce by Acme CAD Converter</title>
  <desc>Produce by Acme CAD Converter</desc>
<g id="0" display="visible">
<g><path d="M247.22 171.92L247.22 155.93 246.98 156.13 247.22 171.92Z"
fill-rule="evenodd" fill="black"/>
<path d="M247.22 171.92L259.21 181.09 247.22 155.93 247.22 171.92Z"
fill-rule="evenodd" fill="black"/>
<path d="M259.21 181.09L259.21 146.15 247.22 155.93 259.21 181.09Z"
fill-rule="evenodd" fill="black"/>
<path d="M259.21 181.09L259.77 181.52 259.21 146.15 259.21 181.09Z"
fill-rule="evenodd" fill="black"/>
<path d="M259.77 181.52L259.77 146.27 259.21 146.15 259.77 181.52Z"
fill-rule="evenodd" fill="black"/>
<path d="M259.77 181.52L274.63 177.74 259.77 146.27 259.77 181.52Z"
fill-rule="evenodd" fill="black"/>
<path d="M274.63 177.74L274.63 149.56 259.77 146.27 274.63 177.74Z"
fill-rule="evenodd" fill="black"/>
<path d="M274.63 177.74L275.07 177.63 274.63 149.56 274.63 177.74Z"
fill-rule="evenodd" fill="black"/>
<path d="M275.07 177.63L275.07 150.46 274.63 149.56 275.07 177.63Z"
fill-rule="evenodd" fill="black"/>
<path d="M275.07 177.63L281.52 163.77 275.07 150.46 275.07 177.63Z"
fill-rule="evenodd" fill="black"/>
</g>
<g><path d="M181.88 272.46L183.68 264.6M183.68 264.6L188.71 258.3M188.71 258.3L195.97 254.8M195.97 254.8L204.03 254.8M204.03 254.8L211.29 258.3M211.29 258.3L216.32 264.6M216.32 264.6L218.12 272.46M218.12 272.46L216.32 280.32M216.32 280.32L211.29 286.62M211.29 286.62L204.03 290.12M204.03 290.12L195.97 290.12M195.97 290.12L188.71 286.62M188.71 286.62L183.68 280.32M183.68 280.32L181.88 272.46"
fill="none" stroke="black" stroke-width="3"/>
</g>
<g><path d="M199.5 290.57L199.5 399.27"
fill="none" stroke="black" stroke-width="3"/>
</g>
<g><path d="M245.29 163.77L247.08 155.91M247.08 155.91L252.11 149.61M252.11 149.61L259.37 146.11M259.37 146.11L267.43 146.11M267.43 146.11L274.7 149.61M274.7 149.61L279.72 155.91M279.72 155.91L281.52 163.77M281.52 163.77L279.72 171.63M279.72 171.63L274.7 177.93M274.7 177.93L267.43 181.43M267.43 181.43L259.37 181.43M259.37 181.43L252.11 177.93M252.11 177.93L247.08 171.63M247.08 171.63L245.29 163.77"
fill="none" stroke="black" stroke-width="3"/>
</g>
<g><path d="M73.19 200L75.12 177.98M75.12 177.98L80.84 156.63M80.84 156.63L90.18 136.6M90.18 136.6L102.86 118.49M102.86 118.49L118.49 102.86M118.49 102.86L136.6 90.18M136.6 90.18L156.63 80.84M156.63 80.84L177.98 75.12M177.98 75.12L200 73.19M200 73.19L222.02 75.12M222.02 75.12L243.37 80.84M243.37 80.84L263.4 90.18M263.4 90.18L281.51 102.86M281.51 102.86L297.14 118.49M297.14 118.49L309.82 136.6M309.82 136.6L319.16 156.63M319.16 156.63L324.88 177.98M324.88 177.98L326.81 200M326.81 200L324.88 222.02M324.88 222.02L319.16 243.37M319.16 243.37L309.82 263.4M309.82 263.4L297.14 281.51M297.14 281.51L281.51 297.14M281.51 297.14L263.4 309.82M263.4 309.82L243.37 319.16M243.37 319.16L222.02 324.88M222.02 324.88L200 326.81M200 326.81L177.98 324.88M177.98 324.88L156.63 319.16M156.63 319.16L136.6 309.82M136.6 309.82L118.49 297.14M118.49 297.14L102.86 281.51M102.86 281.51L90.18 263.4M90.18 263.4L80.84 243.37M80.84 243.37L75.12 222.02M75.12 222.02L73.19 200"
fill="none" stroke="black" stroke-width="3"/>
</g>
<g><path d="M169.2 145.65L231.96 109.42"
fill="none" stroke="black" stroke-width="3"/>
</g>
<g><path d="M200 0.73L200 127.54"
fill="none" stroke="black" stroke-width="3"/>
</g>
</g>
</svg>
