<?xml version="1.0" standalone="no"?><svg xmlns="http://www.w3.org/2000/svg" width="400.000" height="400.000" viewBox="0.0 0.0 400.000 400.000" version="1.1">
  <title>Produce by Acme CAD Converter</title>
  <desc>Produce by Acme CAD Converter</desc>
<g id="0" display="visible">
<g><path d="M199.48 307.3L190.17 308.8M190.17 308.8L181.77 313.15M181.77 313.15L175.1 319.93M175.1 319.93L170.82 328.48M170.82 328.48L169.34 337.95"
fill="none" stroke="black" stroke-width="3"/>
</g>
<g><path d="M230.66 337.95L229.13 328.52M229.13 328.52L224.71 320.01M224.71 320.01L217.82 313.23M217.82 313.23L209.13 308.86M209.13 308.86L199.48 307.3"
fill="none" stroke="black" stroke-width="3"/>
</g>
<g><path d="M169.34 337.95L169.34 399.27"
fill="none" stroke="black" stroke-width="3"/>
</g>
<g><path d="M230.66 337.95L230.66 399.27"
fill="none" stroke="black" stroke-width="3"/>
</g>
<g><path d="M169.34 108.03L230.66 108.03"
fill="none" stroke="black" stroke-width="3"/>
</g>
<g><path d="M200 0.73L200 108.03"
fill="none" stroke="black" stroke-width="3"/>
</g>
<g><path d="M200 62.05L181.38 63.68M181.38 63.68L163.31 68.52M163.31 68.52L146.36 76.42M146.36 76.42L131.05 87.15M131.05 87.15L117.82 100.38M117.82 100.38L107.09 115.7M107.09 115.7L99.19 132.65M99.19 132.65L94.34 150.71M94.34 150.71L92.71 169.34"
fill="none" stroke="black" stroke-width="3"/>
</g>
<g><path d="M307.3 169.34L305.66 150.71M305.66 150.71L300.82 132.65M300.82 132.65L292.92 115.7M292.92 115.7L282.19 100.38M282.19 100.38L268.96 87.15M268.96 87.15L253.64 76.42M253.64 76.42L236.7 68.52M236.7 68.52L218.63 63.68M218.63 63.68L200 62.05"
fill="none" stroke="black" stroke-width="3"/>
</g>
<g><path d="M200 337.95L218.62 336.32M218.62 336.32L236.69 331.48M236.69 331.48L253.64 323.58M253.64 323.58L268.95 312.85M268.95 312.85L282.18 299.62M282.18 299.62L292.91 284.3M292.91 284.3L300.81 267.35M300.81 267.35L305.66 249.29M305.66 249.29L307.29 230.66"
fill="none" stroke="black" stroke-width="3"/>
</g>
<g><path d="M92.7 230.66L94.34 249.29M94.34 249.29L99.18 267.35M99.18 267.35L107.08 284.3M107.08 284.3L117.81 299.62M117.81 299.62L131.04 312.85M131.04 312.85L146.36 323.58M146.36 323.58L163.3 331.48M163.3 331.48L181.37 336.32M181.37 336.32L200 337.95"
fill="none" stroke="black" stroke-width="3"/>
</g>
<g><path d="M92.71 169.34L92.71 231.65"
fill="none" stroke="black" stroke-width="3"/>
</g>
<g><path d="M307.3 169.34L307.29 230.66"
fill="none" stroke="black" stroke-width="3"/>
</g>
<g><path d="M368.61 169.34L291.97 169.34"
fill="none" stroke="black" stroke-width="3"/>
</g>
<g><path d="M215.33 169.34L184.67 169.34"
fill="none" stroke="black" stroke-width="3"/>
</g>
<g><path d="M268.98 169.34L238.32 169.34"
fill="none" stroke="black" stroke-width="3"/>
</g>
<g><path d="M161.68 169.34L131.02 169.34"
fill="none" stroke="black" stroke-width="3"/>
</g>
<g><path d="M31.39 230.66L108.03 230.66"
fill="none" stroke="black" stroke-width="3"/>
</g>
<g><path d="M184.67 230.66L215.33 230.66"
fill="none" stroke="black" stroke-width="3"/>
</g>
<g><path d="M131.02 230.66L161.68 230.66"
fill="none" stroke="black" stroke-width="3"/>
</g>
<g><path d="M238.32 230.66L268.98 230.66"
fill="none" stroke="black" stroke-width="3"/>
</g>
</g>
</svg>
