<?xml version="1.0" standalone="no"?><svg xmlns="http://www.w3.org/2000/svg" width="400.000" height="400.000" viewBox="0.0 0.0 400.000 400.000" version="1.1">
  <title>Produce by Acme CAD Converter</title>
  <desc>Produce by Acme CAD Converter</desc>
<g id="0" display="visible">
<g><path d="M292.51 244.38L292.51 228.39 292.27 228.59 292.51 244.38Z"
fill-rule="evenodd" fill="black"/>
<path d="M292.51 244.38L304.5 253.55 292.51 228.39 292.51 244.38Z"
fill-rule="evenodd" fill="black"/>
<path d="M304.5 253.55L304.5 218.61 292.51 228.39 304.5 253.55Z"
fill-rule="evenodd" fill="black"/>
<path d="M304.5 253.55L305.05 253.98 304.5 218.61 304.5 253.55Z"
fill-rule="evenodd" fill="black"/>
<path d="M305.05 253.98L305.05 218.73 304.5 218.61 305.05 253.98Z"
fill-rule="evenodd" fill="black"/>
<path d="M305.05 253.98L319.92 250.2 305.05 218.73 305.05 253.98Z"
fill-rule="evenodd" fill="black"/>
<path d="M319.92 250.2L319.92 222.02 305.05 218.73 319.92 250.2Z"
fill-rule="evenodd" fill="black"/>
<path d="M319.92 250.2L320.36 250.09 319.92 222.02 319.92 250.2Z"
fill-rule="evenodd" fill="black"/>
<path d="M320.36 250.09L320.36 222.92 319.92 222.02 320.36 250.09Z"
fill-rule="evenodd" fill="black"/>
<path d="M320.36 250.09L326.81 236.23 320.36 222.92 320.36 250.09Z"
fill-rule="evenodd" fill="black"/>
</g>
<g><path d="M109.42 200L111.35 177.98M111.35 177.98L117.07 156.63M117.07 156.63L126.41 136.6M126.41 136.6L139.09 118.49M139.09 118.49L154.72 102.86M154.72 102.86L172.83 90.18M172.83 90.18L192.86 80.84M192.86 80.84L214.21 75.12M214.21 75.12L236.23 73.19M236.23 73.19L258.25 75.12M258.25 75.12L279.6 80.84M279.6 80.84L299.63 90.18M299.63 90.18L317.74 102.86M317.74 102.86L333.37 118.49M333.37 118.49L346.05 136.6M346.05 136.6L355.39 156.63M355.39 156.63L361.11 177.98M361.11 177.98L363.04 200M363.04 200L361.11 222.02M361.11 222.02L355.39 243.37M355.39 243.37L346.05 263.4M346.05 263.4L333.37 281.51M333.37 281.51L317.74 297.14M317.74 297.14L299.63 309.82M299.63 309.82L279.6 319.16M279.6 319.16L258.25 324.88M258.25 324.88L236.23 326.81M236.23 326.81L214.21 324.88M214.21 324.88L192.86 319.16M192.86 319.16L172.83 309.82M172.83 309.82L154.72 297.14M154.72 297.14L139.09 281.51M139.09 281.51L126.41 263.4M126.41 263.4L117.07 243.37M117.07 243.37L111.35 222.02M111.35 222.02L109.42 200"
fill="none" stroke="black" stroke-width="3"/>
</g>
<g><path d="M200 127.54L272.46 127.54"
fill="none" stroke="black" stroke-width="3"/>
</g>
<g><path d="M236.23 0.73L236.23 127.54"
fill="none" stroke="black" stroke-width="3"/>
</g>
<g><path d="M290.58 236.23L292.37 228.37M292.37 228.37L297.4 222.07M297.4 222.07L304.66 218.57M304.66 218.57L312.72 218.57M312.72 218.57L319.99 222.07M319.99 222.07L325.01 228.37M325.01 228.37L326.81 236.23M326.81 236.23L325.01 244.09M325.01 244.09L319.99 250.39M319.99 250.39L312.72 253.89M312.72 253.89L304.66 253.89M304.66 253.89L297.4 250.39M297.4 250.39L292.37 244.09M292.37 244.09L290.58 236.23"
fill="none" stroke="black" stroke-width="3"/>
</g>
<g><path d="M218.12 272.46L219.91 264.6M219.91 264.6L224.94 258.3M224.94 258.3L232.2 254.8M232.2 254.8L240.26 254.8M240.26 254.8L247.52 258.3M247.52 258.3L252.55 264.6M252.55 264.6L254.35 272.46M254.35 272.46L252.55 280.32M252.55 280.32L247.52 286.62M247.52 286.62L240.26 290.12M240.26 290.12L232.2 290.12M232.2 290.12L224.94 286.62M224.94 286.62L219.91 280.32M219.91 280.32L218.12 272.46"
fill="none" stroke="black" stroke-width="3"/>
</g>
<g><path d="M36.96 200L190.94 200"
fill="none" stroke="black" stroke-width="3"/>
</g>
<g><path d="M190.94 200L217.09 245.29"
fill="none" stroke="black" stroke-width="3"/>
</g>
<g><path d="M235.62 290.58L224.61 292.35M224.61 292.35L214.68 297.5M214.68 297.5L206.8 305.51M206.8 305.51L201.75 315.61M201.75 315.61L200 326.8"
fill="none" stroke="black" stroke-width="3"/>
</g>
<g><path d="M272.46 326.8L270.66 315.66M270.66 315.66L265.44 305.6M265.44 305.6L257.29 297.59M257.29 297.59L247.02 292.42M247.02 292.42L235.62 290.58"
fill="none" stroke="black" stroke-width="3"/>
</g>
<g><path d="M200 326.8L200 399.27"
fill="none" stroke="black" stroke-width="3"/>
</g>
<g><path d="M272.46 326.8L272.46 399.27"
fill="none" stroke="black" stroke-width="3"/>
</g>
</g>
</svg>
