<?xml version="1.0" standalone="no"?><svg xmlns="http://www.w3.org/2000/svg" width="400.000" height="400.000" viewBox="0.0 0.0 400.000 400.000" version="1.1">
  <title>Produce by Acme CAD Converter</title>
  <desc>Produce by Acme CAD Converter</desc>
<g id="0" display="visible">
<g><path d="M146.56 272.46L148.35 264.6M148.35 264.6L153.38 258.3M153.38 258.3L160.64 254.8M160.64 254.8L168.71 254.8M168.71 254.8L175.97 258.3M175.97 258.3L181 264.6M181 264.6L182.79 272.46M182.79 272.46L181 280.32M181 280.32L175.97 286.62M175.97 286.62L168.71 290.12M168.71 290.12L160.64 290.12M160.64 290.12L153.38 286.62M153.38 286.62L148.35 280.32M148.35 280.32L146.56 272.46"
fill="none" stroke="black" stroke-width="3"/>
</g>
<g><path d="M164.17 290.57L164.17 399.27"
fill="none" stroke="black" stroke-width="3"/>
</g>
<g><path d="M37.87 200L39.8 177.98M39.8 177.98L45.52 156.63M45.52 156.63L54.86 136.6M54.86 136.6L67.54 118.49M67.54 118.49L83.17 102.86M83.17 102.86L101.27 90.18M101.27 90.18L121.31 80.84M121.31 80.84L142.66 75.12M142.66 75.12L164.68 73.19M164.68 73.19L186.7 75.12M186.7 75.12L208.05 80.84M208.05 80.84L228.08 90.18M228.08 90.18L246.18 102.86M246.18 102.86L261.81 118.49M261.81 118.49L274.49 136.6M274.49 136.6L283.83 156.63M283.83 156.63L289.56 177.98M289.56 177.98L291.48 200M291.48 200L289.56 222.02M289.56 222.02L283.83 243.37M283.83 243.37L274.49 263.4M274.49 263.4L261.81 281.51M261.81 281.51L246.18 297.14M246.18 297.14L228.08 309.82M228.08 309.82L208.05 319.16M208.05 319.16L186.7 324.88M186.7 324.88L164.68 326.81M164.68 326.81L142.66 324.88M142.66 324.88L121.31 319.16M121.31 319.16L101.27 309.82M101.27 309.82L83.17 297.14M83.17 297.14L67.54 281.51M67.54 281.51L54.86 263.4M54.86 263.4L45.52 243.37M45.52 243.37L39.8 222.02M39.8 222.02L37.87 200"
fill="none" stroke="black" stroke-width="3"/>
</g>
<g><path d="M133.88 145.65L196.63 109.42"
fill="none" stroke="black" stroke-width="3"/>
</g>
<g><path d="M164.68 0.73L164.68 127.54"
fill="none" stroke="black" stroke-width="3"/>
</g>
<g><path d="M208.15 200L362.13 200"
fill="none" stroke="black" stroke-width="3"/>
</g>
<g><path d="M182 245.29L208.15 200"
fill="none" stroke="black" stroke-width="3"/>
</g>
</g>
</svg>
