<?xml version="1.0" standalone="no"?><svg xmlns="http://www.w3.org/2000/svg" width="400.000" height="400.000" viewBox="0.0 0.0 400.000 400.000" version="1.1">
  <title>Produce by Acme CAD Converter</title>
  <desc>Produce by Acme CAD Converter</desc>
<g id="0" display="visible">
<g><path d="M217.03 264.68L217.03 251.1 216.82 251.27 217.03 264.68Z"
fill-rule="evenodd" fill="black"/>
<path d="M217.03 264.68L227.21 272.47 217.03 251.1 217.03 264.68Z"
fill-rule="evenodd" fill="black"/>
<path d="M227.21 272.47L227.21 242.8 217.03 251.1 227.21 272.47Z"
fill-rule="evenodd" fill="black"/>
<path d="M227.21 272.47L227.67 272.83 227.21 242.8 227.21 272.47Z"
fill-rule="evenodd" fill="black"/>
<path d="M227.67 272.83L227.67 242.9 227.21 242.8 227.67 272.83Z"
fill-rule="evenodd" fill="black"/>
<path d="M227.67 272.83L240.3 269.62 227.67 242.9 227.67 272.83Z"
fill-rule="evenodd" fill="black"/>
<path d="M240.3 269.62L240.3 245.69 227.67 242.9 240.3 269.62Z"
fill-rule="evenodd" fill="black"/>
<path d="M240.3 269.62L240.67 269.53 240.3 245.69 240.3 269.62Z"
fill-rule="evenodd" fill="black"/>
<path d="M240.67 269.53L240.67 246.46 240.3 245.69 240.67 269.53Z"
fill-rule="evenodd" fill="black"/>
<path d="M240.67 269.53L246.14 257.76 240.67 246.46 240.67 269.53Z"
fill-rule="evenodd" fill="black"/>
</g>
<g><path d="M215.38 257.76L217.14 250.61M217.14 250.61L222.02 245.1M222.02 245.1L228.91 242.49M228.91 242.49L236.22 243.38M236.22 243.38L242.27 247.56M242.27 247.56L245.7 254.08M245.7 254.08L245.7 261.44M245.7 261.44L242.27 267.96M242.27 267.96L236.22 272.14M236.22 272.14L228.91 273.03M228.91 273.03L222.02 270.42M222.02 270.42L217.14 264.91M217.14 264.91L215.38 257.76"
fill="none" stroke="black" stroke-width="3"/>
</g>
<g><path d="M169.24 62.26L150.55 63.89M150.55 63.89L132.42 68.75M132.42 68.75L115.42 76.69M115.42 76.69L100.05 87.45M100.05 87.45L86.78 100.72M86.78 100.72L76.01 116.09M76.01 116.09L68.08 133.1M68.08 133.1L63.22 151.23M63.22 151.23L61.58 169.92"
fill="none" stroke="black" stroke-width="3"/>
</g>
<g><path d="M276.9 169.92L275.27 151.23M275.27 151.23L270.41 133.1M270.41 133.1L262.47 116.09M262.47 116.09L251.71 100.72M251.71 100.72L238.44 87.45M238.44 87.45L223.07 76.68M223.07 76.68L206.06 68.75M206.06 68.75L187.94 63.89M187.94 63.89L169.24 62.26"
fill="none" stroke="black" stroke-width="3"/>
</g>
<g><path d="M169.23 339.11L187.93 337.48M187.93 337.48L206.05 332.62M206.05 332.62L223.06 324.69M223.06 324.69L238.43 313.92M238.43 313.92L251.7 300.65M251.7 300.65L262.46 285.28M262.46 285.28L270.4 268.27M270.4 268.27L275.26 250.14M275.26 250.14L276.9 231.45"
fill="none" stroke="black" stroke-width="3"/>
</g>
<g><path d="M61.57 231.45L63.21 250.14M63.21 250.14L68.07 268.27M68.07 268.27L76 285.28M76 285.28L86.77 300.65M86.77 300.65L100.04 313.92M100.04 313.92L115.41 324.69M115.41 324.69L132.42 332.62M132.42 332.62L150.54 337.48M150.54 337.48L169.23 339.11"
fill="none" stroke="black" stroke-width="3"/>
</g>
<g><path d="M61.58 169.92L61.58 232.45"
fill="none" stroke="black" stroke-width="3"/>
</g>
<g><path d="M276.9 169.92L276.9 231.45"
fill="none" stroke="black" stroke-width="3"/>
</g>
<g><path d="M138.48 108.4L200 108.4"
fill="none" stroke="black" stroke-width="3"/>
</g>
<g><path d="M169.24 0.73L169.24 108.4"
fill="none" stroke="black" stroke-width="3"/>
</g>
<g><path d="M338.43 200.69L261.52 200.69"
fill="none" stroke="black" stroke-width="3"/>
</g>
<g><path d="M184.62 200.69L153.86 200.69"
fill="none" stroke="black" stroke-width="3"/>
</g>
<g><path d="M238.45 200.69L207.69 200.69"
fill="none" stroke="black" stroke-width="3"/>
</g>
<g><path d="M130.79 200.69L100.02 200.69"
fill="none" stroke="black" stroke-width="3"/>
</g>
<g><path d="M153.86 291.6L155.62 284.45M155.62 284.45L160.5 278.94M160.5 278.94L167.38 276.33M167.38 276.33L174.69 277.22M174.69 277.22L180.75 281.4M180.75 281.4L184.17 287.92M184.17 287.92L184.17 295.28M184.17 295.28L180.75 301.8M180.75 301.8L174.69 305.98M174.69 305.98L167.38 306.87M167.38 306.87L160.5 304.26M160.5 304.26L155.62 298.75M155.62 298.75L153.86 291.6"
fill="none" stroke="black" stroke-width="3"/>
</g>
<g><path d="M168.81 306.98L168.81 399.27"
fill="none" stroke="black" stroke-width="3"/>
</g>
</g>
</svg>
