<?xml version="1.0" standalone="no"?><svg xmlns="http://www.w3.org/2000/svg" width="400.000" height="400.000" viewBox="0.0 0.0 400.000 400.000" version="1.1">
  <title>Produce by Acme CAD Converter</title>
  <desc>Produce by Acme CAD Converter</desc>
<g id="0" display="visible">
<g><path d="M216.96 268.1L216.96 254.57 216.75 254.74 216.96 268.1Z"
fill-rule="evenodd" fill="black"/>
<path d="M216.96 268.1L227.1 275.86 216.96 254.57 216.96 268.1Z"
fill-rule="evenodd" fill="black"/>
<path d="M227.1 275.86L227.1 246.3 216.96 254.57 227.1 275.86Z"
fill-rule="evenodd" fill="black"/>
<path d="M227.1 275.86L227.57 276.21 227.1 246.3 227.1 275.86Z"
fill-rule="evenodd" fill="black"/>
<path d="M227.57 276.21L227.57 246.4 227.1 246.3 227.57 276.21Z"
fill-rule="evenodd" fill="black"/>
<path d="M227.57 276.21L240.14 273.02 227.57 246.4 227.57 276.21Z"
fill-rule="evenodd" fill="black"/>
<path d="M240.14 273.02L240.14 249.18 227.57 246.4 240.14 273.02Z"
fill-rule="evenodd" fill="black"/>
<path d="M240.14 273.02L240.51 272.92 240.14 249.18 240.14 273.02Z"
fill-rule="evenodd" fill="black"/>
<path d="M240.51 272.92L240.51 249.95 240.14 249.18 240.51 272.92Z"
fill-rule="evenodd" fill="black"/>
<path d="M240.51 272.92L245.97 261.2 240.51 249.95 240.51 272.92Z"
fill-rule="evenodd" fill="black"/>
</g>
<g><path d="M215.32 261.2L217.08 254.08M217.08 254.08L221.94 248.59M221.94 248.59L228.8 245.99M228.8 245.99L236.08 246.88M236.08 246.88L242.11 251.04M242.11 251.04L245.52 257.54M245.52 257.54L245.52 264.87M245.52 264.87L242.11 271.36M242.11 271.36L236.08 275.53M236.08 275.53L228.8 276.41M228.8 276.41L221.94 273.81M221.94 273.81L217.08 268.32M217.08 268.32L215.32 261.2"
fill="none" stroke="black" stroke-width="3"/>
</g>
<g><path d="M169.36 62.02L150.74 63.65M150.74 63.65L132.68 68.49M132.68 68.49L115.74 76.39M115.74 76.39L100.43 87.12M100.43 87.12L87.21 100.33M87.21 100.33L76.49 115.65M76.49 115.65L68.59 132.59M68.59 132.59L63.74 150.65M63.74 150.65L62.11 169.27"
fill="none" stroke="black" stroke-width="3"/>
</g>
<g><path d="M276.61 169.27L274.98 150.65M274.98 150.65L270.13 132.59M270.13 132.59L262.23 115.65M262.23 115.65L251.51 100.33M251.51 100.33L238.29 87.12M238.29 87.12L222.98 76.39M222.98 76.39L206.04 68.49M206.04 68.49L187.98 63.65M187.98 63.65L169.36 62.02"
fill="none" stroke="black" stroke-width="3"/>
</g>
<g><path d="M169.35 337.81L187.97 336.18M187.97 336.18L206.03 331.34M206.03 331.34L222.97 323.44M222.97 323.44L238.28 312.72M238.28 312.72L251.5 299.5M251.5 299.5L262.22 284.19M262.22 284.19L270.13 267.24M270.13 267.24L274.97 249.18M274.97 249.18L276.6 230.56"
fill="none" stroke="black" stroke-width="3"/>
</g>
<g><path d="M62.1 230.56L63.74 249.18M63.74 249.18L68.58 267.24M68.58 267.24L76.48 284.19M76.48 284.19L87.2 299.5M87.2 299.5L100.42 312.72M100.42 312.72L115.73 323.44M115.73 323.44L132.68 331.34M132.68 331.34L150.73 336.18M150.73 336.18L169.35 337.81"
fill="none" stroke="black" stroke-width="3"/>
</g>
<g><path d="M62.11 169.27L62.11 231.56"
fill="none" stroke="black" stroke-width="3"/>
</g>
<g><path d="M276.61 169.27L276.6 230.56"
fill="none" stroke="black" stroke-width="3"/>
</g>
<g><path d="M138.71 107.99L200 107.99"
fill="none" stroke="black" stroke-width="3"/>
</g>
<g><path d="M169.36 0.73L169.36 107.99"
fill="none" stroke="black" stroke-width="3"/>
</g>
<g><path d="M215.32 318.26L210.73 307.17M210.73 307.17L203.43 297.65M203.43 297.65L193.91 290.35M193.91 290.35L182.82 285.75M182.82 285.75L170.92 284.19M170.92 284.19L159.03 285.75"
fill="none" stroke="black" stroke-width="3"/>
</g>
<g><path d="M170.28 284.35L158.39 285.92M158.39 285.92L147.3 290.51M147.3 290.51L137.78 297.82M137.78 297.82L130.48 307.34M130.48 307.34L125.89 318.42M125.89 318.42L124.32 330.32"
fill="none" stroke="black" stroke-width="3"/>
</g>
<g><path d="M169.77 304.27L160.46 305.77M160.46 305.77L152.06 310.12M152.06 310.12L145.4 316.9M145.4 316.9L141.12 325.44M141.12 325.44L139.64 334.91"
fill="none" stroke="black" stroke-width="3"/>
</g>
<g><path d="M200.93 334.91L199.41 325.49M199.41 325.49L194.99 316.98M194.99 316.98L188.1 310.21M188.1 310.21L179.41 305.83M179.41 305.83L169.77 304.27"
fill="none" stroke="black" stroke-width="3"/>
</g>
<g><path d="M139.64 334.91L139.64 399.27"
fill="none" stroke="black" stroke-width="3"/>
</g>
<g><path d="M200.93 334.91L200.93 399.27"
fill="none" stroke="black" stroke-width="3"/>
</g>
<g><path d="M124.4 327.67L124.32 399.27"
fill="none" stroke="black" stroke-width="3"/>
</g>
<g><path d="M337.9 199.92L261.29 199.92"
fill="none" stroke="black" stroke-width="3"/>
</g>
<g><path d="M184.68 199.92L154.03 199.92"
fill="none" stroke="black" stroke-width="3"/>
</g>
<g><path d="M238.3 199.92L207.66 199.92"
fill="none" stroke="black" stroke-width="3"/>
</g>
<g><path d="M131.05 199.92L100.41 199.92"
fill="none" stroke="black" stroke-width="3"/>
</g>
</g>
</svg>
