<?xml version="1.0" standalone="no"?><svg xmlns="http://www.w3.org/2000/svg" width="400.000" height="400.000" viewBox="0.0 0.0 400.000 400.000" version="1.1">
  <title>Produce by Acme CAD Converter</title>
  <desc>Produce by Acme CAD Converter</desc>
<g id="0" display="visible">
<g><path d="M256.28 171.92L256.28 155.93 256.04 156.13 256.28 171.92Z"
fill-rule="evenodd" fill="black"/>
<path d="M256.28 171.92L268.27 181.09 256.28 155.93 256.28 171.92Z"
fill-rule="evenodd" fill="black"/>
<path d="M268.27 181.09L268.27 146.15 256.28 155.93 268.27 181.09Z"
fill-rule="evenodd" fill="black"/>
<path d="M268.27 181.09L268.82 181.52 268.27 146.15 268.27 181.09Z"
fill-rule="evenodd" fill="black"/>
<path d="M268.82 181.52L268.82 146.27 268.27 146.15 268.82 181.52Z"
fill-rule="evenodd" fill="black"/>
<path d="M268.82 181.52L283.69 177.74 268.82 146.27 268.82 181.52Z"
fill-rule="evenodd" fill="black"/>
<path d="M283.69 177.74L283.69 149.56 268.82 146.27 283.69 177.74Z"
fill-rule="evenodd" fill="black"/>
<path d="M283.69 177.74L284.13 177.63 283.69 149.56 283.69 177.74Z"
fill-rule="evenodd" fill="black"/>
<path d="M284.13 177.63L284.13 150.46 283.69 149.56 284.13 177.63Z"
fill-rule="evenodd" fill="black"/>
<path d="M284.13 177.63L290.58 163.77 284.13 150.46 284.13 177.63Z"
fill-rule="evenodd" fill="black"/>
</g>
<g><path d="M73.19 200L75.12 177.98M75.12 177.98L80.84 156.63M80.84 156.63L90.18 136.6M90.18 136.6L102.86 118.49M102.86 118.49L118.49 102.86M118.49 102.86L136.6 90.18M136.6 90.18L156.63 80.84M156.63 80.84L177.98 75.12M177.98 75.12L200 73.19M200 73.19L222.02 75.12M222.02 75.12L243.37 80.84M243.37 80.84L263.4 90.18M263.4 90.18L281.51 102.86M281.51 102.86L297.14 118.49M297.14 118.49L309.82 136.6M309.82 136.6L319.16 156.63M319.16 156.63L324.88 177.98M324.88 177.98L326.81 200M326.81 200L324.88 222.02M324.88 222.02L319.16 243.37M319.16 243.37L309.82 263.4M309.82 263.4L297.14 281.51M297.14 281.51L281.51 297.14M281.51 297.14L263.4 309.82M263.4 309.82L243.37 319.16M243.37 319.16L222.02 324.88M222.02 324.88L200 326.81M200 326.81L177.98 324.88M177.98 324.88L156.63 319.16M156.63 319.16L136.6 309.82M136.6 309.82L118.49 297.14M118.49 297.14L102.86 281.51M102.86 281.51L90.18 263.4M90.18 263.4L80.84 243.37M80.84 243.37L75.12 222.02M75.12 222.02L73.19 200"
fill="none" stroke="black" stroke-width="3"/>
</g>
<g><path d="M163.77 127.54L236.23 127.54"
fill="none" stroke="black" stroke-width="3"/>
</g>
<g><path d="M200 0.73L200 127.54"
fill="none" stroke="black" stroke-width="3"/>
</g>
<g><path d="M200.61 290.58L200.61 399.27"
fill="none" stroke="black" stroke-width="3"/>
</g>
<g><path d="M127.54 254.35L140.19 268.02M140.19 268.02L155.38 278.82M155.38 278.82L172.45 286.28M172.45 286.28L190.68 290.1M190.68 290.1L209.32 290.1M209.32 290.1L227.55 286.28M227.55 286.28L244.62 278.82M244.62 278.82L259.81 268.02M259.81 268.02L272.46 254.35"
fill="none" stroke="black" stroke-width="3"/>
</g>
<g><path d="M254.35 163.77L256.14 155.91M256.14 155.91L261.17 149.61M261.17 149.61L268.43 146.11M268.43 146.11L276.49 146.11M276.49 146.11L283.76 149.61M283.76 149.61L288.78 155.91M288.78 155.91L290.58 163.77M290.58 163.77L288.78 171.63M288.78 171.63L283.76 177.93M283.76 177.93L276.49 181.43M276.49 181.43L268.43 181.43M268.43 181.43L261.17 177.93M261.17 177.93L256.14 171.63M256.14 171.63L254.35 163.77"
fill="none" stroke="black" stroke-width="3"/>
</g>
</g>
</svg>
