<?xml version="1.0" standalone="no"?><svg xmlns="http://www.w3.org/2000/svg" width="400.000" height="400.000" viewBox="0.0 0.0 400.000 400.000" version="1.1">
  <title>Produce by Acme CAD Converter</title>
  <desc>Produce by Acme CAD Converter</desc>
<g id="0" display="visible">
<g><path d="M256.8 264.9L256.8 248.76 256.55 248.96 256.8 264.9Z"
fill-rule="evenodd" fill="black"/>
<path d="M256.8 264.9L268.9 274.16 256.8 248.76 256.8 264.9Z"
fill-rule="evenodd" fill="black"/>
<path d="M268.9 274.16L268.9 238.89 256.8 248.76 268.9 274.16Z"
fill-rule="evenodd" fill="black"/>
<path d="M268.9 274.16L269.46 274.58 268.9 238.89 268.9 274.16Z"
fill-rule="evenodd" fill="black"/>
<path d="M269.46 274.58L269.46 239.01 268.9 238.89 269.46 274.58Z"
fill-rule="evenodd" fill="black"/>
<path d="M269.46 274.58L284.46 270.77 269.46 239.01 269.46 274.58Z"
fill-rule="evenodd" fill="black"/>
<path d="M284.46 270.77L284.46 242.33 269.46 239.01 284.46 270.77Z"
fill-rule="evenodd" fill="black"/>
<path d="M284.46 270.77L284.9 270.66 284.46 242.33 284.46 270.77Z"
fill-rule="evenodd" fill="black"/>
<path d="M284.9 270.66L284.9 243.24 284.46 242.33 284.9 270.66Z"
fill-rule="evenodd" fill="black"/>
<path d="M284.9 270.66L291.41 256.67 284.9 243.24 284.9 270.66Z"
fill-rule="evenodd" fill="black"/>
</g>
<g><path d="M126.87 128.7L181.72 128.7"
fill="none" stroke="black" stroke-width="3"/>
</g>
<g><path d="M154.3 0.73L154.3 128.7"
fill="none" stroke="black" stroke-width="3"/>
</g>
<g><path d="M72.03 201.83L73.97 179.61M73.97 179.61L79.75 158.06M79.75 158.06L89.18 137.84M89.18 137.84L101.97 119.57M101.97 119.57L117.74 103.8M117.74 103.8L136.02 91M136.02 91L156.23 81.58M156.23 81.58L177.78 75.8M177.78 75.8L200 73.86M200 73.86L222.22 75.8M222.22 75.8L243.77 81.58M243.77 81.58L263.98 91M263.98 91L282.26 103.8M282.26 103.8L298.03 119.57M298.03 119.57L310.82 137.84M310.82 137.84L320.25 158.06M320.25 158.06L326.03 179.61M326.03 179.61L327.97 201.83M327.97 201.83L326.03 224.05M326.03 224.05L320.25 245.6M320.25 245.6L310.82 265.81M310.82 265.81L298.03 284.09M298.03 284.09L282.26 299.86M282.26 299.86L263.98 312.65M263.98 312.65L243.77 322.08M243.77 322.08L222.22 327.85M222.22 327.85L200 329.8M200 329.8L177.78 327.85M177.78 327.85L156.23 322.08M156.23 322.08L136.02 312.65M136.02 312.65L117.74 299.86M117.74 299.86L101.97 284.09M101.97 284.09L89.18 265.81M89.18 265.81L79.75 245.6M79.75 245.6L73.97 224.05M73.97 224.05L72.03 201.83"
fill="none" stroke="black" stroke-width="3"/>
</g>
<g><path d="M199.38 289.58L188.27 291.37M188.27 291.37L178.26 296.56M178.26 296.56L170.3 304.65M170.3 304.65L165.2 314.84M165.2 314.84L163.44 326.14"
fill="none" stroke="black" stroke-width="3"/>
</g>
<g><path d="M236.56 326.14L234.75 314.89M234.75 314.89L229.48 304.74M229.48 304.74L221.26 296.66M221.26 296.66L210.89 291.44M210.89 291.44L199.38 289.58"
fill="none" stroke="black" stroke-width="3"/>
</g>
<g><path d="M163.44 326.14L163.44 399.27"
fill="none" stroke="black" stroke-width="3"/>
</g>
<g><path d="M236.56 326.14L236.56 399.27"
fill="none" stroke="black" stroke-width="3"/>
</g>
<g><path d="M218.28 128.7L273.13 128.7"
fill="none" stroke="black" stroke-width="3"/>
</g>
<g><path d="M245.7 0.73L245.7 128.7"
fill="none" stroke="black" stroke-width="3"/>
</g>
<g><path d="M254.84 256.67L256.65 248.74M256.65 248.74L261.73 242.38M261.73 242.38L269.06 238.85M269.06 238.85L277.19 238.85M277.19 238.85L284.52 242.38M284.52 242.38L289.6 248.74M289.6 248.74L291.41 256.67M291.41 256.67L289.6 264.6M289.6 264.6L284.52 270.97M284.52 270.97L277.19 274.5M277.19 274.5L269.06 274.5M269.06 274.5L261.73 270.97M261.73 270.97L256.65 264.6M256.65 264.6L254.84 256.67"
fill="none" stroke="black" stroke-width="3"/>
</g>
</g>
</svg>
