<?xml version="1.0" standalone="no"?><svg xmlns="http://www.w3.org/2000/svg" width="400.000" height="400.000" viewBox="0.0 0.0 400.000 400.000" version="1.1">
  <title>Produce by Acme CAD Converter</title>
  <desc>Produce by Acme CAD Converter</desc>
<g id="0" display="visible">
<g><path d="M212.81 244.38L212.81 228.39 212.56 228.59 212.81 244.38Z"
fill-rule="evenodd" fill="black"/>
<path d="M212.81 244.38L224.8 253.55 212.81 228.39 212.81 244.38Z"
fill-rule="evenodd" fill="black"/>
<path d="M224.8 253.55L224.8 218.61 212.81 228.39 224.8 253.55Z"
fill-rule="evenodd" fill="black"/>
<path d="M224.8 253.55L225.35 253.98 224.8 218.61 224.8 253.55Z"
fill-rule="evenodd" fill="black"/>
<path d="M225.35 253.98L225.35 218.73 224.8 218.61 225.35 253.98Z"
fill-rule="evenodd" fill="black"/>
<path d="M225.35 253.98L240.22 250.2 225.35 218.73 225.35 253.98Z"
fill-rule="evenodd" fill="black"/>
<path d="M240.22 250.2L240.22 222.02 225.35 218.73 240.22 250.2Z"
fill-rule="evenodd" fill="black"/>
<path d="M240.22 250.2L240.65 250.09 240.22 222.02 240.22 250.2Z"
fill-rule="evenodd" fill="black"/>
<path d="M240.65 250.09L240.65 222.92 240.22 222.02 240.65 250.09Z"
fill-rule="evenodd" fill="black"/>
<path d="M240.65 250.09L247.1 236.23 240.65 222.92 240.65 250.09Z"
fill-rule="evenodd" fill="black"/>
</g>
<g><path d="M363.04 200L272.46 200"
fill="none" stroke="black" stroke-width="3"/>
</g>
<g><path d="M181.88 200L145.65 200"
fill="none" stroke="black" stroke-width="3"/>
</g>
<g><path d="M272.46 200L209.06 200"
fill="none" stroke="black" stroke-width="3"/>
</g>
<g><path d="M118.48 200L82.25 200"
fill="none" stroke="black" stroke-width="3"/>
</g>
<g><path d="M36.96 200L38.89 177.98M38.89 177.98L44.61 156.63M44.61 156.63L53.95 136.6M53.95 136.6L66.63 118.49M66.63 118.49L82.26 102.86M82.26 102.86L100.37 90.18M100.37 90.18L120.4 80.84M120.4 80.84L141.75 75.12M141.75 75.12L163.77 73.19M163.77 73.19L185.79 75.12M185.79 75.12L207.14 80.84M207.14 80.84L227.17 90.18M227.17 90.18L245.28 102.86M245.28 102.86L260.91 118.49M260.91 118.49L273.59 136.6M273.59 136.6L282.93 156.63M282.93 156.63L288.65 177.98M288.65 177.98L290.58 200M290.58 200L288.65 222.02M288.65 222.02L282.93 243.37M282.93 243.37L273.59 263.4M273.59 263.4L260.91 281.51M260.91 281.51L245.28 297.14M245.28 297.14L227.17 309.82M227.17 309.82L207.14 319.16M207.14 319.16L185.79 324.88M185.79 324.88L163.77 326.81M163.77 326.81L141.75 324.88M141.75 324.88L120.4 319.16M120.4 319.16L100.37 309.82M100.37 309.82L82.26 297.14M82.26 297.14L66.63 281.51M66.63 281.51L53.95 263.4M53.95 263.4L44.61 243.37M44.61 243.37L38.89 222.02M38.89 222.02L36.96 200"
fill="none" stroke="black" stroke-width="3"/>
</g>
<g><path d="M127.54 127.54L200 127.54"
fill="none" stroke="black" stroke-width="3"/>
</g>
<g><path d="M163.77 0.73L163.77 127.54"
fill="none" stroke="black" stroke-width="3"/>
</g>
<g><path d="M210.87 236.23L212.66 228.37M212.66 228.37L217.69 222.07M217.69 222.07L224.95 218.57M224.95 218.57L233.02 218.57M233.02 218.57L240.28 222.07M240.28 222.07L245.31 228.37M245.31 228.37L247.1 236.23M247.1 236.23L245.31 244.09M245.31 244.09L240.28 250.39M240.28 250.39L233.02 253.89M233.02 253.89L224.95 253.89M224.95 253.89L217.69 250.39M217.69 250.39L212.66 244.09M212.66 244.09L210.87 236.23"
fill="none" stroke="black" stroke-width="3"/>
</g>
<g><path d="M163.77 290.58L163.77 399.27"
fill="none" stroke="black" stroke-width="3"/>
</g>
<g><path d="M59.6 272.31L267.94 272.31"
fill="none" stroke="black" stroke-width="3"/>
</g>
</g>
</svg>
