<?xml version="1.0" standalone="no"?><svg xmlns="http://www.w3.org/2000/svg" width="400.000" height="400.000" viewBox="0.0 0.0 400.000 400.000" version="1.1">
  <title>Produce by Acme CAD Converter</title>
  <desc>Produce by Acme CAD Converter</desc>
<g id="0" display="visible">
<g><path d="M201.12 299.11L201.12 289.85 200.98 289.97 201.12 299.11Z"
fill-rule="evenodd" fill="black"/>
<path d="M201.12 299.11L208.06 304.42 201.12 289.85 201.12 299.11Z"
fill-rule="evenodd" fill="black"/>
<path d="M208.06 304.42L208.06 284.19 201.12 289.85 208.06 304.42Z"
fill-rule="evenodd" fill="black"/>
<path d="M208.06 304.42L208.38 304.66 208.06 284.19 208.06 304.42Z"
fill-rule="evenodd" fill="black"/>
<path d="M208.38 304.66L208.38 284.26 208.06 284.19 208.38 304.66Z"
fill-rule="evenodd" fill="black"/>
<path d="M208.38 304.66L216.99 302.48 208.38 284.26 208.38 304.66Z"
fill-rule="evenodd" fill="black"/>
<path d="M216.99 302.48L216.99 286.16 208.38 284.26 216.99 302.48Z"
fill-rule="evenodd" fill="black"/>
<path d="M216.99 302.48L217.24 302.41 216.99 286.16 216.99 302.48Z"
fill-rule="evenodd" fill="black"/>
<path d="M217.24 302.41L217.24 286.68 216.99 286.16 217.24 302.41Z"
fill-rule="evenodd" fill="black"/>
<path d="M217.24 302.41L220.98 294.39 217.24 286.68 217.24 302.41Z"
fill-rule="evenodd" fill="black"/>
</g>
<g><path d="M158.05 325.85L159.71 320.18M159.71 320.18L164.18 316.31M164.18 316.31L170.03 315.47M170.03 315.47L175.4 317.93M175.4 317.93L178.6 322.9M178.6 322.9L178.6 328.81M178.6 328.81L175.4 333.78M175.4 333.78L170.03 336.23M170.03 336.23L164.18 335.39M164.18 335.39L159.71 331.52M159.71 331.52L158.05 325.85"
fill="none" stroke="black" stroke-width="3"/>
</g>
<g><path d="M168.25 336.34L168.25 399.27"
fill="none" stroke="black" stroke-width="3"/>
</g>
<g><path d="M147.56 74.15L189.51 74.15"
fill="none" stroke="black" stroke-width="3"/>
</g>
<g><path d="M168.54 0.73L168.54 74.15"
fill="none" stroke="black" stroke-width="3"/>
</g>
<g><path d="M158.05 126.59L159.71 120.92M159.71 120.92L164.18 117.05M164.18 117.05L170.03 116.2M170.03 116.2L175.4 118.66M175.4 118.66L178.6 123.63M178.6 123.63L178.6 129.54M178.6 129.54L175.4 134.51M175.4 134.51L170.03 136.97M170.03 136.97L164.18 136.13M164.18 136.13L159.71 132.26M159.71 132.26L158.05 126.59"
fill="none" stroke="black" stroke-width="3"/>
</g>
<g><path d="M200 294.39L201.66 288.72M201.66 288.72L206.13 284.85M206.13 284.85L211.98 284.01M211.98 284.01L217.36 286.46M217.36 286.46L220.55 291.43M220.55 291.43L220.55 297.34M220.55 297.34L217.36 302.32M217.36 302.32L211.98 304.77M211.98 304.77L206.13 303.93M206.13 303.93L201.66 300.06M201.66 300.06L200 294.39"
fill="none" stroke="black" stroke-width="3"/>
</g>
<g><path d="M168.53 357.32L184.87 355.47M184.87 355.47L200.38 350.04M200.38 350.04L214.3 341.3M214.3 341.3L225.92 329.67M225.92 329.67L234.67 315.75M234.67 315.75L240.1 300.24M240.1 300.24L241.95 283.9"
fill="none" stroke="black" stroke-width="3"/>
</g>
<g><path d="M95.12 283.9L96.97 300.24M96.97 300.24L102.4 315.75M102.4 315.75L111.14 329.67M111.14 329.67L122.77 341.3M122.77 341.3L136.69 350.04M136.69 350.04L152.2 355.47M152.2 355.47L168.53 357.32"
fill="none" stroke="black" stroke-width="3"/>
</g>
<g><path d="M168.54 42.68L152.21 44.53M152.21 44.53L136.69 49.96M136.69 49.96L122.77 58.7M122.77 58.7L111.15 70.33M111.15 70.33L102.4 84.25M102.4 84.25L96.97 99.76M96.97 99.76L95.13 116.1"
fill="none" stroke="black" stroke-width="3"/>
</g>
<g><path d="M241.95 116.1L240.11 99.76M240.11 99.76L234.68 84.25M234.68 84.25L225.93 70.33M225.93 70.33L214.31 58.7M214.31 58.7L200.39 49.96M200.39 49.96L184.87 44.53M184.87 44.53L168.54 42.68"
fill="none" stroke="black" stroke-width="3"/>
</g>
<g><path d="M241.95 158.05L241.95 115.42"
fill="none" stroke="black" stroke-width="3"/>
</g>
<g><path d="M95.12 158.05L95.13 116.1"
fill="none" stroke="black" stroke-width="3"/>
</g>
<g><path d="M241.95 158.05L241.95 283.9"
fill="none" stroke="black" stroke-width="3"/>
</g>
<g><path d="M95.12 158.05L95.13 284.58"
fill="none" stroke="black" stroke-width="3"/>
</g>
<g><path d="M158.05 189.51L159.71 183.84M159.71 183.84L164.18 179.97M164.18 179.97L170.03 179.13M170.03 179.13L175.4 181.59M175.4 181.59L178.6 186.56M178.6 186.56L178.6 192.47M178.6 192.47L175.4 197.44M175.4 197.44L170.03 199.89M170.03 199.89L164.18 199.05M164.18 199.05L159.71 195.18M159.71 195.18L158.05 189.51"
fill="none" stroke="black" stroke-width="3"/>
</g>
<g><path d="M158.05 252.44L159.71 246.77M159.71 246.77L164.18 242.9M164.18 242.9L170.03 242.06M170.03 242.06L175.4 244.51M175.4 244.51L178.6 249.48M178.6 249.48L178.6 255.39M178.6 255.39L175.4 260.36M175.4 260.36L170.03 262.82M170.03 262.82L164.18 261.98M164.18 261.98L159.71 258.11M159.71 258.11L158.05 252.44"
fill="none" stroke="black" stroke-width="3"/>
</g>
<g><path d="M158.05 137.07L304.88 137.07"
fill="none" stroke="black" stroke-width="3"/>
</g>
<g><path d="M158.05 200L304.88 200"
fill="none" stroke="black" stroke-width="3"/>
</g>
<g><path d="M158.05 262.93L304.88 262.93"
fill="none" stroke="black" stroke-width="3"/>
</g>
</g>
</svg>
