<?xml version="1.0" standalone="no"?><svg xmlns="http://www.w3.org/2000/svg" width="400.000" height="400.000" viewBox="0.0 0.0 400.000 400.000" version="1.1">
  <title>Produce by Acme CAD Converter</title>
  <desc>Produce by Acme CAD Converter</desc>
<g id="0" display="visible">
<g><path d="M280.04 244.38L280.04 228.39 279.79 228.59 280.04 244.38Z"
fill-rule="evenodd" fill="black"/>
<path d="M280.04 244.38L292.03 253.55 280.04 228.39 280.04 244.38Z"
fill-rule="evenodd" fill="black"/>
<path d="M292.03 253.55L292.03 218.61 280.04 228.39 292.03 253.55Z"
fill-rule="evenodd" fill="black"/>
<path d="M292.03 253.55L292.58 253.98 292.03 218.61 292.03 253.55Z"
fill-rule="evenodd" fill="black"/>
<path d="M292.58 253.98L292.58 218.73 292.03 218.61 292.58 253.98Z"
fill-rule="evenodd" fill="black"/>
<path d="M292.58 253.98L307.45 250.2 292.58 218.73 292.58 253.98Z"
fill-rule="evenodd" fill="black"/>
<path d="M307.45 250.2L307.45 222.02 292.58 218.73 307.45 250.2Z"
fill-rule="evenodd" fill="black"/>
<path d="M307.45 250.2L307.88 250.09 307.45 222.02 307.45 250.2Z"
fill-rule="evenodd" fill="black"/>
<path d="M307.88 250.09L307.88 222.92 307.45 222.02 307.88 250.09Z"
fill-rule="evenodd" fill="black"/>
<path d="M307.88 250.09L314.33 236.23 307.88 222.92 307.88 250.09Z"
fill-rule="evenodd" fill="black"/>
</g>
<g><path d="M104.19 200L106.12 177.98M106.12 177.98L111.84 156.63M111.84 156.63L121.18 136.6M121.18 136.6L133.86 118.49M133.86 118.49L149.49 102.86M149.49 102.86L167.6 90.18M167.6 90.18L187.63 80.84M187.63 80.84L208.98 75.12M208.98 75.12L231 73.19M231 73.19L253.02 75.12M253.02 75.12L274.37 80.84M274.37 80.84L294.4 90.18M294.4 90.18L312.51 102.86M312.51 102.86L328.14 118.49M328.14 118.49L340.82 136.6M340.82 136.6L350.16 156.63M350.16 156.63L355.88 177.98M355.88 177.98L357.81 200M357.81 200L355.88 222.02M355.88 222.02L350.16 243.37M350.16 243.37L340.82 263.4M340.82 263.4L328.14 281.51M328.14 281.51L312.51 297.14M312.51 297.14L294.4 309.82M294.4 309.82L274.37 319.16M274.37 319.16L253.02 324.88M253.02 324.88L231 326.81M231 326.81L208.98 324.88M208.98 324.88L187.63 319.16M187.63 319.16L167.6 309.82M167.6 309.82L149.49 297.14M149.49 297.14L133.86 281.51M133.86 281.51L121.18 263.4M121.18 263.4L111.84 243.37M111.84 243.37L106.12 222.02M106.12 222.02L104.19 200"
fill="none" stroke="black" stroke-width="3"/>
</g>
<g><path d="M194.77 127.54L267.23 127.54"
fill="none" stroke="black" stroke-width="3"/>
</g>
<g><path d="M231 0.73L231 127.54"
fill="none" stroke="black" stroke-width="3"/>
</g>
<g><path d="M278.1 236.23L279.89 228.37M279.89 228.37L284.92 222.07M284.92 222.07L292.18 218.57M292.18 218.57L300.25 218.57M300.25 218.57L307.51 222.07M307.51 222.07L312.54 228.37M312.54 228.37L314.33 236.23M314.33 236.23L312.54 244.09M312.54 244.09L307.51 250.39M307.51 250.39L300.25 253.89M300.25 253.89L292.18 253.89M292.18 253.89L284.92 250.39M284.92 250.39L279.89 244.09M279.89 244.09L278.1 236.23"
fill="none" stroke="black" stroke-width="3"/>
</g>
<g><path d="M231 308.69L231 399.27"
fill="none" stroke="black" stroke-width="3"/>
</g>
<g><path d="M126.83 272.31L335.17 272.31"
fill="none" stroke="black" stroke-width="3"/>
</g>
<g><path d="M42.19 218.12L187.11 218.12"
fill="none" stroke="black" stroke-width="3"/>
</g>
<g><path d="M187.11 218.12L225.57 284.72"
fill="none" stroke="black" stroke-width="3"/>
</g>
</g>
</svg>
