<?xml version="1.0" standalone="no"?><svg xmlns="http://www.w3.org/2000/svg" width="400.000" height="400.000" viewBox="0.0 0.0 400.000 400.000" version="1.1">
  <title>Produce by Acme CAD Converter</title>
  <desc>Produce by Acme CAD Converter</desc>
<g id="0" display="visible">
<g><path d="M181.88 272.46L183.68 264.6M183.68 264.6L188.71 258.3M188.71 258.3L195.97 254.8M195.97 254.8L204.03 254.8M204.03 254.8L211.29 258.3M211.29 258.3L216.32 264.6M216.32 264.6L218.12 272.46M218.12 272.46L216.32 280.32M216.32 280.32L211.29 286.62M211.29 286.62L204.03 290.12M204.03 290.12L195.97 290.12M195.97 290.12L188.71 286.62M188.71 286.62L183.68 280.32M183.68 280.32L181.88 272.46"
fill="none" stroke="black" stroke-width="3"/>
</g>
<g><path d="M199.5 290.57L199.5 399.27"
fill="none" stroke="black" stroke-width="3"/>
</g>
<g><path d="M73.19 200L75.12 177.98M75.12 177.98L80.84 156.63M80.84 156.63L90.18 136.6M90.18 136.6L102.86 118.49M102.86 118.49L118.49 102.86M118.49 102.86L136.6 90.18M136.6 90.18L156.63 80.84M156.63 80.84L177.98 75.12M177.98 75.12L200 73.19M200 73.19L222.02 75.12M222.02 75.12L243.37 80.84M243.37 80.84L263.4 90.18M263.4 90.18L281.51 102.86M281.51 102.86L297.14 118.49M297.14 118.49L309.82 136.6M309.82 136.6L319.16 156.63M319.16 156.63L324.88 177.98M324.88 177.98L326.81 200M326.81 200L324.88 222.02M324.88 222.02L319.16 243.37M319.16 243.37L309.82 263.4M309.82 263.4L297.14 281.51M297.14 281.51L281.51 297.14M281.51 297.14L263.4 309.82M263.4 309.82L243.37 319.16M243.37 319.16L222.02 324.88M222.02 324.88L200 326.81M200 326.81L177.98 324.88M177.98 324.88L156.63 319.16M156.63 319.16L136.6 309.82M136.6 309.82L118.49 297.14M118.49 297.14L102.86 281.51M102.86 281.51L90.18 263.4M90.18 263.4L80.84 243.37M80.84 243.37L75.12 222.02M75.12 222.02L73.19 200"
fill="none" stroke="black" stroke-width="3"/>
</g>
<g><path d="M169.2 145.65L231.96 109.42"
fill="none" stroke="black" stroke-width="3"/>
</g>
<g><path d="M200 0.73L200 127.54"
fill="none" stroke="black" stroke-width="3"/>
</g>
</g>
</svg>
