<?xml version="1.0" standalone="no"?><svg xmlns="http://www.w3.org/2000/svg" width="400.000" height="400.000" viewBox="0.0 0.0 400.000 400.000" version="1.1">
  <title>Produce by Acme CAD Converter</title>
  <desc>Produce by Acme CAD Converter</desc>
<g id="0" display="visible">
<g><path d="M323.87 156.92L323.87 200"
fill="none" stroke="black" stroke-width="3"/>
</g>
<g><path d="M399.27 178.46L323.87 178.46"
fill="none" stroke="black" stroke-width="3"/>
</g>
<g><path d="M43.82 178.45L45.71 195.23M45.71 195.23L51.29 211.16M51.29 211.16L60.27 225.46M60.27 225.46L72.21 237.4M72.21 237.4L86.5 246.38M86.5 246.38L102.44 251.96M102.44 251.96L119.22 253.85"
fill="none" stroke="black" stroke-width="3"/>
</g>
<g><path d="M119.22 103.06L102.44 104.95M102.44 104.95L86.5 110.53M86.5 110.53L72.21 119.51M72.21 119.51L60.27 131.45M60.27 131.45L51.29 145.75M51.29 145.75L45.71 161.68M45.71 161.68L43.82 178.45"
fill="none" stroke="black" stroke-width="3"/>
</g>
<g><path d="M248.47 253.85L292.26 253.85"
fill="none" stroke="black" stroke-width="3"/>
</g>
<g><path d="M248.47 103.06L291.55 103.06"
fill="none" stroke="black" stroke-width="3"/>
</g>
<g><path d="M248.47 253.85L119.22 253.85"
fill="none" stroke="black" stroke-width="3"/>
</g>
<g><path d="M248.47 103.06L118.52 103.06"
fill="none" stroke="black" stroke-width="3"/>
</g>
<g><path d="M366.95 178.46L365.06 161.69M365.06 161.69L359.48 145.75M359.48 145.75L350.5 131.46M350.5 131.46L338.56 119.52M338.56 119.52L324.27 110.54M324.27 110.54L308.33 104.96M308.33 104.96L291.55 103.06"
fill="none" stroke="black" stroke-width="3"/>
</g>
<g><path d="M291.55 253.86L308.33 251.96M308.33 251.96L324.27 246.38M324.27 246.38L338.56 237.4M338.56 237.4L350.5 225.46M350.5 225.46L359.48 211.17M359.48 211.17L365.06 195.24M365.06 195.24L366.95 178.46"
fill="none" stroke="black" stroke-width="3"/>
</g>
<g><path d="M86.9 135.37L76.75 145.34M76.75 145.34L69.56 157.61M69.56 157.61L65.83 171.34M65.83 171.34L65.83 185.57M65.83 185.57L69.56 199.3M69.56 199.3L76.75 211.58M76.75 211.58L86.9 221.54"
fill="none" stroke="black" stroke-width="3"/>
</g>
<g><path d="M162.53 239.23L162.53 221.54"
fill="none" stroke="black" stroke-width="3"/>
</g>
<g><path d="M162.53 243.07L162.53 239.23"
fill="none" stroke="black" stroke-width="3"/>
</g>
<g><path d="M162.53 296.94L162.53 243.07"
fill="none" stroke="black" stroke-width="3"/>
</g>
<g><path d="M162.53 221.54L146.38 221.54"
fill="none" stroke="black" stroke-width="3"/>
</g>
<g><path d="M178.69 221.54L162.53 221.54"
fill="none" stroke="black" stroke-width="3"/>
</g>
<g><path d="M145.91 236.16L147.18 238.81M147.18 238.81L150.78 241.06M150.78 241.06L156.17 242.56M156.17 242.56L162.53 243.08"
fill="none" stroke="black" stroke-width="3"/>
</g>
<g><path d="M162.53 243.08L168.54 242.6M168.54 242.6L173.65 241.11M173.65 241.11L177.06 238.85M177.06 238.85L178.23 236.16"
fill="none" stroke="black" stroke-width="3"/>
</g>
<g><path d="M205.62 239.23L205.62 221.54"
fill="none" stroke="black" stroke-width="3"/>
</g>
<g><path d="M205.62 243.07L205.62 239.23"
fill="none" stroke="black" stroke-width="3"/>
</g>
<g><path d="M205.62 296.94L205.62 243.07"
fill="none" stroke="black" stroke-width="3"/>
</g>
<g><path d="M205.62 221.54L189.46 221.54"
fill="none" stroke="black" stroke-width="3"/>
</g>
<g><path d="M221.77 221.54L205.62 221.54"
fill="none" stroke="black" stroke-width="3"/>
</g>
<g><path d="M189 236.16L190.26 238.81M190.26 238.81L193.87 241.06M193.87 241.06L199.26 242.56M199.26 242.56L205.62 243.08"
fill="none" stroke="black" stroke-width="3"/>
</g>
<g><path d="M205.62 243.08L211.62 242.6M211.62 242.6L216.74 241.11M216.74 241.11L220.15 238.85M220.15 238.85L221.31 236.16"
fill="none" stroke="black" stroke-width="3"/>
</g>
<g><path d="M119.45 239.23L119.45 221.54"
fill="none" stroke="black" stroke-width="3"/>
</g>
<g><path d="M119.45 243.07L119.45 239.23"
fill="none" stroke="black" stroke-width="3"/>
</g>
<g><path d="M119.45 296.94L119.45 243.07"
fill="none" stroke="black" stroke-width="3"/>
</g>
<g><path d="M119.45 221.54L103.29 221.54"
fill="none" stroke="black" stroke-width="3"/>
</g>
<g><path d="M135.6 221.54L119.45 221.54"
fill="none" stroke="black" stroke-width="3"/>
</g>
<g><path d="M102.83 236.16L104.09 238.81M104.09 238.81L107.7 241.06M107.7 241.06L113.09 242.56M113.09 242.56L119.45 243.08"
fill="none" stroke="black" stroke-width="3"/>
</g>
<g><path d="M119.45 243.08L125.45 242.6M125.45 242.6L130.57 241.11M130.57 241.11L133.98 238.85M133.98 238.85L135.14 236.16"
fill="none" stroke="black" stroke-width="3"/>
</g>
<g><path d="M248.7 239.23L248.7 221.54"
fill="none" stroke="black" stroke-width="3"/>
</g>
<g><path d="M248.7 243.07L248.7 239.23"
fill="none" stroke="black" stroke-width="3"/>
</g>
<g><path d="M248.7 296.94L248.7 243.07"
fill="none" stroke="black" stroke-width="3"/>
</g>
<g><path d="M248.7 221.54L232.55 221.54"
fill="none" stroke="black" stroke-width="3"/>
</g>
<g><path d="M264.86 221.54L248.7 221.54"
fill="none" stroke="black" stroke-width="3"/>
</g>
<g><path d="M232.08 236.16L233.35 238.81M233.35 238.81L236.95 241.06M236.95 241.06L242.34 242.56M242.34 242.56L248.7 243.08"
fill="none" stroke="black" stroke-width="3"/>
</g>
<g><path d="M248.7 243.08L254.71 242.6M254.71 242.6L259.82 241.11M259.82 241.11L263.23 238.85M263.23 238.85L264.4 236.16"
fill="none" stroke="black" stroke-width="3"/>
</g>
<g><path d="M291.79 239.23L291.79 221.54"
fill="none" stroke="black" stroke-width="3"/>
</g>
<g><path d="M291.79 243.07L291.79 239.23"
fill="none" stroke="black" stroke-width="3"/>
</g>
<g><path d="M291.79 296.94L291.79 243.07"
fill="none" stroke="black" stroke-width="3"/>
</g>
<g><path d="M291.79 221.54L275.63 221.54"
fill="none" stroke="black" stroke-width="3"/>
</g>
<g><path d="M307.94 221.54L291.79 221.54"
fill="none" stroke="black" stroke-width="3"/>
</g>
<g><path d="M275.17 236.16L276.43 238.81M276.43 238.81L280.03 241.06M280.03 241.06L285.43 242.56M285.43 242.56L291.79 243.08"
fill="none" stroke="black" stroke-width="3"/>
</g>
<g><path d="M291.79 243.08L297.79 242.6M297.79 242.6L302.91 241.11M302.91 241.11L306.31 238.85M306.31 238.85L307.48 236.16"
fill="none" stroke="black" stroke-width="3"/>
</g>
<g><path d="M0.73 178.46L65.36 178.46"
fill="none" stroke="black" stroke-width="3"/>
</g>
</g>
</svg>
