<?xml version="1.0" standalone="no"?><svg xmlns="http://www.w3.org/2000/svg" width="400.000" height="400.000" viewBox="0.0 0.0 400.000 400.000" version="1.1">
  <title>Produce by Acme CAD Converter</title>
  <desc>Produce by Acme CAD Converter</desc>
<g id="0" display="visible">
<g><path d="M73.19 163.77L75.11 141.75M75.11 141.75L80.84 120.4M80.84 120.4L90.18 100.36M90.18 100.36L102.86 82.26M102.86 82.26L118.49 66.63M118.49 66.63L136.59 53.95M136.59 53.95L156.63 44.61M156.63 44.61L177.98 38.89M177.98 38.89L200 36.96M200 36.96L222.02 38.89M222.02 38.89L243.37 44.61M243.37 44.61L263.4 53.95M263.4 53.95L281.51 66.63M281.51 66.63L297.14 82.26M297.14 82.26L309.82 100.36M309.82 100.36L319.16 120.4M319.16 120.4L324.88 141.75M324.88 141.75L326.8 163.77M326.8 163.77L324.88 185.79M324.88 185.79L319.16 207.14M319.16 207.14L309.82 227.17M309.82 227.17L297.14 245.28M297.14 245.28L281.51 260.91M281.51 260.91L263.4 273.59M263.4 273.59L243.37 282.93M243.37 282.93L222.02 288.65M222.02 288.65L200 290.58M200 290.58L177.98 288.65M177.98 288.65L156.63 282.93M156.63 282.93L136.59 273.59M136.59 273.59L118.49 260.91M118.49 260.91L102.86 245.28M102.86 245.28L90.18 227.17M90.18 227.17L80.84 207.14M80.84 207.14L75.11 185.79M75.11 185.79L73.19 163.77"
fill="none" stroke="black" stroke-width="3"/>
</g>
<g><path d="M272.46 127.54L272.46 200"
fill="none" stroke="black" stroke-width="3"/>
</g>
<g><path d="M399.27 163.77L272.46 163.77"
fill="none" stroke="black" stroke-width="3"/>
</g>
<g><path d="M109.43 164.92L0.73 164.92"
fill="none" stroke="black" stroke-width="3"/>
</g>
<g><path d="M145.65 91.31L131.97 103.96M131.97 103.96L121.17 119.14M121.17 119.14L113.71 136.22M113.71 136.22L109.9 154.45M109.9 154.45L109.9 173.08M109.9 173.08L113.71 191.32M113.71 191.32L121.17 208.39M121.17 208.39L131.97 223.58M131.97 223.58L145.65 236.23"
fill="none" stroke="black" stroke-width="3"/>
</g>
<g><path d="M236.23 236.23L163.77 236.23"
fill="none" stroke="black" stroke-width="3"/>
</g>
<g><path d="M200 363.04L200 236.23"
fill="none" stroke="black" stroke-width="3"/>
</g>
<g><path d="M160.14 263.4L175.41 269.17M175.41 269.17L191.46 272.09M191.46 272.09L207.78 272.09M207.78 272.09L223.84 269.17M223.84 269.17L239.11 263.4"
fill="none" stroke="black" stroke-width="3"/>
</g>
</g>
</svg>
