<?xml version="1.0" standalone="no"?><svg xmlns="http://www.w3.org/2000/svg" width="400.000" height="400.000" viewBox="0.0 0.0 400.000 400.000" version="1.1">
  <title>Produce by Acme CAD Converter</title>
  <desc>Produce by Acme CAD Converter</desc>
<g id="0" display="visible">
<g><path d="M191.46 272.46L179.65 274.35M179.65 274.35L168.64 279.89M168.64 279.89L159.18 288.7M159.18 288.7L151.93 300.19M151.93 300.19L147.37 313.57M147.37 313.57L145.81 327.92"
fill="none" stroke="black" stroke-width="3"/>
</g>
<g><path d="M255.18 326.13L253.6 312.24M253.6 312.24L249 299.3M249 299.3L241.67 288.19M241.67 288.19L232.14 279.68M232.14 279.68L221.04 274.35M221.04 274.35L209.13 272.56"
fill="none" stroke="black" stroke-width="3"/>
</g>
<g><path d="M145.68 327.92L145.65 398.59"
fill="none" stroke="black" stroke-width="3"/>
</g>
<g><path d="M254.35 326.13L254.35 398.59"
fill="none" stroke="black" stroke-width="3"/>
</g>
<g><path d="M127.54 127.54L181.88 127.54"
fill="none" stroke="black" stroke-width="3"/>
</g>
<g><path d="M154.71 0.73L154.71 127.54"
fill="none" stroke="black" stroke-width="3"/>
</g>
<g><path d="M73.19 200L75.12 177.98M75.12 177.98L80.84 156.63M80.84 156.63L90.18 136.6M90.18 136.6L102.86 118.49M102.86 118.49L118.49 102.86M118.49 102.86L136.6 90.18M136.6 90.18L156.63 80.84M156.63 80.84L177.98 75.12M177.98 75.12L200 73.19M200 73.19L222.02 75.12M222.02 75.12L243.37 80.84M243.37 80.84L263.4 90.18M263.4 90.18L281.51 102.86M281.51 102.86L297.14 118.49M297.14 118.49L309.82 136.6M309.82 136.6L319.16 156.63M319.16 156.63L324.88 177.98M324.88 177.98L326.81 200M326.81 200L324.88 222.02M324.88 222.02L319.16 243.37M319.16 243.37L309.82 263.4M309.82 263.4L297.14 281.51M297.14 281.51L281.51 297.14M281.51 297.14L263.4 309.82M263.4 309.82L243.37 319.16M243.37 319.16L222.02 324.88M222.02 324.88L200 326.81M200 326.81L177.98 324.88M177.98 324.88L156.63 319.16M156.63 319.16L136.6 309.82M136.6 309.82L118.49 297.14M118.49 297.14L102.86 281.51M102.86 281.51L90.18 263.4M90.18 263.4L80.84 243.37M80.84 243.37L75.12 222.02M75.12 222.02L73.19 200"
fill="none" stroke="black" stroke-width="3"/>
</g>
<g><path d="M199.39 286.95L188.38 288.73M188.38 288.73L178.45 293.87M178.45 293.87L170.57 301.89M170.57 301.89L165.51 311.98M165.51 311.98L163.77 323.18"
fill="none" stroke="black" stroke-width="3"/>
</g>
<g><path d="M236.23 323.18L234.43 312.04M234.43 312.04L229.21 301.97M229.21 301.97L221.06 293.97M221.06 293.97L210.79 288.79M210.79 288.79L199.39 286.95"
fill="none" stroke="black" stroke-width="3"/>
</g>
<g><path d="M163.77 323.18L163.77 399.27"
fill="none" stroke="black" stroke-width="3"/>
</g>
<g><path d="M236.23 323.18L236.23 399.27"
fill="none" stroke="black" stroke-width="3"/>
</g>
<g><path d="M218.12 127.54L272.46 127.54"
fill="none" stroke="black" stroke-width="3"/>
</g>
<g><path d="M245.29 0.73L245.29 127.54"
fill="none" stroke="black" stroke-width="3"/>
</g>
</g>
</svg>
