<?xml version="1.0" standalone="no"?><svg xmlns="http://www.w3.org/2000/svg" width="400.000" height="400.000" viewBox="0.0 0.0 400.000 400.000" version="1.1">
  <title>Produce by Acme CAD Converter</title>
  <desc>Produce by Acme CAD Converter</desc>
<g id="0" display="visible">
<g><path d="M318.58 178.5L318.58 169.24 318.44 169.36 318.58 178.5Z"
fill-rule="evenodd" fill="black"/>
<path d="M318.58 178.5L325.53 183.81 318.58 169.24 318.58 178.5Z"
fill-rule="evenodd" fill="black"/>
<path d="M325.53 183.81L325.53 163.58 318.58 169.24 325.53 183.81Z"
fill-rule="evenodd" fill="black"/>
<path d="M325.53 183.81L325.84 184.05 325.53 163.58 325.53 183.81Z"
fill-rule="evenodd" fill="black"/>
<path d="M325.84 184.05L325.84 163.65 325.53 163.58 325.84 184.05Z"
fill-rule="evenodd" fill="black"/>
<path d="M325.84 184.05L334.45 181.87 325.84 163.65 325.84 184.05Z"
fill-rule="evenodd" fill="black"/>
<path d="M334.45 181.87L334.45 165.55 325.84 163.65 334.45 181.87Z"
fill-rule="evenodd" fill="black"/>
<path d="M334.45 181.87L334.71 181.8 334.45 165.55 334.45 181.87Z"
fill-rule="evenodd" fill="black"/>
<path d="M334.71 181.8L334.71 166.08 334.45 165.55 334.71 181.8Z"
fill-rule="evenodd" fill="black"/>
<path d="M334.71 181.8L338.44 173.78 334.71 166.08 334.71 181.8Z"
fill-rule="evenodd" fill="black"/>
</g>
<g><path d="M163.29 158.05L194.76 158.05"
fill="none" stroke="black" stroke-width="3"/>
</g>
<g><path d="M179.02 84.64L179.02 158.05"
fill="none" stroke="black" stroke-width="3"/>
</g>
<g><path d="M0.73 200L116.1 200"
fill="none" stroke="black" stroke-width="3"/>
</g>
<g><path d="M283.9 220.98L283.9 200.29M283.9 200.29L399.27 200.29"
fill="none" stroke="black" stroke-width=".5"/>
</g>
<g><path d="M317.46 173.78L319.13 168.11M319.13 168.11L323.59 164.24M323.59 164.24L329.44 163.4M329.44 163.4L334.82 165.85M334.82 165.85L338.01 170.83M338.01 170.83L338.01 176.74M338.01 176.74L334.82 181.71M334.82 181.71L329.44 184.16M329.44 184.16L323.59 183.32M323.59 183.32L319.13 179.45M319.13 179.45L317.46 173.78"
fill="none" stroke="black" stroke-width="3"/>
</g>
<g><path d="M357.32 200L355.47 183.67M355.47 183.67L350.04 168.16M350.04 168.16L341.3 154.24M341.3 154.24L329.67 142.61M329.67 142.61L315.75 133.87M315.75 133.87L300.24 128.43M300.24 128.43L283.9 126.59"
fill="none" stroke="black" stroke-width="3"/>
</g>
<g><path d="M283.9 273.41L300.24 271.57M300.24 271.57L315.75 266.14M315.75 266.14L329.67 257.39M329.67 257.39L341.3 245.77M341.3 245.77L350.04 231.85M350.04 231.85L355.47 216.34M355.47 216.34L357.32 200"
fill="none" stroke="black" stroke-width="3"/>
</g>
<g><path d="M158.05 126.59L115.42 126.59"
fill="none" stroke="black" stroke-width="3"/>
</g>
<g><path d="M158.05 273.41L116.1 273.41"
fill="none" stroke="black" stroke-width="3"/>
</g>
<g><path d="M158.05 126.59L283.9 126.59"
fill="none" stroke="black" stroke-width="3"/>
</g>
<g><path d="M158.05 273.41L284.58 273.41"
fill="none" stroke="black" stroke-width="3"/>
</g>
<g><path d="M116.1 200L131.24 226.22"
fill="none" stroke="black" stroke-width="3"/>
</g>
<g><path d="M42.68 200L44.53 216.33M44.53 216.33L49.96 231.84M49.96 231.84L58.7 245.76M58.7 245.76L70.33 257.39M70.33 257.39L84.25 266.13M84.25 266.13L99.76 271.57M99.76 271.57L116.1 273.41"
fill="none" stroke="black" stroke-width="3"/>
</g>
<g><path d="M116.1 126.59L99.76 128.43M99.76 128.43L84.25 133.86M84.25 133.86L70.33 142.61M70.33 142.61L58.7 154.23M58.7 154.23L49.96 168.15M49.96 168.15L44.53 183.66M44.53 183.66L42.68 200"
fill="none" stroke="black" stroke-width="3"/>
</g>
<g><path d="M79.39 158.05L110.85 158.05"
fill="none" stroke="black" stroke-width="3"/>
</g>
<g><path d="M95.12 84.64L95.12 158.05"
fill="none" stroke="black" stroke-width="3"/>
</g>
<g><path d="M205.24 158.05L236.71 158.05"
fill="none" stroke="black" stroke-width="3"/>
</g>
<g><path d="M220.98 84.64L220.98 158.05"
fill="none" stroke="black" stroke-width="3"/>
</g>
<g><path d="M247.19 158.05L278.66 158.05"
fill="none" stroke="black" stroke-width="3"/>
</g>
<g><path d="M262.93 84.64L262.93 158.05"
fill="none" stroke="black" stroke-width="3"/>
</g>
<g><path d="M121.34 158.05L152.81 158.05"
fill="none" stroke="black" stroke-width="3"/>
</g>
<g><path d="M137.07 84.64L137.07 158.05"
fill="none" stroke="black" stroke-width="3"/>
</g>
<g><path d="M289.15 158.05L320.61 158.05"
fill="none" stroke="black" stroke-width="3"/>
</g>
<g><path d="M304.88 84.64L304.88 158.05"
fill="none" stroke="black" stroke-width="3"/>
</g>
<g><path d="M56.22 242.47L343.78 242.47"
fill="none" stroke="black" stroke-width="3"/>
</g>
<g><path d="M200 252.44L200 315.36"
fill="none" stroke="black" stroke-width="3"/>
</g>
</g>
</svg>
