<?xml version="1.0" standalone="no"?><svg xmlns="http://www.w3.org/2000/svg" width="400.000" height="400.000" viewBox="0.0 0.0 400.000 400.000" version="1.1">
  <title>Produce by Acme CAD Converter</title>
  <desc>Produce by Acme CAD Converter</desc>
<g id="0" display="visible">
<g><path d="M247.22 171.92L247.22 155.93 246.98 156.13 247.22 171.92Z"
fill-rule="evenodd" fill="black"/>
<path d="M247.22 171.92L259.21 181.09 247.22 155.93 247.22 171.92Z"
fill-rule="evenodd" fill="black"/>
<path d="M259.21 181.09L259.21 146.15 247.22 155.93 259.21 181.09Z"
fill-rule="evenodd" fill="black"/>
<path d="M259.21 181.09L259.77 181.52 259.21 146.15 259.21 181.09Z"
fill-rule="evenodd" fill="black"/>
<path d="M259.77 181.52L259.77 146.27 259.21 146.15 259.77 181.52Z"
fill-rule="evenodd" fill="black"/>
<path d="M259.77 181.52L274.63 177.74 259.77 146.27 259.77 181.52Z"
fill-rule="evenodd" fill="black"/>
<path d="M274.63 177.74L274.63 149.56 259.77 146.27 274.63 177.74Z"
fill-rule="evenodd" fill="black"/>
<path d="M274.63 177.74L275.07 177.63 274.63 149.56 274.63 177.74Z"
fill-rule="evenodd" fill="black"/>
<path d="M275.07 177.63L275.07 150.46 274.63 149.56 275.07 177.63Z"
fill-rule="evenodd" fill="black"/>
<path d="M275.07 177.63L281.52 163.77 275.07 150.46 275.07 177.63Z"
fill-rule="evenodd" fill="black"/>
</g>
<g><path d="M71.79 200L73.72 177.98M73.72 177.98L79.44 156.63M79.44 156.63L88.78 136.6M88.78 136.6L101.46 118.49M101.46 118.49L117.09 102.86M117.09 102.86L135.2 90.18M135.2 90.18L155.23 80.84M155.23 80.84L176.58 75.12M176.58 75.12L198.6 73.19M198.6 73.19L220.62 75.12M220.62 75.12L241.97 80.84M241.97 80.84L262 90.18M262 90.18L280.11 102.86M280.11 102.86L295.74 118.49M295.74 118.49L308.42 136.6M308.42 136.6L317.76 156.63M317.76 156.63L323.48 177.98M323.48 177.98L325.4 200M325.4 200L323.48 222.02M323.48 222.02L317.76 243.37M317.76 243.37L308.42 263.4M308.42 263.4L295.74 281.51M295.74 281.51L280.11 297.14M280.11 297.14L262 309.82M262 309.82L241.97 319.16M241.97 319.16L220.62 324.88M220.62 324.88L198.6 326.81M198.6 326.81L176.58 324.88M176.58 324.88L155.23 319.16M155.23 319.16L135.2 309.82M135.2 309.82L117.09 297.14M117.09 297.14L101.46 281.51M101.46 281.51L88.78 263.4M88.78 263.4L79.44 243.37M79.44 243.37L73.72 222.02M73.72 222.02L71.79 200"
fill="none" stroke="black" stroke-width="3"/>
</g>
<g><path d="M162.37 127.54L234.83 127.54"
fill="none" stroke="black" stroke-width="3"/>
</g>
<g><path d="M198.6 0.73L198.6 127.54"
fill="none" stroke="black" stroke-width="3"/>
</g>
<g><path d="M245.29 163.77L247.08 155.91M247.08 155.91L252.11 149.61M252.11 149.61L259.37 146.11M259.37 146.11L267.43 146.11M267.43 146.11L274.7 149.61M274.7 149.61L279.72 155.91M279.72 155.91L281.52 163.77M281.52 163.77L279.72 171.63M279.72 171.63L274.7 177.93M274.7 177.93L267.43 181.43M267.43 181.43L259.37 181.43M259.37 181.43L252.11 177.93M252.11 177.93L247.08 171.63M247.08 171.63L245.29 163.77"
fill="none" stroke="black" stroke-width="3"/>
</g>
<g><path d="M198.6 308.69L198.6 399.27"
fill="none" stroke="black" stroke-width="3"/>
</g>
<g><path d="M94.43 272.31L302.77 272.31"
fill="none" stroke="black" stroke-width="3"/>
</g>
<g><path d="M9.79 218.12L154.71 218.12"
fill="none" stroke="black" stroke-width="3"/>
</g>
<g><path d="M154.71 218.12L175.63 254.35"
fill="none" stroke="black" stroke-width="3"/>
</g>
<g><path d="M245.29 254.35L245.29 218.12M245.29 218.12L390.21 218.12"
fill="none" stroke="black" stroke-width=".5"/>
</g>
<g><path d="M216.3 254.35L274.27 254.35"
fill="none" stroke="black" stroke-width="3"/>
</g>
</g>
</svg>
