<?xml version="1.0" standalone="no"?><svg xmlns="http://www.w3.org/2000/svg" width="400.000" height="400.000" viewBox="0.0 0.0 400.000 400.000" version="1.1">
  <title>Produce by Acme CAD Converter</title>
  <desc>Produce by Acme CAD Converter</desc>
<g id="0" display="visible">
<g><path d="M109.42 200L111.35 177.98M111.35 177.98L117.07 156.63M117.07 156.63L126.41 136.6M126.41 136.6L139.09 118.49M139.09 118.49L154.72 102.86M154.72 102.86L172.83 90.18M172.83 90.18L192.86 80.84M192.86 80.84L214.21 75.12M214.21 75.12L236.23 73.19M236.23 73.19L258.25 75.12M258.25 75.12L279.6 80.84M279.6 80.84L299.63 90.18M299.63 90.18L317.74 102.86M317.74 102.86L333.37 118.49M333.37 118.49L346.05 136.6M346.05 136.6L355.39 156.63M355.39 156.63L361.11 177.98M361.11 177.98L363.04 200M363.04 200L361.11 222.02M361.11 222.02L355.39 243.37M355.39 243.37L346.05 263.4M346.05 263.4L333.37 281.51M333.37 281.51L317.74 297.14M317.74 297.14L299.63 309.82M299.63 309.82L279.6 319.16M279.6 319.16L258.25 324.88M258.25 324.88L236.23 326.81M236.23 326.81L214.21 324.88M214.21 324.88L192.86 319.16M192.86 319.16L172.83 309.82M172.83 309.82L154.72 297.14M154.72 297.14L139.09 281.51M139.09 281.51L126.41 263.4M126.41 263.4L117.07 243.37M117.07 243.37L111.35 222.02M111.35 222.02L109.42 200"
fill="none" stroke="black" stroke-width="3"/>
</g>
<g><path d="M200 127.54L272.46 127.54"
fill="none" stroke="black" stroke-width="3"/>
</g>
<g><path d="M236.23 0.73L236.23 127.54"
fill="none" stroke="black" stroke-width="3"/>
</g>
<g><path d="M235.62 286.95L224.61 288.73M224.61 288.73L214.68 293.87M214.68 293.87L206.8 301.89M206.8 301.89L201.75 311.98M201.75 311.98L200 323.18"
fill="none" stroke="black" stroke-width="3"/>
</g>
<g><path d="M272.46 323.18L270.66 312.04M270.66 312.04L265.44 301.97M265.44 301.97L257.29 293.97M257.29 293.97L247.02 288.79M247.02 288.79L235.62 286.95"
fill="none" stroke="black" stroke-width="3"/>
</g>
<g><path d="M200 323.18L200 399.27"
fill="none" stroke="black" stroke-width="3"/>
</g>
<g><path d="M272.46 323.18L272.46 399.27"
fill="none" stroke="black" stroke-width="3"/>
</g>
<g><path d="M36.96 200L127.54 200"
fill="none" stroke="black" stroke-width="3"/>
</g>
<g><path d="M218.12 200L254.35 200"
fill="none" stroke="black" stroke-width="3"/>
</g>
<g><path d="M154.71 200L190.94 200"
fill="none" stroke="black" stroke-width="3"/>
</g>
<g><path d="M281.52 200L317.75 200"
fill="none" stroke="black" stroke-width="3"/>
</g>
</g>
</svg>
