<?xml version="1.0" standalone="no"?><svg xmlns="http://www.w3.org/2000/svg" width="400.000" height="400.000" viewBox="0.0 0.0 400.000 400.000" version="1.1">
  <title>Produce by Acme CAD Converter</title>
  <desc>Produce by Acme CAD Converter</desc>
<g id="0" display="visible">
<g><path d="M127.54 127.54L181.88 127.54"
fill="none" stroke="black" stroke-width="3"/>
</g>
<g><path d="M154.71 0.73L154.71 127.54"
fill="none" stroke="black" stroke-width="3"/>
</g>
<g><path d="M73.19 200L75.12 177.98M75.12 177.98L80.84 156.63M80.84 156.63L90.18 136.6M90.18 136.6L102.86 118.49M102.86 118.49L118.49 102.86M118.49 102.86L136.6 90.18M136.6 90.18L156.63 80.84M156.63 80.84L177.98 75.12M177.98 75.12L200 73.19M200 73.19L222.02 75.12M222.02 75.12L243.37 80.84M243.37 80.84L263.4 90.18M263.4 90.18L281.51 102.86M281.51 102.86L297.14 118.49M297.14 118.49L309.82 136.6M309.82 136.6L319.16 156.63M319.16 156.63L324.88 177.98M324.88 177.98L326.81 200M326.81 200L324.88 222.02M324.88 222.02L319.16 243.37M319.16 243.37L309.82 263.4M309.82 263.4L297.14 281.51M297.14 281.51L281.51 297.14M281.51 297.14L263.4 309.82M263.4 309.82L243.37 319.16M243.37 319.16L222.02 324.88M222.02 324.88L200 326.81M200 326.81L177.98 324.88M177.98 324.88L156.63 319.16M156.63 319.16L136.6 309.82M136.6 309.82L118.49 297.14M118.49 297.14L102.86 281.51M102.86 281.51L90.18 263.4M90.18 263.4L80.84 243.37M80.84 243.37L75.12 222.02M75.12 222.02L73.19 200"
fill="none" stroke="black" stroke-width="3"/>
</g>
<g><path d="M218.12 127.54L272.46 127.54"
fill="none" stroke="black" stroke-width="3"/>
</g>
<g><path d="M245.29 0.73L245.29 127.54"
fill="none" stroke="black" stroke-width="3"/>
</g>
<g><path d="M163.16 290.58L152.15 292.35M152.15 292.35L142.22 297.5M142.22 297.5L134.34 305.51M134.34 305.51L129.28 315.61M129.28 315.61L127.54 326.8"
fill="none" stroke="black" stroke-width="3"/>
</g>
<g><path d="M200 326.8L198.2 315.66M198.2 315.66L192.98 305.6M192.98 305.6L184.83 297.59M184.83 297.59L174.56 292.42M174.56 292.42L163.16 290.58"
fill="none" stroke="black" stroke-width="3"/>
</g>
<g><path d="M127.54 326.8L127.54 399.27"
fill="none" stroke="black" stroke-width="3"/>
</g>
<g><path d="M200 326.8L200 399.27"
fill="none" stroke="black" stroke-width="3"/>
</g>
<g><path d="M235.62 290.58L224.61 292.35M224.61 292.35L214.68 297.5M214.68 297.5L206.8 305.51M206.8 305.51L201.75 315.61M201.75 315.61L200 326.8"
fill="none" stroke="black" stroke-width="3"/>
</g>
<g><path d="M272.46 326.8L270.66 315.66M270.66 315.66L265.44 305.6M265.44 305.6L257.29 297.59M257.29 297.59L247.02 292.42M247.02 292.42L235.62 290.58"
fill="none" stroke="black" stroke-width="3"/>
</g>
<g><path d="M200 326.8L200 399.27"
fill="none" stroke="black" stroke-width="3"/>
</g>
<g><path d="M272.46 326.8L272.46 399.27"
fill="none" stroke="black" stroke-width="3"/>
</g>
<g><path d="M291.27 326.24L289.93 312.15M289.93 312.15L285.38 299.3M285.38 299.3L277.85 288.34M277.85 288.34L267.7 279.82M267.7 279.82L255.45 274.18M255.45 274.18L241.71 271.68M241.71 271.68L227.17 272.46"
fill="none" stroke="black" stroke-width="3"/>
</g>
<g><path d="M173.52 273.02L159.41 271.89M159.41 271.89L145.96 274.14M145.96 274.14L133.86 279.66M133.86 279.66L123.71 288.18M123.71 288.18L116.02 299.26M116.02 299.26L111.18 312.36M111.18 312.36L109.42 326.81"
fill="none" stroke="black" stroke-width="3"/>
</g>
<g><path d="M109.42 326.81L109.42 399.27"
fill="none" stroke="black" stroke-width="3"/>
</g>
<g><path d="M291.27 326.24L291.27 399.27"
fill="none" stroke="black" stroke-width="3"/>
</g>
</g>
</svg>
