<?xml version="1.0" standalone="no"?><svg xmlns="http://www.w3.org/2000/svg" width="400.000" height="400.000" viewBox="0.0 0.0 400.000 400.000" version="1.1">
  <title>Produce by Acme CAD Converter</title>
  <desc>Produce by Acme CAD Converter</desc>
<g id="0" display="visible">
<g><path d="M178.67 336.34L170.78 337.94M170.78 337.94L164.09 342.48M164.09 342.48L159.62 349.29M159.62 349.29L158.05 357.31"
fill="none" stroke="black" stroke-width="3"/>
</g>
<g><path d="M200 357.31L198.38 349.32M198.38 349.32L193.76 342.54M193.76 342.54L186.84 337.98M186.84 337.98L178.67 336.34"
fill="none" stroke="black" stroke-width="3"/>
</g>
<g><path d="M158.05 357.31L158.05 399.27"
fill="none" stroke="black" stroke-width="3"/>
</g>
<g><path d="M200 357.31L200 399.27"
fill="none" stroke="black" stroke-width="3"/>
</g>
<g><path d="M179.02 357.32L195.35 355.47M195.35 355.47L210.87 350.04M210.87 350.04L224.79 341.3M224.79 341.3L236.41 329.67M236.41 329.67L245.16 315.75M245.16 315.75L250.59 300.24M250.59 300.24L252.44 283.9"
fill="none" stroke="black" stroke-width="3"/>
</g>
<g><path d="M105.61 283.9L107.45 300.24M107.45 300.24L112.89 315.75M112.89 315.75L121.63 329.67M121.63 329.67L133.26 341.3M133.26 341.3L147.17 350.04M147.17 350.04L162.69 355.47M162.69 355.47L179.02 357.32"
fill="none" stroke="black" stroke-width="3"/>
</g>
<g><path d="M179.03 42.68L162.69 44.53M162.69 44.53L147.18 49.96M147.18 49.96L133.26 58.7M133.26 58.7L121.64 70.33M121.64 70.33L112.89 84.25M112.89 84.25L107.46 99.76M107.46 99.76L105.61 116.1"
fill="none" stroke="black" stroke-width="3"/>
</g>
<g><path d="M252.44 116.1L250.59 99.76M250.59 99.76L245.16 84.25M245.16 84.25L236.42 70.33M236.42 70.33L224.79 58.7M224.79 58.7L210.88 49.96M210.88 49.96L195.36 44.53M195.36 44.53L179.03 42.68"
fill="none" stroke="black" stroke-width="3"/>
</g>
<g><path d="M252.44 158.05L252.44 115.42"
fill="none" stroke="black" stroke-width="3"/>
</g>
<g><path d="M105.61 158.05L105.61 116.1"
fill="none" stroke="black" stroke-width="3"/>
</g>
<g><path d="M252.44 158.05L252.44 283.9"
fill="none" stroke="black" stroke-width="3"/>
</g>
<g><path d="M105.61 158.05L105.61 284.58"
fill="none" stroke="black" stroke-width="3"/>
</g>
<g><path d="M162.24 84.64L198.57 63.66"
fill="none" stroke="black" stroke-width="3"/>
</g>
<g><path d="M179.02 0.73L179.02 74.15"
fill="none" stroke="black" stroke-width="3"/>
</g>
<g><path d="M126.59 200L294.39 200"
fill="none" stroke="black" stroke-width="3"/>
</g>
<g><path d="M126.59 168.54L294.39 168.54"
fill="none" stroke="black" stroke-width="3"/>
</g>
<g><path d="M126.59 137.07L294.39 137.07"
fill="none" stroke="black" stroke-width="3"/>
</g>
<g><path d="M126.59 231.46L294.39 231.46"
fill="none" stroke="black" stroke-width="3"/>
</g>
<g><path d="M126.59 262.93L294.39 262.93"
fill="none" stroke="black" stroke-width="3"/>
</g>
</g>
</svg>
