<?xml version="1.0" standalone="no"?><svg xmlns="http://www.w3.org/2000/svg" width="400.000" height="400.000" viewBox="0.0 0.0 400.000 400.000" version="1.1">
  <title>Produce by Acme CAD Converter</title>
  <desc>Produce by Acme CAD Converter</desc>
<g id="0" display="visible">
<g><path d="M100.37 0.73L299.63 0.73"
fill="none" stroke="black" stroke-width="12"/>
</g>
<g><path d="M100.37 399.27L299.63 399.27"
fill="none" stroke="black" stroke-width="12"/>
</g>
<g><path d="M100.37 0.73L100.37 399.27"
fill="none" stroke="black" stroke-width="12"/>
</g>
<g><path d="M299.63 0.73L299.63 399.27"
fill="none" stroke="black" stroke-width="12"/>
</g>
<g><path d="M299.63 100.37L349.45 100.37"
fill="none" stroke="black" stroke-width="12"/>
</g>
<g><path d="M100.37 82.82L50.55 82.82"
fill="none" stroke="black" stroke-width="12"/>
</g>
<g><path d="M100.37 232.27L50.55 232.27"
fill="none" stroke="black" stroke-width="12"/>
</g>
<g><path d="M100.37 157.55L50.55 157.55"
fill="none" stroke="black" stroke-width="12"/>
</g>
<g><path d="M100.37 307L50.55 307"
fill="none" stroke="black" stroke-width="12"/>
</g>
<g><path d="M130.98 57.31L142.6 92.18"
fill="none" stroke="black" stroke-width="12"/>
</g>
<g><path d="M142.6 92.18L154.22 57.31"
fill="none" stroke="black" stroke-width="12"/>
</g>
<g><path d="M165.85 76.68L181.35 76.68"
fill="none" stroke="black" stroke-width="12"/>
</g>
<g><path d="M173.6 84.43L173.6 68.93"
fill="none" stroke="black" stroke-width="12"/>
</g>
<g><path d="M129.06 168.33L129.06 133.46"
fill="none" stroke="black" stroke-width="12"/>
</g>
<g><path d="M129.06 145.09L138.75 145.09"
fill="none" stroke="black" stroke-width="12"/>
</g>
<g><path d="M144.56 150.9L142.85 146.8M142.85 146.8L138.75 145.09"
fill="none" stroke="black" stroke-width="12"/>
</g>
<g><path d="M144.56 150.9L144.56 168.33"
fill="none" stroke="black" stroke-width="12"/>
</g>
<g><path d="M171.68 145.09L160.06 179.96"
fill="none" stroke="black" stroke-width="12"/>
</g>
<g><path d="M160.06 179.96L156.18 179.96"
fill="none" stroke="black" stroke-width="12"/>
</g>
<g><path d="M156.18 145.09L163.93 168.33"
fill="none" stroke="black" stroke-width="12"/>
</g>
<g><path d="M183.31 166.4L193.96 168.33"
fill="none" stroke="black" stroke-width="12"/>
</g>
<g><path d="M193.96 168.33L196.99 167.28M196.99 167.28L198.7 164.56M198.7 164.56L198.33 161.37M198.33 161.37L196.05 159.11"
fill="none" stroke="black" stroke-width="12"/>
</g>
<g><path d="M196.05 159.11L186.06 154.31"
fill="none" stroke="black" stroke-width="12"/>
</g>
<g><path d="M188.15 145.09L185.12 146.14M185.12 146.14L183.41 148.86M183.41 148.86L183.78 152.05M183.78 152.05L186.06 154.31"
fill="none" stroke="black" stroke-width="12"/>
</g>
<g><path d="M196.87 147.02L188.15 145.09"
fill="none" stroke="black" stroke-width="12"/>
</g>
<g><path d="M214.31 168.33L214.31 133.46"
fill="none" stroke="black" stroke-width="12"/>
</g>
<g><path d="M210.44 145.09L222.06 145.09"
fill="none" stroke="black" stroke-width="12"/>
</g>
<g><path d="M137.84 221.16L143.65 221.16"
fill="none" stroke="black" stroke-width="12"/>
</g>
<g><path d="M143.65 221.16L143.65 240.53"
fill="none" stroke="black" stroke-width="12"/>
</g>
<g><path d="M143.65 240.53L132.03 240.53"
fill="none" stroke="black" stroke-width="12"/>
</g>
<g><path d="M124.28 232.78L125.33 236.65M125.33 236.65L128.17 239.48M128.17 239.48L132.03 240.53"
fill="none" stroke="black" stroke-width="12"/>
</g>
<g><path d="M124.28 232.78L124.28 213.41"
fill="none" stroke="black" stroke-width="12"/>
</g>
<g><path d="M132.03 205.66L128.17 206.72M128.17 206.72L125.33 209.55M125.33 209.55L124.28 213.41"
fill="none" stroke="black" stroke-width="12"/>
</g>
<g><path d="M132.03 205.66L143.65 205.66"
fill="none" stroke="black" stroke-width="12"/>
</g>
<g><path d="M155.28 240.53L155.28 205.66"
fill="none" stroke="black" stroke-width="12"/>
</g>
<g><path d="M155.28 205.66L174.65 240.53"
fill="none" stroke="black" stroke-width="12"/>
</g>
<g><path d="M174.65 240.53L174.65 205.66"
fill="none" stroke="black" stroke-width="12"/>
</g>
<g><path d="M186.27 240.53L197.9 240.53"
fill="none" stroke="black" stroke-width="12"/>
</g>
<g><path d="M197.9 240.53L201.76 239.48M201.76 239.48L204.59 236.65M204.59 236.65L205.65 232.78"
fill="none" stroke="black" stroke-width="12"/>
</g>
<g><path d="M205.65 232.78L205.65 213.41"
fill="none" stroke="black" stroke-width="12"/>
</g>
<g><path d="M205.65 213.41L204.59 209.55M204.59 209.55L201.76 206.72M201.76 206.72L197.9 205.66"
fill="none" stroke="black" stroke-width="12"/>
</g>
<g><path d="M197.9 205.66L186.27 205.66"
fill="none" stroke="black" stroke-width="12"/>
</g>
<g><path d="M186.27 205.66L186.27 240.53"
fill="none" stroke="black" stroke-width="12"/>
</g>
<g><path d="M116.31 292.87L127.93 327.75"
fill="none" stroke="black" stroke-width="12"/>
</g>
<g><path d="M127.93 327.75L139.56 292.87"
fill="none" stroke="black" stroke-width="12"/>
</g>
<g><path d="M155.05 327.75L155.05 292.87"
fill="none" stroke="black" stroke-width="12"/>
</g>
<g><path d="M151.18 304.5L162.8 304.5"
fill="none" stroke="black" stroke-width="12"/>
</g>
<g><path d="M189.93 327.75L180.24 327.75"
fill="none" stroke="black" stroke-width="12"/>
</g>
<g><path d="M174.43 321.93L176.14 326.03M176.14 326.03L180.24 327.75"
fill="none" stroke="black" stroke-width="12"/>
</g>
<g><path d="M174.43 321.93L174.43 312.25"
fill="none" stroke="black" stroke-width="12"/>
</g>
<g><path d="M189.93 312.25L188.45 307.69M188.45 307.69L184.57 304.88M184.57 304.88L179.78 304.88M179.78 304.88L175.91 307.69M175.91 307.69L174.43 312.25"
fill="none" stroke="black" stroke-width="12"/>
</g>
<g><path d="M189.93 312.25L189.93 316.12"
fill="none" stroke="black" stroke-width="12"/>
</g>
<g><path d="M189.93 316.12L174.43 316.12"
fill="none" stroke="black" stroke-width="12"/>
</g>
<g><path d="M213.17 327.75L213.17 304.5"
fill="none" stroke="black" stroke-width="12"/>
</g>
<g><path d="M201.55 327.75L201.55 304.5"
fill="none" stroke="black" stroke-width="12"/>
</g>
<g><path d="M201.55 304.5L218.99 304.5"
fill="none" stroke="black" stroke-width="12"/>
</g>
<g><path d="M224.8 310.31L223.08 306.21M223.08 306.21L218.99 304.5"
fill="none" stroke="black" stroke-width="12"/>
</g>
<g><path d="M224.8 310.31L224.8 327.75"
fill="none" stroke="black" stroke-width="12"/>
</g>
<g><path d="M236.42 339.37L236.42 304.5"
fill="none" stroke="black" stroke-width="12"/>
</g>
<g><path d="M236.42 304.5L246.11 304.5"
fill="none" stroke="black" stroke-width="12"/>
</g>
<g><path d="M251.92 310.31L250.21 306.21M250.21 306.21L246.11 304.5"
fill="none" stroke="black" stroke-width="12"/>
</g>
<g><path d="M251.92 310.31L251.92 321.93"
fill="none" stroke="black" stroke-width="12"/>
</g>
<g><path d="M246.11 327.75L250.21 326.03M250.21 326.03L251.92 321.93"
fill="none" stroke="black" stroke-width="12"/>
</g>
<g><path d="M246.11 327.75L236.42 327.75"
fill="none" stroke="black" stroke-width="12"/>
</g>
<g><path d="M231.09 103.32L232.94 109.01M232.94 109.01L237.78 112.53M237.78 112.53L243.77 112.53M243.77 112.53L248.61 109.01M248.61 109.01L250.46 103.32"
fill="none" stroke="black" stroke-width="12"/>
</g>
<g><path d="M231.09 103.32L231.09 87.82"
fill="none" stroke="black" stroke-width="12"/>
</g>
<g><path d="M250.46 87.82L248.61 82.12M248.61 82.12L243.77 78.61M243.77 78.61L237.78 78.61M237.78 78.61L232.94 82.12M232.94 82.12L231.09 87.82"
fill="none" stroke="black" stroke-width="12"/>
</g>
<g><path d="M250.46 87.82L250.46 103.32"
fill="none" stroke="black" stroke-width="12"/>
</g>
<g><path d="M262.08 109.13L267.58 112M267.58 112L273.71 113"
fill="none" stroke="black" stroke-width="12"/>
</g>
<g><path d="M273.71 113L278.51 111.35M278.51 111.35L281.25 107.07M281.25 107.07L280.76 102.02M280.76 102.02L277.23 98.36"
fill="none" stroke="black" stroke-width="12"/>
</g>
<g><path d="M277.23 98.36L266.31 92.78"
fill="none" stroke="black" stroke-width="12"/>
</g>
<g><path d="M269.83 78.13L265.03 79.79M265.03 79.79L262.28 84.06M262.28 84.06L262.78 89.12M262.78 89.12L266.31 92.78"
fill="none" stroke="black" stroke-width="12"/>
</g>
<g><path d="M279.52 80.07L269.83 78.13"
fill="none" stroke="black" stroke-width="12"/>
</g>
</g>
</svg>
