<?xml version="1.0" standalone="no"?><svg xmlns="http://www.w3.org/2000/svg" width="400.000" height="400.000" viewBox="0.0 0.0 400.000 400.000" version="1.1">
  <title>Produce by Acme CAD Converter</title>
  <desc>Produce by Acme CAD Converter</desc>
<g id="0" display="visible">
<g><path d="M80.44 80.44L319.56 80.44"
fill="none" stroke="black" stroke-width="3"/>
</g>
<g><path d="M80.44 160.15L0.73 160.15"
fill="none" stroke="black" stroke-width="3"/>
</g>
<g><path d="M80.44 239.85L0.73 239.85"
fill="none" stroke="black" stroke-width="3"/>
</g>
<g><path d="M80.44 319.56L319.56 319.56"
fill="none" stroke="black" stroke-width="3"/>
</g>
<g><path d="M80.44 80.44L80.44 319.56"
fill="none" stroke="black" stroke-width="3"/>
</g>
<g><path d="M160.15 80.44L160.15 319.56"
fill="none" stroke="black" stroke-width="3"/>
</g>
<g><path d="M319.56 80.44L319.56 319.56"
fill="none" stroke="black" stroke-width="3"/>
</g>
<g><path d="M319.56 160.15L399.27 160.15"
fill="none" stroke="black" stroke-width="3"/>
</g>
<g><path d="M64.5 160.15L66.32 152.74M66.32 152.74L71.38 147.03M71.38 147.03L78.52 144.32M78.52 144.32L86.09 145.24M86.09 145.24L92.37 149.58M92.37 149.58L95.92 156.33M95.92 156.33L95.92 163.96M95.92 163.96L92.37 170.72M92.37 170.72L86.09 175.05M86.09 175.05L78.52 175.97M78.52 175.97L71.38 173.27M71.38 173.27L66.32 167.55M66.32 167.55L64.5 160.15"
fill="none" stroke="black" stroke-width="3"/>
</g>
<g><path d="M64.5 239.85L66.32 232.45M66.32 232.45L71.38 226.73M71.38 226.73L78.52 224.03M78.52 224.03L86.09 224.95M86.09 224.95L92.37 229.28M92.37 229.28L95.92 236.04M95.92 236.04L95.92 243.67M95.92 243.67L92.37 250.42M92.37 250.42L86.09 254.76M86.09 254.76L78.52 255.68M78.52 255.68L71.38 252.97M71.38 252.97L66.32 247.26M66.32 247.26L64.5 239.85"
fill="none" stroke="black" stroke-width="3"/>
</g>
<g><path d="M399.27 239.85L319.56 239.85"
fill="none" stroke="black" stroke-width="3"/>
</g>
<g><path d="M303.62 239.85L305.44 232.45M305.44 232.45L310.5 226.73M310.5 226.73L317.64 224.03M317.64 224.03L325.21 224.95M325.21 224.95L331.49 229.28M331.49 229.28L335.04 236.04M335.04 236.04L335.04 243.67M335.04 243.67L331.49 250.42M331.49 250.42L325.21 254.76M325.21 254.76L317.64 255.68M317.64 255.68L310.5 252.97M310.5 252.97L305.44 247.26M305.44 247.26L303.62 239.85"
fill="none" stroke="black" stroke-width="3"/>
</g>
</g>
</svg>
