<?xml version="1.0" standalone="no"?><svg xmlns="http://www.w3.org/2000/svg" width="400.000" height="400.000" viewBox="0.0 0.0 400.000 400.000" version="1.1">
  <title>Produce by Acme CAD Converter</title>
  <desc>Produce by Acme CAD Converter</desc>
<g id="0" display="visible">
<g><path d="M100.37 0.73L299.63 0.73"
fill="none" stroke="black" stroke-width="3"/>
</g>
<g><path d="M100.37 50.55L50.55 50.55"
fill="none" stroke="black" stroke-width="3"/>
</g>
<g><path d="M100.37 100.37L50.55 100.37"
fill="none" stroke="black" stroke-width="3"/>
</g>
<g><path d="M100.37 200L50.55 200"
fill="none" stroke="black" stroke-width="3"/>
</g>
<g><path d="M100.37 299.63L50.55 299.63"
fill="none" stroke="black" stroke-width="3"/>
</g>
<g><path d="M100.37 349.45L50.55 349.45"
fill="none" stroke="black" stroke-width="3"/>
</g>
<g><path d="M100.37 399.27L299.63 399.27"
fill="none" stroke="black" stroke-width="3"/>
</g>
<g><path d="M100.37 0.73L100.37 399.27"
fill="none" stroke="black" stroke-width="3"/>
</g>
<g><path d="M100.37 150.18L175.09 150.18"
fill="none" stroke="black" stroke-width="3"/>
</g>
<g><path d="M175.09 0.73L175.09 399.27"
fill="none" stroke="black" stroke-width="3"/>
</g>
<g><path d="M299.63 0.73L299.63 399.27"
fill="none" stroke="black" stroke-width="3"/>
</g>
<g><path d="M299.63 50.55L349.45 50.55"
fill="none" stroke="black" stroke-width="3"/>
</g>
<g><path d="M175.09 249.82L100.37 249.82"
fill="none" stroke="black" stroke-width="3"/>
</g>
<g><path d="M63 337L87.91 361.9"
fill="none" stroke="black" stroke-width="3"/>
</g>
<g><path d="M63 361.9L87.91 337"
fill="none" stroke="black" stroke-width="3"/>
</g>
<g><path d="M63 287.18L87.91 312.09"
fill="none" stroke="black" stroke-width="3"/>
</g>
<g><path d="M63 312.09L87.91 287.18"
fill="none" stroke="black" stroke-width="3"/>
</g>
<g><path d="M162.64 38.1L187.55 13.19"
fill="none" stroke="black" stroke-width="3"/>
</g>
<g><path d="M299.63 100.37L349.45 100.37"
fill="none" stroke="black" stroke-width="3"/>
</g>
<g><path d="M289.67 100.37L291.57 94.51M291.57 94.51L296.55 90.89M296.55 90.89L302.71 90.89M302.71 90.89L307.69 94.51M307.69 94.51L309.6 100.37M309.6 100.37L307.69 106.22M307.69 106.22L302.71 109.84M302.71 109.84L296.55 109.84M296.55 109.84L291.57 106.22M291.57 106.22L289.67 100.37"
fill="none" stroke="black" stroke-width="3"/>
</g>
<g><path d="M204.98 34.61L222.42 34.61M222.42 34.61L221.72 10.7M221.72 10.7L260.78 10.7M260.78 10.7L260.78 34.61M260.78 34.61L274.73 34.61"
fill="none" stroke="black" stroke-width=".5"/>
</g>
</g>
</svg>
