<?xml version="1.0" standalone="no"?><svg xmlns="http://www.w3.org/2000/svg" width="400.000" height="400.000" viewBox="0.0 0.0 400.000 400.000" version="1.1">
  <title>Produce by Acme CAD Converter</title>
  <desc>Produce by Acme CAD Converter</desc>
<g id="0" display="visible">
<g><path d="M157.3 86.13L128.83 86.13"
fill="none" stroke="black" stroke-width="3"/>
</g>
<g><path d="M157.3 114.6L128.83 114.6"
fill="none" stroke="black" stroke-width="3"/>
</g>
<g><path d="M157.3 0.73L242.7 0.73"
fill="none" stroke="black" stroke-width="3"/>
</g>
<g><path d="M157.3 29.2L128.83 29.2"
fill="none" stroke="black" stroke-width="3"/>
</g>
<g><path d="M157.3 399.27L242.7 399.27"
fill="none" stroke="black" stroke-width="3"/>
</g>
<g><path d="M157.3 0.73L157.3 399.27"
fill="none" stroke="black" stroke-width="3"/>
</g>
<g><path d="M185.77 0.73L185.77 399.27"
fill="none" stroke="black" stroke-width="3"/>
</g>
<g><path d="M242.7 0.73L242.7 399.27"
fill="none" stroke="black" stroke-width="3"/>
</g>
<g><path d="M242.7 29.2L271.17 29.2"
fill="none" stroke="black" stroke-width="3"/>
</g>
<g><path d="M151.61 29.2L153.27 25.17M153.27 25.17L157.3 23.51M157.3 23.51L161.33 25.17M161.33 25.17L162.99 29.2M162.99 29.2L161.33 33.23M161.33 33.23L157.3 34.89M157.3 34.89L153.27 33.23M153.27 33.23L151.61 29.2"
fill="none" stroke="black" stroke-width="3"/>
</g>
<g><path d="M271.17 57.67L242.7 57.67"
fill="none" stroke="black" stroke-width="3"/>
</g>
<g><path d="M237.01 57.67L238.67 53.64M238.67 53.64L242.7 51.97M242.7 51.97L246.73 53.64M246.73 53.64L248.39 57.67M248.39 57.67L246.73 61.69M246.73 61.69L242.7 63.36M242.7 63.36L238.67 61.69M238.67 61.69L237.01 57.67"
fill="none" stroke="black" stroke-width="3"/>
</g>
<g><path d="M128.83 143.07L157.3 143.07"
fill="none" stroke="black" stroke-width="3"/>
</g>
<g><path d="M157.3 200L128.83 200"
fill="none" stroke="black" stroke-width="3"/>
</g>
<g><path d="M157.3 171.53L185.77 171.53"
fill="none" stroke="black" stroke-width="3"/>
</g>
<g><path d="M157.3 228.47L185.77 228.47"
fill="none" stroke="black" stroke-width="3"/>
</g>
<g><path d="M128.83 256.93L157.3 256.93"
fill="none" stroke="black" stroke-width="3"/>
</g>
<g><path d="M128.83 285.4L157.3 285.4"
fill="none" stroke="black" stroke-width="3"/>
</g>
<g><path d="M128.83 313.87L157.3 313.87"
fill="none" stroke="black" stroke-width="3"/>
</g>
<g><path d="M157.3 342.33L185.77 342.33"
fill="none" stroke="black" stroke-width="3"/>
</g>
<g><path d="M128.83 370.8L157.3 370.8"
fill="none" stroke="black" stroke-width="3"/>
</g>
<g><path d="M157.3 57.67L185.77 57.67"
fill="none" stroke="black" stroke-width="3"/>
</g>
</g>
</svg>
