<?xml version="1.0" standalone="no"?><svg xmlns="http://www.w3.org/2000/svg" width="400.000" height="400.000" viewBox="0.0 0.0 400.000 400.000" version="1.1">
  <title>Produce by Acme CAD Converter</title>
  <desc>Produce by Acme CAD Converter</desc>
<g id="0" display="visible">
<g><path d="M137.73 0.73L262.27 0.73"
fill="none" stroke="black" stroke-width="3"/>
</g>
<g><path d="M137.73 25.64L112.82 25.64"
fill="none" stroke="black" stroke-width="3"/>
</g>
<g><path d="M137.73 50.55L112.82 50.55"
fill="none" stroke="black" stroke-width="3"/>
</g>
<g><path d="M137.73 75.46L112.82 75.46"
fill="none" stroke="black" stroke-width="3"/>
</g>
<g><path d="M137.73 150.18L112.82 150.18"
fill="none" stroke="black" stroke-width="3"/>
</g>
<g><path d="M137.73 175.09L112.82 175.09"
fill="none" stroke="black" stroke-width="3"/>
</g>
<g><path d="M137.73 200L112.82 200"
fill="none" stroke="black" stroke-width="3"/>
</g>
<g><path d="M137.73 399.27L262.27 399.27"
fill="none" stroke="black" stroke-width="3"/>
</g>
<g><path d="M137.73 0.73L137.73 399.27"
fill="none" stroke="black" stroke-width="3"/>
</g>
<g><path d="M137.73 100.37L174.47 100.37"
fill="none" stroke="black" stroke-width="3"/>
</g>
<g><path d="M174.47 0.73L174.47 399.27"
fill="none" stroke="black" stroke-width="3"/>
</g>
<g><path d="M262.27 0.73L262.27 399.27"
fill="none" stroke="black" stroke-width="3"/>
</g>
<g><path d="M262.27 25.64L287.18 25.64"
fill="none" stroke="black" stroke-width="3"/>
</g>
<g><path d="M224.91 0.73L224.91 399.27"
fill="none" stroke="black" stroke-width="3"/>
</g>
<g><path d="M112.82 224.91L137.73 224.91"
fill="none" stroke="black" stroke-width="3"/>
</g>
<g><path d="M137.73 299.63L112.82 299.63"
fill="none" stroke="black" stroke-width="3"/>
</g>
<g><path d="M137.73 324.54L112.82 324.54"
fill="none" stroke="black" stroke-width="3"/>
</g>
<g><path d="M137.73 349.45L112.82 349.45"
fill="none" stroke="black" stroke-width="3"/>
</g>
<g><path d="M137.73 374.36L112.82 374.36"
fill="none" stroke="black" stroke-width="3"/>
</g>
<g><path d="M137.73 249.82L174.47 249.82"
fill="none" stroke="black" stroke-width="3"/>
</g>
<g><path d="M262.27 50.55L287.18 50.55"
fill="none" stroke="black" stroke-width="3"/>
</g>
<g><path d="M262.27 75.46L287.18 75.46"
fill="none" stroke="black" stroke-width="3"/>
</g>
</g>
</svg>
