<?xml version="1.0" standalone="no"?><svg xmlns="http://www.w3.org/2000/svg" width="400.000" height="400.000" viewBox="0.0 0.0 400.000 400.000" version="1.1">
  <title>Produce by Acme CAD Converter</title>
  <desc>Produce by Acme CAD Converter</desc>
<g id="0" display="visible">
<g><path d="M100.37 50.55L299.63 50.55"
fill="none" stroke="black" stroke-width="12"/>
</g>
<g><path d="M100.37 349.45L299.63 349.45"
fill="none" stroke="black" stroke-width="12"/>
</g>
<g><path d="M299.63 50.55L299.63 349.45"
fill="none" stroke="black" stroke-width="12"/>
</g>
<g><path d="M100.37 349.45L100.37 50.55"
fill="none" stroke="black" stroke-width="12"/>
</g>
<g><path d="M0.73 150.18L100.37 150.18"
fill="none" stroke="black" stroke-width="12"/>
</g>
<g><path d="M100.37 249.82L0.73 249.82"
fill="none" stroke="black" stroke-width="12"/>
</g>
<g><path d="M299.63 200L399.27 200"
fill="none" stroke="black" stroke-width="12"/>
</g>
<g><path d="M279.71 200L281.68 191.35M281.68 191.35L287.21 184.42M287.21 184.42L295.2 180.57M295.2 180.57L304.07 180.57M304.07 180.57L312.06 184.42M312.06 184.42L317.59 191.35M317.59 191.35L319.56 200M319.56 200L317.59 208.65M317.59 208.65L312.06 215.58M312.06 215.58L304.07 219.43M304.07 219.43L295.2 219.43M295.2 219.43L287.21 215.58M287.21 215.58L281.68 208.65M281.68 208.65L279.71 200"
fill="none" stroke="black" stroke-width="12"/>
</g>
<g><path d="M173.43 160.15L145.1 115.68"
fill="none" stroke="black" stroke-width="12"/>
</g>
<g><path d="M161.7 115.99L163.47 110.22M163.47 110.22L161.57 104.48M161.57 104.48L156.7 100.89M156.7 100.89L150.66 100.78M150.66 100.78L145.67 104.18M145.67 104.18L143.55 109.84M143.55 109.84L145.1 115.68"
fill="none" stroke="black" stroke-width="12"/>
</g>
<g><path d="M161.7 115.99L141.99 144.52"
fill="none" stroke="black" stroke-width="12"/>
</g>
<g><path d="M141.99 144.52L140.23 149.78M140.23 149.78L141.55 155.16M141.55 155.16L145.55 159M145.55 159L150.98 160.12M150.98 160.12L156.16 158.15"
fill="none" stroke="black" stroke-width="12"/>
</g>
<g><path d="M156.16 158.15L180.07 140.22"
fill="none" stroke="black" stroke-width="12"/>
</g>
</g>
</svg>
