<?xml version="1.0" standalone="no"?><svg xmlns="http://www.w3.org/2000/svg" width="400.000" height="400.000" viewBox="0.0 0.0 400.000 400.000" version="1.1">
  <title>Produce by Acme CAD Converter</title>
  <desc>Produce by Acme CAD Converter</desc>
<g id="0" display="visible">
<g><path d="M100.37 100.37L299.63 100.37"
fill="none" stroke="black" stroke-width="12"/>
</g>
<g><path d="M100.37 299.63L299.63 299.63"
fill="none" stroke="black" stroke-width="12"/>
</g>
<g><path d="M299.63 100.37L299.63 299.63"
fill="none" stroke="black" stroke-width="12"/>
</g>
<g><path d="M100.37 299.63L100.37 100.37"
fill="none" stroke="black" stroke-width="12"/>
</g>
<g><path d="M0.73 200L100.37 200"
fill="none" stroke="black" stroke-width="12"/>
</g>
<g><path d="M299.63 200L399.27 200"
fill="none" stroke="black" stroke-width="12"/>
</g>
<g><path d="M279.71 200L281.68 191.35M281.68 191.35L287.21 184.42M287.21 184.42L295.2 180.57M295.2 180.57L304.07 180.57M304.07 180.57L312.06 184.42M312.06 184.42L317.59 191.35M317.59 191.35L319.56 200M319.56 200L317.59 208.65M317.59 208.65L312.06 215.58M312.06 215.58L304.07 219.43M304.07 219.43L295.2 219.43M295.2 219.43L287.21 215.58M287.21 215.58L281.68 208.65M281.68 208.65L279.71 200"
fill="none" stroke="black" stroke-width="12"/>
</g>
</g>
</svg>
