<?xml version="1.0" standalone="no"?><svg xmlns="http://www.w3.org/2000/svg" width="400.000" height="400.000" viewBox="0.0 0.0 400.000 400.000" version="1.1">
  <title>Produce by Acme CAD Converter</title>
  <desc>Produce by Acme CAD Converter</desc>
<g id="0" display="visible">
<g><path d="M100.37 50.55L299.63 50.55"
fill="none" stroke="black" stroke-width="3"/>
</g>
<g><path d="M100.37 349.45L299.63 349.45"
fill="none" stroke="black" stroke-width="3"/>
</g>
<g><path d="M299.63 50.55L299.63 349.45"
fill="none" stroke="black" stroke-width="3"/>
</g>
<g><path d="M100.37 349.45L100.37 50.55"
fill="none" stroke="black" stroke-width="3"/>
</g>
<g><path d="M0.73 150.18L100.37 150.18"
fill="none" stroke="black" stroke-width="3"/>
</g>
<g><path d="M299.63 150.18L399.27 150.18"
fill="none" stroke="black" stroke-width="3"/>
</g>
<g><path d="M279.71 150.18L281.68 141.54M281.68 141.54L287.21 134.6M287.21 134.6L295.2 130.76M295.2 130.76L304.07 130.76M304.07 130.76L312.06 134.6M312.06 134.6L317.59 141.54M317.59 141.54L319.56 150.18M319.56 150.18L317.59 158.83M317.59 158.83L312.06 165.76M312.06 165.76L304.07 169.61M304.07 169.61L295.2 169.61M295.2 169.61L287.21 165.76M287.21 165.76L281.68 158.83M281.68 158.83L279.71 150.18"
fill="none" stroke="black" stroke-width="3"/>
</g>
<g><path d="M100.37 249.82L0.73 249.82"
fill="none" stroke="black" stroke-width="3"/>
</g>
</g>
</svg>
