<?xml version="1.0" standalone="no"?><svg xmlns="http://www.w3.org/2000/svg" width="400.000" height="400.000" viewBox="0.0 0.0 400.000 400.000" version="1.1">
  <title>Produce by Acme CAD Converter</title>
  <desc>Produce by Acme CAD Converter</desc>
<g id="0" display="visible">
<g><path d="M80.44 80.44L319.56 80.44"
fill="none" stroke="black" stroke-width="3"/>
</g>
<g><path d="M80.44 160.15L0.73 160.15"
fill="none" stroke="black" stroke-width="3"/>
</g>
<g><path d="M80.44 319.56L319.56 319.56"
fill="none" stroke="black" stroke-width="3"/>
</g>
<g><path d="M80.44 80.44L80.44 319.56"
fill="none" stroke="black" stroke-width="3"/>
</g>
<g><path d="M237.86 80.44L237.86 319.56"
fill="none" stroke="black" stroke-width="3"/>
</g>
<g><path d="M319.56 80.44L319.56 319.56"
fill="none" stroke="black" stroke-width="3"/>
</g>
<g><path d="M319.56 160.15L399.27 160.15"
fill="none" stroke="black" stroke-width="3"/>
</g>
<g><path d="M399.27 239.85L319.56 239.85"
fill="none" stroke="black" stroke-width="3"/>
</g>
<g><path d="M303.62 160.15L305.44 152.74M305.44 152.74L310.5 147.03M310.5 147.03L317.64 144.32M317.64 144.32L325.21 145.24M325.21 145.24L331.49 149.58M331.49 149.58L335.04 156.33M335.04 156.33L335.04 163.96M335.04 163.96L331.49 170.72M331.49 170.72L325.21 175.05M325.21 175.05L317.64 175.97M317.64 175.97L310.5 173.27M310.5 173.27L305.44 167.55M305.44 167.55L303.62 160.15"
fill="none" stroke="black" stroke-width="3"/>
</g>
<g><path d="M106.2 106.2L134.38 134.38"
fill="none" stroke="black" stroke-width="3"/>
</g>
<g><path d="M134.38 106.2L106.2 134.38"
fill="none" stroke="black" stroke-width="3"/>
</g>
<g><path d="M140.22 121.09L100.37 121.09"
fill="none" stroke="black" stroke-width="3"/>
</g>
<g><path d="M119.5 140.22L119.5 100.37"
fill="none" stroke="black" stroke-width="3"/>
</g>
</g>
</svg>
