<?xml version="1.0" standalone="no"?><svg xmlns="http://www.w3.org/2000/svg" width="400.000" height="400.000" viewBox="0.0 0.0 400.000 400.000" version="1.1">
  <title>Produce by Acme CAD Converter</title>
  <desc>Produce by Acme CAD Converter</desc>
<g id="0" display="visible">
<g><path d="M80.44 80.44L80.44 319.56"
fill="none" stroke="black" stroke-width="3"/>
</g>
<g><path d="M319.56 80.44L319.56 319.56"
fill="none" stroke="black" stroke-width="3"/>
</g>
<g><path d="M319.56 160.15L399.27 160.15"
fill="none" stroke="black" stroke-width="3"/>
</g>
<g><path d="M239.85 80.44L239.85 319.56"
fill="none" stroke="black" stroke-width="3"/>
</g>
<g><path d="M145.8 104.35L145.8 136.23"
fill="none" stroke="black" stroke-width="3"/>
</g>
<g><path d="M145.8 104.35L174.49 120.29"
fill="none" stroke="black" stroke-width="3"/>
</g>
<g><path d="M145.8 136.23L174.49 120.29"
fill="none" stroke="black" stroke-width="3"/>
</g>
<g><path d="M319.56 80.44L80.44 80.44"
fill="none" stroke="black" stroke-width="3"/>
</g>
<g><path d="M319.56 319.56L80.44 319.56"
fill="none" stroke="black" stroke-width="3"/>
</g>
<g><path d="M319.56 239.85L399.27 239.85"
fill="none" stroke="black" stroke-width="3"/>
</g>
<g><path d="M0.73 160.15L80.44 160.15"
fill="none" stroke="black" stroke-width="3"/>
</g>
<g><path d="M303.62 239.85L305.44 232.45M305.44 232.45L310.5 226.73M310.5 226.73L317.64 224.03M317.64 224.03L325.21 224.95M325.21 224.95L331.49 229.28M331.49 229.28L335.04 236.04M335.04 236.04L335.04 243.67M335.04 243.67L331.49 250.42M331.49 250.42L325.21 254.76M325.21 254.76L317.64 255.68M317.64 255.68L310.5 252.97M310.5 252.97L305.44 247.26M305.44 247.26L303.62 239.85"
fill="none" stroke="black" stroke-width="3"/>
</g>
</g>
</svg>
