<?xml version="1.0" standalone="no"?><svg xmlns="http://www.w3.org/2000/svg" width="400.000" height="400.000" viewBox="0.0 0.0 400.000 400.000" version="1.1">
  <title>Produce by Acme CAD Converter</title>
  <desc>Produce by Acme CAD Converter</desc>
<g id="0" display="visible">
<g><path d="M100.37 50.55L299.63 50.55"
fill="none" stroke="black" stroke-width="3"/>
</g>
<g><path d="M100.37 349.45L299.63 349.45"
fill="none" stroke="black" stroke-width="3"/>
</g>
<g><path d="M299.63 50.55L299.63 349.45"
fill="none" stroke="black" stroke-width="3"/>
</g>
<g><path d="M100.37 349.45L100.37 50.55"
fill="none" stroke="black" stroke-width="3"/>
</g>
<g><path d="M0.73 150.18L100.37 150.18"
fill="none" stroke="black" stroke-width="3"/>
</g>
<g><path d="M299.63 150.18L399.27 150.18"
fill="none" stroke="black" stroke-width="3"/>
</g>
<g><path d="M0.73 249.82L100.37 249.82"
fill="none" stroke="black" stroke-width="3"/>
</g>
<g><path d="M164.13 82.43L164.13 122.29"
fill="none" stroke="black" stroke-width="3"/>
</g>
<g><path d="M164.13 82.43L200 102.36"
fill="none" stroke="black" stroke-width="3"/>
</g>
<g><path d="M164.13 122.29L200 102.36"
fill="none" stroke="black" stroke-width="3"/>
</g>
<g><path d="M80.44 150.18L82.41 141.54M82.41 141.54L87.94 134.6M87.94 134.6L95.93 130.76M95.93 130.76L104.8 130.76M104.8 130.76L112.79 134.6M112.79 134.6L118.32 141.54M118.32 141.54L120.29 150.18M120.29 150.18L118.32 158.83M118.32 158.83L112.79 165.76M112.79 165.76L104.8 169.61M104.8 169.61L95.93 169.61M95.93 169.61L87.94 165.76M87.94 165.76L82.41 158.83M82.41 158.83L80.44 150.18"
fill="none" stroke="black" stroke-width="3"/>
</g>
</g>
</svg>
