<?xml version="1.0" standalone="no"?><svg xmlns="http://www.w3.org/2000/svg" width="400.000" height="400.000" viewBox="0.0 0.0 400.000 400.000" version="1.1">
  <title>Produce by Acme CAD Converter</title>
  <desc>Produce by Acme CAD Converter</desc>
<g id="0" display="visible">
<g><path d="M62.73 115.84L0.73 115.84"
fill="none" stroke="black" stroke-width="12"/>
</g>
<g><path d="M62.73 56.8L62.73 352.01"
fill="none" stroke="black" stroke-width="12"/>
</g>
<g><path d="M62.73 352.01L313.66 204.41"
fill="none" stroke="black" stroke-width="12"/>
</g>
<g><path d="M313.66 204.41L62.73 56.8"
fill="none" stroke="black" stroke-width="12"/>
</g>
<g><path d="M47.67 292.97L49.4 285.97M49.4 285.97L54.18 280.58M54.18 280.58L60.91 278.03M60.91 278.03L68.07 278.89M68.07 278.89L73.99 282.99M73.99 282.99L77.34 289.37M77.34 289.37L77.34 296.57M77.34 296.57L73.99 302.95M73.99 302.95L68.07 307.04M68.07 307.04L60.91 307.91M60.91 307.91L54.18 305.36M54.18 305.36L49.4 299.96M49.4 299.96L47.67 292.97"
fill="none" stroke="black" stroke-width="12"/>
</g>
<g><path d="M62.73 292.97L0.73 292.97"
fill="none" stroke="black" stroke-width="12"/>
</g>
<g><path d="M313.66 204.41L399.27 204.41"
fill="none" stroke="black" stroke-width="12"/>
</g>
<g><path d="M178.08 284.16L177.98 352.01"
fill="none" stroke="black" stroke-width="12"/>
</g>
<g><path d="M178.08 47.99L177.98 123.57"
fill="none" stroke="black" stroke-width="12"/>
</g>
</g>
</svg>
