<?xml version="1.0" standalone="no"?><svg xmlns="http://www.w3.org/2000/svg" width="400.000" height="400.000" viewBox="0.0 0.0 400.000 400.000" version="1.1">
  <title>Produce by Acme CAD Converter</title>
  <desc>Produce by Acme CAD Converter</desc>
<g id="0" display="visible">
<g><path d="M329.8 140.46L399.27 140.46"
fill="none" stroke="black" stroke-width="12"/>
</g>
<g><path d="M0.73 140.46L91.63 140.46"
fill="none" stroke="black" stroke-width="12"/>
</g>
<g><path d="M329.8 259.54L91.63 259.54"
fill="none" stroke="black" stroke-width="12"/>
</g>
<g><path d="M91.63 259.54L91.63 21.37"
fill="none" stroke="black" stroke-width="12"/>
</g>
<g><path d="M91.63 21.37L329.8 21.37"
fill="none" stroke="black" stroke-width="12"/>
</g>
<g><path d="M329.8 21.37L329.8 259.54"
fill="none" stroke="black" stroke-width="12"/>
</g>
<g><path d="M210.72 259.54L210.72 378.63"
fill="none" stroke="black" stroke-width="12"/>
</g>
<g><path d="M224.72 107.38L220.94 109.27M220.94 109.27L217.16 113.05M217.16 113.05L215.27 118.72M215.27 118.72L215.27 122.5M215.27 122.5L217.16 128.17M217.16 128.17L220.94 131.95M220.94 131.95L224.72 133.84M224.72 133.84L230.39 133.84M230.39 133.84L234.18 131.95M234.18 131.95L237.96 128.17M237.96 128.17L239.85 122.5M239.85 122.5L239.85 118.72M239.85 118.72L237.96 113.05M237.96 113.05L234.18 109.27M234.18 109.27L230.39 107.38M230.39 107.38L224.72 107.38M251.19 107.38L251.19 126.28M251.19 126.28L253.08 131.95M253.08 131.95L256.86 133.84M256.86 133.84L262.53 133.84M262.53 133.84L266.31 131.95M266.31 131.95L271.98 126.28M271.98 107.38L271.98 133.84M292.77 94.15L292.77 126.28M292.77 126.28L294.66 131.95M294.66 131.95L298.44 133.84M298.44 133.84L302.22 133.84M287.1 107.38L300.33 107.38"
fill="none" stroke="black" stroke-width="6"/>
</g>
<g><path d="M121.71 96.04L123.6 97.93M123.6 97.93L125.49 96.04M125.49 96.04L123.6 94.15M123.6 94.15L121.71 96.04M123.6 107.38L123.6 133.84M136.83 133.84L136.83 107.38M136.83 114.94L142.5 109.27M142.5 109.27L146.28 107.38M146.28 107.38L151.95 107.38M151.95 107.38L155.73 109.27M155.73 109.27L157.62 114.94M157.62 114.94L157.62 133.84"
fill="none" stroke="black" stroke-width="6"/>
</g>
<g><path d="M173.69 182.99L171.8 179.21M171.8 179.21L168.02 175.43M168.02 175.43L164.24 173.54M164.24 173.54L156.68 173.54M156.68 173.54L152.9 175.43M152.9 175.43L149.12 179.21M149.12 179.21L147.23 182.99M147.23 182.99L145.33 188.66M145.33 188.66L145.33 198.11M145.33 198.11L147.23 203.78M147.23 203.78L149.12 207.56M149.12 207.56L152.9 211.34M152.9 211.34L156.68 213.23M156.68 213.23L164.24 213.23M164.24 213.23L168.02 211.34M168.02 211.34L171.8 207.56M171.8 207.56L173.69 203.78M173.69 203.78L173.69 198.11M173.69 198.11L164.24 198.11M185.03 213.23L185.03 173.54M185.03 173.54L211.49 213.23M211.49 213.23L211.49 173.54M226.61 213.23L226.61 173.54M226.61 173.54L239.85 173.54M239.85 173.54L245.52 175.43M245.52 175.43L249.3 179.21M249.3 179.21L251.19 182.99M251.19 182.99L253.08 188.66M253.08 188.66L253.08 198.11M253.08 198.11L251.19 203.78M251.19 203.78L249.3 207.56M249.3 207.56L245.52 211.34M245.52 211.34L239.85 213.23M239.85 213.23L226.61 213.23"
fill="none" stroke="black" stroke-width="6"/>
</g>
</g>
</svg>
