<?xml version="1.0" standalone="no"?><svg xmlns="http://www.w3.org/2000/svg" width="400.000" height="400.000" viewBox="0.0 0.0 400.000 400.000" version="1.1">
  <title>Produce by Acme CAD Converter</title>
  <desc>Produce by Acme CAD Converter</desc>
<g id="0" display="visible">
<g><path d="M283.13 89.36L283.13 83.07 283.04 83.15 283.13 89.36Z"
fill-rule="evenodd" fill="black"/>
<path d="M283.13 89.36L287.84 92.96 283.13 83.07 283.13 89.36Z"
fill-rule="evenodd" fill="black"/>
<path d="M287.84 92.96L287.84 79.23 283.13 83.07 287.84 92.96Z"
fill-rule="evenodd" fill="black"/>
<path d="M287.84 92.96L288.06 93.13 287.84 79.23 287.84 92.96Z"
fill-rule="evenodd" fill="black"/>
<path d="M288.06 93.13L288.06 79.28 287.84 79.23 288.06 93.13Z"
fill-rule="evenodd" fill="black"/>
<path d="M288.06 93.13L293.9 91.64 288.06 79.28 288.06 93.13Z"
fill-rule="evenodd" fill="black"/>
<path d="M293.9 91.64L293.9 80.57 288.06 79.28 293.9 91.64Z"
fill-rule="evenodd" fill="black"/>
<path d="M293.9 91.64L294.08 91.6 293.9 80.57 293.9 91.64Z"
fill-rule="evenodd" fill="black"/>
<path d="M294.08 91.6L294.08 80.93 293.9 80.57 294.08 91.6Z"
fill-rule="evenodd" fill="black"/>
<path d="M294.08 91.6L296.61 86.16 294.08 80.93 294.08 91.6Z"
fill-rule="evenodd" fill="black"/>
</g>
<g><path d="M147.12 14.97L242.03 14.97"
fill="none" stroke="black" stroke-width="12"/>
</g>
<g><path d="M147.12 157.34L242.03 157.34"
fill="none" stroke="black" stroke-width="12"/>
</g>
<g><path d="M242.03 14.97L242.03 157.34"
fill="none" stroke="black" stroke-width="12"/>
</g>
<g><path d="M147.12 157.34L147.12 14.97"
fill="none" stroke="black" stroke-width="12"/>
</g>
<g><path d="M99.66 62.43L147.12 62.43"
fill="none" stroke="black" stroke-width="12"/>
</g>
<g><path d="M147.12 109.88L99.66 109.88"
fill="none" stroke="black" stroke-width="12"/>
</g>
<g><path d="M242.03 86.16L289.49 86.16"
fill="none" stroke="black" stroke-width="12"/>
</g>
<g><path d="M232.54 86.16L234.35 80.58M234.35 80.58L239.1 77.13M239.1 77.13L244.97 77.13M244.97 77.13L249.71 80.58M249.71 80.58L251.52 86.16M251.52 86.16L249.71 91.74M249.71 91.74L244.97 95.18M244.97 95.18L239.1 95.18M239.1 95.18L234.35 91.74M234.35 91.74L232.54 86.16"
fill="none" stroke="black" stroke-width="12"/>
</g>
<g><path d="M147.12 252.26L242.03 252.26"
fill="none" stroke="black" stroke-width="12"/>
</g>
<g><path d="M147.12 394.63L242.03 394.63"
fill="none" stroke="black" stroke-width="12"/>
</g>
<g><path d="M242.03 252.26L242.03 394.63"
fill="none" stroke="black" stroke-width="12"/>
</g>
<g><path d="M147.12 394.63L147.12 252.26"
fill="none" stroke="black" stroke-width="12"/>
</g>
<g><path d="M99.66 299.71L147.12 299.71"
fill="none" stroke="black" stroke-width="12"/>
</g>
<g><path d="M147.12 347.17L99.66 347.17"
fill="none" stroke="black" stroke-width="12"/>
</g>
<g><path d="M242.03 323.44L289.49 323.44"
fill="none" stroke="black" stroke-width="12"/>
</g>
<g><path d="M232.54 323.44L234.35 317.86M234.35 317.86L239.1 314.41M239.1 314.41L244.97 314.41M244.97 314.41L249.71 317.86M249.71 317.86L251.52 323.44M251.52 323.44L249.71 329.02M249.71 329.02L244.97 332.47M244.97 332.47L239.1 332.47M239.1 332.47L234.35 329.02M234.35 329.02L232.54 323.44"
fill="none" stroke="black" stroke-width="12"/>
</g>
<g><path d="M99.66 109.88L99.66 176.32"
fill="none" stroke="black" stroke-width="12"/>
</g>
<g><path d="M99.66 176.32L289.49 233.27"
fill="none" stroke="black" stroke-width="12"/>
</g>
<g><path d="M289.49 233.27L289.49 323.44"
fill="none" stroke="black" stroke-width="12"/>
</g>
<g><path d="M99.66 299.71L99.66 233.27"
fill="none" stroke="black" stroke-width="12"/>
</g>
<g><path d="M99.66 233.27L289.49 176.32"
fill="none" stroke="black" stroke-width="12"/>
</g>
<g><path d="M289.49 176.32L289.49 86.16"
fill="none" stroke="black" stroke-width="12"/>
</g>
<g><path d="M282.37 86.16L284.04 81.58M284.04 81.58L288.25 79.15M288.25 79.15L293.05 79.99M293.05 79.99L296.18 83.72M296.18 83.72L296.18 88.59M296.18 88.59L293.05 92.32M293.05 92.32L288.25 93.17M288.25 93.17L284.04 90.73M284.04 90.73L282.37 86.16"
fill="none" stroke="black" stroke-width="12"/>
</g>
<g><path d="M181.92 67.17L168.43 45.99"
fill="none" stroke="black" stroke-width="12"/>
</g>
<g><path d="M176.33 46.14L177.14 42.9M177.14 42.9L175.62 39.93M175.62 39.93L172.52 38.7M172.52 38.7L169.37 39.82M169.37 39.82L167.74 42.73M167.74 42.73L168.43 45.99"
fill="none" stroke="black" stroke-width="12"/>
</g>
<g><path d="M176.33 46.14L166.94 59.73"
fill="none" stroke="black" stroke-width="12"/>
</g>
<g><path d="M166.94 59.73L166.13 62.9M166.13 62.9L167.56 65.85M167.56 65.85L170.56 67.16M170.56 67.16L173.7 66.22"
fill="none" stroke="black" stroke-width="12"/>
</g>
<g><path d="M173.7 66.22L185.08 57.68"
fill="none" stroke="black" stroke-width="12"/>
</g>
<g><path d="M181.92 304.46L168.43 283.28"
fill="none" stroke="black" stroke-width="12"/>
</g>
<g><path d="M176.33 283.43L177.14 280.19M177.14 280.19L175.62 277.22M175.62 277.22L172.52 275.99M172.52 275.99L169.37 277.1M169.37 277.1L167.74 280.01M167.74 280.01L168.43 283.28"
fill="none" stroke="black" stroke-width="12"/>
</g>
<g><path d="M176.33 283.43L166.94 297.01"
fill="none" stroke="black" stroke-width="12"/>
</g>
<g><path d="M166.94 297.01L166.13 300.19M166.13 300.19L167.56 303.13M167.56 303.13L170.56 304.45M170.56 304.45L173.7 303.51"
fill="none" stroke="black" stroke-width="12"/>
</g>
<g><path d="M173.7 303.51L185.08 294.97"
fill="none" stroke="black" stroke-width="12"/>
</g>
<g><path d="M102.26 399.27L102.26 370.79M102.26 370.79L114.46 370.79M114.46 370.79L118.53 372.15M118.53 372.15L119.89 373.5M119.89 373.5L121.24 376.22M121.24 376.22L121.24 378.93M121.24 378.93L119.89 381.64M119.89 381.64L118.53 383M118.53 383L114.46 384.35M114.46 384.35L102.26 384.35M111.75 384.35L121.24 399.27"
fill="none" stroke="black" stroke-width="12"/>
</g>
<g><path d="M121.24 12.33L118.53 9.62M118.53 9.62L114.46 8.27M114.46 8.27L109.04 8.27M109.04 8.27L104.97 9.62M104.97 9.62L102.26 12.33M102.26 12.33L102.26 15.05M102.26 15.05L103.61 17.76M103.61 17.76L104.97 19.11M104.97 19.11L107.68 20.47M107.68 20.47L115.82 23.18M115.82 23.18L118.53 24.54M118.53 24.54L119.89 25.89M119.89 25.89L121.24 28.6M121.24 28.6L121.24 32.67M121.24 32.67L118.53 35.38M118.53 35.38L114.46 36.74M114.46 36.74L109.04 36.74M109.04 36.74L104.97 35.38M104.97 35.38L102.26 32.67"
fill="none" stroke="black" stroke-width="12"/>
</g>
<g><path d="M99.66 0.73L118.64 0.73"
fill="none" stroke="black" stroke-width="12"/>
</g>
<g><path d="M99.66 361.41L118.64 361.41"
fill="none" stroke="black" stroke-width="12"/>
</g>
<g><path d="M286.78 19.72L284.07 21.07M284.07 21.07L281.36 23.78M281.36 23.78L280 26.5M280 26.5L278.64 30.56M278.64 30.56L278.64 37.34M278.64 37.34L280 41.41M280 41.41L281.36 44.12M281.36 44.12L284.07 46.83M284.07 46.83L286.78 48.19M286.78 48.19L292.2 48.19M292.2 48.19L294.91 46.83M294.91 46.83L297.63 44.12M297.63 44.12L298.98 41.41M298.98 41.41L300.34 37.34M300.34 37.34L300.34 30.56M300.34 30.56L298.98 26.5M298.98 26.5L297.63 23.78M297.63 23.78L294.91 21.07M294.91 21.07L292.2 19.72M292.2 19.72L286.78 19.72M290.85 42.77L298.98 50.9"
fill="none" stroke="black" stroke-width="12"/>
</g>
</g>
</svg>
