<?xml version="1.0" standalone="no"?><svg xmlns="http://www.w3.org/2000/svg" width="400.000" height="400.000" viewBox="0.0 0.0 400.000 400.000" version="1.1">
  <title>Produce by Acme CAD Converter</title>
  <desc>Produce by Acme CAD Converter</desc>
<g id="0" display="visible">
<g><path d="M200 299.63L200 160.15"
fill="none" stroke="black" stroke-width="12"/>
</g>
<g><path d="M359.39 219.95L336.47 202.23M336.47 202.23L311.59 187.37M311.59 187.37L285.12 175.59M285.12 175.59L257.43 167.05M257.43 167.05L228.92 161.88M228.92 161.88L200 160.15M200 160.15L171.08 161.88M171.08 161.88L142.57 167.05M142.57 167.05L114.88 175.59M114.88 175.59L88.41 187.37M88.41 187.37L63.53 202.23M63.53 202.23L40.61 219.95"
fill="none" stroke="black" stroke-width="12"/>
</g>
<g><path d="M399.27 100.37L0.73 100.37"
fill="none" stroke="black" stroke-width="12"/>
</g>
<g><path d="M0.73 100.37L0.73 100.37"
fill="none" stroke="black" stroke-width=".5"/>
</g>
</g>
</svg>
