<?xml version="1.0" standalone="no"?><svg xmlns="http://www.w3.org/2000/svg" width="400.000" height="400.000" viewBox="0.0 0.0 400.000 400.000" version="1.1">
  <title>Produce by Acme CAD Converter</title>
  <desc>Produce by Acme CAD Converter</desc>
<g id="0" display="visible">
<g><path d="M399.27 374.36L397.41 347.22M397.41 347.22L391.88 320.6M391.88 320.6L382.77 294.97M382.77 294.97L370.26 270.82M370.26 270.82L354.57 248.6M354.57 248.6L336.01 228.73M336.01 228.73L314.91 211.56M314.91 211.56L291.68 197.43M291.68 197.43L266.73 186.6M266.73 186.6L240.54 179.26M240.54 179.26L213.6 175.56M213.6 175.56L186.4 175.56M186.4 175.56L159.46 179.26M159.46 179.26L133.27 186.6M133.27 186.6L108.32 197.43M108.32 197.43L85.09 211.56M85.09 211.56L63.99 228.73M63.99 228.73L45.43 248.6M45.43 248.6L29.74 270.82M29.74 270.82L17.23 294.97M17.23 294.97L8.12 320.6M8.12 320.6L2.59 347.22M2.59 347.22L0.73 374.36"
fill="none" stroke="black" stroke-width="12"/>
</g>
<g><path d="M175.09 374.36L224.91 374.36"
fill="none" stroke="black" stroke-width="12"/>
</g>
<g><path d="M274.73 324.54L125.27 324.54"
fill="none" stroke="black" stroke-width="12"/>
</g>
<g><path d="M75.46 274.73L324.54 274.73"
fill="none" stroke="black" stroke-width="12"/>
</g>
<g><path d="M200 274.73L200 25.64"
fill="none" stroke="black" stroke-width="12"/>
</g>
</g>
</svg>
