<?xml version="1.0" standalone="no"?><svg xmlns="http://www.w3.org/2000/svg" width="400.000" height="400.000" viewBox="0.0 0.0 400.000 400.000" version="1.1">
  <title>Produce by Acme CAD Converter</title>
  <desc>Produce by Acme CAD Converter</desc>
<g id="0" display="visible">
<g><path d="M200 200L190.02 176.57M190.02 176.57L178.68 155.77M178.68 155.77L166.14 137.93M166.14 137.93L152.59 123.33M152.59 123.33L138.25 112.17M138.25 112.17L123.33 104.64M123.33 104.64L108.06 100.84M108.06 100.84L92.67 100.84M92.67 100.84L77.4 104.64M77.4 104.64L62.48 112.17M62.48 112.17L48.14 123.33M48.14 123.33L34.59 137.93M34.59 137.93L22.05 155.77M22.05 155.77L10.71 176.57M10.71 176.57L0.73 200"
fill="none" stroke="black" stroke-width="9"/>
</g>
<g><path d="M200 200L209.98 223.43M209.98 223.43L221.32 244.23M221.32 244.23L233.86 262.07M233.86 262.07L247.41 276.67M247.41 276.67L261.75 287.83M261.75 287.83L276.67 295.36M276.67 295.36L291.94 299.16M291.94 299.16L307.33 299.16M307.33 299.16L322.6 295.36M322.6 295.36L337.52 287.83M337.52 287.83L351.86 276.67M351.86 276.67L365.41 262.07M365.41 262.07L377.95 244.23M377.95 244.23L389.29 223.43M389.29 223.43L399.27 200"
fill="none" stroke="black" stroke-width="9"/>
</g>
</g>
</svg>
