<?xml version="1.0" standalone="no"?><svg xmlns="http://www.w3.org/2000/svg" width="400.000" height="400.000" viewBox="0.0 0.0 400.000 400.000" version="1.1">
  <title>Produce by Acme CAD Converter</title>
  <desc>Produce by Acme CAD Converter</desc>
<g id="0" display="visible">
<g><path d="M276.7 142.48L278.57 130.63M278.57 130.63L284.02 119.94M284.02 119.94L292.51 111.45M292.51 111.45L303.2 106M303.2 106L315.05 104.13M315.05 104.13L326.9 106M326.9 106L337.59 111.45M337.59 111.45L346.07 119.94M346.07 119.94L351.52 130.63M351.52 130.63L353.4 142.48M353.4 142.48L351.52 154.33M351.52 154.33L346.07 165.02M346.07 165.02L337.59 173.5M337.59 173.5L326.9 178.95M326.9 178.95L315.05 180.83M315.05 180.83L303.2 178.95M303.2 178.95L292.51 173.5M292.51 173.5L284.02 165.02M284.02 165.02L278.57 154.33M278.57 154.33L276.7 142.48"
fill="none" stroke="black" stroke-width="9"/>
</g>
<g><path d="M200 257.52L200 27.43"
fill="none" stroke="black" stroke-width="9"/>
</g>
<g><path d="M200 257.52L399.27 372.57"
fill="none" stroke="black" stroke-width="9"/>
</g>
<g><path d="M200 257.52L0.73 372.57"
fill="none" stroke="black" stroke-width="9"/>
</g>
<g><path d="M200 257.52L276.7 180.83"
fill="none" stroke="black" stroke-width="9"/>
</g>
</g>
</svg>
