<?xml version="1.0" standalone="no"?><svg xmlns="http://www.w3.org/2000/svg" width="400.000" height="400.000" viewBox="0.0 0.0 400.000 400.000" version="1.1">
  <title>Produce by Acme CAD Converter</title>
  <desc>Produce by Acme CAD Converter</desc>
<g id="0" display="visible">
<g><path d="M55.08 200L41.01 201.85M41.01 201.85L27.91 207.28M27.91 207.28L16.65 215.92M16.65 215.92L8.01 227.17M8.01 227.17L2.59 240.28M2.59 240.28L0.73 254.35"
fill="none" stroke="black" stroke-width="9"/>
</g>
<g><path d="M399.27 254.35L397.41 240.28M397.41 240.28L391.99 227.17M391.99 227.17L383.35 215.92M383.35 215.92L372.09 207.28M372.09 207.28L358.99 201.85M358.99 201.85L344.92 200"
fill="none" stroke="black" stroke-width="9"/>
</g>
<g><path d="M200 145.65L201.85 159.72M201.85 159.72L207.28 172.83M207.28 172.83L215.92 184.08M215.92 184.08L227.17 192.72M227.17 192.72L240.28 198.15M240.28 198.15L254.35 200"
fill="none" stroke="black" stroke-width="9"/>
</g>
<g><path d="M145.65 200L159.72 198.15M159.72 198.15L172.83 192.72M172.83 192.72L184.08 184.08M184.08 184.08L192.72 172.83M192.72 172.83L198.15 159.72M198.15 159.72L200 145.65"
fill="none" stroke="black" stroke-width="9"/>
</g>
<g><path d="M55.08 200L145.65 200"
fill="none" stroke="black" stroke-width="9"/>
</g>
<g><path d="M254.35 200L344.92 200"
fill="none" stroke="black" stroke-width="9"/>
</g>
</g>
</svg>
