<?xml version="1.0" standalone="no"?><svg xmlns="http://www.w3.org/2000/svg" width="400.000" height="400.000" viewBox="0.0 0.0 400.000 400.000" version="1.1">
  <title>Produce by Acme CAD Converter</title>
  <desc>Produce by Acme CAD Converter</desc>
<g id="0" display="visible">
<g><path d="M0.73 283.9L210.49 283.9"
fill="none" stroke="black" stroke-width="12"/>
</g>
<g><path d="M210.49 388.78L210.49 11.22"
fill="none" stroke="black" stroke-width="12"/>
</g>
<g><path d="M210.49 388.78L237.35 386.86M237.35 386.86L263.67 381.13M263.67 381.13L288.91 371.72M288.91 371.72L312.55 358.81M312.55 358.81L334.11 342.67M334.11 342.67L353.16 323.62M353.16 323.62L369.3 302.06M369.3 302.06L382.21 278.42M382.21 278.42L391.62 253.19M391.62 253.19L397.35 226.87M397.35 226.87L399.27 200M399.27 200L397.35 173.13M397.35 173.13L391.62 146.81M391.62 146.81L382.21 121.58M382.21 121.58L369.3 97.94M369.3 97.94L353.16 76.38M353.16 76.38L334.11 57.33M334.11 57.33L312.55 41.19M312.55 41.19L288.91 28.28M288.91 28.28L263.67 18.87M263.67 18.87L237.35 13.14M237.35 13.14L210.49 11.22"
fill="none" stroke="black" stroke-width="12"/>
</g>
<g><path d="M210.49 116.1L0.73 116.1"
fill="none" stroke="black" stroke-width="12"/>
</g>
</g>
</svg>
