<?xml version="1.0" standalone="no"?><svg xmlns="http://www.w3.org/2000/svg" width="400.000" height="400.000" viewBox="0.0 0.0 400.000 400.000" version="1.1">
  <title>Produce by Acme CAD Converter</title>
  <desc>Produce by Acme CAD Converter</desc>
<g id="????????? ???? ?????????? ESK" display="visible">
<g><path d="M0.73 200L111.44 200"
fill="none" stroke="black" stroke-width="12"/>
</g>
<g><path d="M288.56 200L399.27 200"
fill="none" stroke="black" stroke-width="12"/>
</g>
<g><path d="M111.44 111.44L288.56 111.44"
fill="none" stroke="black" stroke-width="12"/>
</g>
<g><path d="M111.44 200L113.37 181.59M113.37 181.59L119.09 163.98M119.09 163.98L128.35 147.94M128.35 147.94L140.74 134.18M140.74 134.18L155.72 123.3M155.72 123.3L172.63 115.77M172.63 115.77L190.74 111.92M190.74 111.92L209.26 111.92M209.26 111.92L227.37 115.77M227.37 115.77L244.28 123.3M244.28 123.3L259.26 134.18M259.26 134.18L271.65 147.94M271.65 147.94L280.91 163.98M280.91 163.98L286.63 181.59M286.63 181.59L288.56 200M288.56 200L286.63 218.41M286.63 218.41L280.91 236.02M280.91 236.02L271.65 252.06M271.65 252.06L259.26 265.82M259.26 265.82L244.28 276.7M244.28 276.7L227.37 284.23M227.37 284.23L209.26 288.08M209.26 288.08L190.74 288.08M190.74 288.08L172.63 284.23M172.63 284.23L155.72 276.7M155.72 276.7L140.74 265.82M140.74 265.82L128.35 252.06M128.35 252.06L119.09 236.02M119.09 236.02L113.37 218.41M113.37 218.41L111.44 200"
fill="none" stroke="black" stroke-width="12"/>
</g>
</g>
</svg>
