<?xml version="1.0" standalone="no"?><svg xmlns="http://www.w3.org/2000/svg" width="400.000" height="400.000" viewBox="0.0 0.0 400.000 400.000" version="1.1">
  <title>Produce by Acme CAD Converter</title>
  <desc>Produce by Acme CAD Converter</desc>
<g id="0" display="visible">
<g><path d="M12.05 337.44L13.99 322.07M13.99 322.07L19.7 307.66M19.7 307.66L28.8 295.12M28.8 295.12L40.75 285.24M40.75 285.24L54.77 278.64M54.77 278.64L69.99 275.74M69.99 275.74L85.46 276.71M85.46 276.71L100.2 281.5M100.2 281.5L113.28 289.8M113.28 289.8L123.89 301.1M123.89 301.1L131.36 314.68M131.36 314.68L135.21 329.69M135.21 329.69L135.21 345.19M135.21 345.19L131.36 360.2M131.36 360.2L123.89 373.78M123.89 373.78L113.28 385.08M113.28 385.08L100.2 393.38M100.2 393.38L85.46 398.17M85.46 398.17L69.99 399.14M69.99 399.14L54.77 396.24M54.77 396.24L40.75 389.64M40.75 389.64L28.8 379.76M28.8 379.76L19.7 367.23M19.7 367.23L13.99 352.82M13.99 352.82L12.05 337.44"
fill="none" stroke="black" stroke-width="3"/>
</g>
<g><path d="M104.79 283.9L259.35 16.19"
fill="none" stroke="black" stroke-width="3"/>
</g>
<g><path d="M104.79 283.9L372.5 129.34"
fill="none" stroke="black" stroke-width="3"/>
</g>
<g><path d="M232.58 0.73L286.12 31.65"
fill="none" stroke="black" stroke-width="3"/>
</g>
<g><path d="M357.04 102.57L387.95 156.11"
fill="none" stroke="black" stroke-width="3"/>
</g>
</g>
</svg>
