<?xml version="1.0" standalone="no"?><svg xmlns="http://www.w3.org/2000/svg" width="400.000" height="400.000" viewBox="0.0 0.0 400.000 400.000" version="1.1">
  <title>Produce by Acme CAD Converter</title>
  <desc>Produce by Acme CAD Converter</desc>
<g id="0" display="visible">
<g><path d="M0.73 311.16L2.71 296.14M2.71 296.14L8.51 282.14M8.51 282.14L17.73 270.11M17.73 270.11L29.76 260.89M29.76 260.89L43.75 255.09M43.75 255.09L58.78 253.11M58.78 253.11L73.8 255.09M73.8 255.09L87.8 260.89M87.8 260.89L99.82 270.11M99.82 270.11L109.05 282.14M109.05 282.14L114.84 296.14M114.84 296.14L116.82 311.16M116.82 311.16L114.84 326.18M114.84 326.18L109.05 340.18M109.05 340.18L99.82 352.2M99.82 352.2L87.8 361.43M87.8 361.43L73.8 367.22M73.8 367.22L58.78 369.2M58.78 369.2L43.75 367.22M43.75 367.22L29.76 361.43M29.76 361.43L17.73 352.2M17.73 352.2L8.51 340.18M8.51 340.18L2.71 326.18M2.71 326.18L0.73 311.16"
fill="none" stroke="black" stroke-width="3"/>
</g>
<g><path d="M399.27 282.14L399.27 340.18"
fill="none" stroke="black" stroke-width="3"/>
</g>
<g><path d="M109.05 282.14L360.38 137.03"
fill="none" stroke="black" stroke-width="3"/>
</g>
<g><path d="M109.05 282.14L399.27 282.14"
fill="none" stroke="black" stroke-width="3"/>
</g>
<g><path d="M360.38 137.03L389.41 187.29"
fill="none" stroke="black" stroke-width="3"/>
</g>
<g><path d="M109.05 282.14L254.16 30.8"
fill="none" stroke="black" stroke-width="3"/>
</g>
<g><path d="M254.16 30.8L304.42 59.82"
fill="none" stroke="black" stroke-width="3"/>
</g>
</g>
</svg>
