<?xml version="1.0" standalone="no"?><svg xmlns="http://www.w3.org/2000/svg" width="400.000" height="400.000" viewBox="0.0 0.0 400.000 400.000" version="1.1">
  <title>Produce by Acme CAD Converter</title>
  <desc>Produce by Acme CAD Converter</desc>
<g id="0" display="visible">
<g><path d="M139.99 279.24L300.79 0.73"
fill="none" stroke="black" stroke-width="3"/>
</g>
<g><path d="M43.51 334.95L45.38 319.55M45.38 319.55L50.88 305.06M50.88 305.06L59.69 292.3M59.69 292.3L71.29 282.01M71.29 282.01L85.02 274.81M85.02 274.81L100.08 271.1M100.08 271.1L115.58 271.1M115.58 271.1L130.64 274.81M130.64 274.81L144.37 282.01M144.37 282.01L155.97 292.3M155.97 292.3L164.78 305.06M164.78 305.06L170.28 319.55M170.28 319.55L172.15 334.95M172.15 334.95L170.28 350.34M170.28 350.34L164.78 364.84M164.78 364.84L155.97 377.6M155.97 377.6L144.37 387.88M144.37 387.88L130.64 395.09M130.64 395.09L115.58 398.8M115.58 398.8L100.08 398.8M100.08 398.8L85.02 395.09M85.02 395.09L71.29 387.88M71.29 387.88L59.69 377.6M59.69 377.6L50.88 364.84M50.88 364.84L45.38 350.34M45.38 350.34L43.51 334.95"
fill="none" stroke="black" stroke-width="3"/>
</g>
<g><path d="M300.79 0.73L356.49 32.89"
fill="none" stroke="black" stroke-width="3"/>
</g>
<g><path d="M260.59 70.36L316.29 102.52"
fill="none" stroke="black" stroke-width="3"/>
</g>
</g>
</svg>
