<?xml version="1.0" standalone="no"?><svg xmlns="http://www.w3.org/2000/svg" width="400.000" height="400.000" viewBox="0.0 0.0 400.000 400.000" version="1.1">
  <title>Produce by Acme CAD Converter</title>
  <desc>Produce by Acme CAD Converter</desc>
<g id="0" display="visible">
<g><path d="M71.36 334.95L73.23 319.55M73.23 319.55L78.73 305.06M78.73 305.06L87.54 292.3M87.54 292.3L99.14 282.01M99.14 282.01L112.87 274.81M112.87 274.81L127.93 271.1M127.93 271.1L143.43 271.1M143.43 271.1L158.49 274.81M158.49 274.81L172.22 282.01M172.22 282.01L183.82 292.3M183.82 292.3L192.63 305.06M192.63 305.06L198.13 319.55M198.13 319.55L200 334.95M200 334.95L198.13 350.34M198.13 350.34L192.63 364.84M192.63 364.84L183.82 377.6M183.82 377.6L172.22 387.88M172.22 387.88L158.49 395.09M158.49 395.09L143.43 398.8M143.43 398.8L127.93 398.8M127.93 398.8L112.87 395.09M112.87 395.09L99.14 387.88M99.14 387.88L87.54 377.6M87.54 377.6L78.73 364.84M78.73 364.84L73.23 350.34M73.23 350.34L71.36 334.95"
fill="none" stroke="black" stroke-width="3"/>
</g>
<g><path d="M167.84 279.24L328.64 0.73"
fill="none" stroke="black" stroke-width="3"/>
</g>
</g>
</svg>
