<?xml version="1.0" standalone="no"?><svg xmlns="http://www.w3.org/2000/svg" width="400.000" height="400.000" viewBox="0.0 0.0 400.000 400.000" version="1.1">
  <title>Produce by Acme CAD Converter</title>
  <desc>Produce by Acme CAD Converter</desc>
<g id="0" display="visible">
<g><path d="M155.7 283.9L310.26 16.19"
fill="none" stroke="black" stroke-width="3"/>
</g>
<g><path d="M62.96 337.44L64.91 322.07M64.91 322.07L70.61 307.66M70.61 307.66L79.72 295.12M79.72 295.12L91.66 285.24M91.66 285.24L105.68 278.64M105.68 278.64L120.91 275.74M120.91 275.74L136.37 276.71M136.37 276.71L151.11 281.5M151.11 281.5L164.2 289.8M164.2 289.8L174.81 301.1M174.81 301.1L182.27 314.68M182.27 314.68L186.13 329.69M186.13 329.69L186.13 345.19M186.13 345.19L182.27 360.2M182.27 360.2L174.81 373.78M174.81 373.78L164.2 385.08M164.2 385.08L151.11 393.38M151.11 393.38L136.37 398.17M136.37 398.17L120.91 399.14M120.91 399.14L105.68 396.24M105.68 396.24L91.66 389.64M91.66 389.64L79.72 379.76M79.72 379.76L70.61 367.23M70.61 367.23L64.91 352.82M64.91 352.82L62.96 337.44"
fill="none" stroke="black" stroke-width="3"/>
</g>
<g><path d="M283.49 0.73L337.04 31.65"
fill="none" stroke="black" stroke-width="3"/>
</g>
</g>
</svg>
