<?xml version="1.0" standalone="no"?><svg xmlns="http://www.w3.org/2000/svg" width="400.000" height="400.000" viewBox="0.0 0.0 400.000 400.000" version="1.1">
  <title>Produce by Acme CAD Converter</title>
  <desc>Produce by Acme CAD Converter</desc>
<g id="0" display="visible">
<g><path d="M345.87 119.15L374.9 169.42"
fill="none" stroke="black" stroke-width="3"/>
</g>
<g><path d="M109.05 289.39L399.27 289.39"
fill="none" stroke="black" stroke-width="3"/>
</g>
<g><path d="M109.05 289.39L254.16 38.05"
fill="none" stroke="black" stroke-width="3"/>
</g>
<g><path d="M109.05 289.39L360.38 144.28"
fill="none" stroke="black" stroke-width="3"/>
</g>
<g><path d="M0.73 318.41L2.71 303.39M2.71 303.39L8.51 289.39M8.51 289.39L17.73 277.37M17.73 277.37L29.76 268.15M29.76 268.15L43.75 262.35M43.75 262.35L58.78 260.37M58.78 260.37L73.8 262.35M73.8 262.35L87.8 268.15M87.8 268.15L99.82 277.37M99.82 277.37L109.05 289.39M109.05 289.39L114.84 303.39M114.84 303.39L116.82 318.41M116.82 318.41L114.84 333.44M114.84 333.44L109.05 347.44M109.05 347.44L99.82 359.46M99.82 359.46L87.8 368.68M87.8 368.68L73.8 374.48M73.8 374.48L58.78 376.46M58.78 376.46L43.75 374.48M43.75 374.48L29.76 368.68M29.76 368.68L17.73 359.46M17.73 359.46L8.51 347.44M8.51 347.44L2.71 333.44M2.71 333.44L0.73 318.41"
fill="none" stroke="black" stroke-width="3"/>
</g>
<g><path d="M229.02 23.54L279.29 52.56"
fill="none" stroke="black" stroke-width="3"/>
</g>
<g><path d="M399.27 260.37L399.27 318.41"
fill="none" stroke="black" stroke-width="3"/>
</g>
</g>
</svg>
