<?xml version="1.0" standalone="no"?><svg xmlns="http://www.w3.org/2000/svg" width="400.000" height="400.000" viewBox="0.0 0.0 400.000 400.000" version="1.1">
  <title>Produce by Acme CAD Converter</title>
  <desc>Produce by Acme CAD Converter</desc>
<g id="0" display="visible">
<g><path d="M95.17 277.57L367.79 120.17"
fill="none" stroke="black" stroke-width="3"/>
</g>
<g><path d="M0.73 332.09L2.71 316.43M2.71 316.43L8.52 301.76M8.52 301.76L17.8 288.99M17.8 288.99L29.96 278.93M29.96 278.93L44.24 272.21M44.24 272.21L59.74 269.26M59.74 269.26L75.49 270.25M75.49 270.25L90.5 275.12M90.5 275.12L103.82 283.58M103.82 283.58L114.63 295.09M114.63 295.09L122.23 308.91M122.23 308.91L126.15 324.2M126.15 324.2L126.15 339.98M126.15 339.98L122.23 355.27M122.23 355.27L114.63 369.1M114.63 369.1L103.82 380.6M103.82 380.6L90.5 389.06M90.5 389.06L75.49 393.93M75.49 393.93L59.74 394.93M59.74 394.93L44.24 391.97M44.24 391.97L29.96 385.25M29.96 385.25L17.8 375.19M17.8 375.19L8.52 362.42M8.52 362.42L2.71 347.75M2.71 347.75L0.73 332.09"
fill="none" stroke="black" stroke-width="3"/>
</g>
<g><path d="M367.79 120.17L399.27 174.7"
fill="none" stroke="black" stroke-width="3"/>
</g>
<g><path d="M95.17 277.57L252.57 4.95"
fill="none" stroke="black" stroke-width="3"/>
</g>
<g><path d="M252.57 4.95L307.09 36.43"
fill="none" stroke="black" stroke-width="3"/>
</g>
</g>
</svg>
