<?xml version="1.0" standalone="no"?><svg xmlns="http://www.w3.org/2000/svg" width="400.000" height="400.000" viewBox="0.0 0.0 400.000 400.000" version="1.1">
  <title>Produce by Acme CAD Converter</title>
  <desc>Produce by Acme CAD Converter</desc>
<g id="0" display="visible">
<g><path d="M1.03 398.97L398.97 398.97"
fill="none" stroke="black" stroke-width="3"/>
</g>
<g><path d="M5.25 394.75L394.75 394.75"
fill="none" stroke="black" stroke-width="3"/>
</g>
<g><path d="M9.46 390.54L390.54 390.54"
fill="none" stroke="black" stroke-width="3"/>
</g>
<g><path d="M13.68 386.32L386.32 386.32"
fill="none" stroke="black" stroke-width="3"/>
</g>
<g><path d="M17.9 382.1L382.1 382.1"
fill="none" stroke="black" stroke-width="3"/>
</g>
<g><path d="M22.12 377.88L377.88 377.88"
fill="none" stroke="black" stroke-width="3"/>
</g>
<g><path d="M26.33 373.67L373.67 373.67"
fill="none" stroke="black" stroke-width="3"/>
</g>
<g><path d="M30.55 369.45L369.45 369.45"
fill="none" stroke="black" stroke-width="3"/>
</g>
<g><path d="M34.77 365.23L365.23 365.23"
fill="none" stroke="black" stroke-width="3"/>
</g>
<g><path d="M38.99 361.01L361.01 361.01"
fill="none" stroke="black" stroke-width="3"/>
</g>
<g><path d="M43.21 356.79L356.79 356.79"
fill="none" stroke="black" stroke-width="3"/>
</g>
<g><path d="M47.42 352.58L352.58 352.58"
fill="none" stroke="black" stroke-width="3"/>
</g>
<g><path d="M51.64 348.36L348.36 348.36"
fill="none" stroke="black" stroke-width="3"/>
</g>
<g><path d="M55.86 344.14L344.14 344.14"
fill="none" stroke="black" stroke-width="3"/>
</g>
<g><path d="M60.08 339.92L339.92 339.92"
fill="none" stroke="black" stroke-width="3"/>
</g>
<g><path d="M64.29 335.71L335.71 335.71"
fill="none" stroke="black" stroke-width="3"/>
</g>
<g><path d="M68.51 331.49L331.49 331.49"
fill="none" stroke="black" stroke-width="3"/>
</g>
<g><path d="M72.73 327.27L327.27 327.27"
fill="none" stroke="black" stroke-width="3"/>
</g>
<g><path d="M76.95 323.05L323.05 323.05"
fill="none" stroke="black" stroke-width="3"/>
</g>
<g><path d="M81.17 318.83L318.83 318.83"
fill="none" stroke="black" stroke-width="3"/>
</g>
<g><path d="M85.38 314.62L314.62 314.62"
fill="none" stroke="black" stroke-width="3"/>
</g>
<g><path d="M399.27 0.73L0.73 399.27"
fill="none" stroke="black" stroke-width="3"/>
</g>
<g><path d="M0.73 0.73L399.27 399.27"
fill="none" stroke="black" stroke-width="3"/>
</g>
<g><path d="M399.27 399.27L0.73 399.27"
fill="none" stroke="black" stroke-width="3"/>
</g>
<g><path d="M89.6 310.4L310.4 310.4"
fill="none" stroke="black" stroke-width="3"/>
</g>
<g><path d="M93.82 306.18L306.18 306.18"
fill="none" stroke="black" stroke-width="3"/>
</g>
<g><path d="M98.04 301.96L301.96 301.96"
fill="none" stroke="black" stroke-width="3"/>
</g>
<g><path d="M102.26 297.74L297.74 297.74"
fill="none" stroke="black" stroke-width="3"/>
</g>
<g><path d="M106.47 293.53L293.53 293.53"
fill="none" stroke="black" stroke-width="3"/>
</g>
<g><path d="M110.69 289.31L289.31 289.31"
fill="none" stroke="black" stroke-width="3"/>
</g>
<g><path d="M114.91 285.09L285.09 285.09"
fill="none" stroke="black" stroke-width="3"/>
</g>
<g><path d="M119.13 280.87L280.87 280.87"
fill="none" stroke="black" stroke-width="3"/>
</g>
<g><path d="M123.34 276.66L276.66 276.66"
fill="none" stroke="black" stroke-width="3"/>
</g>
<g><path d="M127.56 272.44L272.44 272.44"
fill="none" stroke="black" stroke-width="3"/>
</g>
<g><path d="M131.78 268.22L268.22 268.22"
fill="none" stroke="black" stroke-width="3"/>
</g>
<g><path d="M136 264L264 264"
fill="none" stroke="black" stroke-width="3"/>
</g>
<g><path d="M140.22 259.78L259.78 259.78"
fill="none" stroke="black" stroke-width="3"/>
</g>
<g><path d="M144.43 255.57L255.57 255.57"
fill="none" stroke="black" stroke-width="3"/>
</g>
<g><path d="M148.65 251.35L251.35 251.35"
fill="none" stroke="black" stroke-width="3"/>
</g>
<g><path d="M152.87 247.13L247.13 247.13"
fill="none" stroke="black" stroke-width="3"/>
</g>
<g><path d="M157.09 242.91L242.91 242.91"
fill="none" stroke="black" stroke-width="3"/>
</g>
<g><path d="M161.3 238.7L238.7 238.7"
fill="none" stroke="black" stroke-width="3"/>
</g>
<g><path d="M165.52 234.48L234.48 234.48"
fill="none" stroke="black" stroke-width="3"/>
</g>
<g><path d="M169.74 230.26L230.26 230.26"
fill="none" stroke="black" stroke-width="3"/>
</g>
<g><path d="M173.96 226.04L226.04 226.04"
fill="none" stroke="black" stroke-width="3"/>
</g>
<g><path d="M178.18 221.82L221.82 221.82"
fill="none" stroke="black" stroke-width="3"/>
</g>
<g><path d="M182.39 217.61L217.61 217.61"
fill="none" stroke="black" stroke-width="3"/>
</g>
<g><path d="M186.61 213.39L213.39 213.39"
fill="none" stroke="black" stroke-width="3"/>
</g>
<g><path d="M190.83 209.17L209.17 209.17"
fill="none" stroke="black" stroke-width="3"/>
</g>
<g><path d="M195.05 204.95L204.95 204.95"
fill="none" stroke="black" stroke-width="3"/>
</g>
<g><path d="M199.26 200.74L200.74 200.74"
fill="none" stroke="black" stroke-width="3"/>
</g>
</g>
</svg>
