<?xml version="1.0" standalone="no"?><svg xmlns="http://www.w3.org/2000/svg" width="400.000" height="400.000" viewBox="0.0 0.0 400.000 400.000" version="1.1">
  <title>Produce by Acme CAD Converter</title>
  <desc>Produce by Acme CAD Converter</desc>
<g id="0" display="visible">
<g><path d="M139.99 279.24L300.79 0.73"
fill="none" stroke="black" stroke-width="3"/>
</g>
<g><path d="M43.51 334.95L45.38 319.55M45.38 319.55L50.88 305.06M50.88 305.06L59.69 292.3M59.69 292.3L71.29 282.01M71.29 282.01L85.02 274.81M85.02 274.81L100.08 271.1M100.08 271.1L115.58 271.1M115.58 271.1L130.64 274.81M130.64 274.81L144.37 282.01M144.37 282.01L155.97 292.3M155.97 292.3L164.78 305.06M164.78 305.06L170.28 319.55M170.28 319.55L172.15 334.95M172.15 334.95L170.28 350.34M170.28 350.34L164.78 364.84M164.78 364.84L155.97 377.6M155.97 377.6L144.37 387.88M144.37 387.88L130.64 395.09M130.64 395.09L115.58 398.8M115.58 398.8L100.08 398.8M100.08 398.8L85.02 395.09M85.02 395.09L71.29 387.88M71.29 387.88L59.69 377.6M59.69 377.6L50.88 364.84M50.88 364.84L45.38 350.34M45.38 350.34L43.51 334.95"
fill="none" stroke="black" stroke-width="3"/>
</g>
<g><path d="M300.79 0.73L356.49 32.89"
fill="none" stroke="black" stroke-width="3"/>
</g>
<g><path d="M46.73 334.95L48.65 319.75M48.65 319.75L54.28 305.51M54.28 305.51L63.29 293.12M63.29 293.12L75.09 283.36M75.09 283.36L88.95 276.83M88.95 276.83L103.99 273.96M103.99 273.96L119.28 274.93M119.28 274.93L133.85 279.66M133.85 279.66L146.78 287.87M146.78 287.87L157.26 299.03M157.26 299.03L164.64 312.45M164.64 312.45L168.45 327.29M168.45 327.29L168.45 342.61M168.45 342.61L164.64 357.44M164.64 357.44L157.26 370.86M157.26 370.86L146.78 382.03M146.78 382.03L133.85 390.24M133.85 390.24L119.28 394.97M119.28 394.97L103.99 395.93M103.99 395.93L88.95 393.06M88.95 393.06L75.09 386.54M75.09 386.54L63.29 376.78M63.29 376.78L54.28 364.38M54.28 364.38L48.65 350.14M48.65 350.14L46.73 334.95"
fill="none" stroke="black" stroke-width="3"/>
</g>
<g><path d="M49.94 334.95L51.91 319.96M51.91 319.96L57.7 306M57.7 306L66.9 294.01M66.9 294.01L78.89 284.82M78.89 284.82L92.85 279.03M92.85 279.03L107.83 277.06M107.83 277.06L122.81 279.03M122.81 279.03L136.77 284.82M136.77 284.82L148.76 294.01M148.76 294.01L157.96 306M157.96 306L163.74 319.96M163.74 319.96L165.72 334.95M165.72 334.95L163.74 349.93M163.74 349.93L157.96 363.89M157.96 363.89L148.76 375.88M148.76 375.88L136.77 385.08M136.77 385.08L122.81 390.86M122.81 390.86L107.83 392.83M107.83 392.83L92.85 390.86M92.85 390.86L78.89 385.08M78.89 385.08L66.9 375.88M66.9 375.88L57.7 363.89M57.7 363.89L51.91 349.93M51.91 349.93L49.94 334.95"
fill="none" stroke="black" stroke-width="3"/>
</g>
<g><path d="M53.16 334.95L55.02 320.8M55.02 320.8L60.48 307.61M60.48 307.61L69.17 296.29M69.17 296.29L80.49 287.6M80.49 287.6L93.68 282.14M93.68 282.14L107.83 280.28M107.83 280.28L121.98 282.14M121.98 282.14L135.17 287.6M135.17 287.6L146.49 296.29M146.49 296.29L155.18 307.61M155.18 307.61L160.64 320.8M160.64 320.8L162.5 334.95M162.5 334.95L160.64 349.1M160.64 349.1L155.18 362.28M155.18 362.28L146.49 373.61M146.49 373.61L135.17 382.29M135.17 382.29L121.98 387.76M121.98 387.76L107.83 389.62M107.83 389.62L93.68 387.76M93.68 387.76L80.49 382.29M80.49 382.29L69.17 373.61M69.17 373.61L60.48 362.28M60.48 362.28L55.02 349.1M55.02 349.1L53.16 334.95"
fill="none" stroke="black" stroke-width="3"/>
</g>
<g><path d="M56.37 334.95L58.28 321.06M58.28 321.06L63.86 308.21M63.86 308.21L72.71 297.34M72.71 297.34L84.16 289.26M84.16 289.26L97.36 284.57M97.36 284.57L111.34 283.61M111.34 283.61L125.06 286.46M125.06 286.46L137.5 292.91M137.5 292.91L147.74 302.47M147.74 302.47L155.03 314.45M155.03 314.45L158.81 327.94M158.81 327.94L158.81 341.95M158.81 341.95L155.03 355.45M155.03 355.45L147.74 367.42M147.74 367.42L137.5 376.98M137.5 376.98L125.06 383.43M125.06 383.43L111.34 386.28M111.34 386.28L97.36 385.33M97.36 385.33L84.16 380.63M84.16 380.63L72.71 372.55M72.71 372.55L63.86 361.68M63.86 361.68L58.28 348.83M58.28 348.83L56.37 334.95"
fill="none" stroke="black" stroke-width="3"/>
</g>
<g><path d="M59.59 334.95L61.54 321.36M61.54 321.36L67.25 308.87M67.25 308.87L76.24 298.49M76.24 298.49L87.79 291.07M87.79 291.07L100.96 287.2M100.96 287.2L114.69 287.2M114.69 287.2L127.87 291.07M127.87 291.07L139.42 298.49M139.42 298.49L148.41 308.87M148.41 308.87L154.11 321.36M154.11 321.36L156.07 334.95M156.07 334.95L154.11 348.54M154.11 348.54L148.41 361.03M148.41 361.03L139.42 371.4M139.42 371.4L127.87 378.83M127.87 378.83L114.69 382.7M114.69 382.7L100.96 382.7M100.96 382.7L87.79 378.83M87.79 378.83L76.24 371.4M76.24 371.4L67.25 361.03M67.25 361.03L61.54 348.54M61.54 348.54L59.59 334.95"
fill="none" stroke="black" stroke-width="3"/>
</g>
<g><path d="M62.81 334.95L64.63 322.26M64.63 322.26L69.95 310.61M69.95 310.61L78.35 300.92M78.35 300.92L89.13 293.99M89.13 293.99L101.42 290.38M101.42 290.38L114.24 290.38M114.24 290.38L126.53 293.99M126.53 293.99L137.31 300.92M137.31 300.92L145.71 310.61M145.71 310.61L151.03 322.26M151.03 322.26L152.85 334.95M152.85 334.95L151.03 347.63M151.03 347.63L145.71 359.29M145.71 359.29L137.31 368.97M137.31 368.97L126.53 375.9M126.53 375.9L114.24 379.51M114.24 379.51L101.42 379.51M101.42 379.51L89.13 375.9M89.13 375.9L78.35 368.97M78.35 368.97L69.95 359.29M69.95 359.29L64.63 347.63M64.63 347.63L62.81 334.95"
fill="none" stroke="black" stroke-width="3"/>
</g>
<g><path d="M66.02 334.95L67.88 322.62M67.88 322.62L73.29 311.4M73.29 311.4L81.76 302.26M81.76 302.26L92.56 296.03M92.56 296.03L104.71 293.26M104.71 293.26L117.13 294.19M117.13 294.19L128.73 298.74M128.73 298.74L138.48 306.51M138.48 306.51L145.5 316.81M145.5 316.81L149.17 328.72M149.17 328.72L149.17 341.18M149.17 341.18L145.5 353.09M145.5 353.09L138.48 363.38M138.48 363.38L128.73 371.15M128.73 371.15L117.13 375.71M117.13 375.71L104.71 376.64M104.71 376.64L92.56 373.86M92.56 373.86L81.76 367.63M81.76 367.63L73.29 358.5M73.29 358.5L67.88 347.27M67.88 347.27L66.02 334.95"
fill="none" stroke="black" stroke-width="3"/>
</g>
<g><path d="M69.24 334.95L71.13 323.02M71.13 323.02L76.61 312.26M76.61 312.26L85.15 303.73M85.15 303.73L95.9 298.24M95.9 298.24L107.83 296.36M107.83 296.36L119.75 298.24M119.75 298.24L130.51 303.73M130.51 303.73L139.05 312.26M139.05 312.26L144.53 323.02M144.53 323.02L146.42 334.95M146.42 334.95L144.53 346.87M144.53 346.87L139.05 357.63M139.05 357.63L130.51 366.17M130.51 366.17L119.75 371.65M119.75 371.65L107.83 373.54M107.83 373.54L95.9 371.65M95.9 371.65L85.15 366.17M85.15 366.17L76.61 357.63M76.61 357.63L71.13 346.87M71.13 346.87L69.24 334.95"
fill="none" stroke="black" stroke-width="3"/>
</g>
<g><path d="M72.45 334.95L74.37 323.46M74.37 323.46L79.91 313.22M79.91 313.22L88.48 305.33M88.48 305.33L99.15 300.65M99.15 300.65L110.75 299.69M110.75 299.69L122.04 302.55M122.04 302.55L131.79 308.92M131.79 308.92L138.94 318.11M138.94 318.11L142.72 329.12M142.72 329.12L142.72 340.77M142.72 340.77L138.94 351.78M138.94 351.78L131.79 360.97M131.79 360.97L122.04 367.34M122.04 367.34L110.75 370.2M110.75 370.2L99.15 369.24M99.15 369.24L88.48 364.56M88.48 364.56L79.91 356.68M79.91 356.68L74.37 346.43M74.37 346.43L72.45 334.95"
fill="none" stroke="black" stroke-width="3"/>
</g>
<g><path d="M75.67 334.95L77.61 323.95M77.61 323.95L83.19 314.28M83.19 314.28L91.75 307.1M91.75 307.1L102.24 303.28M102.24 303.28L113.41 303.28M113.41 303.28L123.91 307.1M123.91 307.1L132.47 314.28M132.47 314.28L138.05 323.95M138.05 323.95L139.99 334.95M139.99 334.95L138.05 345.95M138.05 345.95L132.47 355.62M132.47 355.62L123.91 362.8M123.91 362.8L113.41 366.62M113.41 366.62L102.24 366.62M102.24 366.62L91.75 362.8M91.75 362.8L83.19 355.62M83.19 355.62L77.61 345.95M77.61 345.95L75.67 334.95"
fill="none" stroke="black" stroke-width="3"/>
</g>
<g><path d="M78.89 334.95L80.84 324.49M80.84 324.49L86.44 315.45M86.44 315.45L94.93 309.04M94.93 309.04L105.16 306.13M105.16 306.13L115.75 307.11M115.75 307.11L125.27 311.85M125.27 311.85L132.44 319.71M132.44 319.71L136.28 329.63M136.28 329.63L136.28 340.27M136.28 340.27L132.44 350.18M132.44 350.18L125.27 358.04M125.27 358.04L115.75 362.79M115.75 362.79L105.16 363.77M105.16 363.77L94.93 360.86M94.93 360.86L86.44 354.45M86.44 354.45L80.84 345.4M80.84 345.4L78.89 334.95"
fill="none" stroke="black" stroke-width="3"/>
</g>
<g><path d="M82.1 334.95L84.06 325.1M84.06 325.1L89.64 316.75M89.64 316.75L97.98 311.18M97.98 311.18L107.83 309.22M107.83 309.22L117.67 311.18M117.67 311.18L126.02 316.75M126.02 316.75L131.6 325.1M131.6 325.1L133.56 334.95M133.56 334.95L131.6 344.79M131.6 344.79L126.02 353.14M126.02 353.14L117.67 358.72M117.67 358.72L107.83 360.67M107.83 360.67L97.98 358.72M97.98 358.72L89.64 353.14M89.64 353.14L84.06 344.79M84.06 344.79L82.1 334.95"
fill="none" stroke="black" stroke-width="3"/>
</g>
<g><path d="M85.32 334.95L87.26 325.79M87.26 325.79L92.77 318.22M92.77 318.22L100.87 313.54M100.87 313.54L110.18 312.56M110.18 312.56L119.09 315.45M119.09 315.45L126.04 321.72M126.04 321.72L129.85 330.27M129.85 330.27L129.85 339.63M129.85 339.63L126.04 348.18M126.04 348.18L119.09 354.44M119.09 354.44L110.18 357.34M110.18 357.34L100.87 356.36M100.87 356.36L92.77 351.68M92.77 351.68L87.26 344.1M87.26 344.1L85.32 334.95"
fill="none" stroke="black" stroke-width="3"/>
</g>
<g><path d="M88.53 334.95L90.44 326.58M90.44 326.58L95.8 319.86M95.8 319.86L103.54 316.14M103.54 316.14L112.12 316.14M112.12 316.14L119.86 319.86M119.86 319.86L125.21 326.58M125.21 326.58L127.13 334.95M127.13 334.95L125.21 343.32M125.21 343.32L119.86 350.03M119.86 350.03L112.12 353.76M112.12 353.76L103.54 353.76M103.54 353.76L95.8 350.03M95.8 350.03L90.44 343.32M90.44 343.32L88.53 334.95"
fill="none" stroke="black" stroke-width="3"/>
</g>
<g><path d="M91.75 334.95L93.59 327.47M93.59 327.47L98.69 321.71M98.69 321.71L105.89 318.98M105.89 318.98L113.53 319.91M113.53 319.91L119.87 324.28M119.87 324.28L123.44 331.1M123.44 331.1L123.44 338.8M123.44 338.8L119.87 345.61M119.87 345.61L113.53 349.98M113.53 349.98L105.89 350.91M105.89 350.91L98.69 348.18M98.69 348.18L93.59 342.42M93.59 342.42L91.75 334.95"
fill="none" stroke="black" stroke-width="3"/>
</g>
<g><path d="M94.97 334.95L96.69 328.52M96.69 328.52L101.4 323.81M101.4 323.81L107.83 322.08M107.83 322.08L114.26 323.81M114.26 323.81L118.97 328.52M118.97 328.52L120.69 334.95M120.69 334.95L118.97 341.38M118.97 341.38L114.26 346.09M114.26 346.09L107.83 347.81M107.83 347.81L101.4 346.09M101.4 346.09L96.69 341.38M96.69 341.38L94.97 334.95"
fill="none" stroke="black" stroke-width="3"/>
</g>
<g><path d="M98.18 334.95L100.02 329.28M100.02 329.28L104.85 325.77M104.85 325.77L110.81 325.77M110.81 325.77L115.63 329.28M115.63 329.28L117.48 334.95M117.48 334.95L115.63 340.62M115.63 340.62L110.81 344.12M110.81 344.12L104.85 344.12M104.85 344.12L100.02 340.62M100.02 340.62L98.18 334.95"
fill="none" stroke="black" stroke-width="3"/>
</g>
<g><path d="M101.4 334.95L103.28 330.4M103.28 330.4L107.83 328.52M107.83 328.52L112.38 330.4M112.38 330.4L114.26 334.95M114.26 334.95L112.38 339.5M112.38 339.5L107.83 341.38M107.83 341.38L103.28 339.5M103.28 339.5L101.4 334.95"
fill="none" stroke="black" stroke-width="3"/>
</g>
<g><path d="M104.61 334.95L105.56 332.67M105.56 332.67L107.83 331.73M107.83 331.73L110.1 332.67M110.1 332.67L111.05 334.95M111.05 334.95L110.1 337.22M110.1 337.22L107.83 338.16M107.83 338.16L105.56 337.22M105.56 337.22L104.61 334.95"
fill="none" stroke="black" stroke-width="3"/>
</g>
</g>
</svg>
