<?xml version="1.0" standalone="no"?><svg xmlns="http://www.w3.org/2000/svg" width="400.000" height="400.000" viewBox="0.0 0.0 400.000 400.000" version="1.1">
  <title>Produce by Acme CAD Converter</title>
  <desc>Produce by Acme CAD Converter</desc>
<g id="0" display="visible">
<g><path d="M185.91 200L187.8 192.95M187.8 192.95L192.95 187.8M192.95 187.8L200 185.91M200 185.91L207.05 187.8M207.05 187.8L212.2 192.95M212.2 192.95L214.09 200M214.09 200L212.2 207.05M212.2 207.05L207.05 212.2M207.05 212.2L200 214.09M200 214.09L192.95 212.2M192.95 212.2L187.8 207.05M187.8 207.05L185.91 200"
fill="none" stroke="black" stroke-width="3"/>
</g>
<g><path d="M183.9 200L185.74 192.52M185.74 192.52L190.85 186.75M190.85 186.75L198.06 184.01M198.06 184.01L205.71 184.94M205.71 184.94L212.05 189.32M212.05 189.32L215.64 196.15M215.64 196.15L215.64 203.85M215.64 203.85L212.05 210.68M212.05 210.68L205.71 215.06M205.71 215.06L198.06 215.99M198.06 215.99L190.85 213.25M190.85 213.25L185.74 207.48M185.74 207.48L183.9 200"
fill="none" stroke="black" stroke-width="3"/>
</g>
<g><path d="M181.88 200L183.68 192.14M183.68 192.14L188.7 185.84M188.7 185.84L195.97 182.34M195.97 182.34L204.03 182.34M204.03 182.34L211.3 185.84M211.3 185.84L216.32 192.14M216.32 192.14L218.12 200M218.12 200L216.32 207.86M216.32 207.86L211.3 214.16M211.3 214.16L204.03 217.66M204.03 217.66L195.97 217.66M195.97 217.66L188.7 214.16M188.7 214.16L183.68 207.86M183.68 207.86L181.88 200"
fill="none" stroke="black" stroke-width="3"/>
</g>
<g><path d="M179.87 200L181.61 191.81M181.61 191.81L186.53 185.04M186.53 185.04L193.78 180.86M193.78 180.86L202.1 179.98M202.1 179.98L210.06 182.57M210.06 182.57L216.28 188.17M216.28 188.17L219.69 195.81M219.69 195.81L219.69 204.19M219.69 204.19L216.28 211.83M216.28 211.83L210.06 217.43M210.06 217.43L202.1 220.02M202.1 220.02L193.78 219.14M193.78 219.14L186.53 214.96M186.53 214.96L181.61 208.19M181.61 208.19L179.87 200"
fill="none" stroke="black" stroke-width="3"/>
</g>
<g><path d="M177.86 200L179.77 190.99M179.77 190.99L185.18 183.55M185.18 183.55L193.16 178.94M193.16 178.94L202.31 177.98M202.31 177.98L211.07 180.82M211.07 180.82L217.91 186.99M217.91 186.99L221.66 195.4M221.66 195.4L221.66 204.6M221.66 204.6L217.91 213.01M217.91 213.01L211.07 219.18M211.07 219.18L202.31 222.02M202.31 222.02L193.16 221.06M193.16 221.06L185.18 216.45M185.18 216.45L179.77 209.01M179.77 209.01L177.86 200"
fill="none" stroke="black" stroke-width="3"/>
</g>
<g><path d="M175.85 200L177.68 190.76M177.68 190.76L182.92 182.92M182.92 182.92L190.76 177.68M190.76 177.68L200 175.85M200 175.85L209.24 177.68M209.24 177.68L217.08 182.92M217.08 182.92L222.32 190.76M222.32 190.76L224.15 200M224.15 200L222.32 209.24M222.32 209.24L217.08 217.08M217.08 217.08L209.24 222.32M209.24 222.32L200 224.15M200 224.15L190.76 222.32M190.76 222.32L182.92 217.08M182.92 217.08L177.68 209.24M177.68 209.24L175.85 200"
fill="none" stroke="black" stroke-width="3"/>
</g>
<g><path d="M173.83 200L175.6 190.55M175.6 190.55L180.66 182.37M180.66 182.37L188.34 176.58M188.34 176.58L197.59 173.94M197.59 173.94L207.16 174.83M207.16 174.83L215.77 179.12M215.77 179.12L222.25 186.22M222.25 186.22L225.72 195.19M225.72 195.19L225.72 204.81M225.72 204.81L222.25 213.78M222.25 213.78L215.77 220.88M215.77 220.88L207.16 225.17M207.16 225.17L197.59 226.06M197.59 226.06L188.34 223.42M188.34 223.42L180.66 217.63M180.66 217.63L175.6 209.45M175.6 209.45L173.83 200"
fill="none" stroke="black" stroke-width="3"/>
</g>
<g><path d="M171.82 200L173.72 189.82M173.72 189.82L179.17 181.01M179.17 181.01L187.44 174.77M187.44 174.77L197.4 171.94M197.4 171.94L207.71 172.9M207.71 172.9L216.98 177.51M216.98 177.51L223.96 185.16M223.96 185.16L227.7 194.82M227.7 194.82L227.7 205.18M227.7 205.18L223.96 214.84M223.96 214.84L216.98 222.49M216.98 222.49L207.71 227.1M207.71 227.1L197.4 228.06M197.4 228.06L187.44 225.23M187.44 225.23L179.17 218.99M179.17 218.99L173.72 210.18M173.72 210.18L171.82 200"
fill="none" stroke="black" stroke-width="3"/>
</g>
<g><path d="M169.81 200L171.63 189.67M171.63 189.67L176.87 180.59M176.87 180.59L184.9 173.85M184.9 173.85L194.76 170.27M194.76 170.27L205.24 170.27M205.24 170.27L215.1 173.85M215.1 173.85L223.13 180.59M223.13 180.59L228.37 189.67M228.37 189.67L230.19 200M230.19 200L228.37 210.33M228.37 210.33L223.13 219.41M223.13 219.41L215.1 226.15M215.1 226.15L205.24 229.73M205.24 229.73L194.76 229.73M194.76 229.73L184.9 226.15M184.9 226.15L176.87 219.41M176.87 219.41L171.63 210.33M171.63 210.33L169.81 200"
fill="none" stroke="black" stroke-width="3"/>
</g>
<g><path d="M167.79 200L169.74 188.98M169.74 188.98L175.33 179.3M175.33 179.3L183.9 172.11M183.9 172.11L194.41 168.28M194.41 168.28L205.59 168.28M205.59 168.28L216.1 172.11M216.1 172.11L224.67 179.3M224.67 179.3L230.26 188.98M230.26 188.98L232.21 200M232.21 200L230.26 211.02M230.26 211.02L224.67 220.7M224.67 220.7L216.1 227.89M216.1 227.89L205.59 231.72M205.59 231.72L194.41 231.72M194.41 231.72L183.9 227.89M183.9 227.89L175.33 220.7M175.33 220.7L169.74 211.02M169.74 211.02L167.79 200"
fill="none" stroke="black" stroke-width="3"/>
</g>
<g><path d="M165.78 200L167.63 188.89M167.63 188.89L173 178.98M173 178.98L181.28 171.35M181.28 171.35L191.6 166.83M191.6 166.83L202.83 165.9M202.83 165.9L213.75 168.66M213.75 168.66L223.18 174.82M223.18 174.82L230.09 183.71M230.09 183.71L233.75 194.37M233.75 194.37L233.75 205.63M233.75 205.63L230.09 216.29M230.09 216.29L223.18 225.18M223.18 225.18L213.75 231.34M213.75 231.34L202.83 234.1M202.83 234.1L191.6 233.17M191.6 233.17L181.28 228.65M181.28 228.65L173 221.02M173 221.02L167.63 211.11M167.63 211.11L165.78 200"
fill="none" stroke="black" stroke-width="3"/>
</g>
<g><path d="M163.77 200L165.73 188.24M165.73 188.24L171.41 177.75M171.41 177.75L180.18 169.67M180.18 169.67L191.11 164.88M191.11 164.88L202.99 163.89M202.99 163.89L214.55 166.82M214.55 166.82L224.54 173.34M224.54 173.34L231.87 182.76M231.87 182.76L235.74 194.04M235.74 194.04L235.74 205.96M235.74 205.96L231.87 217.24M231.87 217.24L224.54 226.66M224.54 226.66L214.55 233.18M214.55 233.18L202.99 236.11M202.99 236.11L191.11 235.12M191.11 235.12L180.18 230.33M180.18 230.33L171.41 222.25M171.41 222.25L165.73 211.76M165.73 211.76L163.77 200"
fill="none" stroke="black" stroke-width="3"/>
</g>
<g><path d="M161.75 200L163.63 188.18M163.63 188.18L169.06 177.52M169.06 177.52L177.52 169.06M177.52 169.06L188.18 163.63M188.18 163.63L200 161.75M200 161.75L211.82 163.63M211.82 163.63L222.48 169.06M222.48 169.06L230.94 177.52M230.94 177.52L236.37 188.18M236.37 188.18L238.25 200M238.25 200L236.37 211.82M236.37 211.82L230.94 222.48M230.94 222.48L222.48 230.94M222.48 230.94L211.82 236.37M211.82 236.37L200 238.25M200 238.25L188.18 236.37M188.18 236.37L177.52 230.94M177.52 230.94L169.06 222.48M169.06 222.48L163.63 211.82M163.63 211.82L161.75 200"
fill="none" stroke="black" stroke-width="3"/>
</g>
<g><path d="M159.74 200L161.71 187.56M161.71 187.56L167.43 176.34M167.43 176.34L176.34 167.43M176.34 167.43L187.56 161.71M187.56 161.71L200 159.74M200 159.74L212.44 161.71M212.44 161.71L223.66 167.43M223.66 167.43L232.57 176.34M232.57 176.34L238.29 187.56M238.29 187.56L240.26 200M240.26 200L238.29 212.44M238.29 212.44L232.57 223.66M232.57 223.66L223.66 232.57M223.66 232.57L212.44 238.29M212.44 238.29L200 240.26M200 240.26L187.56 238.29M187.56 238.29L176.34 232.57M176.34 232.57L167.43 223.66M167.43 223.66L161.71 212.44M161.71 212.44L159.74 200"
fill="none" stroke="black" stroke-width="3"/>
</g>
<g><path d="M0.73 342.33L29.2 370.8"
fill="none" stroke="black" stroke-width="3"/>
</g>
<g><path d="M171.53 228.47L29.2 370.8"
fill="none" stroke="black" stroke-width="3"/>
</g>
<g><path d="M36.32 306.75L64.78 335.22"
fill="none" stroke="black" stroke-width="3"/>
</g>
<g><path d="M197.99 200L198.58 198.58M198.58 198.58L200 197.99M200 197.99L201.42 198.58M201.42 198.58L202.01 200M202.01 200L201.42 201.42M201.42 201.42L200 202.01M200 202.01L198.58 201.42M198.58 201.42L197.99 200"
fill="none" stroke="black" stroke-width="3"/>
</g>
<g><path d="M195.97 200L197.15 197.15M197.15 197.15L200 195.97M200 195.97L202.85 197.15M202.85 197.15L204.03 200M204.03 200L202.85 202.85M202.85 202.85L200 204.03M200 204.03L197.15 202.85M197.15 202.85L195.97 200"
fill="none" stroke="black" stroke-width="3"/>
</g>
<g><path d="M193.96 200L195.73 195.73M195.73 195.73L200 193.96M200 193.96L204.27 195.73M204.27 195.73L206.04 200M206.04 200L204.27 204.27M204.27 204.27L200 206.04M200 206.04L195.73 204.27M195.73 204.27L193.96 200"
fill="none" stroke="black" stroke-width="3"/>
</g>
<g><path d="M191.95 200L193.83 194.82M193.83 194.82L198.6 192.07M198.6 192.07L204.03 193.03M204.03 193.03L207.57 197.25M207.57 197.25L207.57 202.75M207.57 202.75L204.03 206.97M204.03 206.97L198.6 207.93M198.6 207.93L193.83 205.18M193.83 205.18L191.95 200"
fill="none" stroke="black" stroke-width="3"/>
</g>
<g><path d="M189.94 200L191.86 194.08M191.86 194.08L196.89 190.43M196.89 190.43L203.11 190.43M203.11 190.43L208.14 194.08M208.14 194.08L210.06 200M210.06 200L208.14 205.92M208.14 205.92L203.11 209.57M203.11 209.57L196.89 209.57M196.89 209.57L191.86 205.92M191.86 205.92L189.94 200"
fill="none" stroke="black" stroke-width="3"/>
</g>
<g><path d="M187.92 200L189.84 193.47M189.84 193.47L194.98 189.01M194.98 189.01L201.72 188.05M201.72 188.05L207.91 190.87M207.91 190.87L211.59 196.6M211.59 196.6L211.59 203.4M211.59 203.4L207.91 209.13M207.91 209.13L201.72 211.95M201.72 211.95L194.98 210.99M194.98 210.99L189.84 206.53M189.84 206.53L187.92 200"
fill="none" stroke="black" stroke-width="3"/>
</g>
<g><path d="M228.47 171.53L370.8 29.2"
fill="none" stroke="black" stroke-width="3"/>
</g>
<g><path d="M370.8 29.2L399.27 57.67"
fill="none" stroke="black" stroke-width="3"/>
</g>
<g><path d="M335.22 64.78L363.68 93.25"
fill="none" stroke="black" stroke-width="3"/>
</g>
<g><path d="M71.9 271.17L100.37 299.63"
fill="none" stroke="black" stroke-width="3"/>
</g>
<g><path d="M299.63 100.37L328.1 128.83"
fill="none" stroke="black" stroke-width="3"/>
</g>
</g>
</svg>
