<?xml version="1.0" standalone="no"?><svg xmlns="http://www.w3.org/2000/svg" width="400.000" height="400.000" viewBox="0.0 0.0 400.000 400.000" version="1.1">
  <title>Produce by Acme CAD Converter</title>
  <desc>Produce by Acme CAD Converter</desc>
<g id="0" display="visible">
<g><path d="M228.47 171.53L370.8 29.2"
fill="none" stroke="black" stroke-width="3"/>
</g>
<g><path d="M171.53 228.47L29.2 370.8"
fill="none" stroke="black" stroke-width="3"/>
</g>
<g><path d="M36.32 306.75L64.78 335.22"
fill="none" stroke="black" stroke-width="3"/>
</g>
<g><path d="M0.73 342.33L29.2 370.8"
fill="none" stroke="black" stroke-width="3"/>
</g>
<g><path d="M159.74 200L161.71 187.56M161.71 187.56L167.43 176.34M167.43 176.34L176.34 167.43M176.34 167.43L187.56 161.71M187.56 161.71L200 159.74M200 159.74L212.44 161.71M212.44 161.71L223.66 167.43M223.66 167.43L232.57 176.34M232.57 176.34L238.29 187.56M238.29 187.56L240.26 200M240.26 200L238.29 212.44M238.29 212.44L232.57 223.66M232.57 223.66L223.66 232.57M223.66 232.57L212.44 238.29M212.44 238.29L200 240.26M200 240.26L187.56 238.29M187.56 238.29L176.34 232.57M176.34 232.57L167.43 223.66M167.43 223.66L161.71 212.44M161.71 212.44L159.74 200"
fill="none" stroke="black" stroke-width="3"/>
</g>
<g><path d="M335.22 64.78L363.68 93.25"
fill="none" stroke="black" stroke-width="3"/>
</g>
<g><path d="M370.8 29.2L399.27 57.67"
fill="none" stroke="black" stroke-width="3"/>
</g>
<g><path d="M299.63 100.37L328.1 128.83"
fill="none" stroke="black" stroke-width="3"/>
</g>
<g><path d="M71.9 271.17L100.37 299.63"
fill="none" stroke="black" stroke-width="3"/>
</g>
</g>
</svg>
