<?xml version="1.0" standalone="no"?><svg xmlns="http://www.w3.org/2000/svg" width="400.000" height="400.000" viewBox="0.0 0.0 400.000 400.000" version="1.1">
  <title>Produce by Acme CAD Converter</title>
  <desc>Produce by Acme CAD Converter</desc>
<g id="0" display="visible">
<g><path d="M399.27 399.27L397.41 372.13M397.41 372.13L391.88 345.51M391.88 345.51L382.77 319.88M382.77 319.88L370.26 295.73M370.26 295.73L354.57 273.51M354.57 273.51L336.01 253.64M336.01 253.64L314.91 236.47M314.91 236.47L291.68 222.34M291.68 222.34L266.73 211.51M266.73 211.51L240.54 204.17M240.54 204.17L213.6 200.46M213.6 200.46L186.4 200.46M186.4 200.46L159.46 204.17M159.46 204.17L133.27 211.51M133.27 211.51L108.32 222.34M108.32 222.34L85.09 236.47M85.09 236.47L63.99 253.64M63.99 253.64L45.43 273.51M45.43 273.51L29.74 295.73M29.74 295.73L17.23 319.88M17.23 319.88L8.12 345.51M8.12 345.51L2.59 372.13M2.59 372.13L0.73 399.27"
fill="none" stroke="black" stroke-width="3"/>
</g>
<g><path d="M0.73 399.27L399.27 399.27"
fill="none" stroke="black" stroke-width="3"/>
</g>
<g><path d="M200 200L0.73 200"
fill="none" stroke="black" stroke-width="3"/>
</g>
<g><path d="M200 200L399.27 200"
fill="none" stroke="black" stroke-width="3"/>
</g>
<g><path d="M200 200L200 0.73"
fill="none" stroke="black" stroke-width="3"/>
</g>
<g><path d="M200 200L200 399.27"
fill="none" stroke="black" stroke-width="3"/>
</g>
</g>
</svg>
