<?xml version="1.0" standalone="no"?><svg xmlns="http://www.w3.org/2000/svg" width="400.000" height="400.000" viewBox="0.0 0.0 400.000 400.000" version="1.1">
  <title>Produce by Acme CAD Converter</title>
  <desc>Produce by Acme CAD Converter</desc>
<g id="0" display="visible">
<g><path d="M200 190.51L334.19 56.32"
fill="none" stroke="black" stroke-width="3"/>
</g>
<g><path d="M200 190.51L389.78 190.51"
fill="none" stroke="black" stroke-width="3"/>
</g>
<g><path d="M10.22 399.27L389.78 399.27"
fill="none" stroke="black" stroke-width="3"/>
</g>
<g><path d="M389.78 399.27L387.85 372.26M387.85 372.26L382.09 345.8M382.09 345.8L372.63 320.43M372.63 320.43L359.65 296.67M359.65 296.67L343.42 274.99M343.42 274.99L324.28 255.84M324.28 255.84L302.6 239.62M302.6 239.62L278.84 226.64M278.84 226.64L253.47 217.18M253.47 217.18L227.01 211.42M227.01 211.42L200 209.49M200 209.49L172.99 211.42M172.99 211.42L146.53 217.18M146.53 217.18L121.16 226.64M121.16 226.64L97.4 239.62M97.4 239.62L75.72 255.84M75.72 255.84L56.58 274.99M56.58 274.99L40.35 296.67M40.35 296.67L27.37 320.43M27.37 320.43L17.91 345.8M17.91 345.8L12.15 372.26M12.15 372.26L10.22 399.27"
fill="none" stroke="black" stroke-width="3"/>
</g>
<g><path d="M200 190.51L200 0.73"
fill="none" stroke="black" stroke-width="3"/>
</g>
<g><path d="M181.02 190.51L182.9 182.28M182.9 182.28L188.17 175.67M188.17 175.67L195.78 172.01M195.78 172.01L204.22 172.01M204.22 172.01L211.83 175.67M211.83 175.67L217.1 182.28M217.1 182.28L218.98 190.51M218.98 190.51L217.1 198.75M217.1 198.75L211.83 205.35M211.83 205.35L204.22 209.01M204.22 209.01L195.78 209.01M195.78 209.01L188.17 205.35M188.17 205.35L182.9 198.75M182.9 198.75L181.02 190.51"
fill="none" stroke="black" stroke-width="3"/>
</g>
<g><path d="M184.82 190.51L186.56 183.46M186.56 183.46L191.38 178.02M191.38 178.02L198.17 175.44M198.17 175.44L205.38 176.32M205.38 176.32L211.36 180.44M211.36 180.44L214.74 186.88M214.74 186.88L214.74 194.14M214.74 194.14L211.36 200.58M211.36 200.58L205.38 204.71M205.38 204.71L198.17 205.58M198.17 205.58L191.38 203.01M191.38 203.01L186.56 197.57M186.56 197.57L184.82 190.51"
fill="none" stroke="black" stroke-width="3"/>
</g>
<g><path d="M188.61 190.51L190.42 184.36M190.42 184.36L195.27 180.15M195.27 180.15L201.62 179.24M201.62 179.24L207.46 181.91M207.46 181.91L210.93 187.3M210.93 187.3L210.93 193.72M210.93 193.72L207.46 199.12M207.46 199.12L201.62 201.78M201.62 201.78L195.27 200.87M195.27 200.87L190.42 196.67M190.42 196.67L188.61 190.51"
fill="none" stroke="black" stroke-width="3"/>
</g>
<g><path d="M192.41 190.51L194.18 185.63M194.18 185.63L198.68 183.04M198.68 183.04L203.8 183.94M203.8 183.94L207.13 187.91M207.13 187.91L207.13 193.11M207.13 193.11L203.8 197.09M203.8 197.09L198.68 197.99M198.68 197.99L194.18 195.39M194.18 195.39L192.41 190.51"
fill="none" stroke="black" stroke-width="3"/>
</g>
<g><path d="M196.2 190.51L197.32 187.83M197.32 187.83L200 186.72M200 186.72L202.68 187.83M202.68 187.83L203.8 190.51M203.8 190.51L202.68 193.19M202.68 193.19L200 194.31M200 194.31L197.32 193.19M197.32 193.19L196.2 190.51"
fill="none" stroke="black" stroke-width="3"/>
</g>
<g><path d="M200 190.51L65.81 56.32"
fill="none" stroke="black" stroke-width="3"/>
</g>
<g><path d="M203.8 190.55L14.02 190.55"
fill="none" stroke="black" stroke-width="3"/>
</g>
<g><path d="M173.6 211.33L226.4 211.33"
fill="none" stroke="black" stroke-width="3"/>
</g>
<g><path d="M160.04 213.74L239.96 213.74"
fill="none" stroke="black" stroke-width="3"/>
</g>
<g><path d="M150.14 216.15L249.86 216.15"
fill="none" stroke="black" stroke-width="3"/>
</g>
<g><path d="M142.01 218.56L257.99 218.56"
fill="none" stroke="black" stroke-width="3"/>
</g>
<g><path d="M134.98 220.98L265.02 220.98"
fill="none" stroke="black" stroke-width="3"/>
</g>
<g><path d="M128.72 223.39L271.28 223.39"
fill="none" stroke="black" stroke-width="3"/>
</g>
<g><path d="M123.04 225.8L276.96 225.8"
fill="none" stroke="black" stroke-width="3"/>
</g>
<g><path d="M117.82 228.21L282.18 228.21"
fill="none" stroke="black" stroke-width="3"/>
</g>
<g><path d="M112.98 230.62L287.02 230.62"
fill="none" stroke="black" stroke-width="3"/>
</g>
<g><path d="M108.46 233.03L291.54 233.03"
fill="none" stroke="black" stroke-width="3"/>
</g>
<g><path d="M104.21 235.44L295.79 235.44"
fill="none" stroke="black" stroke-width="3"/>
</g>
<g><path d="M100.2 237.85L299.8 237.85"
fill="none" stroke="black" stroke-width="3"/>
</g>
<g><path d="M96.41 240.26L303.59 240.26"
fill="none" stroke="black" stroke-width="3"/>
</g>
<g><path d="M92.8 242.67L307.2 242.67"
fill="none" stroke="black" stroke-width="3"/>
</g>
<g><path d="M89.36 245.08L310.64 245.08"
fill="none" stroke="black" stroke-width="3"/>
</g>
<g><path d="M86.08 247.49L313.92 247.49"
fill="none" stroke="black" stroke-width="3"/>
</g>
<g><path d="M82.93 249.9L317.07 249.9"
fill="none" stroke="black" stroke-width="3"/>
</g>
<g><path d="M79.92 252.31L320.08 252.31"
fill="none" stroke="black" stroke-width="3"/>
</g>
<g><path d="M77.03 254.72L322.97 254.72"
fill="none" stroke="black" stroke-width="3"/>
</g>
<g><path d="M74.25 257.13L325.75 257.13"
fill="none" stroke="black" stroke-width="3"/>
</g>
<g><path d="M71.58 259.54L328.42 259.54"
fill="none" stroke="black" stroke-width="3"/>
</g>
<g><path d="M69.01 261.95L330.99 261.95"
fill="none" stroke="black" stroke-width="3"/>
</g>
<g><path d="M66.53 264.36L333.47 264.36"
fill="none" stroke="black" stroke-width="3"/>
</g>
<g><path d="M64.13 266.77L335.87 266.77"
fill="none" stroke="black" stroke-width="3"/>
</g>
<g><path d="M61.82 269.18L338.18 269.18"
fill="none" stroke="black" stroke-width="3"/>
</g>
<g><path d="M59.59 271.59L340.41 271.59"
fill="none" stroke="black" stroke-width="3"/>
</g>
<g><path d="M57.44 274L342.56 274"
fill="none" stroke="black" stroke-width="3"/>
</g>
<g><path d="M55.36 276.41L344.64 276.41"
fill="none" stroke="black" stroke-width="3"/>
</g>
<g><path d="M53.34 278.82L346.66 278.82"
fill="none" stroke="black" stroke-width="3"/>
</g>
<g><path d="M51.4 281.23L348.6 281.23"
fill="none" stroke="black" stroke-width="3"/>
</g>
<g><path d="M49.51 283.64L350.49 283.64"
fill="none" stroke="black" stroke-width="3"/>
</g>
<g><path d="M47.69 286.05L352.31 286.05"
fill="none" stroke="black" stroke-width="3"/>
</g>
<g><path d="M45.93 288.46L354.07 288.46"
fill="none" stroke="black" stroke-width="3"/>
</g>
<g><path d="M44.23 290.87L355.77 290.87"
fill="none" stroke="black" stroke-width="3"/>
</g>
<g><path d="M42.58 293.28L357.42 293.28"
fill="none" stroke="black" stroke-width="3"/>
</g>
<g><path d="M40.98 295.69L359.02 295.69"
fill="none" stroke="black" stroke-width="3"/>
</g>
<g><path d="M39.44 298.1L360.56 298.1"
fill="none" stroke="black" stroke-width="3"/>
</g>
<g><path d="M37.94 300.51L362.06 300.51"
fill="none" stroke="black" stroke-width="3"/>
</g>
<g><path d="M36.5 302.92L363.5 302.92"
fill="none" stroke="black" stroke-width="3"/>
</g>
<g><path d="M35.1 305.33L364.9 305.33"
fill="none" stroke="black" stroke-width="3"/>
</g>
<g><path d="M33.75 307.74L366.25 307.74"
fill="none" stroke="black" stroke-width="3"/>
</g>
<g><path d="M32.45 310.15L367.55 310.15"
fill="none" stroke="black" stroke-width="3"/>
</g>
<g><path d="M31.19 312.56L368.81 312.56"
fill="none" stroke="black" stroke-width="3"/>
</g>
<g><path d="M29.97 314.97L370.03 314.97"
fill="none" stroke="black" stroke-width="3"/>
</g>
<g><path d="M28.8 317.38L371.2 317.38"
fill="none" stroke="black" stroke-width="3"/>
</g>
<g><path d="M27.66 319.79L372.34 319.79"
fill="none" stroke="black" stroke-width="3"/>
</g>
<g><path d="M26.57 322.2L373.43 322.2"
fill="none" stroke="black" stroke-width="3"/>
</g>
<g><path d="M25.52 324.61L374.48 324.61"
fill="none" stroke="black" stroke-width="3"/>
</g>
<g><path d="M24.51 327.02L375.49 327.02"
fill="none" stroke="black" stroke-width="3"/>
</g>
<g><path d="M23.54 329.43L376.46 329.43"
fill="none" stroke="black" stroke-width="3"/>
</g>
<g><path d="M22.6 331.84L377.4 331.84"
fill="none" stroke="black" stroke-width="3"/>
</g>
<g><path d="M21.71 334.25L378.29 334.25"
fill="none" stroke="black" stroke-width="3"/>
</g>
<g><path d="M20.85 336.66L379.15 336.66"
fill="none" stroke="black" stroke-width="3"/>
</g>
<g><path d="M20.02 339.07L379.98 339.07"
fill="none" stroke="black" stroke-width="3"/>
</g>
<g><path d="M19.23 341.48L380.77 341.48"
fill="none" stroke="black" stroke-width="3"/>
</g>
<g><path d="M18.48 343.89L381.52 343.89"
fill="none" stroke="black" stroke-width="3"/>
</g>
<g><path d="M17.76 346.3L382.24 346.3"
fill="none" stroke="black" stroke-width="3"/>
</g>
<g><path d="M17.08 348.71L382.92 348.71"
fill="none" stroke="black" stroke-width="3"/>
</g>
<g><path d="M16.43 351.12L383.57 351.12"
fill="none" stroke="black" stroke-width="3"/>
</g>
<g><path d="M15.81 353.53L384.19 353.53"
fill="none" stroke="black" stroke-width="3"/>
</g>
<g><path d="M15.23 355.95L384.77 355.95"
fill="none" stroke="black" stroke-width="3"/>
</g>
<g><path d="M14.68 358.36L385.32 358.36"
fill="none" stroke="black" stroke-width="3"/>
</g>
<g><path d="M14.17 360.77L385.83 360.77"
fill="none" stroke="black" stroke-width="3"/>
</g>
<g><path d="M13.69 363.18L386.31 363.18"
fill="none" stroke="black" stroke-width="3"/>
</g>
<g><path d="M13.23 365.59L386.77 365.59"
fill="none" stroke="black" stroke-width="3"/>
</g>
<g><path d="M12.82 368L387.18 368"
fill="none" stroke="black" stroke-width="3"/>
</g>
<g><path d="M12.43 370.41L387.57 370.41"
fill="none" stroke="black" stroke-width="3"/>
</g>
<g><path d="M12.07 372.82L387.93 372.82"
fill="none" stroke="black" stroke-width="3"/>
</g>
<g><path d="M11.75 375.23L388.25 375.23"
fill="none" stroke="black" stroke-width="3"/>
</g>
<g><path d="M11.46 377.64L388.54 377.64"
fill="none" stroke="black" stroke-width="3"/>
</g>
<g><path d="M11.2 380.05L388.8 380.05"
fill="none" stroke="black" stroke-width="3"/>
</g>
<g><path d="M10.97 382.46L389.03 382.46"
fill="none" stroke="black" stroke-width="3"/>
</g>
<g><path d="M10.77 384.87L389.23 384.87"
fill="none" stroke="black" stroke-width="3"/>
</g>
<g><path d="M10.6 387.28L389.4 387.28"
fill="none" stroke="black" stroke-width="3"/>
</g>
<g><path d="M10.46 389.69L389.54 389.69"
fill="none" stroke="black" stroke-width="3"/>
</g>
<g><path d="M10.36 392.1L389.64 392.1"
fill="none" stroke="black" stroke-width="3"/>
</g>
<g><path d="M10.28 394.51L389.72 394.51"
fill="none" stroke="black" stroke-width="3"/>
</g>
<g><path d="M10.24 396.92L389.76 396.92"
fill="none" stroke="black" stroke-width="3"/>
</g>
</g>
</svg>
