<?xml version="1.0" standalone="no"?><svg xmlns="http://www.w3.org/2000/svg" width="400.000" height="400.000" viewBox="0.0 0.0 400.000 400.000" version="1.1">
  <title>Produce by Acme CAD Converter</title>
  <desc>Produce by Acme CAD Converter</desc>
<g id="0" display="visible">
<g><path d="M200 200L200 0.73"
fill="none" stroke="black" stroke-width="3"/>
</g>
<g><path d="M399.27 399.27L397.41 372.13M397.41 372.13L391.88 345.51M391.88 345.51L382.77 319.88M382.77 319.88L370.26 295.73M370.26 295.73L354.57 273.51M354.57 273.51L336.01 253.64M336.01 253.64L314.91 236.47M314.91 236.47L291.68 222.34M291.68 222.34L266.73 211.51M266.73 211.51L240.54 204.17M240.54 204.17L213.6 200.46M213.6 200.46L186.4 200.46M186.4 200.46L159.46 204.17M159.46 204.17L133.27 211.51M133.27 211.51L108.32 222.34M108.32 222.34L85.09 236.47M85.09 236.47L63.99 253.64M63.99 253.64L45.43 273.51M45.43 273.51L29.74 295.73M29.74 295.73L17.23 319.88M17.23 319.88L8.12 345.51M8.12 345.51L2.59 372.13M2.59 372.13L0.73 399.27"
fill="none" stroke="black" stroke-width="3"/>
</g>
<g><path d="M0.73 399.27L399.27 399.27"
fill="none" stroke="black" stroke-width="3"/>
</g>
<g><path d="M179.07 201.1L220.93 201.1"
fill="none" stroke="black" stroke-width="3"/>
</g>
<g><path d="M162.12 203.63L237.88 203.63"
fill="none" stroke="black" stroke-width="3"/>
</g>
<g><path d="M150.82 206.16L249.18 206.16"
fill="none" stroke="black" stroke-width="3"/>
</g>
<g><path d="M141.78 208.69L258.22 208.69"
fill="none" stroke="black" stroke-width="3"/>
</g>
<g><path d="M134.06 211.22L265.94 211.22"
fill="none" stroke="black" stroke-width="3"/>
</g>
<g><path d="M127.25 213.76L272.75 213.76"
fill="none" stroke="black" stroke-width="3"/>
</g>
<g><path d="M121.1 216.29L278.9 216.29"
fill="none" stroke="black" stroke-width="3"/>
</g>
<g><path d="M115.47 218.82L284.53 218.82"
fill="none" stroke="black" stroke-width="3"/>
</g>
<g><path d="M110.27 221.35L289.73 221.35"
fill="none" stroke="black" stroke-width="3"/>
</g>
<g><path d="M105.42 223.88L294.58 223.88"
fill="none" stroke="black" stroke-width="3"/>
</g>
<g><path d="M100.87 226.41L299.13 226.41"
fill="none" stroke="black" stroke-width="3"/>
</g>
<g><path d="M96.58 228.94L303.42 228.94"
fill="none" stroke="black" stroke-width="3"/>
</g>
<g><path d="M92.52 231.47L307.48 231.47"
fill="none" stroke="black" stroke-width="3"/>
</g>
<g><path d="M88.67 234L311.33 234"
fill="none" stroke="black" stroke-width="3"/>
</g>
<g><path d="M85 236.53L315 236.53"
fill="none" stroke="black" stroke-width="3"/>
</g>
<g><path d="M81.5 239.06L318.5 239.06"
fill="none" stroke="black" stroke-width="3"/>
</g>
<g><path d="M78.15 241.59L321.85 241.59"
fill="none" stroke="black" stroke-width="3"/>
</g>
<g><path d="M74.95 244.12L325.05 244.12"
fill="none" stroke="black" stroke-width="3"/>
</g>
<g><path d="M71.87 246.65L328.13 246.65"
fill="none" stroke="black" stroke-width="3"/>
</g>
<g><path d="M68.92 249.19L331.08 249.19"
fill="none" stroke="black" stroke-width="3"/>
</g>
<g><path d="M66.07 251.72L333.93 251.72"
fill="none" stroke="black" stroke-width="3"/>
</g>
<g><path d="M63.34 254.25L336.66 254.25"
fill="none" stroke="black" stroke-width="3"/>
</g>
<g><path d="M60.7 256.78L339.3 256.78"
fill="none" stroke="black" stroke-width="3"/>
</g>
<g><path d="M58.16 259.31L341.84 259.31"
fill="none" stroke="black" stroke-width="3"/>
</g>
<g><path d="M55.71 261.84L344.29 261.84"
fill="none" stroke="black" stroke-width="3"/>
</g>
<g><path d="M53.34 264.37L346.66 264.37"
fill="none" stroke="black" stroke-width="3"/>
</g>
<g><path d="M51.05 266.9L348.95 266.9"
fill="none" stroke="black" stroke-width="3"/>
</g>
<g><path d="M48.84 269.43L351.16 269.43"
fill="none" stroke="black" stroke-width="3"/>
</g>
<g><path d="M46.7 271.96L353.3 271.96"
fill="none" stroke="black" stroke-width="3"/>
</g>
<g><path d="M44.63 274.49L355.37 274.49"
fill="none" stroke="black" stroke-width="3"/>
</g>
<g><path d="M42.64 277.02L357.36 277.02"
fill="none" stroke="black" stroke-width="3"/>
</g>
<g><path d="M40.7 279.55L359.3 279.55"
fill="none" stroke="black" stroke-width="3"/>
</g>
<g><path d="M38.83 282.08L361.17 282.08"
fill="none" stroke="black" stroke-width="3"/>
</g>
<g><path d="M37.02 284.61L362.98 284.61"
fill="none" stroke="black" stroke-width="3"/>
</g>
<g><path d="M35.27 287.15L364.73 287.15"
fill="none" stroke="black" stroke-width="3"/>
</g>
<g><path d="M33.58 289.68L366.42 289.68"
fill="none" stroke="black" stroke-width="3"/>
</g>
<g><path d="M31.94 292.21L368.06 292.21"
fill="none" stroke="black" stroke-width="3"/>
</g>
<g><path d="M30.35 294.74L369.65 294.74"
fill="none" stroke="black" stroke-width="3"/>
</g>
<g><path d="M28.82 297.27L371.18 297.27"
fill="none" stroke="black" stroke-width="3"/>
</g>
<g><path d="M27.33 299.8L372.67 299.8"
fill="none" stroke="black" stroke-width="3"/>
</g>
<g><path d="M25.9 302.33L374.1 302.33"
fill="none" stroke="black" stroke-width="3"/>
</g>
<g><path d="M24.52 304.86L375.48 304.86"
fill="none" stroke="black" stroke-width="3"/>
</g>
<g><path d="M23.18 307.39L376.82 307.39"
fill="none" stroke="black" stroke-width="3"/>
</g>
<g><path d="M21.89 309.92L378.11 309.92"
fill="none" stroke="black" stroke-width="3"/>
</g>
<g><path d="M20.64 312.45L379.36 312.45"
fill="none" stroke="black" stroke-width="3"/>
</g>
<g><path d="M19.44 314.98L380.56 314.98"
fill="none" stroke="black" stroke-width="3"/>
</g>
<g><path d="M18.28 317.51L381.72 317.51"
fill="none" stroke="black" stroke-width="3"/>
</g>
<g><path d="M17.16 320.04L382.84 320.04"
fill="none" stroke="black" stroke-width="3"/>
</g>
<g><path d="M16.08 322.58L383.92 322.58"
fill="none" stroke="black" stroke-width="3"/>
</g>
<g><path d="M15.05 325.11L384.95 325.11"
fill="none" stroke="black" stroke-width="3"/>
</g>
<g><path d="M14.05 327.64L385.95 327.64"
fill="none" stroke="black" stroke-width="3"/>
</g>
<g><path d="M13.1 330.17L386.9 330.17"
fill="none" stroke="black" stroke-width="3"/>
</g>
<g><path d="M12.18 332.7L387.82 332.7"
fill="none" stroke="black" stroke-width="3"/>
</g>
<g><path d="M11.3 335.23L388.7 335.23"
fill="none" stroke="black" stroke-width="3"/>
</g>
<g><path d="M10.46 337.76L389.54 337.76"
fill="none" stroke="black" stroke-width="3"/>
</g>
<g><path d="M9.66 340.29L390.34 340.29"
fill="none" stroke="black" stroke-width="3"/>
</g>
<g><path d="M8.9 342.82L391.1 342.82"
fill="none" stroke="black" stroke-width="3"/>
</g>
<g><path d="M8.17 345.35L391.83 345.35"
fill="none" stroke="black" stroke-width="3"/>
</g>
<g><path d="M7.47 347.88L392.53 347.88"
fill="none" stroke="black" stroke-width="3"/>
</g>
<g><path d="M6.81 350.41L393.19 350.41"
fill="none" stroke="black" stroke-width="3"/>
</g>
<g><path d="M6.19 352.94L393.81 352.94"
fill="none" stroke="black" stroke-width="3"/>
</g>
<g><path d="M5.6 355.47L394.4 355.47"
fill="none" stroke="black" stroke-width="3"/>
</g>
<g><path d="M5.05 358L394.95 358"
fill="none" stroke="black" stroke-width="3"/>
</g>
<g><path d="M4.53 360.54L395.47 360.54"
fill="none" stroke="black" stroke-width="3"/>
</g>
<g><path d="M4.05 363.07L395.95 363.07"
fill="none" stroke="black" stroke-width="3"/>
</g>
<g><path d="M3.6 365.6L396.4 365.6"
fill="none" stroke="black" stroke-width="3"/>
</g>
<g><path d="M3.18 368.13L396.82 368.13"
fill="none" stroke="black" stroke-width="3"/>
</g>
<g><path d="M2.8 370.66L397.2 370.66"
fill="none" stroke="black" stroke-width="3"/>
</g>
<g><path d="M2.45 373.19L397.55 373.19"
fill="none" stroke="black" stroke-width="3"/>
</g>
<g><path d="M2.13 375.72L397.87 375.72"
fill="none" stroke="black" stroke-width="3"/>
</g>
<g><path d="M1.84 378.25L398.16 378.25"
fill="none" stroke="black" stroke-width="3"/>
</g>
<g><path d="M1.59 380.78L398.41 380.78"
fill="none" stroke="black" stroke-width="3"/>
</g>
<g><path d="M1.37 383.31L398.63 383.31"
fill="none" stroke="black" stroke-width="3"/>
</g>
<g><path d="M1.19 385.84L398.81 385.84"
fill="none" stroke="black" stroke-width="3"/>
</g>
<g><path d="M1.03 388.37L398.97 388.37"
fill="none" stroke="black" stroke-width="3"/>
</g>
<g><path d="M0.91 390.9L399.09 390.9"
fill="none" stroke="black" stroke-width="3"/>
</g>
<g><path d="M0.82 393.43L399.18 393.43"
fill="none" stroke="black" stroke-width="3"/>
</g>
<g><path d="M0.76 395.97L399.24 395.97"
fill="none" stroke="black" stroke-width="3"/>
</g>
<g><path d="M0.73 398.5L399.27 398.5"
fill="none" stroke="black" stroke-width="3"/>
</g>
</g>
</svg>
