<?xml version="1.0" standalone="no"?><svg xmlns="http://www.w3.org/2000/svg" width="400.000" height="400.000" viewBox="0.0 0.0 400.000 400.000" version="1.1">
  <title>Produce by Acme CAD Converter</title>
  <desc>Produce by Acme CAD Converter</desc>
<g id="0" display="visible">
<g><path d="M255.51 222.76L340.43 75.66"
fill="none" stroke="black" stroke-width="3"/>
</g>
<g><path d="M0.73 369.85L340.43 369.85"
fill="none" stroke="black" stroke-width="3"/>
</g>
<g><path d="M340.43 369.85L338.53 344.53M338.53 344.53L332.88 319.78M332.88 319.78L323.61 296.15M323.61 296.15L310.92 274.17M310.92 274.17L295.09 254.32M295.09 254.32L276.48 237.06M276.48 237.06L255.51 222.76M255.51 222.76L232.63 211.74M232.63 211.74L208.38 204.26M208.38 204.26L183.27 200.47M183.27 200.47L157.89 200.47M157.89 200.47L132.79 204.26M132.79 204.26L108.53 211.74M108.53 211.74L85.66 222.76M85.66 222.76L64.68 237.06M64.68 237.06L46.07 254.32M46.07 254.32L30.25 274.17M30.25 274.17L17.55 296.15M17.55 296.15L8.28 319.78M8.28 319.78L2.63 344.53M2.63 344.53L0.73 369.85"
fill="none" stroke="black" stroke-width="3"/>
</g>
<g><path d="M340.43 75.66L399.27 109.63"
fill="none" stroke="black" stroke-width="3"/>
</g>
<g><path d="M170.58 200L170.58 30.15"
fill="none" stroke="black" stroke-width="3"/>
</g>
</g>
</svg>
