<?xml version="1.0" standalone="no"?><svg xmlns="http://www.w3.org/2000/svg" width="400.000" height="400.000" viewBox="0.0 0.0 400.000 400.000" version="1.1">
  <title>Produce by Acme CAD Converter</title>
  <desc>Produce by Acme CAD Converter</desc>
<g id="0" display="visible">
<g><path d="M399.27 399.27L397.41 372.13M397.41 372.13L391.88 345.51M391.88 345.51L382.77 319.88M382.77 319.88L370.26 295.73M370.26 295.73L354.57 273.51M354.57 273.51L336.01 253.64M336.01 253.64L314.91 236.47M314.91 236.47L291.68 222.34M291.68 222.34L266.73 211.51M266.73 211.51L240.54 204.17M240.54 204.17L213.6 200.46M213.6 200.46L186.4 200.46M186.4 200.46L159.46 204.17M159.46 204.17L133.27 211.51M133.27 211.51L108.32 222.34M108.32 222.34L85.09 236.47M85.09 236.47L63.99 253.64M63.99 253.64L45.43 273.51M45.43 273.51L29.74 295.73M29.74 295.73L17.23 319.88M17.23 319.88L8.12 345.51M8.12 345.51L2.59 372.13M2.59 372.13L0.73 399.27"
fill="none" stroke="black" stroke-width="3"/>
</g>
<g><path d="M0.73 399.27L399.27 399.27"
fill="none" stroke="black" stroke-width="3"/>
</g>
<g><path d="M200 200L399.27 200"
fill="none" stroke="black" stroke-width="3"/>
</g>
<g><path d="M200 200L200 0.73"
fill="none" stroke="black" stroke-width="3"/>
</g>
<g><path d="M200 200L0.73 200"
fill="none" stroke="black" stroke-width="3"/>
</g>
<g><path d="M175.35 201.53L224.65 201.53"
fill="none" stroke="black" stroke-width="3"/>
</g>
<g><path d="M159.98 204.06L240.02 204.06"
fill="none" stroke="black" stroke-width="3"/>
</g>
<g><path d="M149.17 206.59L250.83 206.59"
fill="none" stroke="black" stroke-width="3"/>
</g>
<g><path d="M140.4 209.12L259.6 209.12"
fill="none" stroke="black" stroke-width="3"/>
</g>
<g><path d="M132.86 211.65L267.14 211.65"
fill="none" stroke="black" stroke-width="3"/>
</g>
<g><path d="M126.17 214.18L273.83 214.18"
fill="none" stroke="black" stroke-width="3"/>
</g>
<g><path d="M120.11 216.71L279.89 216.71"
fill="none" stroke="black" stroke-width="3"/>
</g>
<g><path d="M114.56 219.24L285.44 219.24"
fill="none" stroke="black" stroke-width="3"/>
</g>
<g><path d="M109.42 221.78L290.58 221.78"
fill="none" stroke="black" stroke-width="3"/>
</g>
<g><path d="M104.63 224.31L295.37 224.31"
fill="none" stroke="black" stroke-width="3"/>
</g>
<g><path d="M100.12 226.84L299.88 226.84"
fill="none" stroke="black" stroke-width="3"/>
</g>
<g><path d="M95.88 229.37L304.12 229.37"
fill="none" stroke="black" stroke-width="3"/>
</g>
<g><path d="M91.86 231.9L308.14 231.9"
fill="none" stroke="black" stroke-width="3"/>
</g>
<g><path d="M88.04 234.43L311.96 234.43"
fill="none" stroke="black" stroke-width="3"/>
</g>
<g><path d="M84.4 236.96L315.6 236.96"
fill="none" stroke="black" stroke-width="3"/>
</g>
<g><path d="M80.93 239.49L319.07 239.49"
fill="none" stroke="black" stroke-width="3"/>
</g>
<g><path d="M77.6 242.02L322.4 242.02"
fill="none" stroke="black" stroke-width="3"/>
</g>
<g><path d="M74.42 244.55L325.58 244.55"
fill="none" stroke="black" stroke-width="3"/>
</g>
<g><path d="M71.36 247.08L328.64 247.08"
fill="none" stroke="black" stroke-width="3"/>
</g>
<g><path d="M68.43 249.61L331.57 249.61"
fill="none" stroke="black" stroke-width="3"/>
</g>
<g><path d="M65.6 252.14L334.4 252.14"
fill="none" stroke="black" stroke-width="3"/>
</g>
<g><path d="M62.89 254.67L337.11 254.67"
fill="none" stroke="black" stroke-width="3"/>
</g>
<g><path d="M60.27 257.21L339.73 257.21"
fill="none" stroke="black" stroke-width="3"/>
</g>
<g><path d="M57.74 259.74L342.26 259.74"
fill="none" stroke="black" stroke-width="3"/>
</g>
<g><path d="M55.3 262.27L344.7 262.27"
fill="none" stroke="black" stroke-width="3"/>
</g>
<g><path d="M52.95 264.8L347.05 264.8"
fill="none" stroke="black" stroke-width="3"/>
</g>
<g><path d="M50.67 267.33L349.33 267.33"
fill="none" stroke="black" stroke-width="3"/>
</g>
<g><path d="M48.47 269.86L351.53 269.86"
fill="none" stroke="black" stroke-width="3"/>
</g>
<g><path d="M46.35 272.39L353.65 272.39"
fill="none" stroke="black" stroke-width="3"/>
</g>
<g><path d="M44.29 274.92L355.71 274.92"
fill="none" stroke="black" stroke-width="3"/>
</g>
<g><path d="M42.3 277.45L357.7 277.45"
fill="none" stroke="black" stroke-width="3"/>
</g>
<g><path d="M40.38 279.98L359.62 279.98"
fill="none" stroke="black" stroke-width="3"/>
</g>
<g><path d="M38.52 282.51L361.48 282.51"
fill="none" stroke="black" stroke-width="3"/>
</g>
<g><path d="M36.72 285.04L363.28 285.04"
fill="none" stroke="black" stroke-width="3"/>
</g>
<g><path d="M34.98 287.57L365.02 287.57"
fill="none" stroke="black" stroke-width="3"/>
</g>
<g><path d="M33.29 290.1L366.71 290.1"
fill="none" stroke="black" stroke-width="3"/>
</g>
<g><path d="M31.66 292.63L368.34 292.63"
fill="none" stroke="black" stroke-width="3"/>
</g>
<g><path d="M30.09 295.17L369.91 295.17"
fill="none" stroke="black" stroke-width="3"/>
</g>
<g><path d="M28.56 297.7L371.44 297.7"
fill="none" stroke="black" stroke-width="3"/>
</g>
<g><path d="M27.09 300.23L372.91 300.23"
fill="none" stroke="black" stroke-width="3"/>
</g>
<g><path d="M25.66 302.76L374.34 302.76"
fill="none" stroke="black" stroke-width="3"/>
</g>
<g><path d="M24.29 305.29L375.71 305.29"
fill="none" stroke="black" stroke-width="3"/>
</g>
<g><path d="M22.96 307.82L377.04 307.82"
fill="none" stroke="black" stroke-width="3"/>
</g>
<g><path d="M21.67 310.35L378.33 310.35"
fill="none" stroke="black" stroke-width="3"/>
</g>
<g><path d="M20.43 312.88L379.57 312.88"
fill="none" stroke="black" stroke-width="3"/>
</g>
<g><path d="M19.24 315.41L380.76 315.41"
fill="none" stroke="black" stroke-width="3"/>
</g>
<g><path d="M18.08 317.94L381.92 317.94"
fill="none" stroke="black" stroke-width="3"/>
</g>
<g><path d="M16.97 320.47L383.03 320.47"
fill="none" stroke="black" stroke-width="3"/>
</g>
<g><path d="M15.9 323L384.1 323"
fill="none" stroke="black" stroke-width="3"/>
</g>
<g><path d="M14.88 325.53L385.12 325.53"
fill="none" stroke="black" stroke-width="3"/>
</g>
<g><path d="M13.89 328.06L386.11 328.06"
fill="none" stroke="black" stroke-width="3"/>
</g>
<g><path d="M12.94 330.6L387.06 330.6"
fill="none" stroke="black" stroke-width="3"/>
</g>
<g><path d="M12.03 333.13L387.97 333.13"
fill="none" stroke="black" stroke-width="3"/>
</g>
<g><path d="M11.16 335.66L388.84 335.66"
fill="none" stroke="black" stroke-width="3"/>
</g>
<g><path d="M10.33 338.19L389.67 338.19"
fill="none" stroke="black" stroke-width="3"/>
</g>
<g><path d="M9.53 340.72L390.47 340.72"
fill="none" stroke="black" stroke-width="3"/>
</g>
<g><path d="M8.77 343.25L391.23 343.25"
fill="none" stroke="black" stroke-width="3"/>
</g>
<g><path d="M8.05 345.78L391.95 345.78"
fill="none" stroke="black" stroke-width="3"/>
</g>
<g><path d="M7.36 348.31L392.64 348.31"
fill="none" stroke="black" stroke-width="3"/>
</g>
<g><path d="M6.71 350.84L393.29 350.84"
fill="none" stroke="black" stroke-width="3"/>
</g>
<g><path d="M6.09 353.37L393.91 353.37"
fill="none" stroke="black" stroke-width="3"/>
</g>
<g><path d="M5.51 355.9L394.49 355.9"
fill="none" stroke="black" stroke-width="3"/>
</g>
<g><path d="M4.96 358.43L395.04 358.43"
fill="none" stroke="black" stroke-width="3"/>
</g>
<g><path d="M4.45 360.96L395.55 360.96"
fill="none" stroke="black" stroke-width="3"/>
</g>
<g><path d="M3.97 363.49L396.03 363.49"
fill="none" stroke="black" stroke-width="3"/>
</g>
<g><path d="M3.53 366.02L396.47 366.02"
fill="none" stroke="black" stroke-width="3"/>
</g>
<g><path d="M3.11 368.56L396.89 368.56"
fill="none" stroke="black" stroke-width="3"/>
</g>
<g><path d="M2.74 371.09L397.26 371.09"
fill="none" stroke="black" stroke-width="3"/>
</g>
<g><path d="M2.39 373.62L397.61 373.62"
fill="none" stroke="black" stroke-width="3"/>
</g>
<g><path d="M2.08 376.15L397.92 376.15"
fill="none" stroke="black" stroke-width="3"/>
</g>
<g><path d="M1.8 378.68L398.2 378.68"
fill="none" stroke="black" stroke-width="3"/>
</g>
<g><path d="M1.55 381.21L398.45 381.21"
fill="none" stroke="black" stroke-width="3"/>
</g>
<g><path d="M1.34 383.74L398.66 383.74"
fill="none" stroke="black" stroke-width="3"/>
</g>
<g><path d="M1.16 386.27L398.84 386.27"
fill="none" stroke="black" stroke-width="3"/>
</g>
<g><path d="M1.01 388.8L398.99 388.8"
fill="none" stroke="black" stroke-width="3"/>
</g>
<g><path d="M0.89 391.33L399.11 391.33"
fill="none" stroke="black" stroke-width="3"/>
</g>
<g><path d="M0.81 393.86L399.19 393.86"
fill="none" stroke="black" stroke-width="3"/>
</g>
<g><path d="M0.75 396.39L399.25 396.39"
fill="none" stroke="black" stroke-width="3"/>
</g>
<g><path d="M0.73 398.92L399.27 398.92"
fill="none" stroke="black" stroke-width="3"/>
</g>
</g>
</svg>
