<?xml version="1.0" standalone="no"?><svg xmlns="http://www.w3.org/2000/svg" width="400.000" height="400.000" viewBox="0.0 0.0 400.000 400.000" version="1.1">
  <title>Produce by Acme CAD Converter</title>
  <desc>Produce by Acme CAD Converter</desc>
<g id="0" display="visible">
<g><path d="M399.27 399.27L397.41 372.13M397.41 372.13L391.88 345.51M391.88 345.51L382.77 319.88M382.77 319.88L370.26 295.73M370.26 295.73L354.57 273.51M354.57 273.51L336.01 253.64M336.01 253.64L314.91 236.47M314.91 236.47L291.68 222.34M291.68 222.34L266.73 211.51M266.73 211.51L240.54 204.17M240.54 204.17L213.6 200.46M213.6 200.46L186.4 200.46M186.4 200.46L159.46 204.17M159.46 204.17L133.27 211.51M133.27 211.51L108.32 222.34M108.32 222.34L85.09 236.47M85.09 236.47L63.99 253.64M63.99 253.64L45.43 273.51M45.43 273.51L29.74 295.73M29.74 295.73L17.23 319.88M17.23 319.88L8.12 345.51M8.12 345.51L2.59 372.13M2.59 372.13L0.73 399.27"
fill="none" stroke="black" stroke-width="3"/>
</g>
<g><path d="M0.73 399.27L399.27 399.27"
fill="none" stroke="black" stroke-width="3"/>
</g>
<g><path d="M200 200L59.1 59.1"
fill="none" stroke="black" stroke-width="3"/>
</g>
<g><path d="M200 200L340.9 59.1"
fill="none" stroke="black" stroke-width="3"/>
</g>
<g><path d="M200 200L200 0.73"
fill="none" stroke="black" stroke-width="3"/>
</g>
<g><path d="M180.07 200L182.05 191.35M182.05 191.35L187.58 184.42M187.58 184.42L195.57 180.57M195.57 180.57L204.43 180.57M204.43 180.57L212.42 184.42M212.42 184.42L217.95 191.35M217.95 191.35L219.93 200M219.93 200L217.95 208.65M217.95 208.65L212.42 215.58M212.42 215.58L204.43 219.43M204.43 219.43L195.57 219.43M195.57 219.43L187.58 215.58M187.58 215.58L182.05 208.65M182.05 208.65L180.07 200"
fill="none" stroke="black" stroke-width="3"/>
</g>
<g><path d="M184.06 200L185.88 192.59M185.88 192.59L190.94 186.88M190.94 186.88L198.08 184.17M198.08 184.17L205.65 185.09M205.65 185.09L211.93 189.43M211.93 189.43L215.48 196.18M215.48 196.18L215.48 203.82M215.48 203.82L211.93 210.57M211.93 210.57L205.65 214.91M205.65 214.91L198.08 215.83M198.08 215.83L190.94 213.12M190.94 213.12L185.88 207.41M185.88 207.41L184.06 200"
fill="none" stroke="black" stroke-width="3"/>
</g>
<g><path d="M188.04 200L189.94 193.54M189.94 193.54L195.03 189.12M195.03 189.12L201.7 188.17M201.7 188.17L207.83 190.96M207.83 190.96L211.47 196.63M211.47 196.63L211.47 203.37M211.47 203.37L207.83 209.04M207.83 209.04L201.7 211.83M201.7 211.83L195.03 210.88M195.03 210.88L189.94 206.46M189.94 206.46L188.04 200"
fill="none" stroke="black" stroke-width="3"/>
</g>
<g><path d="M192.03 200L193.89 194.88M193.89 194.88L198.62 192.15M198.62 192.15L203.99 193.1M203.99 193.1L207.49 197.27M207.49 197.27L207.49 202.73M207.49 202.73L203.99 206.9M203.99 206.9L198.62 207.85M198.62 207.85L193.89 205.12M193.89 205.12L192.03 200"
fill="none" stroke="black" stroke-width="3"/>
</g>
<g><path d="M196.01 200L197.18 197.18M197.18 197.18L200 196.01M200 196.01L202.82 197.18M202.82 197.18L203.99 200M203.99 200L202.82 202.82M202.82 202.82L200 203.99M200 203.99L197.18 202.82M197.18 202.82L196.01 200"
fill="none" stroke="black" stroke-width="3"/>
</g>
<g><path d="M203.99 200.04L4.72 200.04"
fill="none" stroke="black" stroke-width="3"/>
</g>
<g><path d="M200 200L399.27 200"
fill="none" stroke="black" stroke-width="3"/>
</g>
</g>
</svg>
