<?xml version="1.0" standalone="no"?><svg xmlns="http://www.w3.org/2000/svg" width="400.000" height="400.000" viewBox="0.0 0.0 400.000 400.000" version="1.1">
  <title>Produce by Acme CAD Converter</title>
  <desc>Produce by Acme CAD Converter</desc>
<g id="0" display="visible">
<g><path d="M0.73 100.37L399.27 100.37"
fill="none" stroke="black" stroke-width="3"/>
</g>
<g><path d="M399.27 100.37L399.27 299.63"
fill="none" stroke="black" stroke-width="3"/>
</g>
<g><path d="M399.27 299.63L0.73 299.63"
fill="none" stroke="black" stroke-width="3"/>
</g>
<g><path d="M0.73 299.63L0.73 100.37"
fill="none" stroke="black" stroke-width="3"/>
</g>
<g><path d="M0.73 299.63L200 100.37"
fill="none" stroke="black" stroke-width="3"/>
</g>
<g><path d="M200 100.37L399.27 299.63"
fill="none" stroke="black" stroke-width="3"/>
</g>
<g><path d="M0.73 102.6L2.96 100.37"
fill="none" stroke="black" stroke-width="3"/>
</g>
<g><path d="M0.73 105.58L5.95 100.37"
fill="none" stroke="black" stroke-width="3"/>
</g>
<g><path d="M0.73 108.56L8.93 100.37"
fill="none" stroke="black" stroke-width="3"/>
</g>
<g><path d="M0.73 111.54L11.91 100.37"
fill="none" stroke="black" stroke-width="3"/>
</g>
<g><path d="M0.73 114.53L14.89 100.37"
fill="none" stroke="black" stroke-width="3"/>
</g>
<g><path d="M0.73 117.51L17.88 100.37"
fill="none" stroke="black" stroke-width="3"/>
</g>
<g><path d="M0.73 120.49L20.86 100.37"
fill="none" stroke="black" stroke-width="3"/>
</g>
<g><path d="M0.73 123.47L23.84 100.37"
fill="none" stroke="black" stroke-width="3"/>
</g>
<g><path d="M0.73 126.46L26.82 100.37"
fill="none" stroke="black" stroke-width="3"/>
</g>
<g><path d="M0.73 129.44L29.81 100.37"
fill="none" stroke="black" stroke-width="3"/>
</g>
<g><path d="M0.73 132.42L32.79 100.37"
fill="none" stroke="black" stroke-width="3"/>
</g>
<g><path d="M0.73 135.4L35.77 100.37"
fill="none" stroke="black" stroke-width="3"/>
</g>
<g><path d="M0.73 138.39L38.75 100.37"
fill="none" stroke="black" stroke-width="3"/>
</g>
<g><path d="M0.73 141.37L41.73 100.37"
fill="none" stroke="black" stroke-width="3"/>
</g>
<g><path d="M0.73 144.35L44.72 100.37"
fill="none" stroke="black" stroke-width="3"/>
</g>
<g><path d="M0.73 147.33L47.7 100.37"
fill="none" stroke="black" stroke-width="3"/>
</g>
<g><path d="M0.73 150.32L50.68 100.37"
fill="none" stroke="black" stroke-width="3"/>
</g>
<g><path d="M0.73 153.3L53.66 100.37"
fill="none" stroke="black" stroke-width="3"/>
</g>
<g><path d="M0.73 156.28L56.65 100.37"
fill="none" stroke="black" stroke-width="3"/>
</g>
<g><path d="M0.73 159.26L59.63 100.37"
fill="none" stroke="black" stroke-width="3"/>
</g>
<g><path d="M0.73 162.25L62.61 100.37"
fill="none" stroke="black" stroke-width="3"/>
</g>
<g><path d="M0.73 165.23L65.59 100.37"
fill="none" stroke="black" stroke-width="3"/>
</g>
<g><path d="M0.73 168.21L68.58 100.37"
fill="none" stroke="black" stroke-width="3"/>
</g>
<g><path d="M0.73 171.19L71.56 100.37"
fill="none" stroke="black" stroke-width="3"/>
</g>
<g><path d="M0.73 174.18L74.54 100.37"
fill="none" stroke="black" stroke-width="3"/>
</g>
<g><path d="M0.73 177.16L77.52 100.37"
fill="none" stroke="black" stroke-width="3"/>
</g>
<g><path d="M0.73 180.14L80.51 100.37"
fill="none" stroke="black" stroke-width="3"/>
</g>
<g><path d="M0.73 183.12L83.49 100.37"
fill="none" stroke="black" stroke-width="3"/>
</g>
<g><path d="M0.73 186.1L86.47 100.37"
fill="none" stroke="black" stroke-width="3"/>
</g>
<g><path d="M0.73 189.09L89.45 100.37"
fill="none" stroke="black" stroke-width="3"/>
</g>
<g><path d="M0.73 192.07L92.44 100.37"
fill="none" stroke="black" stroke-width="3"/>
</g>
<g><path d="M0.73 195.05L95.42 100.37"
fill="none" stroke="black" stroke-width="3"/>
</g>
<g><path d="M0.73 198.03L98.4 100.37"
fill="none" stroke="black" stroke-width="3"/>
</g>
<g><path d="M0.73 201.02L101.38 100.37"
fill="none" stroke="black" stroke-width="3"/>
</g>
<g><path d="M0.73 204L104.37 100.37"
fill="none" stroke="black" stroke-width="3"/>
</g>
<g><path d="M0.73 206.98L107.35 100.37"
fill="none" stroke="black" stroke-width="3"/>
</g>
<g><path d="M0.73 209.96L110.33 100.37"
fill="none" stroke="black" stroke-width="3"/>
</g>
<g><path d="M0.73 212.95L113.31 100.37"
fill="none" stroke="black" stroke-width="3"/>
</g>
<g><path d="M0.73 215.93L116.3 100.37"
fill="none" stroke="black" stroke-width="3"/>
</g>
<g><path d="M0.73 218.91L119.28 100.37"
fill="none" stroke="black" stroke-width="3"/>
</g>
<g><path d="M0.73 221.89L122.26 100.37"
fill="none" stroke="black" stroke-width="3"/>
</g>
<g><path d="M0.73 224.88L125.24 100.37"
fill="none" stroke="black" stroke-width="3"/>
</g>
<g><path d="M0.73 227.86L128.23 100.37"
fill="none" stroke="black" stroke-width="3"/>
</g>
<g><path d="M0.73 230.84L131.21 100.37"
fill="none" stroke="black" stroke-width="3"/>
</g>
<g><path d="M0.73 233.82L134.19 100.37"
fill="none" stroke="black" stroke-width="3"/>
</g>
<g><path d="M0.73 236.81L137.17 100.37"
fill="none" stroke="black" stroke-width="3"/>
</g>
<g><path d="M0.73 239.79L140.16 100.37"
fill="none" stroke="black" stroke-width="3"/>
</g>
<g><path d="M0.73 242.77L143.14 100.37"
fill="none" stroke="black" stroke-width="3"/>
</g>
<g><path d="M0.73 245.75L146.12 100.37"
fill="none" stroke="black" stroke-width="3"/>
</g>
<g><path d="M0.73 248.74L149.1 100.37"
fill="none" stroke="black" stroke-width="3"/>
</g>
<g><path d="M0.73 251.72L152.09 100.37"
fill="none" stroke="black" stroke-width="3"/>
</g>
<g><path d="M0.73 254.7L155.07 100.37"
fill="none" stroke="black" stroke-width="3"/>
</g>
<g><path d="M0.73 257.68L158.05 100.37"
fill="none" stroke="black" stroke-width="3"/>
</g>
<g><path d="M0.73 260.67L161.03 100.37"
fill="none" stroke="black" stroke-width="3"/>
</g>
<g><path d="M0.73 263.65L164.02 100.37"
fill="none" stroke="black" stroke-width="3"/>
</g>
<g><path d="M0.73 266.63L167 100.37"
fill="none" stroke="black" stroke-width="3"/>
</g>
<g><path d="M0.73 269.61L169.98 100.37"
fill="none" stroke="black" stroke-width="3"/>
</g>
<g><path d="M0.73 272.6L172.96 100.37"
fill="none" stroke="black" stroke-width="3"/>
</g>
<g><path d="M0.73 275.58L175.94 100.37"
fill="none" stroke="black" stroke-width="3"/>
</g>
<g><path d="M0.73 278.56L178.93 100.37"
fill="none" stroke="black" stroke-width="3"/>
</g>
<g><path d="M0.73 281.54L181.91 100.37"
fill="none" stroke="black" stroke-width="3"/>
</g>
<g><path d="M0.73 284.53L184.89 100.37"
fill="none" stroke="black" stroke-width="3"/>
</g>
<g><path d="M0.73 287.51L187.87 100.37"
fill="none" stroke="black" stroke-width="3"/>
</g>
<g><path d="M0.73 290.49L190.86 100.37"
fill="none" stroke="black" stroke-width="3"/>
</g>
<g><path d="M0.73 293.47L193.84 100.37"
fill="none" stroke="black" stroke-width="3"/>
</g>
<g><path d="M0.73 296.46L196.82 100.37"
fill="none" stroke="black" stroke-width="3"/>
</g>
<g><path d="M0.73 299.44L199.8 100.37"
fill="none" stroke="black" stroke-width="3"/>
</g>
<g><path d="M399.27 297.78L201.85 100.37"
fill="none" stroke="black" stroke-width="3"/>
</g>
<g><path d="M399.27 294.8L204.83 100.37"
fill="none" stroke="black" stroke-width="3"/>
</g>
<g><path d="M399.27 291.82L207.82 100.37"
fill="none" stroke="black" stroke-width="3"/>
</g>
<g><path d="M399.27 288.83L210.8 100.37"
fill="none" stroke="black" stroke-width="3"/>
</g>
<g><path d="M399.27 285.85L213.78 100.37"
fill="none" stroke="black" stroke-width="3"/>
</g>
<g><path d="M399.27 282.87L216.76 100.37"
fill="none" stroke="black" stroke-width="3"/>
</g>
<g><path d="M399.27 279.89L219.75 100.37"
fill="none" stroke="black" stroke-width="3"/>
</g>
<g><path d="M399.27 276.9L222.73 100.37"
fill="none" stroke="black" stroke-width="3"/>
</g>
<g><path d="M399.27 273.92L225.71 100.37"
fill="none" stroke="black" stroke-width="3"/>
</g>
<g><path d="M399.27 270.94L228.69 100.37"
fill="none" stroke="black" stroke-width="3"/>
</g>
<g><path d="M399.27 267.96L231.68 100.37"
fill="none" stroke="black" stroke-width="3"/>
</g>
<g><path d="M399.27 264.97L234.66 100.37"
fill="none" stroke="black" stroke-width="3"/>
</g>
<g><path d="M399.27 261.99L237.64 100.37"
fill="none" stroke="black" stroke-width="3"/>
</g>
<g><path d="M399.27 259.01L240.62 100.37"
fill="none" stroke="black" stroke-width="3"/>
</g>
<g><path d="M399.27 256.03L243.61 100.37"
fill="none" stroke="black" stroke-width="3"/>
</g>
<g><path d="M399.27 253.04L246.59 100.37"
fill="none" stroke="black" stroke-width="3"/>
</g>
<g><path d="M399.27 250.06L249.57 100.37"
fill="none" stroke="black" stroke-width="3"/>
</g>
<g><path d="M399.27 247.08L252.55 100.37"
fill="none" stroke="black" stroke-width="3"/>
</g>
<g><path d="M399.27 244.1L255.54 100.37"
fill="none" stroke="black" stroke-width="3"/>
</g>
<g><path d="M399.27 241.12L258.52 100.37"
fill="none" stroke="black" stroke-width="3"/>
</g>
<g><path d="M399.27 238.13L261.5 100.37"
fill="none" stroke="black" stroke-width="3"/>
</g>
<g><path d="M399.27 235.15L264.48 100.37"
fill="none" stroke="black" stroke-width="3"/>
</g>
<g><path d="M399.27 232.17L267.47 100.37"
fill="none" stroke="black" stroke-width="3"/>
</g>
<g><path d="M399.27 229.19L270.45 100.37"
fill="none" stroke="black" stroke-width="3"/>
</g>
<g><path d="M399.27 226.2L273.43 100.37"
fill="none" stroke="black" stroke-width="3"/>
</g>
<g><path d="M399.27 223.22L276.41 100.37"
fill="none" stroke="black" stroke-width="3"/>
</g>
<g><path d="M399.27 220.24L279.4 100.37"
fill="none" stroke="black" stroke-width="3"/>
</g>
<g><path d="M399.27 217.26L282.38 100.37"
fill="none" stroke="black" stroke-width="3"/>
</g>
<g><path d="M399.27 214.27L285.36 100.37"
fill="none" stroke="black" stroke-width="3"/>
</g>
<g><path d="M399.27 211.29L288.34 100.37"
fill="none" stroke="black" stroke-width="3"/>
</g>
<g><path d="M399.27 208.31L291.33 100.37"
fill="none" stroke="black" stroke-width="3"/>
</g>
<g><path d="M399.27 205.33L294.31 100.37"
fill="none" stroke="black" stroke-width="3"/>
</g>
<g><path d="M399.27 202.34L297.29 100.37"
fill="none" stroke="black" stroke-width="3"/>
</g>
<g><path d="M399.27 199.36L300.27 100.37"
fill="none" stroke="black" stroke-width="3"/>
</g>
<g><path d="M399.27 196.38L303.25 100.37"
fill="none" stroke="black" stroke-width="3"/>
</g>
<g><path d="M399.27 193.4L306.24 100.37"
fill="none" stroke="black" stroke-width="3"/>
</g>
<g><path d="M399.27 190.41L309.22 100.37"
fill="none" stroke="black" stroke-width="3"/>
</g>
<g><path d="M399.27 187.43L312.2 100.37"
fill="none" stroke="black" stroke-width="3"/>
</g>
<g><path d="M399.27 184.45L315.18 100.37"
fill="none" stroke="black" stroke-width="3"/>
</g>
<g><path d="M399.27 181.47L318.17 100.37"
fill="none" stroke="black" stroke-width="3"/>
</g>
<g><path d="M399.27 178.48L321.15 100.37"
fill="none" stroke="black" stroke-width="3"/>
</g>
<g><path d="M399.27 175.5L324.13 100.37"
fill="none" stroke="black" stroke-width="3"/>
</g>
<g><path d="M399.27 172.52L327.11 100.37"
fill="none" stroke="black" stroke-width="3"/>
</g>
<g><path d="M399.27 169.54L330.1 100.37"
fill="none" stroke="black" stroke-width="3"/>
</g>
<g><path d="M399.27 166.55L333.08 100.37"
fill="none" stroke="black" stroke-width="3"/>
</g>
<g><path d="M399.27 163.57L336.06 100.37"
fill="none" stroke="black" stroke-width="3"/>
</g>
<g><path d="M399.27 160.59L339.04 100.37"
fill="none" stroke="black" stroke-width="3"/>
</g>
<g><path d="M399.27 157.61L342.03 100.37"
fill="none" stroke="black" stroke-width="3"/>
</g>
<g><path d="M399.27 154.62L345.01 100.37"
fill="none" stroke="black" stroke-width="3"/>
</g>
<g><path d="M399.27 151.64L347.99 100.37"
fill="none" stroke="black" stroke-width="3"/>
</g>
<g><path d="M399.27 148.66L350.97 100.37"
fill="none" stroke="black" stroke-width="3"/>
</g>
<g><path d="M399.27 145.68L353.96 100.37"
fill="none" stroke="black" stroke-width="3"/>
</g>
<g><path d="M399.27 142.69L356.94 100.37"
fill="none" stroke="black" stroke-width="3"/>
</g>
<g><path d="M399.27 139.71L359.92 100.37"
fill="none" stroke="black" stroke-width="3"/>
</g>
<g><path d="M399.27 136.73L362.9 100.37"
fill="none" stroke="black" stroke-width="3"/>
</g>
<g><path d="M399.27 133.75L365.89 100.37"
fill="none" stroke="black" stroke-width="3"/>
</g>
<g><path d="M399.27 130.76L368.87 100.37"
fill="none" stroke="black" stroke-width="3"/>
</g>
<g><path d="M399.27 127.78L371.85 100.37"
fill="none" stroke="black" stroke-width="3"/>
</g>
<g><path d="M399.27 124.8L374.83 100.37"
fill="none" stroke="black" stroke-width="3"/>
</g>
<g><path d="M399.27 121.82L377.82 100.37"
fill="none" stroke="black" stroke-width="3"/>
</g>
<g><path d="M399.27 118.83L380.8 100.37"
fill="none" stroke="black" stroke-width="3"/>
</g>
<g><path d="M399.27 115.85L383.78 100.37"
fill="none" stroke="black" stroke-width="3"/>
</g>
<g><path d="M399.27 112.87L386.76 100.37"
fill="none" stroke="black" stroke-width="3"/>
</g>
<g><path d="M399.27 109.89L389.75 100.37"
fill="none" stroke="black" stroke-width="3"/>
</g>
<g><path d="M399.27 106.91L392.73 100.37"
fill="none" stroke="black" stroke-width="3"/>
</g>
<g><path d="M399.27 103.92L395.71 100.37"
fill="none" stroke="black" stroke-width="3"/>
</g>
<g><path d="M399.27 100.94L398.69 100.37"
fill="none" stroke="black" stroke-width="3"/>
</g>
</g>
</svg>
