<?xml version="1.0" standalone="no"?><svg xmlns="http://www.w3.org/2000/svg" width="400.000" height="400.000" viewBox="0.0 0.0 400.000 400.000" version="1.1">
  <title>Produce by Acme CAD Converter</title>
  <desc>Produce by Acme CAD Converter</desc>
<g id="0" display="visible">
<g><path d="M95.5 329.46L354.42 329.46"
fill="none" stroke="black" stroke-width="3"/>
</g>
<g><path d="M354.42 329.46L352.45 306.98M352.45 306.98L346.61 285.18M346.61 285.18L337.08 264.73M337.08 264.73L324.13 246.24M324.13 246.24L308.18 230.29M308.18 230.29L289.69 217.34M289.69 217.34L269.24 207.81M269.24 207.81L247.44 201.97M247.44 201.97L224.96 200M224.96 200L202.48 201.97M202.48 201.97L180.68 207.81M180.68 207.81L160.23 217.34M160.23 217.34L141.75 230.29M141.75 230.29L125.79 246.24M125.79 246.24L112.85 264.73M112.85 264.73L103.31 285.18M103.31 285.18L97.47 306.98M97.47 306.98L95.5 329.46"
fill="none" stroke="black" stroke-width="3"/>
</g>
<g><path d="M112.85 264.73L0.73 200"
fill="none" stroke="black" stroke-width="3"/>
</g>
<g><path d="M160.23 217.34L95.5 105.23"
fill="none" stroke="black" stroke-width="3"/>
</g>
<g><path d="M95.5 105.23L140.35 79.34"
fill="none" stroke="black" stroke-width="3"/>
</g>
<g><path d="M289.69 217.34L354.42 105.23"
fill="none" stroke="black" stroke-width="3"/>
</g>
<g><path d="M354.42 105.23L399.27 131.12"
fill="none" stroke="black" stroke-width="3"/>
</g>
<g><path d="M0.73 200L26.63 155.15"
fill="none" stroke="black" stroke-width="3"/>
</g>
<g><path d="M224.96 200L224.96 70.54"
fill="none" stroke="black" stroke-width="3"/>
</g>
</g>
</svg>
