<?xml version="1.0" standalone="no"?><svg xmlns="http://www.w3.org/2000/svg" width="400.000" height="400.000" viewBox="0.0 0.0 400.000 400.000" version="1.1">
  <title>Produce by Acme CAD Converter</title>
  <desc>Produce by Acme CAD Converter</desc>
<g id="0" display="visible">
<g><path d="M133.58 166.79L135.51 150.89M135.51 150.89L141.19 135.92M141.19 135.92L150.28 122.74M150.28 122.74L162.27 112.12M162.27 112.12L176.45 104.68M176.45 104.68L191.99 100.85M191.99 100.85L208.01 100.85M208.01 100.85L223.55 104.68M223.55 104.68L237.73 112.12M237.73 112.12L249.72 122.74M249.72 122.74L258.81 135.92M258.81 135.92L264.49 150.89M264.49 150.89L266.42 166.79M266.42 166.79L264.49 182.68M264.49 182.68L258.81 197.66M258.81 197.66L249.72 210.83M249.72 210.83L237.73 221.45M237.73 221.45L223.55 228.89M223.55 228.89L208.01 232.73M208.01 232.73L191.99 232.73M191.99 232.73L176.45 228.89M176.45 228.89L162.27 221.45M162.27 221.45L150.28 210.83M150.28 210.83L141.19 197.66M141.19 197.66L135.51 182.68M135.51 182.68L133.58 166.79"
fill="none" stroke="black" stroke-width="3"/>
</g>
<g><path d="M0.73 166.95L399.27 166.79"
fill="none" stroke="black" stroke-width="3"/>
</g>
<g><path d="M200 166.79L200 299.63"
fill="none" stroke="black" stroke-width="3"/>
</g>
</g>
</svg>
