<?xml version="1.0" standalone="no"?><svg xmlns="http://www.w3.org/2000/svg" width="400.000" height="400.000" viewBox="0.0 0.0 400.000 400.000" version="1.1">
  <title>Produce by Acme CAD Converter</title>
  <desc>Produce by Acme CAD Converter</desc>
<g id="0" display="visible">
<g><path d="M184.12 200L184.12 16.61"
fill="none" stroke="black" stroke-width="3"/>
</g>
<g><path d="M335.74 47.41L399.27 84.09"
fill="none" stroke="black" stroke-width="3"/>
</g>
<g><path d="M275.81 224.57L367.5 65.75"
fill="none" stroke="black" stroke-width="3"/>
</g>
<g><path d="M367.5 383.39L365.64 357.29M365.64 357.29L360.08 331.72M360.08 331.72L350.93 307.2M350.93 307.2L338.39 284.24M338.39 284.24L322.71 263.29M322.71 263.29L304.21 244.79M304.21 244.79L283.26 229.11M283.26 229.11L260.3 216.57M260.3 216.57L235.78 207.43M235.78 207.43L210.22 201.87M210.22 201.87L184.12 200M184.12 200L158.02 201.87M158.02 201.87L132.45 207.43M132.45 207.43L107.94 216.57M107.94 216.57L84.97 229.11M84.97 229.11L64.03 244.79M64.03 244.79L45.53 263.29M45.53 263.29L29.85 284.24M29.85 284.24L17.31 307.2M17.31 307.2L8.16 331.72M8.16 331.72L2.6 357.29M2.6 357.29L0.73 383.39"
fill="none" stroke="black" stroke-width="3"/>
</g>
<g><path d="M0.73 383.39L367.5 383.39"
fill="none" stroke="black" stroke-width="3"/>
</g>
<g><path d="M184.12 200L184.12 383.39"
fill="none" stroke="black" stroke-width="3"/>
</g>
</g>
</svg>
