<?xml version="1.0" standalone="no"?><svg xmlns="http://www.w3.org/2000/svg" width="400.000" height="400.000" viewBox="0.0 0.0 400.000 400.000" version="1.1">
  <title>Produce by Acme CAD Converter</title>
  <desc>Produce by Acme CAD Converter</desc>
<g id="0" display="visible">
<g><path d="M376.3 332.61L374.49 310.78M374.49 310.78L369.11 289.55M369.11 289.55L360.31 269.5M360.31 269.5L348.34 251.16M348.34 251.16L333.5 235.05M333.5 235.05L316.22 221.59M316.22 221.59L296.96 211.17M296.96 211.17L276.24 204.06M276.24 204.06L254.64 200.45M254.64 200.45L232.73 200.45M232.73 200.45L211.13 204.06M211.13 204.06L190.42 211.17M190.42 211.17L171.15 221.59M171.15 221.59L153.87 235.05M153.87 235.05L139.04 251.16M139.04 251.16L127.06 269.5M127.06 269.5L118.26 289.55M118.26 289.55L112.88 310.78M112.88 310.78L111.07 332.61"
fill="none" stroke="black" stroke-width="3"/>
</g>
<g><path d="M111.07 332.61L376.3 332.61"
fill="none" stroke="black" stroke-width="3"/>
</g>
<g><path d="M0.73 222.97L27.26 177.03"
fill="none" stroke="black" stroke-width="3"/>
</g>
<g><path d="M128.84 266.31L13.99 200"
fill="none" stroke="black" stroke-width="3"/>
</g>
<g><path d="M243.69 200L243.69 67.39"
fill="none" stroke="black" stroke-width="3"/>
</g>
<g><path d="M88.1 116.18L134.04 89.66"
fill="none" stroke="black" stroke-width="3"/>
</g>
<g><path d="M177.38 217.77L111.07 102.92"
fill="none" stroke="black" stroke-width="3"/>
</g>
<g><path d="M353.33 89.66L399.27 116.18"
fill="none" stroke="black" stroke-width="3"/>
</g>
<g><path d="M309.99 217.77L376.3 102.92"
fill="none" stroke="black" stroke-width="3"/>
</g>
<g><path d="M243.69 200L243.69 332.61"
fill="none" stroke="black" stroke-width="3"/>
</g>
</g>
</svg>
