<?xml version="1.0" standalone="no"?><svg xmlns="http://www.w3.org/2000/svg" width="400.000" height="400.000" viewBox="0.0 0.0 400.000 400.000" version="1.1">
  <title>Produce by Acme CAD Converter</title>
  <desc>Produce by Acme CAD Converter</desc>
<g id="0" display="visible">
<g><path d="M381.15 181.88L379.31 156.1M379.31 156.1L373.81 130.85M373.81 130.85L364.78 106.63M364.78 106.63L352.39 83.95M352.39 83.95L336.91 63.26M336.91 63.26L318.63 44.98M318.63 44.98L297.94 29.49M297.94 29.49L275.25 17.1M275.25 17.1L251.04 8.07M251.04 8.07L225.78 2.58M225.78 2.58L200 0.73M200 0.73L174.22 2.58M174.22 2.58L148.96 8.07M148.96 8.07L124.75 17.1M124.75 17.1L102.06 29.49M102.06 29.49L81.37 44.98M81.37 44.98L63.09 63.26M63.09 63.26L47.61 83.95M47.61 83.95L35.22 106.63M35.22 106.63L26.19 130.85M26.19 130.85L20.69 156.1M20.69 156.1L18.85 181.88"
fill="none" stroke="black" stroke-width="3"/>
</g>
<g><path d="M18.85 181.88L381.15 181.88"
fill="none" stroke="black" stroke-width="3"/>
</g>
<g><path d="M200 181.88L200 399.27"
fill="none" stroke="black" stroke-width="3"/>
</g>
<g><path d="M200 399.27L308.69 399.27"
fill="none" stroke="black" stroke-width="3"/>
</g>
<g><path d="M200 399.27L91.31 399.27"
fill="none" stroke="black" stroke-width="3"/>
</g>
</g>
</svg>
