<?xml version="1.0" standalone="no"?><svg xmlns="http://www.w3.org/2000/svg" width="400.000" height="400.000" viewBox="0.0 0.0 400.000 400.000" version="1.1">
  <title>Produce by Acme CAD Converter</title>
  <desc>Produce by Acme CAD Converter</desc>
<g id="0" display="visible">
<g><path d="M30.15 369.85L369.85 369.85"
fill="none" stroke="black" stroke-width="3"/>
</g>
<g><path d="M369.85 369.85L367.95 344.53M367.95 344.53L362.3 319.78M362.3 319.78L353.03 296.15M353.03 296.15L340.34 274.17M340.34 274.17L324.51 254.32M324.51 254.32L305.9 237.06M305.9 237.06L284.92 222.76M284.92 222.76L262.05 211.74M262.05 211.74L237.79 204.26M237.79 204.26L212.69 200.47M212.69 200.47L187.31 200.47M187.31 200.47L162.21 204.26M162.21 204.26L137.95 211.74M137.95 211.74L115.08 222.76M115.08 222.76L94.1 237.06M94.1 237.06L75.49 254.32M75.49 254.32L59.66 274.17M59.66 274.17L46.97 296.15M46.97 296.15L37.7 319.78M37.7 319.78L32.05 344.53M32.05 344.53L30.15 369.85"
fill="none" stroke="black" stroke-width="3"/>
</g>
<g><path d="M200 200L200 30.15"
fill="none" stroke="black" stroke-width="3"/>
</g>
<g><path d="M115.08 222.76L30.15 75.66"
fill="none" stroke="black" stroke-width="3"/>
</g>
<g><path d="M0.73 92.65L59.57 58.68"
fill="none" stroke="black" stroke-width="3"/>
</g>
<g><path d="M284.92 222.76L369.85 75.66"
fill="none" stroke="black" stroke-width="3"/>
</g>
<g><path d="M340.43 58.68L399.27 92.65"
fill="none" stroke="black" stroke-width="3"/>
</g>
<g><path d="M200 200L200 369.85"
fill="none" stroke="black" stroke-width="3"/>
</g>
</g>
</svg>
