<?xml version="1.0" standalone="no"?><svg xmlns="http://www.w3.org/2000/svg" width="400.000" height="400.000" viewBox="0.0 0.0 400.000 400.000" version="1.1">
  <title>Produce by Acme CAD Converter</title>
  <desc>Produce by Acme CAD Converter</desc>
<g id="0" display="visible">
<g><path d="M0.73 332.84L399.27 332.84"
fill="none" stroke="black" stroke-width="3"/>
</g>
<g><path d="M399.27 67.16L0.73 67.16"
fill="none" stroke="black" stroke-width="3"/>
</g>
<g><path d="M33.94 200L35.87 184.1M35.87 184.1L41.55 169.13M41.55 169.13L50.65 155.95M50.65 155.95L62.63 145.34M62.63 145.34L76.81 137.89M76.81 137.89L92.36 134.06M92.36 134.06L108.37 134.06M108.37 134.06L123.92 137.89M123.92 137.89L138.1 145.34M138.1 145.34L150.08 155.95M150.08 155.95L159.18 169.13M159.18 169.13L164.86 184.1M164.86 184.1L166.79 200M166.79 200L164.86 215.9M164.86 215.9L159.18 230.87M159.18 230.87L150.08 244.05M150.08 244.05L138.1 254.66M138.1 254.66L123.92 262.11M123.92 262.11L108.37 265.94M108.37 265.94L92.36 265.94M92.36 265.94L76.81 262.11M76.81 262.11L62.63 254.66M62.63 254.66L50.65 244.05M50.65 244.05L41.55 230.87M41.55 230.87L35.87 215.9M35.87 215.9L33.94 200"
fill="none" stroke="black" stroke-width="3"/>
</g>
<g><path d="M0.73 67.16L0.73 332.84"
fill="none" stroke="black" stroke-width="3"/>
</g>
<g><path d="M399.27 332.84L399.27 67.16"
fill="none" stroke="black" stroke-width="3"/>
</g>
<g><path d="M100.37 133.58L100.37 266.42"
fill="none" stroke="black" stroke-width="3"/>
</g>
<g><path d="M100.68 266.42L100.68 133.58"
fill="none" stroke="black" stroke-width="3"/>
</g>
<g><path d="M101.53 266.41L101.53 133.59"
fill="none" stroke="black" stroke-width="3"/>
</g>
<g><path d="M102.37 266.39L102.37 133.61"
fill="none" stroke="black" stroke-width="3"/>
</g>
<g><path d="M103.21 266.36L103.21 133.64"
fill="none" stroke="black" stroke-width="3"/>
</g>
<g><path d="M104.06 266.32L104.06 133.68"
fill="none" stroke="black" stroke-width="3"/>
</g>
<g><path d="M104.9 266.27L104.9 133.73"
fill="none" stroke="black" stroke-width="3"/>
</g>
<g><path d="M105.74 266.2L105.74 133.8"
fill="none" stroke="black" stroke-width="3"/>
</g>
<g><path d="M106.59 266.13L106.59 133.87"
fill="none" stroke="black" stroke-width="3"/>
</g>
<g><path d="M107.43 266.05L107.43 133.95"
fill="none" stroke="black" stroke-width="3"/>
</g>
<g><path d="M108.27 265.95L108.27 134.05"
fill="none" stroke="black" stroke-width="3"/>
</g>
<g><path d="M109.12 265.84L109.12 134.16"
fill="none" stroke="black" stroke-width="3"/>
</g>
<g><path d="M109.96 265.73L109.96 134.27"
fill="none" stroke="black" stroke-width="3"/>
</g>
<g><path d="M110.81 265.6L110.81 134.4"
fill="none" stroke="black" stroke-width="3"/>
</g>
<g><path d="M111.65 265.46L111.65 134.54"
fill="none" stroke="black" stroke-width="3"/>
</g>
<g><path d="M112.49 265.31L112.49 134.69"
fill="none" stroke="black" stroke-width="3"/>
</g>
<g><path d="M113.34 265.14L113.34 134.86"
fill="none" stroke="black" stroke-width="3"/>
</g>
<g><path d="M114.18 264.97L114.18 135.03"
fill="none" stroke="black" stroke-width="3"/>
</g>
<g><path d="M115.02 264.79L115.02 135.21"
fill="none" stroke="black" stroke-width="3"/>
</g>
<g><path d="M115.87 264.59L115.87 135.41"
fill="none" stroke="black" stroke-width="3"/>
</g>
<g><path d="M116.71 264.38L116.71 135.62"
fill="none" stroke="black" stroke-width="3"/>
</g>
<g><path d="M117.55 264.16L117.55 135.84"
fill="none" stroke="black" stroke-width="3"/>
</g>
<g><path d="M118.4 263.93L118.4 136.07"
fill="none" stroke="black" stroke-width="3"/>
</g>
<g><path d="M119.24 263.68L119.24 136.32"
fill="none" stroke="black" stroke-width="3"/>
</g>
<g><path d="M120.08 263.43L120.08 136.57"
fill="none" stroke="black" stroke-width="3"/>
</g>
<g><path d="M120.93 263.16L120.93 136.84"
fill="none" stroke="black" stroke-width="3"/>
</g>
<g><path d="M121.77 262.88L121.77 137.12"
fill="none" stroke="black" stroke-width="3"/>
</g>
<g><path d="M122.62 262.59L122.62 137.41"
fill="none" stroke="black" stroke-width="3"/>
</g>
<g><path d="M123.46 262.28L123.46 137.72"
fill="none" stroke="black" stroke-width="3"/>
</g>
<g><path d="M124.3 261.96L124.3 138.04"
fill="none" stroke="black" stroke-width="3"/>
</g>
<g><path d="M125.15 261.63L125.15 138.37"
fill="none" stroke="black" stroke-width="3"/>
</g>
<g><path d="M125.99 261.28L125.99 138.72"
fill="none" stroke="black" stroke-width="3"/>
</g>
<g><path d="M126.83 260.92L126.83 139.08"
fill="none" stroke="black" stroke-width="3"/>
</g>
<g><path d="M127.68 260.55L127.68 139.45"
fill="none" stroke="black" stroke-width="3"/>
</g>
<g><path d="M128.52 260.16L128.52 139.84"
fill="none" stroke="black" stroke-width="3"/>
</g>
<g><path d="M129.36 259.76L129.36 140.24"
fill="none" stroke="black" stroke-width="3"/>
</g>
<g><path d="M130.21 259.34L130.21 140.66"
fill="none" stroke="black" stroke-width="3"/>
</g>
<g><path d="M131.05 258.91L131.05 141.09"
fill="none" stroke="black" stroke-width="3"/>
</g>
<g><path d="M131.89 258.46L131.89 141.54"
fill="none" stroke="black" stroke-width="3"/>
</g>
<g><path d="M132.74 258L132.74 142"
fill="none" stroke="black" stroke-width="3"/>
</g>
<g><path d="M133.58 257.52L133.58 142.48"
fill="none" stroke="black" stroke-width="3"/>
</g>
<g><path d="M134.43 257.03L134.43 142.97"
fill="none" stroke="black" stroke-width="3"/>
</g>
<g><path d="M135.27 256.51L135.27 143.49"
fill="none" stroke="black" stroke-width="3"/>
</g>
<g><path d="M136.11 255.98L136.11 144.02"
fill="none" stroke="black" stroke-width="3"/>
</g>
<g><path d="M136.96 255.44L136.96 144.56"
fill="none" stroke="black" stroke-width="3"/>
</g>
<g><path d="M137.8 254.87L137.8 145.13"
fill="none" stroke="black" stroke-width="3"/>
</g>
<g><path d="M138.64 254.28L138.64 145.72"
fill="none" stroke="black" stroke-width="3"/>
</g>
<g><path d="M139.49 253.68L139.49 146.32"
fill="none" stroke="black" stroke-width="3"/>
</g>
<g><path d="M140.33 253.06L140.33 146.94"
fill="none" stroke="black" stroke-width="3"/>
</g>
<g><path d="M141.17 252.41L141.17 147.59"
fill="none" stroke="black" stroke-width="3"/>
</g>
<g><path d="M142.02 251.74L142.02 148.26"
fill="none" stroke="black" stroke-width="3"/>
</g>
<g><path d="M142.86 251.05L142.86 148.95"
fill="none" stroke="black" stroke-width="3"/>
</g>
<g><path d="M143.7 250.34L143.7 149.66"
fill="none" stroke="black" stroke-width="3"/>
</g>
<g><path d="M144.55 249.6L144.55 150.4"
fill="none" stroke="black" stroke-width="3"/>
</g>
<g><path d="M145.39 248.83L145.39 151.17"
fill="none" stroke="black" stroke-width="3"/>
</g>
<g><path d="M146.23 248.04L146.23 151.96"
fill="none" stroke="black" stroke-width="3"/>
</g>
<g><path d="M147.08 247.22L147.08 152.78"
fill="none" stroke="black" stroke-width="3"/>
</g>
<g><path d="M147.92 246.37L147.92 153.63"
fill="none" stroke="black" stroke-width="3"/>
</g>
<g><path d="M148.77 245.49L148.77 154.51"
fill="none" stroke="black" stroke-width="3"/>
</g>
<g><path d="M149.61 244.58L149.61 155.42"
fill="none" stroke="black" stroke-width="3"/>
</g>
<g><path d="M150.45 243.63L150.45 156.37"
fill="none" stroke="black" stroke-width="3"/>
</g>
<g><path d="M151.3 242.64L151.3 157.36"
fill="none" stroke="black" stroke-width="3"/>
</g>
<g><path d="M152.14 241.61L152.14 158.39"
fill="none" stroke="black" stroke-width="3"/>
</g>
<g><path d="M152.98 240.54L152.98 159.46"
fill="none" stroke="black" stroke-width="3"/>
</g>
<g><path d="M153.83 239.42L153.83 160.58"
fill="none" stroke="black" stroke-width="3"/>
</g>
<g><path d="M154.67 238.25L154.67 161.75"
fill="none" stroke="black" stroke-width="3"/>
</g>
<g><path d="M155.51 237.02L155.51 162.98"
fill="none" stroke="black" stroke-width="3"/>
</g>
<g><path d="M156.36 235.73L156.36 164.27"
fill="none" stroke="black" stroke-width="3"/>
</g>
<g><path d="M157.2 234.38L157.2 165.62"
fill="none" stroke="black" stroke-width="3"/>
</g>
<g><path d="M158.04 232.94L158.04 167.06"
fill="none" stroke="black" stroke-width="3"/>
</g>
<g><path d="M158.89 231.42L158.89 168.58"
fill="none" stroke="black" stroke-width="3"/>
</g>
<g><path d="M159.73 229.79L159.73 170.21"
fill="none" stroke="black" stroke-width="3"/>
</g>
<g><path d="M160.58 228.05L160.58 171.95"
fill="none" stroke="black" stroke-width="3"/>
</g>
<g><path d="M161.42 226.16L161.42 173.84"
fill="none" stroke="black" stroke-width="3"/>
</g>
<g><path d="M162.26 224.1L162.26 175.9"
fill="none" stroke="black" stroke-width="3"/>
</g>
<g><path d="M163.11 221.81L163.11 178.19"
fill="none" stroke="black" stroke-width="3"/>
</g>
<g><path d="M163.95 219.21L163.95 180.79"
fill="none" stroke="black" stroke-width="3"/>
</g>
<g><path d="M164.79 216.16L164.79 183.84"
fill="none" stroke="black" stroke-width="3"/>
</g>
<g><path d="M165.64 212.32L165.64 187.68"
fill="none" stroke="black" stroke-width="3"/>
</g>
<g><path d="M166.48 206.39L166.48 193.61"
fill="none" stroke="black" stroke-width="3"/>
</g>
</g>
</svg>
