<?xml version="1.0" standalone="no"?><svg xmlns="http://www.w3.org/2000/svg" width="400.000" height="400.000" viewBox="0.0 0.0 400.000 400.000" version="1.1">
  <title>Produce by Acme CAD Converter</title>
  <desc>Produce by Acme CAD Converter</desc>
<g id="0" display="visible">
<g><path d="M0.73 0.73L399.27 0.73"
fill="none" stroke="black" stroke-width="3"/>
</g>
<g><path d="M399.27 399.27L0.73 399.27"
fill="none" stroke="black" stroke-width="3"/>
</g>
<g><path d="M0.73 399.27L0.73 0.73"
fill="none" stroke="black" stroke-width="3"/>
</g>
<g><path d="M399.27 0.73L399.27 399.27"
fill="none" stroke="black" stroke-width="3"/>
</g>
<g><path d="M0.73 200L399.27 200"
fill="none" stroke="black" stroke-width="3"/>
</g>
<g><path d="M0.73 209.96L399.27 209.96"
fill="none" stroke="black" stroke-width="3"/>
</g>
<g><path d="M0.73 219.93L399.27 219.93"
fill="none" stroke="black" stroke-width="3"/>
</g>
<g><path d="M0.73 229.89L399.27 229.89"
fill="none" stroke="black" stroke-width="3"/>
</g>
<g><path d="M0.73 239.85L399.27 239.85"
fill="none" stroke="black" stroke-width="3"/>
</g>
<g><path d="M0.73 249.82L399.27 249.82"
fill="none" stroke="black" stroke-width="3"/>
</g>
<g><path d="M0.73 259.78L399.27 259.78"
fill="none" stroke="black" stroke-width="3"/>
</g>
<g><path d="M0.73 269.74L399.27 269.74"
fill="none" stroke="black" stroke-width="3"/>
</g>
<g><path d="M0.73 279.71L399.27 279.71"
fill="none" stroke="black" stroke-width="3"/>
</g>
<g><path d="M0.73 289.67L399.27 289.67"
fill="none" stroke="black" stroke-width="3"/>
</g>
<g><path d="M0.73 299.63L399.27 299.63"
fill="none" stroke="black" stroke-width="3"/>
</g>
<g><path d="M0.73 309.6L399.27 309.6"
fill="none" stroke="black" stroke-width="3"/>
</g>
<g><path d="M0.73 319.56L399.27 319.56"
fill="none" stroke="black" stroke-width="3"/>
</g>
<g><path d="M0.73 329.52L399.27 329.52"
fill="none" stroke="black" stroke-width="3"/>
</g>
<g><path d="M0.73 339.49L399.27 339.49"
fill="none" stroke="black" stroke-width="3"/>
</g>
<g><path d="M0.73 349.45L399.27 349.45"
fill="none" stroke="black" stroke-width="3"/>
</g>
<g><path d="M0.73 359.41L399.27 359.41"
fill="none" stroke="black" stroke-width="3"/>
</g>
<g><path d="M0.73 369.38L399.27 369.38"
fill="none" stroke="black" stroke-width="3"/>
</g>
<g><path d="M0.73 379.34L399.27 379.34"
fill="none" stroke="black" stroke-width="3"/>
</g>
<g><path d="M0.73 389.3L399.27 389.3"
fill="none" stroke="black" stroke-width="3"/>
</g>
</g>
</svg>
