<?xml version="1.0" standalone="no"?><svg xmlns="http://www.w3.org/2000/svg" width="400.000" height="400.000" viewBox="0.0 0.0 400.000 400.000" version="1.1">
  <title>Produce by Acme CAD Converter</title>
  <desc>Produce by Acme CAD Converter</desc>
<g id="0" display="visible">
<g><path d="M399.27 67.16L0.73 67.16"
fill="none" stroke="black" stroke-width="3"/>
</g>
<g><path d="M0.73 332.84L399.27 332.84"
fill="none" stroke="black" stroke-width="3"/>
</g>
<g><path d="M0.73 67.16L0.73 332.84"
fill="none" stroke="black" stroke-width="3"/>
</g>
<g><path d="M399.27 332.84L399.27 67.16"
fill="none" stroke="black" stroke-width="3"/>
</g>
<g><path d="M33.94 200L35.87 184.1M35.87 184.1L41.55 169.13M41.55 169.13L50.65 155.95M50.65 155.95L62.63 145.34M62.63 145.34L76.81 137.89M76.81 137.89L92.36 134.06M92.36 134.06L108.37 134.06M108.37 134.06L123.92 137.89M123.92 137.89L138.1 145.34M138.1 145.34L150.08 155.95M150.08 155.95L159.18 169.13M159.18 169.13L164.86 184.1M164.86 184.1L166.79 200M166.79 200L164.86 215.9M164.86 215.9L159.18 230.87M159.18 230.87L150.08 244.05M150.08 244.05L138.1 254.66M138.1 254.66L123.92 262.11M123.92 262.11L108.37 265.94M108.37 265.94L92.36 265.94M92.36 265.94L76.81 262.11M76.81 262.11L62.63 254.66M62.63 254.66L50.65 244.05M50.65 244.05L41.55 230.87M41.55 230.87L35.87 215.9M35.87 215.9L33.94 200"
fill="none" stroke="black" stroke-width="3"/>
</g>
<g><path d="M133.34 229.52L124.77 229.52M124.77 229.52L124.77 173.05M124.77 173.05L124.59 173.05M124.59 173.05L105.08 229.52M105.08 229.52L96.69 229.52M96.69 229.52L77.04 172.13M77.04 172.13L76.76 172.13M76.76 172.13L76.76 229.52M76.76 229.52L68.19 229.52M68.19 229.52L68.19 162.04M68.19 162.04L81.68 162.04M81.68 162.04L98.02 209.81M98.02 209.81L101.18 219.8M101.18 219.8L101.37 219.8M101.37 219.8L105.01 208.98M105.01 208.98L121.32 162.04M121.32 162.04L133.34 162.04M133.34 162.04L133.34 229.52"
fill="none" stroke="black" stroke-width=".5"/>
</g>
</g>
</svg>
