<?xml version="1.0" standalone="no"?><svg xmlns="http://www.w3.org/2000/svg" width="400.000" height="400.000" viewBox="0.0 0.0 400.000 400.000" version="1.1">
  <title>Produce by Acme CAD Converter</title>
  <desc>Produce by Acme CAD Converter</desc>
<g id="0" display="visible">
<g><path d="M0.73 0.73L0.73 399.27"
fill="none" stroke="black" stroke-width="3"/>
</g>
<g><path d="M0.73 399.27L399.27 399.27"
fill="none" stroke="black" stroke-width="3"/>
</g>
<g><path d="M399.27 399.27L399.27 0.73"
fill="none" stroke="black" stroke-width="3"/>
</g>
<g><path d="M399.27 0.73L0.73 0.73"
fill="none" stroke="black" stroke-width="3"/>
</g>
<g><path d="M0.73 299.63L399.27 299.63"
fill="none" stroke="black" stroke-width="3"/>
</g>
<g><path d="M0.73 300.19L399.27 300.19"
fill="none" stroke="black" stroke-width="3"/>
</g>
<g><path d="M0.73 302.72L399.27 302.72"
fill="none" stroke="black" stroke-width="3"/>
</g>
<g><path d="M0.73 305.25L399.27 305.25"
fill="none" stroke="black" stroke-width="3"/>
</g>
<g><path d="M0.73 307.78L399.27 307.78"
fill="none" stroke="black" stroke-width="3"/>
</g>
<g><path d="M0.73 310.31L399.27 310.31"
fill="none" stroke="black" stroke-width="3"/>
</g>
<g><path d="M0.73 312.84L399.27 312.84"
fill="none" stroke="black" stroke-width="3"/>
</g>
<g><path d="M0.73 315.37L399.27 315.37"
fill="none" stroke="black" stroke-width="3"/>
</g>
<g><path d="M0.73 317.9L399.27 317.9"
fill="none" stroke="black" stroke-width="3"/>
</g>
<g><path d="M0.73 320.43L399.27 320.43"
fill="none" stroke="black" stroke-width="3"/>
</g>
<g><path d="M0.73 322.96L399.27 322.96"
fill="none" stroke="black" stroke-width="3"/>
</g>
<g><path d="M0.73 325.49L399.27 325.49"
fill="none" stroke="black" stroke-width="3"/>
</g>
<g><path d="M0.73 328.02L399.27 328.02"
fill="none" stroke="black" stroke-width="3"/>
</g>
<g><path d="M0.73 330.55L399.27 330.55"
fill="none" stroke="black" stroke-width="3"/>
</g>
<g><path d="M0.73 333.09L399.27 333.09"
fill="none" stroke="black" stroke-width="3"/>
</g>
<g><path d="M0.73 335.62L399.27 335.62"
fill="none" stroke="black" stroke-width="3"/>
</g>
<g><path d="M0.73 338.15L399.27 338.15"
fill="none" stroke="black" stroke-width="3"/>
</g>
<g><path d="M0.73 340.68L399.27 340.68"
fill="none" stroke="black" stroke-width="3"/>
</g>
<g><path d="M0.73 343.21L399.27 343.21"
fill="none" stroke="black" stroke-width="3"/>
</g>
<g><path d="M0.73 345.74L399.27 345.74"
fill="none" stroke="black" stroke-width="3"/>
</g>
<g><path d="M0.73 348.27L399.27 348.27"
fill="none" stroke="black" stroke-width="3"/>
</g>
<g><path d="M0.73 350.8L399.27 350.8"
fill="none" stroke="black" stroke-width="3"/>
</g>
<g><path d="M0.73 353.33L399.27 353.33"
fill="none" stroke="black" stroke-width="3"/>
</g>
<g><path d="M0.73 355.86L399.27 355.86"
fill="none" stroke="black" stroke-width="3"/>
</g>
<g><path d="M0.73 358.39L399.27 358.39"
fill="none" stroke="black" stroke-width="3"/>
</g>
<g><path d="M0.73 360.92L399.27 360.92"
fill="none" stroke="black" stroke-width="3"/>
</g>
<g><path d="M0.73 363.45L399.27 363.45"
fill="none" stroke="black" stroke-width="3"/>
</g>
<g><path d="M0.73 365.98L399.27 365.98"
fill="none" stroke="black" stroke-width="3"/>
</g>
<g><path d="M0.73 368.52L399.27 368.52"
fill="none" stroke="black" stroke-width="3"/>
</g>
<g><path d="M0.73 371.05L399.27 371.05"
fill="none" stroke="black" stroke-width="3"/>
</g>
<g><path d="M0.73 373.58L399.27 373.58"
fill="none" stroke="black" stroke-width="3"/>
</g>
<g><path d="M0.73 376.11L399.27 376.11"
fill="none" stroke="black" stroke-width="3"/>
</g>
<g><path d="M0.73 378.64L399.27 378.64"
fill="none" stroke="black" stroke-width="3"/>
</g>
<g><path d="M0.73 381.17L399.27 381.17"
fill="none" stroke="black" stroke-width="3"/>
</g>
<g><path d="M0.73 383.7L399.27 383.7"
fill="none" stroke="black" stroke-width="3"/>
</g>
<g><path d="M0.73 386.23L399.27 386.23"
fill="none" stroke="black" stroke-width="3"/>
</g>
<g><path d="M0.73 388.76L399.27 388.76"
fill="none" stroke="black" stroke-width="3"/>
</g>
<g><path d="M0.73 391.29L399.27 391.29"
fill="none" stroke="black" stroke-width="3"/>
</g>
<g><path d="M0.73 393.82L399.27 393.82"
fill="none" stroke="black" stroke-width="3"/>
</g>
<g><path d="M0.73 396.35L399.27 396.35"
fill="none" stroke="black" stroke-width="3"/>
</g>
<g><path d="M0.73 398.88L399.27 398.88"
fill="none" stroke="black" stroke-width="3"/>
</g>
</g>
</svg>
