<?xml version="1.0" standalone="no"?><svg xmlns="http://www.w3.org/2000/svg" width="400.000" height="400.000" viewBox="0.0 0.0 400.000 400.000" version="1.1">
  <title>Produce by Acme CAD Converter</title>
  <desc>Produce by Acme CAD Converter</desc>
<g id="0" display="visible">
<g><path d="M399.27 67.16L0.73 67.16"
fill="none" stroke="black" stroke-width="3"/>
</g>
<g><path d="M0.73 332.84L399.27 332.84"
fill="none" stroke="black" stroke-width="3"/>
</g>
<g><path d="M0.73 67.16L0.73 332.84"
fill="none" stroke="black" stroke-width="3"/>
</g>
<g><path d="M60.51 173.43L62.46 161.12M62.46 161.12L68.12 150.01M68.12 150.01L76.94 141.19M76.94 141.19L88.05 135.53M88.05 135.53L100.37 133.58M100.37 133.58L112.68 135.53M112.68 135.53L123.79 141.19M123.79 141.19L132.61 150.01M132.61 150.01L138.27 161.12M138.27 161.12L140.22 173.43M140.22 173.43L138.27 185.75M138.27 185.75L132.61 196.86M132.61 196.86L123.79 205.67M123.79 205.67L112.68 211.33M112.68 211.33L100.37 213.28M100.37 213.28L88.05 211.33M88.05 211.33L76.94 205.67M76.94 205.67L68.12 196.86M68.12 196.86L62.46 185.75M62.46 185.75L60.51 173.43"
fill="none" stroke="black" stroke-width="3"/>
</g>
<g><path d="M60.51 239.85L62.46 227.54M62.46 227.54L68.12 216.43M68.12 216.43L76.94 207.61M76.94 207.61L88.05 201.95M88.05 201.95L100.37 200M100.37 200L112.68 201.95M112.68 201.95L123.79 207.61M123.79 207.61L132.61 216.43M132.61 216.43L138.27 227.54M138.27 227.54L140.22 239.85M140.22 239.85L138.27 252.17M138.27 252.17L132.61 263.28M132.61 263.28L123.79 272.1M123.79 272.1L112.68 277.76M112.68 277.76L100.37 279.71M100.37 279.71L88.05 277.76M88.05 277.76L76.94 272.1M76.94 272.1L68.12 263.28M68.12 263.28L62.46 252.17M62.46 252.17L60.51 239.85"
fill="none" stroke="black" stroke-width="3"/>
</g>
<g><path d="M399.27 332.84L399.27 67.16"
fill="none" stroke="black" stroke-width="3"/>
</g>
<g><path d="M166.79 239.85L168.74 227.54M168.74 227.54L174.4 216.43M174.4 216.43L183.22 207.61M183.22 207.61L194.33 201.95M194.33 201.95L206.64 200M206.64 200L218.96 201.95M218.96 201.95L230.07 207.61M230.07 207.61L238.88 216.43M238.88 216.43L244.55 227.54M244.55 227.54L246.5 239.85M246.5 239.85L244.55 252.17M244.55 252.17L238.88 263.28M238.88 263.28L230.07 272.1M230.07 272.1L218.96 277.76M218.96 277.76L206.64 279.71M206.64 279.71L194.33 277.76M194.33 277.76L183.22 272.1M183.22 272.1L174.4 263.28M174.4 263.28L168.74 252.17M168.74 252.17L166.79 239.85"
fill="none" stroke="black" stroke-width="3"/>
</g>
<g><path d="M166.79 173.43L168.74 161.12M168.74 161.12L174.4 150.01M174.4 150.01L183.22 141.19M183.22 141.19L194.33 135.53M194.33 135.53L206.64 133.58M206.64 133.58L218.96 135.53M218.96 135.53L230.07 141.19M230.07 141.19L238.88 150.01M238.88 150.01L244.55 161.12M244.55 161.12L246.5 173.43M246.5 173.43L244.55 185.75M244.55 185.75L238.88 196.86M238.88 196.86L230.07 205.67M230.07 205.67L218.96 211.33M218.96 211.33L206.64 213.28M206.64 213.28L194.33 211.33M194.33 211.33L183.22 205.67M183.22 205.67L174.4 196.86M174.4 196.86L168.74 185.75M168.74 185.75L166.79 173.43"
fill="none" stroke="black" stroke-width="3"/>
</g>
</g>
</svg>
