<?xml version="1.0" standalone="no"?><svg xmlns="http://www.w3.org/2000/svg" width="400.000" height="400.000" viewBox="0.0 0.0 400.000 400.000" version="1.1">
  <title>Produce by Acme CAD Converter</title>
  <desc>Produce by Acme CAD Converter</desc>
<g id="0" display="visible">
<g><path d="M0.73 332.84L399.27 332.84"
fill="none" stroke="black" stroke-width="3"/>
</g>
<g><path d="M399.27 67.16L0.73 67.16"
fill="none" stroke="black" stroke-width="3"/>
</g>
<g><path d="M33.94 200L35.87 184.1M35.87 184.1L41.55 169.13M41.55 169.13L50.65 155.95M50.65 155.95L62.63 145.34M62.63 145.34L76.81 137.89M76.81 137.89L92.36 134.06M92.36 134.06L108.37 134.06M108.37 134.06L123.92 137.89M123.92 137.89L138.1 145.34M138.1 145.34L150.08 155.95M150.08 155.95L159.18 169.13M159.18 169.13L164.86 184.1M164.86 184.1L166.79 200M166.79 200L164.86 215.9M164.86 215.9L159.18 230.87M159.18 230.87L150.08 244.05M150.08 244.05L138.1 254.66M138.1 254.66L123.92 262.11M123.92 262.11L108.37 265.94M108.37 265.94L92.36 265.94M92.36 265.94L76.81 262.11M76.81 262.11L62.63 254.66M62.63 254.66L50.65 244.05M50.65 244.05L41.55 230.87M41.55 230.87L35.87 215.9M35.87 215.9L33.94 200"
fill="none" stroke="black" stroke-width="3"/>
</g>
<g><path d="M0.73 67.16L0.73 332.84"
fill="none" stroke="black" stroke-width="3"/>
</g>
<g><path d="M399.27 332.84L399.27 67.16"
fill="none" stroke="black" stroke-width="3"/>
</g>
<g><path d="M129.06 220.13L100.86 230.75M100.86 230.75L75.38 221.08M75.38 221.08L75 220.69M75 220.69L74.26 219.9M74.26 219.9L72.88 218.25M72.88 218.25L70.49 214.71M70.49 214.71L67.23 206.66M67.23 206.66L65.96 196.05M65.96 196.05L81.63 165.26M81.63 165.26L100.2 160.8M100.2 160.8L118.79 165.92M118.79 165.92L119.07 166.13M119.07 166.13L119.62 166.56M119.62 166.56L120.66 167.46M120.66 167.46L122.58 169.47M122.58 169.47L125.69 174.27M125.69 174.27L128.03 180.86M128.03 180.86L119.97 183.12M119.97 183.12L100.26 168.71M100.26 168.71L81.54 176.3M81.54 176.3L81.29 176.61M81.29 176.61L80.81 177.23M80.81 177.23L79.91 178.52M79.91 178.52L78.35 181.27M78.35 181.27L76.22 187.51M76.22 187.51L75.39 195.62M75.39 195.62L90.84 221.09M90.84 221.09L100.34 222.67M100.34 222.67L120.14 215.7M120.14 215.7L120.14 203.16M120.14 203.16L100.08 203.16M100.08 203.16L100.08 195.07M100.08 195.07L129.06 195.07M129.06 195.07L129.06 220.13"
fill="none" stroke="black" stroke-width=".5"/>
</g>
</g>
</svg>
