<?xml version="1.0" standalone="no"?><svg xmlns="http://www.w3.org/2000/svg" width="400.000" height="400.000" viewBox="0.0 0.0 400.000 400.000" version="1.1">
  <title>Produce by Acme CAD Converter</title>
  <desc>Produce by Acme CAD Converter</desc>
<g id="0" display="visible">
<g><path d="M0.73 332.84L399.27 332.84"
fill="none" stroke="black" stroke-width="3"/>
</g>
<g><path d="M399.27 67.16L0.73 67.16"
fill="none" stroke="black" stroke-width="3"/>
</g>
<g><path d="M60.51 239.85L62.46 227.54M62.46 227.54L68.12 216.43M68.12 216.43L76.94 207.61M76.94 207.61L88.05 201.95M88.05 201.95L100.37 200M100.37 200L112.68 201.95M112.68 201.95L123.79 207.61M123.79 207.61L132.61 216.43M132.61 216.43L138.27 227.54M138.27 227.54L140.22 239.85M140.22 239.85L138.27 252.17M138.27 252.17L132.61 263.28M132.61 263.28L123.79 272.1M123.79 272.1L112.68 277.76M112.68 277.76L100.37 279.71M100.37 279.71L88.05 277.76M88.05 277.76L76.94 272.1M76.94 272.1L68.12 263.28M68.12 263.28L62.46 252.17M62.46 252.17L60.51 239.85"
fill="none" stroke="black" stroke-width="3"/>
</g>
<g><path d="M0.73 67.16L0.73 332.84"
fill="none" stroke="black" stroke-width="3"/>
</g>
<g><path d="M399.27 332.84L399.27 67.16"
fill="none" stroke="black" stroke-width="3"/>
</g>
<g><path d="M60.51 173.43L62.46 161.12M62.46 161.12L68.12 150.01M68.12 150.01L76.94 141.19M76.94 141.19L88.05 135.53M88.05 135.53L100.37 133.58M100.37 133.58L112.68 135.53M112.68 135.53L123.79 141.19M123.79 141.19L132.61 150.01M132.61 150.01L138.27 161.12M138.27 161.12L140.22 173.43M140.22 173.43L138.27 185.75M138.27 185.75L132.61 196.86M132.61 196.86L123.79 205.67M123.79 205.67L112.68 211.33M112.68 211.33L100.37 213.28M100.37 213.28L88.05 211.33M88.05 211.33L76.94 205.67M76.94 205.67L68.12 196.86M68.12 196.86L62.46 185.75M62.46 185.75L60.51 173.43"
fill="none" stroke="black" stroke-width="3"/>
</g>
</g>
</svg>
