<?xml version="1.0" standalone="no"?><svg xmlns="http://www.w3.org/2000/svg" width="400.000" height="400.000" viewBox="0.0 0.0 400.000 400.000" version="1.1">
  <title>Produce by Acme CAD Converter</title>
  <desc>Produce by Acme CAD Converter</desc>
<g id="0" display="visible">
<g><path d="M0.73 332.84L399.27 332.84"
fill="none" stroke="black" stroke-width="3"/>
</g>
<g><path d="M399.27 67.16L0.73 67.16"
fill="none" stroke="black" stroke-width="3"/>
</g>
<g><path d="M33.94 200L35.87 184.1M35.87 184.1L41.55 169.13M41.55 169.13L50.65 155.95M50.65 155.95L62.63 145.34M62.63 145.34L76.81 137.89M76.81 137.89L92.36 134.06M92.36 134.06L108.37 134.06M108.37 134.06L123.92 137.89M123.92 137.89L138.1 145.34M138.1 145.34L150.08 155.95M150.08 155.95L159.18 169.13M159.18 169.13L164.86 184.1M164.86 184.1L166.79 200M166.79 200L164.86 215.9M164.86 215.9L159.18 230.87M159.18 230.87L150.08 244.05M150.08 244.05L138.1 254.66M138.1 254.66L123.92 262.11M123.92 262.11L108.37 265.94M108.37 265.94L92.36 265.94M92.36 265.94L76.81 262.11M76.81 262.11L62.63 254.66M62.63 254.66L50.65 244.05M50.65 244.05L41.55 230.87M41.55 230.87L35.87 215.9M35.87 215.9L33.94 200"
fill="none" stroke="black" stroke-width="3"/>
</g>
<g><path d="M0.73 67.16L0.73 332.84"
fill="none" stroke="black" stroke-width="3"/>
</g>
<g><path d="M399.27 332.84L399.27 67.16"
fill="none" stroke="black" stroke-width="3"/>
</g>
<g><path d="M166.79 200L233.21 200"
fill="none" stroke="black" stroke-width="3"/>
</g>
<g><path d="M130.69 229.52L122.11 229.52M122.11 229.52L122.11 173.05M122.11 173.05L121.93 173.05M121.93 173.05L102.42 229.52M102.42 229.52L94.04 229.52M94.04 229.52L74.39 172.13M74.39 172.13L74.11 172.13M74.11 172.13L74.11 229.52M74.11 229.52L65.53 229.52M65.53 229.52L65.53 162.04M65.53 162.04L79.02 162.04M79.02 162.04L95.37 209.81M95.37 209.81L98.52 219.8M98.52 219.8L98.71 219.8M98.71 219.8L102.35 208.98M102.35 208.98L118.67 162.04M118.67 162.04L130.69 162.04M130.69 162.04L130.69 229.52"
fill="none" stroke="black" stroke-width=".5"/>
</g>
<g><path d="M328.32 220.13L300.13 230.75M300.13 230.75L274.64 221.08M274.64 221.08L274.26 220.69M274.26 220.69L273.53 219.9M273.53 219.9L272.14 218.25M272.14 218.25L269.76 214.71M269.76 214.71L266.5 206.66M266.5 206.66L265.23 196.05M265.23 196.05L280.9 165.26M280.9 165.26L299.47 160.8M299.47 160.8L318.06 165.92M318.06 165.92L318.34 166.13M318.34 166.13L318.89 166.56M318.89 166.56L319.93 167.46M319.93 167.46L321.85 169.47M321.85 169.47L324.96 174.27M324.96 174.27L327.3 180.86M327.3 180.86L319.24 183.12M319.24 183.12L299.53 168.71M299.53 168.71L280.81 176.3M280.81 176.3L280.56 176.61M280.56 176.61L280.08 177.23M280.08 177.23L279.17 178.52M279.17 178.52L277.61 181.27M277.61 181.27L275.48 187.51M275.48 187.51L274.66 195.62M274.66 195.62L290.11 221.09M290.11 221.09L299.6 222.67M299.6 222.67L319.41 215.7M319.41 215.7L319.41 203.16M319.41 203.16L299.35 203.16M299.35 203.16L299.35 195.07M299.35 195.07L328.32 195.07M328.32 195.07L328.32 220.13"
fill="none" stroke="black" stroke-width=".5"/>
</g>
<g><path d="M366.06 200L362.21 177.73M362.21 177.73L350.74 157.58M350.74 157.58L333.16 142.66M333.16 142.66L312.37 134.81M312.37 134.81L299.63 133.58M299.63 133.58L277.37 137.42M277.37 137.42L257.21 148.89M257.21 148.89L242.3 166.47M242.3 166.47L234.44 187.26M234.44 187.26L233.21 200M233.21 200L237.05 222.27M237.05 222.27L248.52 242.42M248.52 242.42L266.1 257.34M266.1 257.34L286.9 265.19M286.9 265.19L299.63 266.42M299.63 266.42L321.9 262.58M321.9 262.58L342.06 251.11M342.06 251.11L356.97 233.53M356.97 233.53L364.82 212.74M364.82 212.74L366.06 200"
fill="none" stroke="black" stroke-width=".5"/>
</g>
</g>
</svg>
