<?xml version="1.0" standalone="no"?><svg xmlns="http://www.w3.org/2000/svg" width="400.000" height="400.000" viewBox="0.0 0.0 400.000 400.000" version="1.1">
  <title>Produce by Acme CAD Converter</title>
  <desc>Produce by Acme CAD Converter</desc>
<g id="0" display="visible">
<g><path d="M100.37 200L102.28 180.56M102.28 180.56L107.95 161.87M107.95 161.87L117.16 144.65M117.16 144.65L129.55 129.55M129.55 129.55L144.65 117.16M144.65 117.16L161.87 107.95M161.87 107.95L180.56 102.28M180.56 102.28L200 100.37M200 100.37L219.44 102.28M219.44 102.28L238.13 107.95M238.13 107.95L255.35 117.16M255.35 117.16L270.45 129.55M270.45 129.55L282.84 144.65M282.84 144.65L292.05 161.87M292.05 161.87L297.72 180.56M297.72 180.56L299.63 200M299.63 200L297.72 219.44M297.72 219.44L292.05 238.13M292.05 238.13L282.84 255.35M282.84 255.35L270.45 270.45M270.45 270.45L255.35 282.84M255.35 282.84L238.13 292.05M238.13 292.05L219.44 297.72M219.44 297.72L200 299.63M200 299.63L180.56 297.72M180.56 297.72L161.87 292.05M161.87 292.05L144.65 282.84M144.65 282.84L129.55 270.45M129.55 270.45L117.16 255.35M117.16 255.35L107.95 238.13M107.95 238.13L102.28 219.44M102.28 219.44L100.37 200"
fill="none" stroke="black" stroke-width="3"/>
</g>
<g><path d="M0.73 0.73L399.27 0.73"
fill="none" stroke="black" stroke-width="3"/>
</g>
<g><path d="M0.73 399.27L0.73 0.73"
fill="none" stroke="black" stroke-width="3"/>
</g>
<g><path d="M399.27 0.73L399.27 399.27"
fill="none" stroke="black" stroke-width="3"/>
</g>
<g><path d="M399.27 399.27L0.73 399.27"
fill="none" stroke="black" stroke-width="3"/>
</g>
<g><path d="M110.34 156.54L156.54 110.34"
fill="none" stroke="black" stroke-width="3"/>
</g>
<g><path d="M102.78 178.2L178.2 102.78"
fill="none" stroke="black" stroke-width="3"/>
</g>
<g><path d="M100.52 194.55L194.55 100.52"
fill="none" stroke="black" stroke-width="3"/>
</g>
<g><path d="M100.72 208.43L208.43 100.72"
fill="none" stroke="black" stroke-width="3"/>
</g>
<g><path d="M102.54 220.71L220.71 102.54"
fill="none" stroke="black" stroke-width="3"/>
</g>
<g><path d="M105.57 231.77L231.77 105.57"
fill="none" stroke="black" stroke-width="3"/>
</g>
<g><path d="M109.58 241.85L241.85 109.58"
fill="none" stroke="black" stroke-width="3"/>
</g>
<g><path d="M114.45 251.07L251.07 114.45"
fill="none" stroke="black" stroke-width="3"/>
</g>
<g><path d="M120.09 259.51L259.51 120.09"
fill="none" stroke="black" stroke-width="3"/>
</g>
<g><path d="M126.47 267.23L267.23 126.47"
fill="none" stroke="black" stroke-width="3"/>
</g>
<g><path d="M133.55 274.24L274.24 133.55"
fill="none" stroke="black" stroke-width="3"/>
</g>
<g><path d="M141.34 280.54L280.54 141.34"
fill="none" stroke="black" stroke-width="3"/>
</g>
<g><path d="M149.87 286.1L286.1 149.87"
fill="none" stroke="black" stroke-width="3"/>
</g>
<g><path d="M159.18 290.89L290.89 159.18"
fill="none" stroke="black" stroke-width="3"/>
</g>
<g><path d="M169.35 294.8L294.8 169.35"
fill="none" stroke="black" stroke-width="3"/>
</g>
<g><path d="M180.53 297.71L297.71 180.53"
fill="none" stroke="black" stroke-width="3"/>
</g>
<g><path d="M192.95 299.38L299.38 192.95"
fill="none" stroke="black" stroke-width="3"/>
</g>
<g><path d="M207.04 299.38L299.38 207.04"
fill="none" stroke="black" stroke-width="3"/>
</g>
<g><path d="M223.75 296.76L296.76 223.75"
fill="none" stroke="black" stroke-width="3"/>
</g>
<g><path d="M246.47 288.13L288.13 246.47"
fill="none" stroke="black" stroke-width="3"/>
</g>
</g>
</svg>
