<?xml version="1.0" standalone="no"?><svg xmlns="http://www.w3.org/2000/svg" width="400.000" height="400.000" viewBox="0.0 0.0 400.000 400.000" version="1.1">
  <title>Produce by Acme CAD Converter</title>
  <desc>Produce by Acme CAD Converter</desc>
<g id="0" display="visible">
<g><path d="M194.77 79.15L194.77 0.73"
fill="none" stroke="black" stroke-width="3"/>
</g>
<g><path d="M218.3 275.2L194.77 314.41"
fill="none" stroke="black" stroke-width="3"/>
</g>
<g><path d="M233.98 235.99L233.98 314.41"
fill="none" stroke="black" stroke-width="3"/>
</g>
<g><path d="M155.56 314.41L155.56 235.99"
fill="none" stroke="black" stroke-width="3"/>
</g>
<g><path d="M168.63 314.41L220.91 314.41"
fill="none" stroke="black" stroke-width="3"/>
</g>
<g><path d="M210.46 340.55L194.77 366.69"
fill="none" stroke="black" stroke-width="3"/>
</g>
<g><path d="M220.91 366.69L168.63 366.69"
fill="none" stroke="black" stroke-width="3"/>
</g>
<g><path d="M210.46 340.55L179.09 340.55"
fill="none" stroke="black" stroke-width="3"/>
</g>
<g><path d="M233.98 314.41L155.56 314.41"
fill="none" stroke="black" stroke-width="3"/>
</g>
<g><path d="M194.77 366.69L194.77 392.83"
fill="none" stroke="black" stroke-width="3"/>
</g>
<g><path d="M168.63 366.69L168.63 314.41"
fill="none" stroke="black" stroke-width="3"/>
</g>
<g><path d="M179.09 340.55L194.77 314.41"
fill="none" stroke="black" stroke-width="3"/>
</g>
<g><path d="M205.23 366.69L205.23 392.83"
fill="none" stroke="black" stroke-width="3"/>
</g>
<g><path d="M205.23 392.83L283.65 392.83"
fill="none" stroke="black" stroke-width="3"/>
</g>
<g><path d="M283.65 392.83L265.6 399.27"
fill="none" stroke="black" stroke-width="3"/>
</g>
<g><path d="M283.65 392.83L265.6 386.39"
fill="none" stroke="black" stroke-width="3"/>
</g>
<g><path d="M220.91 314.41L220.91 366.69"
fill="none" stroke="black" stroke-width="3"/>
</g>
<g><path d="M155.56 79.15L233.98 79.15"
fill="none" stroke="black" stroke-width="3"/>
</g>
<g><path d="M233.98 157.57L155.56 157.57"
fill="none" stroke="black" stroke-width="3"/>
</g>
<g><path d="M218.3 118.36L171.25 118.36"
fill="none" stroke="black" stroke-width="3"/>
</g>
<g><path d="M168.63 157.57L220.91 157.57"
fill="none" stroke="black" stroke-width="3"/>
</g>
<g><path d="M218.3 118.36L194.77 157.57"
fill="none" stroke="black" stroke-width="3"/>
</g>
<g><path d="M218.3 275.2L171.25 275.2"
fill="none" stroke="black" stroke-width="3"/>
</g>
<g><path d="M155.56 235.99L233.98 235.99"
fill="none" stroke="black" stroke-width="3"/>
</g>
<g><path d="M194.77 235.99L194.77 157.57"
fill="none" stroke="black" stroke-width="3"/>
</g>
<g><path d="M116.35 118.36L116.35 275.2"
fill="none" stroke="black" stroke-width="3"/>
</g>
<g><path d="M171.25 275.2L194.77 235.99"
fill="none" stroke="black" stroke-width="3"/>
</g>
<g><path d="M155.56 275.2L116.35 275.2"
fill="none" stroke="black" stroke-width="3"/>
</g>
<g><path d="M155.56 157.57L155.56 79.15"
fill="none" stroke="black" stroke-width="3"/>
</g>
<g><path d="M171.25 118.36L194.77 79.15"
fill="none" stroke="black" stroke-width="3"/>
</g>
<g><path d="M155.56 118.36L116.35 118.36"
fill="none" stroke="black" stroke-width="3"/>
</g>
<g><path d="M233.98 79.15L233.98 157.57"
fill="none" stroke="black" stroke-width="3"/>
</g>
<g><path d="M233.98 118.36L260.12 118.36"
fill="none" stroke="black" stroke-width="3"/>
</g>
<g><path d="M194.77 0.73L201.21 18.78"
fill="none" stroke="black" stroke-width="3"/>
</g>
<g><path d="M194.77 0.73L188.33 18.78"
fill="none" stroke="black" stroke-width="3"/>
</g>
</g>
</svg>
