<?xml version="1.0" standalone="no"?><svg xmlns="http://www.w3.org/2000/svg" width="400.000" height="400.000" viewBox="0.0 0.0 400.000 400.000" version="1.1">
  <title>Produce by Acme CAD Converter</title>
  <desc>Produce by Acme CAD Converter</desc>
<g id="0" display="visible">
<g><path d="M67.16 200L69.07 177.55M69.07 177.55L74.74 155.74M74.74 155.74L84.02 135.21M84.02 135.21L96.64 116.54M96.64 116.54L112.23 100.28M112.23 100.28L130.35 86.88M130.35 86.88L150.47 76.74M150.47 76.74L172.01 70.14M172.01 70.14L194.36 67.28M194.36 67.28L216.87 68.23M216.87 68.23L238.9 72.98M238.9 72.98L259.81 81.38M259.81 81.38L278.99 93.19M278.99 93.19L295.91 108.08M295.91 108.08L310.06 125.61M310.06 125.61L321.05 145.28M321.05 145.28L328.56 166.53M328.56 166.53L332.37 188.73M332.37 188.73L332.37 211.27M332.37 211.27L328.56 233.47M328.56 233.47L321.05 254.72M321.05 254.72L310.06 274.39M310.06 274.39L295.91 291.92M295.91 291.92L278.99 306.81M278.99 306.81L259.81 318.62M259.81 318.62L238.9 327.02M238.9 327.02L216.87 331.77M216.87 331.77L194.36 332.72M194.36 332.72L172.01 329.86M172.01 329.86L150.47 323.26M150.47 323.26L130.35 313.12M130.35 313.12L112.23 299.72M112.23 299.72L96.64 283.46M96.64 283.46L84.02 264.79M84.02 264.79L74.74 244.26M74.74 244.26L69.07 222.45M69.07 222.45L67.16 200"
fill="none" stroke="black" stroke-width="3"/>
</g>
<g><path d="M233.21 166.79L338.73 61.27"
fill="none" stroke="black" stroke-width="3"/>
</g>
<g><path d="M233.21 233.21L338.73 338.73"
fill="none" stroke="black" stroke-width="3"/>
</g>
<g><path d="M166.79 166.79L61.27 61.27"
fill="none" stroke="black" stroke-width="3"/>
</g>
<g><path d="M166.79 233.21L61.27 338.73"
fill="none" stroke="black" stroke-width="3"/>
</g>
<g><path d="M200 332.84L200 399.27"
fill="none" stroke="black" stroke-width="3"/>
</g>
<g><path d="M166.79 233.21L133.58 200"
fill="none" stroke="black" stroke-width="3"/>
</g>
<g><path d="M133.58 200L166.79 166.79"
fill="none" stroke="black" stroke-width="3"/>
</g>
<g><path d="M233.21 233.21L266.42 200"
fill="none" stroke="black" stroke-width="3"/>
</g>
<g><path d="M266.42 200L233.21 166.79"
fill="none" stroke="black" stroke-width="3"/>
</g>
<g><path d="M200 67.16L200 0.73"
fill="none" stroke="black" stroke-width="3"/>
</g>
</g>
</svg>
