<?xml version="1.0" standalone="no"?><svg xmlns="http://www.w3.org/2000/svg" width="400.000" height="400.000" viewBox="0.0 0.0 400.000 400.000" version="1.1">
  <title>Produce by Acme CAD Converter</title>
  <desc>Produce by Acme CAD Converter</desc>
<g id="0" display="visible">
<g><path d="M159.05 130.04L159.05 0.73"
fill="none" stroke="black" stroke-width="3"/>
</g>
<g><path d="M176.29 388.65L305.6 388.65"
fill="none" stroke="black" stroke-width="3"/>
</g>
<g><path d="M223.71 259.34L94.4 259.34"
fill="none" stroke="black" stroke-width="3"/>
</g>
<g><path d="M94.4 130.04L223.71 130.04"
fill="none" stroke="black" stroke-width="3"/>
</g>
<g><path d="M202.16 259.34L202.16 345.55"
fill="none" stroke="black" stroke-width="3"/>
</g>
<g><path d="M115.95 345.55L115.95 259.34"
fill="none" stroke="black" stroke-width="3"/>
</g>
<g><path d="M184.91 302.44L159.05 345.55"
fill="none" stroke="black" stroke-width="3"/>
</g>
<g><path d="M202.16 345.55L115.95 345.55"
fill="none" stroke="black" stroke-width="3"/>
</g>
<g><path d="M176.29 345.55L176.29 388.65"
fill="none" stroke="black" stroke-width="3"/>
</g>
<g><path d="M94.4 259.34L94.4 130.04"
fill="none" stroke="black" stroke-width="3"/>
</g>
<g><path d="M197.84 194.69L159.05 259.34"
fill="none" stroke="black" stroke-width="3"/>
</g>
<g><path d="M184.91 302.44L133.19 302.44"
fill="none" stroke="black" stroke-width="3"/>
</g>
<g><path d="M133.19 302.44L159.05 259.34"
fill="none" stroke="black" stroke-width="3"/>
</g>
<g><path d="M115.95 259.34L202.16 259.34"
fill="none" stroke="black" stroke-width="3"/>
</g>
<g><path d="M197.84 194.69L120.26 194.69"
fill="none" stroke="black" stroke-width="3"/>
</g>
<g><path d="M120.26 194.69L159.05 130.04"
fill="none" stroke="black" stroke-width="3"/>
</g>
<g><path d="M305.6 388.65L275.84 378.03"
fill="none" stroke="black" stroke-width="3"/>
</g>
<g><path d="M305.6 388.65L275.84 399.27"
fill="none" stroke="black" stroke-width="3"/>
</g>
<g><path d="M223.71 130.04L223.71 259.34"
fill="none" stroke="black" stroke-width="3"/>
</g>
<g><path d="M223.71 194.69L266.81 194.69"
fill="none" stroke="black" stroke-width="3"/>
</g>
<g><path d="M159.05 0.73L169.67 30.49"
fill="none" stroke="black" stroke-width="3"/>
</g>
<g><path d="M159.05 0.73L148.43 30.49"
fill="none" stroke="black" stroke-width="3"/>
</g>
</g>
</svg>
