<?xml version="1.0" standalone="no"?><svg xmlns="http://www.w3.org/2000/svg" width="400.000" height="400.000" viewBox="0.0 0.0 400.000 400.000" version="1.1">
  <title>Produce by Acme CAD Converter</title>
  <desc>Produce by Acme CAD Converter</desc>
<g id="0" display="visible">
<g><path d="M303.72 299.63L303.72 216.61"
fill="none" stroke="black" stroke-width="3"/>
</g>
<g><path d="M253.91 166.79L253.91 266.42"
fill="none" stroke="black" stroke-width="3"/>
</g>
<g><path d="M233.98 216.61L204.09 266.42"
fill="none" stroke="black" stroke-width="3"/>
</g>
<g><path d="M154.27 266.42L154.27 166.79"
fill="none" stroke="black" stroke-width="3"/>
</g>
<g><path d="M170.88 299.63L104.46 299.63"
fill="none" stroke="black" stroke-width="3"/>
</g>
<g><path d="M253.91 266.42L154.27 266.42"
fill="none" stroke="black" stroke-width="3"/>
</g>
<g><path d="M104.46 299.63L104.46 399.27"
fill="none" stroke="black" stroke-width="3"/>
</g>
<g><path d="M104.46 399.27L112.64 376.34"
fill="none" stroke="black" stroke-width="3"/>
</g>
<g><path d="M104.46 399.27L96.28 376.34"
fill="none" stroke="black" stroke-width="3"/>
</g>
<g><path d="M237.3 299.63L303.72 299.63"
fill="none" stroke="black" stroke-width="3"/>
</g>
<g><path d="M204.09 332.84L204.09 366.06"
fill="none" stroke="black" stroke-width="3"/>
</g>
<g><path d="M170.88 266.42L237.3 266.42"
fill="none" stroke="black" stroke-width="3"/>
</g>
<g><path d="M224.02 299.63L184.16 299.63"
fill="none" stroke="black" stroke-width="3"/>
</g>
<g><path d="M237.3 332.84L170.88 332.84"
fill="none" stroke="black" stroke-width="3"/>
</g>
<g><path d="M224.02 299.63L204.09 332.84"
fill="none" stroke="black" stroke-width="3"/>
</g>
<g><path d="M184.16 299.63L204.09 266.42"
fill="none" stroke="black" stroke-width="3"/>
</g>
<g><path d="M170.88 332.84L170.88 266.42"
fill="none" stroke="black" stroke-width="3"/>
</g>
<g><path d="M237.3 266.42L237.3 332.84"
fill="none" stroke="black" stroke-width="3"/>
</g>
<g><path d="M170.88 133.58L104.46 133.58"
fill="none" stroke="black" stroke-width="3"/>
</g>
<g><path d="M154.27 166.79L253.91 166.79"
fill="none" stroke="black" stroke-width="3"/>
</g>
<g><path d="M104.46 133.58L104.46 216.61"
fill="none" stroke="black" stroke-width="3"/>
</g>
<g><path d="M154.27 216.61L104.46 216.61"
fill="none" stroke="black" stroke-width="3"/>
</g>
<g><path d="M204.09 100.37L204.09 0.73"
fill="none" stroke="black" stroke-width="3"/>
</g>
<g><path d="M253.91 216.61L303.72 216.61"
fill="none" stroke="black" stroke-width="3"/>
</g>
<g><path d="M174.2 216.61L204.09 166.79"
fill="none" stroke="black" stroke-width="3"/>
</g>
<g><path d="M233.98 216.61L174.2 216.61"
fill="none" stroke="black" stroke-width="3"/>
</g>
<g><path d="M170.88 100.37L237.3 100.37"
fill="none" stroke="black" stroke-width="3"/>
</g>
<g><path d="M224.02 133.58L204.09 166.79"
fill="none" stroke="black" stroke-width="3"/>
</g>
<g><path d="M237.3 166.79L170.88 166.79"
fill="none" stroke="black" stroke-width="3"/>
</g>
<g><path d="M224.02 133.58L184.16 133.58"
fill="none" stroke="black" stroke-width="3"/>
</g>
<g><path d="M170.88 166.79L170.88 100.37"
fill="none" stroke="black" stroke-width="3"/>
</g>
<g><path d="M184.16 133.58L204.09 100.37"
fill="none" stroke="black" stroke-width="3"/>
</g>
<g><path d="M237.3 100.37L237.3 166.79"
fill="none" stroke="black" stroke-width="3"/>
</g>
<g><path d="M237.3 133.58L270.51 133.58"
fill="none" stroke="black" stroke-width="3"/>
</g>
<g><path d="M204.09 0.73L195.91 23.66"
fill="none" stroke="black" stroke-width="3"/>
</g>
<g><path d="M204.09 0.73L212.27 23.66"
fill="none" stroke="black" stroke-width="3"/>
</g>
</g>
</svg>
