<?xml version="1.0" standalone="no"?><svg xmlns="http://www.w3.org/2000/svg" width="400.000" height="400.000" viewBox="0.0 0.0 400.000 400.000" version="1.1">
  <title>Produce by Acme CAD Converter</title>
  <desc>Produce by Acme CAD Converter</desc>
<g id="0" display="visible">
<g><path d="M229.43 196.96L231.28 182.32M231.28 182.32L236.72 168.6M236.72 168.6L245.39 156.67M245.39 156.67L256.76 147.26M256.76 147.26L270.11 140.98M270.11 140.98L284.61 138.21M284.61 138.21L299.33 139.14M299.33 139.14L313.37 143.7M313.37 143.7L325.83 151.6M325.83 151.6L335.93 162.36M335.93 162.36L343.04 175.29M343.04 175.29L346.71 189.59M346.71 189.59L346.71 204.34M346.71 204.34L343.04 218.64M343.04 218.64L335.93 231.57M335.93 231.57L325.83 242.32M325.83 242.32L313.37 250.23M313.37 250.23L299.33 254.79M299.33 254.79L284.61 255.72M284.61 255.72L270.11 252.95M270.11 252.95L256.76 246.67M256.76 246.67L245.39 237.26M245.39 237.26L236.72 225.32M236.72 225.32L231.28 211.6M231.28 211.6L229.43 196.96"
fill="none" stroke="black" stroke-width="3"/>
</g>
<g><path d="M131.32 320.77L131.32 399.27"
fill="none" stroke="black" stroke-width="3"/>
</g>
<g><path d="M52.83 118.47L131.32 73.15"
fill="none" stroke="black" stroke-width="3"/>
</g>
<g><path d="M52.83 275.46L131.32 320.77"
fill="none" stroke="black" stroke-width="3"/>
</g>
<g><path d="M52.83 275.46L52.83 118.47"
fill="none" stroke="black" stroke-width="3"/>
</g>
<g><path d="M52.83 118.47L52.83 0.73"
fill="none" stroke="black" stroke-width="3"/>
</g>
<g><path d="M131.32 320.77L131.32 73.15"
fill="none" stroke="black" stroke-width="3"/>
</g>
<g><path d="M131.32 196.96L229.43 196.96"
fill="none" stroke="black" stroke-width="3"/>
</g>
<g><path d="M288.3 255.83L288.3 314.7"
fill="none" stroke="black" stroke-width="3"/>
</g>
<g><path d="M288.3 138.09L288.3 79.23"
fill="none" stroke="black" stroke-width="3"/>
</g>
<g><path d="M267.7 158.7L308.91 158.7"
fill="none" stroke="black" stroke-width="3"/>
</g>
<g><path d="M268.95 157.45L307.66 157.45"
fill="none" stroke="black" stroke-width="3"/>
</g>
<g><path d="M270.19 156.21L306.41 156.21"
fill="none" stroke="black" stroke-width="3"/>
</g>
<g><path d="M271.44 154.96L305.17 154.96"
fill="none" stroke="black" stroke-width="3"/>
</g>
<g><path d="M272.69 153.71L303.92 153.71"
fill="none" stroke="black" stroke-width="3"/>
</g>
<g><path d="M273.93 152.47L302.68 152.47"
fill="none" stroke="black" stroke-width="3"/>
</g>
<g><path d="M275.18 151.22L301.43 151.22"
fill="none" stroke="black" stroke-width="3"/>
</g>
<g><path d="M276.42 149.97L300.18 149.97"
fill="none" stroke="black" stroke-width="3"/>
</g>
<g><path d="M277.67 148.73L298.94 148.73"
fill="none" stroke="black" stroke-width="3"/>
</g>
<g><path d="M267.49 158.91L309.12 158.91"
fill="none" stroke="black" stroke-width="3"/>
</g>
<g><path d="M288.3 138.09L267.49 158.91"
fill="none" stroke="black" stroke-width="3"/>
</g>
<g><path d="M278.92 147.48L297.69 147.48"
fill="none" stroke="black" stroke-width="3"/>
</g>
<g><path d="M280.16 146.24L296.45 146.24"
fill="none" stroke="black" stroke-width="3"/>
</g>
<g><path d="M281.41 144.99L295.2 144.99"
fill="none" stroke="black" stroke-width="3"/>
</g>
<g><path d="M282.65 143.74L293.95 143.74"
fill="none" stroke="black" stroke-width="3"/>
</g>
<g><path d="M283.9 142.5L292.71 142.5"
fill="none" stroke="black" stroke-width="3"/>
</g>
<g><path d="M285.15 141.25L291.46 141.25"
fill="none" stroke="black" stroke-width="3"/>
</g>
<g><path d="M286.39 140.01L290.22 140.01"
fill="none" stroke="black" stroke-width="3"/>
</g>
<g><path d="M287.64 138.76L288.97 138.76"
fill="none" stroke="black" stroke-width="3"/>
</g>
<g><path d="M309.12 158.91L288.3 138.09"
fill="none" stroke="black" stroke-width="3"/>
</g>
</g>
</svg>
