<?xml version="1.0" standalone="no"?><svg xmlns="http://www.w3.org/2000/svg" width="400.000" height="400.000" viewBox="0.0 0.0 400.000 400.000" version="1.1">
  <title>Produce by Acme CAD Converter</title>
  <desc>Produce by Acme CAD Converter</desc>
<g id="0" display="visible">
<g><path d="M45.01 222.14L222.14 177.86"
fill="none" stroke="black" stroke-width="3"/>
</g>
<g><path d="M45.01 222.14L222.14 266.42"
fill="none" stroke="black" stroke-width="3"/>
</g>
<g><path d="M222.14 177.86L45.01 177.86"
fill="none" stroke="black" stroke-width="3"/>
</g>
<g><path d="M45.01 266.42L222.14 266.42"
fill="none" stroke="black" stroke-width="3"/>
</g>
<g><path d="M45.01 177.86L45.01 266.42"
fill="none" stroke="black" stroke-width="3"/>
</g>
<g><path d="M45.01 222.14L0.73 222.14"
fill="none" stroke="black" stroke-width="3"/>
</g>
<g><path d="M266.42 222.14L268.39 209.09M268.39 209.09L274.12 197.2M274.12 197.2L283.09 187.52M283.09 187.52L294.53 180.92M294.53 180.92L307.39 177.98M307.39 177.98L320.56 178.97M320.56 178.97L332.84 183.79M332.84 183.79L343.16 192.02M343.16 192.02L350.6 202.93M350.6 202.93L354.49 215.54M354.49 215.54L354.49 228.74M354.49 228.74L350.6 241.35M350.6 241.35L343.16 252.26M343.16 252.26L332.84 260.49M332.84 260.49L320.56 265.31M320.56 265.31L307.39 266.3M307.39 266.3L294.53 263.36M294.53 263.36L283.09 256.76M283.09 256.76L274.12 247.09M274.12 247.09L268.39 235.19M268.39 235.19L266.42 222.14"
fill="none" stroke="black" stroke-width="3"/>
</g>
<g><path d="M222.14 266.42L222.14 177.86"
fill="none" stroke="black" stroke-width="3"/>
</g>
<g><path d="M222.14 222.14L266.42 222.14"
fill="none" stroke="black" stroke-width="3"/>
</g>
<g><path d="M310.7 177.86L310.7 133.58"
fill="none" stroke="black" stroke-width="3"/>
</g>
<g><path d="M354.99 222.14L399.27 222.14"
fill="none" stroke="black" stroke-width="3"/>
</g>
</g>
</svg>
