<?xml version="1.0" standalone="no"?><svg xmlns="http://www.w3.org/2000/svg" width="400.000" height="400.000" viewBox="0.0 0.0 400.000 400.000" version="1.1">
  <title>Produce by Acme CAD Converter</title>
  <desc>Produce by Acme CAD Converter</desc>
<g id="0" display="visible">
<g><path d="M399.27 125.27L399.27 274.73"
fill="none" stroke="black" stroke-width="3"/>
</g>
<g><path d="M249.82 274.73L249.82 125.27"
fill="none" stroke="black" stroke-width="3"/>
</g>
<g><path d="M279.71 200L324.54 125.27"
fill="none" stroke="black" stroke-width="3"/>
</g>
<g><path d="M150.18 200L249.82 200"
fill="none" stroke="black" stroke-width="3"/>
</g>
<g><path d="M100.37 150.18L50.55 200"
fill="none" stroke="black" stroke-width="3"/>
</g>
<g><path d="M50.55 200L100.37 249.82"
fill="none" stroke="black" stroke-width="3"/>
</g>
<g><path d="M50.55 200L0.73 200"
fill="none" stroke="black" stroke-width="3"/>
</g>
<g><path d="M100.37 249.82L100.37 299.63"
fill="none" stroke="black" stroke-width="3"/>
</g>
<g><path d="M100.37 249.82L150.18 200"
fill="none" stroke="black" stroke-width="3"/>
</g>
<g><path d="M150.18 200L100.37 150.18"
fill="none" stroke="black" stroke-width="3"/>
</g>
<g><path d="M100.37 150.18L100.37 200"
fill="none" stroke="black" stroke-width="3"/>
</g>
<g><path d="M399.27 274.73L249.82 274.73"
fill="none" stroke="black" stroke-width="3"/>
</g>
<g><path d="M369.38 200L324.54 274.73"
fill="none" stroke="black" stroke-width="3"/>
</g>
<g><path d="M274.73 274.73L374.36 274.73"
fill="none" stroke="black" stroke-width="3"/>
</g>
<g><path d="M324.54 274.73L324.54 324.54"
fill="none" stroke="black" stroke-width="3"/>
</g>
<g><path d="M369.38 200L279.71 200"
fill="none" stroke="black" stroke-width="3"/>
</g>
<g><path d="M249.82 125.27L399.27 125.27"
fill="none" stroke="black" stroke-width="3"/>
</g>
<g><path d="M324.54 125.27L324.54 75.46"
fill="none" stroke="black" stroke-width="3"/>
</g>
</g>
</svg>
