<?xml version="1.0" standalone="no"?><svg xmlns="http://www.w3.org/2000/svg" width="400.000" height="400.000" viewBox="0.0 0.0 400.000 400.000" version="1.1">
  <title>Produce by Acme CAD Converter</title>
  <desc>Produce by Acme CAD Converter</desc>
<g id="0" display="visible">
<g><path d="M40.59 200L42.55 175.06M42.55 175.06L48.39 150.74M48.39 150.74L57.96 127.63M57.96 127.63L71.03 106.3M71.03 106.3L87.28 87.28M87.28 87.28L106.3 71.03M106.3 71.03L127.63 57.96M127.63 57.96L150.74 48.39M150.74 48.39L175.06 42.55M175.06 42.55L200 40.59M200 40.59L224.94 42.55M224.94 42.55L249.26 48.39M249.26 48.39L272.37 57.96M272.37 57.96L293.7 71.03M293.7 71.03L312.72 87.28M312.72 87.28L328.97 106.3M328.97 106.3L342.04 127.63M342.04 127.63L351.61 150.74M351.61 150.74L357.45 175.06M357.45 175.06L359.41 200M359.41 200L357.45 224.94M357.45 224.94L351.61 249.26M351.61 249.26L342.04 272.37M342.04 272.37L328.97 293.7M328.97 293.7L312.72 312.72M312.72 312.72L293.7 328.97M293.7 328.97L272.37 342.04M272.37 342.04L249.26 351.61M249.26 351.61L224.94 357.45M224.94 357.45L200 359.41M200 359.41L175.06 357.45M175.06 357.45L150.74 351.61M150.74 351.61L127.63 342.04M127.63 342.04L106.3 328.97M106.3 328.97L87.28 312.72M87.28 312.72L71.03 293.7M71.03 293.7L57.96 272.37M57.96 272.37L48.39 249.26M48.39 249.26L42.55 224.94M42.55 224.94L40.59 200"
fill="none" stroke="black" stroke-width="3"/>
</g>
<g><path d="M0.73 200L2.67 172.27M2.67 172.27L8.45 145.07M8.45 145.07L17.96 118.95M17.96 118.95L31.01 94.4M31.01 94.4L47.35 71.91M47.35 71.91L66.66 51.92M66.66 51.92L88.57 34.8M88.57 34.8L112.65 20.9M112.65 20.9L138.42 10.49M138.42 10.49L165.4 3.76M165.4 3.76L193.05 0.85M193.05 0.85L220.83 1.82M220.83 1.82L248.21 6.65M248.21 6.65L274.65 15.24M274.65 15.24L299.63 27.43M299.63 27.43L322.68 42.98M322.68 42.98L343.34 61.58M343.34 61.58L361.21 82.87M361.21 82.87L375.94 106.45M375.94 106.45L387.25 131.85M387.25 131.85L394.91 158.57M394.91 158.57L398.78 186.1M398.78 186.1L398.78 213.9M398.78 213.9L394.91 241.43M394.91 241.43L387.25 268.15M387.25 268.15L375.94 293.55M375.94 293.55L361.21 317.13M361.21 317.13L343.34 338.42M343.34 338.42L322.68 357.02M322.68 357.02L299.63 372.57M299.63 372.57L274.65 384.76M274.65 384.76L248.21 393.35M248.21 393.35L220.83 398.18M220.83 398.18L193.05 399.15M193.05 399.15L165.4 396.24M165.4 396.24L138.42 389.51M138.42 389.51L112.65 379.1M112.65 379.1L88.57 365.2M88.57 365.2L66.66 348.08M66.66 348.08L47.35 328.09M47.35 328.09L31.01 305.6M31.01 305.6L17.96 281.05M17.96 281.05L8.45 254.93M8.45 254.93L2.67 227.73M2.67 227.73L0.73 200"
fill="none" stroke="black" stroke-width="3"/>
</g>
</g>
</svg>
