<?xml version="1.0" standalone="no"?><svg xmlns="http://www.w3.org/2000/svg" width="400.000" height="400.000" viewBox="0.0 0.0 400.000 400.000" version="1.1">
  <title>Produce by Acme CAD Converter</title>
  <desc>Produce by Acme CAD Converter</desc>
<g id="0" display="visible">
<g><path d="M399.27 399.27L0.73 399.27"
fill="none" stroke="black" stroke-width="3"/>
</g>
<g><path d="M0.73 0.73L399.27 0.73"
fill="none" stroke="black" stroke-width="3"/>
</g>
<g><path d="M0.73 399.27L0.73 0.73"
fill="none" stroke="black" stroke-width="3"/>
</g>
<g><path d="M399.27 0.73L399.27 399.27"
fill="none" stroke="black" stroke-width="3"/>
</g>
<g><path d="M359.41 0.73L359.41 399.27"
fill="none" stroke="black" stroke-width="3"/>
</g>
<g><path d="M40.59 0.73L40.59 399.27"
fill="none" stroke="black" stroke-width="3"/>
</g>
<g><path d="M359.41 0.73L359.41 399.27"
fill="none" stroke="black" stroke-width="3"/>
</g>
<g><path d="M40.59 0.73L40.59 399.27"
fill="none" stroke="black" stroke-width="3"/>
</g>
<g><path d="M160.15 200L239.85 200"
fill="none" stroke="black" stroke-width="3"/>
</g>
<g><path d="M133.58 200L135.51 184.1M135.51 184.1L141.19 169.13M141.19 169.13L150.28 155.95M150.28 155.95L162.27 145.34M162.27 145.34L176.45 137.89M176.45 137.89L191.99 134.06M191.99 134.06L208.01 134.06M208.01 134.06L223.55 137.89M223.55 137.89L237.73 145.34M237.73 145.34L249.72 155.95M249.72 155.95L258.81 169.13M258.81 169.13L264.49 184.1M264.49 184.1L266.42 200M266.42 200L264.49 215.9M264.49 215.9L258.81 230.87M258.81 230.87L249.72 244.05M249.72 244.05L237.73 254.66M237.73 254.66L223.55 262.11M223.55 262.11L208.01 265.94M208.01 265.94L191.99 265.94M191.99 265.94L176.45 262.11M176.45 262.11L162.27 254.66M162.27 254.66L150.28 244.05M150.28 244.05L141.19 230.87M141.19 230.87L135.51 215.9M135.51 215.9L133.58 200"
fill="none" stroke="black" stroke-width="3"/>
</g>
</g>
</svg>
