<?xml version="1.0" standalone="no"?><svg xmlns="http://www.w3.org/2000/svg" width="400.000" height="400.000" viewBox="0.0 0.0 400.000 400.000" version="1.1">
  <title>Produce by Acme CAD Converter</title>
  <desc>Produce by Acme CAD Converter</desc>
<g id="0" display="visible">
<g><path d="M233.21 194.46L260.89 194.46"
fill="none" stroke="black" stroke-width="3"/>
</g>
<g><path d="M233.21 338.38L260.89 338.38"
fill="none" stroke="black" stroke-width="3"/>
</g>
<g><path d="M233.21 205.54L260.89 205.54"
fill="none" stroke="black" stroke-width="3"/>
</g>
<g><path d="M233.21 61.62L260.89 61.62"
fill="none" stroke="black" stroke-width="3"/>
</g>
<g><path d="M166.79 200L168.59 189.22M168.59 189.22L173.79 179.6M173.79 179.6L181.84 172.2M181.84 172.2L191.85 167.81M191.85 167.81L202.74 166.9M202.74 166.9L213.34 169.59M213.34 169.59L222.49 175.57M222.49 175.57L229.21 184.19M229.21 184.19L232.76 194.53M232.76 194.53L232.76 205.47M232.76 205.47L229.21 215.81M229.21 215.81L222.49 224.43M222.49 224.43L213.34 230.41M213.34 230.41L202.74 233.1M202.74 233.1L191.85 232.19M191.85 232.19L181.84 227.8M181.84 227.8L173.79 220.4M173.79 220.4L168.59 210.78M168.59 210.78L166.79 200"
fill="none" stroke="black" stroke-width="3"/>
</g>
<g><path d="M172.32 200L174.19 190M174.19 190L179.55 181.35M179.55 181.35L187.66 175.23M187.66 175.23L197.45 172.44M197.45 172.44L207.57 173.38M207.57 173.38L216.68 177.91M216.68 177.91L223.53 185.43M223.53 185.43L227.2 194.91M227.2 194.91L227.2 205.09M227.2 205.09L223.53 214.57M223.53 214.57L216.68 222.09M216.68 222.09L207.57 226.62M207.57 226.62L197.45 227.56M197.45 227.56L187.66 224.77M187.66 224.77L179.55 218.65M179.55 218.65L174.19 210M174.19 210L172.32 200"
fill="none" stroke="black" stroke-width="3"/>
</g>
<g><path d="M139.11 200L139.11 172.32"
fill="none" stroke="black" stroke-width="3"/>
</g>
<g><path d="M172.32 338.38L174.19 328.38M174.19 328.38L179.55 319.73M179.55 319.73L187.66 313.61M187.66 313.61L197.45 310.82M197.45 310.82L207.57 311.76M207.57 311.76L216.68 316.29M216.68 316.29L223.53 323.81M223.53 323.81L227.2 333.29M227.2 333.29L227.2 343.47M227.2 343.47L223.53 352.95M223.53 352.95L216.68 360.47M216.68 360.47L207.57 365M207.57 365L197.45 365.94M197.45 365.94L187.66 363.15M187.66 363.15L179.55 357.02M179.55 357.02L174.19 348.38M174.19 348.38L172.32 338.38"
fill="none" stroke="black" stroke-width="3"/>
</g>
<g><path d="M166.79 338.38L168.59 327.6M168.59 327.6L173.79 317.98M173.79 317.98L181.84 310.58M181.84 310.58L191.85 306.18M191.85 306.18L202.74 305.28M202.74 305.28L213.34 307.97M213.34 307.97L222.49 313.95M222.49 313.95L229.21 322.57M229.21 322.57L232.76 332.91M232.76 332.91L232.76 343.85M232.76 343.85L229.21 354.19M229.21 354.19L222.49 362.81M222.49 362.81L213.34 368.79M213.34 368.79L202.74 371.48M202.74 371.48L191.85 370.57M191.85 370.57L181.84 366.18M181.84 366.18L173.79 358.78M173.79 358.78L168.59 349.16M168.59 349.16L166.79 338.38"
fill="none" stroke="black" stroke-width="3"/>
</g>
<g><path d="M139.11 338.38L139.11 310.7"
fill="none" stroke="black" stroke-width="3"/>
</g>
<g><path d="M166.79 338.38L139.11 338.38"
fill="none" stroke="black" stroke-width="3"/>
</g>
<g><path d="M200 399.27L200 371.59"
fill="none" stroke="black" stroke-width="3"/>
</g>
<g><path d="M211.07 338.38L200 321.92"
fill="none" stroke="black" stroke-width="3"/>
</g>
<g><path d="M211.07 338.38L188.93 338.38"
fill="none" stroke="black" stroke-width="3"/>
</g>
<g><path d="M200 354.84L188.93 338.38"
fill="none" stroke="black" stroke-width="3"/>
</g>
<g><path d="M166.79 200L139.11 200"
fill="none" stroke="black" stroke-width="3"/>
</g>
<g><path d="M200 260.89L200 233.21"
fill="none" stroke="black" stroke-width="3"/>
</g>
<g><path d="M200 305.17L200 277.49"
fill="none" stroke="black" stroke-width="3"/>
</g>
<g><path d="M211.07 200L188.93 200"
fill="none" stroke="black" stroke-width="3"/>
</g>
<g><path d="M211.07 200L200 183.54"
fill="none" stroke="black" stroke-width="3"/>
</g>
<g><path d="M200 216.46L188.93 200"
fill="none" stroke="black" stroke-width="3"/>
</g>
<g><path d="M139.11 61.62L139.11 33.94"
fill="none" stroke="black" stroke-width="3"/>
</g>
<g><path d="M172.32 61.62L174.19 51.62M174.19 51.62L179.55 42.98M179.55 42.98L187.66 36.85M187.66 36.85L197.45 34.06M197.45 34.06L207.57 35M207.57 35L216.68 39.53M216.68 39.53L223.53 47.05M223.53 47.05L227.2 56.53M227.2 56.53L227.2 66.71M227.2 66.71L223.53 76.19M223.53 76.19L216.68 83.71M216.68 83.71L207.57 88.24M207.57 88.24L197.45 89.18M197.45 89.18L187.66 86.39M187.66 86.39L179.55 80.27M179.55 80.27L174.19 71.62M174.19 71.62L172.32 61.62"
fill="none" stroke="black" stroke-width="3"/>
</g>
<g><path d="M166.79 61.62L168.59 50.84M168.59 50.84L173.79 41.22M173.79 41.22L181.84 33.82M181.84 33.82L191.85 29.43M191.85 29.43L202.74 28.52M202.74 28.52L213.34 31.21M213.34 31.21L222.49 37.19M222.49 37.19L229.21 45.81M229.21 45.81L232.76 56.15M232.76 56.15L232.76 67.09M232.76 67.09L229.21 77.43M229.21 77.43L222.49 86.05M222.49 86.05L213.34 92.03M213.34 92.03L202.74 94.72M202.74 94.72L191.85 93.82M191.85 93.82L181.84 89.42M181.84 89.42L173.79 82.02M173.79 82.02L168.59 72.4M168.59 72.4L166.79 61.62"
fill="none" stroke="black" stroke-width="3"/>
</g>
<g><path d="M166.79 61.62L139.11 61.62"
fill="none" stroke="black" stroke-width="3"/>
</g>
<g><path d="M200 122.51L200 94.83"
fill="none" stroke="black" stroke-width="3"/>
</g>
<g><path d="M200 166.79L200 139.11"
fill="none" stroke="black" stroke-width="3"/>
</g>
<g><path d="M211.07 61.62L200 45.16"
fill="none" stroke="black" stroke-width="3"/>
</g>
<g><path d="M211.07 61.62L188.93 61.62"
fill="none" stroke="black" stroke-width="3"/>
</g>
<g><path d="M200 78.08L188.93 61.62"
fill="none" stroke="black" stroke-width="3"/>
</g>
<g><path d="M200 28.41L200 0.73"
fill="none" stroke="black" stroke-width="3"/>
</g>
<g><path d="M260.89 61.62L260.89 194.46"
fill="none" stroke="black" stroke-width="3"/>
</g>
<g><path d="M260.89 205.54L260.89 338.38"
fill="none" stroke="black" stroke-width="3"/>
</g>
</g>
</svg>
