<?xml version="1.0" standalone="no"?><svg xmlns="http://www.w3.org/2000/svg" width="400.000" height="400.000" viewBox="0.0 0.0 400.000 400.000" version="1.1">
  <title>Produce by Acme CAD Converter</title>
  <desc>Produce by Acme CAD Converter</desc>
<g id="0" display="visible">
<g><path d="M200 399.27L200 308.69"
fill="none" stroke="black" stroke-width="3"/>
</g>
<g><path d="M91.31 200L93.27 179.43M93.27 179.43L99.09 159.6M99.09 159.6L108.56 141.24M108.56 141.24L121.34 124.99M121.34 124.99L136.95 111.46M136.95 111.46L154.85 101.13M154.85 101.13L174.38 94.37M174.38 94.37L194.83 91.43M194.83 91.43L215.47 92.42M215.47 92.42L235.55 97.29M235.55 97.29L254.35 105.87M254.35 105.87L271.18 117.86M271.18 117.86L285.44 132.81M285.44 132.81L296.61 150.19M296.61 150.19L304.29 169.38M304.29 169.38L308.2 189.67M308.2 189.67L308.2 210.33M308.2 210.33L304.29 230.62M304.29 230.62L296.61 249.81M296.61 249.81L285.44 267.19M285.44 267.19L271.18 282.14M271.18 282.14L254.35 294.13M254.35 294.13L235.55 302.71M235.55 302.71L215.47 307.58M215.47 307.58L194.83 308.57M194.83 308.57L174.38 305.63M174.38 305.63L154.85 298.87M154.85 298.87L136.95 288.54M136.95 288.54L121.34 275.01M121.34 275.01L108.56 258.76M108.56 258.76L99.09 240.4M99.09 240.4L93.27 220.57M93.27 220.57L91.31 200"
fill="none" stroke="black" stroke-width="3"/>
</g>
<g><path d="M109.58 139.68L290.42 139.68"
fill="none" stroke="black" stroke-width="3"/>
</g>
<g><path d="M99.84 157.8L300.16 157.8"
fill="none" stroke="black" stroke-width="3"/>
</g>
<g><path d="M200 91.31L200 0.73"
fill="none" stroke="black" stroke-width="3"/>
</g>
</g>
</svg>
