<?xml version="1.0" standalone="no"?><svg xmlns="http://www.w3.org/2000/svg" width="400.000" height="400.000" viewBox="0.0 0.0 400.000 400.000" version="1.1">
  <title>Produce by Acme CAD Converter</title>
  <desc>Produce by Acme CAD Converter</desc>
<g id="0" display="visible">
<g><path d="M237.7 232.31L129.99 232.31"
fill="none" stroke="black" stroke-width="3"/>
</g>
<g><path d="M129.99 167.69L237.7 167.69"
fill="none" stroke="black" stroke-width="3"/>
</g>
<g><path d="M65.36 135.37L99.57 166.53"
fill="none" stroke="black" stroke-width="3"/>
</g>
<g><path d="M65.36 135.37L31.15 166.53"
fill="none" stroke="black" stroke-width="3"/>
</g>
<g><path d="M156.05 167.69L156.05 113.83"
fill="none" stroke="black" stroke-width="3"/>
</g>
<g><path d="M0.73 200L2.61 184.53M2.61 184.53L8.14 169.97M8.14 169.97L16.99 157.14M16.99 157.14L28.65 146.81M28.65 146.81L42.44 139.57M42.44 139.57L57.57 135.84M57.57 135.84L73.15 135.84M73.15 135.84L88.28 139.57M88.28 139.57L102.07 146.81M102.07 146.81L113.73 157.14M113.73 157.14L122.58 169.97M122.58 169.97L128.11 184.53M128.11 184.53L129.99 200M129.99 200L128.11 215.47M128.11 215.47L122.58 230.03M122.58 230.03L113.73 242.86M113.73 242.86L102.07 253.19M102.07 253.19L88.28 260.43M88.28 260.43L73.15 264.16M73.15 264.16L57.57 264.16M57.57 264.16L42.44 260.43M42.44 260.43L28.65 253.19M28.65 253.19L16.99 242.86M16.99 242.86L8.14 230.03M8.14 230.03L2.61 215.47M2.61 215.47L0.73 200"
fill="none" stroke="black" stroke-width="3"/>
</g>
<g><path d="M32.26 165.52L98.46 165.52"
fill="none" stroke="black" stroke-width="3"/>
</g>
<g><path d="M34.14 163.81L96.58 163.81"
fill="none" stroke="black" stroke-width="3"/>
</g>
<g><path d="M36.02 162.1L94.71 162.1"
fill="none" stroke="black" stroke-width="3"/>
</g>
<g><path d="M31.15 166.53L99.57 166.53"
fill="none" stroke="black" stroke-width="3"/>
</g>
<g><path d="M65.36 264.63L65.36 318.48"
fill="none" stroke="black" stroke-width="3"/>
</g>
<g><path d="M129.99 232.31L129.99 200"
fill="none" stroke="black" stroke-width="3"/>
</g>
<g><path d="M129.99 200L129.99 167.69"
fill="none" stroke="black" stroke-width="3"/>
</g>
<g><path d="M156.05 232.31L156.05 286.17"
fill="none" stroke="black" stroke-width="3"/>
</g>
<g><path d="M214.89 232.31L214.89 286.17"
fill="none" stroke="black" stroke-width="3"/>
</g>
<g><path d="M37.89 160.39L92.83 160.39"
fill="none" stroke="black" stroke-width="3"/>
</g>
<g><path d="M39.77 158.68L90.95 158.68"
fill="none" stroke="black" stroke-width="3"/>
</g>
<g><path d="M41.65 156.97L89.07 156.97"
fill="none" stroke="black" stroke-width="3"/>
</g>
<g><path d="M43.53 155.26L87.2 155.26"
fill="none" stroke="black" stroke-width="3"/>
</g>
<g><path d="M45.4 153.55L85.32 153.55"
fill="none" stroke="black" stroke-width="3"/>
</g>
<g><path d="M47.28 151.84L83.44 151.84"
fill="none" stroke="black" stroke-width="3"/>
</g>
<g><path d="M65.36 135.37L65.36 81.52"
fill="none" stroke="black" stroke-width="3"/>
</g>
<g><path d="M49.16 150.13L81.56 150.13"
fill="none" stroke="black" stroke-width="3"/>
</g>
<g><path d="M51.04 148.42L79.69 148.42"
fill="none" stroke="black" stroke-width="3"/>
</g>
<g><path d="M52.91 146.71L77.81 146.71"
fill="none" stroke="black" stroke-width="3"/>
</g>
<g><path d="M54.79 145L75.93 145"
fill="none" stroke="black" stroke-width="3"/>
</g>
<g><path d="M56.67 143.29L74.05 143.29"
fill="none" stroke="black" stroke-width="3"/>
</g>
<g><path d="M58.55 141.58L72.18 141.58"
fill="none" stroke="black" stroke-width="3"/>
</g>
<g><path d="M60.42 139.87L70.3 139.87"
fill="none" stroke="black" stroke-width="3"/>
</g>
<g><path d="M62.3 138.16L68.42 138.16"
fill="none" stroke="black" stroke-width="3"/>
</g>
<g><path d="M64.18 136.45L66.54 136.45"
fill="none" stroke="black" stroke-width="3"/>
</g>
<g><path d="M291.55 200L293.39 186.06M293.39 186.06L298.77 173.07M298.77 173.07L307.33 161.92M307.33 161.92L318.48 153.36M318.48 153.36L331.47 147.98M331.47 147.98L345.41 146.14M345.41 146.14L359.35 147.98M359.35 147.98L372.34 153.36M372.34 153.36L383.49 161.92M383.49 161.92L392.05 173.07M392.05 173.07L397.43 186.06M397.43 186.06L399.27 200M399.27 200L397.43 213.94M397.43 213.94L392.05 226.93M392.05 226.93L383.49 238.08M383.49 238.08L372.34 246.64M372.34 246.64L359.35 252.02M359.35 252.02L345.41 253.86M345.41 253.86L331.47 252.02M331.47 252.02L318.48 246.64M318.48 246.64L307.33 238.08M307.33 238.08L298.77 226.93M298.77 226.93L293.39 213.94M293.39 213.94L291.55 200"
fill="none" stroke="black" stroke-width="3"/>
</g>
<g><path d="M237.7 167.69L237.7 232.31"
fill="none" stroke="black" stroke-width="3"/>
</g>
<g><path d="M237.7 200L291.55 200"
fill="none" stroke="black" stroke-width="3"/>
</g>
</g>
</svg>
