<?xml version="1.0" standalone="no"?><svg xmlns="http://www.w3.org/2000/svg" width="400.000" height="400.000" viewBox="0.0 0.0 400.000 400.000" version="1.1">
  <title>Produce by Acme CAD Converter</title>
  <desc>Produce by Acme CAD Converter</desc>
<g id="0" display="visible">
<g><path d="M266.42 133.58L264.49 117.68M264.49 117.68L258.81 102.71M258.81 102.71L249.72 89.53M249.72 89.53L237.73 78.91M237.73 78.91L223.55 71.47M223.55 71.47L208.01 67.64M208.01 67.64L191.99 67.64M191.99 67.64L176.45 71.47M176.45 71.47L162.27 78.91M162.27 78.91L150.28 89.53M150.28 89.53L141.19 102.71M141.19 102.71L135.51 117.68M135.51 117.68L133.58 133.58"
fill="none" stroke="black" stroke-width="3"/>
</g>
<g><path d="M133.58 133.58L266.42 133.58"
fill="none" stroke="black" stroke-width="3"/>
</g>
<g><path d="M133.58 266.42L135.51 282.32M135.51 282.32L141.19 297.29M141.19 297.29L150.28 310.47M150.28 310.47L162.27 321.09M162.27 321.09L176.45 328.53M176.45 328.53L191.99 332.36M191.99 332.36L208.01 332.36M208.01 332.36L223.55 328.53M223.55 328.53L237.73 321.09M237.73 321.09L249.72 310.47M249.72 310.47L258.81 297.29M258.81 297.29L264.49 282.32M264.49 282.32L266.42 266.42"
fill="none" stroke="black" stroke-width="3"/>
</g>
<g><path d="M133.58 266.42L135.51 282.32M135.51 282.32L141.19 297.29M141.19 297.29L150.28 310.47M150.28 310.47L162.27 321.09M162.27 321.09L176.45 328.53M176.45 328.53L191.99 332.36M191.99 332.36L208.01 332.36M208.01 332.36L223.55 328.53M223.55 328.53L237.73 321.09M237.73 321.09L249.72 310.47M249.72 310.47L258.81 297.29M258.81 297.29L264.49 282.32M264.49 282.32L266.42 266.42"
fill="none" stroke="black" stroke-width="3"/>
</g>
<g><path d="M133.58 266.42L133.58 133.58"
fill="none" stroke="black" stroke-width="3"/>
</g>
<g><path d="M266.42 133.58L266.42 266.42"
fill="none" stroke="black" stroke-width="3"/>
</g>
<g><path d="M200 332.84L200 399.27"
fill="none" stroke="black" stroke-width="3"/>
</g>
<g><path d="M200 67.16L200 0.73"
fill="none" stroke="black" stroke-width="3"/>
</g>
</g>
</svg>
