<?xml version="1.0" standalone="no"?><svg xmlns="http://www.w3.org/2000/svg" width="400.000" height="400.000" viewBox="0.0 0.0 400.000 400.000" version="1.1">
  <title>Produce by Acme CAD Converter</title>
  <desc>Produce by Acme CAD Converter</desc>
<g id="0" display="visible">
<g><path d="M200 332.84L200 399.27"
fill="none" stroke="black" stroke-width="3"/>
</g>
<g><path d="M200 67.16L200 0.73"
fill="none" stroke="black" stroke-width="3"/>
</g>
<g><path d="M181.1 266.42L266.42 181.1"
fill="none" stroke="black" stroke-width="3"/>
</g>
<g><path d="M151.28 266.42L266.42 151.28"
fill="none" stroke="black" stroke-width="3"/>
</g>
<g><path d="M133.58 254.3L254.3 133.58"
fill="none" stroke="black" stroke-width="3"/>
</g>
<g><path d="M133.58 224.47L224.47 133.58"
fill="none" stroke="black" stroke-width="3"/>
</g>
<g><path d="M133.58 266.42L266.42 266.42"
fill="none" stroke="black" stroke-width="3"/>
</g>
<g><path d="M133.58 133.58L266.42 133.58"
fill="none" stroke="black" stroke-width="3"/>
</g>
<g><path d="M266.42 332.84L133.58 332.84"
fill="none" stroke="black" stroke-width="3"/>
</g>
<g><path d="M133.58 67.16L266.42 67.16"
fill="none" stroke="black" stroke-width="3"/>
</g>
<g><path d="M107.01 107.01L107.01 292.99"
fill="none" stroke="black" stroke-width="3"/>
</g>
<g><path d="M133.58 332.84L133.58 67.16"
fill="none" stroke="black" stroke-width="3"/>
</g>
<g><path d="M107.01 292.99L133.58 292.99"
fill="none" stroke="black" stroke-width="3"/>
</g>
<g><path d="M107.01 273.4L133.58 273.4"
fill="none" stroke="black" stroke-width="3"/>
</g>
<g><path d="M107.01 252.31L133.58 252.31"
fill="none" stroke="black" stroke-width="3"/>
</g>
<g><path d="M107.01 231.22L133.58 231.22"
fill="none" stroke="black" stroke-width="3"/>
</g>
<g><path d="M107.01 210.13L133.58 210.13"
fill="none" stroke="black" stroke-width="3"/>
</g>
<g><path d="M133.58 194.65L194.65 133.58"
fill="none" stroke="black" stroke-width="3"/>
</g>
<g><path d="M133.58 164.82L164.82 133.58"
fill="none" stroke="black" stroke-width="3"/>
</g>
<g><path d="M107.01 189.04L133.58 189.04"
fill="none" stroke="black" stroke-width="3"/>
</g>
<g><path d="M107.01 167.95L133.58 167.95"
fill="none" stroke="black" stroke-width="3"/>
</g>
<g><path d="M107.01 146.86L133.58 146.86"
fill="none" stroke="black" stroke-width="3"/>
</g>
<g><path d="M107.01 125.77L133.58 125.77"
fill="none" stroke="black" stroke-width="3"/>
</g>
<g><path d="M133.58 135L135 133.58"
fill="none" stroke="black" stroke-width="3"/>
</g>
<g><path d="M107.01 107.01L133.58 107.01"
fill="none" stroke="black" stroke-width="3"/>
</g>
<g><path d="M292.99 107.01L292.99 292.99"
fill="none" stroke="black" stroke-width="3"/>
</g>
<g><path d="M266.42 67.16L266.42 332.84"
fill="none" stroke="black" stroke-width="3"/>
</g>
<g><path d="M292.99 292.99L266.42 292.99"
fill="none" stroke="black" stroke-width="3"/>
</g>
<g><path d="M240.75 266.42L266.42 240.75"
fill="none" stroke="black" stroke-width="3"/>
</g>
<g><path d="M210.92 266.42L266.42 210.92"
fill="none" stroke="black" stroke-width="3"/>
</g>
<g><path d="M266.42 273.4L292.99 273.4"
fill="none" stroke="black" stroke-width="3"/>
</g>
<g><path d="M266.42 252.31L292.99 252.31"
fill="none" stroke="black" stroke-width="3"/>
</g>
<g><path d="M266.42 231.22L292.99 231.22"
fill="none" stroke="black" stroke-width="3"/>
</g>
<g><path d="M266.42 210.13L292.99 210.13"
fill="none" stroke="black" stroke-width="3"/>
</g>
<g><path d="M266.42 189.04L292.99 189.04"
fill="none" stroke="black" stroke-width="3"/>
</g>
<g><path d="M266.42 167.95L292.99 167.95"
fill="none" stroke="black" stroke-width="3"/>
</g>
<g><path d="M266.42 146.86L292.99 146.86"
fill="none" stroke="black" stroke-width="3"/>
</g>
<g><path d="M266.42 125.77L292.99 125.77"
fill="none" stroke="black" stroke-width="3"/>
</g>
<g><path d="M292.99 107.01L266.42 107.01"
fill="none" stroke="black" stroke-width="3"/>
</g>
</g>
</svg>
