<?xml version="1.0" standalone="no"?><svg xmlns="http://www.w3.org/2000/svg" width="400.000" height="400.000" viewBox="0.0 0.0 400.000 400.000" version="1.1">
  <title>Produce by Acme CAD Converter</title>
  <desc>Produce by Acme CAD Converter</desc>
<g id="0" display="visible">
<g><path d="M180.29 220.44L196.33 230.66"
fill="none" stroke="black" stroke-width="3"/>
</g>
<g><path d="M0.73 220.44L235.77 220.44"
fill="none" stroke="black" stroke-width="3"/>
</g>
<g><path d="M0.73 179.56L235.77 179.56"
fill="none" stroke="black" stroke-width="3"/>
</g>
<g><path d="M143.8 230.66L337.95 230.66"
fill="none" stroke="black" stroke-width="3"/>
</g>
<g><path d="M51.83 169.34L337.95 169.34"
fill="none" stroke="black" stroke-width="3"/>
</g>
<g><path d="M92.7 251.09L399.27 251.09"
fill="none" stroke="black" stroke-width="3"/>
</g>
<g><path d="M92.7 148.91L297.08 148.91"
fill="none" stroke="black" stroke-width="3"/>
</g>
<g><path d="M92.7 148.91L79.48 150.65M79.48 150.65L67.16 155.75M67.16 155.75L56.57 163.87M56.57 163.87L48.45 174.45M48.45 174.45L43.35 186.78M43.35 186.78L41.61 200M41.61 200L43.35 213.22M43.35 213.22L48.45 225.55M48.45 225.55L56.57 236.13M56.57 236.13L67.16 244.25M67.16 244.25L79.48 249.35M79.48 249.35L92.7 251.09"
fill="none" stroke="black" stroke-width="3"/>
</g>
<g><path d="M143.8 251.09L143.8 281.75"
fill="none" stroke="black" stroke-width="3"/>
</g>
<g><path d="M149.63 220.44L165.67 230.66"
fill="none" stroke="black" stroke-width="3"/>
</g>
<g><path d="M180.29 220.44L165.67 230.66"
fill="none" stroke="black" stroke-width="3"/>
</g>
<g><path d="M143.8 148.91L143.8 118.25"
fill="none" stroke="black" stroke-width="3"/>
</g>
<g><path d="M205.11 200L235.77 220.44"
fill="none" stroke="black" stroke-width="3"/>
</g>
<g><path d="M297.08 251.09L310.3 249.35M310.3 249.35L322.63 244.25M322.63 244.25L333.21 236.13M333.21 236.13L341.33 225.55M341.33 225.55L346.43 213.22M346.43 213.22L348.17 200M348.17 200L346.43 186.78M346.43 186.78L341.33 174.45M341.33 174.45L333.21 163.87M333.21 163.87L322.63 155.75M322.63 155.75L310.3 150.65M310.3 150.65L297.08 148.91"
fill="none" stroke="black" stroke-width="3"/>
</g>
<g><path d="M272.26 220.44L288.3 230.66"
fill="none" stroke="black" stroke-width="3"/>
</g>
<g><path d="M241.6 220.44L226.98 230.66"
fill="none" stroke="black" stroke-width="3"/>
</g>
<g><path d="M210.94 220.44L196.33 230.66"
fill="none" stroke="black" stroke-width="3"/>
</g>
<g><path d="M210.94 220.44L226.98 230.66"
fill="none" stroke="black" stroke-width="3"/>
</g>
<g><path d="M272.26 220.44L257.64 230.66"
fill="none" stroke="black" stroke-width="3"/>
</g>
<g><path d="M241.6 220.44L257.64 230.66"
fill="none" stroke="black" stroke-width="3"/>
</g>
<g><path d="M302.91 220.44L288.3 230.66"
fill="none" stroke="black" stroke-width="3"/>
</g>
<g><path d="M224.01 148.91L224.01 118.25"
fill="none" stroke="black" stroke-width="3"/>
</g>
<g><path d="M254.66 148.91L254.66 118.25"
fill="none" stroke="black" stroke-width="3"/>
</g>
<g><path d="M235.77 179.56L205.11 200"
fill="none" stroke="black" stroke-width="3"/>
</g>
<g><path d="M213.79 118.25L264.88 118.25"
fill="none" stroke="black" stroke-width="3"/>
</g>
<g><path d="M285.32 148.91L285.32 118.25"
fill="none" stroke="black" stroke-width="3"/>
</g>
</g>
</svg>
