<?xml version="1.0" standalone="no"?><svg xmlns="http://www.w3.org/2000/svg" width="400.000" height="400.000" viewBox="0.0 0.0 400.000 400.000" version="1.1">
  <title>Produce by Acme CAD Converter</title>
  <desc>Produce by Acme CAD Converter</desc>
<g id="0" display="visible">
<g><path d="M224.52 287.68L224.52 0.73"
fill="none" stroke="black" stroke-width="3"/>
</g>
<g><path d="M304.22 160.15L304.22 319.56"
fill="none" stroke="black" stroke-width="3"/>
</g>
<g><path d="M144.81 319.56L144.81 160.15"
fill="none" stroke="black" stroke-width="3"/>
</g>
<g><path d="M144.81 319.56L146.55 336.13M146.55 336.13L151.7 351.98M151.7 351.98L160.03 366.41M160.03 366.41L171.18 378.79M171.18 378.79L184.66 388.59M184.66 388.59L199.89 395.37M199.89 395.37L216.19 398.83M216.19 398.83L232.85 398.83M232.85 398.83L249.15 395.37M249.15 395.37L264.37 388.59M264.37 388.59L277.85 378.79M277.85 378.79L289 366.41M289 366.41L297.33 351.98M297.33 351.98L302.48 336.13M302.48 336.13L304.22 319.56"
fill="none" stroke="black" stroke-width="3"/>
</g>
<g><path d="M144.81 319.56L146.55 336.13M146.55 336.13L151.7 351.98M151.7 351.98L160.03 366.41M160.03 366.41L171.18 378.79M171.18 378.79L184.66 388.59M184.66 388.59L199.89 395.37M199.89 395.37L216.19 398.83M216.19 398.83L232.85 398.83M232.85 398.83L249.15 395.37M249.15 395.37L264.37 388.59M264.37 388.59L277.85 378.79M277.85 378.79L289 366.41M289 366.41L297.33 351.98M297.33 351.98L302.48 336.13M302.48 336.13L304.22 319.56"
fill="none" stroke="black" stroke-width="3"/>
</g>
<g><path d="M191.78 87.48L154.58 16.98"
fill="none" stroke="black" stroke-width="3"/>
</g>
<g><path d="M304.22 160.15L302.48 143.57M302.48 143.57L297.33 127.73M297.33 127.73L289 113.3M289 113.3L277.85 100.91M277.85 100.91L264.37 91.12M264.37 91.12L249.15 84.34M249.15 84.34L232.85 80.88M232.85 80.88L216.19 80.88M216.19 80.88L199.89 84.34M199.89 84.34L184.66 91.12M184.66 91.12L171.18 100.91M171.18 100.91L160.03 113.3M160.03 113.3L151.7 127.73M151.7 127.73L146.55 143.57M146.55 143.57L144.81 160.15"
fill="none" stroke="black" stroke-width="3"/>
</g>
<g><path d="M157.81 116.53L95.78 66.47"
fill="none" stroke="black" stroke-width="3"/>
</g>
<g><path d="M265.51 91.79L292.28 16.71"
fill="none" stroke="black" stroke-width="3"/>
</g>
</g>
</svg>
