<?xml version="1.0" standalone="no"?><svg xmlns="http://www.w3.org/2000/svg" width="400.000" height="400.000" viewBox="0.0 0.0 400.000 400.000" version="1.1">
  <title>Produce by Acme CAD Converter</title>
  <desc>Produce by Acme CAD Converter</desc>
<g id="0" display="visible">
<g><path d="M166.91 168.71L99.11 168.71"
fill="none" stroke="black" stroke-width="3"/>
</g>
<g><path d="M233.09 331.46L233.09 399.27"
fill="none" stroke="black" stroke-width="3"/>
</g>
<g><path d="M300.89 128.06L300.89 263.66"
fill="none" stroke="black" stroke-width="3"/>
</g>
<g><path d="M233.09 128.06L233.09 82.1"
fill="none" stroke="black" stroke-width="3"/>
</g>
<g><path d="M165.29 263.66L165.29 128.06"
fill="none" stroke="black" stroke-width="3"/>
</g>
<g><path d="M233.09 331.46L165.29 263.66"
fill="none" stroke="black" stroke-width="3"/>
</g>
<g><path d="M300.89 263.66L233.09 331.46"
fill="none" stroke="black" stroke-width="3"/>
</g>
<g><path d="M300.89 263.66L165.29 263.66"
fill="none" stroke="black" stroke-width="3"/>
</g>
<g><path d="M165.29 128.06L300.89 128.06"
fill="none" stroke="black" stroke-width="3"/>
</g>
<g><path d="M233.09 128.06L233.09 234.97"
fill="none" stroke="black" stroke-width="3"/>
</g>
<g><path d="M274.02 234.97L264.43 229.53M264.43 229.53L253.56 227.65M253.56 227.65L242.69 229.53M242.69 229.53L233.09 234.97"
fill="none" stroke="black" stroke-width="3"/>
</g>
<g><path d="M233.09 234.97L242.69 240.41M242.69 240.41L253.56 242.3M253.56 242.3L264.43 240.41M264.43 240.41L274.02 234.97"
fill="none" stroke="black" stroke-width="3"/>
</g>
<g><path d="M192.15 234.97L201.75 240.41M201.75 240.41L212.62 242.3M212.62 242.3L223.49 240.41M223.49 240.41L233.09 234.97"
fill="none" stroke="black" stroke-width="3"/>
</g>
<g><path d="M233.09 234.97L223.49 229.53M223.49 229.53L212.62 227.65M212.62 227.65L201.75 229.53M201.75 229.53L192.15 234.97"
fill="none" stroke="black" stroke-width="3"/>
</g>
<g><path d="M192.41 41.41L194.21 29.42M194.21 29.42L199.47 18.5M199.47 18.5L207.72 9.61M207.72 9.61L218.22 3.55M218.22 3.55L230.05 0.85M230.05 0.85L242.14 1.75M242.14 1.75L253.43 6.18M253.43 6.18L262.91 13.74M262.91 13.74L269.74 23.76M269.74 23.76L273.31 35.35M273.31 35.35L273.31 47.48M273.31 47.48L269.74 59.07M269.74 59.07L262.91 69.08M262.91 69.08L253.43 76.65M253.43 76.65L242.14 81.08M242.14 81.08L230.05 81.98M230.05 81.98L218.22 79.28M218.22 79.28L207.72 73.22M207.72 73.22L199.47 64.33M199.47 64.33L194.21 53.41M194.21 53.41L192.41 41.41"
fill="none" stroke="black" stroke-width="3"/>
</g>
<g><path d="M214.97 44.91L214.97 13.95"
fill="none" stroke="black" stroke-width="3"/>
</g>
<g><path d="M214.97 13.95L233.09 32.07"
fill="none" stroke="black" stroke-width="3"/>
</g>
<g><path d="M233.09 32.07L251.2 13.95"
fill="none" stroke="black" stroke-width="3"/>
</g>
<g><path d="M251.2 13.95L251.2 44.91"
fill="none" stroke="black" stroke-width="3"/>
</g>
</g>
</svg>
