<?xml version="1.0" standalone="no"?><svg xmlns="http://www.w3.org/2000/svg" width="400.000" height="400.000" viewBox="0.0 0.0 400.000 400.000" version="1.1">
  <title>Produce by Acme CAD Converter</title>
  <desc>Produce by Acme CAD Converter</desc>
<g id="0" display="visible">
<g><path d="M171.51 285.48L171.51 114.52"
fill="none" stroke="black" stroke-width="3"/>
</g>
<g><path d="M342.47 114.52L342.47 285.48"
fill="none" stroke="black" stroke-width="3"/>
</g>
<g><path d="M171.51 182.9L57.53 182.9"
fill="none" stroke="black" stroke-width="3"/>
</g>
<g><path d="M171.51 217.1L57.53 217.1"
fill="none" stroke="black" stroke-width="3"/>
</g>
<g><path d="M342.47 285.48L171.51 285.48"
fill="none" stroke="black" stroke-width="3"/>
</g>
<g><path d="M228.49 200L230.42 189.71M230.42 189.71L235.93 180.8M235.93 180.8L244.29 174.49M244.29 174.49L254.36 171.63M254.36 171.63L264.79 172.59M264.79 172.59L274.16 177.26M274.16 177.26L281.22 185M281.22 185L285 194.76M285 194.76L285 205.24M285 205.24L281.22 215M281.22 215L274.16 222.74M274.16 222.74L264.79 227.41M264.79 227.41L254.36 228.37M254.36 228.37L244.29 225.51M244.29 225.51L235.93 219.2M235.93 219.2L230.42 210.29M230.42 210.29L228.49 200"
fill="none" stroke="black" stroke-width="3"/>
</g>
<g><path d="M171.51 285.48L171.51 251.29"
fill="none" stroke="black" stroke-width="3"/>
</g>
<g><path d="M274.09 285.29L274.09 399.27"
fill="none" stroke="black" stroke-width="3"/>
</g>
<g><path d="M239.89 285.29L239.89 399.27"
fill="none" stroke="black" stroke-width="3"/>
</g>
<g><path d="M236.84 220.15L277.14 179.85"
fill="none" stroke="black" stroke-width="3"/>
</g>
<g><path d="M236.84 179.85L277.14 220.15"
fill="none" stroke="black" stroke-width="3"/>
</g>
<g><path d="M171.51 114.52L342.47 114.52"
fill="none" stroke="black" stroke-width="3"/>
</g>
<g><path d="M274.09 114.71L274.09 0.73"
fill="none" stroke="black" stroke-width="3"/>
</g>
<g><path d="M239.89 114.71L239.89 0.73"
fill="none" stroke="black" stroke-width="3"/>
</g>
</g>
</svg>
