<?xml version="1.0" standalone="no"?><svg xmlns="http://www.w3.org/2000/svg" width="400.000" height="400.000" viewBox="0.0 0.0 400.000 400.000" version="1.1">
  <title>Produce by Acme CAD Converter</title>
  <desc>Produce by Acme CAD Converter</desc>
<g id="0" display="visible">
<g><path d="M100.37 130.26L299.63 130.26"
fill="none" stroke="black" stroke-width="3"/>
</g>
<g><path d="M100.37 329.52L299.63 329.52"
fill="none" stroke="black" stroke-width="3"/>
</g>
<g><path d="M100.37 130.26L80.93 132.17M80.93 132.17L62.24 137.84M62.24 137.84L45.01 147.05M45.01 147.05L29.92 159.44M29.92 159.44L17.52 174.54M17.52 174.54L8.32 191.76M8.32 191.76L2.65 210.45M2.65 210.45L0.73 229.89M0.73 229.89L2.65 249.33M2.65 249.33L8.32 268.02M8.32 268.02L17.52 285.24M17.52 285.24L29.92 300.34M29.92 300.34L45.01 312.73M45.01 312.73L62.24 321.94M62.24 321.94L80.93 327.61M80.93 327.61L100.37 329.52"
fill="none" stroke="black" stroke-width="3"/>
</g>
<g><path d="M100.37 130.26L100.37 70.48"
fill="none" stroke="black" stroke-width="3"/>
</g>
<g><path d="M140.22 130.38L140.22 70.6"
fill="none" stroke="black" stroke-width="3"/>
</g>
<g><path d="M259.78 130.38L259.78 70.6"
fill="none" stroke="black" stroke-width="3"/>
</g>
<g><path d="M299.63 229.89L299.63 70.48"
fill="none" stroke="black" stroke-width="3"/>
</g>
<g><path d="M299.63 329.52L319.07 327.61M319.07 327.61L337.76 321.94M337.76 321.94L354.99 312.73M354.99 312.73L370.08 300.34M370.08 300.34L382.48 285.24M382.48 285.24L391.68 268.02M391.68 268.02L397.35 249.33M397.35 249.33L399.27 229.89M399.27 229.89L397.35 210.45M397.35 210.45L391.68 191.76M391.68 191.76L382.48 174.54M382.48 174.54L370.08 159.44M370.08 159.44L354.99 147.05M354.99 147.05L337.76 137.84M337.76 137.84L319.07 132.17M319.07 132.17L299.63 130.26"
fill="none" stroke="black" stroke-width="3"/>
</g>
</g>
</svg>
