<?xml version="1.0" standalone="no"?><svg xmlns="http://www.w3.org/2000/svg" width="400.000" height="400.000" viewBox="0.0 0.0 400.000 400.000" version="1.1">
  <title>Produce by Acme CAD Converter</title>
  <desc>Produce by Acme CAD Converter</desc>
<g id="0" display="visible">
<g><path d="M0.73 200L399.27 200.27"
fill="none" stroke="black" stroke-width="3"/>
</g>
<g><path d="M0.73 353.28L0.73 200"
fill="none" stroke="black" stroke-width="3"/>
</g>
<g><path d="M230.66 276.64L230.66 368.61"
fill="none" stroke="black" stroke-width="3"/>
</g>
<g><path d="M283.09 255.9L353.33 315.26"
fill="none" stroke="black" stroke-width="3"/>
</g>
<g><path d="M283.09 144.1L353.33 84.74"
fill="none" stroke="black" stroke-width="3"/>
</g>
<g><path d="M230.66 276.64L247.71 274.72M247.71 274.72L263.91 269.05M263.91 269.05L278.44 259.92M278.44 259.92L290.58 247.78M290.58 247.78L299.71 233.25M299.71 233.25L305.38 217.05M305.38 217.05L307.3 200M307.3 200L305.38 182.95M305.38 182.95L299.71 166.75M299.71 166.75L290.58 152.22M290.58 152.22L278.44 140.08M278.44 140.08L263.91 130.95M263.91 130.95L247.71 125.28M247.71 125.28L230.66 123.36"
fill="none" stroke="black" stroke-width="3"/>
</g>
<g><path d="M230.66 123.36L230.66 31.39"
fill="none" stroke="black" stroke-width="3"/>
</g>
</g>
</svg>
