<?xml version="1.0" standalone="no"?><svg xmlns="http://www.w3.org/2000/svg" width="400.000" height="400.000" viewBox="0.0 0.0 400.000 400.000" version="1.1">
  <title>Produce by Acme CAD Converter</title>
  <desc>Produce by Acme CAD Converter</desc>
<g id="0" display="visible">
<g><path d="M200 323.1L200 208.84"
fill="none" stroke="black" stroke-width="3"/>
</g>
<g><path d="M314.26 208.84L314.26 323.1"
fill="none" stroke="black" stroke-width="3"/>
</g>
<g><path d="M314.26 323.1L200 323.1"
fill="none" stroke="black" stroke-width="3"/>
</g>
<g><path d="M85.74 285.01L155.94 285.01"
fill="none" stroke="black" stroke-width="3"/>
</g>
<g><path d="M200 273.58L85.74 273.58"
fill="none" stroke="black" stroke-width="3"/>
</g>
<g><path d="M200 285.01L85.74 285.01"
fill="none" stroke="black" stroke-width="3"/>
</g>
<g><path d="M85.74 284.79L123.83 284.79"
fill="none" stroke="black" stroke-width="3"/>
</g>
<g><path d="M85.74 284.19L123.83 284.19"
fill="none" stroke="black" stroke-width="3"/>
</g>
<g><path d="M85.74 283.58L123.83 283.58"
fill="none" stroke="black" stroke-width="3"/>
</g>
<g><path d="M85.74 282.98L123.83 282.98"
fill="none" stroke="black" stroke-width="3"/>
</g>
<g><path d="M85.74 282.37L123.83 282.37"
fill="none" stroke="black" stroke-width="3"/>
</g>
<g><path d="M85.74 281.77L123.83 281.77"
fill="none" stroke="black" stroke-width="3"/>
</g>
<g><path d="M85.74 281.16L123.83 281.16"
fill="none" stroke="black" stroke-width="3"/>
</g>
<g><path d="M85.74 280.56L123.83 280.56"
fill="none" stroke="black" stroke-width="3"/>
</g>
<g><path d="M85.74 279.95L123.83 279.95"
fill="none" stroke="black" stroke-width="3"/>
</g>
<g><path d="M85.74 279.35L123.83 279.35"
fill="none" stroke="black" stroke-width="3"/>
</g>
<g><path d="M85.74 278.74L123.83 278.74"
fill="none" stroke="black" stroke-width="3"/>
</g>
<g><path d="M85.74 278.14L123.83 278.14"
fill="none" stroke="black" stroke-width="3"/>
</g>
<g><path d="M85.74 277.53L123.83 277.53"
fill="none" stroke="black" stroke-width="3"/>
</g>
<g><path d="M85.74 276.93L123.83 276.93"
fill="none" stroke="black" stroke-width="3"/>
</g>
<g><path d="M85.74 276.33L123.83 276.33"
fill="none" stroke="black" stroke-width="3"/>
</g>
<g><path d="M85.74 275.72L123.83 275.72"
fill="none" stroke="black" stroke-width="3"/>
</g>
<g><path d="M85.74 275.12L123.83 275.12"
fill="none" stroke="black" stroke-width="3"/>
</g>
<g><path d="M85.74 274.51L123.83 274.51"
fill="none" stroke="black" stroke-width="3"/>
</g>
<g><path d="M85.74 273.91L123.83 273.91"
fill="none" stroke="black" stroke-width="3"/>
</g>
<g><path d="M85.74 273.58L85.74 285.01"
fill="none" stroke="black" stroke-width="3"/>
</g>
<g><path d="M123.83 285.01L123.83 273.58"
fill="none" stroke="black" stroke-width="3"/>
</g>
<g><path d="M161.91 284.79L200 284.79"
fill="none" stroke="black" stroke-width="3"/>
</g>
<g><path d="M161.91 284.19L200 284.19"
fill="none" stroke="black" stroke-width="3"/>
</g>
<g><path d="M161.91 283.58L200 283.58"
fill="none" stroke="black" stroke-width="3"/>
</g>
<g><path d="M161.91 282.98L200 282.98"
fill="none" stroke="black" stroke-width="3"/>
</g>
<g><path d="M161.91 282.37L200 282.37"
fill="none" stroke="black" stroke-width="3"/>
</g>
<g><path d="M161.91 281.77L200 281.77"
fill="none" stroke="black" stroke-width="3"/>
</g>
<g><path d="M161.91 281.16L200 281.16"
fill="none" stroke="black" stroke-width="3"/>
</g>
<g><path d="M161.91 280.56L200 280.56"
fill="none" stroke="black" stroke-width="3"/>
</g>
<g><path d="M161.91 279.95L200 279.95"
fill="none" stroke="black" stroke-width="3"/>
</g>
<g><path d="M161.91 279.35L200 279.35"
fill="none" stroke="black" stroke-width="3"/>
</g>
<g><path d="M161.91 278.74L200 278.74"
fill="none" stroke="black" stroke-width="3"/>
</g>
<g><path d="M161.91 278.14L200 278.14"
fill="none" stroke="black" stroke-width="3"/>
</g>
<g><path d="M161.91 277.53L200 277.53"
fill="none" stroke="black" stroke-width="3"/>
</g>
<g><path d="M161.91 276.93L200 276.93"
fill="none" stroke="black" stroke-width="3"/>
</g>
<g><path d="M161.91 276.33L200 276.33"
fill="none" stroke="black" stroke-width="3"/>
</g>
<g><path d="M161.91 275.72L200 275.72"
fill="none" stroke="black" stroke-width="3"/>
</g>
<g><path d="M161.91 275.12L200 275.12"
fill="none" stroke="black" stroke-width="3"/>
</g>
<g><path d="M161.91 274.51L200 274.51"
fill="none" stroke="black" stroke-width="3"/>
</g>
<g><path d="M161.91 273.91L200 273.91"
fill="none" stroke="black" stroke-width="3"/>
</g>
<g><path d="M161.91 285.01L161.91 273.58"
fill="none" stroke="black" stroke-width="3"/>
</g>
<g><path d="M257.13 323.1L257.13 399.27"
fill="none" stroke="black" stroke-width="3"/>
</g>
<g><path d="M200 208.84L314.26 208.84"
fill="none" stroke="black" stroke-width="3"/>
</g>
<g><path d="M257.13 38.82L257.13 0.73"
fill="none" stroke="black" stroke-width="3"/>
</g>
<g><path d="M295.21 104.79L257.13 170.75"
fill="none" stroke="black" stroke-width="3"/>
</g>
<g><path d="M257.13 170.75L257.13 208.84"
fill="none" stroke="black" stroke-width="3"/>
</g>
<g><path d="M219.04 104.79L295.21 104.79"
fill="none" stroke="black" stroke-width="3"/>
</g>
<g><path d="M257.13 38.82L219.04 104.79"
fill="none" stroke="black" stroke-width="3"/>
</g>
</g>
</svg>
