<?xml version="1.0" standalone="no"?><svg xmlns="http://www.w3.org/2000/svg" width="400.000" height="400.000" viewBox="0.0 0.0 400.000 400.000" version="1.1">
  <title>Produce by Acme CAD Converter</title>
  <desc>Produce by Acme CAD Converter</desc>
<g id="0" display="visible">
<g><path d="M0.73 192.97L33.56 160.15"
fill="none" stroke="black" stroke-width="3"/>
</g>
<g><path d="M0.73 239.85L399.27 239.85"
fill="none" stroke="black" stroke-width="3"/>
</g>
<g><path d="M0.73 160.15L399.27 160.15"
fill="none" stroke="black" stroke-width="3"/>
</g>
<g><path d="M399.27 319.56L0.73 319.56"
fill="none" stroke="black" stroke-width="3"/>
</g>
<g><path d="M0.73 80.44L399.27 80.44"
fill="none" stroke="black" stroke-width="3"/>
</g>
<g><path d="M0.73 319.56L0.73 80.44"
fill="none" stroke="black" stroke-width="3"/>
</g>
<g><path d="M399.27 80.44L399.27 319.56"
fill="none" stroke="black" stroke-width="3"/>
</g>
<g><path d="M200 319.56L200 399.27"
fill="none" stroke="black" stroke-width="3"/>
</g>
<g><path d="M240.16 239.85L319.87 160.15"
fill="none" stroke="black" stroke-width="3"/>
</g>
<g><path d="M97.01 239.85L176.71 160.15"
fill="none" stroke="black" stroke-width="3"/>
</g>
<g><path d="M25.43 239.85L105.14 160.15"
fill="none" stroke="black" stroke-width="3"/>
</g>
<g><path d="M168.59 239.85L248.29 160.15"
fill="none" stroke="black" stroke-width="3"/>
</g>
<g><path d="M200 80.44L200 0.73"
fill="none" stroke="black" stroke-width="3"/>
</g>
<g><path d="M311.74 239.85L391.45 160.15"
fill="none" stroke="black" stroke-width="3"/>
</g>
<g><path d="M383.32 239.85L399.27 223.91"
fill="none" stroke="black" stroke-width="3"/>
</g>
</g>
</svg>
