<?xml version="1.0" standalone="no"?><svg xmlns="http://www.w3.org/2000/svg" width="400.000" height="400.000" viewBox="0.0 0.0 400.000 400.000" version="1.1">
  <title>Produce by Acme CAD Converter</title>
  <desc>Produce by Acme CAD Converter</desc>
<g id="0" display="visible">
<g><path d="M57.67 342.33L57.67 57.67"
fill="none" stroke="black" stroke-width="3"/>
</g>
<g><path d="M342.33 57.67L342.33 342.33"
fill="none" stroke="black" stroke-width="3"/>
</g>
<g><path d="M197.07 285.4L254 228.47"
fill="none" stroke="black" stroke-width="3"/>
</g>
<g><path d="M145.94 285.4L202.87 228.47"
fill="none" stroke="black" stroke-width="3"/>
</g>
<g><path d="M57.67 285.4L342.33 285.4"
fill="none" stroke="black" stroke-width="3"/>
</g>
<g><path d="M57.67 228.47L342.33 228.47"
fill="none" stroke="black" stroke-width="3"/>
</g>
<g><path d="M342.33 342.33L57.67 342.33"
fill="none" stroke="black" stroke-width="3"/>
</g>
<g><path d="M200 342.33L200 399.27"
fill="none" stroke="black" stroke-width="3"/>
</g>
<g><path d="M94.81 285.4L151.75 228.47"
fill="none" stroke="black" stroke-width="3"/>
</g>
<g><path d="M57.67 271.42L100.62 228.47"
fill="none" stroke="black" stroke-width="3"/>
</g>
<g><path d="M248.2 285.4L305.13 228.47"
fill="none" stroke="black" stroke-width="3"/>
</g>
<g><path d="M299.32 285.4L342.33 242.39"
fill="none" stroke="black" stroke-width="3"/>
</g>
<g><path d="M157.55 171.53L214.49 114.6"
fill="none" stroke="black" stroke-width="3"/>
</g>
<g><path d="M57.67 171.53L342.33 171.53"
fill="none" stroke="black" stroke-width="3"/>
</g>
<g><path d="M57.67 114.6L342.33 114.6"
fill="none" stroke="black" stroke-width="3"/>
</g>
<g><path d="M57.67 57.67L342.33 57.67"
fill="none" stroke="black" stroke-width="3"/>
</g>
<g><path d="M106.43 171.53L163.36 114.6"
fill="none" stroke="black" stroke-width="3"/>
</g>
<g><path d="M57.67 169.16L112.23 114.6"
fill="none" stroke="black" stroke-width="3"/>
</g>
<g><path d="M57.67 118.04L61.1 114.6"
fill="none" stroke="black" stroke-width="3"/>
</g>
<g><path d="M200 57.67L200 0.73"
fill="none" stroke="black" stroke-width="3"/>
</g>
<g><path d="M259.81 171.53L316.74 114.6"
fill="none" stroke="black" stroke-width="3"/>
</g>
<g><path d="M208.68 171.53L265.61 114.6"
fill="none" stroke="black" stroke-width="3"/>
</g>
<g><path d="M310.94 171.53L342.33 140.14"
fill="none" stroke="black" stroke-width="3"/>
</g>
</g>
</svg>
