<?xml version="1.0" standalone="no"?><svg xmlns="http://www.w3.org/2000/svg" width="400.000" height="400.000" viewBox="0.0 0.0 400.000 400.000" version="1.1">
  <title>Produce by Acme CAD Converter</title>
  <desc>Produce by Acme CAD Converter</desc>
<g id="0" display="visible">
<g><path d="M259.76 310.7L304.05 266.42"
fill="none" stroke="black" stroke-width="3"/>
</g>
<g><path d="M268.79 222.14L310.7 180.23"
fill="none" stroke="black" stroke-width="3"/>
</g>
<g><path d="M229.03 222.14L273.31 177.86"
fill="none" stroke="black" stroke-width="3"/>
</g>
<g><path d="M238.06 133.58L282.34 89.3"
fill="none" stroke="black" stroke-width="3"/>
</g>
<g><path d="M89.3 222.14L310.7 222.14"
fill="none" stroke="black" stroke-width="3"/>
</g>
<g><path d="M89.3 266.42L310.7 266.42"
fill="none" stroke="black" stroke-width="3"/>
</g>
<g><path d="M89.3 310.7L310.7 310.7"
fill="none" stroke="black" stroke-width="3"/>
</g>
<g><path d="M89.3 177.86L310.7 177.86"
fill="none" stroke="black" stroke-width="3"/>
</g>
<g><path d="M89.3 133.58L310.7 133.58"
fill="none" stroke="black" stroke-width="3"/>
</g>
<g><path d="M89.3 89.3L310.7 89.3"
fill="none" stroke="black" stroke-width="3"/>
</g>
<g><path d="M310.7 354.99L89.3 354.99"
fill="none" stroke="black" stroke-width="3"/>
</g>
<g><path d="M89.3 45.01L310.7 45.01"
fill="none" stroke="black" stroke-width="3"/>
</g>
<g><path d="M89.3 354.99L89.3 45.01"
fill="none" stroke="black" stroke-width="3"/>
</g>
<g><path d="M200 354.99L200 399.27"
fill="none" stroke="black" stroke-width="3"/>
</g>
<g><path d="M100.7 310.7L144.98 266.42"
fill="none" stroke="black" stroke-width="3"/>
</g>
<g><path d="M109.73 222.14L154.01 177.86"
fill="none" stroke="black" stroke-width="3"/>
</g>
<g><path d="M89.3 282.34L105.22 266.42"
fill="none" stroke="black" stroke-width="3"/>
</g>
<g><path d="M89.3 202.81L114.25 177.86"
fill="none" stroke="black" stroke-width="3"/>
</g>
<g><path d="M180.23 310.7L224.51 266.42"
fill="none" stroke="black" stroke-width="3"/>
</g>
<g><path d="M140.47 310.7L184.75 266.42"
fill="none" stroke="black" stroke-width="3"/>
</g>
<g><path d="M220 310.7L264.28 266.42"
fill="none" stroke="black" stroke-width="3"/>
</g>
<g><path d="M189.26 222.14L233.54 177.86"
fill="none" stroke="black" stroke-width="3"/>
</g>
<g><path d="M149.5 222.14L193.78 177.86"
fill="none" stroke="black" stroke-width="3"/>
</g>
<g><path d="M118.76 133.58L163.04 89.3"
fill="none" stroke="black" stroke-width="3"/>
</g>
<g><path d="M89.3 123.28L123.28 89.3"
fill="none" stroke="black" stroke-width="3"/>
</g>
<g><path d="M158.53 133.58L202.81 89.3"
fill="none" stroke="black" stroke-width="3"/>
</g>
<g><path d="M198.29 133.58L242.58 89.3"
fill="none" stroke="black" stroke-width="3"/>
</g>
<g><path d="M200 45.01L200 0.73"
fill="none" stroke="black" stroke-width="3"/>
</g>
<g><path d="M310.7 45.01L310.7 354.99"
fill="none" stroke="black" stroke-width="3"/>
</g>
<g><path d="M299.53 310.7L310.7 299.53"
fill="none" stroke="black" stroke-width="3"/>
</g>
<g><path d="M308.56 222.14L310.7 220"
fill="none" stroke="black" stroke-width="3"/>
</g>
<g><path d="M277.83 133.58L310.7 100.7"
fill="none" stroke="black" stroke-width="3"/>
</g>
</g>
</svg>
