<?xml version="1.0" standalone="no"?><svg xmlns="http://www.w3.org/2000/svg" width="400.000" height="400.000" viewBox="0.0 0.0 400.000 400.000" version="1.1">
  <title>Produce by Acme CAD Converter</title>
  <desc>Produce by Acme CAD Converter</desc>
<g id="0" display="visible">
<g><path d="M141.39 59.34L143.23 44.77M143.23 44.77L148.64 31.11M148.64 31.11L157.28 19.22M157.28 19.22L168.6 9.86M168.6 9.86L181.89 3.6M181.89 3.6L196.32 0.85M196.32 0.85L210.98 1.77M210.98 1.77L224.95 6.31M224.95 6.31L237.36 14.18M237.36 14.18L247.41 24.89M247.41 24.89L254.49 37.77M254.49 37.77L258.15 52M258.15 52L258.15 66.69M258.15 66.69L254.49 80.92M254.49 80.92L247.41 93.79M247.41 93.79L237.36 104.5M237.36 104.5L224.95 112.37M224.95 112.37L210.98 116.91M210.98 116.91L196.32 117.83M196.32 117.83L181.89 115.08M181.89 115.08L168.6 108.83M168.6 108.83L157.28 99.46M157.28 99.46L148.64 87.58M148.64 87.58L143.23 73.92M143.23 73.92L141.39 59.34"
fill="none" stroke="black" stroke-width="3"/>
</g>
<g><path d="M235.16 399.27L164.84 399.27"
fill="none" stroke="black" stroke-width="3"/>
</g>
<g><path d="M164.84 235.16L235.16 235.16"
fill="none" stroke="black" stroke-width="3"/>
</g>
<g><path d="M164.84 399.27L164.84 235.16"
fill="none" stroke="black" stroke-width="3"/>
</g>
<g><path d="M164.84 317.22L47.62 317.22"
fill="none" stroke="black" stroke-width="3"/>
</g>
<g><path d="M200 305.49L200 117.95"
fill="none" stroke="black" stroke-width="3"/>
</g>
<g><path d="M235.16 235.16L235.16 399.27"
fill="none" stroke="black" stroke-width="3"/>
</g>
<g><path d="M235.16 317.22L352.38 317.22"
fill="none" stroke="black" stroke-width="3"/>
</g>
</g>
</svg>
