<?xml version="1.0" standalone="no"?><svg xmlns="http://www.w3.org/2000/svg" width="400.000" height="400.000" viewBox="0.0 0.0 400.000 400.000" version="1.1">
  <title>Produce by Acme CAD Converter</title>
  <desc>Produce by Acme CAD Converter</desc>
<g id="0" display="visible">
<g><path d="M168.81 125.27L102.4 201.1"
fill="none" stroke="black" stroke-width="3"/>
</g>
<g><path d="M91.71 210.47L92.43 208.71M92.43 208.71L94.2 207.98M94.2 207.98L95.96 208.71M95.96 208.71L96.69 210.47M96.69 210.47L95.96 212.23M95.96 212.23L94.2 212.96M94.2 212.96L92.43 212.23M92.43 212.23L91.71 210.47"
fill="none" stroke="black" stroke-width="3"/>
</g>
<g><path d="M89.21 210.47L90.67 206.95M90.67 206.95L94.2 205.49M94.2 205.49L97.72 206.95M97.72 206.95L99.18 210.47M99.18 210.47L97.72 213.99M97.72 213.99L94.2 215.45M94.2 215.45L90.67 213.99M90.67 213.99L89.21 210.47"
fill="none" stroke="black" stroke-width="3"/>
</g>
<g><path d="M86.72 210.47L88.47 205.67M88.47 205.67L92.9 203.11M92.9 203.11L97.93 204M97.93 204L101.22 207.91M101.22 207.91L101.22 213.03M101.22 213.03L97.93 216.94M97.93 216.94L92.9 217.83M92.9 217.83L88.47 215.27M88.47 215.27L86.72 210.47"
fill="none" stroke="black" stroke-width="3"/>
</g>
<g><path d="M84.23 210.47L86.14 204.61M86.14 204.61L91.12 200.99M91.12 200.99L97.27 200.99M97.27 200.99L102.26 204.61M102.26 204.61L104.16 210.47M104.16 210.47L102.26 216.33M102.26 216.33L97.27 219.95M97.27 219.95L91.12 219.95M91.12 219.95L86.14 216.33M86.14 216.33L84.23 210.47"
fill="none" stroke="black" stroke-width="3"/>
</g>
<g><path d="M81.74 210.47L83.41 204.24M83.41 204.24L87.97 199.68M87.97 199.68L94.2 198.02M94.2 198.02L100.42 199.68M100.42 199.68L104.98 204.24M104.98 204.24L106.65 210.47M106.65 210.47L104.98 216.7M104.98 216.7L100.42 221.26M100.42 221.26L94.2 222.92M94.2 222.92L87.97 221.26M87.97 221.26L83.41 216.7M83.41 216.7L81.74 210.47"
fill="none" stroke="black" stroke-width="3"/>
</g>
<g><path d="M168.81 125.27L318.26 274.73"
fill="none" stroke="black" stroke-width="3"/>
</g>
<g><path d="M168.81 274.73L168.81 125.27"
fill="none" stroke="black" stroke-width="3"/>
</g>
<g><path d="M318.26 125.27L318.26 274.73"
fill="none" stroke="black" stroke-width="3"/>
</g>
<g><path d="M318.26 274.73L168.81 274.73"
fill="none" stroke="black" stroke-width="3"/>
</g>
<g><path d="M243.53 274.73L243.53 399.27"
fill="none" stroke="black" stroke-width="3"/>
</g>
<g><path d="M243.53 125.27L243.53 0.73"
fill="none" stroke="black" stroke-width="3"/>
</g>
<g><path d="M168.81 125.27L318.26 125.27"
fill="none" stroke="black" stroke-width="3"/>
</g>
</g>
</svg>
