<?xml version="1.0" standalone="no"?><svg xmlns="http://www.w3.org/2000/svg" width="400.000" height="400.000" viewBox="0.0 0.0 400.000 400.000" version="1.1">
  <title>Produce by Acme CAD Converter</title>
  <desc>Produce by Acme CAD Converter</desc>
<g id="0" display="visible">
<g><path d="M399.27 279.71L0.73 279.71"
fill="none" stroke="black" stroke-width="3"/>
</g>
<g><path d="M0.73 120.29L399.27 120.29"
fill="none" stroke="black" stroke-width="3"/>
</g>
<g><path d="M399.27 359.41L0.73 359.41"
fill="none" stroke="black" stroke-width="3"/>
</g>
<g><path d="M0.73 40.59L399.27 40.59"
fill="none" stroke="black" stroke-width="3"/>
</g>
<g><path d="M128.26 279.71L128.26 120.29"
fill="none" stroke="black" stroke-width="3"/>
</g>
<g><path d="M16.67 279.71L16.67 120.29"
fill="none" stroke="black" stroke-width="3"/>
</g>
<g><path d="M16.67 273.27L128.26 273.27"
fill="none" stroke="black" stroke-width="3"/>
</g>
<g><path d="M16.67 247.96L128.26 247.96"
fill="none" stroke="black" stroke-width="3"/>
</g>
<g><path d="M16.67 222.66L128.26 222.66"
fill="none" stroke="black" stroke-width="3"/>
</g>
<g><path d="M0.73 359.41L0.73 279.71"
fill="none" stroke="black" stroke-width="3"/>
</g>
<g><path d="M16.67 197.35L128.26 197.35"
fill="none" stroke="black" stroke-width="3"/>
</g>
<g><path d="M16.67 172.04L128.26 172.04"
fill="none" stroke="black" stroke-width="3"/>
</g>
<g><path d="M16.67 146.74L128.26 146.74"
fill="none" stroke="black" stroke-width="3"/>
</g>
<g><path d="M16.67 121.43L128.26 121.43"
fill="none" stroke="black" stroke-width="3"/>
</g>
<g><path d="M0.73 120.29L0.73 40.59"
fill="none" stroke="black" stroke-width="3"/>
</g>
<g><path d="M271.74 120.29L271.74 279.71"
fill="none" stroke="black" stroke-width="3"/>
</g>
<g><path d="M383.33 120.29L383.33 279.71"
fill="none" stroke="black" stroke-width="3"/>
</g>
<g><path d="M271.74 273.27L383.33 273.27"
fill="none" stroke="black" stroke-width="3"/>
</g>
<g><path d="M271.74 247.96L383.33 247.96"
fill="none" stroke="black" stroke-width="3"/>
</g>
<g><path d="M271.74 222.66L383.33 222.66"
fill="none" stroke="black" stroke-width="3"/>
</g>
<g><path d="M399.27 279.71L399.27 359.41"
fill="none" stroke="black" stroke-width="3"/>
</g>
<g><path d="M271.74 197.35L383.33 197.35"
fill="none" stroke="black" stroke-width="3"/>
</g>
<g><path d="M271.74 172.04L383.33 172.04"
fill="none" stroke="black" stroke-width="3"/>
</g>
<g><path d="M271.74 146.74L383.33 146.74"
fill="none" stroke="black" stroke-width="3"/>
</g>
<g><path d="M271.74 121.43L383.33 121.43"
fill="none" stroke="black" stroke-width="3"/>
</g>
<g><path d="M399.27 40.59L399.27 120.29"
fill="none" stroke="black" stroke-width="3"/>
</g>
</g>
</svg>
