<?xml version="1.0" standalone="no"?><svg xmlns="http://www.w3.org/2000/svg" width="400.000" height="400.000" viewBox="0.0 0.0 400.000 400.000" version="1.1">
  <title>Produce by Acme CAD Converter</title>
  <desc>Produce by Acme CAD Converter</desc>
<g id="0" display="visible">
<g><path d="M259.2 237.53L318.4 340.07"
fill="none" stroke="black" stroke-width="3"/>
</g>
<g><path d="M377.6 0.73L22.4 0.73"
fill="none" stroke="black" stroke-width="3"/>
</g>
<g><path d="M22.4 0.73L22.4 237.53"
fill="none" stroke="black" stroke-width="3"/>
</g>
<g><path d="M81.6 340.07L57.92 340.07"
fill="none" stroke="black" stroke-width="3"/>
</g>
<g><path d="M22.4 237.53L81.6 340.07"
fill="none" stroke="black" stroke-width="3"/>
</g>
<g><path d="M200 340.07L200 399.27"
fill="none" stroke="black" stroke-width="3"/>
</g>
<g><path d="M81.6 340.07L81.6 399.27"
fill="none" stroke="black" stroke-width="3"/>
</g>
<g><path d="M140.8 237.53L200 340.07"
fill="none" stroke="black" stroke-width="3"/>
</g>
<g><path d="M140.8 237.53L81.6 340.07"
fill="none" stroke="black" stroke-width="3"/>
</g>
<g><path d="M81.6 340.07L105.28 340.07"
fill="none" stroke="black" stroke-width="3"/>
</g>
<g><path d="M259.2 237.53L200 340.07"
fill="none" stroke="black" stroke-width="3"/>
</g>
<g><path d="M200 340.07L223.68 340.07"
fill="none" stroke="black" stroke-width="3"/>
</g>
<g><path d="M200 340.07L176.32 340.07"
fill="none" stroke="black" stroke-width="3"/>
</g>
<g><path d="M377.6 237.53L377.6 0.73"
fill="none" stroke="black" stroke-width="3"/>
</g>
<g><path d="M318.4 340.07L318.4 399.27"
fill="none" stroke="black" stroke-width="3"/>
</g>
<g><path d="M377.6 237.53L318.4 340.07"
fill="none" stroke="black" stroke-width="3"/>
</g>
<g><path d="M318.4 340.07L294.72 340.07"
fill="none" stroke="black" stroke-width="3"/>
</g>
<g><path d="M318.4 340.07L342.08 340.07"
fill="none" stroke="black" stroke-width="3"/>
</g>
</g>
</svg>
