<?xml version="1.0" standalone="no"?><svg xmlns="http://www.w3.org/2000/svg" width="400.000" height="400.000" viewBox="0.0 0.0 400.000 400.000" version="1.1">
  <title>Produce by Acme CAD Converter</title>
  <desc>Produce by Acme CAD Converter</desc>
<g id="0" display="visible">
<g><path d="M200 133.58L200 266.42"
fill="none" stroke="black" stroke-width="3"/>
</g>
<g><path d="M133.58 200L266.42 200"
fill="none" stroke="black" stroke-width="3"/>
</g>
<g><path d="M200 266.42L200 399.27"
fill="none" stroke="black" stroke-width="3"/>
</g>
<g><path d="M200 133.58L200 0.73"
fill="none" stroke="black" stroke-width="3"/>
</g>
<g><path d="M133.58 200L133.58 200"
fill="none" stroke="black" stroke-width=".5"/>
</g>
<g><path d="M200 133.58L200 133.58"
fill="none" stroke="black" stroke-width=".5"/>
</g>
<g><path d="M200 266.42L200 266.42"
fill="none" stroke="black" stroke-width=".5"/>
</g>
<g><path d="M266.42 200L266.42 200"
fill="none" stroke="black" stroke-width=".5"/>
</g>
<g><path d="M200 200L200 200"
fill="none" stroke="black" stroke-width=".5"/>
</g>
<g><path d="M133.58 200L135.24 214.78M135.24 214.78L140.16 228.82M140.16 228.82L148.07 241.41M148.07 241.41L158.59 251.93M158.59 251.93L171.18 259.84M171.18 259.84L185.22 264.76M185.22 264.76L200 266.42"
fill="none" stroke="black" stroke-width=".5"/>
</g>
<g><path d="M200 266.42L214.78 264.76M214.78 264.76L228.82 259.84M228.82 259.84L241.41 251.93M241.41 251.93L251.93 241.41M251.93 241.41L259.84 228.82M259.84 228.82L264.76 214.78M264.76 214.78L266.42 200"
fill="none" stroke="black" stroke-width=".5"/>
</g>
<g><path d="M266.42 200L264.74 185.13M264.74 185.13L259.79 171.01M259.79 171.01L251.82 158.34M251.82 158.34L241.24 147.77M241.24 147.77L228.56 139.81M228.56 139.81L214.44 134.87M214.44 134.87L199.56 133.21"
fill="none" stroke="black" stroke-width=".5"/>
</g>
<g><path d="M199.56 133.21L185.1 135.61M185.1 135.61L171.46 140.97M171.46 140.97L159.21 149.03M159.21 149.03L148.91 159.46M148.91 159.46L140.99 171.8M140.99 171.8L135.81 185.51M135.81 185.51L133.58 200"
fill="none" stroke="black" stroke-width=".5"/>
</g>
<g><path d="M200 200L200 133.58"
fill="none" stroke="black" stroke-width=".5"/>
</g>
<g><path d="M200 200L200 266.42"
fill="none" stroke="black" stroke-width=".5"/>
</g>
<g><path d="M200 200L133.58 200"
fill="none" stroke="black" stroke-width=".5"/>
</g>
<g><path d="M200 200L266.42 200"
fill="none" stroke="black" stroke-width=".5"/>
</g>
</g>
</svg>
