<?xml version="1.0" standalone="no"?><svg xmlns="http://www.w3.org/2000/svg" width="400.000" height="400.000" viewBox="0.0 0.0 400.000 400.000" version="1.1">
  <title>Produce by Acme CAD Converter</title>
  <desc>Produce by Acme CAD Converter</desc>
<g id="0" display="visible">
<g><path d="M399.27 54.13L365.56 36.75M365.56 36.75L330.35 22.65M330.35 22.65L293.96 11.97M293.96 11.97L256.72 4.79M256.72 4.79L218.96 1.18M218.96 1.18L181.04 1.18M181.04 1.18L143.28 4.79M143.28 4.79L106.04 11.97M106.04 11.97L69.65 22.65M69.65 22.65L34.44 36.75M34.44 36.75L0.73 54.13"
fill="none" stroke="black" stroke-width="3"/>
</g>
<g><path d="M319.56 399.27L80.44 399.27"
fill="none" stroke="black" stroke-width="3"/>
</g>
<g><path d="M200 399.27L0.73 54.13"
fill="none" stroke="black" stroke-width="3"/>
</g>
<g><path d="M200 399.27L399.27 54.13"
fill="none" stroke="black" stroke-width="3"/>
</g>
<g><path d="M200 399.27L200 80.44"
fill="none" stroke="black" stroke-width="3"/>
</g>
<g><path d="M200 80.44L230.45 164.81"
fill="none" stroke="black" stroke-width="3"/>
</g>
<g><path d="M200 80.44L169.55 164.81"
fill="none" stroke="black" stroke-width="3"/>
</g>
</g>
</svg>
