<?xml version="1.0" standalone="no"?><svg xmlns="http://www.w3.org/2000/svg" width="400.000" height="400.000" viewBox="0.0 0.0 400.000 400.000" version="1.1">
  <title>Produce by Acme CAD Converter</title>
  <desc>Produce by Acme CAD Converter</desc>
<g id="0" display="visible">
<g><path d="M254.63 137.37L174.92 137.37"
fill="none" stroke="black" stroke-width="3"/>
</g>
<g><path d="M214.77 137.37L148.35 22.32"
fill="none" stroke="black" stroke-width="3"/>
</g>
<g><path d="M281.2 22.32L263.31 13.71M263.31 13.71L244.34 7.85M244.34 7.85L224.7 4.89M224.7 4.89L204.85 4.89M204.85 4.89L185.21 7.85M185.21 7.85L166.24 13.71M166.24 13.71L148.35 22.32"
fill="none" stroke="black" stroke-width="3"/>
</g>
<g><path d="M0.73 196.21L399.27 196.21"
fill="none" stroke="black" stroke-width="3"/>
</g>
<g><path d="M399.27 262.63L0.73 262.63"
fill="none" stroke="black" stroke-width="3"/>
</g>
<g><path d="M53.72 196.21L53.72 129.79"
fill="none" stroke="black" stroke-width="3"/>
</g>
<g><path d="M0.73 262.63L0.73 196.21"
fill="none" stroke="black" stroke-width="3"/>
</g>
<g><path d="M366.06 329.06L366.06 395.48"
fill="none" stroke="black" stroke-width="3"/>
</g>
<g><path d="M214.77 137.37L281.2 22.32"
fill="none" stroke="black" stroke-width="3"/>
</g>
<g><path d="M399.27 262.63L399.27 329.06"
fill="none" stroke="black" stroke-width="3"/>
</g>
<g><path d="M332.84 329.06L332.84 262.63"
fill="none" stroke="black" stroke-width="3"/>
</g>
<g><path d="M399.27 329.06L332.84 329.06"
fill="none" stroke="black" stroke-width="3"/>
</g>
<g><path d="M399.27 196.21L399.27 262.63"
fill="none" stroke="black" stroke-width="3"/>
</g>
<g><path d="M214.77 137.37L214.77 31.09"
fill="none" stroke="black" stroke-width="3"/>
</g>
<g><path d="M214.77 31.09L224.92 59.22"
fill="none" stroke="black" stroke-width="3"/>
</g>
<g><path d="M214.77 31.09L204.63 59.22"
fill="none" stroke="black" stroke-width="3"/>
</g>
</g>
</svg>
