<?xml version="1.0" standalone="no"?><svg xmlns="http://www.w3.org/2000/svg" width="400.000" height="400.000" viewBox="0.0 0.0 400.000 400.000" version="1.1">
  <title>Produce by Acme CAD Converter</title>
  <desc>Produce by Acme CAD Converter</desc>
<g id="0" display="visible">
<g><path d="M313.34 0.73L162.54 0.73"
fill="none" stroke="black" stroke-width="3"/>
</g>
<g><path d="M313.34 140.76L97.91 140.76"
fill="none" stroke="black" stroke-width="3"/>
</g>
<g><path d="M141 313.1L142.88 295.18M142.88 295.18L148.45 278.05M148.45 278.05L157.45 262.45M157.45 262.45L169.51 249.06M169.51 249.06L184.08 238.47M184.08 238.47L200.54 231.15M200.54 231.15L218.16 227.4M218.16 227.4L236.17 227.4M236.17 227.4L253.79 231.15M253.79 231.15L270.25 238.47M270.25 238.47L284.82 249.06M284.82 249.06L296.88 262.45M296.88 262.45L305.89 278.05M305.89 278.05L311.45 295.18M311.45 295.18L313.34 313.1M313.34 313.1L311.45 331.01M311.45 331.01L305.89 348.15M305.89 348.15L296.88 363.75M296.88 363.75L284.82 377.13M284.82 377.13L270.25 387.72M270.25 387.72L253.79 395.05M253.79 395.05L236.17 398.79M236.17 398.79L218.16 398.79M218.16 398.79L200.54 395.05M200.54 395.05L184.08 387.72M184.08 387.72L169.51 377.13M169.51 377.13L157.45 363.75M157.45 363.75L148.45 348.15M148.45 348.15L142.88 331.01M142.88 331.01L141 313.1"
fill="none" stroke="black" stroke-width="3"/>
</g>
<g><path d="M97.91 140.76L141 313.1"
fill="none" stroke="black" stroke-width="3"/>
</g>
<g><path d="M295.71 351.18L280.48 335.95"
fill="none" stroke="black" stroke-width="3"/>
</g>
<g><path d="M280.48 335.95L250.01 366.41"
fill="none" stroke="black" stroke-width="3"/>
</g>
<g><path d="M173.58 335.69L189.08 351.18"
fill="none" stroke="black" stroke-width="3"/>
</g>
<g><path d="M158.35 350.92L173.58 335.69"
fill="none" stroke="black" stroke-width="3"/>
</g>
<g><path d="M189.08 275.02L265.25 351.18"
fill="none" stroke="black" stroke-width="3"/>
</g>
<g><path d="M189.08 351.19L265.25 275.01"
fill="none" stroke="black" stroke-width="3"/>
</g>
<g><path d="M173.58 366.15L158.35 350.92"
fill="none" stroke="black" stroke-width="3"/>
</g>
<g><path d="M204.05 366.45L188.71 350.81"
fill="none" stroke="black" stroke-width="3"/>
</g>
<g><path d="M188.67 381.54L204.05 366.45"
fill="none" stroke="black" stroke-width="3"/>
</g>
<g><path d="M173.58 366.15L188.67 381.54"
fill="none" stroke="black" stroke-width="3"/>
</g>
<g><path d="M250.01 366.41L265.25 381.64"
fill="none" stroke="black" stroke-width="3"/>
</g>
<g><path d="M280.48 366.41L295.71 351.18"
fill="none" stroke="black" stroke-width="3"/>
</g>
<g><path d="M265.25 381.64L280.48 366.41"
fill="none" stroke="black" stroke-width="3"/>
</g>
<g><path d="M173.85 290.25L158.62 275.02"
fill="none" stroke="black" stroke-width="3"/>
</g>
<g><path d="M204.32 259.78L173.85 290.25"
fill="none" stroke="black" stroke-width="3"/>
</g>
<g><path d="M158.62 275.02L173.85 259.78"
fill="none" stroke="black" stroke-width="3"/>
</g>
<g><path d="M189.08 244.55L204.32 259.78"
fill="none" stroke="black" stroke-width="3"/>
</g>
<g><path d="M173.85 259.78L189.08 244.55"
fill="none" stroke="black" stroke-width="3"/>
</g>
<g><path d="M295.6 274.6L280.52 289.98"
fill="none" stroke="black" stroke-width="3"/>
</g>
<g><path d="M280.52 289.98L264.88 274.64"
fill="none" stroke="black" stroke-width="3"/>
</g>
<g><path d="M264.99 244.28L249.76 259.52"
fill="none" stroke="black" stroke-width="3"/>
</g>
<g><path d="M249.76 259.52L265.25 275.01"
fill="none" stroke="black" stroke-width="3"/>
</g>
<g><path d="M280.22 259.52L295.6 274.6"
fill="none" stroke="black" stroke-width="3"/>
</g>
<g><path d="M280.22 259.52L264.99 244.28"
fill="none" stroke="black" stroke-width="3"/>
</g>
<g><path d="M150.67 161.62L86.66 94.31"
fill="none" stroke="black" stroke-width="3"/>
</g>
<g><path d="M162.54 0.73L162.54 140.76"
fill="none" stroke="black" stroke-width="3"/>
</g>
<g><path d="M313.34 313.1L313.34 140.76"
fill="none" stroke="black" stroke-width="3"/>
</g>
<g><path d="M313.34 140.76L313.34 0.73"
fill="none" stroke="black" stroke-width="3"/>
</g>
</g>
</svg>
