<?xml version="1.0" standalone="no"?><svg xmlns="http://www.w3.org/2000/svg" width="400.000" height="400.000" viewBox="0.0 0.0 400.000 400.000" version="1.1">
  <title>Produce by Acme CAD Converter</title>
  <desc>Produce by Acme CAD Converter</desc>
<g id="0" display="visible">
<g><path d="M319.56 53.74L399.27 53.74"
fill="none" stroke="black" stroke-width="3"/>
</g>
<g><path d="M399.27 160.15L319.56 160.15"
fill="none" stroke="black" stroke-width="3"/>
</g>
<g><path d="M80.44 399.27L399.27 399.27"
fill="none" stroke="black" stroke-width="3"/>
</g>
<g><path d="M123.89 287.74L2.8 205.35"
fill="none" stroke="black" stroke-width="3"/>
</g>
<g><path d="M80.44 160.15L80.44 399.27"
fill="none" stroke="black" stroke-width="3"/>
</g>
<g><path d="M80.44 353.43L0.73 353.43"
fill="none" stroke="black" stroke-width="3"/>
</g>
<g><path d="M160.15 0.73L160.15 160.15"
fill="none" stroke="black" stroke-width="3"/>
</g>
<g><path d="M319.56 160.15L319.56 0.73"
fill="none" stroke="black" stroke-width="3"/>
</g>
<g><path d="M160.15 160.15L80.44 160.15"
fill="none" stroke="black" stroke-width="3"/>
</g>
<g><path d="M319.56 0.73L160.15 0.73"
fill="none" stroke="black" stroke-width="3"/>
</g>
<g><path d="M399.27 399.27L399.27 160.15"
fill="none" stroke="black" stroke-width="3"/>
</g>
<g><path d="M163.43 314.65L322.23 314.65"
fill="none" stroke="black" stroke-width="3"/>
</g>
<g><path d="M322.23 314.65L322.23 356.96"
fill="none" stroke="black" stroke-width="3"/>
</g>
<g><path d="M322.23 356.96L163.43 356.96"
fill="none" stroke="black" stroke-width="3"/>
</g>
<g><path d="M163.43 356.96L163.43 314.65"
fill="none" stroke="black" stroke-width="3"/>
</g>
</g>
</svg>
