<?xml version="1.0" standalone="no"?><svg xmlns="http://www.w3.org/2000/svg" width="400.000" height="400.000" viewBox="0.0 0.0 400.000 400.000" version="1.1">
  <title>Produce by Acme CAD Converter</title>
  <desc>Produce by Acme CAD Converter</desc>
<g id="0" display="visible">
<g><path d="M279.71 160.15L399.27 160.15"
fill="none" stroke="black" stroke-width="3"/>
</g>
<g><path d="M80.44 399.27L399.27 399.27"
fill="none" stroke="black" stroke-width="3"/>
</g>
<g><path d="M80.44 399.27L80.44 160.15"
fill="none" stroke="black" stroke-width="3"/>
</g>
<g><path d="M101.24 258.76L6.71 195.22"
fill="none" stroke="black" stroke-width="3"/>
</g>
<g><path d="M200 160.15L80.44 160.15"
fill="none" stroke="black" stroke-width="3"/>
</g>
<g><path d="M80.44 362.6L0.73 362.6"
fill="none" stroke="black" stroke-width="3"/>
</g>
<g><path d="M204.7 317.32L284.4 317.32"
fill="none" stroke="black" stroke-width="3"/>
</g>
<g><path d="M204.7 285.44L140.93 285.44"
fill="none" stroke="black" stroke-width="3"/>
</g>
<g><path d="M140.93 349.21L204.7 349.21"
fill="none" stroke="black" stroke-width="3"/>
</g>
<g><path d="M140.93 285.44L140.93 349.21"
fill="none" stroke="black" stroke-width="3"/>
</g>
<g><path d="M204.7 349.21L204.7 285.44"
fill="none" stroke="black" stroke-width="3"/>
</g>
<g><path d="M284.4 349.21L348.17 349.21"
fill="none" stroke="black" stroke-width="3"/>
</g>
<g><path d="M348.17 285.44L284.4 285.44"
fill="none" stroke="black" stroke-width="3"/>
</g>
<g><path d="M284.4 285.44L284.4 349.21"
fill="none" stroke="black" stroke-width="3"/>
</g>
<g><path d="M348.17 349.21L348.17 285.44"
fill="none" stroke="black" stroke-width="3"/>
</g>
<g><path d="M200 80.44L279.71 80.44"
fill="none" stroke="black" stroke-width="3"/>
</g>
<g><path d="M200 80.44L200 160.15"
fill="none" stroke="black" stroke-width="3"/>
</g>
<g><path d="M239.85 80.44L239.85 0.73"
fill="none" stroke="black" stroke-width="3"/>
</g>
<g><path d="M279.71 80.44L279.71 160.15"
fill="none" stroke="black" stroke-width="3"/>
</g>
<g><path d="M399.27 399.27L399.27 160.15"
fill="none" stroke="black" stroke-width="3"/>
</g>
</g>
</svg>
