<?xml version="1.0" standalone="no"?><svg xmlns="http://www.w3.org/2000/svg" width="400.000" height="400.000" viewBox="0.0 0.0 400.000 400.000" version="1.1">
  <title>Produce by Acme CAD Converter</title>
  <desc>Produce by Acme CAD Converter</desc>
<g id="0" display="visible">
<g><path d="M166.79 100.37L299.63 100.37"
fill="none" stroke="black" stroke-width="3"/>
</g>
<g><path d="M399.27 166.79L67.16 166.79"
fill="none" stroke="black" stroke-width="3"/>
</g>
<g><path d="M67.16 366.06L399.27 366.06"
fill="none" stroke="black" stroke-width="3"/>
</g>
<g><path d="M166.79 100.37L166.79 166.79"
fill="none" stroke="black" stroke-width="3"/>
</g>
<g><path d="M87.52 232.74L7.19 186.25"
fill="none" stroke="black" stroke-width="3"/>
</g>
<g><path d="M67.16 166.79L67.16 366.06"
fill="none" stroke="black" stroke-width="3"/>
</g>
<g><path d="M67.16 327.95L0.73 327.95"
fill="none" stroke="black" stroke-width="3"/>
</g>
<g><path d="M100.27 270.03L102.07 259.25M102.07 259.25L107.27 249.64M107.27 249.64L115.31 242.23M115.31 242.23L125.33 237.84M125.33 237.84L136.22 236.94M136.22 236.94L146.82 239.62M146.82 239.62L155.97 245.6M155.97 245.6L162.69 254.23M162.69 254.23L166.24 264.57M166.24 264.57L166.24 275.5M166.24 275.5L162.69 285.84M162.69 285.84L155.97 294.47M155.97 294.47L146.82 300.45M146.82 300.45L136.22 303.13M136.22 303.13L125.33 302.23M125.33 302.23L115.31 297.84M115.31 297.84L107.27 290.43M107.27 290.43L102.07 280.82M102.07 280.82L100.27 270.03"
fill="none" stroke="black" stroke-width="3"/>
</g>
<g><path d="M233.21 100.37L233.21 33.94"
fill="none" stroke="black" stroke-width="3"/>
</g>
<g><path d="M299.63 100.37L299.63 166.79"
fill="none" stroke="black" stroke-width="3"/>
</g>
<g><path d="M299.54 270.03L301.33 259.25M301.33 259.25L306.54 249.64M306.54 249.64L314.58 242.23M314.58 242.23L324.59 237.84M324.59 237.84L335.49 236.94M335.49 236.94L346.09 239.62M346.09 239.62L355.24 245.6M355.24 245.6L361.95 254.23M361.95 254.23L365.5 264.57M365.5 264.57L365.5 275.5M365.5 275.5L361.95 285.84M361.95 285.84L355.24 294.47M355.24 294.47L346.09 300.45M346.09 300.45L335.49 303.13M335.49 303.13L324.59 302.23M324.59 302.23L314.58 297.84M314.58 297.84L306.54 290.43M306.54 290.43L301.33 280.82M301.33 280.82L299.54 270.03"
fill="none" stroke="black" stroke-width="3"/>
</g>
<g><path d="M399.27 366.06L399.27 166.79"
fill="none" stroke="black" stroke-width="3"/>
</g>
</g>
</svg>
