<?xml version="1.0" standalone="no"?><svg xmlns="http://www.w3.org/2000/svg" width="400.000" height="400.000" viewBox="0.0 0.0 400.000 400.000" version="1.1">
  <title>Produce by Acme CAD Converter</title>
  <desc>Produce by Acme CAD Converter</desc>
<g id="0" display="visible">
<g><path d="M194.55 118.11L242.32 322.83"
fill="none" stroke="black" stroke-width="3"/>
</g>
<g><path d="M399.27 118.11L351.5 322.83"
fill="none" stroke="black" stroke-width="3"/>
</g>
<g><path d="M242.32 322.83L351.5 322.83"
fill="none" stroke="black" stroke-width="3"/>
</g>
<g><path d="M234.79 290.55L192.45 328.81"
fill="none" stroke="black" stroke-width="3"/>
</g>
<g><path d="M296.91 322.83L296.91 391.07"
fill="none" stroke="black" stroke-width="3"/>
</g>
<g><path d="M296.91 77.17L399.27 118.11"
fill="none" stroke="black" stroke-width="3"/>
</g>
<g><path d="M194.55 118.11L399.27 118.11"
fill="none" stroke="black" stroke-width="3"/>
</g>
<g><path d="M0.73 161.16L2.72 144.82M2.72 144.82L8.55 129.44M8.55 129.44L17.89 115.9M17.89 115.9L30.21 105M30.21 105L44.77 97.35M44.77 97.35L60.75 93.41M60.75 93.41L77.2 93.41M77.2 93.41L93.17 97.35M93.17 97.35L107.74 105M107.74 105L120.05 115.9M120.05 115.9L129.39 129.44M129.39 129.44L135.23 144.82M135.23 144.82L137.21 161.16M137.21 161.16L135.23 177.49M135.23 177.49L129.39 192.87M129.39 192.87L120.05 206.41M120.05 206.41L107.74 217.31M107.74 217.31L93.17 224.96M93.17 224.96L77.2 228.9M77.2 228.9L60.75 228.9M60.75 228.9L44.77 224.96M44.77 224.96L30.21 217.31M30.21 217.31L17.89 206.41M17.89 206.41L8.55 192.87M8.55 192.87L2.72 177.49M2.72 177.49L0.73 161.16"
fill="none" stroke="black" stroke-width="3"/>
</g>
<g><path d="M296.91 77.17L296.91 8.93"
fill="none" stroke="black" stroke-width="3"/>
</g>
<g><path d="M205.37 164.47L137.13 164.47"
fill="none" stroke="black" stroke-width="3"/>
</g>
<g><path d="M296.91 77.17L194.55 118.11"
fill="none" stroke="black" stroke-width="3"/>
</g>
</g>
</svg>
