<?xml version="1.0" standalone="no"?><svg xmlns="http://www.w3.org/2000/svg" width="400.000" height="400.000" viewBox="0.0 0.0 400.000 400.000" version="1.1">
  <title>Produce by Acme CAD Converter</title>
  <desc>Produce by Acme CAD Converter</desc>
<g id="0" display="visible">
<g><path d="M204.57 260.3L204.57 306.65"
fill="none" stroke="black" stroke-width="3"/>
</g>
<g><path d="M161.04 352.92L162.92 339.86M162.92 339.86L168.4 327.86M168.4 327.86L177.04 317.89M177.04 317.89L188.13 310.75M188.13 310.75L200.79 307.04M200.79 307.04L213.98 307.04M213.98 307.04L226.64 310.75M226.64 310.75L237.74 317.89M237.74 317.89L246.38 327.86M246.38 327.86L251.86 339.86M251.86 339.86L253.74 352.92M253.74 352.92L251.86 365.97M251.86 365.97L246.38 377.97M246.38 377.97L237.74 387.95M237.74 387.95L226.64 395.08M226.64 395.08L213.98 398.79M213.98 398.79L200.79 398.79M200.79 398.79L188.13 395.08M188.13 395.08L177.04 387.95M177.04 387.95L168.4 377.97M168.4 377.97L162.92 365.97M162.92 365.97L161.04 352.92"
fill="none" stroke="black" stroke-width="3"/>
</g>
<g><path d="M207.39 367.74L207.39 321.39"
fill="none" stroke="black" stroke-width="3"/>
</g>
<g><path d="M207.39 321.39L214.47 341.02"
fill="none" stroke="black" stroke-width="3"/>
</g>
<g><path d="M207.39 321.39L200.31 341.02"
fill="none" stroke="black" stroke-width="3"/>
</g>
<g><path d="M204.57 47.08L274.1 74.89"
fill="none" stroke="black" stroke-width="3"/>
</g>
<g><path d="M204.57 47.08L135.05 74.89"
fill="none" stroke="black" stroke-width="3"/>
</g>
<g><path d="M167.49 260.3L241.65 260.3"
fill="none" stroke="black" stroke-width="3"/>
</g>
<g><path d="M135.05 74.89L274.1 74.89"
fill="none" stroke="black" stroke-width="3"/>
</g>
<g><path d="M167.49 260.3L135.05 74.89"
fill="none" stroke="black" stroke-width="3"/>
</g>
<g><path d="M160.86 222.38L125.9 260.21"
fill="none" stroke="black" stroke-width="3"/>
</g>
<g><path d="M241.65 260.3L274.1 74.89"
fill="none" stroke="black" stroke-width="3"/>
</g>
<g><path d="M204.57 47.08L204.57 0.73"
fill="none" stroke="black" stroke-width="3"/>
</g>
</g>
</svg>
