<?xml version="1.0" standalone="no"?><svg xmlns="http://www.w3.org/2000/svg" width="400.000" height="400.000" viewBox="0.0 0.0 400.000 400.000" version="1.1">
  <title>Produce by Acme CAD Converter</title>
  <desc>Produce by Acme CAD Converter</desc>
<g id="0" display="visible">
<g><path d="M199.81 338.88L199.81 399.27"
fill="none" stroke="black" stroke-width="3"/>
</g>
<g><path d="M199.81 399.27L260.19 399.27"
fill="none" stroke="black" stroke-width="3"/>
</g>
<g><path d="M199.81 338.88L109.23 302.65"
fill="none" stroke="black" stroke-width="3"/>
</g>
<g><path d="M109.23 181.88L290.38 181.88"
fill="none" stroke="black" stroke-width="3"/>
</g>
<g><path d="M109.23 121.5L290.38 121.5"
fill="none" stroke="black" stroke-width="3"/>
</g>
<g><path d="M290.38 302.65L109.23 302.65"
fill="none" stroke="black" stroke-width="3"/>
</g>
<g><path d="M109.23 61.12L290.38 61.12"
fill="none" stroke="black" stroke-width="3"/>
</g>
<g><path d="M109.23 302.65L109.23 61.12"
fill="none" stroke="black" stroke-width="3"/>
</g>
<g><path d="M109.79 85.27L49.41 85.27"
fill="none" stroke="black" stroke-width="3"/>
</g>
<g><path d="M290.38 61.12L290.38 302.65"
fill="none" stroke="black" stroke-width="3"/>
</g>
<g><path d="M290.21 272.46L350.59 272.46"
fill="none" stroke="black" stroke-width="3"/>
</g>
<g><path d="M199.81 338.88L290.38 302.65"
fill="none" stroke="black" stroke-width="3"/>
</g>
<g><path d="M199.81 61.12L236.04 0.73"
fill="none" stroke="black" stroke-width="3"/>
</g>
<g><path d="M163.58 0.73L199.81 61.12"
fill="none" stroke="black" stroke-width="3"/>
</g>
<g><path d="M163.58 0.73L236.04 0.73"
fill="none" stroke="black" stroke-width="3"/>
</g>
</g>
</svg>
