<?xml version="1.0" standalone="no"?><svg xmlns="http://www.w3.org/2000/svg" width="400.000" height="400.000" viewBox="0.0 0.0 400.000 400.000" version="1.1">
  <title>Produce by Acme CAD Converter</title>
  <desc>Produce by Acme CAD Converter</desc>
<g id="0" display="visible">
<g><path d="M200 114.6L171.53 57.67"
fill="none" stroke="black" stroke-width="3"/>
</g>
<g><path d="M143.07 342.33L256.93 342.33"
fill="none" stroke="black" stroke-width="3"/>
</g>
<g><path d="M171.53 57.67L143.07 114.6"
fill="none" stroke="black" stroke-width="3"/>
</g>
<g><path d="M114.6 57.67L86.13 114.6"
fill="none" stroke="black" stroke-width="3"/>
</g>
<g><path d="M143.07 114.6L114.6 57.67"
fill="none" stroke="black" stroke-width="3"/>
</g>
<g><path d="M86.13 114.6L143.07 342.33"
fill="none" stroke="black" stroke-width="3"/>
</g>
<g><path d="M171.53 57.67L171.53 0.73"
fill="none" stroke="black" stroke-width="3"/>
</g>
<g><path d="M114.6 57.67L114.6 0.73"
fill="none" stroke="black" stroke-width="3"/>
</g>
<g><path d="M200 342.33L200 399.27"
fill="none" stroke="black" stroke-width="3"/>
</g>
<g><path d="M256.93 114.6L228.47 57.67"
fill="none" stroke="black" stroke-width="3"/>
</g>
<g><path d="M228.47 57.67L200 114.6"
fill="none" stroke="black" stroke-width="3"/>
</g>
<g><path d="M285.4 57.67L256.93 114.6"
fill="none" stroke="black" stroke-width="3"/>
</g>
<g><path d="M313.87 114.6L285.4 57.67"
fill="none" stroke="black" stroke-width="3"/>
</g>
<g><path d="M256.93 342.33L313.87 114.6"
fill="none" stroke="black" stroke-width="3"/>
</g>
<g><path d="M228.47 57.67L228.47 0.73"
fill="none" stroke="black" stroke-width="3"/>
</g>
<g><path d="M285.4 57.67L285.4 0.73"
fill="none" stroke="black" stroke-width="3"/>
</g>
</g>
</svg>
