<?xml version="1.0" standalone="no"?><svg xmlns="http://www.w3.org/2000/svg" width="400.000" height="400.000" viewBox="0.0 0.0 400.000 400.000" version="1.1">
  <title>Produce by Acme CAD Converter</title>
  <desc>Produce by Acme CAD Converter</desc>
<g id="0" display="visible">
<g><path d="M324.54 317.29L264.58 220.46"
fill="none" stroke="black" stroke-width="3"/>
</g>
<g><path d="M324.54 332.84L258.12 332.84"
fill="none" stroke="black" stroke-width="3"/>
</g>
<g><path d="M299.63 345.3L366.06 345.3"
fill="none" stroke="black" stroke-width="3"/>
</g>
<g><path d="M258.12 357.75L324.54 357.75"
fill="none" stroke="black" stroke-width="3"/>
</g>
<g><path d="M324.54 125.27L200 249.82"
fill="none" stroke="black" stroke-width="3"/>
</g>
<g><path d="M324.54 83.76L303.78 42.25"
fill="none" stroke="black" stroke-width="3"/>
</g>
<g><path d="M75.46 317.29L135.42 220.46"
fill="none" stroke="black" stroke-width="3"/>
</g>
<g><path d="M246.97 202.85L200 249.82"
fill="none" stroke="black" stroke-width="3"/>
</g>
<g><path d="M217.61 267.43L264.58 220.46"
fill="none" stroke="black" stroke-width="3"/>
</g>
<g><path d="M153.03 202.85L200 249.82"
fill="none" stroke="black" stroke-width="3"/>
</g>
<g><path d="M182.39 267.43L135.42 220.46"
fill="none" stroke="black" stroke-width="3"/>
</g>
<g><path d="M75.46 125.27L200 249.82"
fill="none" stroke="black" stroke-width="3"/>
</g>
<g><path d="M100.37 345.3L33.94 345.3"
fill="none" stroke="black" stroke-width="3"/>
</g>
<g><path d="M141.88 332.84L182.39 267.43"
fill="none" stroke="black" stroke-width="3"/>
</g>
<g><path d="M75.46 357.75L75.46 332.84"
fill="none" stroke="black" stroke-width="3"/>
</g>
<g><path d="M141.88 332.84L141.88 357.75"
fill="none" stroke="black" stroke-width="3"/>
</g>
<g><path d="M141.88 357.75L75.46 357.75"
fill="none" stroke="black" stroke-width="3"/>
</g>
<g><path d="M108.67 357.75L108.67 399.27"
fill="none" stroke="black" stroke-width="3"/>
</g>
<g><path d="M75.46 332.84L141.88 332.84"
fill="none" stroke="black" stroke-width="3"/>
</g>
<g><path d="M75.46 332.84L75.46 317.29"
fill="none" stroke="black" stroke-width="3"/>
</g>
<g><path d="M258.12 332.84L258.12 357.75"
fill="none" stroke="black" stroke-width="3"/>
</g>
<g><path d="M291.33 357.75L291.33 399.27"
fill="none" stroke="black" stroke-width="3"/>
</g>
<g><path d="M217.61 267.43L258.12 332.84"
fill="none" stroke="black" stroke-width="3"/>
</g>
<g><path d="M200 249.82L217.61 267.43"
fill="none" stroke="black" stroke-width="3"/>
</g>
<g><path d="M200 249.82L182.39 267.43"
fill="none" stroke="black" stroke-width="3"/>
</g>
<g><path d="M137.73 42.25L137.73 0.73"
fill="none" stroke="black" stroke-width="3"/>
</g>
<g><path d="M96.22 42.25L96.22 0.73"
fill="none" stroke="black" stroke-width="3"/>
</g>
<g><path d="M303.78 42.25L303.78 0.73"
fill="none" stroke="black" stroke-width="3"/>
</g>
<g><path d="M262.27 42.25L262.27 0.73"
fill="none" stroke="black" stroke-width="3"/>
</g>
<g><path d="M220.76 42.25L220.76 0.73"
fill="none" stroke="black" stroke-width="3"/>
</g>
<g><path d="M179.24 42.25L179.24 0.73"
fill="none" stroke="black" stroke-width="3"/>
</g>
<g><path d="M179.24 42.25L158.49 83.76"
fill="none" stroke="black" stroke-width="3"/>
</g>
<g><path d="M161.84 229.27L114.87 182.3"
fill="none" stroke="black" stroke-width="3"/>
</g>
<g><path d="M135.42 220.46L153.03 202.85"
fill="none" stroke="black" stroke-width="3"/>
</g>
<g><path d="M116.97 83.76L96.22 42.25"
fill="none" stroke="black" stroke-width="3"/>
</g>
<g><path d="M96.22 42.25L75.46 83.76"
fill="none" stroke="black" stroke-width="3"/>
</g>
<g><path d="M75.46 83.76L75.46 125.27"
fill="none" stroke="black" stroke-width="3"/>
</g>
<g><path d="M137.73 42.25L116.97 83.76"
fill="none" stroke="black" stroke-width="3"/>
</g>
<g><path d="M158.49 83.76L137.73 42.25"
fill="none" stroke="black" stroke-width="3"/>
</g>
<g><path d="M238.16 229.27L285.13 182.3"
fill="none" stroke="black" stroke-width="3"/>
</g>
<g><path d="M264.58 220.46L246.97 202.85"
fill="none" stroke="black" stroke-width="3"/>
</g>
<g><path d="M262.27 42.25L241.51 83.76"
fill="none" stroke="black" stroke-width="3"/>
</g>
<g><path d="M220.76 42.25L200 83.76"
fill="none" stroke="black" stroke-width="3"/>
</g>
<g><path d="M241.51 83.76L220.76 42.25"
fill="none" stroke="black" stroke-width="3"/>
</g>
<g><path d="M200 83.76L179.24 42.25"
fill="none" stroke="black" stroke-width="3"/>
</g>
<g><path d="M303.78 42.25L283.03 83.76"
fill="none" stroke="black" stroke-width="3"/>
</g>
<g><path d="M283.03 83.76L262.27 42.25"
fill="none" stroke="black" stroke-width="3"/>
</g>
<g><path d="M324.54 357.75L324.54 332.84"
fill="none" stroke="black" stroke-width="3"/>
</g>
<g><path d="M324.54 332.84L324.54 317.29"
fill="none" stroke="black" stroke-width="3"/>
</g>
<g><path d="M324.54 83.76L324.54 125.27"
fill="none" stroke="black" stroke-width="3"/>
</g>
</g>
</svg>
