<?xml version="1.0" standalone="no"?><svg xmlns="http://www.w3.org/2000/svg" width="400.000" height="400.000" viewBox="0.0 0.0 400.000 400.000" version="1.1">
  <title>Produce by Acme CAD Converter</title>
  <desc>Produce by Acme CAD Converter</desc>
<g id="0" display="visible">
<g><path d="M274.73 175.09L274.73 75.46"
fill="none" stroke="black" stroke-width="3"/>
</g>
<g><path d="M284.69 155.16L284.69 95.38"
fill="none" stroke="black" stroke-width="3"/>
</g>
<g><path d="M264.76 155.16L264.76 95.38"
fill="none" stroke="black" stroke-width="3"/>
</g>
<g><path d="M115.31 155.16L115.31 95.38"
fill="none" stroke="black" stroke-width="3"/>
</g>
<g><path d="M135.24 155.16L135.24 95.38"
fill="none" stroke="black" stroke-width="3"/>
</g>
<g><path d="M125.27 175.09L125.27 75.46"
fill="none" stroke="black" stroke-width="3"/>
</g>
<g><path d="M50.55 25.64L50.55 224.91"
fill="none" stroke="black" stroke-width="3"/>
</g>
<g><path d="M349.45 25.64L349.45 224.91"
fill="none" stroke="black" stroke-width="3"/>
</g>
<g><path d="M274.73 324.54L200 224.91"
fill="none" stroke="black" stroke-width="3"/>
</g>
<g><path d="M125.27 324.54L50.55 224.91"
fill="none" stroke="black" stroke-width="3"/>
</g>
<g><path d="M200 224.91L125.27 324.54"
fill="none" stroke="black" stroke-width="3"/>
</g>
<g><path d="M125.27 324.54L125.27 374.36"
fill="none" stroke="black" stroke-width="3"/>
</g>
<g><path d="M349.45 224.91L274.73 324.54"
fill="none" stroke="black" stroke-width="3"/>
</g>
<g><path d="M274.73 324.54L274.73 374.36"
fill="none" stroke="black" stroke-width="3"/>
</g>
<g><path d="M50.55 25.64L349.45 25.64"
fill="none" stroke="black" stroke-width="3"/>
</g>
<g><path d="M50.55 75.46L0.73 75.46"
fill="none" stroke="black" stroke-width="3"/>
</g>
<g><path d="M399.27 75.46L349.45 75.46"
fill="none" stroke="black" stroke-width="3"/>
</g>
</g>
</svg>
