<?xml version="1.0" standalone="no"?><svg xmlns="http://www.w3.org/2000/svg" width="400.000" height="400.000" viewBox="0.0 0.0 400.000 400.000" version="1.1">
  <title>Produce by Acme CAD Converter</title>
  <desc>Produce by Acme CAD Converter</desc>
<g id="0" display="visible">
<g><path d="M200 319.56L200 399.27"
fill="none" stroke="black" stroke-width="3"/>
</g>
<g><path d="M80.44 200L82.36 178.65M82.36 178.65L88.06 157.99M88.06 157.99L97.36 138.68M97.36 138.68L109.96 121.34M109.96 121.34L125.46 106.52M125.46 106.52L143.34 94.72M143.34 94.72L163.05 86.29M163.05 86.29L183.95 81.52M183.95 81.52L205.36 80.56M205.36 80.56L226.6 83.44M226.6 83.44L246.99 90.06M246.99 90.06L265.87 100.22M265.87 100.22L282.62 113.58M282.62 113.58L296.73 129.72M296.73 129.72L307.72 148.12M307.72 148.12L315.25 168.19M315.25 168.19L319.08 189.28M319.08 189.28L319.08 210.72M319.08 210.72L315.25 231.81M315.25 231.81L307.72 251.88M307.72 251.88L296.73 270.28M296.73 270.28L282.62 286.42M282.62 286.42L265.87 299.78M265.87 299.78L246.99 309.94M246.99 309.94L226.6 316.56M226.6 316.56L205.36 319.44M205.36 319.44L183.95 318.48M183.95 318.48L163.05 313.71M163.05 313.71L143.34 305.28M143.34 305.28L125.46 293.48M125.46 293.48L109.96 278.66M109.96 278.66L97.36 261.32M97.36 261.32L88.06 242.01M88.06 242.01L82.36 221.35M82.36 221.35L80.44 200"
fill="none" stroke="black" stroke-width="3"/>
</g>
<g><path d="M200 279.71L200 120.29"
fill="none" stroke="black" stroke-width="3"/>
</g>
<g><path d="M200 80.44L200 0.73"
fill="none" stroke="black" stroke-width="3"/>
</g>
<g><path d="M200 120.29L212.18 154.04"
fill="none" stroke="black" stroke-width="3"/>
</g>
<g><path d="M200 120.29L187.82 154.04"
fill="none" stroke="black" stroke-width="3"/>
</g>
</g>
</svg>
