<?xml version="1.0" standalone="no"?><svg xmlns="http://www.w3.org/2000/svg" width="400.000" height="400.000" viewBox="0.0 0.0 400.000 400.000" version="1.1">
  <title>Produce by Acme CAD Converter</title>
  <desc>Produce by Acme CAD Converter</desc>
<g id="0" display="visible">
<g><path d="M93.23 171.53L377.92 171.53"
fill="none" stroke="black" stroke-width="3"/>
</g>
<g><path d="M93.23 214.23L377.92 214.23"
fill="none" stroke="black" stroke-width="3"/>
</g>
<g><path d="M235.58 399.27L93.25 356.57"
fill="none" stroke="black" stroke-width="3"/>
</g>
<g><path d="M377.92 356.57L93.25 356.57"
fill="none" stroke="black" stroke-width="3"/>
</g>
<g><path d="M93.25 71.9L377.92 71.9"
fill="none" stroke="black" stroke-width="3"/>
</g>
<g><path d="M93.25 356.57L93.25 71.9"
fill="none" stroke="black" stroke-width="3"/>
</g>
<g><path d="M93.25 313.87L22.08 313.87"
fill="none" stroke="black" stroke-width="3"/>
</g>
<g><path d="M114.58 214.07L114.58 171.53"
fill="none" stroke="black" stroke-width="3"/>
</g>
<g><path d="M93.25 114.6L22.08 114.6"
fill="none" stroke="black" stroke-width="3"/>
</g>
<g><path d="M377.92 71.9L377.92 356.57"
fill="none" stroke="black" stroke-width="3"/>
</g>
<g><path d="M235.58 399.27L377.92 356.57"
fill="none" stroke="black" stroke-width="3"/>
</g>
<g><path d="M178.63 214.07L178.63 171.53"
fill="none" stroke="black" stroke-width="3"/>
</g>
<g><path d="M157.28 214.07L157.28 171.53"
fill="none" stroke="black" stroke-width="3"/>
</g>
<g><path d="M135.93 214.07L135.93 171.53"
fill="none" stroke="black" stroke-width="3"/>
</g>
<g><path d="M242.68 214.07L242.68 171.53"
fill="none" stroke="black" stroke-width="3"/>
</g>
<g><path d="M221.33 214.07L221.33 171.53"
fill="none" stroke="black" stroke-width="3"/>
</g>
<g><path d="M199.98 214.07L199.98 171.53"
fill="none" stroke="black" stroke-width="3"/>
</g>
<g><path d="M306.73 214.07L306.73 171.53"
fill="none" stroke="black" stroke-width="3"/>
</g>
<g><path d="M285.38 214.07L285.38 171.53"
fill="none" stroke="black" stroke-width="3"/>
</g>
<g><path d="M264.03 214.07L264.03 171.53"
fill="none" stroke="black" stroke-width="3"/>
</g>
<g><path d="M349.43 214.07L349.43 171.53"
fill="none" stroke="black" stroke-width="3"/>
</g>
<g><path d="M328.08 214.07L328.08 171.53"
fill="none" stroke="black" stroke-width="3"/>
</g>
<g><path d="M370.78 214.07L370.78 171.53"
fill="none" stroke="black" stroke-width="3"/>
</g>
<g><path d="M235.58 0.73L306.75 0.73"
fill="none" stroke="black" stroke-width="3"/>
</g>
<g><path d="M235.58 71.9L235.58 0.73"
fill="none" stroke="black" stroke-width="3"/>
</g>
</g>
</svg>
