<?xml version="1.0" standalone="no"?><svg xmlns="http://www.w3.org/2000/svg" width="400.000" height="400.000" viewBox="0.0 0.0 400.000 400.000" version="1.1">
  <title>Produce by Acme CAD Converter</title>
  <desc>Produce by Acme CAD Converter</desc>
<g id="0" display="visible">
<g><path d="M278.02 326.13L326.52 399.27"
fill="none" stroke="black" stroke-width="3"/>
</g>
<g><path d="M121.98 326.13L73.48 399.27"
fill="none" stroke="black" stroke-width="3"/>
</g>
<g><path d="M200 307.87L200 132.36"
fill="none" stroke="black" stroke-width="3"/>
</g>
<g><path d="M68.37 220.12L70.26 197.87M70.26 197.87L75.89 176.27M75.89 176.27L85.08 155.92M85.08 155.92L97.59 137.42M97.59 137.42L113.04 121.31M113.04 121.31L130.99 108.03M130.99 108.03L150.92 97.98M150.92 97.98L172.27 91.44M172.27 91.44L194.41 88.61M194.41 88.61L216.72 89.55M216.72 89.55L238.54 94.26M238.54 94.26L259.26 102.58M259.26 102.58L278.27 114.29M278.27 114.29L295.03 129.04M295.03 129.04L309.06 146.41M309.06 146.41L319.95 165.9M319.95 165.9L327.38 186.95M327.38 186.95L331.16 208.95M331.16 208.95L331.16 231.28M331.16 231.28L327.38 253.29M327.38 253.29L319.95 274.34M319.95 274.34L309.06 293.83M309.06 293.83L295.03 311.2M295.03 311.2L278.27 325.95M278.27 325.95L259.26 337.65M259.26 337.65L238.54 345.98M238.54 345.98L216.72 350.68M216.72 350.68L194.41 351.63M194.41 351.63L172.27 348.79M172.27 348.79L150.92 342.26M150.92 342.26L130.99 332.2M130.99 332.2L113.04 318.93M113.04 318.93L97.59 302.81M97.59 302.81L85.08 284.31M85.08 284.31L75.89 263.97M75.89 263.97L70.26 242.36M70.26 242.36L68.37 220.12"
fill="none" stroke="black" stroke-width="3"/>
</g>
<g><path d="M200 132.36L186.59 169.52"
fill="none" stroke="black" stroke-width="3"/>
</g>
<g><path d="M200 88.49L200 0.73"
fill="none" stroke="black" stroke-width="3"/>
</g>
<g><path d="M200 132.36L213.41 169.52"
fill="none" stroke="black" stroke-width="3"/>
</g>
</g>
</svg>
