<?xml version="1.0" standalone="no"?><svg xmlns="http://www.w3.org/2000/svg" width="400.000" height="400.000" viewBox="0.0 0.0 400.000 400.000" version="1.1">
  <title>Produce by Acme CAD Converter</title>
  <desc>Produce by Acme CAD Converter</desc>
<g id="0" display="visible">
<g><path d="M51.83 200L0.73 200"
fill="none" stroke="black" stroke-width="3"/>
</g>
<g><path d="M348.17 200L399.27 200"
fill="none" stroke="black" stroke-width="3"/>
</g>
<g><path d="M348.17 159.12L193.18 188.3"
fill="none" stroke="black" stroke-width="3"/>
</g>
<g><path d="M348.17 240.88L193.18 211.7"
fill="none" stroke="black" stroke-width="3"/>
</g>
<g><path d="M113.14 200L164.23 200"
fill="none" stroke="black" stroke-width="3"/>
</g>
<g><path d="M113.14 200L114.96 187.95M114.96 187.95L120.24 176.97M120.24 176.97L128.53 168.04M128.53 168.04L139.08 161.95M139.08 161.95L150.96 159.24M150.96 159.24L163.11 160.15M163.11 160.15L174.45 164.6M174.45 164.6L183.98 172.2M183.98 172.2L190.84 182.26M190.84 182.26L194.43 193.91M194.43 193.91L194.43 206.09M194.43 206.09L190.84 217.74M190.84 217.74L183.98 227.8M183.98 227.8L174.45 235.4M174.45 235.4L163.11 239.85M163.11 239.85L150.96 240.76M150.96 240.76L139.08 238.05M139.08 238.05L128.53 231.96M128.53 231.96L120.24 223.03M120.24 223.03L114.96 212.05M114.96 212.05L113.14 200"
fill="none" stroke="black" stroke-width="3"/>
</g>
<g><path d="M60.81 178.32L104.16 221.68"
fill="none" stroke="black" stroke-width="3"/>
</g>
<g><path d="M60.81 221.68L104.16 178.32"
fill="none" stroke="black" stroke-width="3"/>
</g>
<g><path d="M51.83 200L53.68 189.51M53.68 189.51L59 180.29M59 180.29L67.16 173.45M67.16 173.45L77.16 169.81M77.16 169.81L87.81 169.81M87.81 169.81L97.81 173.45M97.81 173.45L105.97 180.29M105.97 180.29L111.29 189.51M111.29 189.51L113.14 200M113.14 200L111.29 210.49M111.29 210.49L105.97 219.71M105.97 219.71L97.81 226.55M97.81 226.55L87.81 230.19M87.81 230.19L77.16 230.19M77.16 230.19L67.16 226.55M67.16 226.55L59 219.71M59 219.71L53.68 210.49M53.68 210.49L51.83 200"
fill="none" stroke="black" stroke-width="3"/>
</g>
<g><path d="M164.23 200L142.6 192.19"
fill="none" stroke="black" stroke-width="3"/>
</g>
<g><path d="M164.23 200L142.6 207.81"
fill="none" stroke="black" stroke-width="3"/>
</g>
<g><path d="M348.17 200L348.17 159.12"
fill="none" stroke="black" stroke-width="3"/>
</g>
<g><path d="M348.17 200L348.17 240.88"
fill="none" stroke="black" stroke-width="3"/>
</g>
</g>
</svg>
