<?xml version="1.0" standalone="no"?><svg xmlns="http://www.w3.org/2000/svg" width="400.000" height="400.000" viewBox="0.0 0.0 400.000 400.000" version="1.1">
  <title>Produce by Acme CAD Converter</title>
  <desc>Produce by Acme CAD Converter</desc>
<g id="0" display="visible">
<g><path d="M100.37 200L102.28 180.56M102.28 180.56L107.95 161.87M107.95 161.87L117.16 144.65M117.16 144.65L129.55 129.55M129.55 129.55L144.65 117.16M144.65 117.16L161.87 107.95M161.87 107.95L180.56 102.28M180.56 102.28L200 100.37M200 100.37L219.44 102.28M219.44 102.28L238.13 107.95M238.13 107.95L255.35 117.16M255.35 117.16L270.45 129.55M270.45 129.55L282.84 144.65M282.84 144.65L292.05 161.87M292.05 161.87L297.72 180.56M297.72 180.56L299.63 200M299.63 200L297.72 219.44M297.72 219.44L292.05 238.13M292.05 238.13L282.84 255.35M282.84 255.35L270.45 270.45M270.45 270.45L255.35 282.84M255.35 282.84L238.13 292.05M238.13 292.05L219.44 297.72M219.44 297.72L200 299.63M200 299.63L180.56 297.72M180.56 297.72L161.87 292.05M161.87 292.05L144.65 282.84M144.65 282.84L129.55 270.45M129.55 270.45L117.16 255.35M117.16 255.35L107.95 238.13M107.95 238.13L102.28 219.44M102.28 219.44L100.37 200"
fill="none" stroke="black" stroke-width="3"/>
</g>
<g><path d="M0.73 200L2.67 172.27M2.67 172.27L8.45 145.07M8.45 145.07L17.96 118.95M17.96 118.95L31.01 94.4M31.01 94.4L47.35 71.91M47.35 71.91L66.66 51.92M66.66 51.92L88.57 34.8M88.57 34.8L112.65 20.9M112.65 20.9L138.42 10.49M138.42 10.49L165.4 3.76M165.4 3.76L193.05 0.85M193.05 0.85L220.83 1.82M220.83 1.82L248.21 6.65M248.21 6.65L274.65 15.24M274.65 15.24L299.63 27.43M299.63 27.43L322.68 42.98M322.68 42.98L343.34 61.58M343.34 61.58L361.21 82.87M361.21 82.87L375.94 106.45M375.94 106.45L387.25 131.85M387.25 131.85L394.91 158.57M394.91 158.57L398.78 186.1M398.78 186.1L398.78 213.9M398.78 213.9L394.91 241.43M394.91 241.43L387.25 268.15M387.25 268.15L375.94 293.55M375.94 293.55L361.21 317.13M361.21 317.13L343.34 338.42M343.34 338.42L322.68 357.02M322.68 357.02L299.63 372.57M299.63 372.57L274.65 384.76M274.65 384.76L248.21 393.35M248.21 393.35L220.83 398.18M220.83 398.18L193.05 399.15M193.05 399.15L165.4 396.24M165.4 396.24L138.42 389.51M138.42 389.51L112.65 379.1M112.65 379.1L88.57 365.2M88.57 365.2L66.66 348.08M66.66 348.08L47.35 328.09M47.35 328.09L31.01 305.6M31.01 305.6L17.96 281.05M17.96 281.05L8.45 254.93M8.45 254.93L2.67 227.73M2.67 227.73L0.73 200"
fill="none" stroke="black" stroke-width="3"/>
</g>
<g><path d="M125.37 266.01L322.15 395.27"
fill="none" stroke="black" stroke-width="3"/>
</g>
<g><path d="M200 0.73L399.27 0.73"
fill="none" stroke="black" stroke-width="3"/>
</g>
</g>
</svg>
