<?xml version="1.0" standalone="no"?><svg xmlns="http://www.w3.org/2000/svg" width="400.000" height="400.000" viewBox="0.0 0.0 400.000 400.000" version="1.1">
  <title>Produce by Acme CAD Converter</title>
  <desc>Produce by Acme CAD Converter</desc>
<g id="0" display="visible">
<g><path d="M324.07 200L98.49 222.56"
fill="none" stroke="black" stroke-width="3"/>
</g>
<g><path d="M98.49 177.44L324.07 200"
fill="none" stroke="black" stroke-width="3"/>
</g>
<g><path d="M75.93 200L0.73 200"
fill="none" stroke="black" stroke-width="3"/>
</g>
<g><path d="M75.93 200L77.88 190.82M77.88 190.82L83.39 183.24M83.39 183.24L91.52 178.55M91.52 178.55L100.84 177.57M100.84 177.57L109.77 180.46M109.77 180.46L116.74 186.74M116.74 186.74L120.55 195.31M120.55 195.31L120.55 204.69M120.55 204.69L116.74 213.26M116.74 213.26L109.77 219.54M109.77 219.54L100.84 222.43M100.84 222.43L91.52 221.45M91.52 221.45L83.39 216.76M83.39 216.76L77.88 209.18M77.88 209.18L75.93 200"
fill="none" stroke="black" stroke-width="3"/>
</g>
<g><path d="M324.07 200L399.27 200"
fill="none" stroke="black" stroke-width="3"/>
</g>
</g>
</svg>
