<?xml version="1.0" standalone="no"?><svg xmlns="http://www.w3.org/2000/svg" width="400.000" height="400.000" viewBox="0.0 0.0 400.000 400.000" version="1.1">
  <title>Produce by Acme CAD Converter</title>
  <desc>Produce by Acme CAD Converter</desc>
<g id="0" display="visible">
<g><path d="M178.1 268.36L176.44 277.38M176.44 277.38L178.33 286.36M178.33 286.36L183.48 293.96M183.48 293.96L191.12 299.03M191.12 299.03L200.12 300.83M200.12 300.83L209.13 299.08M209.13 299.08L216.8 294.05M216.8 294.05L222 286.49M222 286.49L223.93 277.52M223.93 277.52L222.33 268.48"
fill="none" stroke="black" stroke-width="3"/>
</g>
<g><path d="M222.33 131.52L223.93 122.48M223.93 122.48L222 113.51M222 113.51L216.8 105.95M216.8 105.95L209.13 100.92M209.13 100.92L200.12 99.17M200.12 99.17L191.12 100.97M191.12 100.97L183.48 106.04M183.48 106.04L178.33 113.64M178.33 113.64L176.44 122.62M176.44 122.62L178.1 131.64"
fill="none" stroke="black" stroke-width="3"/>
</g>
<g><path d="M188.99 211.53L176.44 277.01"
fill="none" stroke="black" stroke-width="3"/>
</g>
<g><path d="M188.99 188.47L176.44 122.99"
fill="none" stroke="black" stroke-width="3"/>
</g>
<g><path d="M80.44 200L82.36 178.65M82.36 178.65L88.06 157.99M88.06 157.99L97.36 138.68M97.36 138.68L109.96 121.34M109.96 121.34L125.46 106.52M125.46 106.52L143.34 94.72M143.34 94.72L163.05 86.29M163.05 86.29L183.95 81.52M183.95 81.52L205.36 80.56M205.36 80.56L226.6 83.44M226.6 83.44L246.99 90.06M246.99 90.06L265.87 100.22M265.87 100.22L282.62 113.58M282.62 113.58L296.73 129.72M296.73 129.72L307.72 148.12M307.72 148.12L315.25 168.19M315.25 168.19L319.08 189.28M319.08 189.28L319.08 210.72M319.08 210.72L315.25 231.81M315.25 231.81L307.72 251.88M307.72 251.88L296.73 270.28M296.73 270.28L282.62 286.42M282.62 286.42L265.87 299.78M265.87 299.78L246.99 309.94M246.99 309.94L226.6 316.56M226.6 316.56L205.36 319.44M205.36 319.44L183.95 318.48M183.95 318.48L163.05 313.71M163.05 313.71L143.34 305.28M143.34 305.28L125.46 293.48M125.46 293.48L109.96 278.66M109.96 278.66L97.36 261.32M97.36 261.32L88.06 242.01M88.06 242.01L82.36 221.35M82.36 221.35L80.44 200"
fill="none" stroke="black" stroke-width="3"/>
</g>
<g><path d="M80.44 200L0.73 200"
fill="none" stroke="black" stroke-width="3"/>
</g>
<g><path d="M211.76 188.41L223.94 122.86"
fill="none" stroke="black" stroke-width="3"/>
</g>
<g><path d="M211.76 211.59L223.94 277.14"
fill="none" stroke="black" stroke-width="3"/>
</g>
<g><path d="M184.06 200L185.88 192.59M185.88 192.59L190.94 186.88M190.94 186.88L198.08 184.17M198.08 184.17L205.65 185.09M205.65 185.09L211.93 189.43M211.93 189.43L215.48 196.18M215.48 196.18L215.48 203.82M215.48 203.82L211.93 210.57M211.93 210.57L205.65 214.91M205.65 214.91L198.08 215.83M198.08 215.83L190.94 213.12M190.94 213.12L185.88 207.41M185.88 207.41L184.06 200"
fill="none" stroke="black" stroke-width="3"/>
</g>
<g><path d="M319.56 200L399.27 200"
fill="none" stroke="black" stroke-width="3"/>
</g>
</g>
</svg>
