<?xml version="1.0" standalone="no"?><svg xmlns="http://www.w3.org/2000/svg" width="400.000" height="400.000" viewBox="0.0 0.0 400.000 400.000" version="1.1">
  <title>Produce by Acme CAD Converter</title>
  <desc>Produce by Acme CAD Converter</desc>
<g id="0" display="visible">
<g><path d="M205.97 0.73L285.68 0.73"
fill="none" stroke="black" stroke-width="3"/>
</g>
<g><path d="M285.68 160.15L283.94 143.57M283.94 143.57L278.79 127.73M278.79 127.73L270.46 113.3M270.46 113.3L259.31 100.91M259.31 100.91L245.83 91.12M245.83 91.12L230.6 84.34M230.6 84.34L214.3 80.88M214.3 80.88L197.64 80.88M197.64 80.88L181.34 84.34M181.34 84.34L166.12 91.12M166.12 91.12L152.64 100.91M152.64 100.91L141.49 113.3M141.49 113.3L133.16 127.73M133.16 127.73L128.01 143.57M128.01 143.57L126.27 160.15"
fill="none" stroke="black" stroke-width="3"/>
</g>
<g><path d="M126.27 319.56L128.01 336.13M128.01 336.13L133.16 351.98M133.16 351.98L141.49 366.41M141.49 366.41L152.64 378.79M152.64 378.79L166.12 388.59M166.12 388.59L181.34 395.37M181.34 395.37L197.64 398.83M197.64 398.83L214.3 398.83M214.3 398.83L230.6 395.37M230.6 395.37L245.83 388.59M245.83 388.59L259.31 378.79M259.31 378.79L270.46 366.41M270.46 366.41L278.79 351.98M278.79 351.98L283.94 336.13M283.94 336.13L285.68 319.56"
fill="none" stroke="black" stroke-width="3"/>
</g>
<g><path d="M205.97 0.73L205.97 287.68"
fill="none" stroke="black" stroke-width="3"/>
</g>
<g><path d="M205.97 287.68L172.16 321.49"
fill="none" stroke="black" stroke-width="3"/>
</g>
<g><path d="M205.97 287.68L239.79 321.49"
fill="none" stroke="black" stroke-width="3"/>
</g>
<g><path d="M126.27 160.15L126.27 319.56"
fill="none" stroke="black" stroke-width="3"/>
</g>
<g><path d="M114.32 71.48L148.14 105.3"
fill="none" stroke="black" stroke-width="3"/>
</g>
<g><path d="M285.68 319.56L285.68 160.15"
fill="none" stroke="black" stroke-width="3"/>
</g>
</g>
</svg>
