<?xml version="1.0" standalone="no"?><svg xmlns="http://www.w3.org/2000/svg" width="400.000" height="400.000" viewBox="0.0 0.0 400.000 400.000" version="1.1">
  <title>Produce by Acme CAD Converter</title>
  <desc>Produce by Acme CAD Converter</desc>
<g id="0" display="visible">
<g><path d="M239.85 104.35L319.56 104.35"
fill="none" stroke="black" stroke-width="3"/>
</g>
<g><path d="M239.85 184.06L319.56 184.06"
fill="none" stroke="black" stroke-width="3"/>
</g>
<g><path d="M128.26 319.56L128.26 399.27"
fill="none" stroke="black" stroke-width="3"/>
</g>
<g><path d="M192.03 176.09L192.03 128.26"
fill="none" stroke="black" stroke-width="3"/>
</g>
<g><path d="M144.21 160.15L144.21 176.09"
fill="none" stroke="black" stroke-width="3"/>
</g>
<g><path d="M239.85 207.97L239.85 160.15"
fill="none" stroke="black" stroke-width="3"/>
</g>
<g><path d="M80.44 160.15L80.44 319.56"
fill="none" stroke="black" stroke-width="3"/>
</g>
<g><path d="M80.44 319.56L176.09 319.56"
fill="none" stroke="black" stroke-width="3"/>
</g>
<g><path d="M176.09 319.56L176.09 207.97"
fill="none" stroke="black" stroke-width="3"/>
</g>
<g><path d="M144.21 176.09L192.03 176.09"
fill="none" stroke="black" stroke-width="3"/>
</g>
<g><path d="M176.09 207.97L239.85 207.97"
fill="none" stroke="black" stroke-width="3"/>
</g>
<g><path d="M144.21 160.15L80.44 160.15"
fill="none" stroke="black" stroke-width="3"/>
</g>
<g><path d="M176.09 80.44L176.09 0.73"
fill="none" stroke="black" stroke-width="3"/>
</g>
<g><path d="M239.85 80.44L144.21 80.44"
fill="none" stroke="black" stroke-width="3"/>
</g>
<g><path d="M144.21 80.44L144.21 160.15"
fill="none" stroke="black" stroke-width="3"/>
</g>
<g><path d="M239.85 128.26L239.85 80.44"
fill="none" stroke="black" stroke-width="3"/>
</g>
<g><path d="M192.03 128.26L239.85 128.26"
fill="none" stroke="black" stroke-width="3"/>
</g>
<g><path d="M239.85 160.15L192.03 160.15"
fill="none" stroke="black" stroke-width="3"/>
</g>
</g>
</svg>
