<?xml version="1.0" standalone="no"?><svg xmlns="http://www.w3.org/2000/svg" width="400.000" height="400.000" viewBox="0.0 0.0 400.000 400.000" version="1.1">
  <title>Produce by Acme CAD Converter</title>
  <desc>Produce by Acme CAD Converter</desc>
<g id="0" display="visible">
<g><path d="M66.76 219.93L333.24 219.93"
fill="none" stroke="black" stroke-width="3"/>
</g>
<g><path d="M66.76 180.07L333.24 180.07"
fill="none" stroke="black" stroke-width="3"/>
</g>
<g><path d="M399.27 269.74L0.73 269.74"
fill="none" stroke="black" stroke-width="3"/>
</g>
<g><path d="M0.73 130.26L399.27 130.26"
fill="none" stroke="black" stroke-width="3"/>
</g>
<g><path d="M0.73 269.74L0.73 130.26"
fill="none" stroke="black" stroke-width="3"/>
</g>
<g><path d="M60.51 130.26L60.51 30.62"
fill="none" stroke="black" stroke-width="3"/>
</g>
<g><path d="M46.84 200L48.81 191.35M48.81 191.35L54.34 184.42M54.34 184.42L62.33 180.57M62.33 180.57L71.2 180.57M71.2 180.57L79.19 184.42M79.19 184.42L84.72 191.35M84.72 191.35L86.69 200M86.69 200L84.72 208.65M84.72 208.65L79.19 215.58M79.19 215.58L71.2 219.43M71.2 219.43L62.33 219.43M62.33 219.43L54.34 215.58M54.34 215.58L48.81 208.65M48.81 208.65L46.84 200"
fill="none" stroke="black" stroke-width="3"/>
</g>
<g><path d="M399.27 130.26L399.27 269.74"
fill="none" stroke="black" stroke-width="3"/>
</g>
<g><path d="M339.49 269.74L339.49 369.38"
fill="none" stroke="black" stroke-width="3"/>
</g>
<g><path d="M313.31 200L315.28 191.35M315.28 191.35L320.81 184.42M320.81 184.42L328.8 180.57M328.8 180.57L337.67 180.57M337.67 180.57L345.66 184.42M345.66 184.42L351.19 191.35M351.19 191.35L353.16 200M353.16 200L351.19 208.65M351.19 208.65L345.66 215.58M345.66 215.58L337.67 219.43M337.67 219.43L328.8 219.43M328.8 219.43L320.81 215.58M320.81 215.58L315.28 208.65M315.28 208.65L313.31 200"
fill="none" stroke="black" stroke-width="3"/>
</g>
</g>
</svg>
