<?xml version="1.0" standalone="no"?><svg xmlns="http://www.w3.org/2000/svg" width="400.000" height="400.000" viewBox="0.0 0.0 400.000 400.000" version="1.1">
  <title>Produce by Acme CAD Converter</title>
  <desc>Produce by Acme CAD Converter</desc>
<g id="0" display="visible">
<g><path d="M249.82 160.15L158.52 160.09"
fill="none" stroke="black" stroke-width="3"/>
</g>
<g><path d="M150.18 200L152.1 180.56M152.1 180.56L157.77 161.87M157.77 161.87L166.97 144.65M166.97 144.65L179.37 129.55M179.37 129.55L194.46 117.16M194.46 117.16L211.69 107.95M211.69 107.95L230.38 102.28M230.38 102.28L249.82 100.37M249.82 100.37L269.25 102.28M269.25 102.28L287.94 107.95M287.94 107.95L305.17 117.16M305.17 117.16L320.27 129.55M320.27 129.55L332.66 144.65M332.66 144.65L341.87 161.87M341.87 161.87L347.54 180.56M347.54 180.56L349.45 200M349.45 200L347.54 219.44M347.54 219.44L341.87 238.13M341.87 238.13L332.66 255.35M332.66 255.35L320.27 270.45M320.27 270.45L305.17 282.84M305.17 282.84L287.94 292.05M287.94 292.05L269.25 297.72M269.25 297.72L249.82 299.63M249.82 299.63L230.38 297.72M230.38 297.72L211.69 292.05M211.69 292.05L194.46 282.84M194.46 282.84L179.37 270.45M179.37 270.45L166.97 255.35M166.97 255.35L157.77 238.13M157.77 238.13L152.1 219.44M152.1 219.44L150.18 200"
fill="none" stroke="black" stroke-width="3"/>
</g>
<g><path d="M150.18 200L50.55 200"
fill="none" stroke="black" stroke-width="3"/>
</g>
<g><path d="M249.82 299.63L249.82 399.27"
fill="none" stroke="black" stroke-width="3"/>
</g>
<g><path d="M249.82 239.85L341.13 239.85"
fill="none" stroke="black" stroke-width="3"/>
</g>
<g><path d="M249.82 100.37L249.82 0.73"
fill="none" stroke="black" stroke-width="3"/>
</g>
</g>
</svg>
