<?xml version="1.0" standalone="no"?><svg xmlns="http://www.w3.org/2000/svg" width="400.000" height="400.000" viewBox="0.0 0.0 400.000 400.000" version="1.1">
  <title>Produce by Acme CAD Converter</title>
  <desc>Produce by Acme CAD Converter</desc>
<g id="0" display="visible">
<g><path d="M100.37 200L102.28 180.56M102.28 180.56L107.95 161.87M107.95 161.87L117.16 144.65M117.16 144.65L129.55 129.55M129.55 129.55L144.65 117.16M144.65 117.16L161.87 107.95M161.87 107.95L180.56 102.28M180.56 102.28L200 100.37M200 100.37L219.44 102.28M219.44 102.28L238.13 107.95M238.13 107.95L255.35 117.16M255.35 117.16L270.45 129.55M270.45 129.55L282.84 144.65M282.84 144.65L292.05 161.87M292.05 161.87L297.72 180.56M297.72 180.56L299.63 200M299.63 200L297.72 219.44M297.72 219.44L292.05 238.13M292.05 238.13L282.84 255.35M282.84 255.35L270.45 270.45M270.45 270.45L255.35 282.84M255.35 282.84L238.13 292.05M238.13 292.05L219.44 297.72M219.44 297.72L200 299.63M200 299.63L180.56 297.72M180.56 297.72L161.87 292.05M161.87 292.05L144.65 282.84M144.65 282.84L129.55 270.45M129.55 270.45L117.16 255.35M117.16 255.35L107.95 238.13M107.95 238.13L102.28 219.44M102.28 219.44L100.37 200"
fill="none" stroke="black" stroke-width="3"/>
</g>
<g><path d="M200 299.63L200 399.27"
fill="none" stroke="black" stroke-width="3"/>
</g>
<g><path d="M143.56 256.44L256.44 143.56"
fill="none" stroke="black" stroke-width="3"/>
</g>
<g><path d="M143.64 143.64L256.36 256.36"
fill="none" stroke="black" stroke-width="3"/>
</g>
<g><path d="M135.32 264.21L135.9 262.8M135.9 262.8L137.31 262.21M137.31 262.21L138.72 262.8M138.72 262.8L139.3 264.21M139.3 264.21L138.72 265.62M138.72 265.62L137.31 266.2M137.31 266.2L135.9 265.62M135.9 265.62L135.32 264.21"
fill="none" stroke="black" stroke-width="3"/>
</g>
<g><path d="M133.33 264.21L134.49 261.39M134.49 261.39L137.31 260.22M137.31 260.22L140.13 261.39M140.13 261.39L141.3 264.21M141.3 264.21L140.13 267.02M140.13 267.02L137.31 268.19M137.31 268.19L134.49 267.02M134.49 267.02L133.33 264.21"
fill="none" stroke="black" stroke-width="3"/>
</g>
<g><path d="M131.33 264.21L133.08 259.98M133.08 259.98L137.31 258.23M137.31 258.23L141.54 259.98M141.54 259.98L143.29 264.21M143.29 264.21L141.54 268.43M141.54 268.43L137.31 270.18M137.31 270.18L133.08 268.43M133.08 268.43L131.33 264.21"
fill="none" stroke="black" stroke-width="3"/>
</g>
<g><path d="M129.34 264.21L131.21 259.08M131.21 259.08L135.93 256.36M135.93 256.36L141.3 257.3M141.3 257.3L144.8 261.48M144.8 261.48L144.8 266.93M144.8 266.93L141.3 271.11M141.3 271.11L135.93 272.06M135.93 272.06L131.21 269.33M131.21 269.33L129.34 264.21"
fill="none" stroke="black" stroke-width="3"/>
</g>
<g><path d="M127.35 264.21L129.25 258.35M129.25 258.35L134.23 254.73M134.23 254.73L140.39 254.73M140.39 254.73L145.37 258.35M145.37 258.35L147.28 264.21M147.28 264.21L145.37 270.06M145.37 270.06L140.39 273.68M140.39 273.68L134.23 273.68M134.23 273.68L129.25 270.06M129.25 270.06L127.35 264.21"
fill="none" stroke="black" stroke-width="3"/>
</g>
<g><path d="M134.6 136.59L135.18 135.18M135.18 135.18L136.59 134.6M136.59 134.6L138 135.18M138 135.18L138.59 136.59M138.59 136.59L138 138M138 138L136.59 138.59M136.59 138.59L135.18 138M135.18 138L134.6 136.59"
fill="none" stroke="black" stroke-width="3"/>
</g>
<g><path d="M132.61 136.59L133.78 133.78M133.78 133.78L136.59 132.61M136.59 132.61L139.41 133.78M139.41 133.78L140.58 136.59M140.58 136.59L139.41 139.41M139.41 139.41L136.59 140.58M136.59 140.58L133.78 139.41M133.78 139.41L132.61 136.59"
fill="none" stroke="black" stroke-width="3"/>
</g>
<g><path d="M130.62 136.59L132.37 132.37M132.37 132.37L136.59 130.62M136.59 130.62L140.82 132.37M140.82 132.37L142.57 136.59M142.57 136.59L140.82 140.82M140.82 140.82L136.59 142.57M136.59 142.57L132.37 140.82M132.37 140.82L130.62 136.59"
fill="none" stroke="black" stroke-width="3"/>
</g>
<g><path d="M128.62 136.59L130.49 131.47M130.49 131.47L135.21 128.74M135.21 128.74L140.58 129.69M140.58 129.69L144.08 133.87M144.08 133.87L144.08 139.32M144.08 139.32L140.58 143.5M140.58 143.5L135.21 144.44M135.21 144.44L130.49 141.72M130.49 141.72L128.62 136.59"
fill="none" stroke="black" stroke-width="3"/>
</g>
<g><path d="M126.63 136.59L128.53 130.74M128.53 130.74L133.51 127.12M133.51 127.12L139.67 127.12M139.67 127.12L144.65 130.74M144.65 130.74L146.56 136.59M146.56 136.59L144.65 142.45M144.65 142.45L139.67 146.07M139.67 146.07L133.51 146.07M133.51 146.07L128.53 142.45M128.53 142.45L126.63 136.59"
fill="none" stroke="black" stroke-width="3"/>
</g>
<g><path d="M200 100.37L200 0.73"
fill="none" stroke="black" stroke-width="3"/>
</g>
<g><path d="M259.42 263.41L260.59 260.59M260.59 260.59L263.41 259.42M263.41 259.42L266.22 260.59M266.22 260.59L267.39 263.41M267.39 263.41L266.22 266.22M266.22 266.22L263.41 267.39M263.41 267.39L260.59 266.22M260.59 266.22L259.42 263.41"
fill="none" stroke="black" stroke-width="3"/>
</g>
<g><path d="M257.43 263.41L259.18 259.18M259.18 259.18L263.41 257.43M263.41 257.43L267.63 259.18M267.63 259.18L269.38 263.41M269.38 263.41L267.63 267.63M267.63 267.63L263.41 269.38M263.41 269.38L259.18 267.63M259.18 267.63L257.43 263.41"
fill="none" stroke="black" stroke-width="3"/>
</g>
<g><path d="M255.44 263.41L257.3 258.28M257.3 258.28L262.02 255.56M262.02 255.56L267.39 256.5M267.39 256.5L270.9 260.68M270.9 260.68L270.9 266.13M270.9 266.13L267.39 270.31M267.39 270.31L262.02 271.26M262.02 271.26L257.3 268.53M257.3 268.53L255.44 263.41"
fill="none" stroke="black" stroke-width="3"/>
</g>
<g><path d="M253.44 263.41L255.35 257.55M255.35 257.55L260.33 253.93M260.33 253.93L266.49 253.93M266.49 253.93L271.47 257.55M271.47 257.55L273.37 263.41M273.37 263.41L271.47 269.26M271.47 269.26L266.49 272.88M266.49 272.88L260.33 272.88M260.33 272.88L255.35 269.26M255.35 269.26L253.44 263.41"
fill="none" stroke="black" stroke-width="3"/>
</g>
<g><path d="M261.41 263.41L262 262M262 262L263.41 261.41M263.41 261.41L264.82 262M264.82 262L265.4 263.41M265.4 263.41L264.82 264.82M264.82 264.82L263.41 265.4M263.41 265.4L262 264.82M262 264.82L261.41 263.41"
fill="none" stroke="black" stroke-width="3"/>
</g>
<g><path d="M262.21 137.31L262.8 135.9M262.8 135.9L264.21 135.32M264.21 135.32L265.62 135.9M265.62 135.9L266.2 137.31M266.2 137.31L265.62 138.72M265.62 138.72L264.21 139.3M264.21 139.3L262.8 138.72M262.8 138.72L262.21 137.31"
fill="none" stroke="black" stroke-width="3"/>
</g>
<g><path d="M260.22 137.31L261.39 134.49M261.39 134.49L264.21 133.33M264.21 133.33L267.02 134.49M267.02 134.49L268.19 137.31M268.19 137.31L267.02 140.13M267.02 140.13L264.21 141.3M264.21 141.3L261.39 140.13M261.39 140.13L260.22 137.31"
fill="none" stroke="black" stroke-width="3"/>
</g>
<g><path d="M258.23 137.31L259.98 133.08M259.98 133.08L264.21 131.33M264.21 131.33L268.43 133.08M268.43 133.08L270.18 137.31M270.18 137.31L268.43 141.54M268.43 141.54L264.21 143.29M264.21 143.29L259.98 141.54M259.98 141.54L258.23 137.31"
fill="none" stroke="black" stroke-width="3"/>
</g>
<g><path d="M256.24 137.31L258.1 132.19M258.1 132.19L262.82 129.46M262.82 129.46L268.19 130.41M268.19 130.41L271.7 134.59M271.7 134.59L271.7 140.04M271.7 140.04L268.19 144.21M268.19 144.21L262.82 145.16M262.82 145.16L258.1 142.44M258.1 142.44L256.24 137.31"
fill="none" stroke="black" stroke-width="3"/>
</g>
<g><path d="M254.24 137.31L256.15 131.46M256.15 131.46L261.13 127.84M261.13 127.84L267.29 127.84M267.29 127.84L272.27 131.46M272.27 131.46L274.17 137.31M274.17 137.31L272.27 143.17M272.27 143.17L267.29 146.79M267.29 146.79L261.13 146.79M261.13 146.79L256.15 143.17M256.15 143.17L254.24 137.31"
fill="none" stroke="black" stroke-width="3"/>
</g>
</g>
</svg>
