<?xml version="1.0" standalone="no"?><svg xmlns="http://www.w3.org/2000/svg" width="400.000" height="400.000" viewBox="0.0 0.0 400.000 400.000" version="1.1">
  <title>Produce by Acme CAD Converter</title>
  <desc>Produce by Acme CAD Converter</desc>
<g id="0" display="visible">
<g><path d="M211.53 399.27L137.73 399.27"
fill="none" stroke="black" stroke-width="3"/>
</g>
<g><path d="M137.73 104.06L211.53 104.06"
fill="none" stroke="black" stroke-width="3"/>
</g>
<g><path d="M137.73 399.27L137.73 104.06"
fill="none" stroke="black" stroke-width="3"/>
</g>
<g><path d="M136.81 148.33L63.01 148.33"
fill="none" stroke="black" stroke-width="3"/>
</g>
<g><path d="M174.63 30.25L174.63 325.46"
fill="none" stroke="black" stroke-width="3"/>
</g>
<g><path d="M211.53 104.06L211.53 399.27"
fill="none" stroke="black" stroke-width="3"/>
</g>
<g><path d="M174.63 325.46L193.84 354.69"
fill="none" stroke="black" stroke-width="3"/>
</g>
<g><path d="M174.63 325.46L155.42 354.69"
fill="none" stroke="black" stroke-width="3"/>
</g>
<g><path d="M263.19 89.3L336.99 89.3"
fill="none" stroke="black" stroke-width="3"/>
</g>
<g><path d="M263.19 15.49L263.19 89.3"
fill="none" stroke="black" stroke-width="3"/>
</g>
<g><path d="M189.39 0.73L189.39 30.25"
fill="none" stroke="black" stroke-width="3"/>
</g>
<g><path d="M159.87 30.25L159.87 0.73"
fill="none" stroke="black" stroke-width="3"/>
</g>
<g><path d="M189.39 30.25L159.87 30.25"
fill="none" stroke="black" stroke-width="3"/>
</g>
<g><path d="M189.39 15.49L263.19 15.49"
fill="none" stroke="black" stroke-width="3"/>
</g>
<g><path d="M159.87 0.73L189.39 0.73"
fill="none" stroke="black" stroke-width="3"/>
</g>
</g>
</svg>
