<?xml version="1.0" standalone="no"?><svg xmlns="http://www.w3.org/2000/svg" width="400.000" height="400.000" viewBox="0.0 0.0 400.000 400.000" version="1.1">
  <title>Produce by Acme CAD Converter</title>
  <desc>Produce by Acme CAD Converter</desc>
<g id="0" display="visible">
<g><path d="M100.37 200L102.28 180.56M102.28 180.56L107.95 161.87M107.95 161.87L117.16 144.65M117.16 144.65L129.55 129.55M129.55 129.55L144.65 117.16M144.65 117.16L161.87 107.95M161.87 107.95L180.56 102.28M180.56 102.28L200 100.37M200 100.37L219.44 102.28M219.44 102.28L238.13 107.95M238.13 107.95L255.35 117.16M255.35 117.16L270.45 129.55M270.45 129.55L282.84 144.65M282.84 144.65L292.05 161.87M292.05 161.87L297.72 180.56M297.72 180.56L299.63 200M299.63 200L297.72 219.44M297.72 219.44L292.05 238.13M292.05 238.13L282.84 255.35M282.84 255.35L270.45 270.45M270.45 270.45L255.35 282.84M255.35 282.84L238.13 292.05M238.13 292.05L219.44 297.72M219.44 297.72L200 299.63M200 299.63L180.56 297.72M180.56 297.72L161.87 292.05M161.87 292.05L144.65 282.84M144.65 282.84L129.55 270.45M129.55 270.45L117.16 255.35M117.16 255.35L107.95 238.13M107.95 238.13L102.28 219.44M102.28 219.44L100.37 200"
fill="none" stroke="black" stroke-width="3"/>
</g>
<g><path d="M100.37 200L0.73 200"
fill="none" stroke="black" stroke-width="3"/>
</g>
<g><path d="M299.63 200L399.27 200"
fill="none" stroke="black" stroke-width="3"/>
</g>
</g>
</svg>
