<?xml version="1.0" standalone="no"?><svg xmlns="http://www.w3.org/2000/svg" width="400.000" height="400.000" viewBox="0.0 0.0 400.000 400.000" version="1.1">
  <title>Produce by Acme CAD Converter</title>
  <desc>Produce by Acme CAD Converter</desc>
<g id="0" display="visible">
<g><path d="M230.19 278.5L230.19 247.16"
fill="none" stroke="black" stroke-width="3"/>
</g>
<g><path d="M157.73 302.65L157.73 97.35"
fill="none" stroke="black" stroke-width="3"/>
</g>
<g><path d="M302.65 97.35L302.65 302.65"
fill="none" stroke="black" stroke-width="3"/>
</g>
<g><path d="M230.19 338.88L157.73 302.65"
fill="none" stroke="black" stroke-width="3"/>
</g>
<g><path d="M302.65 302.65L157.73 302.65"
fill="none" stroke="black" stroke-width="3"/>
</g>
<g><path d="M230.19 338.88L302.65 302.65"
fill="none" stroke="black" stroke-width="3"/>
</g>
<g><path d="M230.19 338.88L230.19 399.27"
fill="none" stroke="black" stroke-width="3"/>
</g>
<g><path d="M214.21 166.49L240.36 151.4"
fill="none" stroke="black" stroke-width="3"/>
</g>
<g><path d="M212.08 157.96L213.87 150.1M213.87 150.1L218.9 143.8M218.9 143.8L226.16 140.3M226.16 140.3L234.22 140.3M234.22 140.3L241.49 143.8M241.49 143.8L246.51 150.1M246.51 150.1L248.31 157.96M248.31 157.96L246.51 165.82M246.51 165.82L241.49 172.12M241.49 172.12L234.22 175.62M234.22 175.62L226.16 175.62M226.16 175.62L218.9 172.12M218.9 172.12L213.87 165.82M213.87 165.82L212.08 157.96"
fill="none" stroke="black" stroke-width="3"/>
</g>
<g><path d="M230.19 61.12L157.73 97.35"
fill="none" stroke="black" stroke-width="3"/>
</g>
<g><path d="M157.73 97.35L302.65 97.35"
fill="none" stroke="black" stroke-width="3"/>
</g>
<g><path d="M157.73 133.58L97.35 133.58"
fill="none" stroke="black" stroke-width="3"/>
</g>
<g><path d="M230.19 205.32L230.19 176.08"
fill="none" stroke="black" stroke-width="3"/>
</g>
<g><path d="M242.27 247.16L230.19 226.24"
fill="none" stroke="black" stroke-width="3"/>
</g>
<g><path d="M242.27 247.16L218.12 247.16"
fill="none" stroke="black" stroke-width="3"/>
</g>
<g><path d="M218.12 247.16L230.19 226.24"
fill="none" stroke="black" stroke-width="3"/>
</g>
<g><path d="M242.27 205.32L230.19 226.24"
fill="none" stroke="black" stroke-width="3"/>
</g>
<g><path d="M218.12 205.32L230.19 226.24"
fill="none" stroke="black" stroke-width="3"/>
</g>
<g><path d="M242.27 205.32L218.12 205.32"
fill="none" stroke="black" stroke-width="3"/>
</g>
<g><path d="M240.36 151.4L231.6 161.79"
fill="none" stroke="black" stroke-width="3"/>
</g>
<g><path d="M240.36 151.4L226.98 153.8"
fill="none" stroke="black" stroke-width="3"/>
</g>
<g><path d="M230.19 61.12L230.19 0.73"
fill="none" stroke="black" stroke-width="3"/>
</g>
<g><path d="M230.19 61.12L302.65 97.35"
fill="none" stroke="black" stroke-width="3"/>
</g>
</g>
</svg>
