<?xml version="1.0" standalone="no"?><svg xmlns="http://www.w3.org/2000/svg" width="400.000" height="400.000" viewBox="0.0 0.0 400.000 400.000" version="1.1">
  <title>Produce by Acme CAD Converter</title>
  <desc>Produce by Acme CAD Converter</desc>
<g id="0" display="visible">
<g><path d="M144.21 56.57L255.79 56.57"
fill="none" stroke="black" stroke-width="3"/>
</g>
<g><path d="M144.21 120.33L153.2 132.22M153.2 132.22L164.68 141.74M164.68 141.74L178.03 148.37M178.03 148.37L192.55 151.78M192.55 151.78L207.45 151.78M207.45 151.78L221.97 148.37M221.97 148.37L235.32 141.74M235.32 141.74L246.8 132.22M246.8 132.22L255.79 120.33"
fill="none" stroke="black" stroke-width="3"/>
</g>
<g><path d="M399.27 247.86L0.73 247.86"
fill="none" stroke="black" stroke-width="3"/>
</g>
<g><path d="M399.27 279.74L0.73 279.74"
fill="none" stroke="black" stroke-width="3"/>
</g>
<g><path d="M144.21 120.33L144.21 56.57"
fill="none" stroke="black" stroke-width="3"/>
</g>
<g><path d="M0.73 279.74L0.73 120.33"
fill="none" stroke="black" stroke-width="3"/>
</g>
<g><path d="M50.76 311.55L52.68 300.65M52.68 300.65L58.22 291.06M58.22 291.06L66.7 283.94M66.7 283.94L77.1 280.15M77.1 280.15L88.18 280.15M88.18 280.15L98.58 283.94M98.58 283.94L107.06 291.06M107.06 291.06L112.6 300.65M112.6 300.65L114.52 311.55M114.52 311.55L112.6 322.46M112.6 322.46L107.06 332.05M107.06 332.05L98.58 339.16M98.58 339.16L88.18 342.95M88.18 342.95L77.1 342.95M77.1 342.95L66.7 339.16M66.7 339.16L58.22 332.05M58.22 332.05L52.68 322.46M52.68 322.46L50.76 311.55"
fill="none" stroke="black" stroke-width="3"/>
</g>
<g><path d="M0.73 120.33L144.21 120.33"
fill="none" stroke="black" stroke-width="3"/>
</g>
<g><path d="M255.79 120.33L255.79 56.57"
fill="none" stroke="black" stroke-width="3"/>
</g>
<g><path d="M399.27 120.33L399.27 279.74"
fill="none" stroke="black" stroke-width="3"/>
</g>
<g><path d="M289.88 311.55L291.8 300.65M291.8 300.65L297.34 291.06M297.34 291.06L305.82 283.94M305.82 283.94L316.22 280.15M316.22 280.15L327.3 280.15M327.3 280.15L337.7 283.94M337.7 283.94L346.18 291.06M346.18 291.06L351.72 300.65M351.72 300.65L353.64 311.55M353.64 311.55L351.72 322.46M351.72 322.46L346.18 332.05M346.18 332.05L337.7 339.16M337.7 339.16L327.3 342.95M327.3 342.95L316.22 342.95M316.22 342.95L305.82 339.16M305.82 339.16L297.34 332.05M297.34 332.05L291.8 322.46M291.8 322.46L289.88 311.55"
fill="none" stroke="black" stroke-width="3"/>
</g>
<g><path d="M255.79 120.33L399.27 120.33"
fill="none" stroke="black" stroke-width="3"/>
</g>
</g>
</svg>
