<?xml version="1.0" standalone="no"?><svg xmlns="http://www.w3.org/2000/svg" width="400.000" height="400.000" viewBox="0.0 0.0 400.000 400.000" version="1.1">
  <title>Produce by Acme CAD Converter</title>
  <desc>Produce by Acme CAD Converter</desc>
<g id="0" display="visible">
<g><path d="M351.48 278.08L351.48 399.27"
fill="none" stroke="black" stroke-width="3"/>
</g>
<g><path d="M109.11 278.08L109.11 399.27"
fill="none" stroke="black" stroke-width="3"/>
</g>
<g><path d="M290.89 121.92L351.48 86.93"
fill="none" stroke="black" stroke-width="3"/>
</g>
<g><path d="M290.89 243.1L351.48 278.08"
fill="none" stroke="black" stroke-width="3"/>
</g>
<g><path d="M109.11 61.33L169.7 61.33"
fill="none" stroke="black" stroke-width="3"/>
</g>
<g><path d="M109.11 182.51L290.89 182.51"
fill="none" stroke="black" stroke-width="3"/>
</g>
<g><path d="M109.11 182.51L109.11 61.33"
fill="none" stroke="black" stroke-width="3"/>
</g>
<g><path d="M109.11 278.08L109.11 86.93"
fill="none" stroke="black" stroke-width="3"/>
</g>
<g><path d="M48.52 243.1L48.52 121.92"
fill="none" stroke="black" stroke-width="3"/>
</g>
<g><path d="M48.52 243.1L109.11 278.08"
fill="none" stroke="black" stroke-width="3"/>
</g>
<g><path d="M48.52 121.92L48.52 0.73"
fill="none" stroke="black" stroke-width="3"/>
</g>
<g><path d="M48.52 121.92L109.11 86.93"
fill="none" stroke="black" stroke-width="3"/>
</g>
<g><path d="M290.89 61.33L290.89 182.51"
fill="none" stroke="black" stroke-width="3"/>
</g>
<g><path d="M290.89 243.1L290.89 121.92"
fill="none" stroke="black" stroke-width="3"/>
</g>
<g><path d="M169.7 79.5L230.3 43.15"
fill="none" stroke="black" stroke-width="3"/>
</g>
<g><path d="M169.7 43.15L230.3 79.5"
fill="none" stroke="black" stroke-width="3"/>
</g>
<g><path d="M169.7 79.5L169.7 43.15"
fill="none" stroke="black" stroke-width="3"/>
</g>
<g><path d="M230.3 79.5L230.3 43.15"
fill="none" stroke="black" stroke-width="3"/>
</g>
<g><path d="M230.3 61.33L290.89 61.33"
fill="none" stroke="black" stroke-width="3"/>
</g>
<g><path d="M351.48 278.08L351.48 86.93"
fill="none" stroke="black" stroke-width="3"/>
</g>
</g>
</svg>
