<?xml version="1.0" standalone="no"?><svg xmlns="http://www.w3.org/2000/svg" width="400.000" height="400.000" viewBox="0.0 0.0 400.000 400.000" version="1.1">
  <title>Produce by Acme CAD Converter</title>
  <desc>Produce by Acme CAD Converter</desc>
<g id="0" display="visible">
<g><path d="M399.27 349.45L0.73 349.45"
fill="none" stroke="black" stroke-width="3"/>
</g>
<g><path d="M0.73 150.18L399.27 150.18"
fill="none" stroke="black" stroke-width="3"/>
</g>
<g><path d="M0.73 349.45L0.73 150.18"
fill="none" stroke="black" stroke-width="3"/>
</g>
<g><path d="M60.51 150.18L60.51 50.55"
fill="none" stroke="black" stroke-width="3"/>
</g>
<g><path d="M140.19 255.26L142.07 240.39M142.07 240.39L147.58 226.46M147.58 226.46L156.39 214.34M156.39 214.34L167.94 204.78M167.94 204.78L181.49 198.4M181.49 198.4L196.21 195.6M196.21 195.6L211.17 196.54M211.17 196.54L225.42 201.17M225.42 201.17L238.07 209.2M238.07 209.2L248.33 220.12M248.33 220.12L255.55 233.25M255.55 233.25L259.28 247.77M259.28 247.77L259.28 262.75M259.28 262.75L255.55 277.27M255.55 277.27L248.33 290.4M248.33 290.4L238.07 301.32M238.07 301.32L225.42 309.35M225.42 309.35L211.17 313.98M211.17 313.98L196.21 314.92M196.21 314.92L181.49 312.11M181.49 312.11L167.94 305.73M167.94 305.73L156.39 296.18M156.39 296.18L147.58 284.06M147.58 284.06L142.07 270.13M142.07 270.13L140.19 255.26"
fill="none" stroke="black" stroke-width="3"/>
</g>
<g><path d="M399.27 150.18L399.27 349.45"
fill="none" stroke="black" stroke-width="3"/>
</g>
<g><path d="M200 50.55L299.63 50.55"
fill="none" stroke="black" stroke-width="3"/>
</g>
<g><path d="M200 150.18L200 50.55"
fill="none" stroke="black" stroke-width="3"/>
</g>
</g>
</svg>
