<?xml version="1.0" standalone="no"?><svg xmlns="http://www.w3.org/2000/svg" width="400.000" height="400.000" viewBox="0.0 0.0 400.000 400.000" version="1.1">
  <title>Produce by Acme CAD Converter</title>
  <desc>Produce by Acme CAD Converter</desc>
<g id="0" display="visible">
<g><path d="M37.57 19.15L37.57 130.44"
fill="none" stroke="black" stroke-width="9"/>
</g>
<g><path d="M13.83 179.91L0.73 130.44"
fill="none" stroke="black" stroke-width="9"/>
</g>
<g><path d="M19.15 200L13.83 179.91"
fill="none" stroke="black" stroke-width="9"/>
</g>
<g><path d="M27.19 130.34L47.28 130.34"
fill="none" stroke="black" stroke-width="9"/>
</g>
<g><path d="M37.57 300.47L128.77 300.47"
fill="none" stroke="black" stroke-width="9"/>
</g>
<g><path d="M178.23 276.73L128.77 263.63"
fill="none" stroke="black" stroke-width="9"/>
</g>
<g><path d="M198.33 282.05L178.23 276.73"
fill="none" stroke="black" stroke-width="9"/>
</g>
<g><path d="M128.67 290.09L128.67 310.18"
fill="none" stroke="black" stroke-width="9"/>
</g>
<g><path d="M359.08 250.24L359.08 350.71"
fill="none" stroke="black" stroke-width="9"/>
</g>
<g><path d="M379.17 270.33L379.17 330.61"
fill="none" stroke="black" stroke-width="9"/>
</g>
<g><path d="M399.27 290.42L399.27 310.52"
fill="none" stroke="black" stroke-width="9"/>
</g>
<g><path d="M318.89 300.47L359.08 300.47"
fill="none" stroke="black" stroke-width="9"/>
</g>
<g><path d="M37.57 99.53L128.77 99.53"
fill="none" stroke="black" stroke-width="9"/>
</g>
<g><path d="M178.23 75.79L128.77 62.69"
fill="none" stroke="black" stroke-width="9"/>
</g>
<g><path d="M198.33 81.11L178.23 75.79"
fill="none" stroke="black" stroke-width="9"/>
</g>
<g><path d="M128.67 89.15L128.67 109.24"
fill="none" stroke="black" stroke-width="9"/>
</g>
<g><path d="M359.08 49.29L359.08 149.76"
fill="none" stroke="black" stroke-width="9"/>
</g>
<g><path d="M379.17 69.39L379.17 129.67"
fill="none" stroke="black" stroke-width="9"/>
</g>
<g><path d="M399.27 89.48L399.27 109.58"
fill="none" stroke="black" stroke-width="9"/>
</g>
<g><path d="M318.89 99.53L359.08 99.53"
fill="none" stroke="black" stroke-width="9"/>
</g>
<g><path d="M37.57 380.85L37.57 269.56"
fill="none" stroke="black" stroke-width="9"/>
</g>
<g><path d="M37.57 269.56L19.15 200"
fill="none" stroke="black" stroke-width="9"/>
</g>
<g><path d="M359.08 300.47L260.15 300.47"
fill="none" stroke="black" stroke-width="9"/>
</g>
<g><path d="M260.15 300.47L198.33 282.05"
fill="none" stroke="black" stroke-width="9"/>
</g>
<g><path d="M359.08 99.53L260.15 99.53"
fill="none" stroke="black" stroke-width="9"/>
</g>
<g><path d="M260.15 99.53L198.33 81.11"
fill="none" stroke="black" stroke-width="9"/>
</g>
<g><path d="M198.33 282.05L198.33 220.09"
fill="none" stroke="black" stroke-width="9"/>
</g>
<g><path d="M198.33 220.09L25.52 220.09"
fill="none" stroke="black" stroke-width="9"/>
</g>
<g><path d="M198.33 83.45L198.33 179.91"
fill="none" stroke="black" stroke-width="9"/>
</g>
<g><path d="M198.33 179.91L13.46 179.91"
fill="none" stroke="black" stroke-width="9"/>
</g>
</g>
</svg>
