<?xml version="1.0" standalone="no"?><svg xmlns="http://www.w3.org/2000/svg" width="400.000" height="400.000" viewBox="0.0 0.0 400.000 400.000" version="1.1">
  <title>Produce by Acme CAD Converter</title>
  <desc>Produce by Acme CAD Converter</desc>
<g id="0" display="visible">
<g><path d="M388.85 5.94L388.85 125.36"
fill="none" stroke="black" stroke-width="9"/>
</g>
<g><path d="M363.37 178.44L349.32 125.36"
fill="none" stroke="black" stroke-width="9"/>
</g>
<g><path d="M369.08 200L363.37 178.44"
fill="none" stroke="black" stroke-width="9"/>
</g>
<g><path d="M377.7 125.25L399.27 125.25"
fill="none" stroke="black" stroke-width="9"/>
</g>
<g><path d="M388.85 307.81L290.99 307.81"
fill="none" stroke="black" stroke-width="9"/>
</g>
<g><path d="M237.91 282.33L290.99 268.28"
fill="none" stroke="black" stroke-width="9"/>
</g>
<g><path d="M216.35 288.04L237.91 282.33"
fill="none" stroke="black" stroke-width="9"/>
</g>
<g><path d="M291.1 296.67L291.1 318.23"
fill="none" stroke="black" stroke-width="9"/>
</g>
<g><path d="M43.86 253.9L43.86 361.71"
fill="none" stroke="black" stroke-width="9"/>
</g>
<g><path d="M22.3 275.47L22.3 340.15"
fill="none" stroke="black" stroke-width="9"/>
</g>
<g><path d="M0.73 297.03L0.73 318.59"
fill="none" stroke="black" stroke-width="9"/>
</g>
<g><path d="M86.98 307.81L43.86 307.81"
fill="none" stroke="black" stroke-width="9"/>
</g>
<g><path d="M388.85 394.06L388.85 274.64"
fill="none" stroke="black" stroke-width="9"/>
</g>
<g><path d="M388.85 274.64L369.08 200"
fill="none" stroke="black" stroke-width="9"/>
</g>
<g><path d="M43.86 307.81L150.01 307.81"
fill="none" stroke="black" stroke-width="9"/>
</g>
<g><path d="M150.01 307.81L216.35 288.04"
fill="none" stroke="black" stroke-width="9"/>
</g>
<g><path d="M216.35 288.04L216.35 200"
fill="none" stroke="black" stroke-width="9"/>
</g>
<g><path d="M216.35 200L369.08 200"
fill="none" stroke="black" stroke-width="9"/>
</g>
</g>
</svg>
