<?xml version="1.0" standalone="no"?><svg xmlns="http://www.w3.org/2000/svg" width="400.000" height="400.000" viewBox="0.0 0.0 400.000 400.000" version="1.1">
  <title>Produce by Acme CAD Converter</title>
  <desc>Produce by Acme CAD Converter</desc>
<g id="0" display="visible">
<g><path d="M120.29 30.62L279.71 30.62"
fill="none" stroke="black" stroke-width="12"/>
</g>
<g><path d="M120.29 30.62L120.29 83.76"
fill="none" stroke="black" stroke-width="12"/>
</g>
<g><path d="M279.71 30.62L279.71 83.76"
fill="none" stroke="black" stroke-width="12"/>
</g>
<g><path d="M200 70.48L200 30.62"
fill="none" stroke="black" stroke-width="12"/>
</g>
<g><path d="M200 136.9L200 110.33"
fill="none" stroke="black" stroke-width="12"/>
</g>
<g><path d="M200 229.89L200 203.32"
fill="none" stroke="black" stroke-width="12"/>
</g>
<g><path d="M200 303.49L200 269.74"
fill="none" stroke="black" stroke-width="12"/>
</g>
<g><path d="M200 203.32L120.29 170.11"
fill="none" stroke="black" stroke-width="12"/>
</g>
<g><path d="M200 136.9L120.29 170.11"
fill="none" stroke="black" stroke-width="12"/>
</g>
<g><path d="M259.78 349.45L261.75 340.8M261.75 340.8L267.28 333.87M267.28 333.87L275.27 330.02M275.27 330.02L284.14 330.02M284.14 330.02L292.13 333.87M292.13 333.87L297.66 340.8M297.66 340.8L299.63 349.45M299.63 349.45L297.66 358.1M297.66 358.1L292.13 365.03M292.13 365.03L284.14 368.88M284.14 368.88L275.27 368.88M275.27 368.88L267.28 365.03M267.28 365.03L261.75 358.1M261.75 358.1L259.78 349.45"
fill="none" stroke="black" stroke-width="12"/>
</g>
<g><path d="M120.29 349.45L0.73 349.45"
fill="none" stroke="black" stroke-width="12"/>
</g>
<g><path d="M399.27 349.45L299.63 349.45"
fill="none" stroke="black" stroke-width="12"/>
</g>
<g><path d="M120.29 349.45L279.71 257.52"
fill="none" stroke="black" stroke-width="12"/>
</g>
<g><path d="M0.73 349.45L0.73 349.45"
fill="none" stroke="black" stroke-width=".5"/>
</g>
<g><path d="M399.27 349.45L399.27 349.45"
fill="none" stroke="black" stroke-width=".5"/>
</g>
</g>
</svg>
