<?xml version="1.0" standalone="no"?><svg xmlns="http://www.w3.org/2000/svg" width="400.000" height="400.000" viewBox="0.0 0.0 400.000 400.000" version="1.1">
  <title>Produce by Acme CAD Converter</title>
  <desc>Produce by Acme CAD Converter</desc>
<g id="0" display="visible">
<g><path d="M120.29 20.66L279.71 20.66"
fill="none" stroke="black" stroke-width="12"/>
</g>
<g><path d="M120.29 20.66L120.29 73.8"
fill="none" stroke="black" stroke-width="12"/>
</g>
<g><path d="M279.71 20.66L279.71 73.8"
fill="none" stroke="black" stroke-width="12"/>
</g>
<g><path d="M200 279.18L200 259.78"
fill="none" stroke="black" stroke-width="12"/>
</g>
<g><path d="M200 219.93L200 193.36"
fill="none" stroke="black" stroke-width="12"/>
</g>
<g><path d="M200 126.94L200 100.37"
fill="none" stroke="black" stroke-width="12"/>
</g>
<g><path d="M200 60.51L200 20.66"
fill="none" stroke="black" stroke-width="12"/>
</g>
<g><path d="M200 126.94L120.29 160.15"
fill="none" stroke="black" stroke-width="12"/>
</g>
<g><path d="M200 193.36L120.29 160.15"
fill="none" stroke="black" stroke-width="12"/>
</g>
<g><path d="M259.78 359.41L261.75 350.77M261.75 350.77L267.28 343.83M267.28 343.83L275.27 339.99M275.27 339.99L284.14 339.99M284.14 339.99L292.13 343.83M292.13 343.83L297.66 350.77M297.66 350.77L299.63 359.41M299.63 359.41L297.66 368.06M297.66 368.06L292.13 374.99M292.13 374.99L284.14 378.84M284.14 378.84L275.27 378.84M275.27 378.84L267.28 374.99M267.28 374.99L261.75 368.06M261.75 368.06L259.78 359.41"
fill="none" stroke="black" stroke-width="12"/>
</g>
<g><path d="M120.29 233.21L0.73 233.21"
fill="none" stroke="black" stroke-width="12"/>
</g>
<g><path d="M399.27 233.21L279.71 233.21"
fill="none" stroke="black" stroke-width="12"/>
</g>
<g><path d="M120.29 233.21L306.28 340.55"
fill="none" stroke="black" stroke-width="12"/>
</g>
<g><path d="M279.71 339.49L279.71 233.21"
fill="none" stroke="black" stroke-width="12"/>
</g>
<g><path d="M0.73 233.21L0.73 233.21"
fill="none" stroke="black" stroke-width=".5"/>
</g>
<g><path d="M399.27 233.21L399.27 233.21"
fill="none" stroke="black" stroke-width=".5"/>
</g>
</g>
</svg>
