<?xml version="1.0" standalone="no"?><svg xmlns="http://www.w3.org/2000/svg" width="400.000" height="400.000" viewBox="0.0 0.0 400.000 400.000" version="1.1">
  <title>Produce by Acme CAD Converter</title>
  <desc>Produce by Acme CAD Converter</desc>
<g id="0" display="visible">
<g><path d="M133.58 0.73L266.42 0.73"
fill="none" stroke="black" stroke-width="12"/>
</g>
<g><path d="M133.58 0.73L133.58 45.01"
fill="none" stroke="black" stroke-width="12"/>
</g>
<g><path d="M266.42 0.73L266.42 45.01"
fill="none" stroke="black" stroke-width="12"/>
</g>
<g><path d="M200 33.94L200 0.73"
fill="none" stroke="black" stroke-width="12"/>
</g>
<g><path d="M200 89.3L200 67.16"
fill="none" stroke="black" stroke-width="12"/>
</g>
<g><path d="M200 166.79L200 144.65"
fill="none" stroke="black" stroke-width="12"/>
</g>
<g><path d="M200 266.42L200 200"
fill="none" stroke="black" stroke-width="12"/>
</g>
<g><path d="M200 144.65L133.58 116.97"
fill="none" stroke="black" stroke-width="12"/>
</g>
<g><path d="M200 89.3L133.58 116.97"
fill="none" stroke="black" stroke-width="12"/>
</g>
<g><path d="M133.58 399.27L266.42 399.27"
fill="none" stroke="black" stroke-width="12"/>
</g>
<g><path d="M133.58 399.27L133.58 354.99"
fill="none" stroke="black" stroke-width="12"/>
</g>
<g><path d="M266.42 399.27L266.42 354.99"
fill="none" stroke="black" stroke-width="12"/>
</g>
<g><path d="M200 399.27L200 366.06"
fill="none" stroke="black" stroke-width="12"/>
</g>
<g><path d="M200 332.84L200 299.63"
fill="none" stroke="black" stroke-width="12"/>
</g>
<g><path d="M249.82 266.42L251.72 258.71M251.72 258.71L256.99 252.76M256.99 252.76L264.42 249.94M264.42 249.94L272.31 250.9M272.31 250.9L278.85 255.41M278.85 255.41L282.55 262.45M282.55 262.45L282.55 270.4M282.55 270.4L278.85 277.43M278.85 277.43L272.31 281.95M272.31 281.95L264.42 282.91M264.42 282.91L256.99 280.09M256.99 280.09L251.72 274.14M251.72 274.14L249.82 266.42"
fill="none" stroke="black" stroke-width="12"/>
</g>
<g><path d="M133.58 266.42L33.94 266.42"
fill="none" stroke="black" stroke-width="12"/>
</g>
<g><path d="M366.06 266.42L283.03 266.42"
fill="none" stroke="black" stroke-width="12"/>
</g>
<g><path d="M133.58 266.42L266.42 189.82"
fill="none" stroke="black" stroke-width="12"/>
</g>
<g><path d="M33.94 266.42L33.94 266.42"
fill="none" stroke="black" stroke-width=".5"/>
</g>
<g><path d="M366.06 266.42L366.06 266.42"
fill="none" stroke="black" stroke-width=".5"/>
</g>
</g>
</svg>
