<?xml version="1.0" standalone="no"?><svg xmlns="http://www.w3.org/2000/svg" width="400.000" height="400.000" viewBox="0.0 0.0 400.000 400.000" version="1.1">
  <title>Produce by Acme CAD Converter</title>
  <desc>Produce by Acme CAD Converter</desc>
<g id="0" display="visible">
<g><path d="M180.07 93.72L182.05 85.08M182.05 85.08L187.58 78.15M187.58 78.15L195.57 74.3M195.57 74.3L204.43 74.3M204.43 74.3L212.42 78.15M212.42 78.15L217.95 85.08M217.95 85.08L219.93 93.72M219.93 93.72L217.95 102.37M217.95 102.37L212.42 109.3M212.42 109.3L204.43 113.15M204.43 113.15L195.57 113.15M195.57 113.15L187.58 109.3M187.58 109.3L182.05 102.37M182.05 102.37L180.07 93.72"
fill="none" stroke="black" stroke-width="12"/>
</g>
<g><path d="M200 113.65L200 153.5"
fill="none" stroke="black" stroke-width="12"/>
</g>
<g><path d="M200 180.07L200 219.93"
fill="none" stroke="black" stroke-width="12"/>
</g>
<g><path d="M200 246.5L200 280.24"
fill="none" stroke="black" stroke-width="12"/>
</g>
<g><path d="M120.29 326.2L0.73 326.2"
fill="none" stroke="black" stroke-width="12"/>
</g>
<g><path d="M399.27 326.2L279.71 326.2"
fill="none" stroke="black" stroke-width="12"/>
</g>
<g><path d="M120.29 326.2L279.71 234.27"
fill="none" stroke="black" stroke-width="12"/>
</g>
<g><path d="M0.73 326.2L0.73 326.2"
fill="none" stroke="black" stroke-width=".5"/>
</g>
<g><path d="M399.27 326.2L399.27 326.2"
fill="none" stroke="black" stroke-width=".5"/>
</g>
</g>
</svg>
