<?xml version="1.0" standalone="no"?><svg xmlns="http://www.w3.org/2000/svg" width="400.000" height="400.000" viewBox="0.0 0.0 400.000 400.000" version="1.1">
  <title>Produce by Acme CAD Converter</title>
  <desc>Produce by Acme CAD Converter</desc>
<g id="0" display="visible">
<g><path d="M180.07 79.91L182.05 71.26M182.05 71.26L187.58 64.33M187.58 64.33L195.57 60.48M195.57 60.48L204.43 60.48M204.43 60.48L212.42 64.33M212.42 64.33L217.95 71.26M217.95 71.26L219.93 79.91M219.93 79.91L217.95 88.55M217.95 88.55L212.42 95.49M212.42 95.49L204.43 99.34M204.43 99.34L195.57 99.34M195.57 99.34L187.58 95.49M187.58 95.49L182.05 88.55M182.05 88.55L180.07 79.91"
fill="none" stroke="black" stroke-width="12"/>
</g>
<g><path d="M200 99.84L200 139.69"
fill="none" stroke="black" stroke-width="12"/>
</g>
<g><path d="M200 179.54L200 219.4"
fill="none" stroke="black" stroke-width="12"/>
</g>
<g><path d="M200 259.25L200 278.64"
fill="none" stroke="black" stroke-width="12"/>
</g>
<g><path d="M120.29 232.68L0.73 232.68"
fill="none" stroke="black" stroke-width="12"/>
</g>
<g><path d="M399.27 232.68L279.71 232.68"
fill="none" stroke="black" stroke-width="12"/>
</g>
<g><path d="M120.29 232.68L306.28 340.02"
fill="none" stroke="black" stroke-width="12"/>
</g>
<g><path d="M279.71 338.96L279.71 232.68"
fill="none" stroke="black" stroke-width="12"/>
</g>
<g><path d="M0.73 232.68L0.73 232.68"
fill="none" stroke="black" stroke-width=".5"/>
</g>
<g><path d="M399.27 232.68L399.27 232.68"
fill="none" stroke="black" stroke-width=".5"/>
</g>
</g>
</svg>
