<?xml version="1.0" standalone="no"?><svg xmlns="http://www.w3.org/2000/svg" width="400.000" height="400.000" viewBox="0.0 0.0 400.000 400.000" version="1.1">
  <title>Produce by Acme CAD Converter</title>
  <desc>Produce by Acme CAD Converter</desc>
<g id="0" display="visible">
<g><path d="M180.07 80.44L182.05 71.79M182.05 71.79L187.58 64.86M187.58 64.86L195.57 61.01M195.57 61.01L204.43 61.01M204.43 61.01L212.42 64.86M212.42 64.86L217.95 71.79M217.95 71.79L219.93 80.44M219.93 80.44L217.95 89.09M217.95 89.09L212.42 96.02M212.42 96.02L204.43 99.87M204.43 99.87L195.57 99.87M195.57 99.87L187.58 96.02M187.58 96.02L182.05 89.09M182.05 89.09L180.07 80.44"
fill="none" stroke="black" stroke-width="12"/>
</g>
<g><path d="M200 100.37L200 140.22"
fill="none" stroke="black" stroke-width="12"/>
</g>
<g><path d="M200 180.07L200 219.93"
fill="none" stroke="black" stroke-width="12"/>
</g>
<g><path d="M200 259.78L200 293.52"
fill="none" stroke="black" stroke-width="12"/>
</g>
<g><path d="M120.29 339.49L0.73 339.49"
fill="none" stroke="black" stroke-width="12"/>
</g>
<g><path d="M399.27 339.49L279.71 339.49"
fill="none" stroke="black" stroke-width="12"/>
</g>
<g><path d="M120.29 339.49L306.28 232.15"
fill="none" stroke="black" stroke-width="12"/>
</g>
<g><path d="M279.71 286.35L279.71 180.07"
fill="none" stroke="black" stroke-width="12"/>
</g>
<g><path d="M279.71 180.07L399.27 180.07"
fill="none" stroke="black" stroke-width="12"/>
</g>
<g><path d="M0.73 339.49L0.73 339.49"
fill="none" stroke="black" stroke-width=".5"/>
</g>
<g><path d="M399.27 339.49L399.27 339.49"
fill="none" stroke="black" stroke-width=".5"/>
</g>
<g><path d="M399.27 180.07L399.27 180.07"
fill="none" stroke="black" stroke-width=".5"/>
</g>
</g>
</svg>
