<?xml version="1.0" standalone="no"?><svg xmlns="http://www.w3.org/2000/svg" width="400.000" height="400.000" viewBox="0.0 0.0 400.000 400.000" version="1.1">
  <title>Produce by Acme CAD Converter</title>
  <desc>Produce by Acme CAD Converter</desc>
<g id="0" display="visible">
<g><path d="M120.29 97.05L279.71 97.05"
fill="none" stroke="black" stroke-width="12"/>
</g>
<g><path d="M259.78 283.03L261.75 274.38M261.75 274.38L267.28 267.45M267.28 267.45L275.27 263.6M275.27 263.6L284.14 263.6M284.14 263.6L292.13 267.45M292.13 267.45L297.66 274.38M297.66 274.38L299.63 283.03M299.63 283.03L297.66 291.67M297.66 291.67L292.13 298.61M292.13 298.61L284.14 302.45M284.14 302.45L275.27 302.45M275.27 302.45L267.28 298.61M267.28 298.61L261.75 291.67M261.75 291.67L259.78 283.03"
fill="none" stroke="black" stroke-width="12"/>
</g>
<g><path d="M180.07 248.49L180.07 97.05"
fill="none" stroke="black" stroke-width="12"/>
</g>
<g><path d="M219.93 225.64L219.93 97.05"
fill="none" stroke="black" stroke-width="12"/>
</g>
<g><path d="M120.29 283.03L0.73 283.03"
fill="none" stroke="black" stroke-width="12"/>
</g>
<g><path d="M399.27 283.03L299.63 283.03"
fill="none" stroke="black" stroke-width="12"/>
</g>
<g><path d="M120.29 283.03L279.71 191.1"
fill="none" stroke="black" stroke-width="12"/>
</g>
<g><path d="M0.73 283.03L0.73 283.03"
fill="none" stroke="black" stroke-width=".5"/>
</g>
<g><path d="M399.27 283.03L399.27 283.03"
fill="none" stroke="black" stroke-width=".5"/>
</g>
</g>
</svg>
