<?xml version="1.0" standalone="no"?><svg xmlns="http://www.w3.org/2000/svg" width="400.000" height="400.000" viewBox="0.0 0.0 400.000 400.000" version="1.1">
  <title>Produce by Acme CAD Converter</title>
  <desc>Produce by Acme CAD Converter</desc>
<g id="0" display="visible">
<g><path d="M120.29 70.48L279.71 70.48"
fill="none" stroke="black" stroke-width="12"/>
</g>
<g><path d="M100.37 309.6L102.34 300.95M102.34 300.95L107.87 294.02M107.87 294.02L115.86 290.17M115.86 290.17L124.73 290.17M124.73 290.17L132.72 294.02M132.72 294.02L138.25 300.95M138.25 300.95L140.22 309.6M140.22 309.6L138.25 318.24M138.25 318.24L132.72 325.18M132.72 325.18L124.73 329.02M124.73 329.02L115.86 329.02M115.86 329.02L107.87 325.18M107.87 325.18L102.34 318.24M102.34 318.24L100.37 309.6"
fill="none" stroke="black" stroke-width="12"/>
</g>
<g><path d="M100.37 243.17L102.34 234.53M102.34 234.53L107.87 227.6M107.87 227.6L115.86 223.75M115.86 223.75L124.73 223.75M124.73 223.75L132.72 227.6M132.72 227.6L138.25 234.53M138.25 234.53L140.22 243.17M140.22 243.17L138.25 251.82M138.25 251.82L132.72 258.75M132.72 258.75L124.73 262.6M124.73 262.6L115.86 262.6M115.86 262.6L107.87 258.75M107.87 258.75L102.34 251.82M102.34 251.82L100.37 243.17"
fill="none" stroke="black" stroke-width="12"/>
</g>
<g><path d="M180.07 252.21L180.07 70.48"
fill="none" stroke="black" stroke-width="12"/>
</g>
<g><path d="M219.93 275.06L219.93 70.48"
fill="none" stroke="black" stroke-width="12"/>
</g>
<g><path d="M399.27 309.6L279.71 309.6"
fill="none" stroke="black" stroke-width="12"/>
</g>
<g><path d="M100.37 309.6L0.73 309.6"
fill="none" stroke="black" stroke-width="12"/>
</g>
<g><path d="M93.72 202.26L279.71 309.6"
fill="none" stroke="black" stroke-width="12"/>
</g>
<g><path d="M120.29 223.25L120.29 150.18"
fill="none" stroke="black" stroke-width="12"/>
</g>
<g><path d="M120.29 150.18L0.73 150.18"
fill="none" stroke="black" stroke-width="12"/>
</g>
<g><path d="M0.73 309.6L0.73 309.6"
fill="none" stroke="black" stroke-width=".5"/>
</g>
<g><path d="M399.27 309.6L399.27 309.6"
fill="none" stroke="black" stroke-width=".5"/>
</g>
<g><path d="M0.73 150.18L0.73 150.18"
fill="none" stroke="black" stroke-width=".5"/>
</g>
</g>
</svg>
