<?xml version="1.0" standalone="no"?><svg xmlns="http://www.w3.org/2000/svg" width="400.000" height="400.000" viewBox="0.0 0.0 400.000 400.000" version="1.1">
  <title>Produce by Acme CAD Converter</title>
  <desc>Produce by Acme CAD Converter</desc>
<g id="0" display="visible">
<g><path d="M120.29 60.51L279.71 60.51"
fill="none" stroke="black" stroke-width="12"/>
</g>
<g><path d="M259.78 319.56L261.75 310.91M261.75 310.91L267.28 303.98M267.28 303.98L275.27 300.13M275.27 300.13L284.14 300.13M284.14 300.13L292.13 303.98M292.13 303.98L297.66 310.91M297.66 310.91L299.63 319.56M299.63 319.56L297.66 328.21M297.66 328.21L292.13 335.14M292.13 335.14L284.14 338.99M284.14 338.99L275.27 338.99M275.27 338.99L267.28 335.14M267.28 335.14L261.75 328.21M261.75 328.21L259.78 319.56"
fill="none" stroke="black" stroke-width="12"/>
</g>
<g><path d="M180.07 227.9L180.07 60.51"
fill="none" stroke="black" stroke-width="12"/>
</g>
<g><path d="M219.93 250.75L219.93 60.51"
fill="none" stroke="black" stroke-width="12"/>
</g>
<g><path d="M120.29 193.36L0.73 193.36"
fill="none" stroke="black" stroke-width="12"/>
</g>
<g><path d="M399.27 193.36L279.71 193.36"
fill="none" stroke="black" stroke-width="12"/>
</g>
<g><path d="M120.29 193.36L306.28 300.7"
fill="none" stroke="black" stroke-width="12"/>
</g>
<g><path d="M279.71 299.63L279.71 193.36"
fill="none" stroke="black" stroke-width="12"/>
</g>
<g><path d="M0.73 193.36L0.73 193.36"
fill="none" stroke="black" stroke-width=".5"/>
</g>
<g><path d="M399.27 193.36L399.27 193.36"
fill="none" stroke="black" stroke-width=".5"/>
</g>
</g>
</svg>
