<?xml version="1.0" standalone="no"?><svg xmlns="http://www.w3.org/2000/svg" width="400.000" height="400.000" viewBox="0.0 0.0 400.000 400.000" version="1.1">
  <title>Produce by Acme CAD Converter</title>
  <desc>Produce by Acme CAD Converter</desc>
<g id="0" display="visible">
<g><path d="M399.27 120.29L239.85 120.29"
fill="none" stroke="black" stroke-width="12"/>
</g>
<g><path d="M239.85 279.71L399.27 279.71"
fill="none" stroke="black" stroke-width="12"/>
</g>
<g><path d="M266.42 200L126.94 200"
fill="none" stroke="black" stroke-width="12"/>
</g>
<g><path d="M87.08 200L89.06 191.35M89.06 191.35L94.58 184.42M94.58 184.42L102.57 180.57M102.57 180.57L111.44 180.57M111.44 180.57L119.43 184.42M119.43 184.42L124.96 191.35M124.96 191.35L126.94 200M126.94 200L124.96 208.65M124.96 208.65L119.43 215.58M119.43 215.58L111.44 219.43M111.44 219.43L102.57 219.43M102.57 219.43L94.58 215.58M94.58 215.58L89.06 208.65M89.06 208.65L87.08 200"
fill="none" stroke="black" stroke-width="12"/>
</g>
<g><path d="M87.08 200L0.73 200"
fill="none" stroke="black" stroke-width="12"/>
</g>
<g><path d="M0.73 200L0.73 200"
fill="none" stroke="black" stroke-width=".5"/>
</g>
<g><path d="M399.27 120.29L399.27 120.29"
fill="none" stroke="black" stroke-width=".5"/>
</g>
<g><path d="M399.27 279.71L399.27 279.71"
fill="none" stroke="black" stroke-width=".5"/>
</g>
</g>
</svg>
