<?xml version="1.0" standalone="no"?><svg xmlns="http://www.w3.org/2000/svg" width="400.000" height="400.000" viewBox="0.0 0.0 400.000 400.000" version="1.1">
  <title>Produce by Acme CAD Converter</title>
  <desc>Produce by Acme CAD Converter</desc>
<g id="0" display="visible">
<g><path d="M133.58 67.16L111.71 68.97M111.71 68.97L90.44 74.35M90.44 74.35L70.35 83.17M70.35 83.17L51.98 95.17M51.98 95.17L35.84 110.03M35.84 110.03L22.36 127.34M22.36 127.34L11.92 146.64M11.92 146.64L4.8 167.39M4.8 167.39L1.19 189.03M1.19 189.03L1.19 210.97M1.19 210.97L4.8 232.61M4.8 232.61L11.92 253.36M11.92 253.36L22.36 272.66M22.36 272.66L35.84 289.97M35.84 289.97L51.98 304.83M51.98 304.83L70.35 316.83M70.35 316.83L90.44 325.65M90.44 325.65L111.71 331.03M111.71 331.03L133.58 332.84"
fill="none" stroke="black" stroke-width="12"/>
</g>
<g><path d="M266.42 332.84L288.29 331.03M288.29 331.03L309.56 325.65M309.56 325.65L329.65 316.83M329.65 316.83L348.02 304.83M348.02 304.83L364.16 289.97M364.16 289.97L377.64 272.66M377.64 272.66L388.08 253.36M388.08 253.36L395.2 232.61M395.2 232.61L398.81 210.97M398.81 210.97L398.81 189.03M398.81 189.03L395.2 167.39M395.2 167.39L388.08 146.64M388.08 146.64L377.64 127.34M377.64 127.34L364.16 110.03M364.16 110.03L348.02 95.17M348.02 95.17L329.65 83.17M329.65 83.17L309.56 74.35M309.56 74.35L288.29 68.97M288.29 68.97L266.42 67.16"
fill="none" stroke="black" stroke-width="12"/>
</g>
<g><path d="M133.58 332.84L266.42 332.84"
fill="none" stroke="black" stroke-width="12"/>
</g>
<g><path d="M133.58 67.16L266.42 67.16"
fill="none" stroke="black" stroke-width="12"/>
</g>
<g><path d="M120.29 266.42L0.73 266.42"
fill="none" stroke="black" stroke-width="12"/>
</g>
<g><path d="M399.27 266.42L279.71 266.42"
fill="none" stroke="black" stroke-width="12"/>
</g>
<g><path d="M120.29 266.42L306.28 159.08"
fill="none" stroke="black" stroke-width="12"/>
</g>
<g><path d="M279.71 213.28L279.71 107.01"
fill="none" stroke="black" stroke-width="12"/>
</g>
<g><path d="M279.71 107.01L399.27 107.01"
fill="none" stroke="black" stroke-width="12"/>
</g>
<g><path d="M0.73 266.42L0.73 266.42"
fill="none" stroke="black" stroke-width=".5"/>
</g>
<g><path d="M399.27 266.42L399.27 266.42"
fill="none" stroke="black" stroke-width=".5"/>
</g>
<g><path d="M399.27 107.01L399.27 107.01"
fill="none" stroke="black" stroke-width=".5"/>
</g>
</g>
</svg>
