<?xml version="1.0" standalone="no"?><svg xmlns="http://www.w3.org/2000/svg" width="400.000" height="400.000" viewBox="0.0 0.0 400.000 400.000" version="1.1">
  <title>Produce by Acme CAD Converter</title>
  <desc>Produce by Acme CAD Converter</desc>
<g id="0" display="visible">
<g><path d="M173.43 209.83L146.86 163.87"
fill="none" stroke="black" stroke-width="12"/>
</g>
<g><path d="M226.57 179.01L200 133.05"
fill="none" stroke="black" stroke-width="12"/>
</g>
<g><path d="M146.86 163.87L200 133.05"
fill="none" stroke="black" stroke-width="12"/>
</g>
<g><path d="M100.37 240.38L0.73 240.38"
fill="none" stroke="black" stroke-width="12"/>
</g>
<g><path d="M399.27 240.38L279.71 240.38"
fill="none" stroke="black" stroke-width="12"/>
</g>
<g><path d="M137.56 230.43L279.71 148.46"
fill="none" stroke="black" stroke-width="12"/>
</g>
<g><path d="M253.14 213.82L306.28 266.95"
fill="none" stroke="black" stroke-width="12"/>
</g>
<g><path d="M306.28 213.82L253.14 266.95"
fill="none" stroke="black" stroke-width="12"/>
</g>
<g><path d="M279.71 240.38L279.71 240.38"
fill="none" stroke="black" stroke-width=".5"/>
</g>
<g><path d="M100.37 240.38L102.34 231.74M102.34 231.74L107.87 224.81M107.87 224.81L115.86 220.96M115.86 220.96L124.73 220.96M124.73 220.96L132.72 224.81M132.72 224.81L138.25 231.74M138.25 231.74L140.22 240.38M140.22 240.38L138.25 249.03M138.25 249.03L132.72 255.96M132.72 255.96L124.73 259.81M124.73 259.81L115.86 259.81M115.86 259.81L107.87 255.96M107.87 255.96L102.34 249.03M102.34 249.03L100.37 240.38"
fill="none" stroke="black" stroke-width="12"/>
</g>
<g><path d="M120.29 240.38L120.29 240.38"
fill="none" stroke="black" stroke-width=".5"/>
</g>
</g>
</svg>
