<?xml version="1.0" standalone="no"?><svg xmlns="http://www.w3.org/2000/svg" width="400.000" height="400.000" viewBox="0.0 0.0 400.000 400.000" version="1.1">
  <title>Produce by Acme CAD Converter</title>
  <desc>Produce by Acme CAD Converter</desc>
<g id="0" display="visible">
<g><path d="M184.08 46.73L168.17 19.2"
fill="none" stroke="black" stroke-width="12"/>
</g>
<g><path d="M215.92 28.27L200 0.73"
fill="none" stroke="black" stroke-width="12"/>
</g>
<g><path d="M168.17 19.2L200 0.73"
fill="none" stroke="black" stroke-width="12"/>
</g>
<g><path d="M140.32 65.03L80.63 65.03"
fill="none" stroke="black" stroke-width="12"/>
</g>
<g><path d="M319.37 65.03L247.75 65.03"
fill="none" stroke="black" stroke-width="12"/>
</g>
<g><path d="M162.59 59.07L247.75 9.96"
fill="none" stroke="black" stroke-width="12"/>
</g>
<g><path d="M140.32 224.19L80.63 224.19"
fill="none" stroke="black" stroke-width="12"/>
</g>
<g><path d="M319.37 224.19L247.75 224.19"
fill="none" stroke="black" stroke-width="12"/>
</g>
<g><path d="M162.59 218.23L247.75 169.12"
fill="none" stroke="black" stroke-width="12"/>
</g>
<g><path d="M140.32 383.35L80.63 383.35"
fill="none" stroke="black" stroke-width="12"/>
</g>
<g><path d="M319.37 383.35L247.75 383.35"
fill="none" stroke="black" stroke-width="12"/>
</g>
<g><path d="M162.59 377.39L247.75 328.28"
fill="none" stroke="black" stroke-width="12"/>
</g>
<g><path d="M215.92 28.27L215.92 346.64"
fill="none" stroke="black" stroke-width="12"/>
</g>
<g><path d="M184.08 46.73L184.08 364.99"
fill="none" stroke="black" stroke-width="12"/>
</g>
<g><path d="M231.83 49.12L263.66 80.95"
fill="none" stroke="black" stroke-width="12"/>
</g>
<g><path d="M263.66 49.12L231.83 80.95"
fill="none" stroke="black" stroke-width="12"/>
</g>
<g><path d="M140.32 65.03L142.21 58.58M142.21 58.58L147.29 54.18M147.29 54.18L153.95 53.22M153.95 53.22L160.07 56.01M160.07 56.01L163.71 61.67M163.71 61.67L163.71 68.4M163.71 68.4L160.07 74.05M160.07 74.05L153.95 76.85M153.95 76.85L147.29 75.89M147.29 75.89L142.21 71.49M142.21 71.49L140.32 65.03"
fill="none" stroke="black" stroke-width="12"/>
</g>
<g><path d="M231.83 208.28L263.66 240.11"
fill="none" stroke="black" stroke-width="12"/>
</g>
<g><path d="M263.66 208.28L231.83 240.11"
fill="none" stroke="black" stroke-width="12"/>
</g>
<g><path d="M140.32 224.19L142.21 217.74M142.21 217.74L147.29 213.33M147.29 213.33L153.95 212.38M153.95 212.38L160.07 215.17M160.07 215.17L163.71 220.83M163.71 220.83L163.71 227.56M163.71 227.56L160.07 233.21M160.07 233.21L153.95 236.01M153.95 236.01L147.29 235.05M147.29 235.05L142.21 230.65M142.21 230.65L140.32 224.19"
fill="none" stroke="black" stroke-width="12"/>
</g>
<g><path d="M231.83 367.43L263.66 399.27"
fill="none" stroke="black" stroke-width="12"/>
</g>
<g><path d="M263.66 367.43L231.83 399.27"
fill="none" stroke="black" stroke-width="12"/>
</g>
<g><path d="M140.32 383.35L142.21 376.9M142.21 376.9L147.29 372.49M147.29 372.49L153.95 371.54M153.95 371.54L160.07 374.33M160.07 374.33L163.71 379.99M163.71 379.99L163.71 386.71M163.71 386.71L160.07 392.37M160.07 392.37L153.95 395.17M153.95 395.17L147.29 394.21M147.29 394.21L142.21 389.8M142.21 389.8L140.32 383.35"
fill="none" stroke="black" stroke-width="12"/>
</g>
</g>
</svg>
