<?xml version="1.0" standalone="no"?><svg xmlns="http://www.w3.org/2000/svg" width="400.000" height="400.000" viewBox="0.0 0.0 400.000 400.000" version="1.1">
  <title>Produce by Acme CAD Converter</title>
  <desc>Produce by Acme CAD Converter</desc>
<g id="0" display="visible">
<g><path d="M133.58 83.76L139.96 98.54M139.96 98.54L149.58 111.44M149.58 111.44L161.91 121.78M161.91 121.78L176.29 129M176.29 129L191.95 132.71M191.95 132.71L208.05 132.71M208.05 132.71L223.71 129M223.71 129L238.09 121.78M238.09 121.78L250.42 111.44M250.42 111.44L260.04 98.54M260.04 98.54L266.42 83.76"
fill="none" stroke="black" stroke-width="12"/>
</g>
<g><path d="M180.07 281.7L180.07 130.26"
fill="none" stroke="black" stroke-width="12"/>
</g>
<g><path d="M219.93 258.85L219.93 130.26"
fill="none" stroke="black" stroke-width="12"/>
</g>
<g><path d="M120.29 316.24L0.73 316.24"
fill="none" stroke="black" stroke-width="12"/>
</g>
<g><path d="M399.27 316.24L279.71 316.24"
fill="none" stroke="black" stroke-width="12"/>
</g>
<g><path d="M120.29 316.24L279.71 224.31"
fill="none" stroke="black" stroke-width="12"/>
</g>
<g><path d="M0.73 316.24L0.73 316.24"
fill="none" stroke="black" stroke-width=".5"/>
</g>
<g><path d="M399.27 316.24L399.27 316.24"
fill="none" stroke="black" stroke-width=".5"/>
</g>
</g>
</svg>
