<?xml version="1.0" standalone="no"?><svg xmlns="http://www.w3.org/2000/svg" width="400.000" height="400.000" viewBox="0.0 0.0 400.000 400.000" version="1.1">
  <title>Produce by Acme CAD Converter</title>
  <desc>Produce by Acme CAD Converter</desc>
<g id="0" display="visible">
<g><path d="M266.42 154.97L260.04 140.19M260.04 140.19L250.42 127.29M250.42 127.29L238.09 116.95M238.09 116.95L223.71 109.73M223.71 109.73L208.05 106.02M208.05 106.02L191.95 106.02M191.95 106.02L176.29 109.73M176.29 109.73L161.91 116.95M161.91 116.95L149.58 127.29M149.58 127.29L139.96 140.19M139.96 140.19L133.58 154.97"
fill="none" stroke="black" stroke-width="12"/>
</g>
<g><path d="M180.07 259.91L180.07 108.47"
fill="none" stroke="black" stroke-width="12"/>
</g>
<g><path d="M219.93 237.06L219.93 108.47"
fill="none" stroke="black" stroke-width="12"/>
</g>
<g><path d="M120.29 294.45L0.73 294.45"
fill="none" stroke="black" stroke-width="12"/>
</g>
<g><path d="M399.27 294.45L279.71 294.45"
fill="none" stroke="black" stroke-width="12"/>
</g>
<g><path d="M120.29 294.45L279.71 202.52"
fill="none" stroke="black" stroke-width="12"/>
</g>
<g><path d="M0.73 294.45L0.73 294.45"
fill="none" stroke="black" stroke-width=".5"/>
</g>
<g><path d="M399.27 294.45L399.27 294.45"
fill="none" stroke="black" stroke-width=".5"/>
</g>
</g>
</svg>
