<?xml version="1.0" standalone="no"?><svg xmlns="http://www.w3.org/2000/svg" width="400.000" height="400.000" viewBox="0.0 0.0 400.000 400.000" version="1.1">
  <title>Produce by Acme CAD Converter</title>
  <desc>Produce by Acme CAD Converter</desc>
<g id="0" display="visible">
<g><path d="M81.69 218.68L73.58 220.53M73.58 220.53L67.08 225.71M67.08 225.71L63.47 233.21M63.47 233.21L63.47 241.52M63.47 241.52L67.08 249.01M67.08 249.01L73.58 254.19M73.58 254.19L81.69 256.04"
fill="none" stroke="black" stroke-width="9"/>
</g>
<g><path d="M81.69 181.32L73.58 183.17M73.58 183.17L67.08 188.35M67.08 188.35L63.47 195.84M63.47 195.84L63.47 204.16M63.47 204.16L67.08 211.65M67.08 211.65L73.58 216.83M73.58 216.83L81.69 218.68"
fill="none" stroke="black" stroke-width="9"/>
</g>
<g><path d="M81.69 143.96L73.58 145.81M73.58 145.81L67.08 150.99M67.08 150.99L63.47 158.48M63.47 158.48L63.47 166.79M63.47 166.79L67.08 174.29M67.08 174.29L73.58 179.47M73.58 179.47L81.69 181.32"
fill="none" stroke="black" stroke-width="9"/>
</g>
<g><path d="M119.05 218.68L110.94 220.53M110.94 220.53L104.44 225.71M104.44 225.71L100.84 233.21M100.84 233.21L100.84 241.52M100.84 241.52L104.44 249.01M104.44 249.01L110.94 254.19M110.94 254.19L119.05 256.04"
fill="none" stroke="black" stroke-width="9"/>
</g>
<g><path d="M119.05 181.32L110.94 183.17M110.94 183.17L104.44 188.35M104.44 188.35L100.84 195.84M100.84 195.84L100.84 204.16M100.84 204.16L104.44 211.65M104.44 211.65L110.94 216.83M110.94 216.83L119.05 218.68"
fill="none" stroke="black" stroke-width="9"/>
</g>
<g><path d="M119.05 143.96L110.94 145.81M110.94 145.81L104.44 150.99M104.44 150.99L100.84 158.48M100.84 158.48L100.84 166.79M100.84 166.79L104.44 174.29M104.44 174.29L110.94 179.47M110.94 179.47L119.05 181.32"
fill="none" stroke="black" stroke-width="9"/>
</g>
<g><path d="M181.32 218.68L173.21 220.53M173.21 220.53L166.71 225.71M166.71 225.71L163.11 233.21M163.11 233.21L163.11 241.52M163.11 241.52L166.71 249.01M166.71 249.01L173.21 254.19M173.21 254.19L181.32 256.04"
fill="none" stroke="black" stroke-width="9"/>
</g>
<g><path d="M181.32 181.32L173.21 183.17M173.21 183.17L166.71 188.35M166.71 188.35L163.11 195.84M163.11 195.84L163.11 204.16M163.11 204.16L166.71 211.65M166.71 211.65L173.21 216.83M173.21 216.83L181.32 218.68"
fill="none" stroke="black" stroke-width="9"/>
</g>
<g><path d="M181.32 143.96L173.21 145.81M173.21 145.81L166.71 150.99M166.71 150.99L163.11 158.48M163.11 158.48L163.11 166.79M163.11 166.79L166.71 174.29M166.71 174.29L173.21 179.47M173.21 179.47L181.32 181.32"
fill="none" stroke="black" stroke-width="9"/>
</g>
<g><path d="M38.1 200L40.09 174.67M40.09 174.67L46.02 149.97M46.02 149.97L55.74 126.5M55.74 126.5L69.02 104.84M69.02 104.84L85.52 85.52M85.52 85.52L104.84 69.02M104.84 69.02L126.5 55.74M126.5 55.74L149.97 46.02M149.97 46.02L174.67 40.09M174.67 40.09L200 38.1M200 38.1L225.33 40.09M225.33 40.09L250.03 46.02M250.03 46.02L273.5 55.74M273.5 55.74L295.16 69.02M295.16 69.02L314.48 85.52M314.48 85.52L330.98 104.84M330.98 104.84L344.26 126.5M344.26 126.5L353.98 149.97M353.98 149.97L359.91 174.67M359.91 174.67L361.9 200M361.9 200L359.91 225.33M359.91 225.33L353.98 250.03M353.98 250.03L344.26 273.5M344.26 273.5L330.98 295.16M330.98 295.16L314.48 314.48M314.48 314.48L295.16 330.98M295.16 330.98L273.5 344.26M273.5 344.26L250.03 353.98M250.03 353.98L225.33 359.91M225.33 359.91L200 361.9M200 361.9L174.67 359.91M174.67 359.91L149.97 353.98M149.97 353.98L126.5 344.26M126.5 344.26L104.84 330.98M104.84 330.98L85.52 314.48M85.52 314.48L69.02 295.16M69.02 295.16L55.74 273.5M55.74 273.5L46.02 250.03M46.02 250.03L40.09 225.33M40.09 225.33L38.1 200"
fill="none" stroke="black" stroke-width="9"/>
</g>
<g><path d="M218.68 218.68L210.58 220.53M210.58 220.53L204.08 225.71M204.08 225.71L200.47 233.21M200.47 233.21L200.47 241.52M200.47 241.52L204.08 249.01M204.08 249.01L210.58 254.19M210.58 254.19L218.68 256.04"
fill="none" stroke="black" stroke-width="9"/>
</g>
<g><path d="M218.68 181.32L210.58 183.17M210.58 183.17L204.08 188.35M204.08 188.35L200.47 195.84M200.47 195.84L200.47 204.16M200.47 204.16L204.08 211.65M204.08 211.65L210.58 216.83M210.58 216.83L218.68 218.68"
fill="none" stroke="black" stroke-width="9"/>
</g>
<g><path d="M218.68 143.96L210.58 145.81M210.58 145.81L204.08 150.99M204.08 150.99L200.47 158.48M200.47 158.48L200.47 166.79M200.47 166.79L204.08 174.29M204.08 174.29L210.58 179.47M210.58 179.47L218.68 181.32"
fill="none" stroke="black" stroke-width="9"/>
</g>
<g><path d="M280.95 218.68L272.85 220.53M272.85 220.53L266.35 225.71M266.35 225.71L262.74 233.21M262.74 233.21L262.74 241.52M262.74 241.52L266.35 249.01M266.35 249.01L272.85 254.19M272.85 254.19L280.95 256.04"
fill="none" stroke="black" stroke-width="9"/>
</g>
<g><path d="M280.95 181.32L272.85 183.17M272.85 183.17L266.35 188.35M266.35 188.35L262.74 195.84M262.74 195.84L262.74 204.16M262.74 204.16L266.35 211.65M266.35 211.65L272.85 216.83M272.85 216.83L280.95 218.68"
fill="none" stroke="black" stroke-width="9"/>
</g>
<g><path d="M280.95 143.96L272.85 145.81M272.85 145.81L266.35 150.99M266.35 150.99L262.74 158.48M262.74 158.48L262.74 166.79M262.74 166.79L266.35 174.29M266.35 174.29L272.85 179.47M272.85 179.47L280.95 181.32"
fill="none" stroke="black" stroke-width="9"/>
</g>
<g><path d="M318.31 218.68L310.21 220.53M310.21 220.53L303.71 225.71M303.71 225.71L300.1 233.21M300.1 233.21L300.1 241.52M300.1 241.52L303.71 249.01M303.71 249.01L310.21 254.19M310.21 254.19L318.31 256.04"
fill="none" stroke="black" stroke-width="9"/>
</g>
<g><path d="M318.31 181.32L310.21 183.17M310.21 183.17L303.71 188.35M303.71 188.35L300.1 195.84M300.1 195.84L300.1 204.16M300.1 204.16L303.71 211.65M303.71 211.65L310.21 216.83M310.21 216.83L318.31 218.68"
fill="none" stroke="black" stroke-width="9"/>
</g>
<g><path d="M318.31 143.96L310.21 145.81M310.21 145.81L303.71 150.99M303.71 150.99L300.1 158.48M300.1 158.48L300.1 166.79M300.1 166.79L303.71 174.29M303.71 174.29L310.21 179.47M310.21 179.47L318.31 181.32"
fill="none" stroke="black" stroke-width="9"/>
</g>
<g><path d="M100.37 131.5L100.37 106.59"
fill="none" stroke="black" stroke-width="9"/>
</g>
<g><path d="M81.69 131.5L81.69 143.96"
fill="none" stroke="black" stroke-width="9"/>
</g>
<g><path d="M119.05 131.5L119.05 143.96"
fill="none" stroke="black" stroke-width="9"/>
</g>
<g><path d="M81.69 131.5L119.05 131.5"
fill="none" stroke="black" stroke-width="9"/>
</g>
<g><path d="M200 131.5L200 106.59"
fill="none" stroke="black" stroke-width="9"/>
</g>
<g><path d="M181.32 131.5L181.32 143.96"
fill="none" stroke="black" stroke-width="9"/>
</g>
<g><path d="M218.68 131.5L218.68 143.96"
fill="none" stroke="black" stroke-width="9"/>
</g>
<g><path d="M181.32 131.5L218.68 131.5"
fill="none" stroke="black" stroke-width="9"/>
</g>
<g><path d="M299.63 131.5L299.63 106.59"
fill="none" stroke="black" stroke-width="9"/>
</g>
<g><path d="M280.95 131.5L280.95 143.96"
fill="none" stroke="black" stroke-width="9"/>
</g>
<g><path d="M318.31 131.5L318.31 143.96"
fill="none" stroke="black" stroke-width="9"/>
</g>
<g><path d="M280.95 131.5L318.31 131.5"
fill="none" stroke="black" stroke-width="9"/>
</g>
<g><path d="M293.41 100.37L295.23 95.96M295.23 95.96L299.63 94.14M299.63 94.14L304.04 95.96M304.04 95.96L305.86 100.37M305.86 100.37L304.04 104.77M304.04 104.77L299.63 106.59M299.63 106.59L295.23 104.77M295.23 104.77L293.41 100.37"
fill="none" stroke="black" stroke-width="9"/>
</g>
<g><path d="M193.77 100.37L195.6 95.96M195.6 95.96L200 94.14M200 94.14L204.4 95.96M204.4 95.96L206.23 100.37M206.23 100.37L204.4 104.77M204.4 104.77L200 106.59M200 106.59L195.6 104.77M195.6 104.77L193.77 100.37"
fill="none" stroke="black" stroke-width="9"/>
</g>
<g><path d="M94.14 100.37L95.96 95.96M95.96 95.96L100.37 94.14M100.37 94.14L104.77 95.96M104.77 95.96L106.59 100.37M106.59 100.37L104.77 104.77M104.77 104.77L100.37 106.59M100.37 106.59L95.96 104.77M95.96 104.77L94.14 100.37"
fill="none" stroke="black" stroke-width="9"/>
</g>
<g><path d="M212.45 274.73L214.28 270.32M214.28 270.32L218.68 268.5M218.68 268.5L223.08 270.32M223.08 270.32L224.91 274.73M224.91 274.73L223.08 279.13M223.08 279.13L218.68 280.95M218.68 280.95L214.28 279.13M214.28 279.13L212.45 274.73"
fill="none" stroke="black" stroke-width="9"/>
</g>
<g><path d="M175.09 274.73L176.92 270.32M176.92 270.32L181.32 268.5M181.32 268.5L185.72 270.32M185.72 270.32L187.55 274.73M187.55 274.73L185.72 279.13M185.72 279.13L181.32 280.95M181.32 280.95L176.92 279.13M176.92 279.13L175.09 274.73"
fill="none" stroke="black" stroke-width="9"/>
</g>
<g><path d="M75.46 274.73L77.28 270.32M77.28 270.32L81.69 268.5M81.69 268.5L86.09 270.32M86.09 270.32L87.91 274.73M87.91 274.73L86.09 279.13M86.09 279.13L81.69 280.95M81.69 280.95L77.28 279.13M77.28 279.13L75.46 274.73"
fill="none" stroke="black" stroke-width="9"/>
</g>
<g><path d="M200 94.14L200 0.73"
fill="none" stroke="black" stroke-width="9"/>
</g>
<g><path d="M100.37 94.14L100.37 72.97"
fill="none" stroke="black" stroke-width="9"/>
</g>
<g><path d="M299.63 94.14L299.63 72.97"
fill="none" stroke="black" stroke-width="9"/>
</g>
<g><path d="M112.82 274.73L114.64 270.32M114.64 270.32L119.05 268.5M119.05 268.5L123.45 270.32M123.45 270.32L125.27 274.73M125.27 274.73L123.45 279.13M123.45 279.13L119.05 280.95M119.05 280.95L114.64 279.13M114.64 279.13L112.82 274.73"
fill="none" stroke="black" stroke-width="9"/>
</g>
<g><path d="M312.09 274.73L313.91 270.32M313.91 270.32L318.31 268.5M318.31 268.5L322.72 270.32M322.72 270.32L324.54 274.73M324.54 274.73L322.72 279.13M322.72 279.13L318.31 280.95M318.31 280.95L313.91 279.13M313.91 279.13L312.09 274.73"
fill="none" stroke="black" stroke-width="9"/>
</g>
<g><path d="M274.73 274.73L276.55 270.32M276.55 270.32L280.95 268.5M280.95 268.5L285.36 270.32M285.36 270.32L287.18 274.73M287.18 274.73L285.36 279.13M285.36 279.13L280.95 280.95M280.95 280.95L276.55 279.13M276.55 279.13L274.73 274.73"
fill="none" stroke="black" stroke-width="9"/>
</g>
<g><path d="M81.69 256.04L81.69 268.5"
fill="none" stroke="black" stroke-width="9"/>
</g>
<g><path d="M119.05 256.04L119.05 268.5"
fill="none" stroke="black" stroke-width="9"/>
</g>
<g><path d="M181.32 256.04L181.32 268.5"
fill="none" stroke="black" stroke-width="9"/>
</g>
<g><path d="M218.68 256.04L218.68 268.5"
fill="none" stroke="black" stroke-width="9"/>
</g>
<g><path d="M280.95 256.04L280.95 268.5"
fill="none" stroke="black" stroke-width="9"/>
</g>
<g><path d="M318.31 256.04L318.31 268.5"
fill="none" stroke="black" stroke-width="9"/>
</g>
<g><path d="M218.68 280.95L218.68 365.46"
fill="none" stroke="black" stroke-width="9"/>
</g>
<g><path d="M181.32 280.95L181.32 365.46"
fill="none" stroke="black" stroke-width="9"/>
</g>
<g><path d="M318.31 280.95L318.31 365.46"
fill="none" stroke="black" stroke-width="9"/>
</g>
<g><path d="M280.95 280.95L280.95 365.46"
fill="none" stroke="black" stroke-width="9"/>
</g>
<g><path d="M119.05 280.95L119.05 365.46"
fill="none" stroke="black" stroke-width="9"/>
</g>
<g><path d="M81.69 280.95L81.69 365.46"
fill="none" stroke="black" stroke-width="9"/>
</g>
<g><path d="M81.69 365.46L94.14 374.36"
fill="none" stroke="black" stroke-width="9"/>
</g>
<g><path d="M119.05 365.46L106.59 374.36"
fill="none" stroke="black" stroke-width="9"/>
</g>
<g><path d="M94.14 374.36L94.14 399.27"
fill="none" stroke="black" stroke-width="9"/>
</g>
<g><path d="M106.59 374.36L106.59 399.27"
fill="none" stroke="black" stroke-width="9"/>
</g>
<g><path d="M181.32 365.46L193.77 374.36"
fill="none" stroke="black" stroke-width="9"/>
</g>
<g><path d="M218.68 365.46L206.23 374.36"
fill="none" stroke="black" stroke-width="9"/>
</g>
<g><path d="M193.77 374.36L193.77 399.27"
fill="none" stroke="black" stroke-width="9"/>
</g>
<g><path d="M206.23 374.36L206.23 399.27"
fill="none" stroke="black" stroke-width="9"/>
</g>
<g><path d="M280.95 365.46L293.41 374.36"
fill="none" stroke="black" stroke-width="9"/>
</g>
<g><path d="M318.31 365.46L305.86 374.36"
fill="none" stroke="black" stroke-width="9"/>
</g>
<g><path d="M293.41 374.36L293.41 399.27"
fill="none" stroke="black" stroke-width="9"/>
</g>
<g><path d="M305.86 374.36L305.86 399.27"
fill="none" stroke="black" stroke-width="9"/>
</g>
</g>
</svg>
