<?xml version="1.0" standalone="no"?><svg xmlns="http://www.w3.org/2000/svg" width="400.000" height="400.000" viewBox="0.0 0.0 400.000 400.000" version="1.1">
  <title>Produce by Acme CAD Converter</title>
  <desc>Produce by Acme CAD Converter</desc>
<g id="0" display="visible">
<g><path d="M97.15 225.71L88.79 227.62M88.79 227.62L82.08 232.97M82.08 232.97L78.35 240.7M78.35 240.7L78.35 249.29M78.35 249.29L82.08 257.02M82.08 257.02L88.79 262.37M88.79 262.37L97.15 264.28"
fill="none" stroke="black" stroke-width="9"/>
</g>
<g><path d="M97.15 187.14L88.79 189.05M88.79 189.05L82.08 194.4M82.08 194.4L78.35 202.14M78.35 202.14L78.35 210.72M78.35 210.72L82.08 218.45M82.08 218.45L88.79 223.8M88.79 223.8L97.15 225.71"
fill="none" stroke="black" stroke-width="9"/>
</g>
<g><path d="M97.15 148.58L88.79 150.49M88.79 150.49L82.08 155.84M82.08 155.84L78.35 163.57M78.35 163.57L78.35 172.15M78.35 172.15L82.08 179.88M82.08 179.88L88.79 185.23M88.79 185.23L97.15 187.14"
fill="none" stroke="black" stroke-width="9"/>
</g>
<g><path d="M32.87 206.43L34.83 180.92M34.83 180.92L40.66 156M40.66 156L50.23 132.27M50.23 132.27L63.3 110.28M63.3 110.28L79.58 90.54M79.58 90.54L98.68 73.51M98.68 73.51L120.16 59.6M120.16 59.6L143.51 49.14M143.51 49.14L168.18 42.36M168.18 42.36L193.6 39.42M193.6 39.42L219.17 40.4M219.17 40.4L244.29 45.28M244.29 45.28L268.37 53.92M268.37 53.92L290.84 66.15M290.84 66.15L311.19 81.66M311.19 81.66L328.94 100.09M328.94 100.09L343.66 121.02M343.66 121.02L355.01 143.95M355.01 143.95L362.73 168.35M362.73 168.35L366.64 193.63M366.64 193.63L366.64 219.22M366.64 219.22L362.73 244.51M362.73 244.51L355.01 268.9M355.01 268.9L343.66 291.83M343.66 291.83L328.94 312.76M328.94 312.76L311.19 331.2M311.19 331.2L290.84 346.71M290.84 346.71L268.37 358.93M268.37 358.93L244.29 367.58M244.29 367.58L219.17 372.45M219.17 372.45L193.6 373.43M193.6 373.43L168.18 370.5M168.18 370.5L143.51 363.72M143.51 363.72L120.16 353.25M120.16 353.25L98.68 339.34M98.68 339.34L79.58 322.32M79.58 322.32L63.3 302.58M63.3 302.58L50.23 280.59M50.23 280.59L40.66 256.85M40.66 256.85L34.83 231.94M34.83 231.94L32.87 206.43"
fill="none" stroke="black" stroke-width="9"/>
</g>
<g><path d="M200 225.71L191.63 227.62M191.63 227.62L184.92 232.97M184.92 232.97L181.2 240.7M181.2 240.7L181.2 249.29M181.2 249.29L184.92 257.02M184.92 257.02L191.63 262.37M191.63 262.37L200 264.28"
fill="none" stroke="black" stroke-width="9"/>
</g>
<g><path d="M200 187.14L191.63 189.05M191.63 189.05L184.92 194.4M184.92 194.4L181.2 202.14M181.2 202.14L181.2 210.72M181.2 210.72L184.92 218.45M184.92 218.45L191.63 223.8M191.63 223.8L200 225.71"
fill="none" stroke="black" stroke-width="9"/>
</g>
<g><path d="M200 148.58L191.63 150.49M191.63 150.49L184.92 155.84M184.92 155.84L181.2 163.57M181.2 163.57L181.2 172.15M181.2 172.15L184.92 179.88M184.92 179.88L191.63 185.23M191.63 185.23L200 187.14"
fill="none" stroke="black" stroke-width="9"/>
</g>
<g><path d="M302.85 225.71L294.48 227.62M294.48 227.62L287.77 232.97M287.77 232.97L284.05 240.7M284.05 240.7L284.05 249.29M284.05 249.29L287.77 257.02M287.77 257.02L294.48 262.37M294.48 262.37L302.85 264.28"
fill="none" stroke="black" stroke-width="9"/>
</g>
<g><path d="M302.85 187.14L294.48 189.05M294.48 189.05L287.77 194.4M287.77 194.4L284.05 202.14M284.05 202.14L284.05 210.72M284.05 210.72L287.77 218.45M287.77 218.45L294.48 223.8M294.48 223.8L302.85 225.71"
fill="none" stroke="black" stroke-width="9"/>
</g>
<g><path d="M302.85 148.58L294.48 150.49M294.48 150.49L287.77 155.84M287.77 155.84L284.05 163.57M284.05 163.57L284.05 172.15M284.05 172.15L287.77 179.88M287.77 179.88L294.48 185.23M294.48 185.23L302.85 187.14"
fill="none" stroke="black" stroke-width="9"/>
</g>
<g><path d="M97.15 148.58L97.15 110.01"
fill="none" stroke="black" stroke-width="9"/>
</g>
<g><path d="M200 148.58L200 110.01"
fill="none" stroke="black" stroke-width="9"/>
</g>
<g><path d="M302.85 148.58L302.85 110.01"
fill="none" stroke="black" stroke-width="9"/>
</g>
<g><path d="M296.42 103.58L298.3 99.04M298.3 99.04L302.85 97.15M302.85 97.15L307.39 99.04M307.39 99.04L309.28 103.58M309.28 103.58L307.39 108.13M307.39 108.13L302.85 110.01M302.85 110.01L298.3 108.13M298.3 108.13L296.42 103.58"
fill="none" stroke="black" stroke-width="9"/>
</g>
<g><path d="M193.57 103.58L195.45 99.04M195.45 99.04L200 97.15M200 97.15L204.55 99.04M204.55 99.04L206.43 103.58M206.43 103.58L204.55 108.13M204.55 108.13L200 110.01M200 110.01L195.45 108.13M195.45 108.13L193.57 103.58"
fill="none" stroke="black" stroke-width="9"/>
</g>
<g><path d="M90.72 103.58L92.61 99.04M92.61 99.04L97.15 97.15M97.15 97.15L101.7 99.04M101.7 99.04L103.58 103.58M103.58 103.58L101.7 108.13M101.7 108.13L97.15 110.01M97.15 110.01L92.61 108.13M92.61 108.13L90.72 103.58"
fill="none" stroke="black" stroke-width="9"/>
</g>
<g><path d="M200 97.15L200 0.73"
fill="none" stroke="black" stroke-width="9"/>
</g>
<g><path d="M97.15 97.15L97.15 75.3"
fill="none" stroke="black" stroke-width="9"/>
</g>
<g><path d="M302.85 97.15L302.85 75.3"
fill="none" stroke="black" stroke-width="9"/>
</g>
<g><path d="M97.15 264.28L97.15 302.85"
fill="none" stroke="black" stroke-width="9"/>
</g>
<g><path d="M200 264.28L200 302.85"
fill="none" stroke="black" stroke-width="9"/>
</g>
<g><path d="M302.85 264.28L302.85 302.85"
fill="none" stroke="black" stroke-width="9"/>
</g>
<g><path d="M296.42 309.28L298.3 304.73M298.3 304.73L302.85 302.85M302.85 302.85L307.39 304.73M307.39 304.73L309.28 309.28M309.28 309.28L307.39 313.82M307.39 313.82L302.85 315.7M302.85 315.7L298.3 313.82M298.3 313.82L296.42 309.28"
fill="none" stroke="black" stroke-width="9"/>
</g>
<g><path d="M193.57 309.28L195.45 304.73M195.45 304.73L200 302.85M200 302.85L204.55 304.73M204.55 304.73L206.43 309.28M206.43 309.28L204.55 313.82M204.55 313.82L200 315.7M200 315.7L195.45 313.82M195.45 313.82L193.57 309.28"
fill="none" stroke="black" stroke-width="9"/>
</g>
<g><path d="M90.72 309.28L92.61 304.73M92.61 304.73L97.15 302.85M97.15 302.85L101.7 304.73M101.7 304.73L103.58 309.28M103.58 309.28L101.7 313.82M101.7 313.82L97.15 315.7M97.15 315.7L92.61 313.82M92.61 313.82L90.72 309.28"
fill="none" stroke="black" stroke-width="9"/>
</g>
<g><path d="M97.15 315.7L97.15 399.27"
fill="none" stroke="black" stroke-width="9"/>
</g>
<g><path d="M200 315.7L200 399.27"
fill="none" stroke="black" stroke-width="9"/>
</g>
<g><path d="M302.85 315.7L302.85 399.27"
fill="none" stroke="black" stroke-width="9"/>
</g>
</g>
</svg>
