<?xml version="1.0" standalone="no"?><svg xmlns="http://www.w3.org/2000/svg" width="400.000" height="400.000" viewBox="0.0 0.0 400.000 400.000" version="1.1">
  <title>Produce by Acme CAD Converter</title>
  <desc>Produce by Acme CAD Converter</desc>
<g id="0" display="visible">
<g><path d="M385.36 0.73L385.36 139.76"
fill="none" stroke="black" stroke-width="12"/>
</g>
<g><path d="M385.36 139.76L286.38 216.5"
fill="none" stroke="black" stroke-width="12"/>
</g>
<g><path d="M200 0.73L200 176.83"
fill="none" stroke="black" stroke-width="12"/>
</g>
<g><path d="M113.62 216.5L14.64 139.76"
fill="none" stroke="black" stroke-width="12"/>
</g>
<g><path d="M14.64 139.76L14.64 0.73"
fill="none" stroke="black" stroke-width="12"/>
</g>
<g><path d="M135.12 288.05L137.01 272.52M137.01 272.52L142.55 257.9M142.55 257.9L151.44 245.03M151.44 245.03L163.15 234.65M163.15 234.65L176.99 227.39M176.99 227.39L192.18 223.64M192.18 223.64L207.82 223.64M207.82 223.64L223.01 227.39M223.01 227.39L236.85 234.65M236.85 234.65L248.56 245.03M248.56 245.03L257.45 257.9M257.45 257.9L262.99 272.52M262.99 272.52L264.88 288.05M264.88 288.05L262.99 303.57M262.99 303.57L257.45 318.2M257.45 318.2L248.56 331.07M248.56 331.07L236.85 341.44M236.85 341.44L223.01 348.71M223.01 348.71L207.82 352.45M207.82 352.45L192.18 352.45M192.18 352.45L176.99 348.71M176.99 348.71L163.15 341.44M163.15 341.44L151.44 331.07M151.44 331.07L142.55 318.2M142.55 318.2L137.01 303.57M137.01 303.57L135.12 288.05"
fill="none" stroke="black" stroke-width="12"/>
</g>
<g><path d="M88.78 288.05L90.68 267.61M90.68 267.61L96.29 247.87M96.29 247.87L105.44 229.5M105.44 229.5L117.81 213.12M117.81 213.12L132.98 199.29M132.98 199.29L150.43 188.49M150.43 188.49L169.56 181.08M169.56 181.08L189.74 177.3M189.74 177.3L210.26 177.3M210.26 177.3L230.44 181.08M230.44 181.08L249.57 188.49M249.57 188.49L267.02 199.29M267.02 199.29L282.19 213.12M282.19 213.12L294.56 229.5M294.56 229.5L303.71 247.87M303.71 247.87L309.32 267.61M309.32 267.61L311.22 288.05M311.22 288.05L309.32 308.48M309.32 308.48L303.71 328.22M303.71 328.22L294.56 346.6M294.56 346.6L282.19 362.98M282.19 362.98L267.02 376.8M267.02 376.8L249.57 387.61M249.57 387.61L230.44 395.02M230.44 395.02L210.26 398.79M210.26 398.79L189.74 398.79M189.74 398.79L169.56 395.02M169.56 395.02L150.43 387.61M150.43 387.61L132.98 376.8M132.98 376.8L117.81 362.98M117.81 362.98L105.44 346.6M105.44 346.6L96.29 328.22M96.29 328.22L90.68 308.48M90.68 308.48L88.78 288.05"
fill="none" stroke="black" stroke-width="12"/>
</g>
<g><path d="M14.64 0.73L14.64 0.73"
fill="none" stroke="black" stroke-width=".5"/>
</g>
<g><path d="M200 0.73L200 0.73"
fill="none" stroke="black" stroke-width=".5"/>
</g>
<g><path d="M385.36 0.73L385.36 0.73"
fill="none" stroke="black" stroke-width=".5"/>
</g>
</g>
</svg>
