<?xml version="1.0" standalone="no"?><svg xmlns="http://www.w3.org/2000/svg" width="400.000" height="400.000" viewBox="0.0 0.0 400.000 400.000" version="1.1">
  <title>Produce by Acme CAD Converter</title>
  <desc>Produce by Acme CAD Converter</desc>
<g id="0" display="visible">
<g><path d="M399.27 200L329.52 200"
fill="none" stroke="black" stroke-width="12"/>
</g>
<g><path d="M280.3 160.15L329.52 160.15"
fill="none" stroke="black" stroke-width="12"/>
</g>
<g><path d="M329.52 160.15L329.52 239.85"
fill="none" stroke="black" stroke-width="12"/>
</g>
<g><path d="M329.52 239.85L280.3 239.85"
fill="none" stroke="black" stroke-width="12"/>
</g>
<g><path d="M110.33 200L112.29 181.36M112.29 181.36L118.08 163.53M118.08 163.53L127.46 147.29M127.46 147.29L140 133.36M140 133.36L155.16 122.34M155.16 122.34L172.29 114.72M172.29 114.72L190.63 110.82M190.63 110.82L209.37 110.82M209.37 110.82L227.71 114.72M227.71 114.72L244.84 122.34M244.84 122.34L260 133.36M260 133.36L272.54 147.29M272.54 147.29L281.92 163.53M281.92 163.53L287.71 181.36M287.71 181.36L289.67 200M289.67 200L287.71 218.64M287.71 218.64L281.92 236.47M281.92 236.47L272.54 252.71M272.54 252.71L260 266.64M260 266.64L244.84 277.66M244.84 277.66L227.71 285.28M227.71 285.28L209.37 289.18M209.37 289.18L190.63 289.18M190.63 289.18L172.29 285.28M172.29 285.28L155.16 277.66M155.16 277.66L140 266.64M140 266.64L127.46 252.71M127.46 252.71L118.08 236.47M118.08 236.47L112.29 218.64M112.29 218.64L110.33 200"
fill="none" stroke="black" stroke-width="12"/>
</g>
<g><path d="M118.9 160.15L70.48 160.15"
fill="none" stroke="black" stroke-width="12"/>
</g>
<g><path d="M70.48 160.15L70.48 239.85"
fill="none" stroke="black" stroke-width="12"/>
</g>
<g><path d="M70.48 239.85L118.9 239.85"
fill="none" stroke="black" stroke-width="12"/>
</g>
<g><path d="M70.48 200L0.73 200"
fill="none" stroke="black" stroke-width="12"/>
</g>
<g><path d="M0.73 200L0.73 200"
fill="none" stroke="black" stroke-width=".5"/>
</g>
<g><path d="M399.27 200L399.27 200"
fill="none" stroke="black" stroke-width=".5"/>
</g>
</g>
</svg>
