<?xml version="1.0" standalone="no"?><svg xmlns="http://www.w3.org/2000/svg" width="400.000" height="400.000" viewBox="0.0 0.0 400.000 400.000" version="1.1">
  <title>Produce by Acme CAD Converter</title>
  <desc>Produce by Acme CAD Converter</desc>
<g id="0" display="visible">
<g><path d="M83.76 200L85.74 178.64M85.74 178.64L91.61 158.01M91.61 158.01L101.17 138.81M101.17 138.81L114.1 121.69M114.1 121.69L129.95 107.24M129.95 107.24L148.19 95.95M148.19 95.95L168.19 88.2M168.19 88.2L189.27 84.26M189.27 84.26L210.73 84.26M210.73 84.26L231.81 88.2M231.81 88.2L251.81 95.95M251.81 95.95L270.05 107.24M270.05 107.24L285.9 121.69M285.9 121.69L298.83 138.81M298.83 138.81L308.39 158.01M308.39 158.01L314.26 178.64M314.26 178.64L316.24 200M316.24 200L314.26 221.36M314.26 221.36L308.39 241.99M308.39 241.99L298.83 261.19M298.83 261.19L285.9 278.31M285.9 278.31L270.05 292.76M270.05 292.76L251.81 304.05M251.81 304.05L231.81 311.8M231.81 311.8L210.73 315.74M210.73 315.74L189.27 315.74M189.27 315.74L168.19 311.8M168.19 311.8L148.19 304.05M148.19 304.05L129.95 292.76M129.95 292.76L114.1 278.31M114.1 278.31L101.17 261.19M101.17 261.19L91.61 241.99M91.61 241.99L85.74 221.36M85.74 221.36L83.76 200"
fill="none" stroke="black" stroke-width="12"/>
</g>
<g><path d="M0.73 200L2.67 172.27M2.67 172.27L8.45 145.07M8.45 145.07L17.96 118.95M17.96 118.95L31.01 94.4M31.01 94.4L47.35 71.91M47.35 71.91L66.66 51.92M66.66 51.92L88.57 34.8M88.57 34.8L112.65 20.9M112.65 20.9L138.42 10.49M138.42 10.49L165.4 3.76M165.4 3.76L193.05 0.85M193.05 0.85L220.83 1.82M220.83 1.82L248.21 6.65M248.21 6.65L274.65 15.24M274.65 15.24L299.63 27.43M299.63 27.43L322.68 42.98M322.68 42.98L343.34 61.58M343.34 61.58L361.21 82.87M361.21 82.87L375.94 106.45M375.94 106.45L387.25 131.85M387.25 131.85L394.91 158.57M394.91 158.57L398.78 186.1M398.78 186.1L398.78 213.9M398.78 213.9L394.91 241.43M394.91 241.43L387.25 268.15M387.25 268.15L375.94 293.55M375.94 293.55L361.21 317.13M361.21 317.13L343.34 338.42M343.34 338.42L322.68 357.02M322.68 357.02L299.63 372.57M299.63 372.57L274.65 384.76M274.65 384.76L248.21 393.35M248.21 393.35L220.83 398.18M220.83 398.18L193.05 399.15M193.05 399.15L165.4 396.24M165.4 396.24L138.42 389.51M138.42 389.51L112.65 379.1M112.65 379.1L88.57 365.2M88.57 365.2L66.66 348.08M66.66 348.08L47.35 328.09M47.35 328.09L31.01 305.6M31.01 305.6L17.96 281.05M17.96 281.05L8.45 254.93M8.45 254.93L2.67 227.73M2.67 227.73L0.73 200"
fill="none" stroke="black" stroke-width="12"/>
</g>
</g>
</svg>
