<?xml version="1.0" standalone="no"?><svg xmlns="http://www.w3.org/2000/svg" width="400.000" height="400.000" viewBox="0.0 0.0 400.000 400.000" version="1.1">
  <title>Produce by Acme CAD Converter</title>
  <desc>Produce by Acme CAD Converter</desc>
<g id="0" display="visible">
<g><path d="M399.25 103.79L399.25 297.45"
fill="none" stroke="black" stroke-width="9"/>
</g>
<g><path d="M399.24 103.79L379.32 89.48M379.32 89.48L357.55 78.49M357.55 78.49L334.43 71.06M334.43 71.06L310.5 67.37M310.5 67.37L286.3 67.49M286.3 67.49L262.41 71.44M262.41 71.44L239.36 79.11M239.36 79.11L217.7 90.33M217.7 90.33L197.91 104.84"
fill="none" stroke="black" stroke-width="9"/>
</g>
<g><path d="M0.73 104.84L20.29 118.58M20.29 118.58L41.59 129.15M41.59 129.15L64.15 136.33M64.15 136.33L87.48 139.96M87.48 139.96L111.07 139.96M111.07 139.96L134.4 136.33M134.4 136.33L156.96 129.15M156.96 129.15L178.26 118.58M178.26 118.58L197.82 104.84"
fill="none" stroke="black" stroke-width="9"/>
</g>
<g><path d="M399.27 297.47L379.33 282.86M379.33 282.86L357.49 271.6M357.49 271.6L334.25 263.94M334.25 263.94L310.16 260.07M310.16 260.07L285.79 260.07M285.79 260.07L261.71 263.94M261.71 263.94L238.47 271.6M238.47 271.6L216.63 282.86M216.63 282.86L196.69 297.47"
fill="none" stroke="black" stroke-width="9"/>
</g>
<g><path d="M0.73 298.46L20.27 311.91M20.27 311.91L41.49 322.23M41.49 322.23L63.94 329.2M63.94 329.2L87.12 332.66M87.12 332.66L110.54 332.54M110.54 332.54L133.69 328.84M133.69 328.84L156.07 321.65M156.07 321.65L177.19 311.12M177.19 311.12L196.6 297.47"
fill="none" stroke="black" stroke-width="9"/>
</g>
<g><path d="M0.73 104.84L0.73 298.46"
fill="none" stroke="black" stroke-width="9"/>
</g>
</g>
</svg>
