<?xml version="1.0" standalone="no"?><svg xmlns="http://www.w3.org/2000/svg" width="400.000" height="400.000" viewBox="0.0 0.0 400.000 400.000" version="1.1">
  <title>Produce by Acme CAD Converter</title>
  <desc>Produce by Acme CAD Converter</desc>
<g id="0" display="visible">
<g><path d="M362.73 65.55L361.8 67.16"
fill="none" stroke="black" stroke-width="9"/>
</g>
<g><path d="M361.8 67.16L347.88 94.88M347.88 94.88L337.3 124.03M337.3 124.03L330.18 154.21M330.18 154.21L326.62 185.03M326.62 185.03L326.69 216.04M326.69 216.04L330.36 246.84M330.36 246.84L337.6 277M337.6 277L348.31 306.11M348.31 306.11L362.33 333.77"
fill="none" stroke="black" stroke-width="9"/>
</g>
<g><path d="M362.33 333.77L362.73 334.45"
fill="none" stroke="black" stroke-width="9"/>
</g>
<g><path d="M361.8 67.16L363.67 67.16"
fill="none" stroke="black" stroke-width="9"/>
</g>
<g><path d="M36.33 67.16L361.8 67.16"
fill="none" stroke="black" stroke-width="9"/>
</g>
<g><path d="M362.33 333.77L363.13 333.77"
fill="none" stroke="black" stroke-width="9"/>
</g>
<g><path d="M36.87 333.77L362.33 333.77"
fill="none" stroke="black" stroke-width="9"/>
</g>
<g><path d="M362.73 334.45L363.13 333.77"
fill="none" stroke="black" stroke-width="9"/>
</g>
<g><path d="M363.67 67.16L362.73 65.55"
fill="none" stroke="black" stroke-width="9"/>
</g>
<g><path d="M363.13 333.77L377.16 306.11M377.16 306.11L387.86 277M387.86 277L395.11 246.84M395.11 246.84L398.78 216.04M398.78 216.04L398.84 185.03M398.84 185.03L395.29 154.21M395.29 154.21L388.17 124.03M388.17 124.03L377.58 94.88M377.58 94.88L363.67 67.16"
fill="none" stroke="black" stroke-width="9"/>
</g>
<g><path d="M36.33 67.16L22.42 94.88M22.42 94.88L11.83 124.03M11.83 124.03L4.71 154.21M4.71 154.21L1.16 185.03M1.16 185.03L1.22 216.04M1.22 216.04L4.89 246.84M4.89 246.84L12.14 277M12.14 277L22.84 306.11M22.84 306.11L36.87 333.77"
fill="none" stroke="black" stroke-width="9"/>
</g>
</g>
</svg>
