<?xml version="1.0" standalone="no"?><svg xmlns="http://www.w3.org/2000/svg" width="400.000" height="400.000" viewBox="0.0 0.0 400.000 400.000" version="1.1">
  <title>Produce by Acme CAD Converter</title>
  <desc>Produce by Acme CAD Converter</desc>
<g id="0" display="visible">
<g><path d="M399.27 259.78L399.27 67.16"
fill="none" stroke="black" stroke-width="9"/>
</g>
<g><path d="M266.42 295.38L266.42 297.25"
fill="none" stroke="black" stroke-width="9"/>
</g>
<g><path d="M399.27 259.78L369.62 261.44M369.62 261.44L340.35 266.39M340.35 266.39L311.81 274.59M311.81 274.59L284.37 285.91"
fill="none" stroke="black" stroke-width="9"/>
</g>
<g><path d="M266.42 295.38L248.48 306.71"
fill="none" stroke="black" stroke-width="9"/>
</g>
<g><path d="M284.37 285.91L266.42 295.38"
fill="none" stroke="black" stroke-width="9"/>
</g>
<g><path d="M0.73 67.16L399.27 67.16"
fill="none" stroke="black" stroke-width="9"/>
</g>
<g><path d="M0.73 67.16L0.73 297.25"
fill="none" stroke="black" stroke-width="9"/>
</g>
<g><path d="M266.42 297.25L284.37 285.91"
fill="none" stroke="black" stroke-width="9"/>
</g>
<g><path d="M248.48 306.71L266.42 297.25"
fill="none" stroke="black" stroke-width="9"/>
</g>
<g><path d="M0.73 297.25L29.56 311.64M29.56 311.64L59.93 322.43M59.93 322.43L91.37 329.47M91.37 329.47L123.43 332.65M123.43 332.65L155.65 331.93M155.65 331.93L187.54 327.31M187.54 327.31L218.63 318.86M218.63 318.86L248.48 306.71"
fill="none" stroke="black" stroke-width="9"/>
</g>
</g>
</svg>
