<?xml version="1.0" standalone="no"?><svg xmlns="http://www.w3.org/2000/svg" width="400.000" height="400.000" viewBox="0.0 0.0 400.000 400.000" version="1.1">
  <title>Produce by Acme CAD Converter</title>
  <desc>Produce by Acme CAD Converter</desc>
<g id="0" display="visible">
<g><path d="M399.21 66.89L386.55 91.7M386.55 91.7L376.55 117.71M376.55 117.71L369.33 144.62M369.33 144.62L364.96 172.13M364.96 172.13L363.5 199.95"
fill="none" stroke="black" stroke-width="9"/>
</g>
<g><path d="M363.5 199.95L364.96 227.8M364.96 227.8L369.34 255.33M369.34 255.33L376.57 282.26M376.57 282.26L386.58 308.28M386.58 308.28L399.27 333.11"
fill="none" stroke="black" stroke-width="9"/>
</g>
<g><path d="M36.5 333.11L399.27 333.11"
fill="none" stroke="black" stroke-width="9"/>
</g>
<g><path d="M36.45 66.89L399.21 66.89"
fill="none" stroke="black" stroke-width="9"/>
</g>
<g><path d="M35.69 66.89L36.45 66.89"
fill="none" stroke="black" stroke-width="9"/>
</g>
<g><path d="M36.45 66.89L23.78 91.7M23.78 91.7L13.78 117.71M13.78 117.71L6.56 144.62M6.56 144.62L2.19 172.13M2.19 172.13L0.73 199.95"
fill="none" stroke="black" stroke-width="9"/>
</g>
<g><path d="M0.73 199.95L2.2 227.8M2.2 227.8L6.57 255.33M6.57 255.33L13.8 282.26M13.8 282.26L23.81 308.28M23.81 308.28L36.5 333.11"
fill="none" stroke="black" stroke-width="9"/>
</g>
</g>
</svg>
