<?xml version="1.0" standalone="no"?><svg xmlns="http://www.w3.org/2000/svg" width="400.000" height="400.000" viewBox="0.0 0.0 400.000 400.000" version="1.1">
  <title>Produce by Acme CAD Converter</title>
  <desc>Produce by Acme CAD Converter</desc>
<g id="0" display="visible">
<g><path d="M66.69 38.2L94.41 52.12M94.41 52.12L123.56 62.7M123.56 62.7L153.75 69.82M153.75 69.82L184.56 73.38M184.56 73.38L215.58 73.31M215.58 73.31L246.38 69.64M246.38 69.64L276.53 62.4M276.53 62.4L305.64 51.69M305.64 51.69L333.31 37.67"
fill="none" stroke="black" stroke-width="9"/>
</g>
<g><path d="M66.69 38.2L66.69 36.33"
fill="none" stroke="black" stroke-width="9"/>
</g>
<g><path d="M66.69 363.67L66.69 38.2"
fill="none" stroke="black" stroke-width="9"/>
</g>
<g><path d="M333.31 37.67L333.31 36.87"
fill="none" stroke="black" stroke-width="9"/>
</g>
<g><path d="M333.31 363.13L333.31 37.67"
fill="none" stroke="black" stroke-width="9"/>
</g>
<g><path d="M333.31 36.87L305.64 22.84M305.64 22.84L276.53 12.14M276.53 12.14L246.38 4.89M246.38 4.89L215.58 1.22M215.58 1.22L184.56 1.16M184.56 1.16L153.75 4.71M153.75 4.71L123.56 11.83M123.56 11.83L94.41 22.42M94.41 22.42L66.69 36.33"
fill="none" stroke="black" stroke-width="9"/>
</g>
<g><path d="M66.69 363.67L94.41 377.58M94.41 377.58L123.56 388.17M123.56 388.17L153.75 395.29M153.75 395.29L184.56 398.84M184.56 398.84L215.58 398.78M215.58 398.78L246.38 395.11M246.38 395.11L276.53 387.86M276.53 387.86L305.64 377.16M305.64 377.16L333.31 363.13"
fill="none" stroke="black" stroke-width="9"/>
</g>
<g><path d="M66.69 78.33L94.41 92.25M94.41 92.25L123.56 102.83M123.56 102.83L153.75 109.95M153.75 109.95L184.56 113.5M184.56 113.5L215.58 113.44M215.58 113.44L246.38 109.77M246.38 109.77L276.53 102.53M276.53 102.53L305.64 91.82M305.64 91.82L333.31 77.79"
fill="none" stroke="black" stroke-width="9"/>
</g>
<g><path d="M66.69 118.19L94.41 132.1M94.41 132.1L123.56 142.69M123.56 142.69L153.75 149.81M153.75 149.81L184.56 153.36M184.56 153.36L215.58 153.3M215.58 153.3L246.38 149.62M246.38 149.62L276.53 142.38M276.53 142.38L305.64 131.67M305.64 131.67L333.31 117.65"
fill="none" stroke="black" stroke-width="9"/>
</g>
</g>
</svg>
