<?xml version="1.0" standalone="no"?><svg xmlns="http://www.w3.org/2000/svg" width="400.000" height="400.000" viewBox="0.0 0.0 400.000 400.000" version="1.1">
  <title>Produce by Acme CAD Converter</title>
  <desc>Produce by Acme CAD Converter</desc>
<g id="0" display="visible">
<g><path d="M0.73 200L16.09 228.47M16.09 228.47L34.81 254.85M34.81 254.85L56.61 278.75M56.61 278.75L81.17 299.81M81.17 299.81L108.11 317.71M108.11 317.71L137.04 332.18"
fill="none" stroke="black" stroke-width="9"/>
</g>
<g><path d="M137.04 332.18L344.26 332.18"
fill="none" stroke="black" stroke-width="9"/>
</g>
<g><path d="M344.26 332.18L363.85 332.18"
fill="none" stroke="black" stroke-width="9"/>
</g>
<g><path d="M137.04 67.82L108.11 82.29M108.11 82.29L81.17 100.19M81.17 100.19L56.61 121.25M56.61 121.25L34.81 145.15M34.81 145.15L16.09 171.53M16.09 171.53L0.73 200"
fill="none" stroke="black" stroke-width="9"/>
</g>
<g><path d="M370.98 318.97L383.23 290.67M383.23 290.67L392.1 261.14M392.1 261.14L397.47 230.78M397.47 230.78L399.27 200M399.27 200L397.47 169.22M397.47 169.22L392.1 138.86M392.1 138.86L383.23 109.33M383.23 109.33L370.98 81.03"
fill="none" stroke="black" stroke-width="9"/>
</g>
<g><path d="M363.85 332.18L370.98 318.97"
fill="none" stroke="black" stroke-width="9"/>
</g>
<g><path d="M370.98 81.03L363.85 67.82"
fill="none" stroke="black" stroke-width="9"/>
</g>
<g><path d="M137.04 67.82L344.26 67.82"
fill="none" stroke="black" stroke-width="9"/>
</g>
<g><path d="M344.26 67.82L363.85 67.82"
fill="none" stroke="black" stroke-width="9"/>
</g>
</g>
</svg>
