<?xml version="1.0" standalone="no"?><svg xmlns="http://www.w3.org/2000/svg" width="400.000" height="400.000" viewBox="0.0 0.0 400.000 400.000" version="1.1">
  <title>Produce by Acme CAD Converter</title>
  <desc>Produce by Acme CAD Converter</desc>
<g id="0" display="visible">
<g><path d="M332.84 266.42L348.74 264.49M348.74 264.49L363.71 258.81M363.71 258.81L376.89 249.72M376.89 249.72L387.51 237.73M387.51 237.73L394.95 223.55M394.95 223.55L398.78 208.01M398.78 208.01L398.78 191.99M398.78 191.99L394.95 176.45M394.95 176.45L387.51 162.27M387.51 162.27L376.89 150.28M376.89 150.28L363.71 141.19M363.71 141.19L348.74 135.51M348.74 135.51L332.84 133.58"
fill="none" stroke="black" stroke-width="9"/>
</g>
<g><path d="M67.16 133.58L51.26 135.51M51.26 135.51L36.29 141.19M36.29 141.19L23.11 150.28M23.11 150.28L12.49 162.27M12.49 162.27L5.05 176.45M5.05 176.45L1.22 191.99M1.22 191.99L1.22 208.01M1.22 208.01L5.05 223.55M5.05 223.55L12.49 237.73M12.49 237.73L23.11 249.72M23.11 249.72L36.29 258.81M36.29 258.81L51.26 264.49M51.26 264.49L67.16 266.42"
fill="none" stroke="black" stroke-width="9"/>
</g>
<g><path d="M67.16 266.42L332.84 266.42"
fill="none" stroke="black" stroke-width="9"/>
</g>
<g><path d="M67.16 133.58L332.84 133.58"
fill="none" stroke="black" stroke-width="9"/>
</g>
</g>
</svg>
