<?xml version="1.0" standalone="no"?><svg xmlns="http://www.w3.org/2000/svg" width="400.000" height="400.000" viewBox="0.0 0.0 400.000 400.000" version="1.1">
  <title>Produce by Acme CAD Converter</title>
  <desc>Produce by Acme CAD Converter</desc>
<g id="0" display="visible">
<g><path d="M75.46 200L77.35 178.37M77.35 178.37L82.97 157.4M82.97 157.4L92.14 137.73M92.14 137.73L104.6 119.95M104.6 119.95L119.95 104.6M119.95 104.6L137.73 92.14M137.73 92.14L157.4 82.97M157.4 82.97L178.37 77.35M178.37 77.35L200 75.46M200 75.46L221.63 77.35M221.63 77.35L242.6 82.97M242.6 82.97L262.27 92.14M262.27 92.14L280.05 104.6M280.05 104.6L295.4 119.95M295.4 119.95L307.86 137.73M307.86 137.73L317.03 157.4M317.03 157.4L322.65 178.37M322.65 178.37L324.54 200M324.54 200L322.65 221.63M322.65 221.63L317.03 242.6M317.03 242.6L307.86 262.27M307.86 262.27L295.4 280.05M295.4 280.05L280.05 295.4M280.05 295.4L262.27 307.86M262.27 307.86L242.6 317.03M242.6 317.03L221.63 322.65M221.63 322.65L200 324.54M200 324.54L178.37 322.65M178.37 322.65L157.4 317.03M157.4 317.03L137.73 307.86M137.73 307.86L119.95 295.4M119.95 295.4L104.6 280.05M104.6 280.05L92.14 262.27M92.14 262.27L82.97 242.6M82.97 242.6L77.35 221.63M77.35 221.63L75.46 200"
fill="none" stroke="black" stroke-width="12"/>
</g>
<g><path d="M200 0.73L200 0.73"
fill="none" stroke="black" stroke-width=".5"/>
</g>
<g><path d="M200 0.73L200 399.27"
fill="none" stroke="black" stroke-width="12"/>
</g>
<g><path d="M180.07 226.63L200 151.9"
fill="none" stroke="black" stroke-width="12"/>
</g>
<g><path d="M200 151.9L219.93 226.63"
fill="none" stroke="black" stroke-width="12"/>
</g>
</g>
</svg>
