<?xml version="1.0" standalone="no"?><svg xmlns="http://www.w3.org/2000/svg" width="400.000" height="400.000" viewBox="0.0 0.0 400.000 400.000" version="1.1">
  <title>Produce by Acme CAD Converter</title>
  <desc>Produce by Acme CAD Converter</desc>
<g id="0" display="visible">
<g><path d="M228.05 182.18L228.05 172.03 227.9 172.16 228.05 182.18Z"
fill-rule="evenodd" fill="black"/>
<path d="M228.05 182.18L235.66 188 228.05 172.03 228.05 182.18Z"
fill-rule="evenodd" fill="black"/>
<path d="M235.66 188L235.66 165.82 228.05 172.03 235.66 188Z"
fill-rule="evenodd" fill="black"/>
<path d="M235.66 188L236.01 188.27 235.66 165.82 235.66 188Z"
fill-rule="evenodd" fill="black"/>
<path d="M236.01 188.27L236.01 165.9 235.66 165.82 236.01 188.27Z"
fill-rule="evenodd" fill="black"/>
<path d="M236.01 188.27L245.45 185.87 236.01 165.9 236.01 188.27Z"
fill-rule="evenodd" fill="black"/>
<path d="M245.45 185.87L245.45 167.99 236.01 165.9 245.45 185.87Z"
fill-rule="evenodd" fill="black"/>
<path d="M245.45 185.87L245.73 185.8 245.45 167.99 245.45 185.87Z"
fill-rule="evenodd" fill="black"/>
<path d="M245.73 185.8L245.73 168.56 245.45 167.99 245.73 185.8Z"
fill-rule="evenodd" fill="black"/>
<path d="M245.73 185.8L249.82 177.01 245.73 168.56 245.73 185.8Z"
fill-rule="evenodd" fill="black"/>
</g>
<g><path d="M228.05 224.33L228.05 214.18 227.9 214.31 228.05 224.33Z"
fill-rule="evenodd" fill="black"/>
<path d="M228.05 224.33L235.66 230.15 228.05 214.18 228.05 224.33Z"
fill-rule="evenodd" fill="black"/>
<path d="M235.66 230.15L235.66 207.98 228.05 214.18 235.66 230.15Z"
fill-rule="evenodd" fill="black"/>
<path d="M235.66 230.15L236.01 230.42 235.66 207.98 235.66 230.15Z"
fill-rule="evenodd" fill="black"/>
<path d="M236.01 230.42L236.01 208.05 235.66 207.98 236.01 230.42Z"
fill-rule="evenodd" fill="black"/>
<path d="M236.01 230.42L245.45 228.02 236.01 208.05 236.01 230.42Z"
fill-rule="evenodd" fill="black"/>
<path d="M245.45 228.02L245.45 210.14 236.01 208.05 245.45 228.02Z"
fill-rule="evenodd" fill="black"/>
<path d="M245.45 228.02L245.73 227.95 245.45 210.14 245.45 228.02Z"
fill-rule="evenodd" fill="black"/>
<path d="M245.73 227.95L245.73 210.71 245.45 210.14 245.73 227.95Z"
fill-rule="evenodd" fill="black"/>
<path d="M245.73 227.95L249.82 219.16 245.73 210.71 245.73 227.95Z"
fill-rule="evenodd" fill="black"/>
</g>
<g><path d="M180.84 180.84L219.16 219.16"
fill="none" stroke="black" stroke-width="3"/>
</g>
<g><path d="M219.16 180.84L180.84 219.16"
fill="none" stroke="black" stroke-width="3"/>
</g>
<g><path d="M138.69 245.98L140.47 260.66M140.47 260.66L145.71 274.48M145.71 274.48L154.11 286.64M154.11 286.64L165.17 296.44M165.17 296.44L178.26 303.31M178.26 303.31L192.61 306.85M192.61 306.85L207.39 306.85M207.39 306.85L221.74 303.31M221.74 303.31L234.83 296.44M234.83 296.44L245.89 286.64M245.89 286.64L254.29 274.48M254.29 274.48L259.53 260.66M259.53 260.66L261.31 245.98"
fill="none" stroke="black" stroke-width="3"/>
</g>
<g><path d="M261.31 154.02L259.53 139.34M259.53 139.34L254.29 125.52M254.29 125.52L245.89 113.36M245.89 113.36L234.83 103.56M234.83 103.56L221.74 96.69M221.74 96.69L207.39 93.15M207.39 93.15L192.61 93.15M192.61 93.15L178.26 96.69M178.26 96.69L165.17 103.56M165.17 103.56L154.11 113.36M154.11 113.36L145.71 125.52M145.71 125.52L140.47 139.34M140.47 139.34L138.69 154.02"
fill="none" stroke="black" stroke-width="3"/>
</g>
<g><path d="M138.69 154.02L138.69 245.98"
fill="none" stroke="black" stroke-width="3"/>
</g>
<g><path d="M261.31 154.02L261.31 245.98"
fill="none" stroke="black" stroke-width="3"/>
</g>
<g><path d="M188.5 249.82L190.33 243.6M190.33 243.6L195.22 239.36M195.22 239.36L201.64 238.44M201.64 238.44L207.53 241.13M207.53 241.13L211.03 246.58M211.03 246.58L211.03 253.06M211.03 253.06L207.53 258.5M207.53 258.5L201.64 261.2M201.64 261.2L195.22 260.27M195.22 260.27L190.33 256.03M190.33 256.03L188.5 249.82"
fill="none" stroke="black" stroke-width="3"/>
</g>
<g><path d="M200.23 261.31L200.23 360.95"
fill="none" stroke="black" stroke-width="3"/>
</g>
<g><path d="M200.23 360.95L200.23 368.61"
fill="none" stroke="black" stroke-width="3"/>
</g>
<g><path d="M200.23 368.61L200.23 399.27"
fill="none" stroke="black" stroke-width="3"/>
</g>
<g><path d="M177.01 138.69L222.99 138.69"
fill="none" stroke="black" stroke-width="3"/>
</g>
<g><path d="M200 138.69L200 31.39"
fill="none" stroke="black" stroke-width="3"/>
</g>
<g><path d="M200 31.39L200 0.73"
fill="none" stroke="black" stroke-width="3"/>
</g>
<g><path d="M226.82 177.01L228.65 170.79M228.65 170.79L233.54 166.55M233.54 166.55L239.96 165.63M239.96 165.63L245.85 168.32M245.85 168.32L249.35 173.77M249.35 173.77L249.35 180.25M249.35 180.25L245.85 185.7M245.85 185.7L239.96 188.39M239.96 188.39L233.54 187.46M233.54 187.46L228.65 183.22M228.65 183.22L226.82 177.01"
fill="none" stroke="black" stroke-width="3"/>
</g>
<g><path d="M226.82 219.16L228.65 212.94M228.65 212.94L233.54 208.7M233.54 208.7L239.96 207.78M239.96 207.78L245.85 210.47M245.85 210.47L249.35 215.92M249.35 215.92L249.35 222.4M249.35 222.4L245.85 227.85M245.85 227.85L239.96 230.54M239.96 230.54L233.54 229.62M233.54 229.62L228.65 225.38M228.65 225.38L226.82 219.16"
fill="none" stroke="black" stroke-width="3"/>
</g>
</g>
</svg>
