<?xml version="1.0" standalone="no"?><svg xmlns="http://www.w3.org/2000/svg" width="400.000" height="400.000" viewBox="0.0 0.0 400.000 400.000" version="1.1">
  <title>Produce by Acme CAD Converter</title>
  <desc>Produce by Acme CAD Converter</desc>
<g id="0" display="visible">
<g><path d="M228.05 239.66L228.05 229.51 227.9 229.64 228.05 239.66Z"
fill-rule="evenodd" fill="black"/>
<path d="M228.05 239.66L235.66 245.48 228.05 229.51 228.05 239.66Z"
fill-rule="evenodd" fill="black"/>
<path d="M235.66 245.48L235.66 223.3 228.05 229.51 235.66 245.48Z"
fill-rule="evenodd" fill="black"/>
<path d="M235.66 245.48L236.01 245.75 235.66 223.3 235.66 245.48Z"
fill-rule="evenodd" fill="black"/>
<path d="M236.01 245.75L236.01 223.38 235.66 223.3 236.01 245.75Z"
fill-rule="evenodd" fill="black"/>
<path d="M236.01 245.75L245.45 243.35 236.01 223.38 236.01 245.75Z"
fill-rule="evenodd" fill="black"/>
<path d="M245.45 243.35L245.45 225.47 236.01 223.38 245.45 243.35Z"
fill-rule="evenodd" fill="black"/>
<path d="M245.45 243.35L245.73 243.28 245.45 225.47 245.45 243.35Z"
fill-rule="evenodd" fill="black"/>
<path d="M245.73 243.28L245.73 226.04 245.45 225.47 245.73 243.28Z"
fill-rule="evenodd" fill="black"/>
<path d="M245.73 243.28L249.82 234.49 245.73 226.04 245.73 243.28Z"
fill-rule="evenodd" fill="black"/>
</g>
<g><path d="M228.05 205.17L228.05 195.02 227.9 195.15 228.05 205.17Z"
fill-rule="evenodd" fill="black"/>
<path d="M228.05 205.17L235.66 210.99 228.05 195.02 228.05 205.17Z"
fill-rule="evenodd" fill="black"/>
<path d="M235.66 210.99L235.66 188.82 228.05 195.02 235.66 210.99Z"
fill-rule="evenodd" fill="black"/>
<path d="M235.66 210.99L236.01 211.26 235.66 188.82 235.66 210.99Z"
fill-rule="evenodd" fill="black"/>
<path d="M236.01 211.26L236.01 188.89 235.66 188.82 236.01 211.26Z"
fill-rule="evenodd" fill="black"/>
<path d="M236.01 211.26L245.45 208.86 236.01 188.89 236.01 211.26Z"
fill-rule="evenodd" fill="black"/>
<path d="M245.45 208.86L245.45 190.98 236.01 188.89 245.45 208.86Z"
fill-rule="evenodd" fill="black"/>
<path d="M245.45 208.86L245.73 208.79 245.45 190.98 245.45 208.86Z"
fill-rule="evenodd" fill="black"/>
<path d="M245.73 208.79L245.73 191.55 245.45 190.98 245.73 208.79Z"
fill-rule="evenodd" fill="black"/>
<path d="M245.73 208.79L249.82 200 245.73 191.55 245.73 208.79Z"
fill-rule="evenodd" fill="black"/>
</g>
<g><path d="M228.05 170.68L228.05 160.53 227.9 160.66 228.05 170.68Z"
fill-rule="evenodd" fill="black"/>
<path d="M228.05 170.68L235.66 176.51 228.05 160.53 228.05 170.68Z"
fill-rule="evenodd" fill="black"/>
<path d="M235.66 176.51L235.66 154.33 228.05 160.53 235.66 176.51Z"
fill-rule="evenodd" fill="black"/>
<path d="M235.66 176.51L236.01 176.77 235.66 154.33 235.66 176.51Z"
fill-rule="evenodd" fill="black"/>
<path d="M236.01 176.77L236.01 154.4 235.66 154.33 236.01 176.77Z"
fill-rule="evenodd" fill="black"/>
<path d="M236.01 176.77L245.45 174.38 236.01 154.4 236.01 176.77Z"
fill-rule="evenodd" fill="black"/>
<path d="M245.45 174.38L245.45 156.49 236.01 154.4 245.45 174.38Z"
fill-rule="evenodd" fill="black"/>
<path d="M245.45 174.38L245.73 174.3 245.45 156.49 245.45 174.38Z"
fill-rule="evenodd" fill="black"/>
<path d="M245.73 174.3L245.73 157.07 245.45 156.49 245.73 174.3Z"
fill-rule="evenodd" fill="black"/>
<path d="M245.73 174.3L249.82 165.51 245.73 157.07 245.73 174.3Z"
fill-rule="evenodd" fill="black"/>
</g>
<g><path d="M188.5 249.82L190.33 243.6M190.33 243.6L195.22 239.36M195.22 239.36L201.64 238.44M201.64 238.44L207.53 241.13M207.53 241.13L211.03 246.58M211.03 246.58L211.03 253.06M211.03 253.06L207.53 258.5M207.53 258.5L201.64 261.2M201.64 261.2L195.22 260.27M195.22 260.27L190.33 256.03M190.33 256.03L188.5 249.82"
fill="none" stroke="black" stroke-width="3"/>
</g>
<g><path d="M200.23 261.31L200.23 360.95"
fill="none" stroke="black" stroke-width="3"/>
</g>
<g><path d="M200.23 360.95L200.23 368.61"
fill="none" stroke="black" stroke-width="3"/>
</g>
<g><path d="M200.23 368.61L200.23 399.27"
fill="none" stroke="black" stroke-width="3"/>
</g>
<g><path d="M138.69 245.98L140.47 260.66M140.47 260.66L145.71 274.48M145.71 274.48L154.11 286.64M154.11 286.64L165.17 296.44M165.17 296.44L178.26 303.31M178.26 303.31L192.61 306.85M192.61 306.85L207.39 306.85M207.39 306.85L221.74 303.31M221.74 303.31L234.83 296.44M234.83 296.44L245.89 286.64M245.89 286.64L254.29 274.48M254.29 274.48L259.53 260.66M259.53 260.66L261.31 245.98"
fill="none" stroke="black" stroke-width="3"/>
</g>
<g><path d="M261.31 154.02L259.53 139.34M259.53 139.34L254.29 125.52M254.29 125.52L245.89 113.36M245.89 113.36L234.83 103.56M234.83 103.56L221.74 96.69M221.74 96.69L207.39 93.15M207.39 93.15L192.61 93.15M192.61 93.15L178.26 96.69M178.26 96.69L165.17 103.56M165.17 103.56L154.11 113.36M154.11 113.36L145.71 125.52M145.71 125.52L140.47 139.34M140.47 139.34L138.69 154.02"
fill="none" stroke="black" stroke-width="3"/>
</g>
<g><path d="M138.69 154.02L138.69 245.98"
fill="none" stroke="black" stroke-width="3"/>
</g>
<g><path d="M261.31 154.02L261.31 245.98"
fill="none" stroke="black" stroke-width="3"/>
</g>
<g><path d="M180.84 180.84L219.16 219.16"
fill="none" stroke="black" stroke-width="3"/>
</g>
<g><path d="M219.16 180.84L180.84 219.16"
fill="none" stroke="black" stroke-width="3"/>
</g>
<g><path d="M177.01 138.69L222.99 138.69"
fill="none" stroke="black" stroke-width="3"/>
</g>
<g><path d="M200 138.69L200 31.39"
fill="none" stroke="black" stroke-width="3"/>
</g>
<g><path d="M200 31.39L200 0.73"
fill="none" stroke="black" stroke-width="3"/>
</g>
<g><path d="M226.82 234.49L228.65 228.27M228.65 228.27L233.54 224.03M233.54 224.03L239.96 223.11M239.96 223.11L245.85 225.8M245.85 225.8L249.35 231.25M249.35 231.25L249.35 237.73M249.35 237.73L245.85 243.18M245.85 243.18L239.96 245.87M239.96 245.87L233.54 244.95M233.54 244.95L228.65 240.7M228.65 240.7L226.82 234.49"
fill="none" stroke="black" stroke-width="3"/>
</g>
<g><path d="M226.82 200L228.65 193.78M228.65 193.78L233.54 189.54M233.54 189.54L239.96 188.62M239.96 188.62L245.85 191.31M245.85 191.31L249.35 196.76M249.35 196.76L249.35 203.24M249.35 203.24L245.85 208.69M245.85 208.69L239.96 211.38M239.96 211.38L233.54 210.46M233.54 210.46L228.65 206.22M228.65 206.22L226.82 200"
fill="none" stroke="black" stroke-width="3"/>
</g>
<g><path d="M226.82 165.51L228.65 159.3M228.65 159.3L233.54 155.05M233.54 155.05L239.96 154.13M239.96 154.13L245.85 156.82M245.85 156.82L249.35 162.27M249.35 162.27L249.35 168.75M249.35 168.75L245.85 174.2M245.85 174.2L239.96 176.89M239.96 176.89L233.54 175.97M233.54 175.97L228.65 171.73M228.65 171.73L226.82 165.51"
fill="none" stroke="black" stroke-width="3"/>
</g>
</g>
</svg>
