<?xml version="1.0" standalone="no"?><svg xmlns="http://www.w3.org/2000/svg" width="400.000" height="400.000" viewBox="0.0 0.0 400.000 400.000" version="1.1">
  <title>Produce by Acme CAD Converter</title>
  <desc>Produce by Acme CAD Converter</desc>
<g id="0" display="visible">
<g><path d="M255.95 205.27L255.95 194.93 255.79 195.06 255.95 205.27Z"
fill-rule="evenodd" fill="black"/>
<path d="M255.95 205.27L263.71 211.21 255.95 194.93 255.95 205.27Z"
fill-rule="evenodd" fill="black"/>
<path d="M263.71 211.21L263.71 188.6 255.95 194.93 263.71 211.21Z"
fill-rule="evenodd" fill="black"/>
<path d="M263.71 211.21L264.07 211.48 263.71 188.6 263.71 211.21Z"
fill-rule="evenodd" fill="black"/>
<path d="M264.07 211.48L264.07 188.67 263.71 188.6 264.07 211.48Z"
fill-rule="evenodd" fill="black"/>
<path d="M264.07 211.48L273.69 209.04 264.07 188.67 264.07 211.48Z"
fill-rule="evenodd" fill="black"/>
<path d="M273.69 209.04L273.69 190.8 264.07 188.67 273.69 209.04Z"
fill-rule="evenodd" fill="black"/>
<path d="M273.69 209.04L273.97 208.97 273.69 190.8 273.69 209.04Z"
fill-rule="evenodd" fill="black"/>
<path d="M273.97 208.97L273.97 191.39 273.69 190.8 273.97 208.97Z"
fill-rule="evenodd" fill="black"/>
<path d="M273.97 208.97L278.14 200 273.97 191.39 273.97 208.97Z"
fill-rule="evenodd" fill="black"/>
</g>
<g><path d="M255.95 170.11L255.95 159.76 255.79 159.89 255.95 170.11Z"
fill-rule="evenodd" fill="black"/>
<path d="M255.95 170.11L263.71 176.05 255.95 159.76 255.95 170.11Z"
fill-rule="evenodd" fill="black"/>
<path d="M263.71 176.05L263.71 153.43 255.95 159.76 263.71 176.05Z"
fill-rule="evenodd" fill="black"/>
<path d="M263.71 176.05L264.07 176.32 263.71 153.43 263.71 176.05Z"
fill-rule="evenodd" fill="black"/>
<path d="M264.07 176.32L264.07 153.51 263.71 153.43 264.07 176.32Z"
fill-rule="evenodd" fill="black"/>
<path d="M264.07 176.32L273.69 173.87 264.07 153.51 264.07 176.32Z"
fill-rule="evenodd" fill="black"/>
<path d="M273.69 173.87L273.69 155.64 264.07 153.51 273.69 173.87Z"
fill-rule="evenodd" fill="black"/>
<path d="M273.69 173.87L273.97 173.8 273.69 155.64 273.69 173.87Z"
fill-rule="evenodd" fill="black"/>
<path d="M273.97 173.8L273.97 156.22 273.69 155.64 273.97 173.8Z"
fill-rule="evenodd" fill="black"/>
<path d="M273.97 173.8L278.14 164.84 273.97 156.22 273.97 173.8Z"
fill-rule="evenodd" fill="black"/>
</g>
<g><path d="M255.95 240.44L255.95 230.09 255.79 230.22 255.95 240.44Z"
fill-rule="evenodd" fill="black"/>
<path d="M255.95 240.44L263.71 246.37 255.95 230.09 255.95 240.44Z"
fill-rule="evenodd" fill="black"/>
<path d="M263.71 246.37L263.71 223.76 255.95 230.09 263.71 246.37Z"
fill-rule="evenodd" fill="black"/>
<path d="M263.71 246.37L264.07 246.65 263.71 223.76 263.71 246.37Z"
fill-rule="evenodd" fill="black"/>
<path d="M264.07 246.65L264.07 223.84 263.71 223.76 264.07 246.65Z"
fill-rule="evenodd" fill="black"/>
<path d="M264.07 246.65L273.69 244.2 264.07 223.84 264.07 246.65Z"
fill-rule="evenodd" fill="black"/>
<path d="M273.69 244.2L273.69 225.97 264.07 223.84 273.69 244.2Z"
fill-rule="evenodd" fill="black"/>
<path d="M273.69 244.2L273.97 244.13 273.69 225.97 273.69 244.2Z"
fill-rule="evenodd" fill="black"/>
<path d="M273.97 244.13L273.97 226.55 273.69 225.97 273.97 244.13Z"
fill-rule="evenodd" fill="black"/>
<path d="M273.97 244.13L278.14 235.16 273.97 226.55 273.97 244.13Z"
fill-rule="evenodd" fill="black"/>
</g>
<g><path d="M207.81 180.46L246.89 219.54"
fill="none" stroke="black" stroke-width="3"/>
</g>
<g><path d="M246.89 180.46L207.81 219.54"
fill="none" stroke="black" stroke-width="3"/>
</g>
<g><path d="M110.13 184.37L180.46 184.37M180.46 184.37L203.91 207.81"
fill="none" stroke="black" stroke-width=".5"/>
</g>
<g><path d="M254.7 200L256.56 193.66M256.56 193.66L261.55 189.34M261.55 189.34L268.09 188.4M268.09 188.4L274.1 191.14M274.1 191.14L277.67 196.7M277.67 196.7L277.67 203.3M277.67 203.3L274.1 208.86M274.1 208.86L268.09 211.6M268.09 211.6L261.55 210.66M261.55 210.66L256.56 206.34M256.56 206.34L254.7 200"
fill="none" stroke="black" stroke-width="3"/>
</g>
<g><path d="M164.84 246.89L166.65 261.85M166.65 261.85L172 275.94M172 275.94L180.56 288.34M180.56 288.34L191.84 298.34M191.84 298.34L205.18 305.34M205.18 305.34L219.81 308.95M219.81 308.95L234.89 308.95M234.89 308.95L249.52 305.34M249.52 305.34L262.86 298.34M262.86 298.34L274.14 288.34M274.14 288.34L282.7 275.94M282.7 275.94L288.05 261.85M288.05 261.85L289.87 246.89"
fill="none" stroke="black" stroke-width="3"/>
</g>
<g><path d="M289.87 153.11L288.05 138.15M288.05 138.15L282.7 124.06M282.7 124.06L274.14 111.66M274.14 111.66L262.86 101.66M262.86 101.66L249.52 94.66M249.52 94.66L234.89 91.05M234.89 91.05L219.81 91.05M219.81 91.05L205.18 94.66M205.18 94.66L191.84 101.66M191.84 101.66L180.56 111.66M180.56 111.66L172 124.06M172 124.06L166.65 138.15M166.65 138.15L164.84 153.11"
fill="none" stroke="black" stroke-width="3"/>
</g>
<g><path d="M164.84 153.11L164.84 246.89"
fill="none" stroke="black" stroke-width="3"/>
</g>
<g><path d="M289.87 153.11L289.87 246.89"
fill="none" stroke="black" stroke-width="3"/>
</g>
<g><path d="M215.63 153.11L217.49 146.78M217.49 146.78L222.48 142.45M222.48 142.45L229.02 141.51M229.02 141.51L235.03 144.26M235.03 144.26L238.6 149.81M238.6 149.81L238.6 156.42M238.6 156.42L235.03 161.97M235.03 161.97L229.02 164.72M229.02 164.72L222.48 163.78M222.48 163.78L217.49 159.45M217.49 159.45L215.63 153.11"
fill="none" stroke="black" stroke-width="3"/>
</g>
<g><path d="M227.58 141.39L227.58 39.81"
fill="none" stroke="black" stroke-width="3"/>
</g>
<g><path d="M227.58 39.81L227.58 31.99"
fill="none" stroke="black" stroke-width="3"/>
</g>
<g><path d="M227.58 31.99L227.58 0.73"
fill="none" stroke="black" stroke-width="3"/>
</g>
<g><path d="M203.91 137.48L250.79 137.48"
fill="none" stroke="black" stroke-width="3"/>
</g>
<g><path d="M254.7 164.84L256.56 158.5M256.56 158.5L261.55 154.17M261.55 154.17L268.09 153.23M268.09 153.23L274.1 155.98M274.1 155.98L277.67 161.53M277.67 161.53L277.67 168.14M277.67 168.14L274.1 173.69M274.1 173.69L268.09 176.44M268.09 176.44L261.55 175.5M261.55 175.5L256.56 171.17M256.56 171.17L254.7 164.84"
fill="none" stroke="black" stroke-width="3"/>
</g>
<g><path d="M254.7 235.16L256.56 228.83M256.56 228.83L261.55 224.5M261.55 224.5L268.09 223.56M268.09 223.56L274.1 226.31M274.1 226.31L277.67 231.86M277.67 231.86L277.67 238.47M277.67 238.47L274.1 244.02M274.1 244.02L268.09 246.77M268.09 246.77L261.55 245.83M261.55 245.83L256.56 241.5M256.56 241.5L254.7 235.16"
fill="none" stroke="black" stroke-width="3"/>
</g>
<g><path d="M215.63 246.89L217.49 240.55M217.49 240.55L222.48 236.22M222.48 236.22L229.02 235.28M229.02 235.28L235.03 238.03M235.03 238.03L238.6 243.58M238.6 243.58L238.6 250.19M238.6 250.19L235.03 255.74M235.03 255.74L229.02 258.49M229.02 258.49L222.48 257.55M222.48 257.55L217.49 253.22M217.49 253.22L215.63 246.89"
fill="none" stroke="black" stroke-width="3"/>
</g>
<g><path d="M227.58 258.61L227.58 360.19"
fill="none" stroke="black" stroke-width="3"/>
</g>
<g><path d="M227.58 360.19L227.58 368.01"
fill="none" stroke="black" stroke-width="3"/>
</g>
<g><path d="M227.58 368.01L227.58 399.27"
fill="none" stroke="black" stroke-width="3"/>
</g>
<g><path d="M203.91 262.52L250.79 262.52"
fill="none" stroke="black" stroke-width="3"/>
</g>
</g>
</svg>
