<?xml version="1.0" standalone="no"?><svg xmlns="http://www.w3.org/2000/svg" width="400.000" height="400.000" viewBox="0.0 0.0 400.000 400.000" version="1.1">
  <title>Produce by Acme CAD Converter</title>
  <desc>Produce by Acme CAD Converter</desc>
<g id="0" display="visible">
<g><path d="M224.46 207.16L224.46 196.91 224.3 197.04 224.46 207.16Z"
fill-rule="evenodd" fill="black"/>
<path d="M224.46 207.16L232.14 213.04 224.46 196.91 224.46 207.16Z"
fill-rule="evenodd" fill="black"/>
<path d="M232.14 213.04L232.14 190.64 224.46 196.91 232.14 213.04Z"
fill-rule="evenodd" fill="black"/>
<path d="M232.14 213.04L232.49 213.31 232.14 190.64 232.14 213.04Z"
fill-rule="evenodd" fill="black"/>
<path d="M232.49 213.31L232.49 190.72 232.14 190.64 232.49 213.31Z"
fill-rule="evenodd" fill="black"/>
<path d="M232.49 213.31L242.02 210.88 232.49 190.72 232.49 213.31Z"
fill-rule="evenodd" fill="black"/>
<path d="M242.02 210.88L242.02 192.83 232.49 190.72 242.02 210.88Z"
fill-rule="evenodd" fill="black"/>
<path d="M242.02 210.88L242.3 210.81 242.02 192.83 242.02 210.88Z"
fill-rule="evenodd" fill="black"/>
<path d="M242.3 210.81L242.3 193.41 242.02 192.83 242.3 210.81Z"
fill-rule="evenodd" fill="black"/>
<path d="M242.3 210.81L246.43 201.93 242.3 193.41 242.3 210.81Z"
fill-rule="evenodd" fill="black"/>
</g>
<g><path d="M200 306.4L200 368.31"
fill="none" stroke="black" stroke-width="3"/>
</g>
<g><path d="M200 368.31L200 399.27"
fill="none" stroke="black" stroke-width="3"/>
</g>
<g><path d="M188.39 248.37L190.23 242.09M190.23 242.09L195.18 237.81M195.18 237.81L201.65 236.88M201.65 236.88L207.6 239.59M207.6 239.59L211.14 245.1M211.14 245.1L211.14 251.64M211.14 251.64L207.6 257.14M207.6 257.14L201.65 259.86M201.65 259.86L195.18 258.92M195.18 258.92L190.23 254.64M190.23 254.64L188.39 248.37"
fill="none" stroke="black" stroke-width="3"/>
</g>
<g><path d="M188.39 248.37L211.61 248.37"
fill="none" stroke="black" stroke-width="3"/>
</g>
<g><path d="M192.26 248.37L211.61 248.37"
fill="none" stroke="black" stroke-width="3"/>
</g>
<g><path d="M210.11 242.65L189.89 242.65"
fill="none" stroke="black" stroke-width="3"/>
</g>
<g><path d="M192.26 242.65L200 242.65"
fill="none" stroke="black" stroke-width="3"/>
</g>
<g><path d="M207.74 242.65L200 242.65"
fill="none" stroke="black" stroke-width="3"/>
</g>
<g><path d="M193.23 238.94L206.77 238.94"
fill="none" stroke="black" stroke-width="3"/>
</g>
<g><path d="M189.89 242.65L210.11 242.65"
fill="none" stroke="black" stroke-width="3"/>
</g>
<g><path d="M211.22 245.4L188.78 245.4"
fill="none" stroke="black" stroke-width="3"/>
</g>
<g><path d="M200 306.4L200 259.97"
fill="none" stroke="black" stroke-width="3"/>
</g>
<g><path d="M138.09 248.37L139.89 263.18M139.89 263.18L145.18 277.14M145.18 277.14L153.66 289.42M153.66 289.42L164.83 299.32M164.83 299.32L178.05 306.25M178.05 306.25L192.54 309.82M192.54 309.82L207.46 309.82M207.46 309.82L221.95 306.25M221.95 306.25L235.17 299.32M235.17 299.32L246.34 289.42M246.34 289.42L254.82 277.14M254.82 277.14L260.11 263.18M260.11 263.18L261.91 248.37"
fill="none" stroke="black" stroke-width="3"/>
</g>
<g><path d="M261.91 155.5L260.11 140.69M260.11 140.69L254.82 126.73M254.82 126.73L246.34 114.45M246.34 114.45L235.17 104.55M235.17 104.55L221.95 97.62M221.95 97.62L207.46 94.05M207.46 94.05L192.54 94.05M192.54 94.05L178.05 97.62M178.05 97.62L164.83 104.55M164.83 104.55L153.66 114.45M153.66 114.45L145.18 126.73M145.18 126.73L139.89 140.69M139.89 140.69L138.09 155.5"
fill="none" stroke="black" stroke-width="3"/>
</g>
<g><path d="M138.09 155.5L138.09 248.37"
fill="none" stroke="black" stroke-width="3"/>
</g>
<g><path d="M261.91 155.5L261.91 248.37"
fill="none" stroke="black" stroke-width="3"/>
</g>
<g><path d="M180.65 182.59L219.35 221.28"
fill="none" stroke="black" stroke-width="3"/>
</g>
<g><path d="M219.35 182.59L180.65 221.28"
fill="none" stroke="black" stroke-width="3"/>
</g>
<g><path d="M176.78 140.03L223.22 140.03"
fill="none" stroke="black" stroke-width="3"/>
</g>
<g><path d="M200 140.03L200 31.69"
fill="none" stroke="black" stroke-width="3"/>
</g>
<g><path d="M200 31.69L200 0.73"
fill="none" stroke="black" stroke-width="3"/>
</g>
<g><path d="M223.22 201.93L225.06 195.66M225.06 195.66L230 191.38M230 191.38L236.48 190.45M236.48 190.45L242.42 193.16M242.42 193.16L245.96 198.66M245.96 198.66L245.96 205.2M245.96 205.2L242.42 210.71M242.42 210.71L236.48 213.42M236.48 213.42L230 212.49M230 212.49L225.06 208.21M225.06 208.21L223.22 201.93"
fill="none" stroke="black" stroke-width="3"/>
</g>
</g>
</svg>
