<?xml version="1.0" standalone="no"?><svg xmlns="http://www.w3.org/2000/svg" width="400.000" height="400.000" viewBox="0.0 0.0 400.000 400.000" version="1.1">
  <title>Produce by Acme CAD Converter</title>
  <desc>Produce by Acme CAD Converter</desc>
<g id="0" display="visible">
<g><path d="M234.45 205.17L234.45 195.02 234.29 195.15 234.45 205.17Z"
fill-rule="evenodd" fill="black"/>
<path d="M234.45 205.17L242.06 210.99 234.45 195.02 234.45 205.17Z"
fill-rule="evenodd" fill="black"/>
<path d="M242.06 210.99L242.06 188.82 234.45 195.02 242.06 210.99Z"
fill-rule="evenodd" fill="black"/>
<path d="M242.06 210.99L242.41 211.26 242.06 188.82 242.06 210.99Z"
fill-rule="evenodd" fill="black"/>
<path d="M242.41 211.26L242.41 188.89 242.06 188.82 242.41 211.26Z"
fill-rule="evenodd" fill="black"/>
<path d="M242.41 211.26L251.84 208.86 242.41 188.89 242.41 211.26Z"
fill-rule="evenodd" fill="black"/>
<path d="M251.84 208.86L251.84 190.98 242.41 188.89 251.84 208.86Z"
fill-rule="evenodd" fill="black"/>
<path d="M251.84 208.86L252.12 208.79 251.84 190.98 251.84 208.86Z"
fill-rule="evenodd" fill="black"/>
<path d="M252.12 208.79L252.12 191.55 251.84 190.98 252.12 208.79Z"
fill-rule="evenodd" fill="black"/>
<path d="M252.12 208.79L256.21 200 252.12 191.55 252.12 208.79Z"
fill-rule="evenodd" fill="black"/>
</g>
<g><path d="M148.91 245.98L150.7 260.66M150.7 260.66L155.94 274.48M155.94 274.48L164.33 286.64M164.33 286.64L175.4 296.44M175.4 296.44L188.49 303.31M188.49 303.31L202.84 306.85M202.84 306.85L217.62 306.85M217.62 306.85L231.97 303.31M231.97 303.31L245.06 296.44M245.06 296.44L256.12 286.64M256.12 286.64L264.52 274.48M264.52 274.48L269.76 260.66M269.76 260.66L271.54 245.98"
fill="none" stroke="black" stroke-width="3"/>
</g>
<g><path d="M271.54 154.02L269.76 139.34M269.76 139.34L264.52 125.52M264.52 125.52L256.12 113.36M256.12 113.36L245.06 103.56M245.06 103.56L231.97 96.69M231.97 96.69L217.62 93.15M217.62 93.15L202.84 93.15M202.84 93.15L188.49 96.69M188.49 96.69L175.4 103.56M175.4 103.56L164.33 113.36M164.33 113.36L155.94 125.52M155.94 125.52L150.7 139.34M150.7 139.34L148.91 154.02"
fill="none" stroke="black" stroke-width="3"/>
</g>
<g><path d="M148.91 154.02L148.91 245.98"
fill="none" stroke="black" stroke-width="3"/>
</g>
<g><path d="M271.54 154.02L271.54 245.98"
fill="none" stroke="black" stroke-width="3"/>
</g>
<g><path d="M191.07 180.84L229.39 219.16"
fill="none" stroke="black" stroke-width="3"/>
</g>
<g><path d="M229.39 180.84L191.07 219.16"
fill="none" stroke="black" stroke-width="3"/>
</g>
<g><path d="M198.73 249.82L200.56 243.6M200.56 243.6L205.45 239.36M205.45 239.36L211.86 238.44M211.86 238.44L217.76 241.13M217.76 241.13L221.26 246.58M221.26 246.58L221.26 253.06M221.26 253.06L217.76 258.5M217.76 258.5L211.86 261.2M211.86 261.2L205.45 260.27M205.45 260.27L200.56 256.03M200.56 256.03L198.73 249.82"
fill="none" stroke="black" stroke-width="3"/>
</g>
<g><path d="M210.45 261.31L210.45 360.95"
fill="none" stroke="black" stroke-width="3"/>
</g>
<g><path d="M210.45 360.95L210.45 368.61"
fill="none" stroke="black" stroke-width="3"/>
</g>
<g><path d="M210.45 368.61L210.45 399.27"
fill="none" stroke="black" stroke-width="3"/>
</g>
<g><path d="M187.24 138.69L233.22 138.69"
fill="none" stroke="black" stroke-width="3"/>
</g>
<g><path d="M210.23 138.69L210.23 31.39"
fill="none" stroke="black" stroke-width="3"/>
</g>
<g><path d="M210.23 31.39L210.23 0.73"
fill="none" stroke="black" stroke-width="3"/>
</g>
<g><path d="M233.22 200L235.04 193.78M235.04 193.78L239.94 189.54M239.94 189.54L246.35 188.62M246.35 188.62L252.24 191.31M252.24 191.31L255.75 196.76M255.75 196.76L255.75 203.24M255.75 203.24L252.24 208.69M252.24 208.69L246.35 211.38M246.35 211.38L239.94 210.46M239.94 210.46L235.04 206.22M235.04 206.22L233.22 200"
fill="none" stroke="black" stroke-width="3"/>
</g>
<g><path d="M148.91 291.97L118.26 261.31M118.26 261.31L41.62 261.31"
fill="none" stroke="black" stroke-width=".5"/>
</g>
<g><path d="M326.92 170.73L311.19 213.94"
fill="none" stroke="black" stroke-width="3"/>
</g>
<g><path d="M311.19 213.94L294.53 213.94"
fill="none" stroke="black" stroke-width="3"/>
</g>
<g><path d="M326.92 170.73L341.72 213.65"
fill="none" stroke="black" stroke-width="3"/>
</g>
<g><path d="M358.38 213.65L341.72 213.65"
fill="none" stroke="black" stroke-width="3"/>
</g>
</g>
</svg>
