<?xml version="1.0" standalone="no"?><svg xmlns="http://www.w3.org/2000/svg" width="400.000" height="400.000" viewBox="0.0 0.0 400.000 400.000" version="1.1">
  <title>Produce by Acme CAD Converter</title>
  <desc>Produce by Acme CAD Converter</desc>
<g id="0" display="visible">
<g><path d="M274.99 197.6L274.99 187.83 274.84 187.95 274.99 197.6Z"
fill-rule="evenodd" fill="black"/>
<path d="M274.99 197.6L282.31 203.21 274.99 187.83 274.99 197.6Z"
fill-rule="evenodd" fill="black"/>
<path d="M282.31 203.21L282.31 181.85 274.99 187.83 282.31 203.21Z"
fill-rule="evenodd" fill="black"/>
<path d="M282.31 203.21L282.65 203.46 282.31 181.85 282.31 203.21Z"
fill-rule="evenodd" fill="black"/>
<path d="M282.65 203.46L282.65 181.92 282.31 181.85 282.65 203.46Z"
fill-rule="evenodd" fill="black"/>
<path d="M282.65 203.46L291.74 201.16 282.65 181.92 282.65 203.46Z"
fill-rule="evenodd" fill="black"/>
<path d="M291.74 201.16L291.74 183.93 282.65 181.92 291.74 201.16Z"
fill-rule="evenodd" fill="black"/>
<path d="M291.74 201.16L292 201.09 291.74 183.93 291.74 201.16Z"
fill-rule="evenodd" fill="black"/>
<path d="M292 201.09L292 184.49 291.74 183.93 292 201.09Z"
fill-rule="evenodd" fill="black"/>
<path d="M292 201.09L295.94 192.62 292 184.49 292 201.09Z"
fill-rule="evenodd" fill="black"/>
</g>
<g><path d="M233.21 174.17L270.11 211.07"
fill="none" stroke="black" stroke-width="3"/>
</g>
<g><path d="M270.11 174.17L233.21 211.07"
fill="none" stroke="black" stroke-width="3"/>
</g>
<g><path d="M192.62 281.18L163.1 251.66M163.1 251.66L89.3 251.66"
fill="none" stroke="black" stroke-width=".5"/>
</g>
<g><path d="M192.62 236.9L194.34 251.03M194.34 251.03L199.38 264.34M199.38 264.34L207.47 276.05M207.47 276.05L218.12 285.49M218.12 285.49L230.73 292.11M230.73 292.11L244.55 295.51M244.55 295.51L258.78 295.51M258.78 295.51L272.6 292.11M272.6 292.11L285.2 285.49M285.2 285.49L295.86 276.05M295.86 276.05L303.94 264.34M303.94 264.34L308.99 251.03M308.99 251.03L310.7 236.9"
fill="none" stroke="black" stroke-width="3"/>
</g>
<g><path d="M310.7 148.34L308.99 134.21M308.99 134.21L303.94 120.9M303.94 120.9L295.86 109.19M295.86 109.19L285.2 99.75M285.2 99.75L272.6 93.13M272.6 93.13L258.78 89.73M258.78 89.73L244.55 89.73M244.55 89.73L230.73 93.13M230.73 93.13L218.12 99.75M218.12 99.75L207.47 109.19M207.47 109.19L199.38 120.9M199.38 120.9L194.34 134.21M194.34 134.21L192.62 148.34"
fill="none" stroke="black" stroke-width="3"/>
</g>
<g><path d="M192.62 148.34L192.62 236.9"
fill="none" stroke="black" stroke-width="3"/>
</g>
<g><path d="M310.7 148.34L310.7 236.9"
fill="none" stroke="black" stroke-width="3"/>
</g>
<g><path d="M273.8 192.62L275.56 186.63M275.56 186.63L280.27 182.55M280.27 182.55L286.45 181.66M286.45 181.66L292.12 184.25M292.12 184.25L295.49 189.5M295.49 189.5L295.49 195.74M295.49 195.74L292.12 200.99M292.12 200.99L286.45 203.58M286.45 203.58L280.27 202.69M280.27 202.69L275.56 198.6M275.56 198.6L273.8 192.62"
fill="none" stroke="black" stroke-width="3"/>
</g>
<g><path d="M229.52 133.58L273.8 133.58"
fill="none" stroke="black" stroke-width="3"/>
</g>
<g><path d="M251.66 133.58L251.66 30.25"
fill="none" stroke="black" stroke-width="3"/>
</g>
<g><path d="M251.66 30.25L251.66 0.73"
fill="none" stroke="black" stroke-width="3"/>
</g>
<g><path d="M194.49 251.66L308.83 251.66"
fill="none" stroke="black" stroke-width="3"/>
</g>
<g><path d="M251.66 266.42L251.66 399.27"
fill="none" stroke="black" stroke-width="3"/>
</g>
</g>
</svg>
