<?xml version="1.0" standalone="no"?><svg xmlns="http://www.w3.org/2000/svg" width="400.000" height="400.000" viewBox="0.0 0.0 400.000 400.000" version="1.1">
  <title>Produce by Acme CAD Converter</title>
  <desc>Produce by Acme CAD Converter</desc>
<g id="0" display="visible">
<g><path d="M222.49 204.8L222.49 195.38 222.35 195.5 222.49 204.8Z"
fill-rule="evenodd" fill="black"/>
<path d="M222.49 204.8L229.56 210.21 222.49 195.38 222.49 204.8Z"
fill-rule="evenodd" fill="black"/>
<path d="M229.56 210.21L229.56 189.61 222.49 195.38 229.56 210.21Z"
fill-rule="evenodd" fill="black"/>
<path d="M229.56 210.21L229.88 210.46 229.56 189.61 229.56 210.21Z"
fill-rule="evenodd" fill="black"/>
<path d="M229.88 210.46L229.88 189.69 229.56 189.61 229.88 210.46Z"
fill-rule="evenodd" fill="black"/>
<path d="M229.88 210.46L238.64 208.23 229.88 189.69 229.88 210.46Z"
fill-rule="evenodd" fill="black"/>
<path d="M238.64 208.23L238.64 191.62 229.88 189.69 238.64 208.23Z"
fill-rule="evenodd" fill="black"/>
<path d="M238.64 208.23L238.9 208.17 238.64 191.62 238.64 208.23Z"
fill-rule="evenodd" fill="black"/>
<path d="M238.9 208.17L238.9 192.16 238.64 191.62 238.9 208.17Z"
fill-rule="evenodd" fill="black"/>
<path d="M238.9 208.17L242.7 200 238.9 192.16 238.9 208.17Z"
fill-rule="evenodd" fill="black"/>
</g>
<g><path d="M182.21 182.21L217.79 217.79"
fill="none" stroke="black" stroke-width="3"/>
</g>
<g><path d="M217.79 182.21L182.21 217.79"
fill="none" stroke="black" stroke-width="3"/>
</g>
<g><path d="M143.07 242.7L145.01 257.44M145.01 257.44L150.69 271.17M150.69 271.17L159.74 282.96M159.74 282.96L171.53 292.01M171.53 292.01L185.26 297.69M185.26 297.69L200 299.63M200 299.63L214.74 297.69M214.74 297.69L228.47 292.01M228.47 292.01L240.26 282.96M240.26 282.96L249.31 271.17M249.31 271.17L254.99 257.44M254.99 257.44L256.93 242.7"
fill="none" stroke="black" stroke-width="3"/>
</g>
<g><path d="M256.93 157.3L254.99 142.56M254.99 142.56L249.31 128.83M249.31 128.83L240.26 117.04M240.26 117.04L228.47 107.99M228.47 107.99L214.74 102.31M214.74 102.31L200 100.37M200 100.37L185.26 102.31M185.26 102.31L171.53 107.99M171.53 107.99L159.74 117.04M159.74 117.04L150.69 128.83M150.69 128.83L145.01 142.56M145.01 142.56L143.07 157.3"
fill="none" stroke="black" stroke-width="3"/>
</g>
<g><path d="M143.07 157.3L143.07 242.7"
fill="none" stroke="black" stroke-width="3"/>
</g>
<g><path d="M256.93 157.3L256.93 242.7"
fill="none" stroke="black" stroke-width="3"/>
</g>
<g><path d="M178.7 123.14L178.7 0.73"
fill="none" stroke="black" stroke-width="3"/>
</g>
<g><path d="M221.3 43.43L221.3 2.19"
fill="none" stroke="black" stroke-width="3"/>
</g>
<g><path d="M221.3 29.2L221.3 27.75"
fill="none" stroke="black" stroke-width="3"/>
</g>
<g><path d="M221.35 121.72L221.3 120.26"
fill="none" stroke="black" stroke-width="3"/>
</g>
<g><path d="M178.65 121.72L180.28 129.89M180.28 129.89L184.9 136.81M184.9 136.81L191.83 141.44M191.83 141.44L200 143.07"
fill="none" stroke="black" stroke-width="3"/>
</g>
<g><path d="M200 143.07L208.17 141.44M208.17 141.44L215.1 136.81M215.1 136.81L219.72 129.89M219.72 129.89L221.35 121.72"
fill="none" stroke="black" stroke-width="3"/>
</g>
<g><path d="M200 143.07L221.35 143.07"
fill="none" stroke="black" stroke-width="3"/>
</g>
<g><path d="M178.65 143.07L200 143.07"
fill="none" stroke="black" stroke-width="3"/>
</g>
<g><path d="M221.3 29.2L221.3 27.75"
fill="none" stroke="black" stroke-width="3"/>
</g>
<g><path d="M221.3 120.26L221.3 29.2"
fill="none" stroke="black" stroke-width="3"/>
</g>
<g><path d="M189.32 157.3L191.02 151.53M191.02 151.53L195.57 147.59M195.57 147.59L201.52 146.73M201.52 146.73L206.99 149.23M206.99 149.23L210.24 154.29M210.24 154.29L210.24 160.31M210.24 160.31L206.99 165.37M206.99 165.37L201.52 167.87M201.52 167.87L195.57 167.01M195.57 167.01L191.02 163.07M191.02 163.07L189.32 157.3"
fill="none" stroke="black" stroke-width="3"/>
</g>
<g><path d="M178.7 276.86L178.7 399.27"
fill="none" stroke="black" stroke-width="3"/>
</g>
<g><path d="M221.3 356.57L221.3 397.81"
fill="none" stroke="black" stroke-width="3"/>
</g>
<g><path d="M221.3 370.8L221.3 372.25"
fill="none" stroke="black" stroke-width="3"/>
</g>
<g><path d="M221.3 279.74L221.35 278.28"
fill="none" stroke="black" stroke-width="3"/>
</g>
<g><path d="M200 256.93L191.83 258.56M191.83 258.56L184.9 263.19M184.9 263.19L180.28 270.11M180.28 270.11L178.65 278.28"
fill="none" stroke="black" stroke-width="3"/>
</g>
<g><path d="M221.35 278.28L219.72 270.11M219.72 270.11L215.1 263.19M215.1 263.19L208.17 258.56M208.17 258.56L200 256.93"
fill="none" stroke="black" stroke-width="3"/>
</g>
<g><path d="M200 256.93L221.35 256.93"
fill="none" stroke="black" stroke-width="3"/>
</g>
<g><path d="M178.65 256.93L200 256.93"
fill="none" stroke="black" stroke-width="3"/>
</g>
<g><path d="M221.3 370.8L221.3 372.25"
fill="none" stroke="black" stroke-width="3"/>
</g>
<g><path d="M221.3 279.74L221.3 370.8"
fill="none" stroke="black" stroke-width="3"/>
</g>
<g><path d="M189.32 242.7L191.02 236.93M191.02 236.93L195.57 232.99M195.57 232.99L201.52 232.13M201.52 232.13L206.99 234.63M206.99 234.63L210.24 239.69M210.24 239.69L210.24 245.71M210.24 245.71L206.99 250.77M206.99 250.77L201.52 253.27M201.52 253.27L195.57 252.41M195.57 252.41L191.02 248.47M191.02 248.47L189.32 242.7"
fill="none" stroke="black" stroke-width="3"/>
</g>
<g><path d="M221.35 200L223.04 194.23M223.04 194.23L227.59 190.29M227.59 190.29L233.54 189.43M233.54 189.43L239.02 191.93M239.02 191.93L242.27 196.99M242.27 196.99L242.27 203.01M242.27 203.01L239.02 208.07M239.02 208.07L233.54 210.57M233.54 210.57L227.59 209.71M227.59 209.71L223.04 205.77M223.04 205.77L221.35 200"
fill="none" stroke="black" stroke-width="3"/>
</g>
</g>
</svg>
