<?xml version="1.0" standalone="no"?><svg xmlns="http://www.w3.org/2000/svg" width="400.000" height="400.000" viewBox="0.0 0.0 400.000 400.000" version="1.1">
  <title>Produce by Acme CAD Converter</title>
  <desc>Produce by Acme CAD Converter</desc>
<g id="0" display="visible">
<g><path d="M226.05 226.15L226.05 216.73 225.9 216.85 226.05 226.15Z"
fill-rule="evenodd" fill="black"/>
<path d="M226.05 226.15L233.12 231.56 226.05 216.73 226.05 226.15Z"
fill-rule="evenodd" fill="black"/>
<path d="M233.12 231.56L233.12 210.96 226.05 216.73 233.12 231.56Z"
fill-rule="evenodd" fill="black"/>
<path d="M233.12 231.56L233.44 231.81 233.12 210.96 233.12 231.56Z"
fill-rule="evenodd" fill="black"/>
<path d="M233.44 231.81L233.44 211.04 233.12 210.96 233.44 231.81Z"
fill-rule="evenodd" fill="black"/>
<path d="M233.44 231.81L242.2 229.58 233.44 211.04 233.44 231.81Z"
fill-rule="evenodd" fill="black"/>
<path d="M242.2 229.58L242.2 212.97 233.44 211.04 242.2 229.58Z"
fill-rule="evenodd" fill="black"/>
<path d="M242.2 229.58L242.46 229.52 242.2 212.97 242.2 229.58Z"
fill-rule="evenodd" fill="black"/>
<path d="M242.46 229.52L242.46 213.51 242.2 212.97 242.46 229.52Z"
fill-rule="evenodd" fill="black"/>
<path d="M242.46 229.52L246.26 221.35 242.46 213.51 242.46 229.52Z"
fill-rule="evenodd" fill="black"/>
</g>
<g><path d="M226.05 183.45L226.05 174.03 225.9 174.15 226.05 183.45Z"
fill-rule="evenodd" fill="black"/>
<path d="M226.05 183.45L233.12 188.86 226.05 174.03 226.05 183.45Z"
fill-rule="evenodd" fill="black"/>
<path d="M233.12 188.86L233.12 168.26 226.05 174.03 233.12 188.86Z"
fill-rule="evenodd" fill="black"/>
<path d="M233.12 188.86L233.44 189.11 233.12 168.26 233.12 188.86Z"
fill-rule="evenodd" fill="black"/>
<path d="M233.44 189.11L233.44 168.34 233.12 168.26 233.44 189.11Z"
fill-rule="evenodd" fill="black"/>
<path d="M233.44 189.11L242.2 186.88 233.44 168.34 233.44 189.11Z"
fill-rule="evenodd" fill="black"/>
<path d="M242.2 186.88L242.2 170.27 233.44 168.34 242.2 186.88Z"
fill-rule="evenodd" fill="black"/>
<path d="M242.2 186.88L242.46 186.82 242.2 170.27 242.2 186.88Z"
fill-rule="evenodd" fill="black"/>
<path d="M242.46 186.82L242.46 170.81 242.2 170.27 242.46 186.82Z"
fill-rule="evenodd" fill="black"/>
<path d="M242.46 186.82L246.26 178.65 242.46 170.81 242.46 186.82Z"
fill-rule="evenodd" fill="black"/>
</g>
<g><path d="M143.07 242.7L145.01 257.44M145.01 257.44L150.69 271.17M150.69 271.17L159.74 282.96M159.74 282.96L171.53 292.01M171.53 292.01L185.26 297.69M185.26 297.69L200 299.63M200 299.63L214.74 297.69M214.74 297.69L228.47 292.01M228.47 292.01L240.26 282.96M240.26 282.96L249.31 271.17M249.31 271.17L254.99 257.44M254.99 257.44L256.93 242.7"
fill="none" stroke="black" stroke-width="3"/>
</g>
<g><path d="M256.93 157.3L254.99 142.56M254.99 142.56L249.31 128.83M249.31 128.83L240.26 117.04M240.26 117.04L228.47 107.99M228.47 107.99L214.74 102.31M214.74 102.31L200 100.37M200 100.37L185.26 102.31M185.26 102.31L171.53 107.99M171.53 107.99L159.74 117.04M159.74 117.04L150.69 128.83M150.69 128.83L145.01 142.56M145.01 142.56L143.07 157.3"
fill="none" stroke="black" stroke-width="3"/>
</g>
<g><path d="M143.07 157.3L143.07 242.7"
fill="none" stroke="black" stroke-width="3"/>
</g>
<g><path d="M256.93 157.3L256.93 242.7"
fill="none" stroke="black" stroke-width="3"/>
</g>
<g><path d="M178.7 123.14L178.7 0.73"
fill="none" stroke="black" stroke-width="3"/>
</g>
<g><path d="M221.3 43.43L221.3 2.19"
fill="none" stroke="black" stroke-width="3"/>
</g>
<g><path d="M221.3 29.2L221.3 27.75"
fill="none" stroke="black" stroke-width="3"/>
</g>
<g><path d="M221.35 121.72L221.3 120.26"
fill="none" stroke="black" stroke-width="3"/>
</g>
<g><path d="M178.65 121.72L180.28 129.89M180.28 129.89L184.9 136.81M184.9 136.81L191.83 141.44M191.83 141.44L200 143.07"
fill="none" stroke="black" stroke-width="3"/>
</g>
<g><path d="M200 143.07L208.17 141.44M208.17 141.44L215.1 136.81M215.1 136.81L219.72 129.89M219.72 129.89L221.35 121.72"
fill="none" stroke="black" stroke-width="3"/>
</g>
<g><path d="M200 143.07L221.35 143.07"
fill="none" stroke="black" stroke-width="3"/>
</g>
<g><path d="M178.65 143.07L200 143.07"
fill="none" stroke="black" stroke-width="3"/>
</g>
<g><path d="M221.3 29.2L221.3 27.75"
fill="none" stroke="black" stroke-width="3"/>
</g>
<g><path d="M221.3 120.26L221.3 29.2"
fill="none" stroke="black" stroke-width="3"/>
</g>
<g><path d="M189.32 157.3L191.02 151.53M191.02 151.53L195.57 147.59M195.57 147.59L201.52 146.73M201.52 146.73L206.99 149.23M206.99 149.23L210.24 154.29M210.24 154.29L210.24 160.31M210.24 160.31L206.99 165.37M206.99 165.37L201.52 167.87M201.52 167.87L195.57 167.01M195.57 167.01L191.02 163.07M191.02 163.07L189.32 157.3"
fill="none" stroke="black" stroke-width="3"/>
</g>
<g><path d="M182.21 182.21L217.79 217.79"
fill="none" stroke="black" stroke-width="3"/>
</g>
<g><path d="M217.79 182.21L182.21 217.79"
fill="none" stroke="black" stroke-width="3"/>
</g>
<g><path d="M224.91 221.35L226.6 215.58M226.6 215.58L231.15 211.64M231.15 211.64L237.1 210.78M237.1 210.78L242.57 213.28M242.57 213.28L245.83 218.34M245.83 218.34L245.83 224.36M245.83 224.36L242.57 229.42M242.57 229.42L237.1 231.92M237.1 231.92L231.15 231.06M231.15 231.06L226.6 227.12M226.6 227.12L224.91 221.35"
fill="none" stroke="black" stroke-width="3"/>
</g>
<g><path d="M224.91 178.65L226.6 172.88M226.6 172.88L231.15 168.94M231.15 168.94L237.1 168.08M237.1 168.08L242.57 170.58M242.57 170.58L245.83 175.64M245.83 175.64L245.83 181.66M245.83 181.66L242.57 186.72M242.57 186.72L237.1 189.22M237.1 189.22L231.15 188.36M231.15 188.36L226.6 184.42M226.6 184.42L224.91 178.65"
fill="none" stroke="black" stroke-width="3"/>
</g>
<g><path d="M178.7 276.86L178.7 399.27"
fill="none" stroke="black" stroke-width="3"/>
</g>
<g><path d="M221.3 356.57L221.3 397.81"
fill="none" stroke="black" stroke-width="3"/>
</g>
<g><path d="M221.3 370.8L221.3 372.25"
fill="none" stroke="black" stroke-width="3"/>
</g>
<g><path d="M221.3 279.74L221.35 278.28"
fill="none" stroke="black" stroke-width="3"/>
</g>
<g><path d="M200 256.93L191.83 258.56M191.83 258.56L184.9 263.19M184.9 263.19L180.28 270.11M180.28 270.11L178.65 278.28"
fill="none" stroke="black" stroke-width="3"/>
</g>
<g><path d="M221.35 278.28L219.72 270.11M219.72 270.11L215.1 263.19M215.1 263.19L208.17 258.56M208.17 258.56L200 256.93"
fill="none" stroke="black" stroke-width="3"/>
</g>
<g><path d="M200 256.93L221.35 256.93"
fill="none" stroke="black" stroke-width="3"/>
</g>
<g><path d="M178.65 256.93L200 256.93"
fill="none" stroke="black" stroke-width="3"/>
</g>
<g><path d="M221.3 370.8L221.3 372.25"
fill="none" stroke="black" stroke-width="3"/>
</g>
<g><path d="M221.3 279.74L221.3 370.8"
fill="none" stroke="black" stroke-width="3"/>
</g>
<g><path d="M189.32 242.7L191.02 236.93M191.02 236.93L195.57 232.99M195.57 232.99L201.52 232.13M201.52 232.13L206.99 234.63M206.99 234.63L210.24 239.69M210.24 239.69L210.24 245.71M210.24 245.71L206.99 250.77M206.99 250.77L201.52 253.27M201.52 253.27L195.57 252.41M195.57 252.41L191.02 248.47M191.02 248.47L189.32 242.7"
fill="none" stroke="black" stroke-width="3"/>
</g>
</g>
</svg>
