<?xml version="1.0" standalone="no"?><svg xmlns="http://www.w3.org/2000/svg" width="400.000" height="400.000" viewBox="0.0 0.0 400.000 400.000" version="1.1">
  <title>Produce by Acme CAD Converter</title>
  <desc>Produce by Acme CAD Converter</desc>
<g id="0" display="visible">
<g><path d="M224.7 205.27L224.7 194.93 224.54 195.06 224.7 205.27Z"
fill-rule="evenodd" fill="black"/>
<path d="M224.7 205.27L232.45 211.21 224.7 194.93 224.7 205.27Z"
fill-rule="evenodd" fill="black"/>
<path d="M232.45 211.21L232.45 188.6 224.7 194.93 232.45 211.21Z"
fill-rule="evenodd" fill="black"/>
<path d="M232.45 211.21L232.81 211.48 232.45 188.6 232.45 211.21Z"
fill-rule="evenodd" fill="black"/>
<path d="M232.81 211.48L232.81 188.67 232.45 188.6 232.81 211.48Z"
fill-rule="evenodd" fill="black"/>
<path d="M232.81 211.48L242.43 209.04 232.81 188.67 232.81 211.48Z"
fill-rule="evenodd" fill="black"/>
<path d="M242.43 209.04L242.43 190.8 232.81 188.67 242.43 209.04Z"
fill-rule="evenodd" fill="black"/>
<path d="M242.43 209.04L242.72 208.97 242.43 190.8 242.43 209.04Z"
fill-rule="evenodd" fill="black"/>
<path d="M242.72 208.97L242.72 191.39 242.43 190.8 242.72 208.97Z"
fill-rule="evenodd" fill="black"/>
<path d="M242.72 208.97L246.89 200 242.72 191.39 242.72 208.97Z"
fill-rule="evenodd" fill="black"/>
</g>
<g><path d="M137.48 246.89L139.3 261.85M139.3 261.85L144.65 275.94M144.65 275.94L153.21 288.34M153.21 288.34L164.49 298.34M164.49 298.34L177.83 305.34M177.83 305.34L192.46 308.95M192.46 308.95L207.54 308.95M207.54 308.95L222.17 305.34M222.17 305.34L235.51 298.34M235.51 298.34L246.79 288.34M246.79 288.34L255.35 275.94M255.35 275.94L260.7 261.85M260.7 261.85L262.52 246.89"
fill="none" stroke="black" stroke-width="3"/>
</g>
<g><path d="M262.52 153.11L260.7 138.15M260.7 138.15L255.35 124.06M255.35 124.06L246.79 111.66M246.79 111.66L235.51 101.66M235.51 101.66L222.17 94.66M222.17 94.66L207.54 91.05M207.54 91.05L192.46 91.05M192.46 91.05L177.83 94.66M177.83 94.66L164.49 101.66M164.49 101.66L153.21 111.66M153.21 111.66L144.65 124.06M144.65 124.06L139.3 138.15M139.3 138.15L137.48 153.11"
fill="none" stroke="black" stroke-width="3"/>
</g>
<g><path d="M137.48 153.11L137.48 246.89"
fill="none" stroke="black" stroke-width="3"/>
</g>
<g><path d="M262.52 153.11L262.52 246.89"
fill="none" stroke="black" stroke-width="3"/>
</g>
<g><path d="M223.44 200L225.3 193.66M225.3 193.66L230.3 189.34M230.3 189.34L236.83 188.4M236.83 188.4L242.84 191.14M242.84 191.14L246.41 196.7M246.41 196.7L246.41 203.3M246.41 203.3L242.84 208.86M242.84 208.86L236.83 211.6M236.83 211.6L230.3 210.66M230.3 210.66L225.3 206.34M225.3 206.34L223.44 200"
fill="none" stroke="black" stroke-width="3"/>
</g>
<g><path d="M180.46 180.46L219.54 219.54"
fill="none" stroke="black" stroke-width="3"/>
</g>
<g><path d="M219.54 180.46L180.46 219.54"
fill="none" stroke="black" stroke-width="3"/>
</g>
<g><path d="M188.28 246.89L190.14 240.55M190.14 240.55L195.13 236.22M195.13 236.22L201.67 235.28M201.67 235.28L207.68 238.03M207.68 238.03L211.25 243.58M211.25 243.58L211.25 250.19M211.25 250.19L207.68 255.74M207.68 255.74L201.67 258.49M201.67 258.49L195.13 257.55M195.13 257.55L190.14 253.22M190.14 253.22L188.28 246.89"
fill="none" stroke="black" stroke-width="3"/>
</g>
<g><path d="M200.23 258.61L200.23 360.19"
fill="none" stroke="black" stroke-width="3"/>
</g>
<g><path d="M200.23 360.19L200.23 368.01"
fill="none" stroke="black" stroke-width="3"/>
</g>
<g><path d="M200.23 368.01L200.23 399.27"
fill="none" stroke="black" stroke-width="3"/>
</g>
<g><path d="M176.56 262.52L223.44 262.52"
fill="none" stroke="black" stroke-width="3"/>
</g>
<g><path d="M188.28 153.11L190.14 146.78M190.14 146.78L195.13 142.45M195.13 142.45L201.67 141.51M201.67 141.51L207.68 144.26M207.68 144.26L211.25 149.81M211.25 149.81L211.25 156.42M211.25 156.42L207.68 161.97M207.68 161.97L201.67 164.72M201.67 164.72L195.13 163.78M195.13 163.78L190.14 159.45M190.14 159.45L188.28 153.11"
fill="none" stroke="black" stroke-width="3"/>
</g>
<g><path d="M200.23 141.39L200.23 39.81"
fill="none" stroke="black" stroke-width="3"/>
</g>
<g><path d="M200.23 39.81L200.23 31.99"
fill="none" stroke="black" stroke-width="3"/>
</g>
<g><path d="M200.23 31.99L200.23 0.73"
fill="none" stroke="black" stroke-width="3"/>
</g>
<g><path d="M176.56 137.48L223.44 137.48"
fill="none" stroke="black" stroke-width="3"/>
</g>
<g><path d="M182.68 112.35L172.74 118.96M172.74 118.96L164.47 127.56M164.47 127.56L158.26 137.76M158.26 137.76L154.42 149.06M154.42 149.06L153.11 160.93"
fill="none" stroke="black" stroke-width="3"/>
</g>
<g><path d="M153.11 239.07L154.53 251.46M154.53 251.46L158.72 263.2M158.72 263.2L165.46 273.68M165.46 273.68L174.39 282.37M174.39 282.37L185.06 288.82"
fill="none" stroke="black" stroke-width="3"/>
</g>
<g><path d="M153.11 160.93L153.11 239.07"
fill="none" stroke="black" stroke-width="3"/>
</g>
</g>
</svg>
