<?xml version="1.0" standalone="no"?><svg xmlns="http://www.w3.org/2000/svg" width="400.000" height="400.000" viewBox="0.0 0.0 400.000 400.000" version="1.1">
  <title>Produce by Acme CAD Converter</title>
  <desc>Produce by Acme CAD Converter</desc>
<g id="0" display="visible">
<g><path d="M237.87 259.42L237.87 240.57 237.58 240.81 237.87 259.42Z"
fill-rule="evenodd" fill="black"/>
<path d="M237.87 259.42L252 270.23 237.87 240.57 237.87 259.42Z"
fill-rule="evenodd" fill="black"/>
<path d="M252 270.23L252 229.05 237.87 240.57 252 270.23Z"
fill-rule="evenodd" fill="black"/>
<path d="M252 270.23L252.65 270.73 252 229.05 252 270.23Z"
fill-rule="evenodd" fill="black"/>
<path d="M252.65 270.73L252.65 229.19 252 229.05 252.65 270.73Z"
fill-rule="evenodd" fill="black"/>
<path d="M252.65 270.73L270.17 266.28 252.65 229.19 252.65 270.73Z"
fill-rule="evenodd" fill="black"/>
<path d="M270.17 266.28L270.17 233.07 252.65 229.19 270.17 266.28Z"
fill-rule="evenodd" fill="black"/>
<path d="M270.17 266.28L270.69 266.15 270.17 233.07 270.17 266.28Z"
fill-rule="evenodd" fill="black"/>
<path d="M270.69 266.15L270.69 234.13 270.17 233.07 270.69 266.15Z"
fill-rule="evenodd" fill="black"/>
<path d="M270.69 266.15L278.28 249.82 270.69 234.13 270.69 266.15Z"
fill-rule="evenodd" fill="black"/>
</g>
<g><path d="M235.58 249.82L237.43 241.13M237.43 241.13L242.65 233.95M242.65 233.95L250.34 229.51M250.34 229.51L259.17 228.58M259.17 228.58L267.61 231.33M267.61 231.33L274.21 237.27M274.21 237.27L277.82 245.38M277.82 245.38L277.82 254.26M277.82 254.26L274.21 262.37M274.21 262.37L267.61 268.31M267.61 268.31L259.17 271.05M259.17 271.05L250.34 270.12M250.34 270.12L242.65 265.68M242.65 265.68L237.43 258.5M237.43 258.5L235.58 249.82"
fill="none" stroke="black" stroke-width="3"/>
</g>
<g><path d="M0.73 200L114.6 200"
fill="none" stroke="black" stroke-width="3"/>
</g>
<g><path d="M256.93 200L399.27 200"
fill="none" stroke="black" stroke-width="3"/>
</g>
<g><path d="M114.6 200L242.7 126.04"
fill="none" stroke="black" stroke-width="3"/>
</g>
<g><path d="M86.13 200L88.07 179.08M88.07 179.08L93.82 158.87M93.82 158.87L103.19 140.06M103.19 140.06L115.85 123.29M115.85 123.29L131.38 109.13M131.38 109.13L149.25 98.07M149.25 98.07L168.84 90.48M168.84 90.48L189.49 86.62M189.49 86.62L210.51 86.62M210.51 86.62L231.16 90.48M231.16 90.48L250.75 98.07M250.75 98.07L268.62 109.13M268.62 109.13L284.15 123.29M284.15 123.29L296.81 140.06M296.81 140.06L306.18 158.87M306.18 158.87L311.93 179.08M311.93 179.08L313.87 200M313.87 200L311.93 220.92M311.93 220.92L306.18 241.13M306.18 241.13L296.81 259.94M296.81 259.94L284.15 276.71M284.15 276.71L268.62 290.87M268.62 290.87L250.75 301.93M250.75 301.93L231.16 309.52M231.16 309.52L210.51 313.38M210.51 313.38L189.49 313.38M189.49 313.38L168.84 309.52M168.84 309.52L149.25 301.93M149.25 301.93L131.38 290.87M131.38 290.87L115.85 276.71M115.85 276.71L103.19 259.94M103.19 259.94L93.82 241.13M93.82 241.13L88.07 220.92M88.07 220.92L86.13 200"
fill="none" stroke="black" stroke-width="3"/>
</g>
</g>
</svg>
