<?xml version="1.0" standalone="no"?><svg xmlns="http://www.w3.org/2000/svg" width="400.000" height="400.000" viewBox="0.0 0.0 400.000 400.000" version="1.1">
  <title>Produce by Acme CAD Converter</title>
  <desc>Produce by Acme CAD Converter</desc>
<g id="0" display="visible">
<g><path d="M100.37 262.27L102.28 242.83M102.28 242.83L107.95 224.14M107.95 224.14L117.16 206.92M117.16 206.92L129.55 191.82M129.55 191.82L144.65 179.43M144.65 179.43L161.87 170.22M161.87 170.22L180.56 164.55M180.56 164.55L200 162.64M200 162.64L219.44 164.55M219.44 164.55L238.13 170.22M238.13 170.22L255.35 179.43M255.35 179.43L270.45 191.82M270.45 191.82L282.84 206.92M282.84 206.92L292.05 224.14M292.05 224.14L297.72 242.83M297.72 242.83L299.63 262.27M299.63 262.27L297.72 281.71M297.72 281.71L292.05 300.4M292.05 300.4L282.84 317.62M282.84 317.62L270.45 332.72M270.45 332.72L255.35 345.11M255.35 345.11L238.13 354.32M238.13 354.32L219.44 359.99M219.44 359.99L200 361.9M200 361.9L180.56 359.99M180.56 359.99L161.87 354.32M161.87 354.32L144.65 345.11M144.65 345.11L129.55 332.72M129.55 332.72L117.16 317.62M117.16 317.62L107.95 300.4M107.95 300.4L102.28 281.71M102.28 281.71L100.37 262.27"
fill="none" stroke="black" stroke-width="3"/>
</g>
<g><path d="M271.3 192.67L128.7 331.87"
fill="none" stroke="black" stroke-width="3"/>
</g>
<g><path d="M271.3 331.87L130.4 190.98"
fill="none" stroke="black" stroke-width="3"/>
</g>
<g><path d="M100.37 263.05L0.73 263.05"
fill="none" stroke="black" stroke-width="3"/>
</g>
<g><path d="M299.62 260.66L399.27 260.66"
fill="none" stroke="black" stroke-width="3"/>
</g>
<g><path d="M137.73 112.82L100.37 112.82"
fill="none" stroke="black" stroke-width="3"/>
</g>
<g><path d="M299.63 112.82L262.27 112.82"
fill="none" stroke="black" stroke-width="3"/>
</g>
<g><path d="M137.73 112.82L137.73 38.1M137.73 38.1L262.27 38.1M262.27 38.1L262.27 112.82"
fill="none" stroke="black" stroke-width=".5"/>
</g>
</g>
</svg>
