<?xml version="1.0" standalone="no"?><svg xmlns="http://www.w3.org/2000/svg" width="400.000" height="400.000" viewBox="0.0 0.0 400.000 400.000" version="1.1">
  <title>Produce by Acme CAD Converter</title>
  <desc>Produce by Acme CAD Converter</desc>
<g id="0" display="visible">
<g><path d="M180.07 180.07L219.93 219.93"
fill="none" stroke="black" stroke-width="3"/>
</g>
<g><path d="M219.93 180.07L180.07 219.93"
fill="none" stroke="black" stroke-width="3"/>
</g>
<g><path d="M120.29 399.27L279.71 399.27M279.71 399.27L279.71 0.73M279.71 0.73L120.29 0.73M120.29 0.73L120.29 399.27"
fill="none" stroke="black" stroke-width=".5"/>
</g>
<g><path d="M279.71 40.59L343.47 40.59"
fill="none" stroke="black" stroke-width="3"/>
</g>
<g><path d="M279.71 120.29L343.47 120.29"
fill="none" stroke="black" stroke-width="3"/>
</g>
<g><path d="M343.47 40.59L359.41 40.59"
fill="none" stroke="black" stroke-width="3"/>
</g>
<g><path d="M343.47 120.29L359.41 120.29"
fill="none" stroke="black" stroke-width="3"/>
</g>
<g><path d="M279.71 359.41L359.41 359.41"
fill="none" stroke="black" stroke-width="3"/>
</g>
<g><path d="M263.77 0.73L263.77 32.62"
fill="none" stroke="black" stroke-width="3"/>
</g>
<g><path d="M263.77 48.56L263.77 80.44"
fill="none" stroke="black" stroke-width="3"/>
</g>
<g><path d="M263.77 96.38L263.77 128.26"
fill="none" stroke="black" stroke-width="3"/>
</g>
<g><path d="M263.77 144.21L263.77 176.09"
fill="none" stroke="black" stroke-width="3"/>
</g>
<g><path d="M263.77 192.03L263.77 223.91"
fill="none" stroke="black" stroke-width="3"/>
</g>
<g><path d="M263.77 239.85L263.77 271.74"
fill="none" stroke="black" stroke-width="3"/>
</g>
<g><path d="M263.77 287.68L263.77 319.56"
fill="none" stroke="black" stroke-width="3"/>
</g>
<g><path d="M263.77 335.5L263.77 367.38"
fill="none" stroke="black" stroke-width="3"/>
</g>
<g><path d="M263.77 383.33L263.77 399.27"
fill="none" stroke="black" stroke-width="3"/>
</g>
<g><path d="M120.29 120.29L56.53 120.29"
fill="none" stroke="black" stroke-width="3"/>
</g>
<g><path d="M56.53 120.29L40.59 120.29"
fill="none" stroke="black" stroke-width="3"/>
</g>
<g><path d="M120.29 279.71L56.53 279.71"
fill="none" stroke="black" stroke-width="3"/>
</g>
<g><path d="M56.53 279.71L40.59 279.71"
fill="none" stroke="black" stroke-width="3"/>
</g>
<g><path d="M125.08 160.15L125.08 5.52"
fill="none" stroke="black" stroke-width="3"/>
</g>
<g><path d="M125.08 239.85L125.08 394.48"
fill="none" stroke="black" stroke-width="3"/>
</g>
</g>
</svg>
