<?xml version="1.0" standalone="no"?><svg xmlns="http://www.w3.org/2000/svg" width="400.000" height="400.000" viewBox="0.0 0.0 400.000 400.000" version="1.1">
  <title>Produce by Acme CAD Converter</title>
  <desc>Produce by Acme CAD Converter</desc>
<g id="0" display="visible">
<g><path d="M211.68 185.74L211.68 175.39 211.52 175.52 211.68 185.74Z"
fill-rule="evenodd" fill="black"/>
<path d="M211.68 185.74L219.44 191.67 211.68 175.39 211.68 185.74Z"
fill-rule="evenodd" fill="black"/>
<path d="M219.44 191.67L219.44 169.06 211.68 175.39 219.44 191.67Z"
fill-rule="evenodd" fill="black"/>
<path d="M219.44 191.67L219.8 191.95 219.44 169.06 219.44 191.67Z"
fill-rule="evenodd" fill="black"/>
<path d="M219.8 191.95L219.8 169.14 219.44 169.06 219.8 191.95Z"
fill-rule="evenodd" fill="black"/>
<path d="M219.8 191.95L229.42 189.5 219.8 169.14 219.8 191.95Z"
fill-rule="evenodd" fill="black"/>
<path d="M229.42 189.5L229.42 171.27 219.8 169.14 229.42 189.5Z"
fill-rule="evenodd" fill="black"/>
<path d="M229.42 189.5L229.7 189.43 229.42 171.27 229.42 189.5Z"
fill-rule="evenodd" fill="black"/>
<path d="M229.7 189.43L229.7 171.85 229.42 171.27 229.7 189.43Z"
fill-rule="evenodd" fill="black"/>
<path d="M229.7 189.43L233.87 180.46 229.7 171.85 229.7 189.43Z"
fill-rule="evenodd" fill="black"/>
</g>
<g><path d="M211.68 224.81L211.68 214.46 211.52 214.59 211.68 224.81Z"
fill-rule="evenodd" fill="black"/>
<path d="M211.68 224.81L219.44 230.75 211.68 214.46 211.68 224.81Z"
fill-rule="evenodd" fill="black"/>
<path d="M219.44 230.75L219.44 208.13 211.68 214.46 219.44 230.75Z"
fill-rule="evenodd" fill="black"/>
<path d="M219.44 230.75L219.8 231.02 219.44 208.13 219.44 230.75Z"
fill-rule="evenodd" fill="black"/>
<path d="M219.8 231.02L219.8 208.21 219.44 208.13 219.8 231.02Z"
fill-rule="evenodd" fill="black"/>
<path d="M219.8 231.02L229.42 228.57 219.8 208.21 219.8 231.02Z"
fill-rule="evenodd" fill="black"/>
<path d="M229.42 228.57L229.42 210.34 219.8 208.21 229.42 228.57Z"
fill-rule="evenodd" fill="black"/>
<path d="M229.42 228.57L229.7 228.5 229.42 210.34 229.42 228.57Z"
fill-rule="evenodd" fill="black"/>
<path d="M229.7 228.5L229.7 210.92 229.42 210.34 229.7 228.5Z"
fill-rule="evenodd" fill="black"/>
<path d="M229.7 228.5L233.87 219.54 229.7 210.92 229.7 228.5Z"
fill-rule="evenodd" fill="black"/>
</g>
<g><path d="M163.54 180.46L202.61 219.54"
fill="none" stroke="black" stroke-width="3"/>
</g>
<g><path d="M202.61 180.46L163.54 219.54"
fill="none" stroke="black" stroke-width="3"/>
</g>
<g><path d="M65.86 184.37L136.19 184.37M136.19 184.37L159.63 207.81"
fill="none" stroke="black" stroke-width=".5"/>
</g>
<g><path d="M120.56 246.89L122.38 261.85M122.38 261.85L127.72 275.94M127.72 275.94L136.28 288.34M136.28 288.34L147.57 298.34M147.57 298.34L160.91 305.34M160.91 305.34L175.54 308.95M175.54 308.95L190.61 308.95M190.61 308.95L205.25 305.34M205.25 305.34L218.59 298.34M218.59 298.34L229.87 288.34M229.87 288.34L238.43 275.94M238.43 275.94L243.78 261.85M243.78 261.85L245.59 246.89"
fill="none" stroke="black" stroke-width="3"/>
</g>
<g><path d="M245.59 153.11L243.78 138.15M243.78 138.15L238.43 124.06M238.43 124.06L229.87 111.66M229.87 111.66L218.59 101.66M218.59 101.66L205.25 94.66M205.25 94.66L190.61 91.05M190.61 91.05L175.54 91.05M175.54 91.05L160.91 94.66M160.91 94.66L147.57 101.66M147.57 101.66L136.28 111.66M136.28 111.66L127.72 124.06M127.72 124.06L122.38 138.15M122.38 138.15L120.56 153.11"
fill="none" stroke="black" stroke-width="3"/>
</g>
<g><path d="M120.56 153.11L120.56 246.89"
fill="none" stroke="black" stroke-width="3"/>
</g>
<g><path d="M245.59 153.11L245.59 246.89"
fill="none" stroke="black" stroke-width="3"/>
</g>
<g><path d="M171.36 153.11L173.22 146.78M173.22 146.78L178.21 142.45M178.21 142.45L184.75 141.51M184.75 141.51L190.75 144.26M190.75 144.26L194.32 149.81M194.32 149.81L194.32 156.42M194.32 156.42L190.75 161.97M190.75 161.97L184.75 164.72M184.75 164.72L178.21 163.78M178.21 163.78L173.22 159.45M173.22 159.45L171.36 153.11"
fill="none" stroke="black" stroke-width="3"/>
</g>
<g><path d="M183.31 141.39L183.31 39.81"
fill="none" stroke="black" stroke-width="3"/>
</g>
<g><path d="M183.31 39.81L183.31 31.99"
fill="none" stroke="black" stroke-width="3"/>
</g>
<g><path d="M183.31 31.99L183.31 0.73"
fill="none" stroke="black" stroke-width="3"/>
</g>
<g><path d="M159.63 137.48L206.52 137.48"
fill="none" stroke="black" stroke-width="3"/>
</g>
<g><path d="M210.43 180.46L212.29 174.13M212.29 174.13L217.28 169.8M217.28 169.8L223.82 168.86M223.82 168.86L229.83 171.61M229.83 171.61L233.4 177.16M233.4 177.16L233.4 183.77M233.4 183.77L229.83 189.32M229.83 189.32L223.82 192.07M223.82 192.07L217.28 191.13M217.28 191.13L212.29 186.8M212.29 186.8L210.43 180.46"
fill="none" stroke="black" stroke-width="3"/>
</g>
<g><path d="M210.43 219.54L212.29 213.2M212.29 213.2L217.28 208.87M217.28 208.87L223.82 207.93M223.82 207.93L229.83 210.68M229.83 210.68L233.4 216.23M233.4 216.23L233.4 222.84M233.4 222.84L229.83 228.39M229.83 228.39L223.82 231.14M223.82 231.14L217.28 230.2M217.28 230.2L212.29 225.87M212.29 225.87L210.43 219.54"
fill="none" stroke="black" stroke-width="3"/>
</g>
<g><path d="M171.36 246.89L173.22 240.55M173.22 240.55L178.21 236.22M178.21 236.22L184.75 235.28M184.75 235.28L190.75 238.03M190.75 238.03L194.32 243.58M194.32 243.58L194.32 250.19M194.32 250.19L190.75 255.74M190.75 255.74L184.75 258.49M184.75 258.49L178.21 257.55M178.21 257.55L173.22 253.22M173.22 253.22L171.36 246.89"
fill="none" stroke="black" stroke-width="3"/>
</g>
<g><path d="M183.31 258.61L183.31 360.19"
fill="none" stroke="black" stroke-width="3"/>
</g>
<g><path d="M183.31 360.19L183.31 368.01"
fill="none" stroke="black" stroke-width="3"/>
</g>
<g><path d="M183.31 368.01L183.31 399.27"
fill="none" stroke="black" stroke-width="3"/>
</g>
<g><path d="M159.63 262.52L206.52 262.52"
fill="none" stroke="black" stroke-width="3"/>
</g>
<g><path d="M302.06 175.48L286.02 219.54"
fill="none" stroke="black" stroke-width="3"/>
</g>
<g><path d="M286.02 219.54L269.04 219.54"
fill="none" stroke="black" stroke-width="3"/>
</g>
<g><path d="M302.06 175.48L317.15 219.24"
fill="none" stroke="black" stroke-width="3"/>
</g>
<g><path d="M334.14 219.24L317.15 219.24"
fill="none" stroke="black" stroke-width="3"/>
</g>
</g>
</svg>
