<?xml version="1.0" standalone="no"?><svg xmlns="http://www.w3.org/2000/svg" width="400.000" height="400.000" viewBox="0.0 0.0 400.000 400.000" version="1.1">
  <title>Produce by Acme CAD Converter</title>
  <desc>Produce by Acme CAD Converter</desc>
<g id="0" display="visible">
<g><path d="M101.9 196.93L103.78 177.8M103.78 177.8L109.37 159.39M109.37 159.39L118.43 142.43M118.43 142.43L130.63 127.57M130.63 127.57L145.5 115.37M145.5 115.37L162.46 106.3M162.46 106.3L180.86 100.72M180.86 100.72L200 98.83M200 98.83L219.14 100.72M219.14 100.72L237.54 106.3M237.54 106.3L254.5 115.37M254.5 115.37L269.37 127.57M269.37 127.57L281.57 142.43M281.57 142.43L290.63 159.39M290.63 159.39L296.22 177.8M296.22 177.8L298.1 196.93M298.1 196.93L296.22 216.07M296.22 216.07L290.63 234.48M290.63 234.48L281.57 251.44M281.57 251.44L269.37 266.3M269.37 266.3L254.5 278.5M254.5 278.5L237.54 287.57M237.54 287.57L219.14 293.15M219.14 293.15L200 295.03M200 295.03L180.86 293.15M180.86 293.15L162.46 287.57M162.46 287.57L145.5 278.5M145.5 278.5L130.63 266.3M130.63 266.3L118.43 251.44M118.43 251.44L109.37 234.48M109.37 234.48L103.78 216.07M103.78 216.07L101.9 196.93"
fill="none" stroke="black" stroke-width="3"/>
</g>
<g><path d="M169.34 227.59L230.66 288.9"
fill="none" stroke="black" stroke-width="3"/>
</g>
<g><path d="M230.66 227.59L169.34 288.9"
fill="none" stroke="black" stroke-width="3"/>
</g>
<g><path d="M169.34 104.97L230.66 166.28"
fill="none" stroke="black" stroke-width="3"/>
</g>
<g><path d="M230.66 104.97L169.34 166.28"
fill="none" stroke="black" stroke-width="3"/>
</g>
<g><path d="M230.66 104.97L230.66 25.26M230.66 25.26L230.66 0.73"
fill="none" stroke="black" stroke-width=".5"/>
</g>
<g><path d="M169.34 104.97L169.34 0.73"
fill="none" stroke="black" stroke-width="3"/>
</g>
<g><path d="M200 295.03L200 399.27"
fill="none" stroke="black" stroke-width="3"/>
</g>
</g>
</svg>
