<?xml version="1.0" standalone="no"?><svg xmlns="http://www.w3.org/2000/svg" width="400.000" height="400.000" viewBox="0.0 0.0 400.000 400.000" version="1.1">
  <title>Produce by Acme CAD Converter</title>
  <desc>Produce by Acme CAD Converter</desc>
<g id="0" display="visible">
<g><path d="M225.19 197.41L225.19 186.85 225.03 186.99 225.19 197.41Z"
fill-rule="evenodd" fill="black"/>
<path d="M225.19 197.41L233.1 203.46 225.19 186.85 225.19 197.41Z"
fill-rule="evenodd" fill="black"/>
<path d="M233.1 203.46L233.1 180.4 225.19 186.85 233.1 203.46Z"
fill-rule="evenodd" fill="black"/>
<path d="M233.1 203.46L233.47 203.74 233.1 180.4 233.1 203.46Z"
fill-rule="evenodd" fill="black"/>
<path d="M233.47 203.74L233.47 180.48 233.1 180.4 233.47 203.74Z"
fill-rule="evenodd" fill="black"/>
<path d="M233.47 203.74L243.28 201.25 233.47 180.48 233.47 203.74Z"
fill-rule="evenodd" fill="black"/>
<path d="M243.28 201.25L243.28 182.65 233.47 180.48 243.28 201.25Z"
fill-rule="evenodd" fill="black"/>
<path d="M243.28 201.25L243.57 201.17 243.28 182.65 243.28 201.25Z"
fill-rule="evenodd" fill="black"/>
<path d="M243.57 201.17L243.57 183.25 243.28 182.65 243.57 201.17Z"
fill-rule="evenodd" fill="black"/>
<path d="M243.57 201.17L247.82 192.03 243.57 183.25 243.57 201.17Z"
fill-rule="evenodd" fill="black"/>
</g>
<g><path d="M136.23 239.85L138.09 255.11M138.09 255.11L143.54 269.49M143.54 269.49L152.27 282.14M152.27 282.14L163.78 292.33M163.78 292.33L177.39 299.47M177.39 299.47L192.31 303.15M192.31 303.15L207.69 303.15M207.69 303.15L222.61 299.47M222.61 299.47L236.22 292.33M236.22 292.33L247.73 282.14M247.73 282.14L256.46 269.49M256.46 269.49L261.91 255.11M261.91 255.11L263.77 239.85"
fill="none" stroke="black" stroke-width="3"/>
</g>
<g><path d="M263.77 144.21L261.91 128.95M261.91 128.95L256.46 114.57M256.46 114.57L247.73 101.92M247.73 101.92L236.22 91.73M236.22 91.73L222.61 84.58M222.61 84.58L207.69 80.9M207.69 80.9L192.31 80.9M192.31 80.9L177.39 84.58M177.39 84.58L163.78 91.73M163.78 91.73L152.27 101.92M152.27 101.92L143.54 114.57M143.54 114.57L138.09 128.95M138.09 128.95L136.23 144.21"
fill="none" stroke="black" stroke-width="3"/>
</g>
<g><path d="M136.23 144.21L136.23 239.85"
fill="none" stroke="black" stroke-width="3"/>
</g>
<g><path d="M263.77 144.21L263.77 239.85"
fill="none" stroke="black" stroke-width="3"/>
</g>
<g><path d="M180.07 172.1L219.93 211.96"
fill="none" stroke="black" stroke-width="3"/>
</g>
<g><path d="M219.93 172.1L180.07 211.96"
fill="none" stroke="black" stroke-width="3"/>
</g>
<g><path d="M197.94 80.47L197.94 0.73"
fill="none" stroke="black" stroke-width="3"/>
</g>
<g><path d="M200 303.62L200 399.27"
fill="none" stroke="black" stroke-width="3"/>
</g>
<g><path d="M223.91 192.03L225.81 185.57M225.81 185.57L230.9 181.15M230.9 181.15L237.57 180.2M237.57 180.2L243.7 182.99M243.7 182.99L247.34 188.66M247.34 188.66L247.34 195.4M247.34 195.4L243.7 201.07M243.7 201.07L237.57 203.86M237.57 203.86L230.9 202.9M230.9 202.9L225.81 198.49M225.81 198.49L223.91 192.03"
fill="none" stroke="black" stroke-width="3"/>
</g>
</g>
</svg>
