<?xml version="1.0" standalone="no"?><svg xmlns="http://www.w3.org/2000/svg" width="400.000" height="400.000" viewBox="0.0 0.0 400.000 400.000" version="1.1">
  <title>Produce by Acme CAD Converter</title>
  <desc>Produce by Acme CAD Converter</desc>
<g id="0" display="visible">
<g><path d="M226.24 205.6L226.24 194.61 226.07 194.75 226.24 205.6Z"
fill-rule="evenodd" fill="black"/>
<path d="M226.24 205.6L234.48 211.91 226.24 194.61 226.24 205.6Z"
fill-rule="evenodd" fill="black"/>
<path d="M234.48 211.91L234.48 187.88 226.24 194.61 234.48 211.91Z"
fill-rule="evenodd" fill="black"/>
<path d="M234.48 211.91L234.86 212.2 234.48 187.88 234.48 211.91Z"
fill-rule="evenodd" fill="black"/>
<path d="M234.86 212.2L234.86 187.97 234.48 187.88 234.86 212.2Z"
fill-rule="evenodd" fill="black"/>
<path d="M234.86 212.2L245.08 209.6 234.86 187.97 234.86 212.2Z"
fill-rule="evenodd" fill="black"/>
<path d="M245.08 209.6L245.08 190.23 234.86 187.97 245.08 209.6Z"
fill-rule="evenodd" fill="black"/>
<path d="M245.08 209.6L245.39 209.53 245.08 190.23 245.08 209.6Z"
fill-rule="evenodd" fill="black"/>
<path d="M245.39 209.53L245.39 190.85 245.08 190.23 245.39 209.53Z"
fill-rule="evenodd" fill="black"/>
<path d="M245.39 209.53L249.82 200 245.39 190.85 245.39 209.53Z"
fill-rule="evenodd" fill="black"/>
</g>
<g><path d="M133.58 249.82L135.51 265.71M135.51 265.71L141.19 280.68M141.19 280.68L150.28 293.86M150.28 293.86L162.27 304.48M162.27 304.48L176.45 311.92M176.45 311.92L191.99 315.75M191.99 315.75L208.01 315.75M208.01 315.75L223.55 311.92M223.55 311.92L237.73 304.48M237.73 304.48L249.72 293.86M249.72 293.86L258.81 280.68M258.81 280.68L264.49 265.71M264.49 265.71L266.42 249.82"
fill="none" stroke="black" stroke-width="3"/>
</g>
<g><path d="M266.42 150.18L264.49 134.29M264.49 134.29L258.81 119.32M258.81 119.32L249.72 106.14M249.72 106.14L237.73 95.52M237.73 95.52L223.55 88.08M223.55 88.08L208.01 84.25M208.01 84.25L191.99 84.25M191.99 84.25L176.45 88.08M176.45 88.08L162.27 95.52M162.27 95.52L150.28 106.14M150.28 106.14L141.19 119.32M141.19 119.32L135.51 134.29M135.51 134.29L133.58 150.18"
fill="none" stroke="black" stroke-width="3"/>
</g>
<g><path d="M133.58 150.18L133.58 249.82"
fill="none" stroke="black" stroke-width="3"/>
</g>
<g><path d="M266.42 150.18L266.42 249.82"
fill="none" stroke="black" stroke-width="3"/>
</g>
<g><path d="M179.24 179.24L220.76 220.76"
fill="none" stroke="black" stroke-width="3"/>
</g>
<g><path d="M220.76 179.24L179.24 220.76"
fill="none" stroke="black" stroke-width="3"/>
</g>
<g><path d="M220.34 86.95L220.34 0.73"
fill="none" stroke="black" stroke-width="3"/>
</g>
<g><path d="M179.16 87.12L179.16 0.73"
fill="none" stroke="black" stroke-width="3"/>
</g>
<g><path d="M221.5 312.66L221.5 399.27"
fill="none" stroke="black" stroke-width="3"/>
</g>
<g><path d="M178.51 312.67L178.51 399.27"
fill="none" stroke="black" stroke-width="3"/>
</g>
<g><path d="M224.91 200L226.58 193.77M226.58 193.77L231.14 189.21M231.14 189.21L237.36 187.55M237.36 187.55L243.59 189.21M243.59 189.21L248.15 193.77M248.15 193.77L249.82 200M249.82 200L248.15 206.23M248.15 206.23L243.59 210.79M243.59 210.79L237.36 212.45M237.36 212.45L231.14 210.79M231.14 210.79L226.58 206.23M226.58 206.23L224.91 200"
fill="none" stroke="black" stroke-width="3"/>
</g>
</g>
</svg>
