<?xml version="1.0" standalone="no"?><svg xmlns="http://www.w3.org/2000/svg" width="400.000" height="400.000" viewBox="0.0 0.0 400.000 400.000" version="1.1">
  <title>Produce by Acme CAD Converter</title>
  <desc>Produce by Acme CAD Converter</desc>
<g id="0" display="visible">
<g><path d="M274.04 205.17L274.04 195.02 273.88 195.15 274.04 205.17Z"
fill-rule="evenodd" fill="black"/>
<path d="M274.04 205.17L281.65 210.99 274.04 195.02 274.04 205.17Z"
fill-rule="evenodd" fill="black"/>
<path d="M281.65 210.99L281.65 188.82 274.04 195.02 281.65 210.99Z"
fill-rule="evenodd" fill="black"/>
<path d="M281.65 210.99L282 211.26 281.65 188.82 281.65 210.99Z"
fill-rule="evenodd" fill="black"/>
<path d="M282 211.26L282 188.89 281.65 188.82 282 211.26Z"
fill-rule="evenodd" fill="black"/>
<path d="M282 211.26L291.43 208.86 282 188.89 282 211.26Z"
fill-rule="evenodd" fill="black"/>
<path d="M291.43 208.86L291.43 190.98 282 188.89 291.43 208.86Z"
fill-rule="evenodd" fill="black"/>
<path d="M291.43 208.86L291.71 208.79 291.43 190.98 291.43 208.86Z"
fill-rule="evenodd" fill="black"/>
<path d="M291.71 208.79L291.71 191.55 291.43 190.98 291.71 208.79Z"
fill-rule="evenodd" fill="black"/>
<path d="M291.71 208.79L295.8 200 291.71 191.55 291.71 208.79Z"
fill-rule="evenodd" fill="black"/>
</g>
<g><path d="M230.66 184.67L268.98 222.99"
fill="none" stroke="black" stroke-width="3"/>
</g>
<g><path d="M268.98 184.67L230.66 222.99"
fill="none" stroke="black" stroke-width="3"/>
</g>
<g><path d="M188.5 245.98L190.29 260.66M190.29 260.66L195.53 274.48M195.53 274.48L203.92 286.64M203.92 286.64L214.99 296.44M214.99 296.44L228.07 303.31M228.07 303.31L242.43 306.85M242.43 306.85L257.21 306.85M257.21 306.85L271.56 303.31M271.56 303.31L284.65 296.44M284.65 296.44L295.71 286.64M295.71 286.64L304.11 274.48M304.11 274.48L309.35 260.66M309.35 260.66L311.13 245.98"
fill="none" stroke="black" stroke-width="3"/>
</g>
<g><path d="M311.13 154.02L309.35 139.34M309.35 139.34L304.11 125.52M304.11 125.52L295.71 113.36M295.71 113.36L284.65 103.56M284.65 103.56L271.56 96.69M271.56 96.69L257.21 93.15M257.21 93.15L242.43 93.15M242.43 93.15L228.07 96.69M228.07 96.69L214.99 103.56M214.99 103.56L203.92 113.36M203.92 113.36L195.53 125.52M195.53 125.52L190.29 139.34M190.29 139.34L188.5 154.02"
fill="none" stroke="black" stroke-width="3"/>
</g>
<g><path d="M188.5 154.02L188.5 245.98"
fill="none" stroke="black" stroke-width="3"/>
</g>
<g><path d="M311.13 154.02L311.13 245.98"
fill="none" stroke="black" stroke-width="3"/>
</g>
<g><path d="M249.82 307.3L249.82 368.61"
fill="none" stroke="black" stroke-width="3"/>
</g>
<g><path d="M249.82 92.7L249.82 0.73"
fill="none" stroke="black" stroke-width="3"/>
</g>
<g><path d="M249.82 368.61L249.82 399.27"
fill="none" stroke="black" stroke-width="3"/>
</g>
<g><path d="M272.81 200L274.63 193.78M274.63 193.78L279.53 189.54M279.53 189.54L285.94 188.62M285.94 188.62L291.83 191.31M291.83 191.31L295.34 196.76M295.34 196.76L295.34 203.24M295.34 203.24L291.83 208.69M291.83 208.69L285.94 211.38M285.94 211.38L279.53 210.46M279.53 210.46L274.63 206.22M274.63 206.22L272.81 200"
fill="none" stroke="black" stroke-width="3"/>
</g>
<g><path d="M196.17 291.97L165.51 261.31M165.51 261.31L88.87 261.31"
fill="none" stroke="black" stroke-width=".5"/>
</g>
</g>
</svg>
