<?xml version="1.0" standalone="no"?><svg xmlns="http://www.w3.org/2000/svg" width="400.000" height="400.000" viewBox="0.0 0.0 400.000 400.000" version="1.1">
  <title>Produce by Acme CAD Converter</title>
  <desc>Produce by Acme CAD Converter</desc>
<g id="0" display="visible">
<g><path d="M224.22 205.17L224.22 195.02 224.07 195.15 224.22 205.17Z"
fill-rule="evenodd" fill="black"/>
<path d="M224.22 205.17L231.83 210.99 224.22 195.02 224.22 205.17Z"
fill-rule="evenodd" fill="black"/>
<path d="M231.83 210.99L231.83 188.82 224.22 195.02 231.83 210.99Z"
fill-rule="evenodd" fill="black"/>
<path d="M231.83 210.99L232.18 211.26 231.83 188.82 231.83 210.99Z"
fill-rule="evenodd" fill="black"/>
<path d="M232.18 211.26L232.18 188.89 231.83 188.82 232.18 211.26Z"
fill-rule="evenodd" fill="black"/>
<path d="M232.18 211.26L241.62 208.86 232.18 188.89 232.18 211.26Z"
fill-rule="evenodd" fill="black"/>
<path d="M241.62 208.86L241.62 190.98 232.18 188.89 241.62 208.86Z"
fill-rule="evenodd" fill="black"/>
<path d="M241.62 208.86L241.89 208.79 241.62 190.98 241.62 208.86Z"
fill-rule="evenodd" fill="black"/>
<path d="M241.89 208.79L241.89 191.55 241.62 190.98 241.89 208.79Z"
fill-rule="evenodd" fill="black"/>
<path d="M241.89 208.79L245.98 200 241.89 191.55 241.89 208.79Z"
fill-rule="evenodd" fill="black"/>
</g>
<g><path d="M180.84 180.84L219.16 219.16"
fill="none" stroke="black" stroke-width="3"/>
</g>
<g><path d="M219.16 180.84L180.84 219.16"
fill="none" stroke="black" stroke-width="3"/>
</g>
<g><path d="M138.69 245.98L140.47 260.66M140.47 260.66L145.71 274.48M145.71 274.48L154.11 286.64M154.11 286.64L165.17 296.44M165.17 296.44L178.26 303.31M178.26 303.31L192.61 306.85M192.61 306.85L207.39 306.85M207.39 306.85L221.74 303.31M221.74 303.31L234.83 296.44M234.83 296.44L245.89 286.64M245.89 286.64L254.29 274.48M254.29 274.48L259.53 260.66M259.53 260.66L261.31 245.98"
fill="none" stroke="black" stroke-width="3"/>
</g>
<g><path d="M261.31 154.02L259.53 139.34M259.53 139.34L254.29 125.52M254.29 125.52L245.89 113.36M245.89 113.36L234.83 103.56M234.83 103.56L221.74 96.69M221.74 96.69L207.39 93.15M207.39 93.15L192.61 93.15M192.61 93.15L178.26 96.69M178.26 96.69L165.17 103.56M165.17 103.56L154.11 113.36M154.11 113.36L145.71 125.52M145.71 125.52L140.47 139.34M140.47 139.34L138.69 154.02"
fill="none" stroke="black" stroke-width="3"/>
</g>
<g><path d="M138.69 154.02L138.69 245.98"
fill="none" stroke="black" stroke-width="3"/>
</g>
<g><path d="M261.31 154.02L261.31 245.98"
fill="none" stroke="black" stroke-width="3"/>
</g>
<g><path d="M200 307.3L200 368.61"
fill="none" stroke="black" stroke-width="3"/>
</g>
<g><path d="M200 368.61L200 399.27"
fill="none" stroke="black" stroke-width="3"/>
</g>
<g><path d="M188.5 249.82L190.33 243.6M190.33 243.6L195.22 239.36M195.22 239.36L201.64 238.44M201.64 238.44L207.53 241.13M207.53 241.13L211.03 246.58M211.03 246.58L211.03 253.06M211.03 253.06L207.53 258.5M207.53 258.5L201.64 261.2M201.64 261.2L195.22 260.27M195.22 260.27L190.33 256.03M190.33 256.03L188.5 249.82"
fill="none" stroke="black" stroke-width="3"/>
</g>
<g><path d="M188.5 249.82L211.5 249.82"
fill="none" stroke="black" stroke-width="3"/>
</g>
<g><path d="M192.34 249.82L211.5 249.82"
fill="none" stroke="black" stroke-width="3"/>
</g>
<g><path d="M210.01 244.16L189.99 244.16"
fill="none" stroke="black" stroke-width="3"/>
</g>
<g><path d="M192.34 244.16L200 244.16"
fill="none" stroke="black" stroke-width="3"/>
</g>
<g><path d="M207.66 244.16L200 244.16"
fill="none" stroke="black" stroke-width="3"/>
</g>
<g><path d="M193.3 240.48L206.7 240.48"
fill="none" stroke="black" stroke-width="3"/>
</g>
<g><path d="M189.99 244.16L210.01 244.16"
fill="none" stroke="black" stroke-width="3"/>
</g>
<g><path d="M211.11 246.88L188.89 246.88"
fill="none" stroke="black" stroke-width="3"/>
</g>
<g><path d="M200 307.3L200 261.31"
fill="none" stroke="black" stroke-width="3"/>
</g>
<g><path d="M222.99 200L224.82 193.78M224.82 193.78L229.71 189.54M229.71 189.54L236.12 188.62M236.12 188.62L242.02 191.31M242.02 191.31L245.52 196.76M245.52 196.76L245.52 203.24M245.52 203.24L242.02 208.69M242.02 208.69L236.12 211.38M236.12 211.38L229.71 210.46M229.71 210.46L224.82 206.22M224.82 206.22L222.99 200"
fill="none" stroke="black" stroke-width="3"/>
</g>
<g><path d="M177.01 138.69L222.99 138.69"
fill="none" stroke="black" stroke-width="3"/>
</g>
<g><path d="M200 138.69L200 31.39"
fill="none" stroke="black" stroke-width="3"/>
</g>
<g><path d="M200 31.39L200 0.73"
fill="none" stroke="black" stroke-width="3"/>
</g>
</g>
</svg>
