<?xml version="1.0" standalone="no"?><svg xmlns="http://www.w3.org/2000/svg" width="400.000" height="400.000" viewBox="0.0 0.0 400.000 400.000" version="1.1">
  <title>Produce by Acme CAD Converter</title>
  <desc>Produce by Acme CAD Converter</desc>
<g id="0" display="visible">
<g><path d="M283.3 181.83L283.3 171.48 283.14 171.61 283.3 181.83Z"
fill-rule="evenodd" fill="black"/>
<path d="M283.3 181.83L291.06 187.77 283.3 171.48 283.3 181.83Z"
fill-rule="evenodd" fill="black"/>
<path d="M291.06 187.77L291.06 165.15 283.3 171.48 291.06 187.77Z"
fill-rule="evenodd" fill="black"/>
<path d="M291.06 187.77L291.42 188.04 291.06 165.15 291.06 187.77Z"
fill-rule="evenodd" fill="black"/>
<path d="M291.42 188.04L291.42 165.23 291.06 165.15 291.42 188.04Z"
fill-rule="evenodd" fill="black"/>
<path d="M291.42 188.04L301.04 185.59 291.42 165.23 291.42 188.04Z"
fill-rule="evenodd" fill="black"/>
<path d="M301.04 185.59L301.04 167.36 291.42 165.23 301.04 185.59Z"
fill-rule="evenodd" fill="black"/>
<path d="M301.04 185.59L301.32 185.52 301.04 167.36 301.04 185.59Z"
fill-rule="evenodd" fill="black"/>
<path d="M301.32 185.52L301.32 167.94 301.04 167.36 301.32 185.52Z"
fill-rule="evenodd" fill="black"/>
<path d="M301.32 185.52L305.49 176.56 301.32 167.94 301.32 185.52Z"
fill-rule="evenodd" fill="black"/>
</g>
<g><path d="M283.3 224.81L283.3 214.46 283.14 214.59 283.3 224.81Z"
fill-rule="evenodd" fill="black"/>
<path d="M283.3 224.81L291.06 230.75 283.3 214.46 283.3 224.81Z"
fill-rule="evenodd" fill="black"/>
<path d="M291.06 230.75L291.06 208.13 283.3 214.46 291.06 230.75Z"
fill-rule="evenodd" fill="black"/>
<path d="M291.06 230.75L291.42 231.02 291.06 208.13 291.06 230.75Z"
fill-rule="evenodd" fill="black"/>
<path d="M291.42 231.02L291.42 208.21 291.06 208.13 291.42 231.02Z"
fill-rule="evenodd" fill="black"/>
<path d="M291.42 231.02L301.04 228.57 291.42 208.21 291.42 231.02Z"
fill-rule="evenodd" fill="black"/>
<path d="M301.04 228.57L301.04 210.34 291.42 208.21 301.04 228.57Z"
fill-rule="evenodd" fill="black"/>
<path d="M301.04 228.57L301.32 228.5 301.04 210.34 301.04 228.57Z"
fill-rule="evenodd" fill="black"/>
<path d="M301.32 228.5L301.32 210.92 301.04 210.34 301.32 228.5Z"
fill-rule="evenodd" fill="black"/>
<path d="M301.32 228.5L305.49 219.54 301.32 210.92 301.32 228.5Z"
fill-rule="evenodd" fill="black"/>
</g>
<g><path d="M192.19 246.89L194 261.85M194 261.85L199.35 275.94M199.35 275.94L207.91 288.34M207.91 288.34L219.19 298.34M219.19 298.34L232.53 305.34M232.53 305.34L247.17 308.95M247.17 308.95L262.24 308.95M262.24 308.95L276.87 305.34M276.87 305.34L290.21 298.34M290.21 298.34L301.49 288.34M301.49 288.34L310.05 275.94M310.05 275.94L315.4 261.85M315.4 261.85L317.22 246.89"
fill="none" stroke="black" stroke-width="3"/>
</g>
<g><path d="M317.22 153.11L315.4 138.15M315.4 138.15L310.05 124.06M310.05 124.06L301.49 111.66M301.49 111.66L290.21 101.66M290.21 101.66L276.87 94.66M276.87 94.66L262.24 91.05M262.24 91.05L247.17 91.05M247.17 91.05L232.53 94.66M232.53 94.66L219.19 101.66M219.19 101.66L207.91 111.66M207.91 111.66L199.35 124.06M199.35 124.06L194 138.15M194 138.15L192.19 153.11"
fill="none" stroke="black" stroke-width="3"/>
</g>
<g><path d="M192.19 153.11L192.19 246.89"
fill="none" stroke="black" stroke-width="3"/>
</g>
<g><path d="M317.22 153.11L317.22 246.89"
fill="none" stroke="black" stroke-width="3"/>
</g>
<g><path d="M235.16 180.46L274.24 219.54"
fill="none" stroke="black" stroke-width="3"/>
</g>
<g><path d="M274.24 180.46L235.16 219.54"
fill="none" stroke="black" stroke-width="3"/>
</g>
<g><path d="M282.05 176.56L283.91 170.22M283.91 170.22L288.9 165.89M288.9 165.89L295.44 164.95M295.44 164.95L301.45 167.7M301.45 167.7L305.02 173.25M305.02 173.25L305.02 179.86M305.02 179.86L301.45 185.42M301.45 185.42L295.44 188.16M295.44 188.16L288.9 187.22M288.9 187.22L283.91 182.89M283.91 182.89L282.05 176.56"
fill="none" stroke="black" stroke-width="3"/>
</g>
<g><path d="M242.98 246.89L244.84 240.55M244.84 240.55L249.83 236.22M249.83 236.22L256.37 235.28M256.37 235.28L262.38 238.03M262.38 238.03L265.95 243.58M265.95 243.58L265.95 250.19M265.95 250.19L262.38 255.74M262.38 255.74L256.37 258.49M256.37 258.49L249.83 257.55M249.83 257.55L244.84 253.22M244.84 253.22L242.98 246.89"
fill="none" stroke="black" stroke-width="3"/>
</g>
<g><path d="M254.93 258.61L254.93 360.19"
fill="none" stroke="black" stroke-width="3"/>
</g>
<g><path d="M254.93 360.19L254.93 368.01"
fill="none" stroke="black" stroke-width="3"/>
</g>
<g><path d="M254.93 368.01L254.93 399.27"
fill="none" stroke="black" stroke-width="3"/>
</g>
<g><path d="M231.26 262.52L278.14 262.52"
fill="none" stroke="black" stroke-width="3"/>
</g>
<g><path d="M242.98 153.11L244.84 146.78M244.84 146.78L249.83 142.45M249.83 142.45L256.37 141.51M256.37 141.51L262.38 144.26M262.38 144.26L265.95 149.81M265.95 149.81L265.95 156.42M265.95 156.42L262.38 161.97M262.38 161.97L256.37 164.72M256.37 164.72L249.83 163.78M249.83 163.78L244.84 159.45M244.84 159.45L242.98 153.11"
fill="none" stroke="black" stroke-width="3"/>
</g>
<g><path d="M254.93 141.39L254.93 39.81"
fill="none" stroke="black" stroke-width="3"/>
</g>
<g><path d="M254.93 39.81L254.93 31.99"
fill="none" stroke="black" stroke-width="3"/>
</g>
<g><path d="M254.93 31.99L254.93 0.73"
fill="none" stroke="black" stroke-width="3"/>
</g>
<g><path d="M231.26 137.48L278.14 137.48"
fill="none" stroke="black" stroke-width="3"/>
</g>
<g><path d="M282.05 219.54L283.91 213.2M283.91 213.2L288.9 208.87M288.9 208.87L295.44 207.93M295.44 207.93L301.45 210.68M301.45 210.68L305.02 216.23M305.02 216.23L305.02 222.84M305.02 222.84L301.45 228.39M301.45 228.39L295.44 231.14M295.44 231.14L288.9 230.2M288.9 230.2L283.91 225.87M283.91 225.87L282.05 219.54"
fill="none" stroke="black" stroke-width="3"/>
</g>
<g><path d="M192.19 293.77L160.93 262.52M160.93 262.52L82.78 262.52"
fill="none" stroke="black" stroke-width=".5"/>
</g>
</g>
</svg>
