<?xml version="1.0" standalone="no"?><svg xmlns="http://www.w3.org/2000/svg" width="400.000" height="400.000" viewBox="0.0 0.0 400.000 400.000" version="1.1">
  <title>Produce by Acme CAD Converter</title>
  <desc>Produce by Acme CAD Converter</desc>
<g id="0" display="visible">
<g><path d="M399.27 200L306.28 200"
fill="none" stroke="black" stroke-width="12"/>
</g>
<g><path d="M226.57 226.57L173.43 173.43"
fill="none" stroke="black" stroke-width="12"/>
</g>
<g><path d="M173.43 226.57L226.57 173.43"
fill="none" stroke="black" stroke-width="12"/>
</g>
<g><path d="M200 273.06L216.26 271.23M216.26 271.23L231.7 265.83M231.7 265.83L245.55 257.12M245.55 257.12L257.12 245.55M257.12 245.55L265.83 231.7M265.83 231.7L271.23 216.26M271.23 216.26L273.06 200M273.06 200L271.23 183.74M271.23 183.74L265.83 168.3M265.83 168.3L257.12 154.45M257.12 154.45L245.55 142.88M245.55 142.88L231.7 134.17M231.7 134.17L216.26 128.77M216.26 128.77L200 126.94"
fill="none" stroke="black" stroke-width="12"/>
</g>
<g><path d="M93.72 200L95.64 179.89M95.64 179.89L101.34 160.5M101.34 160.5L110.6 142.54M110.6 142.54L123.08 126.66M123.08 126.66L138.35 113.43M138.35 113.43L155.85 103.33M155.85 103.33L174.94 96.72M174.94 96.72L194.94 93.84M194.94 93.84L215.12 94.81M215.12 94.81L234.76 99.57M234.76 99.57L253.14 107.96M253.14 107.96L269.6 119.68M269.6 119.68L283.54 134.3M283.54 134.3L294.46 151.3M294.46 151.3L301.97 170.06M301.97 170.06L305.79 189.9M305.79 189.9L305.79 210.1M305.79 210.1L301.97 229.94M301.97 229.94L294.46 248.7M294.46 248.7L283.54 265.7M283.54 265.7L269.6 280.32M269.6 280.32L253.14 292.04M253.14 292.04L234.76 300.43M234.76 300.43L215.12 305.19M215.12 305.19L194.94 306.16M194.94 306.16L174.94 303.28M174.94 303.28L155.85 296.67M155.85 296.67L138.35 286.57M138.35 286.57L123.08 273.34M123.08 273.34L110.6 257.46M110.6 257.46L101.34 239.5M101.34 239.5L95.64 220.11M95.64 220.11L93.72 200"
fill="none" stroke="black" stroke-width="12"/>
</g>
<g><path d="M93.72 200L0.73 200"
fill="none" stroke="black" stroke-width="12"/>
</g>
<g><path d="M0.73 200L0.73 200"
fill="none" stroke="black" stroke-width=".5"/>
</g>
<g><path d="M399.27 200L399.27 200"
fill="none" stroke="black" stroke-width=".5"/>
</g>
</g>
</svg>
